# Exported by Gskelview
mtllib branch.mtl

v 62.3438 -20.5156 12.625
v 64.8438 -16.25 2.28125
v 70.9375 -26.9062 2.09375
v 62.1875 -20.4219 -8.1875
v 54.1719 -13.75 12.7188
v 56 -10.7188 2.375
v 54.0156 -13.6562 -8.09375
v 48.6719 -13.7812 62.2969
v 58.5156 -9.5 58.2344
v 62.2344 -20.1719 63.0469
v 65.4219 -13.6719 49.9219
v 43.7812 -7 55.7344
v 53.25 -3.98438 51.1406
v 60.5469 -6.90625 43.3594
v 70.9375 -11.125 -13.6406
v 73.4375 -6.85938 -24
v 79.5312 -17.5156 -24.1875
v 70.7812 -11.0312 -34.4688
v 62.7656 -4.35938 -13.5469
v 64.6094 -1.32812 -23.9062
v 62.6094 -4.26562 -34.375
v 54.6094 -11.0781 -45.0156
v 46.5312 -6.8125 -51.9375
v 49.125 -17.4688 -57.4531
v 35.9844 -10.9844 -54.3438
v 50.9844 -4.3125 -37.6875
v 42.5938 -1.28125 -44.0312
v 32.3438 -4.21875 -47.0156
v 35.2188 -16.4375 -5.10938
v 44.5312 -12.1562 -10.2656
v 48.7969 -22.8281 -5.90625
v 50.4688 -16.3438 -19.2969
v 29.625 -9.65625 -11.0781
v 38.5 -6.64062 -16.7188
v 44.875 -9.5625 -25.2656
v 18.4062 -15.8281 43.0469
v 20.6094 -11.5469 53.4531
v 15.2031 -22.2188 56.25
v 27.5156 -15.7344 61.7812
v 25.75 -9.0625 39.4375
v 28.5469 -6.03125 49.5781
v 34.8594 -8.96875 58.1719
v 43.4219 -18.4844 23.0781
v 52.5 -14.2188 17.5156
v 56.9531 -24.875 21.6875
v 58.0469 -18.3906 8.23438
v 37.5781 -11.7188 17.3594
v 46.2031 -8.6875 11.3438
v 52.2031 -11.625 2.51562
v 57.5312 -16.125 46.6094
v 55.3281 -11.8438 36.1875
v 60.75 -22.5156 33.3906
v 48.4219 -16.0312 27.8594
v 50.1875 -9.35938 50.2031
v 47.4062 -6.32812 40.0625
v 41.0781 -9.25 31.4688
v 45.6875 -9.98438 -28.25
v 47.8125 -7.64062 -34.8906
v 50.2188 -15.1406 -35.0156
v 45.5938 -9.90625 -41.6094
v 41.4531 -4.65625 -28.1875
v 43.0156 -3 -34.8281
v 41.375 -4.57812 -41.5469
v 16.7344 -19.5312 12.8438
v 20.5938 -17.1875 18.6406
v 19.2031 -24.6875 20.5938
v 27.2344 -19.4531 21.0938
v 19.3125 -14.2031 9.5
v 23.5312 -12.5469 14.8438
v 29.8125 -14.125 17.75
v 33.9375 -14.8906 51.2969
v 40.6719 -12.5469 49.5312
v 42.0625 -20.0469 51.4844
v 45.1406 -14.8125 44.0469
v 31.6094 -9.5625 47.75
v 38.0469 -7.90625 45.5
v 42.8281 -9.46875 40.5156
v 53.1562 -13.6875 2.17188
v 46.2969 -11.3438 3.34375
v 45.0781 -18.8438 1.26562
v 41.3594 -13.6094 8.40625
v 55.1719 -8.35938 5.89062
v 48.5625 -6.70312 7.57812
v 43.3594 -8.28125 12.125
v 64.7812 -10.5938 -28.5
v 58.5156 -8.23438 -31.5469
v 58.7344 -15.7344 -33.9375
v 51.5469 -10.5 -30.2812
v 64.2656 -5.25 -24.3125
v 57.9062 -3.59375 -26.7812
v 51.0156 -5.17188 -26.0781
v 35.8594 -14.5938 -21.9844
v 28.9375 -12.25 -21.1719
v 27.8281 -19.75 -23.2969
v 23.75 -14.5156 -16.3594
v 37.6719 -9.26562 -18.1562
v 30.9844 -7.60938 -16.8281
v 25.5469 -9.1875 -12.5469
v -22.9688 -32.9375 6.6875
v -6.76562 -15.4219 5.35938
v -19.5938 -42.375 12.2969
v -1.17188 -22.5625 10.9688
v -19.5938 -42.375 12.2969
v -1.17188 -22.5625 10.9688
v -19.5938 -42.375 2.29688
v -19.5938 -42.375 2.29688
v -1.17188 -22.5625 10.9688
v -1.17188 -22.5625 0.96875
v -19.5938 -42.375 2.29688
v -1.17188 -22.5625 0.96875
v -6.76562 -15.4219 5.35938
v 10.8906 -13.8594 0.96875
v -6.76562 -15.4219 5.35938
v 10.8906 -13.8594 0.96875
v 12.2188 -9.73438 4.21875
v 12.2188 -9.73438 4.21875
v 10.8906 -13.8594 0.96875
v 15.5 -10.4531 -5.03125
v 18.1875 -6.32812 -0.96875
v 27.3594 -5.54688 -8.92188
v 18.1875 -6.32812 -0.96875
v 27.3594 -5.54688 -8.92188
v 30.1719 -10.7969 -7.17188
v 33.0938 -9.95312 -9.53125
v 30.1719 -10.7969 -7.17188
v 33.0938 -9.95312 -9.53125
v 29.4844 -8.82812 -16.2344
v 29.4844 -8.82812 -16.2344
v 33.0938 -9.95312 -9.53125
v 39.9688 -5.90625 -24.6094
v 29.4844 -8.82812 -16.2344
v 39.9688 -5.90625 -24.6094
v 41.6875 -3.8125 -23.9219
v 41.6875 -3.8125 -23.9219
v 39.9688 -5.90625 -24.6094
v 39.375 -4.09375 -28.5781
v 41.8906 -1.92188 -28.1094
v 42.25 -1.5 -34.5312
v 41.8906 -1.92188 -28.1094
v 42.25 -1.5 -34.5312
v 43.9375 -4.28125 -34.9531
v 44.125 -3.82812 -36.9375
v 43.9375 -4.28125 -34.9531
v 40.25 -3.23438 -38.0156
v 41.1875 -2.8125 -44.0312
v 40.25 -3.23438 -38.0156
v 41.1875 -2.8125 -44.0312
v 42.0781 -0.625 -43.6562
v 42.0781 -0.625 -43.6562
v 41.1875 -2.8125 -44.0312
v 43.6406 -3.40625 -46.3906
v 42.0781 -0.625 -43.6562
v 43.6406 -3.40625 -46.3906
v 42.3125 -1.04688 -37.6406
v 42.3125 -1.04688 -37.6406
v 43.6406 -3.40625 -46.3906
v 44.125 -3.82812 -36.9375
v 42.25 -1.5 -34.5312
v -1.17188 -22.5625 10.9688
v 10.8906 -13.8594 0.96875
v -1.17188 -22.5625 10.9688
v 10.8906 -13.8594 10.9688
v 10.8906 -13.8594 0.96875
v 10.8906 -13.8594 10.9688
v 18.4844 -14.9844 5.21875
v 18.4844 -14.9844 5.21875
v 10.8906 -13.8594 10.9688
v 16.4531 -13.4531 13.7812
v 32.3906 -12.9531 16.5
v 32.3906 -12.9531 16.5
v 16.4531 -13.4531 13.7812
v 28.375 -12.9531 20.5625
v 32.3906 -12.9531 16.5
v 28.375 -12.9531 20.5625
v 39.2188 -11.7188 21.4531
v 28.375 -12.9531 20.5625
v 33.7812 -11.7188 24.0156
v 39.2188 -11.7188 21.4531
v 46.7656 -8.85938 37.5781
v 42.5938 -8.85938 37.2344
v 46.7656 -8.85938 37.5781
v 42.5938 -8.85938 37.2344
v 44.0781 -9.45312 41.4219
v 40.0312 -8.64062 39.125
v 44.0781 -9.45312 41.4219
v 36.3281 -8.375 46.8438
v 36.3281 -8.375 46.8438
v 40.0312 -8.64062 39.125
v 34.8438 -8.375 44.2031
v 32.7969 -7.73438 49.5938
v 32.2969 -7.73438 46.4531
v 23.1875 -5.65625 51.0625
v 32.2969 -7.73438 46.4531
v 23.9219 -6.375 47.7812
v 23.1875 -5.65625 51.0625
v 24.1875 -4.875 48.6719
v 24.1875 -4.875 48.6719
v 32.5625 -5.48438 48.2656
v 24.1875 -4.875 48.6719
v 32.5625 -5.48438 48.2656
v 36.3281 -8.375 46.8438
v 23.1875 -5.65625 51.0625
v 24.1875 -4.875 48.6719
v 32.7969 -7.73438 49.5938
v 42.0781 -0.625 -43.6562
v 42.3125 -1.04688 -37.6406
v 40.25 -3.23438 -38.0156
v 40.375 -3.6875 -34.9375
v 40.375 -3.6875 -34.9375
v 43.9375 -4.28125 -34.9531
v 40.375 -3.6875 -34.9375
v 43.2969 -4.6875 -28.8281
v 43.9375 -4.28125 -34.9531
v 43.2969 -4.6875 -28.8281
v 41.8906 -1.92188 -28.1094
v 41.8906 -1.92188 -28.1094
v 44.375 -6.5 -25.9531
v 41.8906 -1.92188 -28.1094
v 44.375 -6.5 -25.9531
v 41.6875 -3.8125 -23.9219
v 44.375 -6.5 -25.9531
v 44.9844 -4.3125 -23.6875
v 44.9844 -4.3125 -23.6875
v 43.7656 -5.90625 -20.9375
v 46.875 -5.6875 -22.0312
v 43.7656 -5.90625 -20.9375
v 46.875 -5.6875 -22.0312
v 44.375 -6.5 -25.9531
v 53.7812 -5.42188 -27.0938
v 53.7812 -5.42188 -27.0938
v 53.8438 -3.17188 -25.9219
v 57.75 -2.53125 -26.5938
v 53.8438 -3.17188 -25.9219
v 57.75 -2.53125 -26.5938
v 57.1562 -4.76562 -24.8594
v 65.1719 -3.40625 -22.1094
v 57.1562 -4.76562 -24.8594
v 67.3594 -2.70312 -24.6562
v 67.3594 -2.70312 -24.6562
v 65.3438 -1.90625 -23.0156
v 67.3594 -2.70312 -24.6562
v 65.3438 -1.90625 -23.0156
v 58.1719 -4.76562 -27.875
v 58.1719 -4.76562 -27.875
v 65.3438 -1.90625 -23.0156
v 65.3438 -1.90625 -23.0156
v 10.8906 -13.8594 10.9688
v 10.8906 -13.8594 10.9688
v -6.76562 -15.4219 5.35938
v 12.2188 -9.73438 4.21875
v 16.2031 -10.8594 9.01562
v 16.2031 -10.8594 9.01562
v 12.2188 -9.73438 4.21875
v 16.2031 -10.8594 9.01562
v 30.875 -8.71875 18.125
v 18.4844 -14.9844 5.21875
v 36.9219 -7.48438 22.5781
v 36.9219 -7.48438 22.5781
v 39.7188 -7.625 17.6406
v 36.9219 -7.48438 22.5781
v 39.7188 -7.625 17.6406
v 41.2812 -11.8438 18.9375
v 46.0938 -11.6875 13.2031
v 41.2812 -11.8438 18.9375
v 46.0938 -11.6875 13.2031
v 42.1875 -12.9219 11.9062
v 46.9688 -12.75 5.96875
v 42.1875 -12.9219 11.9062
v 46.9688 -12.75 5.96875
v 47.875 -7.29688 8.01562
v 53.0938 -7.10938 4.54688
v 47.875 -7.29688 8.01562
v 59.9688 -11.3438 1.39062
v 55.0625 -12.5781 1.71875
v 59.9688 -11.3438 1.39062
v 55.0625 -12.5781 1.71875
v 49.8281 -11.5156 9.48438
v 18.4844 -14.9844 5.21875
v 18.4844 -14.9844 5.21875
v 18.1875 -6.32812 -0.96875
v 21 -11.5781 0
v 18.4844 -14.9844 5.21875
v 21 -11.5781 0
v 15.5 -10.4531 -5.03125
v 21 -11.5781 0
v 25.4531 -9.67188 -11.9844
v 25.4531 -9.67188 -11.9844
v 31.6719 -4.70312 -12.9219
v 31.6719 -4.70312 -12.9219
v 33.0938 -9.95312 -9.53125
v 39.375 -4.09375 -28.5781
v 44.375 -6.5 -25.9531
v 43.2969 -4.6875 -28.8281
v 43.2969 -4.6875 -28.8281
v 40.375 -3.6875 -34.9375
v 49.8281 -11.5156 9.48438
v 43.8281 -7.45312 12.7812
v 43.8281 -7.45312 12.7812
v 37.625 -13.0781 15.6875
v 37.625 -13.0781 15.6875
v 39.2188 -11.7188 21.4531
v 39.2188 -11.7188 21.4531
v 44.8281 -6.17188 38.3281
v 36.9219 -7.48438 22.5781
v 44.8281 -6.17188 38.3281
v 42.5938 -8.85938 37.2344
v 42.5938 -8.85938 37.2344
v 42.4844 -7.26562 39.7031
v 42.5938 -8.85938 37.2344
v 42.4844 -7.26562 39.7031
v 40.0312 -8.64062 39.125
v 34.8438 -8.375 44.2031
v 46.7656 -8.85938 37.5781
v 44.8281 -6.17188 38.3281
v 49.7344 -7.0625 41.3906
v 47.2812 -4.875 42.1719
v 50 -4.46875 48
v 47.2812 -4.875 42.1719
v 50 -4.46875 48
v 48.6875 -7.23438 49.1719
v 48.6875 -7.23438 49.1719
v 50 -4.46875 48
v 49.4688 -6.79688 51
v 48.6875 -7.23438 49.1719
v 49.4688 -6.79688 51
v 53.4062 -6.20312 50.1406
v 55.3906 -5.78125 55.8906
v 53.4062 -6.20312 50.1406
v 55.3906 -5.78125 55.8906
v 54.4219 -3.59375 55.9688
v 54.4219 -3.59375 55.9688
v 55.3906 -5.78125 55.8906
v 54.3281 -6.375 59.125
v 54.4219 -3.59375 55.9688
v 54.3281 -6.375 59.125
v 51.3906 -4.01562 50.7656
v 51.3906 -4.01562 50.7656
v 49.4688 -6.79688 51
v 50 -4.46875 48
v 55.3906 -5.78125 55.8906
v 49.4688 -6.79688 51
v 54.4219 -3.59375 55.9688
v 51.3906 -4.01562 50.7656
v 53.4062 -6.20312 50.1406
v 51.3906 -4.01562 50.7656
v 51.8281 -6.64062 47.4688
v 53.4062 -6.20312 50.1406
v 51.8281 -6.64062 47.4688
v 48.6875 -7.23438 49.1719
v 51.8281 -6.64062 47.4688
v 46.3906 -7.65625 43.4531
v 46.3906 -7.65625 43.4531
v 44.0781 -9.45312 41.4219
v 44.0781 -9.45312 41.4219
v 44.8281 -6.17188 38.3281
v 44.0781 -9.45312 41.4219
v 42.4844 -7.26562 39.7031
v 39.7188 -7.625 17.6406
v 67.3594 -2.70312 -24.6562
v 58.1719 -4.76562 -27.875
v 53.8438 -5.42188 -24.0781
v 44.9844 -4.3125 -23.6875
v 44.375 -6.5 -25.9531
v 51.3906 -4.01562 50.7656
v 50 -4.46875 48
v 51.8281 -6.64062 47.4688
v 51.8281 -6.64062 47.4688
v 50 -4.46875 48
v 51.8281 -6.64062 47.4688
v 49.7344 -7.0625 41.3906
v 46.3906 -7.65625 43.4531
v 46.3906 -7.65625 43.4531
v 44.0781 -9.45312 41.4219
v 46.7656 -8.85938 37.5781
v 23.9219 -6.375 47.7812
v 32.2969 -7.73438 46.4531
v 32.5625 -5.48438 48.2656
v 35.7188 -6.14062 45.8281
v 35.7188 -6.14062 45.8281
v 44.0781 -9.45312 41.4219
v 34.8438 -8.375 44.2031
v 35.7188 -6.14062 45.8281
v 34.8438 -8.375 44.2031
v 42.4844 -7.26562 39.7031
v 35.7188 -6.14062 45.8281
v 44.0781 -9.45312 41.4219
v 53.7812 -5.42188 -27.0938
v 53.8438 -5.42188 -24.0781
v 46.875 -5.6875 -22.0312
v -19.5938 -42.375 2.29688
v -22.9688 -32.9375 6.6875
v -19.5938 -42.375 12.2969
v 28.375 -12.9531 20.5625
v 30.875 -8.71875 18.125
v 33.7812 -11.7188 24.0156
v 18.1875 -6.32812 -0.96875
v 30.1719 -10.7969 -7.17188
v 21 -11.5781 0
v 25.4531 -9.67188 -11.9844
v 29.4844 -8.82812 -16.2344
v 40.375 -3.6875 -34.9375
v 42.25 -1.5 -34.5312
v 42.3125 -1.04688 -37.6406
vt 0.4164 0.7633
vt 0.6085 0.843
vt 0.6105 0.6643
vt 0.8086 0.8043
vt 0.4125 1
vt 0.6026 1
vt 0.8086 1
vt 0.4164 0.7633
vt 0.6085 0.843
vt 0.6105 0.6643
vt 0.8086 0.8043
vt 0.4125 1
vt 0.6026 1
vt 0.8086 1
vt 0.4164 0.7633
vt 0.6085 0.843
vt 0.6105 0.6643
vt 0.8086 0.8043
vt 0.4125 1
vt 0.6026 1
vt 0.8086 1
vt 0.4164 0.7633
vt 0.6085 0.843
vt 0.6105 0.6643
vt 0.8086 0.8043
vt 0.4125 1
vt 0.6026 1
vt 0.8086 1
vt 0.4164 0.7633
vt 0.6085 0.843
vt 0.6105 0.6643
vt 0.8086 0.8043
vt 0.4125 1
vt 0.6026 1
vt 0.8086 1
vt 0.4164 0.7633
vt 0.6085 0.843
vt 0.6105 0.6643
vt 0.8086 0.8043
vt 0.4125 1
vt 0.6026 1
vt 0.8086 1
vt 0.4164 0.7633
vt 0.6085 0.843
vt 0.6105 0.6643
vt 0.8086 0.8043
vt 0.4125 1
vt 0.6026 1
vt 0.8086 1
vt 0.4164 0.7633
vt 0.6085 0.843
vt 0.6105 0.6643
vt 0.8086 0.8043
vt 0.4125 1
vt 0.6026 1
vt 0.8086 1
vt 0.4164 0.7633
vt 0.6085 0.843
vt 0.6105 0.6643
vt 0.8086 0.8043
vt 0.4125 1
vt 0.6026 1
vt 0.8086 1
vt 0.4164 0.7633
vt 0.6085 0.843
vt 0.6105 0.6643
vt 0.8086 0.8043
vt 0.4125 1
vt 0.6026 1
vt 0.8086 1
vt 0.4164 0.7633
vt 0.6085 0.843
vt 0.6105 0.6643
vt 0.8086 0.8043
vt 0.4125 1
vt 0.6026 1
vt 0.8086 1
vt 0.4164 0.7633
vt 0.6085 0.843
vt 0.6105 0.6643
vt 0.8086 0.8043
vt 0.4125 1
vt 0.6026 1
vt 0.8086 1
vt 0.4164 0.7633
vt 0.6085 0.843
vt 0.6105 0.6643
vt 0.8086 0.8043
vt 0.4125 1
vt 0.6026 1
vt 0.8086 1
vt 0.4164 0.7633
vt 0.6085 0.843
vt 0.6105 0.6643
vt 0.8086 0.8043
vt 0.4125 1
vt 0.6026 1
vt 0.8086 1
vt 0.7929 0.047
vt 0.8212 0.0998
vt 0.897 0.0605
vt 0.8956 0.1291
vt 0.897 0.0605
vt 0.8956 0.1291
vt 0.897 0.0605
vt 0.897 0.0605
vt 0.8956 0.1291
vt 0.9009 0.1277
vt 0.897 0.0605
vt 0.9009 0.1277
vt 0.8212 0.0998
vt 0.8859 0.1668
vt 0.8212 0.0998
vt 0.8859 0.1668
vt 0.8544 0.1772
vt 0.8544 0.1772
vt 0.8859 0.1668
vt 0.8655 0.1967
vt 0.8118 0.217
vt 0.8227 0.2542
vt 0.8118 0.217
vt 0.8227 0.2542
vt 0.8637 0.262
vt 0.8793 0.2801
vt 0.8637 0.262
vt 0.8793 0.2801
vt 0.8673 0.2641
vt 0.8673 0.2641
vt 0.8793 0.2801
vt 0.8584 0.3304
vt 0.8673 0.2641
vt 0.8584 0.3304
vt 0.8424 0.3477
vt 0.8424 0.3477
vt 0.8584 0.3304
vt 0.8453 0.3332
vt 0.8174 0.3507
vt 0.812 0.3533
vt 0.8174 0.3507
vt 0.812 0.3533
vt 0.8496 0.3611
vt 0.8438 0.3626
vt 0.8496 0.3611
vt 0.8343 0.3394
vt 0.829 0.3456
vt 0.8343 0.3394
vt 0.829 0.3456
vt 0.8179 0.354
vt 0.8179 0.354
vt 0.829 0.3456
vt 0.8379 0.3601
vt 0.8179 0.354
vt 0.8379 0.3601
vt 0.8237 0.3551
vt 0.8237 0.3551
vt 0.8379 0.3601
vt 0.8438 0.3626
vt 0.812 0.3533
vt 0.8956 0.1291
vt 0.8859 0.1668
vt 0.8956 0.1291
vt 0.8859 0.1668
vt 0.8859 0.1668
vt 0.8859 0.1668
vt 0.904 0.2124
vt 0.904 0.2124
vt 0.8859 0.1668
vt 0.8828 0.2014
vt 0.896 0.2745
vt 0.896 0.2745
vt 0.8828 0.2014
vt 0.8987 0.2551
vt 0.896 0.2745
vt 0.8987 0.2551
vt 0.8825 0.3176
vt 0.8987 0.2551
vt 0.8802 0.2842
vt 0.8825 0.3176
vt 0.8707 0.3649
vt 0.8689 0.3393
vt 0.8707 0.3649
vt 0.8689 0.3393
vt 0.8775 0.3479
vt 0.8649 0.3238
vt 0.8775 0.3479
vt 0.8598 0.3013
vt 0.8598 0.3013
vt 0.8649 0.3238
vt 0.8592 0.2922
vt 0.8496 0.2803
vt 0.8494 0.2772
vt 0.8225 0.2284
vt 0.8494 0.2772
vt 0.8322 0.2323
vt 0.8225 0.2284
vt 0.8125 0.2353
vt 0.8125 0.2353
vt 0.8498 0.2855
vt 0.8125 0.2353
vt 0.8498 0.2855
vt 0.8598 0.3013
vt 0.8225 0.2284
vt 0.8125 0.2353
vt 0.8496 0.2803
vt 0.8179 0.354
vt 0.8237 0.3551
vt 0.8343 0.3394
vt 0.8402 0.3398
vt 0.8402 0.3398
vt 0.8496 0.3611
vt 0.8402 0.3398
vt 0.8438 0.3521
vt 0.8496 0.3611
vt 0.8438 0.3521
vt 0.8174 0.3507
vt 0.8174 0.3507
vt 0.8382 0.3525
vt 0.8174 0.3507
vt 0.8382 0.3525
vt 0.8424 0.3477
vt 0.8382 0.3525
vt 0.8344 0.3686
vt 0.8344 0.3686
vt 0.86 0.3538
vt 0.8584 0.3731
vt 0.86 0.3538
vt 0.8584 0.3731
vt 0.8382 0.3525
vt 0.8579 0.4156
vt 0.8579 0.4156
vt 0.8393 0.4228
vt 0.8323 0.4475
vt 0.8393 0.4228
vt 0.8323 0.4475
vt 0.8506 0.4369
vt 0.8311 0.4932
vt 0.8506 0.4369
vt 0.8227 0.5073
vt 0.8227 0.5073
vt 0.8113 0.4957
vt 0.8227 0.5073
vt 0.8113 0.4957
vt 0.8511 0.4432
vt 0.8511 0.4432
vt 0.8113 0.4957
vt 0.8113 0.4957
vt 0.8859 0.1668
vt 0.8859 0.1668
vt 0.8212 0.0998
vt 0.8544 0.1772
vt 0.871 0.2007
vt 0.871 0.2007
vt 0.8544 0.1772
vt 0.871 0.2007
vt 0.8365 0.2683
vt 0.904 0.2124
vt 0.8482 0.3059
vt 0.8482 0.3059
vt 0.8512 0.3228
vt 0.8482 0.3059
vt 0.8512 0.3228
vt 0.8852 0.3301
vt 0.8851 0.3598
vt 0.8852 0.3301
vt 0.8851 0.3598
vt 0.8998 0.3347
vt 0.8997 0.3642
vt 0.8998 0.3347
vt 0.8997 0.3642
vt 0.8503 0.3732
vt 0.8501 0.4054
vt 0.8503 0.3732
vt 0.8865 0.4453
vt 0.9008 0.414
vt 0.8865 0.4453
vt 0.9008 0.414
vt 0.8845 0.3829
vt 0.904 0.2124
vt 0.904 0.2124
vt 0.8118 0.217
vt 0.8774 0.2111
vt 0.904 0.2124
vt 0.8774 0.2111
vt 0.8655 0.1967
vt 0.8774 0.2111
vt 0.8767 0.2387
vt 0.8767 0.2387
vt 0.8389 0.2807
vt 0.8389 0.2807
vt 0.8793 0.2801
vt 0.8453 0.3332
vt 0.8382 0.3525
vt 0.8438 0.3521
vt 0.8438 0.3521
vt 0.8402 0.3398
vt 0.8845 0.3829
vt 0.8507 0.3483
vt 0.8507 0.3483
vt 0.9001 0.3065
vt 0.9001 0.3065
vt 0.8825 0.3176
vt 0.8825 0.3176
vt 0.864 0.3601
vt 0.8482 0.3059
vt 0.864 0.3601
vt 0.8689 0.3393
vt 0.8689 0.3393
vt 0.8478 0.3402
vt 0.8689 0.3393
vt 0.8478 0.3402
vt 0.8649 0.3238
vt 0.8592 0.2922
vt 0.8707 0.3649
vt 0.864 0.3601
vt 0.8481 0.3849
vt 0.848 0.3763
vt 0.8386 0.3992
vt 0.848 0.3763
vt 0.8386 0.3992
vt 0.85 0.3782
vt 0.85 0.3782
vt 0.8386 0.3992
vt 0.8444 0.3834
vt 0.85 0.3782
vt 0.8444 0.3834
vt 0.8682 0.4126
vt 0.8633 0.4252
vt 0.8682 0.4126
vt 0.8633 0.4252
vt 0.845 0.426
vt 0.845 0.426
vt 0.8633 0.4252
vt 0.8708 0.4181
vt 0.845 0.426
vt 0.8708 0.4181
vt 0.8494 0.407
vt 0.8494 0.407
vt 0.8444 0.3834
vt 0.8386 0.3992
vt 0.8633 0.4252
vt 0.8444 0.3834
vt 0.845 0.426
vt 0.8494 0.407
vt 0.8682 0.4126
vt 0.8494 0.407
vt 0.8435 0.3981
vt 0.8682 0.4126
vt 0.8435 0.3981
vt 0.85 0.3782
vt 0.8435 0.3981
vt 0.8546 0.3637
vt 0.8546 0.3637
vt 0.8775 0.3479
vt 0.8775 0.3479
vt 0.864 0.3601
vt 0.8775 0.3479
vt 0.8478 0.3402
vt 0.8512 0.3228
vt 0.8227 0.5073
vt 0.8511 0.4432
vt 0.8579 0.4161
vt 0.8344 0.3686
vt 0.8382 0.3525
vt 0.8494 0.407
vt 0.8386 0.3992
vt 0.8435 0.3981
vt 0.8435 0.3981
vt 0.8386 0.3992
vt 0.8435 0.3981
vt 0.8481 0.3849
vt 0.8546 0.3637
vt 0.8546 0.3637
vt 0.8775 0.3479
vt 0.8707 0.3649
vt 0.8322 0.2323
vt 0.8494 0.2772
vt 0.8498 0.2855
vt 0.8598 0.3041
vt 0.8598 0.3041
vt 0.8775 0.3479
vt 0.8592 0.2922
vt 0.8598 0.3041
vt 0.8592 0.2922
vt 0.8478 0.3402
vt 0.8598 0.3041
vt 0.8775 0.3479
vt 0.8579 0.4156
vt 0.8579 0.4161
vt 0.8584 0.3731
vt 0.897 0.0605
vt 0.7929 0.047
vt 0.897 0.0605
vt 0.8987 0.2551
vt 0.8365 0.2683
vt 0.8802 0.2842
vt 0.8118 0.217
vt 0.8637 0.262
vt 0.8774 0.2111
vt 0.8767 0.2387
vt 0.8673 0.2641
vt 0.8402 0.3398
vt 0.812 0.3533
vt 0.8237 0.3551
vn 0.68903 0.59562 0.412886
vn 0.689394 0.724191 0.0168105
vn 0.85753 0.514009 0.0209104
vn 0.698824 0.59562 -0.396083
vn 0.534109 0.75716 0.376081
vn 0.513999 0.857699 0.0125336
vn 0.543058 0.75716 -0.36304
vn 0.0787422 0.59562 0.799398
vn 0.397113 0.724191 0.56378
vn 0.493965 0.514009 0.70128
vn 0.734394 0.59562 0.325427
vn 0 0.75716 0.65323
vn 0.29608 0.857699 0.420344
vn 0.615074 0.75716 0.219986
vn 0.68903 0.59562 0.412886
vn 0.689394 0.724191 0.0168105
vn 0.85753 0.514009 0.0209104
vn 0.698824 0.59562 -0.396083
vn 0.534109 0.75716 0.376081
vn 0.513999 0.857699 0.0125336
vn 0.543058 0.75716 -0.36304
vn 0.688892 0.59562 -0.413116
vn 0.324904 0.724191 -0.608263
vn 0.404144 0.514009 -0.756612
vn -0.0593653 0.59562 -0.80107
vn 0.583417 0.75716 -0.293826
vn 0.242242 0.857699 -0.45351
vn -0.0960743 0.75716 -0.646126
vn 0.156726 0.59562 0.787829
vn 0.463146 0.724191 0.510923
vn 0.576103 0.514009 0.635532
vn 0.762758 0.59562 0.251869
vn 0.0799708 0.75716 0.648316
vn 0.335859 0.857699 0.389295
vn 0.633676 0.75716 0.158633
vn -0.801119 0.59562 -0.0586975
vn -0.615796 0.724191 0.31039
vn -0.765982 0.514009 0.386091
vn -0.445867 0.59562 0.668161
vn -0.646206 0.75716 -0.0955357
vn -0.459126 0.857699 0.231421
vn -0.321628 0.75716 0.568564
vn 0.195198 0.59562 0.779189
vn 0.475547 0.724191 0.499402
vn 0.591528 0.514009 0.6212
vn 0.774199 0.59562 0.214135
vn 0.111689 0.75716 0.643611
vn 0.354559 0.857699 0.372344
vn 0.640697 0.75716 0.127345
vn 0.799411 0.59562 0.078609
vn 0.630379 0.724191 -0.279587
vn 0.784122 0.514009 -0.347775
vn 0.462351 0.59562 -0.656862
vn 0.64363 0.75716 0.111582
vn 0.469999 0.857699 -0.208455
vn 0.335673 0.75716 -0.560387
vn 0.787848 0.449507 0.420998
vn 0.8174 0.575725 0.0199318
vn 0.949288 0.313556 0.0231478
vn 0.807431 0.449507 -0.382098
vn 0.672681 0.634321 0.380969
vn 0.689394 0.724191 0.0168105
vn 0.681707 0.634321 -0.364572
vn -0.817032 0.427447 0.386974
vn -0.502656 0.575725 0.644886
vn -0.583759 0.313556 0.748938
vn -0.173704 0.449507 0.876225
vn -0.706577 0.634321 0.313664
vn -0.423939 0.724191 0.543896
vn -0.131671 0.634321 0.761774
vn 0.0657205 0.449507 0.890856
vn 0.437479 0.575725 0.690763
vn 0.508066 0.313556 0.802217
vn 0.766239 0.449507 0.459152
vn 0.0379368 0.634321 0.772139
vn 0.354559 0.724191 0.591468
vn 0.672681 0.634321 0.380969
vn -0.0222222 0.449507 -0.893001
vn -0.385712 0.575725 -0.720948
vn -0.468362 0.313556 -0.826027
vn -0.74295 0.449507 -0.495953
vn 0.0376793 0.634321 -0.772151
vn -0.325309 0.724191 -0.608047
vn -0.653313 0.634321 -0.413303
vn 0.538343 0.427447 -0.726275
vn 0.139532 0.575725 -0.80565
vn 0.162045 0.313556 -0.935641
vn -0.321796 0.449507 -0.833301
vn 0.475457 0.634321 -0.609572
vn 0.117681 0.724191 -0.679484
vn -0.296109 0.634321 -0.714112
vn 0.0654235 0.449507 -0.890878
vn -0.349869 0.575725 -0.739008
vn -0.427262 0.313556 -0.848015
vn -0.717717 0.449507 -0.531814
vn 0.0755257 0.634321 -0.769372
vn -0.295079 0.724191 -0.623278
vn -0.632244 0.634321 -0.444865
vn -0.975733 0.218961 0.000488076
vn -0.551477 0.831435 -0.0677455
vn -0.44689 -0.0981934 0.889184
vn 0.584065 -0.615419 0.529271
vn -0.44689 -0.0981934 0.889184
vn 0.584065 -0.615419 0.529271
vn -0.126134 -0.514295 -0.848287
vn -0.126134 -0.514295 -0.848287
vn 0.584065 -0.615419 0.529271
vn 0.353274 -0.382876 -0.853583
vn -0.126134 -0.514295 -0.848287
vn 0.353274 -0.382876 -0.853583
vn -0.551477 0.831435 -0.0677455
vn -0.0760179 -0.634578 -0.769111
vn -0.551477 0.831435 -0.0677455
vn -0.0760179 -0.634578 -0.769111
vn -0.243005 0.970025 0.000121555
vn -0.243005 0.970025 0.000121555
vn -0.0760179 -0.634578 -0.769111
vn -0.634514 -0.0247104 -0.772517
vn 0.216845 0.844822 0.489137
vn -0.00292312 0.992478 0.122389
vn 0.216845 0.844822 0.489137
vn -0.00292312 0.992478 0.122389
vn 0.587897 -0.555761 0.587799
vn 0.681707 -0.47159 0.559356
vn 0.587897 -0.555761 0.587799
vn 0.681707 -0.47159 0.559356
vn -0.584443 -0.313872 -0.748272
vn -0.584443 -0.313872 -0.748272
vn 0.681707 -0.47159 0.559356
vn -0.471735 -0.845 -0.251876
vn -0.584443 -0.313872 -0.748272
vn -0.471735 -0.845 -0.251876
vn -0.192984 0.980781 0.0287283
vn -0.192984 0.980781 0.0287283
vn -0.471735 -0.845 -0.251876
vn -0.994929 -0.0247105 -0.0975003
vn 0.499221 0.844822 0.192497
vn 0.0822218 0.992478 0.0907035
vn 0.499221 0.844822 0.192497
vn 0.0822218 0.992478 0.0907035
vn 0.831342 -0.555761 -0.000138583
vn 0.844474 -0.535189 -0.0208737
vn 0.831342 -0.555761 -0.000138583
vn -0.916907 -0.382876 -0.112636
vn -0.797325 -0.47159 -0.376665
vn -0.916907 -0.382876 -0.112636
vn -0.797325 -0.47159 -0.376665
vn -0.542765 0.788303 -0.289801
vn -0.542765 0.788303 -0.289801
vn -0.797325 -0.47159 -0.376665
vn 0.706358 0.359776 -0.609607
vn -0.542765 0.788303 -0.289801
vn 0.706358 0.359776 -0.609607
vn 0.0776716 0.992478 0.0946291
vn 0.0776716 0.992478 0.0946291
vn 0.706358 0.359776 -0.609607
vn 0.844474 -0.535189 -0.0208737
vn 0.0822218 0.992478 0.0907035
vn 0.584065 -0.615419 0.529271
vn -0.0760179 -0.634578 -0.769111
vn 0.584065 -0.615419 0.529271
vn -0.26538 0.0734061 0.961346
vn -0.0760179 -0.634578 -0.769111
vn -0.26538 0.0734061 0.961346
vn 0.80831 -0.535189 -0.245373
vn 0.80831 -0.535189 -0.245373
vn -0.26538 0.0734061 0.961346
vn -0.306357 -0.653356 0.692294
vn 0.191282 -0.615419 -0.764638
vn 0.191282 -0.615419 -0.764638
vn -0.306357 -0.653356 0.692294
vn -0.422779 -0.337081 0.84121
vn 0.191282 -0.615419 -0.764638
vn -0.422779 -0.337081 0.84121
vn 0.596614 -0.788508 0.149355
vn -0.422779 -0.337081 0.84121
vn -0.573523 -0.360087 0.735805
vn 0.596614 -0.788508 0.149355
vn 0.531729 -0.817739 -0.220379
vn -0.987726 -0.122589 -0.0967944
vn 0.531729 -0.817739 -0.220379
vn -0.987726 -0.122589 -0.0967944
vn 0.020733 -0.535189 0.844478
vn -0.535539 -0.653356 -0.535093
vn 0.020733 -0.535189 0.844478
vn 0.476509 -0.514295 0.71305
vn 0.476509 -0.514295 0.71305
vn -0.535539 -0.653356 -0.535093
vn -0.682133 -0.337081 -0.6489
vn 0.152707 -0.449805 0.879975
vn -0.562689 -0.405434 -0.720419
vn -0.782595 -0.555761 0.280491
vn -0.562689 -0.405434 -0.720419
vn -0.519305 0.242844 -0.819359
vn -0.782595 -0.555761 0.280491
vn -0.237073 0.970025 0.053367
vn -0.237073 0.970025 0.053367
vn 0.23942 0.970025 -0.041589
vn -0.237073 0.970025 0.053367
vn 0.23942 0.970025 -0.041589
vn 0.476509 -0.514295 0.71305
vn -0.782595 -0.555761 0.280491
vn -0.237073 0.970025 0.053367
vn 0.152707 -0.449805 0.879975
vn -0.542765 0.788303 -0.289801
vn 0.0776716 0.992478 0.0946291
vn -0.916907 -0.382876 -0.112636
vn -0.948345 -0.313872 -0.0461188
vn -0.948345 -0.313872 -0.0461188
vn 0.831342 -0.555761 -0.000138583
vn -0.948345 -0.313872 -0.0461188
vn 0.568159 -0.788508 -0.235478
vn 0.831342 -0.555761 -0.000138583
vn 0.568159 -0.788508 -0.235478
vn 0.499221 0.844822 0.192497
vn 0.499221 0.844822 0.192497
vn 0.379587 -0.535189 -0.754643
vn 0.499221 0.844822 0.192497
vn 0.379587 -0.535189 -0.754643
vn -0.192984 0.980781 0.0287283
vn 0.379587 -0.535189 -0.754643
vn 0.0687423 0.975697 0.208062
vn 0.0687423 0.975697 0.208062
vn 0.491616 0.0734061 0.867713
vn 0.272486 -0.653356 0.706312
vn 0.491616 0.0734061 0.867713
vn 0.272486 -0.653356 0.706312
vn 0.379587 -0.535189 -0.754643
vn -0.126134 -0.514295 -0.848287
vn -0.126134 -0.514295 -0.848287
vn -0.0977654 0.995184 -0.00716321
vn -0.232575 0.970025 -0.0704317
vn -0.0977654 0.995184 -0.00716321
vn -0.232575 0.970025 -0.0704317
vn 0.134144 -0.405434 0.904228
vn 0.0476039 0.242844 0.968897
vn 0.134144 -0.405434 0.904228
vn 0.819124 -0.555761 0.142006
vn 0.819124 -0.555761 0.142006
vn 0.230751 0.970025 0.0761957
vn 0.819124 -0.555761 0.142006
vn 0.230751 0.970025 0.0761957
vn 0.279904 -0.449805 -0.848133
vn 0.279904 -0.449805 -0.848133
vn 0.230751 0.970025 0.0761957
vn 0.230751 0.970025 0.0761957
vn -0.26538 0.0734061 0.961346
vn -0.26538 0.0734061 0.961346
vn -0.551477 0.831435 -0.0677455
vn -0.243005 0.970025 0.000121555
vn -0.0886734 0.975697 0.200381
vn -0.0886734 0.975697 0.200381
vn -0.243005 0.970025 0.000121555
vn -0.0886734 0.975697 0.200381
vn -0.0640593 0.995184 -0.0742011
vn 0.80831 -0.535189 -0.245373
vn 0.0374658 0.985275 0.166825
vn 0.0374658 0.985275 0.166825
vn 0.261605 0.963768 -0.0520875
vn 0.0374658 0.985275 0.166825
vn 0.261605 0.963768 -0.0520875
vn 0.712638 -0.427748 0.556038
vn 0.684545 -0.382876 0.620325
vn 0.712638 -0.427748 0.556038
vn 0.684545 -0.382876 0.620325
vn -0.536727 -0.67174 -0.510577
vn -0.426792 -0.67174 -0.605486
vn -0.536727 -0.67174 -0.510577
vn -0.426792 -0.67174 -0.605486
vn -0.113079 0.992478 0.0469108
vn -0.289371 0.59562 -0.749334
vn -0.113079 0.992478 0.0469108
vn 0.776819 0.170816 0.606115
vn -0.144778 -0.67174 -0.726502
vn 0.776819 0.170816 0.606115
vn -0.144778 -0.67174 -0.726502
vn 0.626564 -0.360087 0.691198
vn 0.80831 -0.535189 -0.245373
vn 0.80831 -0.535189 -0.245373
vn 0.216845 0.844822 0.489137
vn 0.562292 -0.788508 0.249164
vn 0.80831 -0.535189 -0.245373
vn 0.562292 -0.788508 0.249164
vn -0.634514 -0.0247104 -0.772517
vn 0.562292 -0.788508 0.249164
vn -0.637911 -0.313872 -0.703245
vn -0.637911 -0.313872 -0.703245
vn -0.100052 0.992478 0.0705491
vn -0.100052 0.992478 0.0705491
vn 0.681707 -0.47159 0.559356
vn -0.994929 -0.0247105 -0.0975003
vn 0.379587 -0.535189 -0.754643
vn 0.568159 -0.788508 -0.235478
vn 0.568159 -0.788508 -0.235478
vn -0.948345 -0.313872 -0.0461188
vn 0.626564 -0.360087 0.691198
vn -0.0146286 0.999699 -0.0197079
vn -0.0146286 0.999699 -0.0197079
vn -0.436163 -0.653356 -0.618779
vn -0.436163 -0.653356 -0.618779
vn 0.596614 -0.788508 0.149355
vn 0.596614 -0.788508 0.149355
vn 0.0737594 0.975697 -0.206337
vn 0.0374658 0.985275 0.166825
vn 0.0737594 0.975697 -0.206337
vn -0.987726 -0.122589 -0.0967944
vn -0.987726 -0.122589 -0.0967944
vn -0.233258 0.956931 -0.172839
vn -0.987726 -0.122589 -0.0967944
vn -0.233258 0.956931 -0.172839
vn -0.535539 -0.653356 -0.535093
vn -0.682133 -0.337081 -0.6489
vn 0.531729 -0.817739 -0.220379
vn 0.0737594 0.975697 -0.206337
vn 0.932919 -0.000166698 -0.360087
vn -0.511927 0.844822 0.155588
vn -0.117169 0.992478 -0.0354828
vn -0.511927 0.844822 0.155588
vn -0.117169 0.992478 -0.0354828
vn -0.712828 -0.555761 0.427793
vn -0.712828 -0.555761 0.427793
vn -0.117169 0.992478 -0.0354828
vn -0.724309 -0.535189 0.434683
vn -0.712828 -0.555761 0.427793
vn -0.724309 -0.535189 0.434683
vn 0.869735 -0.382876 -0.311396
vn 0.881818 -0.47159 -0.000146998
vn 0.869735 -0.382876 -0.311396
vn 0.881818 -0.47159 -0.000146998
vn 0.615104 0.788303 0.0149989
vn 0.615104 0.788303 0.0149989
vn 0.881818 -0.47159 -0.000146998
vn -0.310713 0.382568 0.870114
vn 0.615104 0.788303 0.0149989
vn -0.310713 0.382568 0.870114
vn -0.115286 0.992478 -0.0411898
vn -0.115286 0.992478 -0.0411898
vn -0.724309 -0.535189 0.434683
vn -0.117169 0.992478 -0.0354828
vn 0.881818 -0.47159 -0.000146998
vn -0.724309 -0.535189 0.434683
vn 0.615104 0.788303 0.0149989
vn -0.115286 0.992478 -0.0411898
vn 0.869735 -0.382876 -0.311396
vn -0.115286 0.992478 -0.0411898
vn 0.877116 -0.313872 -0.363527
vn 0.869735 -0.382876 -0.311396
vn 0.877116 -0.313872 -0.363527
vn -0.712828 -0.555761 0.427793
vn 0.877116 -0.313872 -0.363527
vn -0.378093 -0.788508 0.485078
vn -0.378093 -0.788508 0.485078
vn 0.020733 -0.535189 0.844478
vn 0.020733 -0.535189 0.844478
vn 0.0737594 0.975697 -0.206337
vn 0.020733 -0.535189 0.844478
vn -0.233258 0.956931 -0.172839
vn 0.261605 0.963768 -0.0520875
vn 0.819124 -0.555761 0.142006
vn 0.279904 -0.449805 -0.848133
vn 0.273324 -0.337081 0.900927
vn 0.0687423 0.975697 0.208062
vn 0.379587 -0.535189 -0.754643
vn -0.115286 0.992478 -0.0411898
vn -0.117169 0.992478 -0.0354828
vn 0.877116 -0.313872 -0.363527
vn 0.877116 -0.313872 -0.363527
vn -0.117169 0.992478 -0.0354828
vn 0.877116 -0.313872 -0.363527
vn 0.932919 -0.000166698 -0.360087
vn -0.378093 -0.788508 0.485078
vn -0.378093 -0.788508 0.485078
vn 0.020733 -0.535189 0.844478
vn 0.531729 -0.817739 -0.220379
vn -0.519305 0.242844 -0.819359
vn -0.562689 -0.405434 -0.720419
vn 0.23942 0.970025 -0.041589
vn 0.0905578 0.995184 -0.0375324
vn 0.0905578 0.995184 -0.0375324
vn 0.020733 -0.535189 0.844478
vn -0.682133 -0.337081 -0.6489
vn 0.0905578 0.995184 -0.0375324
vn -0.682133 -0.337081 -0.6489
vn -0.233258 0.956931 -0.172839
vn 0.0905578 0.995184 -0.0375324
vn 0.020733 -0.535189 0.844478
vn -0.126134 -0.514295 -0.848287
vn 0.273324 -0.337081 0.900927
vn 0.272486 -0.653356 0.706312
vn -0.126134 -0.514295 -0.848287
vn -0.975733 0.218961 0.000488076
vn -0.44689 -0.0981934 0.889184
vn -0.422779 -0.337081 0.84121
vn -0.0640593 0.995184 -0.0742011
vn -0.573523 -0.360087 0.735805
vn 0.216845 0.844822 0.489137
vn 0.587897 -0.555761 0.587799
vn 0.562292 -0.788508 0.249164
vn -0.637911 -0.313872 -0.703245
vn -0.584443 -0.313872 -0.748272
vn -0.948345 -0.313872 -0.0461188
vn 0.0822218 0.992478 0.0907035
vn 0.0776716 0.992478 0.0946291

g _0
usemtl MD3_[default][Box01]_0
f 1/1/1 3/3/3 2/2/2
f 3/3/3 4/4/4 2/2/2
f 1/1/1 2/2/2 5/5/5
f 2/2/2 6/6/6 5/5/5
f 2/2/2 7/7/7 6/6/6
f 2/2/2 4/4/4 7/7/7
f 8/8/8 10/10/10 9/9/9
f 10/10/10 11/11/11 9/9/9
f 8/8/8 9/9/9 12/12/12
f 9/9/9 13/13/13 12/12/12
f 9/9/9 14/14/14 13/13/13
f 9/9/9 11/11/11 14/14/14
f 15/15/15 17/17/17 16/16/16
f 17/17/17 18/18/18 16/16/16
f 15/15/15 16/16/16 19/19/19
f 16/16/16 20/20/20 19/19/19
f 16/16/16 21/21/21 20/20/20
f 16/16/16 18/18/18 21/21/21
f 22/22/22 24/24/24 23/23/23
f 24/24/24 25/25/25 23/23/23
f 22/22/22 23/23/23 26/26/26
f 23/23/23 27/27/27 26/26/26
f 23/23/23 28/28/28 27/27/27
f 23/23/23 25/25/25 28/28/28
f 29/29/29 31/31/31 30/30/30
f 31/31/31 32/32/32 30/30/30
f 29/29/29 30/30/30 33/33/33
f 30/30/30 34/34/34 33/33/33
f 30/30/30 35/35/35 34/34/34
f 30/30/30 32/32/32 35/35/35
f 36/36/36 38/38/38 37/37/37
f 38/38/38 39/39/39 37/37/37
f 36/36/36 37/37/37 40/40/40
f 37/37/37 41/41/41 40/40/40
f 37/37/37 42/42/42 41/41/41
f 37/37/37 39/39/39 42/42/42
f 43/43/43 45/45/45 44/44/44
f 45/45/45 46/46/46 44/44/44
f 43/43/43 44/44/44 47/47/47
f 44/44/44 48/48/48 47/47/47
f 44/44/44 49/49/49 48/48/48
f 44/44/44 46/46/46 49/49/49
f 50/50/50 52/52/52 51/51/51
f 52/52/52 53/53/53 51/51/51
f 50/50/50 51/51/51 54/54/54
f 51/51/51 55/55/55 54/54/54
f 51/51/51 56/56/56 55/55/55
f 51/51/51 53/53/53 56/56/56
f 57/57/57 59/59/59 58/58/58
f 59/59/59 60/60/60 58/58/58
f 57/57/57 58/58/58 61/61/61
f 58/58/58 62/62/62 61/61/61
f 58/58/58 63/63/63 62/62/62
f 58/58/58 60/60/60 63/63/63
f 64/64/64 66/66/66 65/65/65
f 66/66/66 67/67/67 65/65/65
f 64/64/64 65/65/65 68/68/68
f 65/65/65 69/69/69 68/68/68
f 65/65/65 70/70/70 69/69/69
f 65/65/65 67/67/67 70/70/70
f 71/71/71 73/73/73 72/72/72
f 73/73/73 74/74/74 72/72/72
f 71/71/71 72/72/72 75/75/75
f 72/72/72 76/76/76 75/75/75
f 72/72/72 77/77/77 76/76/76
f 72/72/72 74/74/74 77/77/77
f 78/78/78 80/80/80 79/79/79
f 80/80/80 81/81/81 79/79/79
f 78/78/78 79/79/79 82/82/82
f 79/79/79 83/83/83 82/82/82
f 79/79/79 84/84/84 83/83/83
f 79/79/79 81/81/81 84/84/84
f 85/85/85 87/87/87 86/86/86
f 87/87/87 88/88/88 86/86/86
f 85/85/85 86/86/86 89/89/89
f 86/86/86 90/90/90 89/89/89
f 86/86/86 91/91/91 90/90/90
f 86/86/86 88/88/88 91/91/91
f 92/92/92 94/94/94 93/93/93
f 94/94/94 95/95/95 93/93/93
f 92/92/92 93/93/93 96/96/96
f 93/93/93 97/97/97 96/96/96
f 93/93/93 98/98/98 97/97/97
f 93/93/93 95/95/95 98/98/98

g _1
usemtl MD3_[default][Box01]_0
f 99/99/99 101/101/101 100/100/100
f 101/101/101 102/102/102 100/100/100
f 103/103/103 105/105/105 104/104/104
f 106/106/106 108/108/108 107/107/107
f 109/109/109 111/111/111 110/110/110
f 111/111/111 112/112/112 110/110/110
f 113/113/113 115/115/115 114/114/114
f 116/116/116 118/118/118 117/117/117
f 116/116/116 119/119/119 118/118/118
f 119/119/119 120/120/120 118/118/118
f 121/121/121 123/123/123 122/122/122
f 123/123/123 124/124/124 122/122/122
f 125/125/125 127/127/127 126/126/126
f 128/128/128 130/130/130 129/129/129
f 131/131/131 133/133/133 132/132/132
f 134/134/134 136/136/136 135/135/135
f 134/134/134 137/137/137 136/136/136
f 137/137/137 138/138/138 136/136/136
f 139/139/139 141/141/141 140/140/140
f 141/141/141 142/142/142 140/140/140
f 143/143/143 144/144/144 142/142/142
f 144/144/144 145/145/145 142/142/142
f 146/146/146 148/148/148 147/147/147
f 149/149/149 151/151/151 150/150/150
f 152/152/152 154/154/154 153/153/153
f 155/155/155 157/157/157 156/156/156
f 155/155/155 158/158/158 157/157/157
f 145/145/145 153/153/153 142/142/142
f 108/108/108 117/117/117 159/159/159
f 160/160/160 162/162/162 161/161/161
f 163/163/163 165/165/165 164/164/164
f 166/166/166 168/168/168 167/167/167
f 166/166/166 169/169/169 168/168/168
f 170/170/170 172/172/172 171/171/171
f 173/173/173 175/175/175 174/174/174
f 175/175/175 177/177/177 176/176/176
f 178/178/178 179/179/179 177/177/177
f 179/179/179 180/180/180 177/177/177
f 181/181/181 183/183/183 182/182/182
f 183/183/183 184/184/184 182/182/182
f 185/185/185 186/186/186 184/184/184
f 187/187/187 189/189/189 188/188/188
f 187/187/187 190/190/190 189/189/189
f 190/190/190 191/191/191 189/189/189
f 190/190/190 192/192/192 191/191/191
f 192/192/192 194/194/194 193/193/193
f 195/195/195 196/196/196 194/194/194
f 197/197/197 198/198/198 194/194/194
f 199/199/199 190/190/190 200/200/200
f 190/190/190 201/201/201 200/200/200
f 202/202/202 204/204/204 203/203/203
f 205/205/205 207/207/207 206/206/206
f 207/207/207 208/208/208 206/206/206
f 144/144/144 141/141/141 209/209/209
f 210/210/210 212/212/212 211/211/211
f 213/213/213 215/215/215 214/214/214
f 216/216/216 217/217/217 212/212/212
f 218/218/218 220/220/220 219/219/219
f 134/134/134 222/222/222 221/221/221
f 134/134/134 224/224/224 223/223/223
f 224/224/224 225/225/225 223/223/223
f 226/226/226 228/228/228 227/227/227
f 228/228/228 229/229/229 227/227/227
f 228/228/228 231/231/231 230/230/230
f 231/231/231 232/232/232 230/230/230
f 233/233/233 235/235/235 234/234/234
f 235/235/235 236/236/236 234/234/234
f 237/237/237 238/238/238 236/236/236
f 239/239/239 240/240/240 236/236/236
f 241/241/241 243/243/243 242/242/242
f 244/244/244 232/232/232 245/245/245
f 244/244/244 230/230/230 232/232/232
f 246/246/246 234/234/234 236/236/236
f 102/102/102 247/247/247 100/100/100
f 248/248/248 250/250/250 249/249/249
f 247/247/247 251/251/251 250/250/250
f 252/252/252 166/166/166 253/253/253
f 254/254/254 255/255/255 166/166/166
f 255/255/255 170/170/170 256/256/256
f 255/255/255 257/257/257 170/170/170
f 258/258/258 259/259/259 173/173/173
f 260/260/260 262/262/262 261/261/261
f 262/262/262 263/263/263 261/261/261
f 264/264/264 266/266/266 265/265/265
f 266/266/266 267/267/267 265/265/265
f 268/268/268 270/270/270 269/269/269
f 270/270/270 271/271/271 269/269/269
f 272/272/272 273/273/273 271/271/271
f 273/273/273 274/274/274 271/271/271
f 275/275/275 277/277/277 276/276/276
f 277/277/277 267/267/267 276/276/276
f 277/277/277 265/265/265 267/267/267
f 274/274/274 269/269/269 271/271/271
f 250/250/250 278/278/278 121/121/121
f 279/279/279 281/281/281 280/280/280
f 282/282/282 284/284/284 283/283/283
f 284/284/284 286/286/286 285/285/285
f 118/118/118 120/120/120 287/287/287
f 120/120/120 288/288/288 287/287/287
f 122/122/122 124/124/124 289/289/289
f 124/124/124 224/224/224 289/289/289
f 290/290/290 135/135/135 226/226/226
f 135/135/135 219/219/219 226/226/226
f 135/135/135 136/136/136 219/219/219
f 291/291/291 293/293/293 292/292/292
f 136/136/136 295/295/295 294/294/294
f 278/278/278 112/112/112 284/284/284
f 273/273/273 272/272/272 296/296/296
f 272/272/272 297/297/297 296/296/296
f 270/270/270 268/268/268 298/298/298
f 268/268/268 299/299/299 298/298/298
f 266/266/266 264/264/264 300/300/300
f 264/264/264 175/175/175 300/300/300
f 262/262/262 260/260/260 301/301/301
f 257/257/257 303/303/303 302/302/302
f 304/304/304 306/306/306 305/305/305
f 307/307/307 308/308/308 303/303/303
f 309/309/309 311/311/311 310/310/310
f 311/311/311 312/312/312 310/310/310
f 302/302/302 303/303/303 313/313/313
f 314/314/314 315/315/315 179/179/179
f 314/314/314 316/316/316 315/315/315
f 316/316/316 317/317/317 315/315/315
f 318/318/318 320/320/320 319/319/319
f 321/321/321 323/323/323 322/322/322
f 324/324/324 326/326/326 325/325/325
f 326/326/326 327/327/327 325/325/325
f 328/328/328 330/330/330 329/329/329
f 331/331/331 333/333/333 332/332/332
f 334/334/334 336/336/336 335/335/335
f 337/337/337 338/338/338 333/333/333
f 337/337/337 339/339/339 338/338/338
f 333/333/333 341/341/341 340/340/340
f 342/342/342 326/326/326 343/343/343
f 344/344/344 346/346/346 345/345/345
f 347/347/347 349/349/349 348/348/348
f 320/320/320 351/351/351 350/350/350
f 320/320/320 318/318/318 351/351/351
f 316/316/316 353/353/353 352/352/352
f 318/318/318 305/305/305 354/354/354
f 355/355/355 357/357/357 356/356/356
f 296/296/296 297/297/297 263/263/263
f 297/297/297 261/261/261 263/263/263
f 298/298/298 299/299/299 259/259/259
f 299/299/299 170/170/170 358/358/358
f 300/300/300 178/178/178 169/169/169
f 359/359/359 235/235/235 360/360/360
f 235/235/235 361/361/361 360/360/360
f 235/235/235 233/233/233 361/361/361
f 233/233/233 223/223/223 361/361/361
f 231/231/231 363/363/363 362/362/362
f 364/364/364 366/366/366 365/365/365
f 367/367/367 315/315/315 368/368/368
f 369/369/369 371/371/371 370/370/370
f 372/372/372 373/373/373 370/370/370
f 373/373/373 374/374/374 370/370/370
f 375/375/375 377/377/377 376/376/376
f 377/377/377 378/378/378 376/376/376
f 200/200/200 187/187/187 379/379/379
f 187/187/187 380/380/380 379/379/379
f 376/376/376 378/378/378 381/381/381
f 382/382/382 384/384/384 383/383/383
f 385/385/385 386/386/386 357/357/357
f 244/244/244 388/388/388 387/387/387
f 388/388/388 389/389/389 387/387/387
f 361/361/361 223/223/223 225/225/225
f 111/111/111 109/109/109 99/99/99
f 390/390/390 392/392/392 391/391/391
f 247/247/247 171/171/171 251/251/251
f 171/171/171 393/393/393 251/251/251
f 251/251/251 393/393/393 394/394/394
f 393/393/393 395/395/395 394/394/394
f 396/396/396 398/398/398 397/397/397
f 398/398/398 399/399/399 397/397/397
f 397/397/397 399/399/399 400/400/400
f 287/287/287 288/288/288 131/131/131
f 224/224/224 220/220/220 289/289/289
f 133/133/133 131/131/131 288/288/288
f 394/394/394 395/395/395 304/304/304
f 395/395/395 306/306/306 304/304/304
f 291/291/291 402/402/402 401/401/401
f 402/402/402 403/403/403 401/401/401
