# Exported by Gskelview
mtllib fernbig.mtl

v 30.9375 26.4219 -0.625
v 19.6094 23.7188 13.5
v 17.1406 29.0781 -0.78125
v 14.5781 17.5 13.3438
v 8.39062 22.7656 -1.07812
v 11 9.5625 12.4062
v 3.29688 14.6719 -1.42188
v 7.98438 3.0625 11.5312
v 1.75 0 -1.09375
v 8.625 3.0625 -11.625
v 11.5469 9.65625 -12.8125
v 15.6094 18.2812 -13.1875
v 20.2031 23.7656 -13.0625
v -17.4062 26.4219 -24.0625
v 0.671875 23.7188 -24.9531
v -8.375 29.0781 -13.625
v 2.82812 17.5 -20.9844
v -2.8125 22.7656 -6.875
v 5.95312 9.5625 -17.5938
v 0.296875 14.6719 -2.84375
v 7.64062 3.0625 -12.9531
v 1.32812 0 -1.3125
v -12.2812 3.0625 -0.578125
v -13.5625 9.65625 -2.26562
v -16.6562 18.2812 -4.25
v -19.6094 23.7656 -7.78125
v -14.6875 26.4219 24.3906
v -20.5312 23.7188 7.25
v -7.14062 29.0781 12.8281
v -17.6875 17.5 3.07812
v -2.1875 22.7656 5.625
v -15.2969 9.5625 1.0625
v 0.546875 14.6719 1.42188
v -12.8125 3.0625 -0.390625
v 1.64062 0 -0.75
v 7.76562 3.0625 12.6406
v 5.98438 9.65625 14.5938
v 4.14062 18.2812 18.2188
v 1.54688 23.7656 22.0156
vt 0.5786 0.5818
vt 0.7612 0.4287
vt 0.5813 0.423
vt 0.7591 0.273
vt 0.5774 0.2705
vt 0.764 0.1286
vt 0.5753 0.1288
vt 0.7614 0.0068
vt 0.576 0.00650001
vt 0.3944 0.0054
vt 0.3928 0.1352
vt 0.3965 0.271
vt 0.3965 0.4322
vt 0.5786 0.5818
vt 0.7612 0.4287
vt 0.5813 0.423
vt 0.7591 0.273
vt 0.5774 0.2705
vt 0.764 0.1286
vt 0.5753 0.1288
vt 0.7614 0.0068
vt 0.576 0.00650001
vt 0.3944 0.0054
vt 0.3928 0.1352
vt 0.3965 0.271
vt 0.3965 0.4322
vt 0.5786 0.5818
vt 0.7612 0.4287
vt 0.5813 0.423
vt 0.7591 0.273
vt 0.5774 0.2705
vt 0.764 0.1286
vt 0.5753 0.1288
vt 0.7614 0.0068
vt 0.576 0.00650001
vt 0.3944 0.0054
vt 0.3928 0.1352
vt 0.3965 0.271
vt 0.3965 0.4322
vn 0.170514 0.985275 -0.0126078
vn -0.312495 0.87006 0.381238
vn -0.404198 0.914192 -0.0296154
vn -0.70227 0.555484 0.445259
vn -0.802318 0.59562 -0.0390174
vn -0.762534 0.359776 0.537683
vn -0.940476 0.336767 -0.0457362
vn -0.836635 0.218961 0.502094
vn -0.991327 0.122258 -0.0482091
vn -0.805816 0.170816 -0.566995
vn -0.728112 0.336767 -0.597026
vn -0.655751 0.555484 -0.5113
vn -0.285817 0.857699 -0.427389
vn -0.126736 0.985275 -0.11477
vn 0.513537 0.857699 0.0251453
vn 0.254743 0.903969 0.343432
vn 0.801437 0.555484 0.221668
vn 0.485096 0.615156 0.621503
vn 0.876978 0.427447 0.219541
vn 0.518417 0.359776 0.775761
vn 0.890493 0.26658 0.368724
vn 0.508598 0.146581 0.848435
vn 0 0.194947 0.980814
vn 0 0.313556 0.94957
vn 0.0414622 0.534907 0.843893
vn -0.124609 0.857699 0.498823
vn -0.0767802 0.985275 0.152771
vn -0.1548 0.87006 -0.468009
vn 0.249258 0.914192 -0.319568
vn 0.0405285 0.555484 -0.830539
vn 0.478334 0.59562 -0.645317
vn -0.0469143 0.313556 -0.94841
vn 0.537047 0.359776 -0.762982
vn -0.0484579 0.194947 -0.979616
vn 0.547183 0.170816 -0.819398
vn 0.913293 0.242844 -0.326991
vn 0.899192 0.359776 -0.249029
vn 0.789506 0.555484 -0.260993
vn 0.514152 0.857699 -8.57083e-05

g _0
usemtl MD3_[default][Plane01]_0
f 1/1/1 3/3/3 2/2/2
f 3/3/3 4/4/4 2/2/2
f 3/3/3 5/5/5 4/4/4
f 5/5/5 6/6/6 4/4/4
f 5/5/5 7/7/7 6/6/6
f 7/7/7 8/8/8 6/6/6
f 7/7/7 9/9/9 8/8/8
f 9/9/9 7/7/7 10/10/10
f 7/7/7 11/11/11 10/10/10
f 7/7/7 5/5/5 11/11/11
f 5/5/5 12/12/12 11/11/11
f 5/5/5 3/3/3 12/12/12
f 3/3/3 13/13/13 12/12/12
f 3/3/3 1/1/1 13/13/13
f 14/14/14 16/16/16 15/15/15
f 16/16/16 17/17/17 15/15/15
f 16/16/16 18/18/18 17/17/17
f 18/18/18 19/19/19 17/17/17
f 18/18/18 20/20/20 19/19/19
f 20/20/20 21/21/21 19/19/19
f 20/20/20 22/22/22 21/21/21
f 22/22/22 20/20/20 23/23/23
f 20/20/20 24/24/24 23/23/23
f 20/20/20 18/18/18 24/24/24
f 18/18/18 25/25/25 24/24/24
f 18/18/18 16/16/16 25/25/25
f 16/16/16 26/26/26 25/25/25
f 16/16/16 14/14/14 26/26/26
f 27/27/27 29/29/29 28/28/28
f 29/29/29 30/30/30 28/28/28
f 29/29/29 31/31/31 30/30/30
f 31/31/31 32/32/32 30/30/30
f 31/31/31 33/33/33 32/32/32
f 33/33/33 34/34/34 32/32/32
f 33/33/33 35/35/35 34/34/34
f 35/35/35 33/33/33 36/36/36
f 33/33/33 37/37/37 36/36/36
f 33/33/33 31/31/31 37/37/37
f 31/31/31 38/38/38 37/37/37
f 31/31/31 29/29/29 38/38/38
f 29/29/29 39/39/39 38/38/38
f 29/29/29 27/27/27 39/39/39
