# Exported by Gskelview
mtllib nateivy1.mtl

v -9.32812 -0.609375 -9.875
v -6.75 9.09375 0
v -13.9062 -9.5625 0
v -9.32812 -0.609375 10.1094
v -18.0469 0.78125 5.71875
v -10.75 11.4688 0.109375
v -16.8906 6.59375 18.5156
v -7.75 16.2031 13.2344
v -6.65625 14.9531 -12.7969
v -6.6875 6.01562 -1.89062
v -16.1094 6.92188 -19.5156
v -14.5312 -3.125 -9.53125
v -13.875 14.1875 -10.2188
v -12.6094 20.9531 2.07812
v -19.0938 2.89062 -3.57812
v -15.8281 8.875 8.95312
vt 0.8027 0.8661
vt 0.8892 0.9753
vt 0.8989 0.789
vt 0.9936 0.8844
vt 0.8027 0.8661
vt 0.8892 0.9753
vt 0.8989 0.789
vt 0.9936 0.8844
vt 0.8027 0.8661
vt 0.8892 0.9753
vt 0.8989 0.789
vt 0.9936 0.8844
vt 0.8027 0.8661
vt 0.8892 0.9753
vt 0.8989 0.789
vt 0.9936 0.8844
vn -0.919523 0.382568 -0.0901107
vn -0.923638 0.382568 0.0231386
vn -0.923638 0.382568 0.0231386
vn -0.916921 0.382568 0.113569
vn -0.848562 0.514009 -0.125452
vn -0.797273 0.59562 -0.0979401
vn -0.797273 0.59562 -0.0979401
vn -0.73903 0.671493 -0.0541483
vn -0.724462 0.534907 0.434775
vn -0.765933 0.449507 0.459663
vn -0.765933 0.449507 0.459663
vn -0.819006 0.336767 0.464561
vn -0.919523 0.382568 -0.0901107
vn -0.932746 0.359776 0.0233668
vn -0.932746 0.359776 0.0233668
vn -0.942369 0.313556 0.116721

g _0
usemtl MD3_[default][Plane01]_0
f 1/1/1 3/3/3 2/2/2
f 3/3/3 4/4/4 2/2/2
f 5/5/5 7/7/7 6/6/6
f 7/7/7 8/8/8 6/6/6
f 9/9/9 11/11/11 10/10/10
f 11/11/11 12/12/12 10/10/10
f 13/13/13 15/15/15 14/14/14
f 15/15/15 16/16/16 14/14/14
