# Exported by Gskelview
mtllib nateleaf.mtl

v -9.98438 55.0469 -35.4531
v -9.98438 55.0469 34.5312
v -29.9844 55.0469 -35.4531
v -29.9844 55.0469 34.5312
v 19.9844 35.0469 34.5312
v 9.98438 45.0469 34.5312
v 19.9844 35.0469 -35.4531
v 9.98438 45.0469 -35.4531
v 19.9844 35.0469 -35.4531
v 9.98438 45.0469 34.5312
v 9.98438 45.0469 -35.4531
v -74.7344 32.5938 -35.4531
v -74.7344 32.5938 34.5312
v -88.1875 11.2031 -35.4531
v -88.1875 11.2031 34.5312
v -54.7344 48.5 34.5312
v -54.7344 48.5 -35.4531
vt 0.00394722 0.671498
vt 0.403987 0.73913
vt 0.00197361 0.541063
vt 0.394119 0.608696
vt 0.37833 0.987922
vt 0.402013 0.850241
vt 0.0769687 1.00966
vt 0.00789422 0.84541
vt 0.0769687 1.00966
vt 0.402013 0.850241
vt 0.00789422 0.84541
vt -0.0019735 0.210145
vt 0.362542 0.23913
vt 0.0157885 0.0821255
vt 0.34478 0.0676328
vt 0.396092 0.485507
vt 0.00197355 0.357487
vn 0.0490729 0.998795 -8.18037e-06
vn 0.0490729 0.998795 -8.18037e-06
vn 0.0490729 0.998795 -8.18037e-06
vn 0.0490729 0.998795 -8.18037e-06
vn 0.0735724 0.99729 -1.22644e-05
vn 0.0490729 0.998795 -8.18037e-06
vn 0.0735724 0.99729 -1.22644e-05
vn 0.0490729 0.998795 -8.18037e-06
vn 0.0735724 0.99729 -1.22644e-05
vn 0.0490729 0.998795 -8.18037e-06
vn 0.0490729 0.998795 -8.18037e-06
vn 0.0490729 0.998795 -8.18037e-06
vn 0.0490729 0.998795 -8.18037e-06
vn 0.0735724 0.99729 -1.22644e-05
vn 0.0735724 0.99729 -1.22644e-05
vn 0.0490729 0.998795 -8.18037e-06
vn 0.0490729 0.998795 -8.18037e-06

g _0
usemtl MD3_[default][Box02]_0
f 1/1/1 3/3/3 2/2/2
f 4/4/4 2/2/2 3/3/3
f 5/5/5 7/7/7 6/6/6
f 8/8/8 10/10/10 9/9/9
f 1/1/1 2/2/2 11/11/11
f 6/6/6 11/11/11 2/2/2
f 12/12/12 14/14/14 13/13/13
f 15/15/15 13/13/13 14/14/14
f 4/4/4 3/3/3 16/16/16
f 17/17/17 16/16/16 3/3/3
f 12/12/12 13/13/13 17/17/17
f 16/16/16 17/17/17 13/13/13
