# Exported by Gskelview
mtllib cctvholder.mtl

v -1 4.45312 1.78125
v -1 5.32812 0.90625
v -1 5.32812 -0.890625
v -1 4.45312 -1.78125
v -1 0.765625 -1.78125
v -1 0.765625 -1.5625
v -1 0.765625 -0.671875
v -1 0.765625 0.671875
v -1 0.765625 1.57812
v -1 -3.73438 1.78125
v -1 0.765625 1.78125
v -1 -5.71875 -1.78125
v -1 -6.59375 -0.890625
v -1 -6.59375 0.90625
v -1 -5.71875 1.78125
v -1 -3.73438 1.57812
v -1 -3.73438 0.671875
v -1 -3.73438 -0.671875
v -1 -3.73438 -1.5625
v -1 -3.73438 -1.78125
v -1.57812 0.375 -1.21875
v -1.57812 -3.32812 -1.21875
v -1.76562 -3.1875 -0.671875
v -1.76562 0.234375 -0.671875
v -1.57812 -3.32812 1.23438
v -1.57812 0.375 1.23438
v -1.76562 0.234375 0.671875
v -1.76562 -3.1875 0.671875
v -1 0.765625 -1.5625
v -1.32812 0.53125 -1.46875
v -1.57812 0.375 -1.21875
v -1 0.765625 -0.671875
v -1.76562 0.234375 -0.671875
v -1 0.765625 -1.5625
v -1 -3.73438 -1.5625
v -1.32812 -3.5 -1.46875
v -1.32812 0.53125 -1.46875
v -1 -3.73438 -1.5625
v -1 -3.73438 -0.671875
v -1.76562 -3.1875 -0.671875
v -1.32812 -3.5 -1.46875
v -1.57812 -3.32812 -1.21875
v -1.76562 0.234375 0.671875
v -1.57812 0.375 1.23438
v -1.32812 0.53125 1.46875
v -1 0.765625 1.57812
v -1 0.765625 0.671875
v -1 -3.73438 1.57812
v -1.32812 -3.5 1.46875
v -1.57812 -3.32812 1.23438
v -1 -3.73438 0.671875
v -1.76562 -3.1875 0.671875
v -1 -3.73438 1.57812
v -1 0.765625 1.57812
v -1.32812 0.53125 1.46875
v -1.32812 -3.5 1.46875
v -1.57812 0.375 -1.21875
v -1.32812 0.53125 -1.46875
v -1.32812 -3.5 -1.46875
v -1.57812 -3.32812 -1.21875
v -1.57812 -3.32812 1.23438
v -1.32812 -3.5 1.46875
v -1.32812 0.53125 1.46875
v -1.57812 0.375 1.23438
v -19.7656 -3.14062 0.21875
v -19.7656 -3.14062 -0.21875
v -18.2656 -3.125 -0.21875
v -18.2656 -3.125 0.21875
v -16.8438 -3.375 0.21875
v -16.8438 -3.375 -0.21875
v -11.1406 -5.75 -0.421875
v -11.1406 -5.75 0.421875
v -9.73438 -5.85938 0.421875
v -9.73438 -5.85938 -0.421875
v -1.53125 -4.67188 -0.421875
v -1.53125 -4.67188 0.421875
v -1.53125 -4.67188 0.421875
v -1.53125 -4.67188 -0.421875
v -1 -4.51562 -0.421875
v -1 -4.51562 0.421875
v -18.2656 -2.89062 -0.359375
v -18.2656 -3.125 -0.21875
v -19.7656 -3.14062 -0.21875
v -19.7656 -2.89062 -0.359375
v -1 -4.26562 -0.671875
v -1 -4.51562 -0.421875
v -1.53125 -4.67188 -0.421875
v -1.64062 -4.45312 -0.671875
v -1.64062 -4.45312 0.671875
v -1.53125 -4.67188 0.421875
v -1 -4.51562 0.421875
v -1 -4.26562 0.671875
v -11.1406 -5.51562 -0.671875
v -11.1406 -5.75 -0.421875
v -16.8438 -3.375 -0.21875
v -16.8438 -3.14062 -0.359375
v -9.73438 -5.625 0.671875
v -9.73438 -5.85938 0.421875
v -1.53125 -4.67188 0.421875
v -1.64062 -4.45312 0.671875
v -1.64062 -4.45312 -0.671875
v -1.53125 -4.67188 -0.421875
v -9.73438 -5.85938 -0.421875
v -9.73438 -5.625 -0.671875
v -16.8438 -3.14062 0.34375
v -16.8438 -3.375 0.21875
v -11.1406 -5.75 0.421875
v -11.1406 -5.51562 0.671875
v -19.7656 -2.89062 0.34375
v -19.7656 -3.14062 0.21875
v -18.2656 -3.125 0.21875
v -18.2656 -2.89062 0.34375
v -10.6719 -5.875 0.421875
v -10.6719 -5.875 -0.421875
v -10.2031 -5.67188 -0.671875
v -9.73438 -5.625 -0.671875
v -9.73438 -5.85938 -0.421875
v -10.2031 -5.90625 -0.421875
v -10.2031 -5.90625 0.421875
v -9.73438 -5.85938 0.421875
v -9.73438 -5.625 0.671875
v -10.2031 -5.67188 0.671875
v -10.2031 -5.90625 0.421875
v -10.2031 -5.90625 -0.421875
v -10.6719 -5.625 -0.671875
v -10.2031 -5.67188 -0.671875
v -10.2031 -5.90625 -0.421875
v -10.6719 -5.875 -0.421875
v -11.1406 -5.51562 -0.671875
v -10.6719 -5.625 -0.671875
v -10.6719 -5.875 -0.421875
v -11.1406 -5.75 -0.421875
v -10.6719 -5.875 0.421875
v -10.2031 -5.90625 0.421875
v -10.2031 -5.67188 0.671875
v -10.6719 -5.625 0.671875
v -11.1406 -5.75 0.421875
v -10.6719 -5.875 0.421875
v -10.6719 -5.625 0.671875
v -11.1406 -5.51562 0.671875
v -17.7812 -3.15625 0.21875
v -17.7812 -3.15625 -0.21875
v -17.3125 -3 -0.359375
v -16.8438 -3.14062 -0.359375
v -16.8438 -3.375 -0.21875
v -17.3125 -3.23438 -0.21875
v -17.7812 -2.92188 0.34375
v -18.2656 -3.125 0.21875
v -17.7812 -3.15625 0.21875
v -17.3125 -3.23438 0.21875
v -17.3125 -3.23438 -0.21875
v -17.7812 -2.92188 -0.359375
v -17.3125 -3 -0.359375
v -17.3125 -3.23438 -0.21875
v -17.7812 -3.15625 -0.21875
v -18.2656 -2.89062 -0.359375
v -17.7812 -2.92188 -0.359375
v -17.7812 -3.15625 -0.21875
v -18.2656 -3.125 -0.21875
v -17.3125 -3 0.34375
v -17.7812 -3.15625 0.21875
v -17.3125 -3.23438 0.21875
v -16.8438 -3.14062 0.34375
v -17.3125 -3.23438 0.21875
v -16.8438 -3.375 0.21875
v -19.4219 0.96875 0
v -19.5 0.96875 -0.28125
v -20 1.125 0
v -19.5 0.96875 0.28125
v -20 1.125 0
v -19.5 0.96875 -0.28125
v -19.7031 0.96875 -0.484375
v -20 0.96875 -0.5625
v -20 1.125 0
v -20.2812 0.96875 -0.484375
v -20.4844 0.96875 -0.28125
v -20 1.125 0
v -20.5625 0.96875 0
v -20.4844 0.96875 0.28125
v -20 1.125 0
v -20.2812 0.96875 0.484375
v -20 0.96875 0.5625
v -19.7031 0.96875 0.484375
v -19.1406 0.5625 -0.484375
v -19.5 0.96875 -0.28125
v -19.4219 0.96875 0
v -19.0156 0.5625 0
v -19.5 0.5625 -0.84375
v -19.7031 0.96875 -0.484375
v -19.5 0.96875 -0.28125
v -19.1406 0.5625 -0.484375
v -20 0.96875 -0.5625
v -20 0.5625 -0.96875
v -20.4844 0.5625 -0.84375
v -20.2812 0.96875 -0.484375
v -20.8438 0.5625 -0.484375
v -20.9688 0.5625 0
v -20.8438 0.5625 0.484375
v -20.4844 0.5625 0.84375
v -20 0.5625 0.96875
v -20 0.96875 0.5625
v -19.5 0.5625 0.84375
v -19.7031 0.96875 0.484375
v -19.1406 0.5625 0.484375
v -19.5 0.96875 0.28125
v -19.0156 0.5625 0
v -19.4219 0.96875 0
v -19.0156 0 -0.5625
v -18.8594 0 0
v -19.4219 0 -0.96875
v -19.1406 0.5625 -0.484375
v -19.0156 0 -0.5625
v -20 0 -1.125
v -20.5625 0 -0.96875
v -20.9688 0 -0.5625
v -21.125 0 0
v -20.9688 0 0.5625
v -20.5625 0 0.96875
v -20 0 1.125
v -19.4219 0 0.96875
v -19.0156 0 0.5625
v -18.8594 0 0
v -19.1406 -0.5625 -0.484375
v -19.0156 -0.5625 0
v -19.5 -0.5625 -0.84375
v -19.0156 0 -0.5625
v -19.1406 -0.5625 -0.484375
v -20 -0.5625 -0.96875
v -20.4844 -0.5625 -0.84375
v -20.8438 -0.5625 -0.484375
v -20.9688 -0.5625 0
v -20.8438 -0.5625 0.484375
v -20.4844 -0.5625 0.84375
v -20 -0.5625 0.96875
v -19.5 -0.5625 0.84375
v -19.1406 -0.5625 0.484375
v -19.0156 -0.5625 0
v -19.5 -0.96875 -0.28125
v -19.4219 -0.96875 0
v -19.7031 -0.96875 -0.484375
v -19.1406 -0.5625 -0.484375
v -19.5 -0.96875 -0.28125
v -20 -0.96875 -0.5625
v -20.2812 -0.96875 -0.484375
v -20.4844 -0.96875 -0.28125
v -20.5625 -0.96875 0
v -20.4844 -0.96875 0.28125
v -20.2812 -0.96875 0.484375
v -20 -0.96875 0.5625
v -19.7031 -0.96875 0.484375
v -19.5 -0.96875 0.28125
v -19.4219 -0.96875 0
v -20.3906 -2.84375 -0.4375
v -19.6094 -3.40625 -0.4375
v -19.4844 -3.5 -0.265625
v -19.4844 -3.5 0.265625
v -19.6094 -3.40625 0.4375
v -20.3906 -2.84375 0.4375
v -20.5625 -2.75 0.265625
v -20.5625 -2.75 -0.265625
v -20.7031 -1 -0.390625
v -20.7031 -1 0.390625
v -20.4531 -1 0.65625
v -19.5781 -1 0.65625
v -19.3281 -1 0.390625
v -19.5781 -1 -0.65625
v -19.3281 -1 -0.390625
v -20.4531 -1 -0.65625
v -20.7969 -2.90625 -0.421875
v -20.7969 -2.90625 0.421875
v -20.7969 -1.07812 0.421875
v -20.7969 -1.07812 -0.421875
v -20.4844 -3.10938 0.75
v -19.5312 -3.78125 0.75
v -19.5469 -1.07812 0.75
v -20.5 -1.07812 0.75
v -19.25 -3.98438 0.421875
v -19.25 -3.98438 -0.421875
v -19.25 -1.07812 -0.421875
v -19.25 -1.07812 0.421875
v -19.5312 -3.78125 -0.75
v -20.4844 -3.10938 -0.75
v -20.5 -1.07812 -0.75
v -19.5469 -1.07812 -0.75
v -20.7969 -2.90625 0.421875
v -20.4844 -3.10938 0.75
v -20.5 -1.07812 0.75
v -20.7969 -1.07812 0.421875
v -20.7969 -1.07812 -0.421875
v -20.5 -1.07812 -0.75
v -20.4844 -3.10938 -0.75
v -20.7969 -2.90625 -0.421875
v -19.5312 -3.78125 0.75
v -19.25 -3.98438 0.421875
v -19.25 -1.07812 0.421875
v -19.5469 -1.07812 0.75
v -19.25 -3.98438 -0.421875
v -19.5312 -3.78125 -0.75
v -19.5469 -1.07812 -0.75
v -19.25 -1.07812 -0.421875
v -20.4844 -3.10938 -0.75
v -19.5312 -3.78125 -0.75
v -19.625 -3.71875 -0.4375
v -20.4062 -3.17188 -0.4375
v -19.25 -3.98438 -0.421875
v -19.4844 -3.82812 -0.265625
v -19.25 -3.98438 0.421875
v -19.4844 -3.82812 0.265625
v -19.5312 -3.78125 0.75
v -19.625 -3.71875 0.4375
v -20.4844 -3.10938 0.75
v -20.4062 -3.17188 0.4375
v -20.7969 -2.90625 0.421875
v -20.5625 -3.0625 0.265625
v -20.7969 -2.90625 -0.421875
v -20.5625 -3.0625 -0.265625
v -20.4062 -3.17188 -0.4375
v -19.625 -3.71875 -0.4375
v -19.6094 -3.40625 -0.4375
v -20.3906 -2.84375 -0.4375
v -19.625 -3.71875 -0.4375
v -19.4844 -3.82812 -0.265625
v -19.4844 -3.5 -0.265625
v -19.6094 -3.40625 -0.4375
v -19.4844 -3.82812 -0.265625
v -19.4844 -3.82812 0.265625
v -19.4844 -3.5 0.265625
v -19.4844 -3.5 -0.265625
v -19.4844 -3.82812 0.265625
v -19.625 -3.71875 0.4375
v -19.6094 -3.40625 0.4375
v -19.4844 -3.5 0.265625
v -19.625 -3.71875 0.4375
v -20.4062 -3.17188 0.4375
v -20.3906 -2.84375 0.4375
v -19.6094 -3.40625 0.4375
v -20.4062 -3.17188 0.4375
v -20.5625 -3.0625 0.265625
v -20.5625 -2.75 0.265625
v -20.3906 -2.84375 0.4375
v -20.5625 -3.0625 0.265625
v -20.5625 -3.0625 -0.265625
v -20.5625 -2.75 -0.265625
v -20.5625 -2.75 0.265625
v -20.5625 -3.0625 -0.265625
v -20.4062 -3.17188 -0.4375
v -20.3906 -2.84375 -0.4375
v -20.5625 -2.75 -0.265625
v -20.7031 -1 -0.390625
v -20.7969 -1.07812 -0.421875
v -20.7969 -1.07812 0.421875
v -20.7031 -1 0.390625
v -20.4531 -1 0.65625
v -20.5 -1.07812 0.75
v -19.5469 -1.07812 0.75
v -19.5781 -1 0.65625
v -19.3281 -1 0.390625
v -19.25 -1.07812 0.421875
v -19.25 -1.07812 -0.421875
v -19.3281 -1 -0.390625
v -19.5781 -1 -0.65625
v -19.5469 -1.07812 -0.75
v -20.5 -1.07812 -0.75
v -20.4531 -1 -0.65625
v -20.7969 -1.07812 -0.421875
v -20.7031 -1 -0.390625
v -20.4531 -1 -0.65625
v -20.5 -1.07812 -0.75
v -20.5 -1.07812 0.75
v -20.4531 -1 0.65625
v -20.7031 -1 0.390625
v -20.7969 -1.07812 0.421875
v -19.5469 -1.07812 -0.75
v -19.5781 -1 -0.65625
v -19.3281 -1 -0.390625
v -19.25 -1.07812 -0.421875
v -19.25 -1.07812 0.421875
v -19.3281 -1 0.390625
v -19.5781 -1 0.65625
v -19.5469 -1.07812 0.75
v -16.8438 -1.89576 0.34375
v -16.8438 -1.85938 0.308597
v -17.3125 -1.73438 0.308597
v -17.3199 -1.76878 0.34375
v -16.8438 -1.89576 0.34375
v -11.1406 -4.03585 0.671875
v -11.1406 -4 0.636124
v -11.1406 -4.03585 0.671875
v -10.6748 -4.12902 0.671875
v -10.6719 -4.09375 0.636722
v -11.1406 -4.03585 -0.671875
v -11.1406 -4 -0.636134
v -10.6719 -4.09375 -0.636722
v -10.6748 -4.12902 -0.671875
v -11.1406 -4.03585 -0.671875
v -16.8438 -1.89576 -0.359375
v -16.8438 -1.85938 -0.324222
v -16.8438 -1.89576 -0.359375
v -17.3199 -1.76878 -0.359375
v -17.3125 -1.73438 -0.324222
v -9.76562 -3.95312 -0.636722
v -9.75546 -3.98678 -0.671875
v -10.2134 -4.11311 -0.671875
v -10.2188 -4.07812 -0.636722
v -3.53125 -1.90625 -0.636722
v -3.51271 -1.93716 -0.671875
v -3.17188 -1.5625 -0.636722
v -3.14137 -1.58196 -0.671875
v -3.53125 -1.90625 0.636722
v -3.51271 -1.93716 0.671875
v -3.14137 -1.58196 0.671875
v -3.17188 -1.5625 0.636722
v -3.51271 -1.93716 0.671875
v -3.53125 -1.90625 0.636722
v -9.76562 -3.95312 0.636722
v -9.75546 -3.98678 0.671875
v -10.2188 -4.07812 0.636722
v -10.2134 -4.11311 0.671875
v -2.10938 1.5625 -0.636722
v -2.07836 1.54454 -0.671875
v -1.76562 1.95312 -0.636722
v -1.74357 1.92496 -0.671875
v -0.984375 2.35938 -0.636722
v -0.984469 2.31971 -0.671875
v -2.10938 1.5625 0.636722
v -2.07836 1.54454 0.671875
v -1.74357 1.92496 0.671875
v -1.76562 1.95312 0.636722
v -2.07836 1.54454 0.671875
v -2.10938 1.5625 0.636722
v -3.17188 -1.5625 0.636722
v -3.14137 -1.58196 0.671875
v -0.984469 2.31971 0.671875
v -0.984375 2.35938 0.636722
v -19.7656 -1.625 0.308597
v -19.7656 -1.66015 0.34375
v -18.2667 -1.66015 0.34375
v -18.2656 -1.625 0.308597
v -18.2656 -1.625 0.308597
v -18.2667 -1.66015 0.34375
v -17.7852 -1.69122 0.34375
v -17.7812 -1.65625 0.308597
v -19.7656 -1.66015 -0.359375
v -19.7656 -1.625 -0.324222
v -18.2656 -1.625 -0.324222
v -18.2667 -1.66015 -0.359375
v -18.2667 -1.66015 -0.359375
v -17.7812 -1.65625 -0.324222
v -17.7852 -1.69122 -0.359375
v -10.2188 -4.07812 -0.636722
v -10.2134 -4.11311 -0.671875
v -17.7852 -1.69122 -0.359375
v -17.3199 -1.76878 -0.359375
v -17.7852 -1.69122 0.34375
v -17.3199 -1.76878 0.34375
v -16.8438 -1.85938 0.308597
v -11.1406 -4 0.636124
v -11.1406 -4 -0.636134
v -16.8438 -1.85938 -0.324222
v -16.8438 -3.14062 0.34375
v -11.1406 -5.51562 0.671875
v -11.1406 -4.03585 0.671875
v -16.8438 -1.89576 0.34375
v -1.64062 -4.45312 -0.671875
v -9.73438 -5.625 -0.671875
v -9.75546 -3.98678 -0.671875
v -3.51271 -1.93716 -0.671875
v -3.53125 -1.90625 0.636722
v -3.53125 -1.90625 -0.636722
v -9.76562 -3.95312 -0.636722
v -9.76562 -3.95312 0.636722
v -9.73438 -5.625 0.671875
v -1.64062 -4.45312 0.671875
v -3.51271 -1.93716 0.671875
v -9.75546 -3.98678 0.671875
v -16.8438 -3.14062 -0.359375
v -16.8438 -1.89576 -0.359375
v -11.1406 -4.03585 -0.671875
v -11.1406 -5.51562 -0.671875
v -3.14137 -1.58196 -0.671875
v -2.07836 1.54454 -0.671875
v -1.74357 1.92496 -0.671875
v -0.984469 2.31971 -0.671875
v -1 -4.26562 -0.671875
v -3.17188 -1.5625 -0.636722
v -3.17188 -1.5625 0.636722
v -2.10938 1.5625 0.636722
v -2.10938 1.5625 -0.636722
v -1 -4.26562 0.671875
v -0.984469 2.31971 0.671875
v -1.74357 1.92496 0.671875
v -2.07836 1.54454 0.671875
v -3.14137 -1.58196 0.671875
v -18.2656 -2.89062 0.34375
v -18.2667 -1.66015 0.34375
v -19.7656 -1.66015 0.34375
v -19.7656 -2.89062 0.34375
v -18.2656 -1.625 0.308597
v -18.2656 -1.625 -0.324222
v -19.7656 -1.625 -0.324222
v -19.7656 -1.625 0.308597
v -18.2667 -1.66015 -0.359375
v -18.2656 -2.89062 -0.359375
v -19.7656 -2.89062 -0.359375
v -19.7656 -1.66015 -0.359375
v -10.6719 -4.09375 -0.636722
v -10.6719 -4.09375 0.636722
v -10.6748 -4.12902 0.671875
v -10.6719 -5.625 0.671875
v -10.2134 -4.11311 -0.671875
v -10.2031 -5.67188 -0.671875
v -10.2188 -4.07812 -0.636722
v -10.2188 -4.07812 0.636722
v -10.2134 -4.11311 0.671875
v -10.2031 -5.67188 0.671875
v -10.6748 -4.12902 -0.671875
v -10.6719 -5.625 -0.671875
v -17.7812 -1.65625 -0.324222
v -17.7812 -1.65625 0.308597
v -17.7852 -1.69122 0.34375
v -17.7812 -2.92188 0.34375
v -17.7812 -2.92188 -0.359375
v -17.7852 -1.69122 -0.359375
v -17.3125 -1.73438 -0.324222
v -17.3125 -1.73438 0.308597
v -17.3199 -1.76878 0.34375
v -17.3125 -3 0.34375
v -17.3125 -3 -0.359375
v -17.3199 -1.76878 -0.359375
v -1.76562 1.95312 -0.636722
v -1.76562 1.95312 0.636722
v -0.984375 2.35938 0.636722
v -0.984375 2.35938 -0.636722
v -3.53125 -1.90625 -0.636722
v -3.53125 -1.90625 0.636722
v -1.1875 4.2275 1.12815
v -1.165 4.25 1.14062
v -1.165 4.25 0.84375
v -1.1875 4.2275 0.856219
v -1.165 4.25 1.14062
v -1.1875 4.2275 1.12815
v -1.1875 3.99965 1.27057
v -1.165 4 1.29688
v -1.165 4 1.29688
v -1.1875 3.99965 1.27057
v -1.1875 3.75688 1.12775
v -1.165 3.73438 1.14062
v -1.1875 4.2275 0.856219
v -1.165 4.25 0.84375
v -1.165 4 0.6875
v -1.1875 3.99965 0.713809
v -1.1875 3.99965 0.713809
v -1.165 4 0.6875
v -1.165 3.73438 0.84375
v -1.1875 3.75688 0.856617
v -1.1875 3.75688 0.856617
v -1.165 3.73438 0.84375
v -1.165 3.73438 1.14062
v -1.1875 3.75688 1.12775
v -1.1875 4.2275 -0.856219
v -1.165 4.25 -0.84375
v -1.165 4.25 -1.14062
v -1.1875 4.2275 -1.12815
v -1.165 4.25 -0.84375
v -1.1875 4.2275 -0.856219
v -1.1875 3.99965 -0.713809
v -1.165 4 -0.6875
v -1.165 4 -0.6875
v -1.1875 3.99965 -0.713809
v -1.1875 3.75688 -0.856617
v -1.165 3.73438 -0.84375
v -1.1875 4.2275 -1.12815
v -1.165 4.25 -1.14062
v -1.165 4 -1.29688
v -1.1875 3.99965 -1.27057
v -1.1875 3.99965 -1.27057
v -1.165 4 -1.29688
v -1.165 3.73438 -1.14062
v -1.1875 3.75688 -1.12775
v -1.1875 3.75688 -1.12775
v -1.165 3.73438 -1.14062
v -1.165 3.73438 -0.84375
v -1.1875 3.75688 -0.856617
v -1.1875 -4.75688 1.12775
v -1.165 -4.73438 1.14062
v -1.165 -4.73438 0.84375
v -1.1875 -4.75688 0.856617
v -1.165 -4.73438 1.14062
v -1.1875 -4.75688 1.12775
v -1.1875 -4.99965 1.27057
v -1.165 -5 1.29688
v -1.165 -5 1.29688
v -1.1875 -4.99965 1.27057
v -1.1875 -5.2275 1.12815
v -1.165 -5.25 1.14062
v -1.1875 -4.75688 0.856617
v -1.165 -4.73438 0.84375
v -1.165 -5 0.6875
v -1.1875 -4.99965 0.713809
v -1.1875 -4.99965 0.713809
v -1.165 -5 0.6875
v -1.165 -5.25 0.84375
v -1.1875 -5.2275 0.856219
v -1.1875 -5.2275 0.856219
v -1.165 -5.25 0.84375
v -1.165 -5.25 1.14062
v -1.1875 -5.2275 1.12815
v -1.1875 -4.75688 -0.856617
v -1.165 -4.73438 -0.84375
v -1.165 -4.73438 -1.14062
v -1.1875 -4.75688 -1.12775
v -1.165 -4.73438 -0.84375
v -1.1875 -4.75688 -0.856617
v -1.1875 -4.99965 -0.713809
v -1.165 -5 -0.6875
v -1.165 -5 -0.6875
v -1.1875 -4.99965 -0.713809
v -1.1875 -5.2275 -0.856219
v -1.165 -5.25 -0.84375
v -1.1875 -4.75688 -1.12775
v -1.165 -4.73438 -1.14062
v -1.165 -5 -1.29688
v -1.1875 -4.99965 -1.27057
v -1.1875 -4.99965 -1.27057
v -1.165 -5 -1.29688
v -1.165 -5.25 -1.14062
v -1.1875 -5.2275 -1.12815
v -1.1875 -5.2275 -1.12815
v -1.165 -5.25 -1.14062
v -1.165 -5.25 -0.84375
v -1.1875 -5.2275 -0.856219
v -1 4 1.29688
v -1 4.25 1.14062
v -1.165 4.25 1.14062
v -1.165 4 1.29688
v -1 4.25 1.14062
v -1 4.25 0.84375
v -1.165 4.25 0.84375
v -1.165 4.25 1.14062
v -1 4.25 0.84375
v -1 4 0.6875
v -1.165 4 0.6875
v -1.165 4.25 0.84375
v -1 4 0.6875
v -1 3.73438 0.84375
v -1.165 3.73438 0.84375
v -1.165 4 0.6875
v -1 3.73438 0.84375
v -1 3.73438 1.14062
v -1.165 3.73438 1.14062
v -1.165 3.73438 0.84375
v -1 3.73438 1.14062
v -1 4 1.29688
v -1.165 4 1.29688
v -1.165 3.73438 1.14062
v -1.1875 3.99965 0.713809
v -1.1875 3.75688 0.856617
v -1.1875 3.75688 1.12775
v -1.1875 3.99965 1.27057
v -1.1875 4.2275 1.12815
v -1.1875 4.2275 0.856219
v -1 4 -0.6875
v -1 4.25 -0.84375
v -1.165 4.25 -0.84375
v -1.165 4 -0.6875
v -1 4.25 -0.84375
v -1 4.25 -1.14062
v -1.165 4.25 -1.14062
v -1.165 4.25 -0.84375
v -1 4.25 -1.14062
v -1 4 -1.29688
v -1.165 4 -1.29688
v -1.165 4.25 -1.14062
v -1 4 -1.29688
v -1 3.73438 -1.14062
v -1.165 3.73438 -1.14062
v -1.165 4 -1.29688
v -1 3.73438 -1.14062
v -1 3.73438 -0.84375
v -1.165 3.73438 -0.84375
v -1.165 3.73438 -1.14062
v -1 3.73438 -0.84375
v -1 4 -0.6875
v -1.165 4 -0.6875
v -1.165 3.73438 -0.84375
v -1.1875 3.99965 -1.27057
v -1.1875 3.75688 -1.12775
v -1.1875 3.75688 -0.856617
v -1.1875 3.99965 -0.713809
v -1.1875 4.2275 -0.856219
v -1.1875 4.2275 -1.12815
v -0.984375 -5 1.29688
v -0.984375 -4.73438 1.14062
v -1.165 -4.73438 1.14062
v -1.165 -5 1.29688
v -0.984375 -4.73438 1.14062
v -0.984375 -4.73438 0.84375
v -1.165 -4.73438 0.84375
v -1.165 -4.73438 1.14062
v -0.984375 -4.73438 0.84375
v -0.984375 -5 0.6875
v -1.165 -5 0.6875
v -1.165 -4.73438 0.84375
v -0.984375 -5 0.6875
v -0.984375 -5.25 0.84375
v -1.165 -5.25 0.84375
v -1.165 -5 0.6875
v -0.984375 -5.25 0.84375
v -0.984375 -5.25 1.14062
v -1.165 -5.25 1.14062
v -1.165 -5.25 0.84375
v -0.984375 -5.25 1.14062
v -0.984375 -5 1.29688
v -1.165 -5 1.29688
v -1.165 -5.25 1.14062
v -1.1875 -4.99965 0.713809
v -1.1875 -5.2275 0.856219
v -1.1875 -5.2275 1.12815
v -1.1875 -4.99965 1.27057
v -1.1875 -4.75688 1.12775
v -1.1875 -4.75688 0.856617
v -0.984375 -5 -0.6875
v -0.984375 -4.73438 -0.84375
v -1.165 -4.73438 -0.84375
v -1.165 -5 -0.6875
v -0.984375 -4.73438 -0.84375
v -0.984375 -4.73438 -1.14062
v -1.165 -4.73438 -1.14062
v -1.165 -4.73438 -0.84375
v -0.984375 -4.73438 -1.14062
v -0.984375 -5 -1.29688
v -1.165 -5 -1.29688
v -1.165 -4.73438 -1.14062
v -0.984375 -5 -1.29688
v -0.984375 -5.25 -1.14062
v -1.165 -5.25 -1.14062
v -1.165 -5 -1.29688
v -0.984375 -5.25 -1.14062
v -0.984375 -5.25 -0.84375
v -1.165 -5.25 -0.84375
v -1.165 -5.25 -1.14062
v -0.984375 -5.25 -0.84375
v -0.984375 -5 -0.6875
v -1.165 -5 -0.6875
v -1.165 -5.25 -0.84375
v -1.1875 -4.99965 -1.27057
v -1.1875 -5.2275 -1.12815
v -1.1875 -5.2275 -0.856219
v -1.1875 -4.99965 -0.713809
v -1.1875 -4.75688 -0.856617
v -1.1875 -4.75688 -1.12775
v -0.737815 -6.85244 -0.984375
v -0.810638 -6.81016 -0.97178
v -0.812341 -5.82598 -1.95551
v -0.736374 -5.85273 -1.98438
v -0.810638 -6.81016 -0.97178
v -0.737815 -6.85244 -0.984375
v -0.737652 -6.85247 1
v -0.810528 -6.81029 0.987452
v -0.810528 -6.81029 0.987452
v -0.737652 -6.85247 1
v -0.736229 -5.85275 2
v -0.811666 -5.82637 1.96958
v -0.736116 5.54688 -0.984375
v -0.813081 5.51505 -0.970733
v -0.813042 5.51509 0.986375
v -0.73606 5.54688 1
v -0.813081 5.51505 -0.970733
v -0.736116 5.54688 -0.984375
v -0.73623 4.54688 -1.98438
v -0.813732 4.53296 -1.95422
v -0.73606 5.54688 1
v -0.813042 5.51509 0.986375
v -0.813042 4.53325 1.96821
v -0.73606 4.54688 2
v -0.736141 -3.73438 2
v -0.813147 -3.73438 1.9681
v -0.811666 -5.82637 1.96958
v -0.736229 -5.85275 2
v -0.736141 0.765625 2
v -0.813147 0.765625 1.9681
v -0.73606 4.54688 2
v -0.813042 4.53325 1.96821
v -0.736477 0.765625 -1.98438
v -0.814059 0.765625 -1.95391
v -0.813732 4.53296 -1.95422
v -0.73623 4.54688 -1.98438
v -0.736477 -3.73438 -1.98438
v -0.814059 -3.73438 -1.95391
v -0.736374 -5.85273 -1.98438
v -0.812341 -5.82598 -1.95551
v 0 -7 -0.984375
v 0 -7 1
v 0 5.54688 1
v 0 5.54688 -0.984375
v 0 0.765625 2
v 0 -3.73438 2
v 0 0.765625 -1.98438
v 0 -3.73438 -1.98438
v 0 -6 -1.98438
v 0 -7 -0.984375
v 0 -7 1
v 0 -6 2
v 0 4.54688 2
v 0 5.54688 1
v 0 5.54688 -0.984375
v 0 4.54688 -1.98438
v 0 4.54688 2
v 0 -6 2
v 0 4.54688 -1.98438
v 0 -6 -1.98438
v -0.810528 -6.81029 0.987452
v -1 -6.59375 0.90625
v -1 -6.59375 -0.890625
v -0.810638 -6.81016 -0.97178
v -0.813081 5.51505 -0.970733
v -1 5.32812 -0.890625
v -1 5.32812 0.90625
v -0.813042 5.51509 0.986375
v -1 -5.71875 1.78125
v -0.811666 -5.82637 1.96958
v -0.813147 -3.73438 1.9681
v -1 -3.73438 1.78125
v -1 4.45312 -1.78125
v -0.813732 4.53296 -1.95422
v -0.814059 0.765625 -1.95391
v -1 0.765625 -1.78125
v -1 -5.71875 -1.78125
v -0.812341 -5.82598 -1.95551
v -0.811666 -5.82637 1.96958
v -1 -5.71875 1.78125
v -0.813732 4.53296 -1.95422
v -1 4.45312 -1.78125
v -1 5.32812 -0.890625
v -0.813081 5.51505 -0.970733
v -0.813042 5.51509 0.986375
v -1 5.32812 0.90625
v -1 4.45312 1.78125
v -0.813042 4.53325 1.96821
v -0.813147 0.765625 1.9681
v -1 0.765625 1.78125
v -0.813042 4.53325 1.96821
v -1 4.45312 1.78125
v -0.814059 -3.73438 -1.95391
v -1 -3.73438 -1.78125
v -0.812341 -5.82598 -1.95551
v -1 -5.71875 -1.78125
vt 0.970666 0.944172
vt 0.934826 0.980009
vt 0.860217 0.980008
vt 0.824071 0.94417
vt 0.824071 0.793137
vt 0.832884 0.793127
vt 0.869547 0.79312
vt 0.925026 0.793108
vt 0.962159 0.7931
vt 0.970666 0.607797
vt 0.970666 0.793139
vt 0.824071 0.526313
vt 0.860217 0.490476
vt 0.934826 0.490477
vt 0.970666 0.526315
vt 0.962159 0.607836
vt 0.925026 0.607828
vt 0.869547 0.607815
vt 0.832884 0.607807
vt 0.824071 0.607796
vt 0.463486 0.875336
vt 0.278132 0.875336
vt 0.284966 0.847633
vt 0.456653 0.847633
vt 0.52725 0.674815
vt 0.712569 0.674815
vt 0.705655 0.702903
vt 0.534164 0.702903
vt 0.783809 0.80212
vt 0.764888 0.797475
vt 0.751324 0.786465
vt 0.783794 0.760898
vt 0.740326 0.760915
vt 0.388812 0.184935
vt 0.180432 0.184935
vt 0.191285 0.168755
vt 0.37796 0.168755
vt 0.938332 0.148552
vt 0.938347 0.10733
vt 0.981815 0.107347
vt 0.957253 0.143907
vt 0.970816 0.132896
vt 0.650155 0.802665
vt 0.661294 0.776683
vt 0.67469 0.765555
vt 0.693608 0.760898
vt 0.693623 0.802648
vt 0.938347 0.01886
vt 0.957265 0.023517
vt 0.970661 0.034645
vt 0.938332 0.06061
vt 0.9818 0.060627
vt 0.683312 0.036516
vt 0.891629 0.036516
vt 0.880779 0.052698
vt 0.694162 0.052698
vt 0.463486 0.875336
vt 0.471913 0.887296
vt 0.269706 0.887296
vt 0.278132 0.875336
vt 0.52725 0.674815
vt 0.518936 0.662806
vt 0.720884 0.662806
vt 0.712569 0.674815
vt 0.022971 0.424348
vt 0.022971 0.448005
vt 0.098343 0.439151
vt 0.098343 0.433202
vt 0.173515 0.43311
vt 0.173515 0.439242
vt 0.477854 0.452493
vt 0.477854 0.419859
vt 0.532646 0.419272
vt 0.532646 0.453081
vt 0.955211 0.452981
vt 0.955211 0.419371
vt 0.955211 0.419371
vt 0.955211 0.452981
vt 0.979935 0.458442
vt 0.979935 0.413911
vt 0.09896 0.454494
vt 0.098343 0.439151
vt 0.022971 0.448005
vt 0.022971 0.454494
vt 0.979938 0.470657
vt 0.979935 0.458442
vt 0.955211 0.452981
vt 0.946812 0.470657
vt 0.946812 0.401696
vt 0.955211 0.419371
vt 0.979935 0.413911
vt 0.979938 0.401696
vt 0.462813 0.470657
vt 0.477854 0.452493
vt 0.173515 0.439242
vt 0.171268 0.454494
vt 0.534556 0.401696
vt 0.532646 0.419272
vt 0.955211 0.419371
vt 0.946812 0.401696
vt 0.946812 0.470657
vt 0.955211 0.452981
vt 0.532646 0.453081
vt 0.534556 0.470657
vt 0.171268 0.417859
vt 0.173515 0.43311
vt 0.477854 0.419859
vt 0.462813 0.401696
vt 0.022971 0.417859
vt 0.022971 0.424348
vt 0.098343 0.433202
vt 0.09896 0.417859
vt 0.490055 0.404737
vt 0.490055 0.467616
vt 0.510288 0.470657
vt 0.534556 0.470657
vt 0.532646 0.453081
vt 0.512027 0.467315
vt 0.512027 0.405038
vt 0.532646 0.419272
vt 0.534556 0.401696
vt 0.510288 0.401696
vt 0.512027 0.405038
vt 0.512027 0.467315
vt 0.486374 0.470657
vt 0.510288 0.470657
vt 0.512027 0.467315
vt 0.490055 0.467616
vt 0.462813 0.470657
vt 0.486374 0.470657
vt 0.490055 0.467616
vt 0.477854 0.452493
vt 0.490055 0.404737
vt 0.512027 0.405038
vt 0.510288 0.401696
vt 0.486374 0.401696
vt 0.477854 0.419859
vt 0.490055 0.404737
vt 0.486374 0.401696
vt 0.462813 0.401696
vt 0.123977 0.433362
vt 0.123977 0.438991
vt 0.147645 0.454494
vt 0.171268 0.454494
vt 0.173515 0.439242
vt 0.148882 0.438973
vt 0.123542 0.417859
vt 0.098343 0.433202
vt 0.123977 0.433362
vt 0.148882 0.43338
vt 0.148882 0.438973
vt 0.123542 0.454494
vt 0.147645 0.454494
vt 0.148882 0.438973
vt 0.123977 0.438991
vt 0.09896 0.454494
vt 0.123542 0.454494
vt 0.123977 0.438991
vt 0.098343 0.439151
vt 0.147645 0.417859
vt 0.123977 0.433362
vt 0.148882 0.43338
vt 0.171268 0.417859
vt 0.148882 0.43338
vt 0.173515 0.43311
vt 0.042093 0.696004
vt 0.025646 0.696004
vt 0.14028 0.662806
vt 0.058539 0.696004
vt 0.14028 0.662806
vt 0.223003 0.696004
vt 0.206556 0.696004
vt 0.19011 0.696004
vt 0.14028 0.662806
vt 0.173664 0.696004
vt 0.157217 0.696004
vt 0.14028 0.662806
vt 0.140771 0.696004
vt 0.124325 0.696004
vt 0.14028 0.662806
vt 0.107878 0.696004
vt 0.091432 0.696004
vt 0.074985 0.696004
vt 0.025646 0.73058
vt 0.025646 0.696004
vt 0.042093 0.696004
vt 0.042093 0.73058
vt 0.206556 0.73058
vt 0.206556 0.696004
vt 0.223003 0.696004
vt 0.223003 0.73058
vt 0.19011 0.696004
vt 0.19011 0.73058
vt 0.173664 0.73058
vt 0.173664 0.696004
vt 0.157217 0.73058
vt 0.140771 0.73058
vt 0.124325 0.73058
vt 0.107878 0.73058
vt 0.091432 0.73058
vt 0.091432 0.696004
vt 0.074985 0.73058
vt 0.074985 0.696004
vt 0.058539 0.73058
vt 0.058539 0.696004
vt 0.042093 0.73058
vt 0.042093 0.696004
vt 0.025646 0.765988
vt 0.042093 0.765988
vt 0.206557 0.765988
vt 0.223003 0.73058
vt 0.223003 0.765988
vt 0.19011 0.765988
vt 0.173664 0.765988
vt 0.157217 0.765988
vt 0.140771 0.765988
vt 0.124325 0.765988
vt 0.107878 0.765988
vt 0.091432 0.765988
vt 0.074985 0.765988
vt 0.058539 0.765988
vt 0.042093 0.765988
vt 0.025646 0.799923
vt 0.042093 0.799923
vt 0.206556 0.799923
vt 0.223003 0.765988
vt 0.223003 0.799923
vt 0.19011 0.799923
vt 0.173664 0.799923
vt 0.157217 0.799923
vt 0.140771 0.799923
vt 0.124325 0.799923
vt 0.107878 0.799923
vt 0.091432 0.799923
vt 0.074985 0.799923
vt 0.058539 0.799923
vt 0.042093 0.799923
vt 0.025646 0.831037
vt 0.042093 0.831037
vt 0.206556 0.831037
vt 0.223003 0.799923
vt 0.223003 0.831037
vt 0.19011 0.831037
vt 0.173664 0.831037
vt 0.157217 0.831037
vt 0.140771 0.831037
vt 0.124325 0.831037
vt 0.107878 0.831037
vt 0.091432 0.831037
vt 0.074985 0.831037
vt 0.058539 0.831037
vt 0.042093 0.831037
vt 0.527304 0.891597
vt 0.567393 0.891597
vt 0.574257 0.883517
vt 0.574257 0.855024
vt 0.567393 0.846944
vt 0.527304 0.846944
vt 0.519293 0.855288
vt 0.519293 0.883253
vt 0.029859 0.932954
vt 0.029859 0.895211
vt 0.041911 0.881958
vt 0.084 0.881958
vt 0.096052 0.895211
vt 0.084 0.946206
vt 0.096052 0.932954
vt 0.041911 0.946206
vt 0.519293 0.800241
vt 0.519293 0.760898
vt 0.603452 0.760898
vt 0.603452 0.800241
vt 0.379341 0.11727
vt 0.345641 0.06906
vt 0.481832 0.069704
vt 0.481832 0.117649
vt 0.64742 0.376122
vt 0.64742 0.336779
vt 0.781622 0.336779
vt 0.781622 0.376122
vt 0.507552 0.06906
vt 0.541252 0.11727
vt 0.643744 0.117649
vt 0.643744 0.069704
vt 0.390059 0.132603
vt 0.379341 0.11727
vt 0.481832 0.117649
vt 0.481832 0.132731
vt 0.643744 0.132731
vt 0.643744 0.117649
vt 0.541252 0.11727
vt 0.551971 0.132603
vt 0.345641 0.06906
vt 0.335489 0.054536
vt 0.481832 0.05465
vt 0.481832 0.069704
vt 0.4974 0.054536
vt 0.507552 0.06906
vt 0.643744 0.069704
vt 0.643744 0.05465
vt 0.874474 0.389767
vt 0.820533 0.389767
vt 0.825436 0.375106
vt 0.869771 0.375106
vt 0.804283 0.374569
vt 0.817616 0.367792
vt 0.804283 0.335226
vt 0.817616 0.342003
vt 0.820533 0.320028
vt 0.825436 0.334689
vt 0.874474 0.320028
vt 0.869771 0.334689
vt 0.891629 0.335226
vt 0.878296 0.342241
vt 0.891629 0.374569
vt 0.878296 0.367554
vt 0.19257 0.898413
vt 0.153969 0.925397
vt 0.153577 0.909589
vt 0.192124 0.882528
vt 0.153969 0.925397
vt 0.14716 0.930156
vt 0.146977 0.914648
vt 0.153577 0.909589
vt 0.4773 0.267359
vt 0.4773 0.293148
vt 0.462701 0.293148
vt 0.462701 0.267359
vt 0.14716 0.930156
vt 0.153969 0.925397
vt 0.153577 0.909589
vt 0.146977 0.914648
vt 0.153969 0.925397
vt 0.19257 0.898413
vt 0.192124 0.882528
vt 0.153577 0.909589
vt 0.19257 0.898413
vt 0.199993 0.893225
vt 0.199826 0.877739
vt 0.192124 0.882528
vt 0.4773 0.226479
vt 0.4773 0.251791
vt 0.462722 0.251791
vt 0.462722 0.226479
vt 0.199993 0.893225
vt 0.19257 0.898413
vt 0.192124 0.882528
vt 0.199826 0.877739
vt 0.029859 0.932954
vt 0.025646 0.934585
vt 0.025646 0.893579
vt 0.029859 0.895211
vt 0.041911 0.881958
vt 0.040061 0.877739
vt 0.085886 0.877739
vt 0.084 0.881958
vt 0.096052 0.895211
vt 0.100274 0.893579
vt 0.100274 0.934585
vt 0.096052 0.932954
vt 0.084 0.946206
vt 0.085886 0.950425
vt 0.040061 0.950425
vt 0.041911 0.946206
vt 0.025646 0.934585
vt 0.029859 0.932954
vt 0.041911 0.946206
vt 0.040061 0.950425
vt 0.040061 0.877739
vt 0.041911 0.881958
vt 0.029859 0.895211
vt 0.025646 0.893579
vt 0.085886 0.950425
vt 0.084 0.946206
vt 0.096052 0.932954
vt 0.100274 0.934585
vt 0.100274 0.893579
vt 0.096052 0.895211
vt 0.084 0.881958
vt 0.085886 0.877739
vt 0.654913 0.60111
vt 0.654913 0.599411
vt 0.677262 0.599411
vt 0.677185 0.60111
vt 0.654338 0.601108
vt 0.380742 0.616003
vt 0.380742 0.614402
vt 0.380418 0.616104
vt 0.358727 0.616104
vt 0.358727 0.61443
vt 0.380418 0.552133
vt 0.380742 0.553834
vt 0.358727 0.553807
vt 0.358727 0.552133
vt 0.380742 0.552164
vt 0.654338 0.567126
vt 0.654913 0.568825
vt 0.654913 0.567126
vt 0.677185 0.567126
vt 0.677262 0.568825
vt 0.430584 0.310403
vt 0.430106 0.311961
vt 0.451294 0.317766
vt 0.451548 0.316148
vt 0.142755 0.216075
vt 0.141902 0.217503
vt 0.126384 0.199875
vt 0.124975 0.200776
vt 0.142756 0.216075
vt 0.141903 0.217503
vt 0.124975 0.200776
vt 0.126384 0.199875
vt 0.025646 0.616104
vt 0.025646 0.61443
vt 0.315927 0.614431
vt 0.315927 0.616104
vt 0.337122 0.61443
vt 0.337122 0.616104
vt 0.077247 0.055122
vt 0.075835 0.05596
vt 0.061627 0.037108
vt 0.060608 0.038426
vt 0.025646 0.01886
vt 0.025647 0.020694
vt 0.077247 0.055122
vt 0.075829 0.055959
vt 0.060608 0.038425
vt 0.061627 0.037108
vt 0.827794 0.068265
vt 0.828102 0.069952
vt 0.683067 0.069952
vt 0.683067 0.068265
vt 0.025647 0.020694
vt 0.025646 0.01886
vt 0.891586 0.203368
vt 0.891587 0.20499
vt 0.822923 0.204986
vt 0.822871 0.203368
vt 0.722743 0.599411
vt 0.72269 0.60111
vt 0.699956 0.60111
vt 0.699872 0.599411
vt 0.793112 0.567126
vt 0.793112 0.568825
vt 0.722743 0.568825
vt 0.722796 0.567126
vt 0.72269 0.567126
vt 0.699872 0.568825
vt 0.699956 0.567126
vt 0.337122 0.553806
vt 0.337122 0.552133
vt 0.699788 0.567126
vt 0.677342 0.567126
vt 0.699788 0.60111
vt 0.677342 0.60111
vt 0.654913 0.599411
vt 0.380742 0.614402
vt 0.380742 0.553834
vt 0.654913 0.568825
vt 0.757444 0.272905
vt 0.493644 0.382322
vt 0.493964 0.314134
vt 0.757124 0.215377
vt 0.055703 0.333769
vt 0.428727 0.387774
vt 0.430106 0.311961
vt 0.141902 0.217503
vt 0.025646 0.61443
vt 0.025646 0.553807
vt 0.315927 0.553807
vt 0.315927 0.614431
vt 0.428727 0.387774
vt 0.055703 0.333769
vt 0.141903 0.217503
vt 0.430106 0.311961
vt 0.757444 0.272905
vt 0.757124 0.215377
vt 0.493964 0.314134
vt 0.493644 0.382322
vt 0.124975 0.200776
vt 0.075835 0.05596
vt 0.060608 0.038426
vt 0.025647 0.020694
vt 0.025729 0.325203
vt 0.683067 0.131045
vt 0.683067 0.069952
vt 0.828102 0.069952
vt 0.828102 0.131045
vt 0.025729 0.325203
vt 0.025647 0.020694
vt 0.060608 0.038425
vt 0.075829 0.055959
vt 0.124975 0.200776
vt 0.822871 0.261607
vt 0.822923 0.204986
vt 0.891587 0.20499
vt 0.891629 0.26177
vt 0.722743 0.599411
vt 0.722743 0.568825
vt 0.793112 0.568825
vt 0.793112 0.599411
vt 0.822923 0.204986
vt 0.822871 0.261607
vt 0.891629 0.26177
vt 0.891587 0.20499
vt 0.358727 0.553807
vt 0.358727 0.61443
vt 0.4728 0.318477
vt 0.472325 0.387949
vt 0.451294 0.317766
vt 0.450686 0.389767
vt 0.337122 0.553806
vt 0.337122 0.61443
vt 0.451294 0.317766
vt 0.450686 0.389767
vt 0.4728 0.318477
vt 0.472325 0.387949
vt 0.699872 0.568825
vt 0.699872 0.599411
vt 0.800778 0.206129
vt 0.800629 0.262862
vt 0.800629 0.262862
vt 0.800778 0.206129
vt 0.677262 0.568825
vt 0.677262 0.599411
vt 0.779023 0.20955
vt 0.77882 0.266628
vt 0.77882 0.266628
vt 0.779023 0.20955
vt 0.852728 0.131045
vt 0.852728 0.069952
vt 0.891629 0.069952
vt 0.891629 0.131045
vt 0.659311 0.131045
vt 0.659311 0.069952
vt 0.278893 0.945299
vt 0.278181 0.943943
vt 0.295132 0.943943
vt 0.29442 0.945299
vt 0.278181 0.943943
vt 0.277823 0.945299
vt 0.270098 0.945299
vt 0.269706 0.943943
vt 0.751125 0.676866
vt 0.7515 0.678222
vt 0.759247 0.678222
vt 0.759601 0.676866
vt 0.29549 0.945299
vt 0.295132 0.943943
vt 0.303607 0.943943
vt 0.303215 0.945299
vt 0.784652 0.678222
vt 0.785027 0.676866
vt 0.776552 0.676866
vt 0.776906 0.678222
vt 0.775817 0.678222
vt 0.776552 0.676866
vt 0.759601 0.676866
vt 0.760336 0.678222
vt 0.391898 0.945299
vt 0.391186 0.943943
vt 0.408137 0.943943
vt 0.407425 0.945299
vt 0.391186 0.943943
vt 0.390828 0.945299
vt 0.383103 0.945299
vt 0.382711 0.943943
vt 0.686048 0.634354
vt 0.686423 0.63571
vt 0.69417 0.63571
vt 0.694524 0.634354
vt 0.408495 0.945299
vt 0.408137 0.943943
vt 0.416613 0.943943
vt 0.416221 0.945299
vt 0.719575 0.63571
vt 0.71995 0.634354
vt 0.711474 0.634354
vt 0.711828 0.63571
vt 0.710739 0.63571
vt 0.711474 0.634354
vt 0.694524 0.634354
vt 0.695259 0.63571
vt 0.278916 0.945299
vt 0.278181 0.944047
vt 0.295132 0.944047
vt 0.294397 0.945299
vt 0.278181 0.944047
vt 0.277827 0.945299
vt 0.270081 0.945299
vt 0.269706 0.944047
vt 0.751125 0.67697
vt 0.751517 0.678222
vt 0.759243 0.678222
vt 0.759601 0.67697
vt 0.295486 0.945299
vt 0.295132 0.944047
vt 0.303607 0.944047
vt 0.303232 0.945299
vt 0.784635 0.678222
vt 0.785027 0.67697
vt 0.776552 0.67697
vt 0.77691 0.678222
vt 0.77584 0.678222
vt 0.776552 0.67697
vt 0.759601 0.67697
vt 0.760313 0.678222
vt 0.391921 0.945299
vt 0.391186 0.944047
vt 0.408137 0.944047
vt 0.407402 0.945299
vt 0.391186 0.944047
vt 0.390832 0.945299
vt 0.383086 0.945299
vt 0.382711 0.944047
vt 0.686048 0.634458
vt 0.68644 0.63571
vt 0.694165 0.63571
vt 0.694524 0.634458
vt 0.408491 0.945299
vt 0.408137 0.944047
vt 0.416613 0.944047
vt 0.416238 0.945299
vt 0.719558 0.63571
vt 0.71995 0.634458
vt 0.711474 0.634458
vt 0.711832 0.63571
vt 0.710762 0.63571
vt 0.711474 0.634458
vt 0.694524 0.634458
vt 0.695236 0.63571
vt 0.269706 0.933999
vt 0.278181 0.933999
vt 0.278181 0.943943
vt 0.269706 0.943943
vt 0.278181 0.933999
vt 0.295132 0.933999
vt 0.295132 0.943943
vt 0.278181 0.943943
vt 0.295132 0.933999
vt 0.303607 0.933999
vt 0.303607 0.943943
vt 0.295132 0.943943
vt 0.785027 0.666922
vt 0.776552 0.666922
vt 0.776552 0.676866
vt 0.785027 0.676866
vt 0.776552 0.666922
vt 0.759601 0.666922
vt 0.759601 0.676866
vt 0.776552 0.676866
vt 0.759601 0.666922
vt 0.751125 0.666922
vt 0.751125 0.676866
vt 0.759601 0.676866
vt 0.713333 0.863414
vt 0.719688 0.852428
vt 0.732328 0.852428
vt 0.738653 0.863384
vt 0.732314 0.874276
vt 0.719669 0.874309
vt 0.382711 0.933999
vt 0.391186 0.933999
vt 0.391186 0.943943
vt 0.382711 0.943943
vt 0.391186 0.933999
vt 0.408137 0.933999
vt 0.408137 0.943943
vt 0.391186 0.943943
vt 0.408137 0.933999
vt 0.416613 0.933999
vt 0.416613 0.943943
vt 0.408137 0.943943
vt 0.71995 0.62441
vt 0.711474 0.62441
vt 0.711474 0.634354
vt 0.71995 0.634354
vt 0.711474 0.62441
vt 0.694524 0.62441
vt 0.694524 0.634354
vt 0.711474 0.634354
vt 0.694524 0.62441
vt 0.686048 0.62441
vt 0.686048 0.634354
vt 0.694524 0.634354
vt 0.550099 0.939315
vt 0.556455 0.92833
vt 0.569095 0.92833
vt 0.57542 0.939285
vt 0.569081 0.950177
vt 0.556436 0.95021
vt 0.269706 0.933999
vt 0.278181 0.933999
vt 0.278181 0.944047
vt 0.269706 0.944047
vt 0.278181 0.933999
vt 0.295132 0.933999
vt 0.295132 0.944047
vt 0.278181 0.944047
vt 0.295132 0.933999
vt 0.303607 0.933999
vt 0.303607 0.944047
vt 0.295132 0.944047
vt 0.785027 0.666922
vt 0.776552 0.666922
vt 0.776552 0.67697
vt 0.785027 0.67697
vt 0.776552 0.666922
vt 0.759601 0.666922
vt 0.759601 0.67697
vt 0.776552 0.67697
vt 0.759601 0.666922
vt 0.751125 0.666922
vt 0.751125 0.67697
vt 0.759601 0.67697
vt 0.939497 0.207196
vt 0.945833 0.196301
vt 0.95851 0.196302
vt 0.964817 0.207226
vt 0.958461 0.218212
vt 0.945852 0.218181
vt 0.382711 0.933999
vt 0.391186 0.933999
vt 0.391186 0.944047
vt 0.382711 0.944047
vt 0.391186 0.933999
vt 0.408137 0.933999
vt 0.408137 0.944047
vt 0.391186 0.944047
vt 0.408137 0.933999
vt 0.416613 0.933999
vt 0.416613 0.944047
vt 0.408137 0.944047
vt 0.71995 0.62441
vt 0.711474 0.62441
vt 0.711474 0.634458
vt 0.71995 0.634458
vt 0.711474 0.62441
vt 0.694524 0.62441
vt 0.694524 0.634458
vt 0.711474 0.634458
vt 0.694524 0.62441
vt 0.686048 0.62441
vt 0.686048 0.634458
vt 0.694524 0.634458
vt 0.623162 0.863868
vt 0.629498 0.852973
vt 0.642175 0.852974
vt 0.648483 0.863898
vt 0.642126 0.874885
vt 0.629517 0.874854
vt 0.421357 0.67557
vt 0.421714 0.67351
vt 0.471792 0.663878
vt 0.472221 0.666145
vt 0.420755 0.673293
vt 0.421357 0.67557
vt 0.320428 0.675085
vt 0.321045 0.673052
vt 0.320094 0.673013
vt 0.320428 0.675085
vt 0.269894 0.665163
vt 0.270388 0.662901
vt 0.421634 0.798617
vt 0.420965 0.80093
vt 0.32109 0.800668
vt 0.320427 0.798614
vt 0.422075 0.800583
vt 0.421634 0.798617
vt 0.472591 0.798623
vt 0.472194 0.80093
vt 0.320427 0.798614
vt 0.319984 0.80093
vt 0.270145 0.800584
vt 0.269706 0.798614
vt 0.509269 0.182641
vt 0.509269 0.184745
vt 0.41205 0.18476
vt 0.411168 0.182824
vt 0.717674 0.182641
vt 0.717674 0.184745
vt 0.891629 0.182637
vt 0.891029 0.184619
vt 0.717674 0.182656
vt 0.717674 0.184745
vt 0.891014 0.184745
vt 0.891629 0.182645
vt 0.509269 0.182656
vt 0.509269 0.184745
vt 0.411169 0.18283
vt 0.412059 0.184756
vt 0.421168 0.714195
vt 0.320239 0.713701
vt 0.320427 0.760898
vt 0.421634 0.760898
vt 0.717674 0.148298
vt 0.509269 0.148298
vt 0.717674 0.148298
vt 0.509269 0.148298
vt 0.472033 0.704695
vt 0.421168 0.714195
vt 0.320239 0.713701
vt 0.269706 0.703705
vt 0.269706 0.760898
vt 0.320427 0.760898
vt 0.421634 0.760898
vt 0.472591 0.760898
vt 0.891629 0.148298
vt 0.40438 0.148298
vt 0.891629 0.148298
vt 0.40438 0.148298
vt 0.938 0.481401
vt 0.934826 0.490477
vt 0.860217 0.490476
vt 0.857033 0.481405
vt 0.857074 0.987673
vt 0.860217 0.980008
vt 0.934826 0.980009
vt 0.937957 0.987675
vt 0.970666 0.526315
vt 0.978291 0.521762
vt 0.978231 0.607889
vt 0.970666 0.607797
vt 0.824071 0.94417
vt 0.81655 0.947388
vt 0.816563 0.793229
vt 0.824071 0.793137
vt 0.824071 0.526313
vt 0.816493 0.521777
vt 0.978291 0.521762
vt 0.970666 0.526315
vt 0.81655 0.947388
vt 0.824071 0.94417
vt 0.860217 0.980008
vt 0.857074 0.987673
vt 0.937957 0.987675
vt 0.934826 0.980009
vt 0.970666 0.944172
vt 0.978235 0.947401
vt 0.978231 0.79323
vt 0.970666 0.793139
vt 0.978235 0.947401
vt 0.970666 0.944172
vt 0.816563 0.607887
vt 0.824071 0.607796
vt 0.816493 0.521777
vt 0.824071 0.526313
vn -0.999389 0.024377 0.025036
vn -0.999389 0.024377 0.025036
vn -0.999389 0.024377 0.025036
vn -0.999389 0.024377 0.025036
vn -0.999389 0.024377 0.025036
vn -0.999389 0.024377 0.025036
vn -0.999389 0.024377 0.025036
vn -0.999389 0.024377 0.025036
vn -0.999389 0.024377 0.025036
vn -0.999389 0.024377 0.025036
vn -0.999389 0.024377 0.025036
vn -0.999389 0.024377 0.025036
vn -0.999389 0.024377 0.025036
vn -0.999389 0.024377 0.025036
vn -0.999389 0.024377 0.025036
vn -0.999389 0.024377 0.025036
vn -0.999389 0.024377 0.025036
vn -0.999389 0.024377 0.025036
vn -0.999389 0.024377 0.025036
vn -0.999389 0.024377 0.025036
vn -0.949392 0.024377 -0.313146
vn -0.949392 0.024377 -0.313146
vn -0.949392 0.024377 -0.313146
vn -0.949392 0.024377 -0.313146
vn -0.941083 0.024377 0.337295
vn -0.941083 0.024377 0.337295
vn -0.941083 0.024377 0.337295
vn -0.941083 0.024377 0.337295
vn -0.574322 0.817547 -0.04208
vn -0.589348 0.803167 -0.08713
vn -0.555462 0.831435 -0.013359
vn -0.555448 0.831435 0.013915
vn -0.554939 0.831435 0.027543
vn -0.290547 0.024377 -0.95655
vn -0.290547 0.024377 -0.95655
vn -0.290547 0.024377 -0.95655
vn -0.290547 0.024377 -0.95655
vn -0.595299 -0.803366 0.014913
vn -0.595299 -0.803366 0.014913
vn -0.595299 -0.803366 0.014913
vn -0.574881 -0.817739 0.028533
vn -0.574008 -0.817739 0.042635
vn -0.535048 0.844822 0.000268
vn -0.490596 0.87006 -0.048077
vn -0.535048 0.844822 0.000268
vn -0.575681 0.817547 0.014422
vn -0.555448 0.831435 0.013915
vn -0.594754 -0.803366 0.029519
vn -0.613335 -0.788508 0.045556
vn -0.595299 -0.803366 0.014913
vn -0.595486 -0.803366 0.000298
vn -0.595486 -0.803366 0.000298
vn -0.312988 0.024377 0.949444
vn -0.312988 0.024377 0.949444
vn -0.312988 0.024377 0.949444
vn -0.312988 0.024377 0.949444
vn -0.724321 0.024377 -0.689032
vn -0.724321 0.024377 -0.689032
vn -0.724321 0.024377 -0.689032
vn -0.724321 0.024377 -0.689032
vn -0.670923 0.024377 0.741126
vn -0.670923 0.024377 0.741126
vn -0.670923 0.024377 0.741126
vn -0.670923 0.024377 0.741126
vn 0.024203 -0.999707 0.00059
vn 0.024203 -0.999707 0.00059
vn -0.048724 -0.998812 0.001221
vn -0.048724 -0.998812 0.001221
vn -0.359508 -0.933099 0.009006
vn -0.359508 -0.933099 0.009006
vn -0.336505 -0.941644 0.00843
vn -0.336505 -0.941644 0.00843
vn 0.146373 -0.989223 0.003569
vn 0.146373 -0.989223 0.003569
vn 0.170601 -0.985332 0.00416
vn 0.170601 -0.985332 0.00416
vn 0.313304 -0.949622 0.00764
vn 0.313304 -0.949622 0.00764
vn 0.313304 -0.949622 0.00764
vn 0.313304 -0.949622 0.00764
vn 0.021063 -0.493091 -0.869723
vn 0.021063 -0.493091 -0.869723
vn 0.021063 -0.493091 -0.869723
vn 0.021349 -0.47159 -0.88156
vn 0.232161 -0.67174 -0.703467
vn 0.232161 -0.67174 -0.703467
vn 0.232161 -0.67174 -0.703467
vn 0.232161 -0.67174 -0.703467
vn 0.197598 -0.67174 0.713947
vn 0.197598 -0.67174 0.713947
vn 0.197598 -0.67174 0.713947
vn 0.197598 -0.67174 0.713947
vn -0.333319 -0.67174 -0.661561
vn -0.333319 -0.67174 -0.661561
vn -0.276918 -0.47159 -0.837209
vn -0.276918 -0.47159 -0.837209
vn 0.103739 -0.707284 0.699277
vn 0.103739 -0.707284 0.699277
vn 0.103739 -0.707284 0.699277
vn 0.103739 -0.707284 0.699277
vn 0.120638 -0.707284 -0.69656
vn 0.120638 -0.707284 -0.69656
vn 0.120638 -0.707284 -0.69656
vn 0.120638 -0.707284 -0.69656
vn -0.216457 -0.449805 0.8665
vn -0.216457 -0.449805 0.8665
vn -0.316312 -0.67174 0.669859
vn -0.316312 -0.67174 0.669859
vn 0 -0.449805 0.893127
vn 0 -0.427748 0.903898
vn 0 -0.449805 0.893127
vn -0.021325 -0.449805 0.892872
vn -0.21873 -0.97577 0.00548
vn -0.14637 -0.989223 0.003667
vn 0.086311 -0.707284 -0.701641
vn 0.086311 -0.707284 -0.701641
vn 0.086311 -0.707284 -0.701641
vn 0.086311 -0.707284 -0.701641
vn 0.069299 -0.707284 0.703525
vn 0.069299 -0.707284 0.703525
vn 0.069299 -0.707284 0.703525
vn 0.069299 -0.707284 0.703525
vn -0.024203 -0.999707 0.000606
vn 0.073218 -0.997314 0.001785
vn -0.069533 -0.707284 -0.703502
vn -0.086779 -0.707284 -0.701583
vn -0.069533 -0.707284 -0.703502
vn -0.07122 -0.68972 -0.720565
vn -0.193373 -0.68972 -0.697778
vn -0.176189 -0.68972 -0.702314
vn -0.193373 -0.68972 -0.697778
vn -0.205458 -0.707284 -0.676415
vn -0.05154 -0.707284 0.705049
vn -0.03422 -0.707284 0.706101
vn -0.05154 -0.707284 0.705049
vn -0.070499 -0.68972 0.720636
vn -0.175486 -0.68972 0.702489
vn -0.179536 -0.67174 0.718702
vn -0.175486 -0.68972 0.702489
vn -0.154445 -0.707284 0.689853
vn -0.122054 -0.992519 0.003058
vn -0.14637 -0.989223 0.003667
vn -0.170026 -0.493091 -0.853201
vn -0.170026 -0.493091 -0.853201
vn -0.170026 -0.493091 -0.853201
vn -0.170026 -0.493091 -0.853201
vn -0.065115 -0.449805 0.89075
vn -0.021325 -0.449805 0.892872
vn -0.021325 -0.449805 0.892872
vn -0.21873 -0.97577 0.00548
vn -0.266335 -0.963857 0.006672
vn -0.106794 -0.493091 -0.863398
vn -0.106794 -0.493091 -0.863398
vn -0.106794 -0.493091 -0.863398
vn -0.106794 -0.493091 -0.863398
vn -0.064296 -0.493091 -0.867599
vn -0.064296 -0.493091 -0.867599
vn -0.064296 -0.493091 -0.867599
vn -0.064296 -0.493091 -0.867599
vn -0.130474 -0.449805 0.883545
vn -0.065115 -0.449805 0.89075
vn -0.065115 -0.449805 0.89075
vn -0.130474 -0.449805 0.883545
vn -0.130474 -0.449805 0.883545
vn -0.130474 -0.449805 0.883545
vn 0.558577 0.817547 -0.140031
vn 0.47815 0.87006 -0.119868
vn 0 1 0
vn 0.477946 0.844822 0.240508
vn 0 1 0
vn 0.19314 0.963768 -0.183976
vn 0.240428 0.844822 -0.477986
vn -0.052627 0.844822 -0.532454
vn 0 1 0
vn -0.308259 0.844822 -0.437324
vn -0.483782 0.844822 -0.228543
vn 0 1 0
vn -0.532445 0.844822 0.052716
vn -0.437273 0.844822 0.308332
vn 0 1 0
vn -0.228463 0.844822 0.48382
vn 0.026256 0.844822 0.534404
vn 0.297285 0.844822 0.444858
vn 0.793101 0.575725 -0.198824
vn 0.47815 0.87006 -0.119868
vn 0.558577 0.817547 -0.140031
vn 0.876905 0.427447 -0.219833
vn 0.422593 0.514009 -0.746465
vn 0.240428 0.844822 -0.477986
vn 0.512042 0.707048 -0.487746
vn 0.512042 0.707048 -0.487746
vn -0.052627 0.844822 -0.532454
vn -0.04238 0.514009 -0.856737
vn -0.459198 0.514009 -0.724522
vn -0.308259 0.844822 -0.437324
vn -0.75668 0.514009 -0.404018
vn -0.857516 0.514009 0.021482
vn -0.735501 0.514009 0.4414
vn -0.403892 0.514009 0.756747
vn 0 0.514009 0.857785
vn 0.026256 0.844822 0.534404
vn 0.422841 0.514009 0.746324
vn 0.297285 0.844822 0.444858
vn 0.746395 0.514009 0.422717
vn 0.477946 0.844822 0.240508
vn 0.788055 0.575725 0.217967
vn 0.471739 0.87006 0.143031
vn 0.965329 0.097862 -0.242
vn 0.967344 -0.073739 -0.242505
vn 0.513713 0.024377 -0.857616
vn 0.697874 0.26658 -0.664761
vn 0.697874 0.26658 -0.664761
vn -0.02487 0.024377 -0.999393
vn -0.514285 0.024377 -0.857273
vn -0.870048 0.024377 -0.492364
vn -0.999389 0.024377 0.025036
vn -0.857187 0.024377 0.514428
vn -0.492219 0.024377 0.87013
vn 0 0.024377 0.999703
vn 0.492799 0.024377 0.869802
vn 0.85753 0.024377 0.513856
vn 0.959187 0.097862 0.2653
vn 0.886686 -0.405434 -0.222285
vn 0.806389 -0.555761 -0.202155
vn 0.465235 -0.493091 -0.735131
vn 0.706453 -0.219287 -0.672932
vn 0.706453 -0.219287 -0.672932
vn 0.021063 -0.493091 -0.869723
vn -0.44755 -0.493091 -0.74603
vn -0.757147 -0.493091 -0.428473
vn -0.869978 -0.493091 0.000435
vn -0.756718 -0.493091 0.42923
vn -0.428347 -0.493091 0.757219
vn 0 -0.493091 0.869978
vn 0.410145 -0.493091 0.767231
vn 0.746254 -0.493091 0.447176
vn 0.89037 -0.382876 0.246266
vn 0.702343 -0.68972 -0.176072
vn 0.718552 -0.67174 -0.180135
vn 0.431177 -0.68972 -0.581698
vn 0.524287 -0.68972 -0.49941
vn 0.524287 -0.68972 -0.49941
vn 0.070739 -0.68972 -0.720613
vn -0.325801 -0.68972 -0.646638
vn -0.602224 -0.68972 -0.402012
vn -0.722141 -0.68972 -0.052911
vn -0.654388 -0.68972 0.30994
vn -0.416573 -0.68972 0.592245
vn -0.052791 -0.68972 0.722149
vn 0.293455 -0.68972 0.661945
vn 0.581626 -0.68972 0.431274
vn 0.697874 -0.68972 0.193024
vn -0.575589 -0.817739 0.000288
vn -0.595486 -0.803366 0.000298
vn -0.615024 -0.788508 0.000308
vn -0.614831 -0.788508 0.015403
vn -0.59385 -0.803366 0.044108
vn -0.596514 -0.788508 0.149753
vn -0.552643 -0.83162 0.054716
vn -0.492501 -0.870224 0.012338
vn 0 1 0
vn 0 1 0
vn 0 1 0
vn 0 1 0
vn 0 1 0
vn 0 1 0
vn 0 1 0
vn 0 1 0
vn -0.999389 0.024377 0.025036
vn -0.999389 0.024377 0.025036
vn -0.999389 0.024377 0.025036
vn -0.999389 0.024377 0.025036
vn 0 0.024377 0.999703
vn 0 0.024377 0.999703
vn 0 0.024377 0.999703
vn 0 0.024377 0.999703
vn 0.999406 0.024377 0.02437
vn 0.999406 0.024377 0.02437
vn 0.999406 0.024377 0.02437
vn 0.999406 0.024377 0.02437
vn 0.024203 0.024377 -0.99941
vn 0.024203 0.024377 -0.99941
vn 0.024203 0.024377 -0.99941
vn 0.024203 0.024377 -0.99941
vn -0.723631 0.024377 0.689756
vn -0.706484 0.024377 0.707309
vn -0.723631 0.024377 0.689756
vn -0.723631 0.024377 0.689756
vn -0.741014 0.024377 -0.671047
vn -0.757261 0.024377 -0.652657
vn -0.741014 0.024377 -0.671047
vn -0.741014 0.024377 -0.671047
vn 0.74079 0.024377 0.671294
vn 0.74079 0.024377 0.671294
vn 0.724091 0.024377 0.689273
vn 0.724091 0.024377 0.689273
vn 0.772629 0.024377 -0.63439
vn 0.772629 0.024377 -0.63439
vn 0.756826 0.024377 -0.653162
vn 0.756826 0.024377 -0.653162
vn -0.595314 -0.803366 -0.014318
vn -0.595314 -0.803366 -0.014318
vn -0.595486 -0.803366 0.000298
vn -0.575589 -0.817739 0.000288
vn -0.575589 -0.817739 0.000288
vn -0.595486 -0.803366 0.000298
vn -0.594754 -0.803366 0.029519
vn -0.574881 -0.817739 0.028533
vn -0.594754 -0.803366 0.029519
vn -0.594754 -0.803366 0.029519
vn -0.594754 -0.803366 0.029519
vn -0.594754 -0.803366 0.029519
vn -0.575408 -0.817739 0.014415
vn -0.575408 -0.817739 0.014415
vn -0.575408 -0.817739 0.014415
vn -0.575408 -0.817739 0.014415
vn 0 0.024377 0.999703
vn 0 0.024377 0.999703
vn 0 0.024377 0.999703
vn 0 0.024377 0.999703
vn -0.756608 0.024377 0.653414
vn -0.756608 0.024377 0.653414
vn -0.787053 0.048906 0.614944
vn -0.787053 0.048906 0.614944
vn -0.999389 0.024377 0.025036
vn -0.999389 0.024377 0.025036
vn -0.999389 0.024377 0.025036
vn -0.999389 0.024377 0.025036
vn -0.772356 0.048906 -0.633304
vn -0.772356 0.048906 -0.633304
vn -0.817592 0.024377 -0.575281
vn -0.817592 0.024377 -0.575281
vn 0.024203 0.024377 -0.99941
vn 0.024203 0.024377 -0.99941
vn 0.024203 0.024377 -0.99941
vn 0.024203 0.024377 -0.99941
vn 0.756826 0.024377 -0.653162
vn 0.756826 0.024377 -0.653162
vn 0.706714 -0.02471 -0.707068
vn 0.706714 -0.02471 -0.707068
vn 0.999406 0.024377 0.02437
vn 0.999406 0.024377 0.02437
vn 0.999406 0.024377 0.02437
vn 0.999406 0.024377 0.02437
vn 0.724085 -0.024711 0.689268
vn 0.724085 -0.024711 0.689268
vn 0.689394 0.024377 0.723976
vn 0.689394 0.024377 0.723976
vn -0.634251 0.772964 0.015889
vn -0.634251 0.772964 0.015889
vn -0.634251 0.772964 0.015889
vn -0.634251 0.772964 0.015889
vn 0 0.772964 0.63445
vn 0 0.772964 0.63445
vn 0 0.772964 0.63445
vn 0 0.772964 0.63445
vn 0.689394 0.724191 0.016811
vn 0.689394 0.724191 0.016811
vn 0.689394 0.724191 0.016811
vn 0.689394 0.724191 0.016811
vn 0.01536 0.772964 -0.634264
vn 0.01536 0.772964 -0.634264
vn 0.01536 0.772964 -0.634264
vn 0.01536 0.772964 -0.634264
vn -0.470276 0.772964 -0.425872
vn -0.484197 0.75716 -0.438478
vn -0.470276 0.772964 -0.425872
vn -0.466071 0.788303 -0.401691
vn -0.459244 0.772964 0.437746
vn -0.445373 0.788303 0.424524
vn -0.459244 0.772964 0.437746
vn -0.459244 0.772964 0.437746
vn 0.508448 0.740899 -0.438805
vn 0.483904 0.75716 -0.438801
vn 0.508448 0.740899 -0.438805
vn 0.522061 0.724191 -0.450554
vn 0.486456 0.740899 0.463065
vn 0.499481 0.724191 0.475464
vn 0.486456 0.740899 0.463065
vn 0.473139 0.75716 0.450388
vn 0.214638 0.683871 0.697317
vn 0.213126 0.683859 0.697793
vn 0.149856 0.690632 0.70751
vn 0.149855 0.690632 0.70751
vn 0.214638 0.683871 0.697317
vn 0.209119 0.685283 0.697608
vn 0.212116 0.684729 0.697247
vn 0.209119 0.685283 0.697608
vn 0.059261 0.703759 0.707963
vn 0.059283 0.703758 0.707963
vn 0.210757 0.684987 -0.697405
vn 0.213808 0.684421 -0.697032
vn 0.059278 0.703732 -0.707988
vn 0.059257 0.703734 -0.707988
vn 0.210757 0.684987 -0.697405
vn 0.216332 0.683563 -0.697096
vn 0.214748 0.683566 -0.697582
vn 0.216332 0.683563 -0.697096
vn 0.149855 0.690632 -0.70751
vn 0.149856 0.690632 -0.70751
vn -0.218395 0.672508 -0.707132
vn -0.218395 0.672508 -0.707132
vn -0.107898 0.696355 -0.709541
vn -0.107898 0.696355 -0.709541
vn -0.24053 0.662479 -0.709413
vn -0.24053 0.662479 -0.709413
vn -0.649712 0.266993 -0.711751
vn -0.649712 0.266993 -0.711751
vn -0.24053 0.662479 0.709413
vn -0.24053 0.662479 0.709413
vn -0.649712 0.266993 0.711751
vn -0.649712 0.266993 0.711751
vn -0.24053 0.662479 0.709413
vn -0.24053 0.662479 0.709413
vn -0.218395 0.672508 0.707132
vn -0.218395 0.672508 0.707132
vn -0.107898 0.696355 0.709541
vn -0.107898 0.696355 0.709541
vn -0.65373 0.26103 -0.710282
vn -0.65373 0.26103 -0.710282
vn -0.405491 0.572336 -0.712747
vn -0.405491 0.572336 -0.712747
vn -0.326235 0.627355 -0.707104
vn -0.326235 0.627355 -0.707104
vn -0.653729 0.26103 0.710283
vn -0.653729 0.26103 0.710283
vn -0.40549 0.572336 0.712747
vn -0.405491 0.572336 0.712747
vn -0.653729 0.26103 0.710283
vn -0.653729 0.26103 0.710283
vn -0.649712 0.266993 0.711751
vn -0.649712 0.266993 0.711751
vn -0.326235 0.627355 0.707104
vn -0.326235 0.627355 0.707104
vn 0 0.707106 0.707108
vn 0 0.707106 0.707108
vn 0.01111 0.706883 0.707243
vn 0.01111 0.706883 0.707243
vn 0.01111 0.706883 0.707243
vn 0.01111 0.706883 0.707243
vn 0.080557 0.70205 0.707556
vn 0.080558 0.70205 0.707556
vn 0 0.707106 -0.707108
vn 0 0.707106 -0.707108
vn 0.01111 0.706883 -0.707243
vn 0.01111 0.706883 -0.707243
vn 0.01111 0.706883 -0.707243
vn 0.080558 0.70205 -0.707556
vn 0.080557 0.70205 -0.707556
vn -0.107898 0.696355 -0.709541
vn -0.107898 0.696355 -0.709541
vn 0.080557 0.70205 -0.707556
vn 0.149855 0.690632 -0.70751
vn 0.080557 0.70205 0.707556
vn 0.149855 0.690632 0.70751
vn 0.346917 0.937896 0
vn 0.336572 0.941658 0
vn 0.336595 0.94165 0
vn 0.34691 0.937898 0
vn -0.130474 -0.449805 0.883545
vn -0.050543 0 0.998722
vn -0.05401 0 0.99854
vn -0.051595 0 0.998668
vn 0 0 -1
vn 0 0 -1
vn 0 0 -1
vn -0 0 -1
vn -0.340848 0.940118 0
vn -0.340848 0.940118 0
vn -0.308882 0.9511 0
vn -0.308882 0.9511 0
vn -0 0 1
vn -0 0 1
vn -0 0 1
vn -0 0 1
vn -0.052165 0 -0.998639
vn -0.049144 0 -0.998792
vn -0.051445 0 -0.998676
vn -0.048142 0 -0.998841
vn -0 0 -1
vn -0 0 -1
vn 0 0 -1
vn 0 0 -1
vn 0 0 -1
vn -0.925282 0.379281 0
vn -0.925282 0.379281 0
vn -0.928476 0.371393 0
vn -0.928476 0.371393 0
vn 0 0 1
vn 0 0 1
vn 0 0 1
vn 0 0 1
vn -0 0 1
vn -0.021325 -0.449805 0.892872
vn -0 0 1
vn 0 0 1
vn 0 -0.449805 0.893127
vn 0.015746 0.999876 0
vn 0.015746 0.999876 0
vn 0 1 0
vn 0 1 0
vn 0 0 -1
vn 0 0 -1
vn 0 0 -1
vn 0 0 -1
vn 0.084372 0.996434 0
vn 0.084371 0.996434 0
vn -0 0 1
vn 0 0 1
vn 0 0 -1
vn 0 0 -1
vn -0.153338 0.988174 0
vn -0.153338 0.988174 0
vn 0 0 1
vn 0 0 1
vn -0 0 -1
vn 0 0 -1
vn 0.114014 0.993479 0
vn 0.114014 0.993479 0
vn -0 0 1
vn -0.065115 -0.449805 0.89075
vn 0 0 -1
vn 0 0 -1
vn 0.21178 0.977318 0
vn 0.21178 0.977318 0
vn -0 0 1
vn -0.130474 -0.449805 0.883545
vn 0 0 -1
vn 0 0 -1
vn -0.578018 0.816024 0
vn -0.578018 0.816024 0
vn -0.461364 0.887211 0
vn -0.461364 0.887211 0
vn -0.340848 0.940118 0
vn -0.340848 0.940118 0
vn -0.707105 0.707108 0
vn -0.707105 0.707108 0
vn -0.707105 0.707108 0
vn -0.707105 0.707108 0
vn -0.707105 0.374784 0.599616
vn -0.707105 0.374784 0.599616
vn -0.707105 0.374784 0.599616
vn -0.707105 0.374784 0.599616
vn -0.707107 -0.35854 0.609467
vn -0.707107 -0.35854 0.609467
vn -0.707107 -0.35854 0.609467
vn -0.707107 -0.35854 0.609467
vn -0.707105 0.374766 -0.599627
vn -0.707105 0.374766 -0.599627
vn -0.707105 0.374766 -0.599627
vn -0.707105 0.374766 -0.599627
vn -0.707108 -0.358521 -0.609476
vn -0.707108 -0.358521 -0.609476
vn -0.707108 -0.358521 -0.609476
vn -0.707108 -0.358521 -0.609476
vn -0.707104 -0.707109 0
vn -0.707104 -0.707109 0
vn -0.707104 -0.707109 0
vn -0.707104 -0.707109 0
vn -0.707105 0.707108 0
vn -0.707105 0.707108 0
vn -0.707105 0.707108 0
vn -0.707105 0.707108 0
vn -0.707105 0.374766 0.599627
vn -0.707105 0.374766 0.599627
vn -0.707105 0.374766 0.599627
vn -0.707105 0.374766 0.599627
vn -0.707108 -0.358521 0.609476
vn -0.707108 -0.358521 0.609476
vn -0.707108 -0.358521 0.609476
vn -0.707108 -0.358521 0.609476
vn -0.707105 0.374784 -0.599616
vn -0.707105 0.374784 -0.599616
vn -0.707105 0.374784 -0.599616
vn -0.707105 0.374784 -0.599616
vn -0.707107 -0.35854 -0.609467
vn -0.707107 -0.35854 -0.609467
vn -0.707107 -0.35854 -0.609467
vn -0.707107 -0.35854 -0.609467
vn -0.707104 -0.707109 0
vn -0.707104 -0.707109 0
vn -0.707104 -0.707109 0
vn -0.707104 -0.707109 0
vn -0.707104 0.707109 0
vn -0.707104 0.707109 0
vn -0.707104 0.707109 0
vn -0.707104 0.707109 0
vn -0.707105 0.358539 0.609469
vn -0.707105 0.358539 0.609469
vn -0.707105 0.358539 0.609469
vn -0.707105 0.358539 0.609469
vn -0.707105 -0.374784 0.599616
vn -0.707105 -0.374784 0.599616
vn -0.707105 -0.374784 0.599616
vn -0.707105 -0.374784 0.599616
vn -0.707107 0.35852 -0.609477
vn -0.707107 0.35852 -0.609477
vn -0.707107 0.35852 -0.609477
vn -0.707107 0.35852 -0.609477
vn -0.707105 -0.374766 -0.599627
vn -0.707105 -0.374766 -0.599627
vn -0.707105 -0.374766 -0.599627
vn -0.707105 -0.374766 -0.599627
vn -0.707105 -0.707108 0
vn -0.707105 -0.707108 0
vn -0.707105 -0.707108 0
vn -0.707105 -0.707108 0
vn -0.707104 0.707109 0
vn -0.707104 0.707109 0
vn -0.707104 0.707109 0
vn -0.707104 0.707109 0
vn -0.707107 0.35852 0.609477
vn -0.707107 0.35852 0.609477
vn -0.707107 0.35852 0.609477
vn -0.707107 0.35852 0.609477
vn -0.707105 -0.374766 0.599627
vn -0.707105 -0.374766 0.599627
vn -0.707105 -0.374766 0.599627
vn -0.707105 -0.374766 0.599627
vn -0.707105 0.358539 -0.609469
vn -0.707105 0.358539 -0.609469
vn -0.707105 0.358539 -0.609469
vn -0.707105 0.358539 -0.609469
vn -0.707105 -0.374784 -0.599616
vn -0.707105 -0.374784 -0.599616
vn -0.707105 -0.374784 -0.599616
vn -0.707105 -0.374784 -0.599616
vn -0.707105 -0.707108 0
vn -0.707105 -0.707108 0
vn -0.707105 -0.707108 0
vn -0.707105 -0.707108 0
vn 0 0.530023 0.847983
vn 0 0.530023 0.847983
vn 0 0.530023 0.847983
vn 0 0.530023 0.847983
vn 0 1 0
vn 0 1 0
vn 0 1 0
vn 0 1 0
vn 0 0.529999 -0.847998
vn 0 0.529999 -0.847998
vn 0 0.529999 -0.847998
vn 0 0.529999 -0.847998
vn 0 -0.507028 -0.86193
vn 0 -0.507028 -0.86193
vn 0 -0.507028 -0.86193
vn 0 -0.507028 -0.86193
vn -1e-06 -1 0
vn -1e-06 -1 0
vn -1e-06 -1 0
vn -1e-06 -1 0
vn 0 -0.507052 0.861916
vn 0 -0.507052 0.861916
vn 0 -0.507052 0.861916
vn 0 -0.507052 0.861916
vn -1 0 0
vn -1 0 0
vn -1 0 0
vn -1 0 0
vn -1 0 0
vn -1 0 0
vn 0 0.529999 0.847998
vn 0 0.529999 0.847998
vn 0 0.529999 0.847998
vn 0 0.529999 0.847998
vn 0 1 0
vn 0 1 0
vn 0 1 0
vn 0 1 0
vn 0 0.530023 -0.847983
vn 0 0.530023 -0.847983
vn 0 0.530023 -0.847983
vn 0 0.530023 -0.847983
vn 0 -0.507052 -0.861916
vn 0 -0.507052 -0.861916
vn 0 -0.507052 -0.861916
vn 0 -0.507052 -0.861916
vn -1e-06 -1 0
vn -1e-06 -1 0
vn -1e-06 -1 0
vn -1e-06 -1 0
vn -0 -0.507028 0.86193
vn -0 -0.507028 0.86193
vn -0 -0.507028 0.86193
vn -0 -0.507028 0.86193
vn -1 -0 0
vn -1 -0 0
vn -1 -0 0
vn -1 -0 0
vn -1 -0 0
vn -1 -0 0
vn 0 0.507051 0.861916
vn 0 0.507051 0.861916
vn 0 0.507051 0.861916
vn 0 0.507051 0.861916
vn 0 1 0
vn 0 1 0
vn 0 1 0
vn 0 1 0
vn 0 0.507027 -0.86193
vn 0 0.507027 -0.86193
vn 0 0.507027 -0.86193
vn 0 0.507027 -0.86193
vn 0 -0.529999 -0.847998
vn 0 -0.529999 -0.847998
vn 0 -0.529999 -0.847998
vn 0 -0.529999 -0.847998
vn 0 -1 0
vn 0 -1 0
vn 0 -1 0
vn 0 -1 0
vn 0 -0.530023 0.847983
vn 0 -0.530023 0.847983
vn 0 -0.530023 0.847983
vn 0 -0.530023 0.847983
vn -1 0 0
vn -1 0 0
vn -1 0 0
vn -1 0 0
vn -1 0 0
vn -1 0 0
vn 0 0.507027 0.86193
vn 0 0.507027 0.86193
vn 0 0.507027 0.86193
vn 0 0.507027 0.86193
vn 0 1 0
vn 0 1 0
vn 0 1 0
vn 0 1 0
vn 0 0.507051 -0.861916
vn 0 0.507051 -0.861916
vn 0 0.507051 -0.861916
vn 0 0.507051 -0.861916
vn 0 -0.530023 -0.847983
vn 0 -0.530023 -0.847983
vn 0 -0.530023 -0.847983
vn 0 -0.530023 -0.847983
vn 0 -1 0
vn 0 -1 0
vn 0 -1 0
vn 0 -1 0
vn 0 -0.529999 0.847998
vn 0 -0.529999 0.847998
vn 0 -0.529999 0.847998
vn 0 -0.529999 0.847998
vn -1 -0 0
vn -1 -0 0
vn -1 -0 0
vn -1 -0 0
vn -1 -0 0
vn -1 -0 0
vn -0.166647 -0.697221 -0.697217
vn -0.702966 -0.675082 -0.223838
vn -0.671287 -0.525797 -0.522409
vn -0.176161 -0.696051 -0.696046
vn -0.702966 -0.675082 -0.223838
vn -0.225056 -0.974346 0
vn -0.22506 -0.974345 0
vn -0.706043 -0.67204 0.223307
vn -0.706043 -0.67204 0.223307
vn -0.167025 -0.697152 0.697196
vn -0.176335 -0.695997 0.696056
vn -0.677346 -0.520119 0.520268
vn -0.035187 0.999381 0
vn -0.616516 0.787343 0
vn -0.616518 0.787341 0
vn -0.035189 0.999381 0
vn -0.611376 0.56135 -0.557768
vn -0.03516 0.706699 -0.70664
vn -0.035537 0.70669 -0.70663
vn -0.613375 0.560269 -0.55666
vn -0.035668 0.706657 0.706657
vn -0.620481 0.554528 0.554528
vn -0.620484 0.554527 0.554527
vn -0.035668 0.706657 0.706657
vn -0.038459 6e-06 0.99926
vn -0.637705 1.5e-05 0.770281
vn -0.606773 6.9e-05 0.794875
vn -0.026977 1.4e-05 0.999636
vn -0.039139 -0 0.999234
vn -0.637893 -0 0.770125
vn -0.035386 -0 0.999374
vn -0.618923 -1e-06 0.785452
vn -0.03729 -0 -0.999304
vn -0.610109 -1e-06 -0.792317
vn -0.590413 -3e-06 -0.807101
vn -0.033573 -1e-06 -0.999436
vn -0.036662 6e-06 -0.999328
vn -0.609933 1.6e-05 -0.792453
vn -0.025584 1.4e-05 -0.999673
vn -0.578052 7e-05 -0.816
vn -0.196116 -0.980581 0
vn -0.196116 -0.980581 0
vn 0 1 0
vn 0 1 0
vn 0 0 1
vn 0 0 1
vn 0 0 -1
vn 0 0 -1
vn -0.140028 -0.700142 -0.700138
vn -0.140028 -0.700142 -0.700138
vn -0.140028 -0.70014 0.70014
vn -0.140028 -0.70014 0.70014
vn 0 0.707107 0.707107
vn 0 0.707107 0.707107
vn 0 0.707108 -0.707105
vn 0 0.707108 -0.707105
vn 0 0 1
vn 0 0 1
vn 0 0 -1
vn 0 0 -1
vn -0.706043 -0.67204 0.223307
vn -0.773355 -0.60089 0.202123
vn -0.770215 -0.604928 -0.202067
vn -0.702966 -0.675082 -0.223838
vn -0.616516 0.787343 0
vn -0.707122 0.707091 0
vn -0.707122 0.707092 0
vn -0.616518 0.787341 0
vn -0.707107 0 0.707107
vn -0.606773 6.9e-05 0.794875
vn -0.637705 1.5e-05 0.770281
vn -0.707107 0 0.707107
vn -0.68046 0 -0.732785
vn -0.590413 -3e-06 -0.807101
vn -0.610109 -1e-06 -0.792317
vn -0.68046 0 -0.732785
vn -0.735831 -0.481104 -0.476541
vn -0.671287 -0.525797 -0.522409
vn -0.677346 -0.520119 0.520268
vn -0.743311 -0.473016 0.473016
vn -0.613375 0.560269 -0.55666
vn -0.701778 0.506155 -0.501314
vn -0.701778 0.506154 -0.501314
vn -0.611376 0.56135 -0.557768
vn -0.620481 0.554528 0.554528
vn -0.71068 0.497461 0.49746
vn -0.71068 0.497461 0.49746
vn -0.620484 0.554527 0.554527
vn -0.637893 -0 0.770125
vn -0.707107 -0 0.707107
vn -0.618923 -1e-06 0.785452
vn -0.707107 -0 0.707107
vn -0.609933 1.6e-05 -0.792453
vn -0.68046 0 -0.732785
vn -0.578052 7e-05 -0.816
vn -0.68046 0 -0.732785

g cctvholder:_0_0
usemtl cctvholder:MD3__default__base_
f 11/11/11 1/1/1 2/2/2
f 2/2/2 3/3/3 4/4/4
f 4/4/4 5/5/5 6/6/6
f 9/9/9 10/10/10 11/11/11
f 11/11/11 2/2/2 4/4/4
f 4/4/4 6/6/6 7/7/7
f 9/9/9 11/11/11 4/4/4
f 4/4/4 7/7/7 8/8/8
f 8/8/8 9/9/9 4/4/4
f 20/20/20 12/12/12 13/13/13
f 13/13/13 14/14/14 15/15/15
f 15/15/15 10/10/10 16/16/16
f 19/19/19 5/5/5 20/20/20
f 20/20/20 13/13/13 15/15/15
f 15/15/15 16/16/16 17/17/17
f 19/19/19 20/20/20 15/15/15
f 15/15/15 17/17/17 18/18/18
f 18/18/18 19/19/19 15/15/15
f 19/19/19 6/6/6 5/5/5
f 21/21/21 22/22/22 23/23/23
f 21/21/21 23/23/23 24/24/24
f 9/9/9 16/16/16 10/10/10
f 25/25/25 26/26/26 27/27/27
f 25/25/25 27/27/27 28/28/28
f 29/29/29 30/30/30 31/31/31
f 32/32/32 29/29/29 31/31/31
f 32/32/32 31/31/31 33/33/33
f 34/34/34 35/35/35 36/36/36
f 34/34/34 36/36/36 37/37/37
f 38/38/38 39/39/39 40/40/40
f 38/38/38 40/40/40 41/41/41
f 40/40/40 42/42/42 41/41/41
f 46/46/46 47/47/47 43/43/43
f 43/43/43 44/44/44 45/45/45
f 45/45/45 46/46/46 43/43/43
f 48/48/48 49/49/49 50/50/50
f 51/51/51 48/48/48 50/50/50
f 51/51/51 50/50/50 52/52/52
f 53/53/53 54/54/54 55/55/55
f 53/53/53 55/55/55 56/56/56
f 57/57/57 58/58/58 59/59/59
f 57/57/57 59/59/59 60/60/60
f 61/61/61 62/62/62 63/63/63
f 61/61/61 63/63/63 64/64/64
f 65/65/65 66/66/66 67/67/67
f 65/65/65 67/67/67 68/68/68
f 69/69/69 70/70/70 71/71/71
f 69/69/69 71/71/71 72/72/72
f 73/73/73 74/74/74 75/75/75
f 73/73/73 75/75/75 76/76/76
f 77/77/77 78/78/78 79/79/79
f 77/77/77 79/79/79 80/80/80
f 81/81/81 82/82/82 83/83/83
f 81/81/81 83/83/83 84/84/84
f 85/85/85 86/86/86 87/87/87
f 85/85/85 87/87/87 88/88/88
f 89/89/89 90/90/90 91/91/91
f 89/89/89 91/91/91 92/92/92
f 93/93/93 94/94/94 95/95/95
f 93/93/93 95/95/95 96/96/96
f 97/97/97 98/98/98 99/99/99
f 97/97/97 99/99/99 100/100/100
f 101/101/101 102/102/102 103/103/103
f 101/101/101 103/103/103 104/104/104
f 105/105/105 106/106/106 107/107/107
f 105/105/105 107/107/107 108/108/108
f 109/109/109 110/110/110 111/111/111
f 109/109/109 111/111/111 112/112/112
f 113/113/113 72/72/72 71/71/71
f 113/113/113 71/71/71 114/114/114
f 115/115/115 116/116/116 117/117/117
f 115/115/115 117/117/117 118/118/118
f 119/119/119 120/120/120 121/121/121
f 119/119/119 121/121/121 122/122/122
f 123/123/123 113/113/113 114/114/114
f 123/123/123 114/114/114 124/124/124
f 73/73/73 123/123/123 124/124/124
f 73/73/73 124/124/124 74/74/74
f 125/125/125 126/126/126 127/127/127
f 125/125/125 127/127/127 128/128/128
f 129/129/129 130/130/130 131/131/131
f 129/129/129 131/131/131 132/132/132
f 133/133/133 134/134/134 135/135/135
f 133/133/133 135/135/135 136/136/136
f 137/137/137 138/138/138 139/139/139
f 137/137/137 139/139/139 140/140/140
f 141/141/141 68/68/68 67/67/67
f 141/141/141 67/67/67 142/142/142
f 143/143/143 144/144/144 145/145/145
f 143/143/143 145/145/145 146/146/146
f 147/147/147 112/112/112 148/148/148
f 147/147/147 148/148/148 149/149/149
f 150/150/150 141/141/141 142/142/142
f 150/150/150 142/142/142 151/151/151
f 69/69/69 150/150/150 151/151/151
f 69/69/69 151/151/151 70/70/70
f 152/152/152 153/153/153 154/154/154
f 152/152/152 154/154/154 155/155/155
f 156/156/156 157/157/157 158/158/158
f 156/156/156 158/158/158 159/159/159
f 160/160/160 147/147/147 161/161/161
f 160/160/160 161/161/161 162/162/162
f 163/163/163 160/160/160 164/164/164
f 163/163/163 164/164/164 165/165/165
f 166/166/166 167/167/167 168/168/168
f 166/166/166 168/168/168 169/169/169
f 170/170/170 171/171/171 172/172/172
f 170/170/170 172/172/172 173/173/173
f 174/174/174 173/173/173 175/175/175
f 174/174/174 175/175/175 176/176/176
f 177/177/177 176/176/176 178/178/178
f 177/177/177 178/178/178 179/179/179
f 180/180/180 179/179/179 181/181/181
f 180/180/180 181/181/181 182/182/182
f 168/168/168 182/182/182 183/183/183
f 168/168/168 183/183/183 169/169/169
f 184/184/184 185/185/185 186/186/186
f 184/184/184 186/186/186 187/187/187
f 188/188/188 189/189/189 190/190/190
f 188/188/188 190/190/190 191/191/191
f 192/192/192 189/189/189 193/193/193
f 192/192/192 193/193/193 194/194/194
f 189/189/189 188/188/188 193/193/193
f 194/194/194 195/195/195 173/173/173
f 196/196/196 176/176/176 195/195/195
f 196/196/196 195/195/195 194/194/194
f 197/197/197 178/178/178 176/176/176
f 197/197/197 176/176/176 196/196/196
f 198/198/198 179/179/179 178/178/178
f 198/198/198 178/178/178 197/197/197
f 199/199/199 181/181/181 179/179/179
f 199/199/199 179/179/179 198/198/198
f 200/200/200 201/201/201 181/181/181
f 200/200/200 181/181/181 199/199/199
f 202/202/202 203/203/203 201/201/201
f 202/202/202 201/201/201 200/200/200
f 204/204/204 205/205/205 203/203/203
f 204/204/204 203/203/203 202/202/202
f 206/206/206 207/207/207 205/205/205
f 206/206/206 205/205/205 204/204/204
f 208/208/208 184/184/184 187/187/187
f 208/208/208 187/187/187 209/209/209
f 210/210/210 188/188/188 211/211/211
f 210/210/210 211/211/211 212/212/212
f 213/213/213 193/193/193 188/188/188
f 213/213/213 188/188/188 210/210/210
f 214/214/214 194/194/194 193/193/193
f 214/214/214 193/193/193 213/213/213
f 215/215/215 196/196/196 194/194/194
f 215/215/215 194/194/194 214/214/214
f 216/216/216 197/197/197 196/196/196
f 216/216/216 196/196/196 215/215/215
f 217/217/217 198/198/198 197/197/197
f 217/217/217 197/197/197 216/216/216
f 218/218/218 199/199/199 198/198/198
f 218/218/218 198/198/198 217/217/217
f 219/219/219 200/200/200 199/199/199
f 219/219/219 199/199/199 218/218/218
f 220/220/220 202/202/202 200/200/200
f 220/220/220 200/200/200 219/219/219
f 221/221/221 204/204/204 202/202/202
f 221/221/221 202/202/202 220/220/220
f 222/222/222 206/206/206 204/204/204
f 222/222/222 204/204/204 221/221/221
f 223/223/223 208/208/208 209/209/209
f 223/223/223 209/209/209 224/224/224
f 225/225/225 210/210/210 226/226/226
f 225/225/225 226/226/226 227/227/227
f 228/228/228 213/213/213 210/210/210
f 228/228/228 210/210/210 225/225/225
f 229/229/229 214/214/214 213/213/213
f 229/229/229 213/213/213 228/228/228
f 230/230/230 215/215/215 214/214/214
f 230/230/230 214/214/214 229/229/229
f 231/231/231 216/216/216 215/215/215
f 231/231/231 215/215/215 230/230/230
f 232/232/232 217/217/217 216/216/216
f 232/232/232 216/216/216 231/231/231
f 233/233/233 218/218/218 217/217/217
f 233/233/233 217/217/217 232/232/232
f 234/234/234 219/219/219 218/218/218
f 234/234/234 218/218/218 233/233/233
f 235/235/235 220/220/220 219/219/219
f 235/235/235 219/219/219 234/234/234
f 236/236/236 221/221/221 220/220/220
f 236/236/236 220/220/220 235/235/235
f 237/237/237 222/222/222 221/221/221
f 237/237/237 221/221/221 236/236/236
f 238/238/238 223/223/223 224/224/224
f 238/238/238 224/224/224 239/239/239
f 240/240/240 225/225/225 241/241/241
f 240/240/240 241/241/241 242/242/242
f 243/243/243 228/228/228 225/225/225
f 243/243/243 225/225/225 240/240/240
f 244/244/244 229/229/229 228/228/228
f 244/244/244 228/228/228 243/243/243
f 245/245/245 230/230/230 229/229/229
f 245/245/245 229/229/229 244/244/244
f 246/246/246 231/231/231 230/230/230
f 246/246/246 230/230/230 245/245/245
f 247/247/247 232/232/232 231/231/231
f 247/247/247 231/231/231 246/246/246
f 248/248/248 233/233/233 232/232/232
f 248/248/248 232/232/232 247/247/247
f 249/249/249 234/234/234 233/233/233
f 249/249/249 233/233/233 248/248/248
f 250/250/250 235/235/235 234/234/234
f 250/250/250 234/234/234 249/249/249
f 251/251/251 236/236/236 235/235/235
f 251/251/251 235/235/235 250/250/250
f 252/252/252 237/237/237 236/236/236
f 252/252/252 236/236/236 251/251/251
f 253/253/253 254/254/254 255/255/255
f 255/255/255 256/256/256 257/257/257
f 255/255/255 257/257/257 253/253/253
f 257/257/257 258/258/258 259/259/259
f 253/253/253 257/257/257 259/259/259
f 253/253/253 259/259/259 260/260/260
f 261/261/261 262/262/262 263/263/263
f 263/263/263 264/264/264 265/265/265
f 261/261/261 263/263/263 265/265/265
f 261/261/261 265/265/265 266/266/266
f 265/265/265 267/267/267 266/266/266
f 268/268/268 261/261/261 266/266/266
f 269/269/269 270/270/270 271/271/271
f 269/269/269 271/271/271 272/272/272
f 273/273/273 274/274/274 275/275/275
f 273/273/273 275/275/275 276/276/276
f 277/277/277 278/278/278 279/279/279
f 277/277/277 279/279/279 280/280/280
f 281/281/281 282/282/282 283/283/283
f 281/281/281 283/283/283 284/284/284
f 285/285/285 286/286/286 287/287/287
f 285/285/285 287/287/287 288/288/288
f 289/289/289 290/290/290 291/291/291
f 289/289/289 291/291/291 292/292/292
f 293/293/293 294/294/294 295/295/295
f 293/293/293 295/295/295 296/296/296
f 297/297/297 298/298/298 299/299/299
f 297/297/297 299/299/299 300/300/300
f 301/301/301 302/302/302 303/303/303
f 301/301/301 303/303/303 304/304/304
f 302/302/302 305/305/305 306/306/306
f 302/302/302 306/306/306 303/303/303
f 305/305/305 307/307/307 308/308/308
f 305/305/305 308/308/308 306/306/306
f 307/307/307 309/309/309 310/310/310
f 307/307/307 310/310/310 308/308/308
f 309/309/309 311/311/311 312/312/312
f 309/309/309 312/312/312 310/310/310
f 311/311/311 313/313/313 314/314/314
f 311/311/311 314/314/314 312/312/312
f 313/313/313 315/315/315 316/316/316
f 313/313/313 316/316/316 314/314/314
f 315/315/315 301/301/301 304/304/304
f 315/315/315 304/304/304 316/316/316
f 317/317/317 318/318/318 319/319/319
f 317/317/317 319/319/319 320/320/320
f 321/321/321 322/322/322 323/323/323
f 321/321/321 323/323/323 324/324/324
f 325/325/325 326/326/326 327/327/327
f 325/325/325 327/327/327 328/328/328
f 329/329/329 330/330/330 331/331/331
f 329/329/329 331/331/331 332/332/332
f 333/333/333 334/334/334 335/335/335
f 333/333/333 335/335/335 336/336/336
f 337/337/337 338/338/338 339/339/339
f 337/337/337 339/339/339 340/340/340
f 341/341/341 342/342/342 343/343/343
f 341/341/341 343/343/343 344/344/344
f 345/345/345 346/346/346 347/347/347
f 345/345/345 347/347/347 348/348/348
f 349/349/349 350/350/350 351/351/351
f 349/349/349 351/351/351 352/352/352
f 353/353/353 354/354/354 355/355/355
f 353/353/353 355/355/355 356/356/356
f 357/357/357 358/358/358 359/359/359
f 357/357/357 359/359/359 360/360/360
f 361/361/361 362/362/362 363/363/363
f 361/361/361 363/363/363 364/364/364
f 365/365/365 366/366/366 367/367/367
f 365/365/365 367/367/367 368/368/368
f 369/369/369 370/370/370 371/371/371
f 369/369/369 371/371/371 372/372/372
f 373/373/373 374/374/374 375/375/375
f 373/373/373 375/375/375 376/376/376
f 377/377/377 378/378/378 379/379/379
f 377/377/377 379/379/379 380/380/380
f 381/381/381 382/382/382 383/383/383
f 381/381/381 383/383/383 384/384/384
f 382/382/382 385/385/385 386/386/386
f 382/382/382 386/386/386 387/387/387
f 387/387/387 388/388/388 389/389/389
f 387/387/387 389/389/389 390/390/390
f 391/391/391 392/392/392 393/393/393
f 391/391/391 393/393/393 394/394/394
f 392/392/392 395/395/395 396/396/396
f 392/392/392 396/396/396 397/397/397
f 397/397/397 398/398/398 399/399/399
f 397/397/397 399/399/399 400/400/400
f 401/401/401 402/402/402 403/403/403
f 401/401/401 403/403/403 404/404/404
f 402/402/402 401/401/401 405/405/405
f 402/402/402 405/405/405 406/406/406
f 406/406/406 405/405/405 407/407/407
f 406/406/406 407/407/407 408/408/408
f 409/409/409 410/410/410 411/411/411
f 409/409/409 411/411/411 412/412/412
f 413/413/413 414/414/414 415/415/415
f 413/413/413 415/415/415 416/416/416
f 416/416/416 415/415/415 417/417/417
f 416/416/416 417/417/417 418/418/418
f 408/408/408 407/407/407 419/419/419
f 408/408/408 419/419/419 420/420/420
f 420/420/420 419/419/419 421/421/421
f 420/420/420 421/421/421 422/422/422
f 422/422/422 421/421/421 423/423/423
f 422/422/422 423/423/423 424/424/424
f 425/425/425 426/426/426 427/427/427
f 425/425/425 427/427/427 428/428/428
f 429/429/429 430/430/430 431/431/431
f 429/429/429 431/431/431 432/432/432
f 433/433/433 434/434/434 428/428/428
f 433/433/433 428/428/428 427/427/427
f 435/435/435 436/436/436 437/437/437
f 435/435/435 437/437/437 438/438/438
f 439/439/439 440/440/440 441/441/441
f 439/439/439 441/441/441 442/442/442
f 443/443/443 444/444/444 445/445/445
f 443/443/443 445/445/445 446/446/446
f 447/447/447 445/445/445 448/448/448
f 447/447/447 448/448/448 449/449/449
f 394/394/394 393/393/393 450/450/450
f 394/394/394 450/450/450 451/451/451
f 390/390/390 389/389/389 418/418/418
f 390/390/390 418/418/418 417/417/417
f 452/452/452 448/448/448 400/400/400
f 452/452/452 400/400/400 453/453/453
f 442/442/442 454/454/454 455/455/455
f 442/442/442 455/455/455 383/383/383
f 456/456/456 457/457/457 458/458/458
f 456/456/456 458/458/458 459/459/459
f 460/460/460 461/461/461 462/462/462
f 460/460/460 462/462/462 463/463/463
f 464/464/464 465/465/465 466/466/466
f 464/464/464 466/466/466 467/467/467
f 468/468/468 469/469/469 470/470/470
f 468/468/468 470/470/470 471/471/471
f 472/472/472 473/473/473 474/474/474
f 472/472/472 474/474/474 475/475/475
f 476/476/476 477/477/477 478/478/478
f 476/476/476 478/478/478 479/479/479
f 480/480/480 481/481/481 482/482/482
f 480/480/480 482/482/482 464/464/464
f 464/464/464 482/482/482 483/483/483
f 464/464/464 483/483/483 484/484/484
f 485/485/485 486/486/486 487/487/487
f 485/485/485 487/487/487 488/488/488
f 492/492/492 493/493/493 473/473/473
f 473/473/473 489/489/489 490/490/490
f 490/490/490 491/491/491 492/492/492
f 492/492/492 473/473/473 490/490/490
f 494/494/494 495/495/495 496/496/496
f 494/494/494 496/496/496 497/497/497
f 498/498/498 499/499/499 500/500/500
f 498/498/498 500/500/500 501/501/501
f 502/502/502 503/503/503 504/504/504
f 502/502/502 504/504/504 505/505/505
f 506/506/506 458/458/458 457/457/457
f 506/506/506 457/457/457 507/507/507
f 508/508/508 462/462/462 461/461/461
f 508/508/508 461/461/461 509/509/509
f 510/510/510 466/466/466 465/465/465
f 510/510/510 465/465/465 511/511/511
f 512/512/512 506/506/506 507/507/507
f 512/512/512 507/507/507 513/513/513
f 470/470/470 512/512/512 513/513/513
f 470/470/470 513/513/513 471/471/471
f 514/514/514 508/508/508 509/509/509
f 514/514/514 509/509/509 515/515/515
f 475/475/475 514/514/514 515/515/515
f 475/475/475 515/515/515 472/472/472
f 516/516/516 510/510/510 511/511/511
f 516/516/516 511/511/511 517/517/517
f 478/478/478 516/516/516 517/517/517
f 478/478/478 517/517/517 479/479/479
f 518/518/518 499/499/499 498/498/498
f 518/518/518 498/498/498 519/519/519
f 520/520/520 495/495/495 494/494/494
f 520/520/520 494/494/494 521/521/521
f 522/522/522 503/503/503 502/502/502
f 522/522/522 502/502/502 523/523/523
f 524/524/524 518/518/518 519/519/519
f 524/524/524 519/519/519 525/525/525
f 459/459/459 524/524/524 525/525/525
f 459/459/459 525/525/525 456/456/456
f 526/526/526 520/520/520 521/521/521
f 526/526/526 521/521/521 527/527/527
f 463/463/463 526/526/526 527/527/527
f 463/463/463 527/527/527 460/460/460
f 528/528/528 522/522/522 523/523/523
f 528/528/528 523/523/523 529/529/529
f 476/476/476 528/528/528 529/529/529
f 476/476/476 529/529/529 477/477/477
f 530/530/530 531/531/531 532/532/532
f 530/530/530 532/532/532 533/533/533
f 480/480/480 464/464/464 467/467/467
f 474/474/474 473/473/473 493/493/493
f 485/485/485 534/534/534 535/535/535
f 485/485/485 535/535/535 486/486/486
f 487/487/487 531/531/531 530/530/530
f 487/487/487 530/530/530 488/488/488
f 536/536/536 537/537/537 538/538/538
f 536/536/536 538/538/538 539/539/539
f 540/540/540 541/541/541 542/542/542
f 540/540/540 542/542/542 543/543/543
f 544/544/544 545/545/545 546/546/546
f 544/544/544 546/546/546 547/547/547
f 548/548/548 549/549/549 550/550/550
f 548/548/548 550/550/550 551/551/551
f 552/552/552 553/553/553 554/554/554
f 552/552/552 554/554/554 555/555/555
f 556/556/556 557/557/557 558/558/558
f 556/556/556 558/558/558 559/559/559
f 560/560/560 561/561/561 562/562/562
f 560/560/560 562/562/562 563/563/563
f 564/564/564 565/565/565 566/566/566
f 564/564/564 566/566/566 567/567/567
f 568/568/568 569/569/569 570/570/570
f 568/568/568 570/570/570 571/571/571
f 572/572/572 573/573/573 574/574/574
f 572/572/572 574/574/574 575/575/575
f 576/576/576 577/577/577 578/578/578
f 576/576/576 578/578/578 579/579/579
f 580/580/580 581/581/581 582/582/582
f 580/580/580 582/582/582 583/583/583
f 584/584/584 585/585/585 586/586/586
f 584/584/584 586/586/586 587/587/587
f 588/588/588 589/589/589 590/590/590
f 588/588/588 590/590/590 591/591/591
f 592/592/592 593/593/593 594/594/594
f 592/592/592 594/594/594 595/595/595
f 596/596/596 597/597/597 598/598/598
f 596/596/596 598/598/598 599/599/599
f 600/600/600 601/601/601 602/602/602
f 600/600/600 602/602/602 603/603/603
f 604/604/604 605/605/605 606/606/606
f 604/604/604 606/606/606 607/607/607
f 608/608/608 609/609/609 610/610/610
f 608/608/608 610/610/610 611/611/611
f 612/612/612 613/613/613 614/614/614
f 612/612/612 614/614/614 615/615/615
f 616/616/616 617/617/617 618/618/618
f 616/616/616 618/618/618 619/619/619
f 620/620/620 621/621/621 622/622/622
f 620/620/620 622/622/622 623/623/623
f 624/624/624 625/625/625 626/626/626
f 624/624/624 626/626/626 627/627/627
f 628/628/628 629/629/629 630/630/630
f 628/628/628 630/630/630 631/631/631
f 632/632/632 633/633/633 634/634/634
f 632/632/632 634/634/634 635/635/635
f 636/636/636 637/637/637 638/638/638
f 636/636/636 638/638/638 639/639/639
f 640/640/640 641/641/641 642/642/642
f 640/640/640 642/642/642 643/643/643
f 644/644/644 645/645/645 646/646/646
f 644/644/644 646/646/646 647/647/647
f 648/648/648 649/649/649 650/650/650
f 648/648/648 650/650/650 651/651/651
f 652/652/652 653/653/653 654/654/654
f 652/652/652 654/654/654 655/655/655
f 660/660/660 661/661/661 656/656/656
f 656/656/656 657/657/657 658/658/658
f 658/658/658 659/659/659 660/660/660
f 660/660/660 656/656/656 658/658/658
f 662/662/662 663/663/663 664/664/664
f 662/662/662 664/664/664 665/665/665
f 666/666/666 667/667/667 668/668/668
f 666/666/666 668/668/668 669/669/669
f 670/670/670 671/671/671 672/672/672
f 670/670/670 672/672/672 673/673/673
f 674/674/674 675/675/675 676/676/676
f 674/674/674 676/676/676 677/677/677
f 678/678/678 679/679/679 680/680/680
f 678/678/678 680/680/680 681/681/681
f 682/682/682 683/683/683 684/684/684
f 682/682/682 684/684/684 685/685/685
f 690/690/690 691/691/691 686/686/686
f 686/686/686 687/687/687 688/688/688
f 688/688/688 689/689/689 690/690/690
f 690/690/690 686/686/686 688/688/688
f 692/692/692 693/693/693 694/694/694
f 692/692/692 694/694/694 695/695/695
f 696/696/696 697/697/697 698/698/698
f 696/696/696 698/698/698 699/699/699
f 700/700/700 701/701/701 702/702/702
f 700/700/700 702/702/702 703/703/703
f 704/704/704 705/705/705 706/706/706
f 704/704/704 706/706/706 707/707/707
f 708/708/708 709/709/709 710/710/710
f 708/708/708 710/710/710 711/711/711
f 712/712/712 713/713/713 714/714/714
f 712/712/712 714/714/714 715/715/715
f 720/720/720 721/721/721 716/716/716
f 716/716/716 717/717/717 718/718/718
f 718/718/718 719/719/719 720/720/720
f 720/720/720 716/716/716 718/718/718
f 722/722/722 723/723/723 724/724/724
f 722/722/722 724/724/724 725/725/725
f 726/726/726 727/727/727 728/728/728
f 726/726/726 728/728/728 729/729/729
f 730/730/730 731/731/731 732/732/732
f 730/730/730 732/732/732 733/733/733
f 734/734/734 735/735/735 736/736/736
f 734/734/734 736/736/736 737/737/737
f 738/738/738 739/739/739 740/740/740
f 738/738/738 740/740/740 741/741/741
f 742/742/742 743/743/743 744/744/744
f 742/742/742 744/744/744 745/745/745
f 750/750/750 751/751/751 746/746/746
f 746/746/746 747/747/747 748/748/748
f 748/748/748 749/749/749 750/750/750
f 750/750/750 746/746/746 748/748/748
f 752/752/752 753/753/753 754/754/754
f 752/752/752 754/754/754 755/755/755
f 756/756/756 757/757/757 758/758/758
f 756/756/756 758/758/758 759/759/759
f 760/760/760 761/761/761 762/762/762
f 760/760/760 762/762/762 763/763/763
f 764/764/764 765/765/765 766/766/766
f 764/764/764 766/766/766 767/767/767
f 768/768/768 769/769/769 770/770/770
f 768/768/768 770/770/770 771/771/771
f 772/772/772 773/773/773 774/774/774
f 772/772/772 774/774/774 775/775/775
f 776/776/776 777/777/777 778/778/778
f 776/776/776 778/778/778 779/779/779
f 777/777/777 776/776/776 780/780/780
f 777/777/777 780/780/780 781/781/781
f 781/781/781 780/780/780 782/782/782
f 781/781/781 782/782/782 783/783/783
f 784/784/784 785/785/785 786/786/786
f 784/784/784 786/786/786 787/787/787
f 785/785/785 784/784/784 788/788/788
f 785/785/785 788/788/788 789/789/789
f 789/789/789 788/788/788 790/790/790
f 789/789/789 790/790/790 791/791/791
f 757/757/757 792/792/792 793/793/793
f 757/757/757 793/793/793 758/758/758
f 764/764/764 767/767/767 794/794/794
f 764/764/764 794/794/794 795/795/795
f 796/796/796 780/780/780 776/776/776
f 796/796/796 776/776/776 797/797/797
f 784/784/784 798/798/798 799/799/799
f 784/784/784 799/799/799 788/788/788
f 752/752/752 755/755/755 800/800/800
f 752/752/752 800/800/800 801/801/801
f 802/802/802 803/803/803 762/762/762
f 802/802/802 762/762/762 761/761/761
f 772/772/772 775/775/775 804/804/804
f 772/772/772 804/804/804 805/805/805
f 806/806/806 807/807/807 770/770/770
f 806/806/806 770/770/770 769/769/769
f 808/808/808 782/782/782 780/780/780
f 808/808/808 780/780/780 796/796/796
f 779/779/779 809/809/809 797/797/797
f 779/779/779 797/797/797 776/776/776
f 787/787/787 810/810/810 798/798/798
f 787/787/787 798/798/798 784/784/784
f 811/811/811 790/790/790 788/788/788
f 811/811/811 788/788/788 799/799/799
f 812/812/812 813/813/813 814/814/814
f 812/812/812 814/814/814 815/815/815
f 816/816/816 817/817/817 818/818/818
f 816/816/816 818/818/818 819/819/819
f 820/820/820 821/821/821 822/822/822
f 820/820/820 822/822/822 823/823/823
f 824/824/824 825/825/825 826/826/826
f 824/824/824 826/826/826 827/827/827
f 815/815/815 814/814/814 828/828/828
f 815/815/815 828/828/828 829/829/829
f 830/830/830 831/831/831 813/813/813
f 830/830/830 813/813/813 812/812/812
f 832/832/832 833/833/833 834/834/834
f 832/832/832 834/834/834 835/835/835
f 836/836/836 837/837/837 838/838/838
f 836/836/836 838/838/838 839/839/839
f 823/823/823 822/822/822 840/840/840
f 823/823/823 840/840/840 841/841/841
f 841/841/841 840/840/840 842/842/842
f 841/841/841 842/842/842 843/843/843
f 827/827/827 826/826/826 844/844/844
f 827/827/827 844/844/844 845/845/845
f 845/845/845 844/844/844 846/846/846
f 845/845/845 846/846/846 847/847/847
