# Exported by Gskelview
mtllib fusebox.mtl

v 8 -12 3.60004
v 8 -12 4
v -8 -12 4
v -8 -12 3.60004
v 8 -12 4
v 7.60004 -11.6 4
v -7.60004 -11.6 4
v -8 -12 4
v -8 12 3.60004
v -8 12 4
v 8 12 4
v 8 12 3.60004
v -8 12 4
v -7.60004 11.6 4
v 7.60004 11.6 4
v 8 12 4
v 8 -12 -4
v -8 -12 -4
v 8 12 -4
v -8 12 -4
v -8 -12 -4
v -8 -12 3.60004
v -8 12 3.60004
v -8 12 -4
v 8 -12 3.60004
v 8 -12 -4
v 8 12 -4
v 8 12 3.60004
v -8 -12 4
v -8 12 4
v 8 -12 4
v 8 12 4
vt 0.7037 0.204486
vt 0.7037 0.214
vt 0.322 0.2145
vt 0.322 0.204961
vt 0.7037 0.214
vt 0.694158 0.223555
vt 0.331542 0.22403
vt 0.322 0.2145
vt 0.322 0.796639
vt 0.322 0.7871
vt 0.7037 0.7865
vt 0.7037 0.796069
vt 0.322 0.7871
vt 0.331542 0.777544
vt 0.694158 0.776974
vt 0.7037 0.7865
vt 0.7037 0.0237
vt 0.322 0.0237
vt 0.7037 0.9779
vt 0.322 0.9779
vt 0.1312 0.2145
vt 0.312461 0.2145
vt 0.312461 0.7871
vt 0.1312 0.7871
vt 0.713319 0.214
vt 0.8961 0.214
vt 0.8961 0.7865
vt 0.713319 0.7865
vt 0.322 0.2145
vt 0.322 0.7871
vt 0.7037 0.214
vt 0.7037 0.7865
vn 0 -1 0
vn 0 -1 0
vn 0 -1 0
vn 0 -1 0
vn 0 -0 1
vn 0 -0 1
vn 0 -0 1
vn 1e-06 -0 1
vn 0 1 0
vn 0 1 0
vn 0 1 0
vn 0 1 0
vn 1e-06 -0 1
vn 0 -0 1
vn 0 -0 1
vn 0 -0 1
vn 0 -1 0
vn 0 -1 0
vn 0 1 0
vn 0 1 0
vn -1 0 0
vn -1 0 0
vn -1 0 0
vn -1 0 0
vn 1 0 0
vn 1 0 0
vn 1 0 0
vn 1 0 0
vn -1 0 0
vn -1 0 0
vn 1 0 0
vn 1 0 0

g fusebox:Mesh_0
usemtl fusebox:boqu_fusebox_tga
f 1/1/1 2/2/2 3/3/3
f 1/1/1 3/3/3 4/4/4
f 5/5/5 6/6/6 7/7/7
f 5/5/5 7/7/7 8/8/8
f 9/9/9 10/10/10 11/11/11
f 9/9/9 11/11/11 12/12/12
f 13/13/13 14/14/14 15/15/15
f 13/13/13 15/15/15 16/16/16
f 17/17/17 1/1/1 4/4/4
f 17/17/17 4/4/4 18/18/18
f 19/19/19 20/20/20 9/9/9
f 19/19/19 9/9/9 12/12/12
f 21/21/21 22/22/22 23/23/23
f 21/21/21 23/23/23 24/24/24
f 7/7/7 6/6/6 15/15/15
f 7/7/7 15/15/15 14/14/14
f 25/25/25 26/26/26 27/27/27
f 25/25/25 27/27/27 28/28/28
f 22/22/22 29/29/29 30/30/30
f 22/22/22 30/30/30 23/23/23
f 8/8/8 7/7/7 14/14/14
f 8/8/8 14/14/14 13/13/13
f 6/6/6 5/5/5 16/16/16
f 6/6/6 16/16/16 15/15/15
f 31/31/31 25/25/25 28/28/28
f 31/31/31 28/28/28 32/32/32
