# Exported by Gskelview
mtllib barrel_1.mtl

v 16.6638 52.7227 2.08118
v 10.6394 52.7226 4.1756
v 14.5996 52.7227 8.29979
v 14.5996 52.7227 8.29979
v 10.6394 52.7226 4.1756
v 12.4562 52.7226 10.7774
v -3.79271 40.2536 30.3948
v 8.12695 40.2536 29.5328
v -3.11523 49.1401 24.9661
v 6.67536 49.1401 24.258
v -15.135 40.2536 26.6298
v -12.4316 49.14 21.8736
v -24.173 40.2536 18.8108
v -19.8553 49.14 15.4511
v -29.5309 40.2536 8.12831
v -24.2562 49.14 6.67674
v -30.3929 40.2536 -3.79141
v -24.9642 49.14 -3.1139
v -26.6278 40.2536 -15.1336
v -21.8716 49.14 -12.4302
v -18.8089 40.2536 -24.1717
v -15.4493 49.14 -19.8539
v -8.12636 40.2536 -29.5296
v -6.67487 49.1401 -24.2548
v 3.7933 40.2536 -30.3916
v 3.11581 49.1401 -24.9628
v 15.1356 40.2536 -26.6265
v 3.7933 40.2536 -30.3916
v 12.4322 49.1401 -21.8703
v 3.11581 49.1401 -24.9628
v 24.1736 40.2537 -18.8075
v 19.8559 49.1401 -15.4479
v 29.5315 40.2537 -8.12511
v 24.2568 49.1401 -6.67353
v 30.3935 40.2537 3.79463
v 24.9648 49.1401 3.11713
v 26.6285 40.2537 15.1369
v 21.8722 49.1401 12.4335
v 18.8094 40.2537 24.175
v 15.4499 49.1401 19.8572
v 19.8559 49.1401 -15.4479
v 12.4322 49.1401 -21.8703
v 16.639 49.1401 -12.9449
v 10.418 49.1401 -18.3267
v 3.11581 49.1401 -24.9628
v 2.61105 49.1401 -20.9183
v 3.11581 49.1401 -24.9628
v -6.67487 49.1401 -24.2548
v 2.61105 49.1401 -20.9183
v -5.59338 49.1401 -20.325
v -15.4493 49.14 -19.8539
v -12.9463 49.14 -16.6371
v -21.8716 49.14 -12.4302
v -18.3281 49.14 -10.4161
v -24.9642 49.14 -3.1139
v -20.9196 49.14 -2.60915
v -24.2562 49.14 6.67674
v -20.3263 49.14 5.59528
v -19.8553 49.14 15.4511
v -16.6384 49.1401 12.9481
v -12.4316 49.14 21.8736
v -10.4174 49.1401 18.33
v -3.11523 49.1401 24.9661
v -2.61046 49.1401 20.9215
v 6.67536 49.1401 24.258
v 5.59398 49.1401 20.3282
v 15.4499 49.1401 19.8572
v 12.9468 49.1401 16.6403
v 21.8722 49.1401 12.4335
v 18.3287 49.1401 10.4193
v 24.9648 49.1401 3.11713
v 20.9202 49.1401 2.61237
v 24.2568 49.1401 -6.67353
v 20.3268 49.1401 -5.59204
v 16.639 49.1401 -12.9449
v 10.418 49.1401 -18.3267
v 16.639 40.939 -12.9449
v 10.418 40.939 -18.3267
v 2.61105 49.1401 -20.9183
v 2.61105 40.939 -20.9183
v 2.61105 49.1401 -20.9183
v -5.59338 49.1401 -20.325
v 2.61105 40.939 -20.9183
v -5.59338 40.939 -20.325
v -12.9463 49.14 -16.6371
v -12.9462 40.939 -16.6371
v -18.3281 49.14 -10.4161
v -18.3281 40.939 -10.4161
v -20.9196 49.14 -2.60915
v -20.9196 40.939 -2.60915
v -20.3263 49.14 5.59528
v -20.3262 40.939 5.59528
v -16.6384 49.1401 12.9481
v -16.6384 40.939 12.9481
v -10.4174 49.1401 18.33
v -10.4174 40.939 18.33
v -2.61046 49.1401 20.9215
v -2.61046 40.939 20.9215
v 5.59398 49.1401 20.3282
v 5.59398 40.939 20.3282
v 12.9468 49.1401 16.6403
v 12.9468 40.939 16.6403
v 18.3287 49.1401 10.4193
v 18.3287 40.939 10.4194
v 20.9202 49.1401 2.61237
v 20.9202 40.9391 2.61236
v 20.3268 49.1401 -5.59204
v 20.3268 40.9391 -5.59204
v 16.639 40.939 -12.9449
v 10.418 40.939 -18.3267
v 14.4711 48.4855 -11.258
v 9.06066 48.4855 -15.9386
v 2.61105 40.939 -20.9183
v 2.27091 48.4855 -18.1926
v -5.59338 40.939 -20.325
v -4.49427 48.4854 -16.3309
v -12.9462 40.939 -16.6371
v -11.2594 48.4854 -14.4692
v -5.59338 40.939 -20.325
v -4.49427 48.4854 -16.3309
v -18.3281 40.939 -10.4161
v -15.94 48.4854 -9.05873
v -20.9196 40.939 -2.60915
v -18.1939 48.4854 -2.26897
v -20.3262 40.939 5.59528
v -17.6778 48.4854 4.86644
v -16.6384 40.939 12.9481
v -14.4705 48.4854 11.2613
v -10.4174 40.939 18.33
v -9.06007 48.4854 15.9419
v -2.61046 40.939 20.9215
v -2.27032 48.4855 18.1958
v 5.59398 40.939 20.3282
v 4.49486 48.4855 16.3341
v 12.9468 40.939 16.6403
v 11.26 48.4855 14.4724
v 18.3287 40.939 10.4194
v 15.9406 48.4855 9.06199
v 20.9202 40.9391 2.61236
v 18.1945 48.4855 2.27217
v 20.3268 40.9391 -5.59204
v 17.6783 48.4855 -4.86322
v -12.4556 52.7226 -10.7742
v -14.599 52.7226 -8.29658
v -10.6388 52.7226 -4.17235
v -16.6633 52.7226 -2.07796
v 13.2537 52.7226 -10.3108
v 8.29841 52.7226 -14.5977
v 5.1708 51.5419 -12.6076
v 2.84022 48.4855 -15.242
v -2.8614 51.5419 -10.3972
v -3.69936 48.4855 -13.4424
v -12.4556 52.7226 -10.7742
v -14.599 52.7226 -8.29658
v -16.6633 52.7226 -2.07796
v -16.1906 52.7226 4.4572
v -13.2532 52.7226 10.3141
v -8.29792 52.7226 14.6009
v -5.17021 51.5419 12.6108
v -2.83973 48.4855 15.2453
v 2.86189 51.5419 10.4004
v 3.69996 48.4855 13.4456
v 12.4562 52.7226 10.7774
v 14.5996 52.7227 8.29979
v 16.6638 52.7227 2.08118
v 16.1912 52.7226 -4.45401
v -5.18861 52.7226 15.6331
v 10.8941 51.5419 8.19005
v 10.2395 48.4855 11.646
v -10.8935 51.5419 -8.18686
v -10.2389 48.4855 -11.6428
v 5.18911 52.7226 -15.6298
v -6.60108 51.5419 7.41139
v 1.43112 51.5419 5.20102
v 2.27091 48.4855 -18.1926
v 2.84022 48.4855 -15.242
v 5.18911 52.7226 -15.6298
v 5.1708 51.5419 -12.6076
v 2.27091 48.4855 -18.1926
v -4.49427 48.4854 -16.3309
v 2.84022 48.4855 -15.242
v -3.69936 48.4855 -13.4424
v -2.27032 48.4855 18.1958
v -2.83973 48.4855 15.2453
v -5.18861 52.7226 15.6331
v -5.17021 51.5419 12.6108
v -2.27032 48.4855 18.1958
v 4.49486 48.4855 16.3341
v -2.83973 48.4855 15.2453
v 3.69996 48.4855 13.4456
v 11.26 48.4855 14.4724
v 10.2395 48.4855 11.646
v 11.26 48.4855 14.4724
v 12.4562 52.7226 10.7774
v 10.2395 48.4855 11.646
v 10.8941 51.5419 8.19005
v -11.2594 48.4854 -14.4692
v -10.2389 48.4855 -11.6428
v -11.2594 48.4854 -14.4692
v -12.4556 52.7226 -10.7742
v -10.2389 48.4855 -11.6428
v -10.8935 51.5419 -8.18686
v 12.4562 52.7226 10.7774
v 10.6394 52.7226 4.1756
v 10.8941 51.5419 8.19005
v 9.46322 51.5419 2.99066
v -6.60108 51.5419 7.41139
v -7.00538 52.7226 9.03125
v -5.17021 51.5419 12.6108
v -5.18861 52.7226 15.6331
v 9.46322 51.5419 2.99066
v 6.60158 51.5419 -7.40813
v 7.00587 52.7226 -9.028
v 5.1708 51.5419 -12.6076
v 5.18911 52.7226 -15.6298
v -1.43053 51.5419 -5.19777
v 6.60158 51.5419 -7.40813
v -9.46273 51.5419 -2.98742
v -12.4556 52.7226 -10.7742
v -10.6388 52.7226 -4.17235
v -10.8935 51.5419 -8.18686
v -9.46273 51.5419 -2.98742
v 8.03245 51.5419 -2.20875
v 8.82263 52.7226 -2.42621
v 0.000247 51.5419 0.001615
v 8.03245 51.5419 -2.20875
v -8.03186 51.5419 2.21198
v -8.82214 52.7226 2.42944
v -8.03186 51.5419 2.21198
v 5.18911 52.7226 -15.6298
v 7.00587 52.7226 -9.028
v 8.29841 52.7226 -14.5977
v 13.2537 52.7226 -10.3108
v 8.82263 52.7226 -2.42621
v 16.1912 52.7226 -4.45401
v 16.6638 52.7227 2.08118
v -13.2532 52.7226 10.3141
v -8.29792 52.7226 14.6009
v -7.00538 52.7226 9.03125
v -5.18861 52.7226 15.6331
v -16.1906 52.7226 4.4572
v -8.82214 52.7226 2.42944
v 24.1737 -19.1786 -18.8075
v 15.1356 -19.1786 -26.6265
v 3.7934 -19.1786 -30.3916
v 3.7934 -19.1786 -30.3916
v -8.12636 -19.1786 -29.5296
v -18.8089 -19.1786 -24.1717
v -26.6278 -19.1786 -15.1336
v -30.3929 -19.1786 -3.79139
v -29.5308 -19.1786 8.12831
v -24.173 -19.1786 18.8108
v -15.1349 -19.1786 26.6298
v -3.79261 -19.1786 30.3948
v 8.12704 -19.1786 29.5329
v 18.8095 -19.1786 24.175
v 26.6286 -19.1786 15.1369
v 30.3936 -19.1786 3.79464
v 29.5315 -19.1786 -8.12511
v -3.11513 -28.065 24.9661
v 6.67546 -28.065 24.2581
v -12.4315 -28.065 21.8736
v -19.8552 -28.065 15.4512
v -24.2561 -28.065 6.67676
v -24.9641 -28.0651 -3.11389
v -21.8715 -28.0651 -12.4302
v -15.4492 -28.065 -19.8539
v -6.67477 -28.065 -24.2548
v 3.11591 -28.065 -24.9628
v 12.4323 -28.065 -21.8703
v 3.11591 -28.065 -24.9628
v 19.856 -28.065 -15.4479
v 24.2568 -28.065 -6.67353
v 24.9649 -28.065 3.11714
v 21.8723 -28.065 12.4335
v 15.4499 -28.065 19.8572
v 19.856 -28.065 -15.4479
v 16.6391 -28.065 -12.9449
v 12.4323 -28.065 -21.8703
v 10.4181 -28.065 -18.3267
v 3.11591 -28.065 -24.9628
v 2.61115 -28.065 -20.9183
v 3.11591 -28.065 -24.9628
v 2.61115 -28.065 -20.9183
v -6.67477 -28.065 -24.2548
v -5.59329 -28.065 -20.325
v -15.4492 -28.065 -19.8539
v -12.9462 -28.065 -16.637
v -21.8715 -28.0651 -12.4302
v -18.328 -28.065 -10.4161
v -24.9641 -28.0651 -3.11389
v -20.9195 -28.065 -2.60914
v -24.2561 -28.065 6.67676
v -20.3262 -28.065 5.59529
v -19.8552 -28.065 15.4512
v -16.6384 -28.065 12.9481
v -12.4315 -28.065 21.8736
v -10.4173 -28.065 18.33
v -3.11513 -28.065 24.9661
v -2.61036 -28.065 20.9215
v 6.67546 -28.065 24.2581
v 5.59407 -28.065 20.3282
v 15.4499 -28.065 19.8572
v 12.9469 -28.065 16.6403
v 21.8723 -28.065 12.4335
v 18.3288 -28.065 10.4194
v 24.9649 -28.065 3.11714
v 20.9203 -28.065 2.61239
v 24.2568 -28.065 -6.67353
v 20.3269 -28.065 -5.59204
v 16.6391 -28.065 -12.9449
v 16.6391 -19.864 -12.9449
v 10.4181 -28.065 -18.3267
v 10.4181 -19.864 -18.3267
v 2.61115 -28.065 -20.9183
v 2.61115 -19.864 -20.9183
v 2.61115 -28.065 -20.9183
v 2.61115 -19.864 -20.9183
v -5.59329 -28.065 -20.325
v -5.59329 -19.864 -20.325
v -12.9462 -28.065 -16.637
v -12.9462 -19.864 -16.637
v -18.328 -28.065 -10.4161
v -18.328 -19.864 -10.4161
v -20.9195 -28.065 -2.60914
v -20.9195 -19.864 -2.60915
v -20.3262 -28.065 5.59529
v -20.3262 -19.864 5.59529
v -16.6384 -28.065 12.9481
v -16.6384 -19.864 12.9481
v -10.4173 -28.065 18.33
v -10.4173 -19.864 18.33
v -2.61036 -28.065 20.9215
v -2.61036 -19.864 20.9215
v 5.59407 -28.065 20.3282
v 5.59407 -19.864 20.3282
v 12.9469 -28.065 16.6403
v 12.9469 -19.864 16.6403
v 18.3288 -28.065 10.4194
v 18.3288 -19.864 10.4194
v 20.9203 -28.065 2.61239
v 20.9203 -19.864 2.61237
v 20.3269 -28.065 -5.59204
v 20.3269 -19.864 -5.59204
v 20.9203 -19.864 2.61237
v 0.000342 -19.864 0.001625
v 20.3269 -19.864 -5.59204
v -20.3262 -19.864 5.59529
v -20.9195 -19.864 -2.60915
v -18.328 -19.864 -10.4161
v -12.9462 -19.864 -16.637
v -5.59329 -19.864 -20.325
v 2.61115 -19.864 -20.9183
v 10.4181 -19.864 -18.3267
v 16.6391 -19.864 -12.9449
v 18.3288 -19.864 10.4194
v 12.9469 -19.864 16.6403
v 5.59407 -19.864 20.3282
v -2.61036 -19.864 20.9215
v -10.4173 -19.864 18.33
v -16.6384 -19.864 12.9481
vt 0.901168 0.38355
vt 0.867335 0.385788
vt 0.881816 0.412513
vt 0.881816 0.412513
vt 0.867335 0.385788
vt 0.867335 0.422189
vt 0.500115 0.609945
vt 0.561809 0.609945
vt 0.500115 0.553858
vt 0.561809 0.553858
vt 0.43842 0.609945
vt 0.43842 0.553858
vt 0.376736 0.609945
vt 0.376736 0.553858
vt 0.315085 0.609945
vt 0.315085 0.553858
vt 0.253519 0.609945
vt 0.253519 0.553858
vt 0.192199 0.609945
vt 0.192199 0.553858
vt 0.131223 0.609945
vt 0.131223 0.553858
vt 0.070987 0.609945
vt 0.070987 0.553858
vt 0.012207 0.609945
vt 0.012207 0.553858
vt 0.929267 0.609945
vt 0.987793 0.609945
vt 0.929267 0.553858
vt 0.987793 0.553858
vt 0.869048 0.609945
vt 0.869048 0.553858
vt 0.808001 0.609945
vt 0.808001 0.553858
vt 0.746589 0.609945
vt 0.746589 0.553858
vt 0.685129 0.609945
vt 0.685129 0.553858
vt 0.623488 0.609945
vt 0.623488 0.553858
vt 0.298814 0.069461
vt 0.252279 0.069461
vt 0.298814 0.090991
vt 0.252279 0.090991
vt 0.205213 0.069461
vt 0.205213 0.090991
vt 0.962583 0.069461
vt 0.91194 0.069461
vt 0.962583 0.090991
vt 0.91194 0.090991
vt 0.864377 0.069461
vt 0.864377 0.090991
vt 0.81715 0.069461
vt 0.81715 0.090991
vt 0.769942 0.069461
vt 0.769942 0.090991
vt 0.722715 0.069461
vt 0.722715 0.090991
vt 0.675478 0.069461
vt 0.675478 0.090991
vt 0.628242 0.069461
vt 0.628242 0.090991
vt 0.581023 0.069461
vt 0.581023 0.090991
vt 0.533834 0.069461
vt 0.533834 0.090991
vt 0.486688 0.069461
vt 0.486688 0.090991
vt 0.439597 0.069461
vt 0.439597 0.090991
vt 0.392575 0.069461
vt 0.392575 0.090991
vt 0.345637 0.069461
vt 0.345637 0.090991
vt 0.847579 0.24356
vt 0.891308 0.24356
vt 0.847579 0.199962
vt 0.891308 0.199962
vt 0.935038 0.24356
vt 0.935038 0.199962
vt 0.235362 0.24356
vt 0.279092 0.24356
vt 0.235362 0.199962
vt 0.279092 0.199962
vt 0.322822 0.24356
vt 0.322822 0.199962
vt 0.366551 0.24356
vt 0.366551 0.199962
vt 0.410281 0.24356
vt 0.410281 0.199962
vt 0.454011 0.24356
vt 0.454011 0.199962
vt 0.497741 0.24356
vt 0.497741 0.199962
vt 0.54147 0.24356
vt 0.54147 0.199962
vt 0.5852 0.24356
vt 0.5852 0.199962
vt 0.62893 0.24356
vt 0.62893 0.199962
vt 0.67266 0.24356
vt 0.67266 0.199962
vt 0.716389 0.24356
vt 0.716389 0.199962
vt 0.760119 0.24356
vt 0.760119 0.199962
vt 0.803849 0.24356
vt 0.803849 0.199962
vt 0.808958 0.521387
vt 0.848155 0.521387
vt 0.808958 0.478473
vt 0.848155 0.478473
vt 0.888433 0.521387
vt 0.888433 0.478473
vt 0.927511 0.521387
vt 0.927511 0.478473
vt 0.334622 0.521387
vt 0.334622 0.478473
vt 0.295544 0.521387
vt 0.295544 0.478473
vt 0.3749 0.521387
vt 0.3749 0.478473
vt 0.414097 0.521387
vt 0.414097 0.478473
vt 0.453425 0.521387
vt 0.453425 0.478473
vt 0.492758 0.521387
vt 0.492758 0.478473
vt 0.531987 0.521387
vt 0.531987 0.478473
vt 0.572343 0.521387
vt 0.572343 0.478473
vt 0.611528 0.521387
vt 0.611528 0.478473
vt 0.650713 0.521387
vt 0.650713 0.478473
vt 0.691068 0.521387
vt 0.691068 0.478473
vt 0.730297 0.521387
vt 0.730297 0.478473
vt 0.769631 0.521387
vt 0.769631 0.478473
vt 0.810522 0.27652
vt 0.796041 0.286196
vt 0.810522 0.312921
vt 0.776689 0.315158
vt 0.808958 0.454103
vt 0.848155 0.454103
vt 0.145139 0.082432
vt 0.136912 0.059065
vt 0.100852 0.082427
vt 0.100855 0.059061
vt 0.356114 0.454103
vt 0.3749 0.454103
vt 0.414097 0.454103
vt 0.453425 0.454103
vt 0.492758 0.454103
vt 0.531987 0.454103
vt 0.056551 0.197094
vt 0.064778 0.22046
vt 0.100839 0.197099
vt 0.100836 0.220465
vt 0.67216 0.454103
vt 0.691068 0.454103
vt 0.730297 0.454103
vt 0.769631 0.454103
vt 0.550896 0.454103
vt 0.145126 0.197104
vt 0.136894 0.220469
vt 0.056565 0.082421
vt 0.064797 0.059057
vt 0.866941 0.454103
vt 0.056555 0.168426
vt 0.100842 0.168431
vt 0.557777 0.337919
vt 0.56621 0.353027
vt 0.589207 0.337919
vt 0.589207 0.353027
vt 0.418227 0.370441
vt 0.381548 0.370441
vt 0.418227 0.386368
vt 0.381548 0.386368
vt 0.514736 0.403776
vt 0.506223 0.388686
vt 0.483234 0.403776
vt 0.483234 0.388686
vt 0.344868 0.358815
vt 0.381548 0.358815
vt 0.344868 0.342889
vt 0.381548 0.342889
vt 0.418227 0.358815
vt 0.418227 0.342889
vt 0.556636 0.404018
vt 0.588063 0.404018
vt 0.565066 0.38891
vt 0.588063 0.38891
vt 0.344868 0.370441
vt 0.344868 0.386368
vt 0.5147 0.338414
vt 0.483273 0.338414
vt 0.50627 0.353523
vt 0.483273 0.353523
vt 0.649388 0.420869
vt 0.649392 0.384469
vt 0.641749 0.405404
vt 0.641752 0.376736
vt 0.704957 0.375914
vt 0.697317 0.383648
vt 0.70496 0.404582
vt 0.697322 0.420048
vt 0.145129 0.168436
vt 0.641758 0.319399
vt 0.6494 0.311668
vt 0.641761 0.290731
vt 0.649404 0.275267
vt 0.100849 0.111095
vt 0.145136 0.1111
vt 0.056561 0.11109
vt 0.697302 0.274445
vt 0.697307 0.310846
vt 0.704945 0.289909
vt 0.704949 0.318578
vt 0.641755 0.348067
vt 0.649396 0.348068
vt 0.100845 0.139763
vt 0.145132 0.139768
vt 0.056558 0.139758
vt 0.697312 0.347247
vt 0.704953 0.347246
vt 0.867335 0.276586
vt 0.867335 0.312986
vt 0.881816 0.286262
vt 0.901168 0.315224
vt 0.867335 0.349387
vt 0.907964 0.349387
vt 0.901168 0.38355
vt 0.776689 0.383485
vt 0.796041 0.412447
vt 0.810522 0.385722
vt 0.810522 0.422123
vt 0.769894 0.349321
vt 0.810522 0.349321
vt 0.869048 0.931681
vt 0.929267 0.931681
vt 0.987793 0.931681
vt 0.012207 0.931681
vt 0.070987 0.931681
vt 0.131223 0.931681
vt 0.192199 0.931681
vt 0.253519 0.931681
vt 0.315085 0.931681
vt 0.376736 0.931681
vt 0.43842 0.931681
vt 0.500115 0.931681
vt 0.561809 0.931681
vt 0.623488 0.931681
vt 0.685129 0.931681
vt 0.746589 0.931681
vt 0.808001 0.931681
vt 0.500115 0.987793
vt 0.561809 0.987793
vt 0.43842 0.987793
vt 0.376736 0.987793
vt 0.315085 0.987793
vt 0.253519 0.987793
vt 0.192199 0.987793
vt 0.131223 0.987793
vt 0.070987 0.987793
vt 0.012207 0.987793
vt 0.929267 0.987793
vt 0.987793 0.987793
vt 0.869048 0.987793
vt 0.808001 0.987793
vt 0.746589 0.987793
vt 0.685129 0.987793
vt 0.623488 0.987793
vt 0.864535 0.024267
vt 0.864535 0.045577
vt 0.9138 0.024267
vt 0.9138 0.045577
vt 0.963728 0.024267
vt 0.963728 0.045577
vt 0.198491 0.024267
vt 0.198491 0.045577
vt 0.24852 0.024267
vt 0.24852 0.045577
vt 0.297865 0.024267
vt 0.297865 0.045577
vt 0.345557 0.024267
vt 0.345557 0.045577
vt 0.392753 0.024267
vt 0.392753 0.045577
vt 0.439669 0.024267
vt 0.439669 0.045577
vt 0.486466 0.024267
vt 0.486466 0.045577
vt 0.533272 0.024267
vt 0.533272 0.045577
vt 0.580839 0.024267
vt 0.580839 0.045577
vt 0.628418 0.024267
vt 0.628418 0.045577
vt 0.675447 0.024267
vt 0.675447 0.045577
vt 0.722443 0.024267
vt 0.722443 0.045577
vt 0.769581 0.024267
vt 0.769581 0.045577
vt 0.816821 0.024267
vt 0.816821 0.045577
vt 0.84531 0.121059
vt 0.84531 0.164657
vt 0.88904 0.121059
vt 0.88904 0.164657
vt 0.932769 0.121059
vt 0.932769 0.164657
vt 0.233094 0.121059
vt 0.233094 0.164657
vt 0.276823 0.121059
vt 0.276823 0.164657
vt 0.320553 0.121059
vt 0.320553 0.164657
vt 0.364283 0.121059
vt 0.364283 0.164657
vt 0.408013 0.121059
vt 0.408013 0.164657
vt 0.451742 0.121059
vt 0.451742 0.164657
vt 0.495472 0.121059
vt 0.495472 0.164657
vt 0.539202 0.121059
vt 0.539202 0.164657
vt 0.582932 0.121059
vt 0.582932 0.164657
vt 0.626661 0.121059
vt 0.626661 0.164657
vt 0.670391 0.121059
vt 0.670391 0.164657
vt 0.714121 0.121059
vt 0.714121 0.164657
vt 0.75785 0.121059
vt 0.75785 0.164657
vt 0.80158 0.121059
vt 0.80158 0.164657
vt 0.253158 0.354104
vt 0.149614 0.396993
vt 0.261689 0.396993
vt 0.037538 0.396993
vt 0.046069 0.439882
vt 0.070364 0.476242
vt 0.106724 0.500537
vt 0.149614 0.509068
vt 0.192504 0.500537
vt 0.228863 0.476242
vt 0.253158 0.439882
vt 0.228863 0.317743
vt 0.192503 0.293449
vt 0.149614 0.284917
vt 0.106724 0.293449
vt 0.070364 0.317743
vt 0.046069 0.354104
vn -1.8e-05 1 -7e-06
vn -1.8e-05 1 -7e-06
vn -1.8e-05 1 -7e-06
vn -2e-06 1 0
vn -2e-06 1 0
vn -3e-06 1 0
vn -0.122469 0.072443 0.989825
vn 0.265643 0.072444 0.961346
vn -0.096052 0.524231 0.846142
vn 0.235064 0.524232 0.81849
vn -0.491936 0.072443 0.867612
vn -0.412546 0.52423 0.744975
vn -0.786511 0.072442 0.613313
vn -0.666232 0.52423 0.530393
vn -0.961346 0.072442 0.265643
vn -0.818491 0.52423 0.235064
vn -0.989825 0.072442 -0.12247
vn -0.846143 0.524229 -0.096053
vn -0.867612 0.072442 -0.491937
vn -0.744976 0.52423 -0.412545
vn -0.613313 0.072442 -0.786511
vn -0.530394 0.52423 -0.666232
vn -0.265643 0.072443 -0.961346
vn -0.235065 0.52423 -0.818491
vn 0.122469 0.072443 -0.989825
vn 0.096052 0.52423 -0.846142
vn 0.491936 0.072444 -0.867612
vn 0.122469 0.072443 -0.989825
vn 0.412545 0.52423 -0.744976
vn 0.096052 0.52423 -0.846142
vn 0.78651 0.072444 -0.613313
vn 0.666231 0.524231 -0.530394
vn 0.961346 0.072444 -0.265643
vn 0.81849 0.524232 -0.235064
vn 0.989825 0.072444 0.122469
vn 0.846142 0.524231 0.096052
vn 0.867612 0.072444 0.491936
vn 0.744975 0.524232 0.412545
vn 0.613313 0.072444 0.78651
vn 0.530393 0.524232 0.666232
vn 0 1 1e-06
vn -2e-06 1 1e-06
vn -1e-06 1 1e-06
vn -2e-06 1 1e-06
vn 0 1 -2e-06
vn 1e-06 1 -1e-06
vn 0 1 -2e-06
vn -1e-06 1 -1e-06
vn 1e-06 1 -1e-06
vn -2e-06 1 -0
vn -1e-06 1 -0
vn -1e-06 1 0
vn -0 1 -1e-06
vn -0 1 -0
vn 2e-06 1 0
vn 2e-06 1 1e-06
vn 0 1 0
vn -1e-06 1 0
vn -2e-06 1 1e-06
vn -2e-06 1 0
vn -2e-06 1 3e-06
vn -2e-06 1 1e-06
vn -1e-06 1 1e-06
vn -1e-06 1 -1e-06
vn -1e-06 1 1e-06
vn -1e-06 1 1e-06
vn -1e-06 1 2e-06
vn -1e-06 1 2e-06
vn -1e-06 1 -1e-06
vn -1e-06 1 -1e-06
vn 0 1 1e-06
vn 0 1 2e-06
vn -0 1 -1e-06
vn -0 1 -1e-06
vn -0.78923 -1e-06 0.614097
vn -0.494149 -1e-06 0.869377
vn -0.78923 -1e-06 0.614097
vn -0.494149 -1e-06 0.869377
vn -0.123838 0 0.992302
vn -0.123838 0 0.992302
vn -0.123838 0 0.992302
vn 0.265326 1e-06 0.964159
vn -0.123838 0 0.992302
vn 0.265327 1e-06 0.964158
vn 0.614097 1e-06 0.789231
vn 0.614097 1e-06 0.78923
vn 0.869377 1e-06 0.494149
vn 0.869377 1e-06 0.494149
vn 0.992302 1e-06 0.123838
vn 0.992302 1e-06 0.123838
vn 0.964159 1e-06 -0.265327
vn 0.964159 1e-06 -0.265327
vn 0.789231 1e-06 -0.614097
vn 0.78923 1e-06 -0.614097
vn 0.494149 1e-06 -0.869377
vn 0.494149 2e-06 -0.869377
vn 0.123837 2e-06 -0.992303
vn 0.123838 2e-06 -0.992302
vn -0.265327 0 -0.964158
vn -0.265327 0 -0.964159
vn -0.614097 0 -0.78923
vn -0.614098 -1e-06 -0.78923
vn -0.869377 -1e-06 -0.494149
vn -0.869377 -1e-06 -0.494149
vn -0.992303 -1e-06 -0.123837
vn -0.992303 -1e-06 -0.123837
vn -0.964159 -1e-06 0.265327
vn -0.964159 -1e-06 0.265327
vn 0.738037 0.342037 -0.581646
vn 0.459269 0.342036 -0.819807
vn 0.737786 0.342044 -0.58196
vn 0.464874 0.342051 -0.816635
vn 0.110584 0.342035 -0.933158
vn 0.09024 0.380932 -0.920189
vn -0.242632 0.40467 -0.881687
vn -0.232588 0.481205 -0.845189
vn -0.577059 0.342038 -0.741628
vn -0.553765 0.379809 -0.741005
vn -0.242632 0.40467 -0.881687
vn -0.232588 0.481205 -0.845189
vn -0.819807 0.342034 -0.45927
vn -0.822695 0.342026 -0.454083
vn -0.933158 0.342033 -0.110585
vn -0.933202 0.342045 -0.11018
vn -0.904441 0.34204 0.25494
vn -0.904331 0.342043 0.255326
vn -0.738038 0.342036 0.581646
vn -0.737787 0.342042 0.58196
vn -0.45927 0.342035 0.819807
vn -0.464874 0.342049 0.816636
vn -0.110585 0.342034 0.933158
vn -0.090242 0.380931 0.920189
vn 0.242631 0.404672 0.881686
vn 0.232588 0.481207 0.845188
vn 0.577058 0.342041 0.741628
vn 0.553763 0.379811 0.741006
vn 0.819806 0.342036 0.45927
vn 0.822695 0.342027 0.454083
vn 0.933158 0.342034 0.110584
vn 0.933201 0.342047 0.110179
vn 0.904441 0.34204 -0.254941
vn 0.90433 0.342045 -0.255327
vn 0 1 2e-06
vn 0 1 1e-06
vn -0 1 -2e-06
vn -1e-06 1 -0
vn 0.738303 0.342069 -0.58129
vn 0.5175 0.341409 -0.784623
vn -0.077322 0.956596 -0.280971
vn -0.184515 0.718605 -0.670493
vn -0.083075 0.94972 -0.301877
vn -0.184514 0.718606 -0.670493
vn -0.712236 0.336248 -0.616163
vn -0.848156 0.341304 -0.405146
vn -0.933094 0.342065 -0.111025
vn -0.90456 0.342054 0.254501
vn -0.738304 0.342067 0.58129
vn -0.517501 0.341407 0.784624
vn 0.07732 0.956596 0.280973
vn 0.184512 0.718604 0.670495
vn 0.083073 0.94972 0.301878
vn 0.184513 0.718605 0.670494
vn 0.712232 0.336249 0.616167
vn 0.848155 0.341305 0.405146
vn 0.933093 0.342068 0.111025
vn 0.904558 0.342058 -0.254502
vn -0.296705 0.336247 0.893814
vn 0.07732 0.956596 0.280972
vn 0.184513 0.718604 0.670495
vn -0.077322 0.956597 -0.28097
vn -0.184513 0.718606 -0.670492
vn 0.296704 0.336249 -0.893814
vn 0 1 1e-06
vn -1e-06 1 -0
vn -0.856097 0.489699 0.165205
vn -0.854903 0.489615 0.171516
vn -0.844616 0.502255 0.185376
vn -0.818336 0.537006 0.20482
vn -3e-06 1 -2e-06
vn -2e-06 1 -5e-06
vn -3e-06 1 -3e-06
vn -2e-06 1 -6e-06
vn 0.856096 0.489699 -0.165209
vn 0.854903 0.489615 -0.171518
vn 0.844615 0.502256 -0.185376
vn 0.818335 0.537008 -0.204819
vn -1e-06 1 -0
vn -1e-06 1 0
vn -1e-06 1 -0
vn -1e-06 1 1e-06
vn -3e-06 1 0
vn -2e-06 1 0
vn -0.820086 0.489699 0.296063
vn -0.820542 0.502254 0.272857
vn -0.82229 0.489615 0.290029
vn -0.807911 0.537004 0.242706
vn -1e-06 1 -5e-06
vn -1e-06 1 -5e-06
vn 0.820082 0.489703 -0.296068
vn 0.82054 0.502258 -0.272859
vn 0.822286 0.489619 -0.290033
vn 0.80791 0.537006 -0.242706
vn -0.820542 0.502254 0.272857
vn -0.79204 0.570233 0.217962
vn -0.807911 0.537004 0.242706
vn -0.792038 0.570236 0.217961
vn 0.792039 0.570235 -0.217961
vn 0.792038 0.570236 -0.217961
vn 0.818335 0.537008 -0.204819
vn 0.844615 0.502256 -0.185376
vn -1e-06 1 -1e-06
vn -0.792038 0.570237 0.217959
vn -0.792037 0.570237 0.217961
vn -0.818336 0.537006 0.20482
vn -0.844616 0.502255 0.185376
vn -1e-06 1 1e-06
vn -2e-06 1 1e-06
vn -1e-06 1 -1e-06
vn 0.82054 0.502258 -0.272859
vn 0.79204 0.570232 -0.217962
vn 0.80791 0.537006 -0.242706
vn 0.79204 0.570233 -0.217962
vn -0.792037 0.570238 0.21796
vn -0.792037 0.570238 0.21796
vn -1e-06 1 -0
vn -2e-06 1 -0
vn -0 1 -1e-06
vn 0.792037 0.570237 -0.217961
vn 0.792036 0.570238 -0.217961
vn 0 1 0
vn -1e-06 1 -0
vn -1e-06 1 2e-06
vn -1e-06 1 -0
vn -1e-06 1 -1e-06
vn -0 1 -1e-06
vn -2e-06 1 -0
vn -2e-06 1 0
vn -2e-06 1 1e-06
vn -2e-06 1 0
vn -3e-06 1 2e-06
vn -2e-06 1 1e-06
vn -2e-06 1 -0
vn 0.786511 -0.072442 -0.613313
vn 0.491936 -0.072443 -0.867612
vn 0.12247 -0.072443 -0.989825
vn 0.12247 -0.072443 -0.989825
vn -0.265642 -0.072444 -0.961346
vn -0.613313 -0.072444 -0.786511
vn -0.867612 -0.072444 -0.491936
vn -0.989825 -0.072444 -0.122469
vn -0.961346 -0.072444 0.265643
vn -0.78651 -0.072444 0.613313
vn -0.491936 -0.072444 0.867612
vn -0.122469 -0.072443 0.989825
vn 0.265643 -0.072443 0.961346
vn 0.613313 -0.072443 0.786511
vn 0.867612 -0.072442 0.491936
vn 0.989825 -0.072442 0.122469
vn 0.961346 -0.072442 -0.265643
vn -0.096052 -0.524232 0.846141
vn 0.235065 -0.524233 0.818489
vn -0.412544 -0.524233 0.744975
vn -0.66623 -0.524234 0.530393
vn -0.818489 -0.524234 0.235064
vn -0.84614 -0.524234 -0.096052
vn -0.744974 -0.524234 -0.412545
vn -0.530392 -0.524234 -0.666231
vn -0.235062 -0.524234 -0.818489
vn 0.096052 -0.524234 -0.84614
vn 0.412545 -0.524233 -0.744974
vn 0.096052 -0.524234 -0.84614
vn 0.666232 -0.524232 -0.530392
vn 0.81849 -0.524232 -0.235064
vn 0.846142 -0.524231 0.096052
vn 0.744975 -0.524232 0.412545
vn 0.530393 -0.524232 0.666231
vn 0 -1 1e-06
vn 1e-06 -1 1e-06
vn 1e-06 -1 0
vn 1e-06 -1 0
vn 2e-06 -1 -1e-06
vn 2e-06 -1 -1e-06
vn 2e-06 -1 -1e-06
vn 2e-06 -1 -1e-06
vn 1e-06 -1 0
vn 1e-06 -1 0
vn 1e-06 -1 -1e-06
vn 1e-06 -1 0
vn 3e-06 -1 1e-06
vn 3e-06 -1 2e-06
vn 2e-06 -1 0
vn 2e-06 -1 0
vn 2e-06 -1 0
vn 2e-06 -1 0
vn 1e-06 -1 1e-06
vn 1e-06 -1 1e-06
vn 1e-06 -1 1e-06
vn 1e-06 -1 1e-06
vn 0 -1 2e-06
vn 0 -1 2e-06
vn 1e-06 -1 0
vn 1e-06 -1 0
vn 1e-06 -1 1e-06
vn 1e-06 -1 1e-06
vn 1e-06 -1 0
vn 0 -1 -1e-06
vn 0 -1 0
vn 0 -1 0
vn 0 -1 0
vn 0 -1 0
vn -0.78923 -1e-06 0.614098
vn -0.78923 -1e-06 0.614098
vn -0.494149 0 0.869377
vn -0.494149 0 0.869377
vn -0.123837 0 0.992303
vn -0.123837 0 0.992303
vn -0.123837 0 0.992303
vn -0.123837 0 0.992303
vn 0.265327 1e-06 0.964159
vn 0.265326 1e-06 0.964159
vn 0.614098 1e-06 0.78923
vn 0.614097 1e-06 0.78923
vn 0.869377 1e-06 0.494149
vn 0.869377 1e-06 0.494149
vn 0.992302 2e-06 0.123838
vn 0.992302 2e-06 0.123838
vn 0.964159 1e-06 -0.265327
vn 0.964159 1e-06 -0.265327
vn 0.78923 1e-06 -0.614098
vn 0.78923 1e-06 -0.614097
vn 0.494149 1e-06 -0.869377
vn 0.494149 1e-06 -0.869377
vn 0.123838 -1e-06 -0.992302
vn 0.123838 -1e-06 -0.992302
vn -0.265327 -1e-06 -0.964158
vn -0.265327 -1e-06 -0.964159
vn -0.614098 -1e-06 -0.78923
vn -0.614097 -1e-06 -0.78923
vn -0.869377 -1e-06 -0.494149
vn -0.869377 -1e-06 -0.494149
vn -0.992302 -2e-06 -0.123838
vn -0.992302 -2e-06 -0.123838
vn -0.964158 -2e-06 0.265327
vn -0.964159 -1e-06 0.265326
vn 1e-06 -1 0
vn 1e-06 -1 0
vn 1e-06 -1 0
vn 1e-06 -1 0
vn 1e-06 -1 0
vn 1e-06 -1 0
vn 1e-06 -1 1e-06
vn 1e-06 -1 0
vn 1e-06 -1 0
vn 1e-06 -1 0
vn 1e-06 -1 0
vn 1e-06 -1 0
vn 1e-06 -1 0
vn 1e-06 -1 0
vn 1e-06 -1 0
vn 1e-06 -1 0
vn 1e-06 -1 0

g cifibarrel:barrel1_geo_barrel1_0_1_0_0_0_0
usemtl initialShadingGroup
f 1/1/1 2/2/2 3/3/3
f 4/4/4 5/5/5 6/6/6
f 7/7/7 8/8/8 9/9/9
f 9/9/9 8/8/8 10/10/10
f 11/11/11 7/7/7 12/12/12
f 12/12/12 7/7/7 9/9/9
f 13/13/13 11/11/11 14/14/14
f 14/14/14 11/11/11 12/12/12
f 15/15/15 13/13/13 16/16/16
f 16/16/16 13/13/13 14/14/14
f 17/17/17 15/15/15 18/18/18
f 18/18/18 15/15/15 16/16/16
f 19/19/19 17/17/17 20/20/20
f 20/20/20 17/17/17 18/18/18
f 21/21/21 19/19/19 22/22/22
f 22/22/22 19/19/19 20/20/20
f 23/23/23 21/21/21 24/24/24
f 24/24/24 21/21/21 22/22/22
f 25/25/25 23/23/23 26/26/26
f 26/26/26 23/23/23 24/24/24
f 27/27/27 28/28/28 29/29/29
f 29/29/29 28/28/28 30/30/30
f 31/31/31 27/27/27 32/32/32
f 32/32/32 27/27/27 29/29/29
f 33/33/33 31/31/31 34/34/34
f 34/34/34 31/31/31 32/32/32
f 35/35/35 33/33/33 36/36/36
f 36/36/36 33/33/33 34/34/34
f 37/37/37 35/35/35 38/38/38
f 38/38/38 35/35/35 36/36/36
f 39/39/39 37/37/37 40/40/40
f 40/40/40 37/37/37 38/38/38
f 8/8/8 39/39/39 10/10/10
f 10/10/10 39/39/39 40/40/40
f 41/41/41 42/42/42 43/43/43
f 43/43/43 42/42/42 44/44/44
f 42/42/42 45/45/45 44/44/44
f 44/44/44 45/45/45 46/46/46
f 47/47/47 48/48/48 49/49/49
f 49/49/49 48/48/48 50/50/50
f 48/48/48 51/51/51 50/50/50
f 50/50/50 51/51/51 52/52/52
f 51/51/51 53/53/53 52/52/52
f 52/52/52 53/53/53 54/54/54
f 53/53/53 55/55/55 54/54/54
f 54/54/54 55/55/55 56/56/56
f 55/55/55 57/57/57 56/56/56
f 56/56/56 57/57/57 58/58/58
f 57/57/57 59/59/59 58/58/58
f 58/58/58 59/59/59 60/60/60
f 59/59/59 61/61/61 60/60/60
f 60/60/60 61/61/61 62/62/62
f 61/61/61 63/63/63 62/62/62
f 62/62/62 63/63/63 64/64/64
f 63/63/63 65/65/65 64/64/64
f 64/64/64 65/65/65 66/66/66
f 65/65/65 67/67/67 66/66/66
f 66/66/66 67/67/67 68/68/68
f 67/67/67 69/69/69 68/68/68
f 68/68/68 69/69/69 70/70/70
f 69/69/69 71/71/71 70/70/70
f 70/70/70 71/71/71 72/72/72
f 71/71/71 73/73/73 72/72/72
f 72/72/72 73/73/73 74/74/74
f 73/73/73 41/41/41 74/74/74
f 74/74/74 41/41/41 43/43/43
f 75/75/75 76/76/76 77/77/77
f 77/77/77 76/76/76 78/78/78
f 76/76/76 79/79/79 78/78/78
f 78/78/78 79/79/79 80/80/80
f 81/81/81 82/82/82 83/83/83
f 83/83/83 82/82/82 84/84/84
f 82/82/82 85/85/85 84/84/84
f 84/84/84 85/85/85 86/86/86
f 85/85/85 87/87/87 86/86/86
f 86/86/86 87/87/87 88/88/88
f 87/87/87 89/89/89 88/88/88
f 88/88/88 89/89/89 90/90/90
f 89/89/89 91/91/91 90/90/90
f 90/90/90 91/91/91 92/92/92
f 91/91/91 93/93/93 92/92/92
f 92/92/92 93/93/93 94/94/94
f 93/93/93 95/95/95 94/94/94
f 94/94/94 95/95/95 96/96/96
f 95/95/95 97/97/97 96/96/96
f 96/96/96 97/97/97 98/98/98
f 97/97/97 99/99/99 98/98/98
f 98/98/98 99/99/99 100/100/100
f 99/99/99 101/101/101 100/100/100
f 100/100/100 101/101/101 102/102/102
f 101/101/101 103/103/103 102/102/102
f 102/102/102 103/103/103 104/104/104
f 103/103/103 105/105/105 104/104/104
f 104/104/104 105/105/105 106/106/106
f 105/105/105 107/107/107 106/106/106
f 106/106/106 107/107/107 108/108/108
f 107/107/107 75/75/75 108/108/108
f 108/108/108 75/75/75 77/77/77
f 109/109/109 110/110/110 111/111/111
f 111/111/111 110/110/110 112/112/112
f 110/110/110 113/113/113 112/112/112
f 112/112/112 113/113/113 114/114/114
f 113/113/113 115/115/115 114/114/114
f 114/114/114 115/115/115 116/116/116
f 117/117/117 118/118/118 119/119/119
f 119/119/119 118/118/118 120/120/120
f 117/117/117 121/121/121 118/118/118
f 118/118/118 121/121/121 122/122/122
f 121/121/121 123/123/123 122/122/122
f 122/122/122 123/123/123 124/124/124
f 123/123/123 125/125/125 124/124/124
f 124/124/124 125/125/125 126/126/126
f 125/125/125 127/127/127 126/126/126
f 126/126/126 127/127/127 128/128/128
f 127/127/127 129/129/129 128/128/128
f 128/128/128 129/129/129 130/130/130
f 129/129/129 131/131/131 130/130/130
f 130/130/130 131/131/131 132/132/132
f 131/131/131 133/133/133 132/132/132
f 132/132/132 133/133/133 134/134/134
f 135/135/135 136/136/136 133/133/133
f 133/133/133 136/136/136 134/134/134
f 135/135/135 137/137/137 136/136/136
f 136/136/136 137/137/137 138/138/138
f 137/137/137 139/139/139 138/138/138
f 138/138/138 139/139/139 140/140/140
f 139/139/139 141/141/141 140/140/140
f 140/140/140 141/141/141 142/142/142
f 141/141/141 109/109/109 142/142/142
f 142/142/142 109/109/109 111/111/111
f 143/143/143 144/144/144 145/145/145
f 145/145/145 144/144/144 146/146/146
f 111/111/111 112/112/112 147/147/147
f 147/147/147 112/112/112 148/148/148
f 149/149/149 150/150/150 151/151/151
f 151/151/151 150/150/150 152/152/152
f 118/118/118 122/122/122 153/153/153
f 153/153/153 122/122/122 154/154/154
f 122/122/122 124/124/124 154/154/154
f 154/154/154 124/124/124 155/155/155
f 124/124/124 126/126/126 155/155/155
f 155/155/155 126/126/126 156/156/156
f 126/126/126 128/128/128 156/156/156
f 156/156/156 128/128/128 157/157/157
f 128/128/128 130/130/130 157/157/157
f 157/157/157 130/130/130 158/158/158
f 159/159/159 160/160/160 161/161/161
f 161/161/161 160/160/160 162/162/162
f 136/136/136 138/138/138 163/163/163
f 163/163/163 138/138/138 164/164/164
f 138/138/138 140/140/140 164/164/164
f 164/164/164 140/140/140 165/165/165
f 140/140/140 142/142/142 165/165/165
f 165/165/165 142/142/142 166/166/166
f 142/142/142 111/111/111 166/166/166
f 166/166/166 111/111/111 147/147/147
f 158/158/158 130/130/130 167/167/167
f 167/167/167 130/130/130 132/132/132
f 168/168/168 161/161/161 169/169/169
f 169/169/169 161/161/161 162/162/162
f 170/170/170 151/151/151 171/171/171
f 171/171/171 151/151/151 152/152/152
f 148/148/148 112/112/112 172/172/172
f 172/172/172 112/112/112 114/114/114
f 173/173/173 159/159/159 174/174/174
f 174/174/174 159/159/159 161/161/161
f 175/175/175 176/176/176 177/177/177
f 177/177/177 176/176/176 178/178/178
f 179/179/179 180/180/180 181/181/181
f 181/181/181 180/180/180 182/182/182
f 183/183/183 184/184/184 185/185/185
f 185/185/185 184/184/184 186/186/186
f 187/187/187 188/188/188 189/189/189
f 189/189/189 188/188/188 190/190/190
f 191/191/191 192/192/192 188/188/188
f 188/188/188 192/192/192 190/190/190
f 193/193/193 194/194/194 195/195/195
f 195/195/195 194/194/194 196/196/196
f 197/197/197 198/198/198 180/180/180
f 180/180/180 198/198/198 182/182/182
f 199/199/199 200/200/200 201/201/201
f 201/201/201 200/200/200 202/202/202
f 203/203/203 204/204/204 205/205/205
f 205/205/205 204/204/204 206/206/206
f 207/207/207 208/208/208 209/209/209
f 209/209/209 208/208/208 210/210/210
f 168/168/168 211/211/211 161/161/161
f 161/161/161 211/211/211 174/174/174
f 212/212/212 213/213/213 214/214/214
f 214/214/214 213/213/213 215/215/215
f 216/216/216 217/217/217 151/151/151
f 151/151/151 217/217/217 149/149/149
f 170/170/170 218/218/218 151/151/151
f 151/151/151 218/218/218 216/216/216
f 219/219/219 220/220/220 221/221/221
f 221/221/221 220/220/220 222/222/222
f 223/223/223 224/224/224 212/212/212
f 212/212/212 224/224/224 213/213/213
f 225/225/225 226/226/226 216/216/216
f 216/216/216 226/226/226 217/217/217
f 218/218/218 227/227/227 216/216/216
f 216/216/216 227/227/227 225/225/225
f 220/220/220 228/228/228 222/222/222
f 222/222/222 228/228/228 229/229/229
f 204/204/204 224/224/224 206/206/206
f 206/206/206 224/224/224 223/223/223
f 174/174/174 211/211/211 225/225/225
f 225/225/225 211/211/211 226/226/226
f 227/227/227 173/173/173 225/225/225
f 225/225/225 173/173/173 174/174/174
f 229/229/229 228/228/228 207/207/207
f 207/207/207 228/228/228 208/208/208
f 230/230/230 231/231/231 232/232/232
f 232/232/232 231/231/231 233/233/233
f 231/231/231 234/234/234 233/233/233
f 233/233/233 234/234/234 235/235/235
f 235/235/235 234/234/234 236/236/236
f 236/236/236 234/234/234 5/5/5
f 237/237/237 238/238/238 239/239/239
f 239/239/239 238/238/238 240/240/240
f 241/241/241 237/237/237 242/242/242
f 242/242/242 237/237/237 239/239/239
f 145/145/145 146/146/146 242/242/242
f 242/242/242 146/146/146 241/241/241
f 31/31/31 243/243/243 27/27/27
f 27/27/27 243/243/243 244/244/244
f 27/27/27 244/244/244 28/28/28
f 28/28/28 244/244/244 245/245/245
f 25/25/25 246/246/246 23/23/23
f 23/23/23 246/246/246 247/247/247
f 23/23/23 247/247/247 21/21/21
f 21/21/21 247/247/247 248/248/248
f 21/21/21 248/248/248 19/19/19
f 19/19/19 248/248/248 249/249/249
f 19/19/19 249/249/249 17/17/17
f 17/17/17 249/249/249 250/250/250
f 17/17/17 250/250/250 15/15/15
f 15/15/15 250/250/250 251/251/251
f 15/15/15 251/251/251 13/13/13
f 13/13/13 251/251/251 252/252/252
f 13/13/13 252/252/252 11/11/11
f 11/11/11 252/252/252 253/253/253
f 11/11/11 253/253/253 7/7/7
f 7/7/7 253/253/253 254/254/254
f 7/7/7 254/254/254 8/8/8
f 8/8/8 254/254/254 255/255/255
f 8/8/8 255/255/255 39/39/39
f 39/39/39 255/255/255 256/256/256
f 39/39/39 256/256/256 37/37/37
f 37/37/37 256/256/256 257/257/257
f 37/37/37 257/257/257 35/35/35
f 35/35/35 257/257/257 258/258/258
f 35/35/35 258/258/258 33/33/33
f 33/33/33 258/258/258 259/259/259
f 33/33/33 259/259/259 31/31/31
f 31/31/31 259/259/259 243/243/243
f 254/254/254 260/260/260 255/255/255
f 255/255/255 260/260/260 261/261/261
f 253/253/253 262/262/262 254/254/254
f 254/254/254 262/262/262 260/260/260
f 252/252/252 263/263/263 253/253/253
f 253/253/253 263/263/263 262/262/262
f 251/251/251 264/264/264 252/252/252
f 252/252/252 264/264/264 263/263/263
f 250/250/250 265/265/265 251/251/251
f 251/251/251 265/265/265 264/264/264
f 249/249/249 266/266/266 250/250/250
f 250/250/250 266/266/266 265/265/265
f 248/248/248 267/267/267 249/249/249
f 249/249/249 267/267/267 266/266/266
f 247/247/247 268/268/268 248/248/248
f 248/248/248 268/268/268 267/267/267
f 246/246/246 269/269/269 247/247/247
f 247/247/247 269/269/269 268/268/268
f 244/244/244 270/270/270 245/245/245
f 245/245/245 270/270/270 271/271/271
f 243/243/243 272/272/272 244/244/244
f 244/244/244 272/272/272 270/270/270
f 259/259/259 273/273/273 243/243/243
f 243/243/243 273/273/273 272/272/272
f 258/258/258 274/274/274 259/259/259
f 259/259/259 274/274/274 273/273/273
f 257/257/257 275/275/275 258/258/258
f 258/258/258 275/275/275 274/274/274
f 256/256/256 276/276/276 257/257/257
f 257/257/257 276/276/276 275/275/275
f 255/255/255 261/261/261 256/256/256
f 256/256/256 261/261/261 276/276/276
f 277/277/277 278/278/278 279/279/279
f 279/279/279 278/278/278 280/280/280
f 279/279/279 280/280/280 281/281/281
f 281/281/281 280/280/280 282/282/282
f 283/283/283 284/284/284 285/285/285
f 285/285/285 284/284/284 286/286/286
f 285/285/285 286/286/286 287/287/287
f 287/287/287 286/286/286 288/288/288
f 287/287/287 288/288/288 289/289/289
f 289/289/289 288/288/288 290/290/290
f 289/289/289 290/290/290 291/291/291
f 291/291/291 290/290/290 292/292/292
f 291/291/291 292/292/292 293/293/293
f 293/293/293 292/292/292 294/294/294
f 293/293/293 294/294/294 295/295/295
f 295/295/295 294/294/294 296/296/296
f 295/295/295 296/296/296 297/297/297
f 297/297/297 296/296/296 298/298/298
f 297/297/297 298/298/298 299/299/299
f 299/299/299 298/298/298 300/300/300
f 299/299/299 300/300/300 301/301/301
f 301/301/301 300/300/300 302/302/302
f 301/301/301 302/302/302 303/303/303
f 303/303/303 302/302/302 304/304/304
f 303/303/303 304/304/304 305/305/305
f 305/305/305 304/304/304 306/306/306
f 305/305/305 306/306/306 307/307/307
f 307/307/307 306/306/306 308/308/308
f 307/307/307 308/308/308 309/309/309
f 309/309/309 308/308/308 310/310/310
f 309/309/309 310/310/310 277/277/277
f 277/277/277 310/310/310 278/278/278
f 311/311/311 312/312/312 313/313/313
f 313/313/313 312/312/312 314/314/314
f 313/313/313 314/314/314 315/315/315
f 315/315/315 314/314/314 316/316/316
f 317/317/317 318/318/318 319/319/319
f 319/319/319 318/318/318 320/320/320
f 319/319/319 320/320/320 321/321/321
f 321/321/321 320/320/320 322/322/322
f 321/321/321 322/322/322 323/323/323
f 323/323/323 322/322/322 324/324/324
f 323/323/323 324/324/324 325/325/325
f 325/325/325 324/324/324 326/326/326
f 325/325/325 326/326/326 327/327/327
f 327/327/327 326/326/326 328/328/328
f 327/327/327 328/328/328 329/329/329
f 329/329/329 328/328/328 330/330/330
f 329/329/329 330/330/330 331/331/331
f 331/331/331 330/330/330 332/332/332
f 331/331/331 332/332/332 333/333/333
f 333/333/333 332/332/332 334/334/334
f 333/333/333 334/334/334 335/335/335
f 335/335/335 334/334/334 336/336/336
f 335/335/335 336/336/336 337/337/337
f 337/337/337 336/336/336 338/338/338
f 337/337/337 338/338/338 339/339/339
f 339/339/339 338/338/338 340/340/340
f 339/339/339 340/340/340 341/341/341
f 341/341/341 340/340/340 342/342/342
f 341/341/341 342/342/342 343/343/343
f 343/343/343 342/342/342 344/344/344
f 343/343/343 344/344/344 311/311/311
f 311/311/311 344/344/344 312/312/312
f 345/345/345 346/346/346 347/347/347
f 348/348/348 349/349/349 346/346/346
f 346/346/346 349/349/349 350/350/350
f 346/346/346 350/350/350 351/351/351
f 346/346/346 351/351/351 352/352/352
f 346/346/346 352/352/352 353/353/353
f 346/346/346 353/353/353 354/354/354
f 346/346/346 354/354/354 355/355/355
f 346/346/346 355/355/355 347/347/347
f 356/356/356 346/346/346 345/345/345
f 357/357/357 346/346/346 356/356/356
f 358/358/358 346/346/346 357/357/357
f 359/359/359 346/346/346 358/358/358
f 360/360/360 346/346/346 359/359/359
f 361/361/361 346/346/346 360/360/360
f 348/348/348 346/346/346 361/361/361
