# Blender 5.0.1
# www.blender.org
mtllib lamp.mtl
o Plane
v 0.094285 -49.960247 -0.000000
v -4.000000 -41.960247 0.000000
v 4.000000 -41.960247 0.000000
vn -0.0000 -0.0000 1.0000
vt 1.000000 0.000000
vt 1.000000 1.000000
vt 0.000000 1.000000
s 0
usemtl tag_light
f 1/1/1 3/2/1 2/3/1
o mesh
v 0.000000 -36.856590 0.000006
v -21.823799 -38.336201 0.000006
v -18.896900 -37.426899 -10.904795
v -21.823799 -37.426899 0.000006
v -18.896900 -38.336201 -10.904795
v -18.896900 -38.336201 -10.904795
v -10.904800 -37.426899 -18.896896
v -18.896900 -37.426899 -10.904795
v -10.907200 -38.336201 -18.896893
v -10.907200 -38.336201 -18.896893
v 0.000000 -37.426899 -21.816696
v -10.904800 -37.426899 -18.896896
v 0.000000 -38.336201 -21.816692
v 0.000000 -38.336201 -21.816692
v 10.911900 -37.426899 -18.896896
v 0.000000 -37.426899 -21.816696
v 10.909500 -38.336201 -18.896893
v 10.909500 -38.336201 -18.896893
v 18.896900 -37.426899 -10.904795
v 10.911900 -37.426899 -18.896896
v 18.896900 -38.336201 -10.907194
v 18.896900 -38.336201 -10.907194
v 21.823799 -37.426899 0.000006
v 18.896900 -37.426899 -10.904795
v 21.823799 -38.336205 0.000006
v 21.823799 -38.336201 0.000006
v 18.896900 -37.426899 10.911905
v 21.823799 -37.426899 0.000006
v 18.896900 -38.333801 10.909506
v 18.896900 -38.333801 10.909506
v 10.904800 -37.426899 18.896904
v 18.896900 -37.426899 10.911905
v 10.907200 -38.333801 18.896908
v 10.907200 -38.333801 18.896908
v 0.000000 -37.419800 21.823803
v 10.904800 -37.426899 18.896904
v 0.000000 -38.329102 21.823807
v 0.000000 -38.329102 21.823807
v -10.911900 -37.426899 18.896904
v 0.000000 -37.419800 21.823803
v -10.909500 -38.333801 18.896908
v -10.909500 -38.333801 18.896908
v -18.896900 -37.426899 10.904806
v -10.911900 -37.426899 18.896904
v -18.896900 -38.333801 10.907206
v -18.896900 -38.333801 10.907206
v -21.823799 -37.426899 0.000006
v -18.896900 -37.426899 10.904806
v -21.823799 -38.336201 0.000006
v -1.372430 9.738420 -0.007172
v -2.401750 2.876270 0.035718
v -1.072210 2.876270 0.378825
v -1.372430 9.738420 -0.007172
v -2.058640 9.738420 -1.186602
v -2.401750 2.876270 0.035718
v -2.058640 9.738420 -1.186602
v -3.366730 2.876270 1.000710
v -2.401750 2.876270 0.035718
v -2.058640 9.738420 -1.186602
v -3.431070 9.738420 -1.186602
v -3.366730 2.876270 1.000710
v -3.431070 9.738420 -1.186602
v -3.023630 2.876270 2.330250
v -3.366730 2.876270 1.000710
v -3.431070 9.738420 -1.186602
v -4.117280 9.738420 -0.007172
v -3.023630 2.876270 2.330250
v -4.117280 9.738420 -0.007172
v -1.694090 2.876270 2.673350
v -3.023630 2.876270 2.330250
v -4.117280 9.738420 -0.007172
v -3.431070 9.738420 1.172258
v -1.694090 2.876270 2.673350
v -3.431070 9.738420 1.172258
v -0.729102 2.876270 1.708360
v -1.694090 2.876270 2.673350
v -3.431070 9.738420 1.172258
v -2.058640 9.738420 1.172258
v -0.729102 2.876270 1.708360
v -2.058640 9.738420 1.172258
v -1.072210 2.876270 0.378825
v -0.729102 2.876270 1.708360
v -2.058640 9.738420 1.172258
v -1.372430 9.738420 -0.007172
v -1.072210 2.876270 0.378825
v -1.072210 2.876270 0.378825
v -1.179430 -3.985870 2.051470
v 0.000000 -3.985870 1.365260
v -1.179430 -3.985870 2.051470
v -2.401750 2.876270 0.035718
v -1.179430 -3.985870 3.423900
v -1.179430 -3.985870 2.051470
v -1.179430 -3.985870 3.423900
v -3.366730 2.876270 1.000710
v 0.000000 -3.985870 4.110120
v -1.179430 -3.985870 3.423900
v -3.366730 2.876270 1.000710
v -3.023630 2.876270 2.330250
v 0.000000 -3.985870 4.110120
v -3.023630 2.876270 2.330250
v 1.179430 -3.985870 3.423900
v 0.000000 -3.985870 4.110120
v 1.179430 -3.985870 3.423900
v -1.694090 2.876270 2.673350
v 1.179430 -3.985870 2.051470
v 1.179430 -3.985870 3.423900
v 1.179430 -3.985870 2.051470
v -0.729102 2.876270 1.708360
v 0.000000 -3.985870 1.365260
v 1.179430 -3.985870 2.051470
v 0.000000 -3.985870 1.365260
v 0.000000 -3.985870 1.365260
v 0.729102 -10.848000 1.708362
v 1.072210 -10.848000 0.378827
v 0.729102 -10.848000 1.708362
v -1.179430 -3.985870 2.051470
v 1.694090 -10.848000 2.673352
v 0.729102 -10.848000 1.708362
v -1.179430 -3.985870 2.051470
v -1.179430 -3.985870 3.423900
v 1.694090 -10.848000 2.673352
v -1.179430 -3.985870 3.423900
v 3.023630 -10.848000 2.330252
v 1.694090 -10.848000 2.673352
v 3.023630 -10.848000 2.330252
v 0.000000 -3.985870 4.110120
v 3.366730 -10.848000 1.000712
v 3.023630 -10.848000 2.330252
v 3.366730 -10.848000 1.000712
v 1.179430 -3.985870 3.423900
v 2.401750 -10.848000 0.035720
v 3.366730 -10.848000 1.000712
v 1.179430 -3.985870 3.423900
v 1.179430 -3.985870 2.051470
v 2.401750 -10.848000 0.035720
v 1.179430 -3.985870 2.051470
v 1.072210 -10.848000 0.378827
v 2.401750 -10.848000 0.035720
v 1.072210 -10.848000 0.378827
v 1.072210 -10.848000 0.378827
v 2.058640 -17.710100 1.172262
v 1.372430 -17.710100 -0.007168
v 2.058640 -17.710100 1.172262
v 0.729102 -10.848000 1.708362
v 3.431070 -17.710100 1.172262
v 2.058640 -17.710100 1.172262
v 3.431070 -17.710100 1.172262
v 1.694090 -10.848000 2.673352
v 4.117280 -17.710100 -0.007168
v 3.431070 -17.710100 1.172262
v 4.117280 -17.710100 -0.007168
v 3.023630 -10.848000 2.330252
v 3.431070 -17.710100 -1.186598
v 4.117280 -17.710100 -0.007168
v 3.023630 -10.848000 2.330252
v 3.366730 -10.848000 1.000712
v 3.431070 -17.710100 -1.186598
v 3.366730 -10.848000 1.000712
v 2.058640 -17.710100 -1.186598
v 3.431070 -17.710100 -1.186598
v 2.058640 -17.710100 -1.186598
v 2.401750 -10.848000 0.035720
v 1.372430 -17.710100 -0.007168
v 2.058640 -17.710100 -1.186598
v 1.372430 -17.710100 -0.007168
v -5.489710 -23.199900 -0.007166
v -4.739160 -17.710100 -2.730577
v -5.489710 -17.710100 -0.007168
v -4.739160 -23.199900 -2.730576
v -2.744850 -17.710100 -4.746336
v -2.744850 -23.199900 -4.746336
v 0.000000 -17.710100 -5.475438
v 0.000000 -23.199900 -5.475436
v 2.744850 -17.710100 -4.746336
v 2.744850 -23.199900 -4.746336
v 4.739160 -17.710100 -2.730577
v 4.739160 -23.199900 -2.730576
v 5.489710 -17.710100 -0.007168
v 5.489710 -23.199900 -0.007166
v 4.739160 -17.710100 2.737692
v 4.739160 -23.199900 2.737694
v 2.744850 -17.710100 4.731992
v 2.744850 -23.199900 4.731994
v 0.000000 -17.710100 5.482543
v 0.000000 -23.199900 5.482544
v 0.000000 -23.199900 5.482544
v -2.744850 -17.710100 4.731992
v 0.000000 -17.710100 5.482543
v -2.744850 -23.199900 4.731994
v -4.739160 -17.710100 2.716242
v -4.739160 -23.199900 2.737694
v 0.000000 -17.710100 -0.007168
v -5.489710 -17.710100 -0.007168
v -4.739160 -17.710100 -2.730577
v -2.744850 -17.710100 -4.746336
v 0.000000 -17.710100 -5.475438
v 2.744850 -17.710100 -4.746336
v 4.739160 -17.710100 -2.730577
v 5.489710 -17.710100 -0.007168
v 4.739160 -17.710100 2.737692
v 2.744850 -17.710100 4.731992
v 0.000000 -17.710100 5.482543
v -2.744850 -17.710100 4.731992
v -4.739160 -17.710100 2.716242
v 1.372430 9.738420 -0.007172
v 2.401750 2.876270 -0.050059
v 1.072210 2.876270 -0.393165
v 1.372430 9.738420 -0.007172
v 2.058640 9.738420 1.172258
v 2.401750 2.876270 -0.050059
v 2.058640 9.738420 1.172258
v 3.366730 2.876270 -1.015050
v 2.401750 2.876270 -0.050059
v 2.058640 9.738420 1.172258
v 3.431070 9.738420 1.172258
v 3.366730 2.876270 -1.015050
v 3.431070 9.738420 1.172258
v 3.023630 2.876270 -2.344590
v 3.366730 2.876270 -1.015050
v 3.431070 9.738420 1.172258
v 4.117280 9.738420 -0.007172
v 3.023630 2.876270 -2.344590
v 4.117280 9.738420 -0.007172
v 1.694090 2.876270 -2.687690
v 3.023630 2.876270 -2.344590
v 4.117280 9.738420 -0.007172
v 3.431070 9.738420 -1.186602
v 1.694090 2.876270 -2.687690
v 3.431070 9.738420 -1.186602
v 0.729102 2.876270 -1.722700
v 1.694090 2.876270 -2.687690
v 3.431070 9.738420 -1.186602
v 2.058640 9.738420 -1.186602
v 0.729102 2.876270 -1.722700
v 2.058640 9.738420 -1.186602
v 1.072210 2.876270 -0.393165
v 0.729102 2.876270 -1.722700
v 2.058640 9.738420 -1.186602
v 1.372430 9.738420 -0.007172
v 1.072210 2.876270 -0.393165
v 1.072210 2.876270 -0.393165
v 1.179430 -3.985870 -2.044370
v 0.000000 -3.985870 -1.358150
v 1.179430 -3.985870 -2.044370
v 2.401750 2.876270 -0.050059
v 1.179430 -3.985870 -3.416800
v 1.179430 -3.985870 -2.044370
v 1.179430 -3.985870 -3.416800
v 3.366730 2.876270 -1.015050
v 0.000000 -3.985870 -4.103010
v 1.179430 -3.985870 -3.416800
v 3.366730 2.876270 -1.015050
v 3.023630 2.876270 -2.344590
v 0.000000 -3.985870 -4.103010
v 3.023630 2.876270 -2.344590
v -1.179430 -3.985870 -3.416800
v 0.000000 -3.985870 -4.103010
v -1.179430 -3.985870 -3.416800
v 1.694090 2.876270 -2.687690
v -1.179430 -3.985870 -2.044370
v -1.179430 -3.985870 -3.416800
v -1.179430 -3.985870 -2.044370
v 0.729102 2.876270 -1.722700
v 0.000000 -3.985870 -1.358150
v -1.179430 -3.985870 -2.044370
v 0.000000 -3.985870 -1.358150
v 0.000000 -3.985870 -1.358150
v -0.729102 -10.848000 -1.722698
v -1.072210 -10.848000 -0.393163
v -0.729102 -10.848000 -1.722698
v 1.179430 -3.985870 -2.044370
v -1.694090 -10.848000 -2.687688
v -0.729102 -10.848000 -1.722698
v 1.179430 -3.985870 -2.044370
v 1.179430 -3.985870 -3.416800
v -1.694090 -10.848000 -2.687688
v 1.179430 -3.985870 -3.416800
v -3.023630 -10.848000 -2.344588
v -1.694090 -10.848000 -2.687688
v -3.023630 -10.848000 -2.344588
v 0.000000 -3.985870 -4.103010
v -3.366730 -10.848000 -1.015048
v -3.023630 -10.848000 -2.344588
v -3.366730 -10.848000 -1.015048
v -1.179430 -3.985870 -3.416800
v -2.401750 -10.848000 -0.050057
v -3.366730 -10.848000 -1.015048
v -1.179430 -3.985870 -3.416800
v -1.179430 -3.985870 -2.044370
v -2.401750 -10.848000 -0.050057
v -1.179430 -3.985870 -2.044370
v -1.072210 -10.848000 -0.393163
v -2.401750 -10.848000 -0.050057
v -1.072210 -10.848000 -0.393163
v -1.072210 -10.848000 -0.393163
v -2.058640 -17.710100 -1.186598
v -1.372430 -17.710100 -0.007168
v -2.058640 -17.710100 -1.186598
v -0.729102 -10.848000 -1.722698
v -3.431070 -17.710100 -1.186598
v -2.058640 -17.710100 -1.186598
v -3.431070 -17.710100 -1.186598
v -1.694090 -10.848000 -2.687688
v -4.117280 -17.710100 -0.007168
v -3.431070 -17.710100 -1.186598
v -4.117280 -17.710100 -0.007168
v -3.023630 -10.848000 -2.344588
v -3.431070 -17.710100 1.172262
v -4.117280 -17.710100 -0.007168
v -3.023630 -10.848000 -2.344588
v -3.366730 -10.848000 -1.015048
v -3.431070 -17.710100 1.172262
v -3.366730 -10.848000 -1.015048
v -2.058640 -17.710100 1.172262
v -3.431070 -17.710100 1.172262
v -2.058640 -17.710100 1.172262
v -2.401750 -10.848000 -0.050057
v -1.372430 -17.710100 -0.007168
v -2.058640 -17.710100 1.172262
v -1.372430 -17.710100 -0.007168
v -1.372430 9.738420 -0.007172
v -0.686214 -17.710100 1.172262
v -1.372430 -17.710100 -0.007168
v -0.686214 9.738420 1.172258
v -0.686214 9.738420 1.172258
v 0.686214 -17.710100 1.172262
v -0.686214 -17.710100 1.172262
v 0.686214 9.738420 1.172258
v 0.686214 9.738420 1.172258
v 1.372430 -17.710100 -0.007168
v 0.686214 -17.710100 1.172262
v 1.372430 9.738420 -0.007172
v 1.372430 9.738420 -0.007172
v 0.686214 -17.710100 -1.186598
v 1.372430 -17.710100 -0.007168
v 0.686214 9.738420 -1.186602
v 0.686214 9.738420 -1.186602
v -0.686214 -17.710100 -1.186598
v 0.686214 -17.710100 -1.186598
v -0.686214 9.738420 -1.186602
v -0.686214 9.738420 -1.186602
v -1.372430 -17.710100 -0.007168
v -0.686214 -17.710100 -1.186598
v -1.372430 9.738420 -0.007172
v -21.823799 -37.426899 0.000006
v -4.739160 -23.199900 -2.730576
v -5.489710 -23.199900 -0.007166
v -18.896900 -37.426899 -10.904795
v -2.744850 -23.199900 -4.746336
v -10.904800 -37.426899 -18.896896
v 0.000000 -23.199900 -5.475436
v 0.000000 -37.426899 -21.816696
v 2.744850 -23.199900 -4.746336
v 10.911900 -37.426899 -18.896896
v 4.739160 -23.199900 -2.730576
v 18.896900 -37.426899 -10.904795
v 18.896900 -37.426899 -10.904795
v 5.489710 -23.199900 -0.007166
v 21.823799 -37.426899 0.000006
v 4.739160 -23.199900 2.737694
v 18.896900 -37.426899 10.911905
v 18.896900 -37.426899 10.911905
v 2.744850 -23.199900 4.731994
v 10.904800 -37.426899 18.896904
v 2.744850 -23.199900 4.731994
v 0.000000 -23.199900 5.482544
v 0.000000 -37.419800 21.823803
v -2.744850 -23.199900 4.731994
v -10.911900 -37.426899 18.896904
v -4.739160 -23.199900 2.737694
v -2.744850 -23.199900 4.731994
v -18.896900 -37.426899 10.904806
v -18.896900 -38.333801 10.907206
v -21.823799 -38.336201 0.000006
v -10.909500 -38.333801 18.896908
v 0.000000 -38.329102 21.823807
v 10.907200 -38.333801 18.896908
v 18.896900 -38.333801 10.909506
v 21.823799 -38.336201 0.000006
v 18.896900 -38.336201 -10.907194
v 10.909500 -38.336201 -18.896893
v 0.000000 -38.336201 -21.816692
v -10.907200 -38.336201 -18.896893
v -18.896900 -38.336201 -10.904795
v -10.884259 -34.484734 6.281786
v -12.569295 -34.484684 -0.001038
v -6.275943 -34.484749 10.881921
v 0.000452 -34.476170 12.567770
v 6.284965 -34.484730 10.882308
v 10.883454 -34.484783 6.282939
v 12.569539 -34.484631 -0.001560
v 10.884119 -34.484612 -6.284908
v 6.276276 -34.484631 -10.884172
v -0.000589 -34.484734 -12.561345
v -6.284769 -34.484741 -10.884205
v -10.884014 -34.484631 -6.276647
v -20.930794 -38.485031 0.000006
v -19.146145 -38.782463 0.000006
v -18.123707 -38.485020 -10.458319
v -16.578503 -38.782436 -9.566050
v -18.123800 -38.482800 10.461167
v -16.578108 -38.780701 9.569386
v -10.462788 -38.482769 18.123970
v -9.569870 -38.780537 16.578976
v 0.000000 -38.477932 20.930803
v 0.000000 -38.775372 19.146103
v 10.461184 -38.482796 18.123844
v 9.569408 -38.780693 16.578163
v 18.123663 -38.482826 10.463202
v 16.578369 -38.780651 9.571272
v 20.930828 -38.485020 0.000006
v 19.146160 -38.782463 0.000006
v 18.123783 -38.485008 -10.461147
v 16.578033 -38.782528 -9.569331
v 10.462852 -38.484951 -18.124067
v 9.569736 -38.782391 -16.578730
v 0.000000 -38.485004 -20.923845
v 0.000000 -38.782391 -19.139460
v -10.461044 -38.485043 -18.123589
v -9.569164 -38.782581 -16.577728
v -15.169549 -36.794529 8.756721
v -8.753201 -36.795231 15.165910
v -17.518448 -36.796093 0.000006
v -15.167672 -36.796341 -8.751373
v 0.000000 -36.788937 17.518803
v 8.756471 -36.794609 15.169128
v 15.169215 -36.794590 8.757922
v 17.518150 -36.796146 0.000006
v 15.169753 -36.795944 -8.756828
v 8.753510 -36.796577 -15.166432
v 0.000000 -36.796425 -17.509338
v -8.757709 -36.795647 -15.171266
vn -0.7527 -0.6566 -0.0479
vn -0.9081 0.4184 0.0152
vn -0.7947 0.4184 -0.4398
vn -0.6282 -0.6562 -0.4181
vn -0.7947 0.4183 -0.4398
vn -0.4676 0.4186 -0.7785
vn -0.6282 -0.6563 -0.4179
vn -0.3351 -0.6562 -0.6761
vn -0.3352 -0.6562 -0.6761
vn -0.4677 0.4186 -0.7785
vn -0.0164 0.4184 -0.9081
vn 0.0478 -0.6565 -0.7528
vn 0.0477 -0.6566 -0.7527
vn -0.0163 0.4184 -0.9081
vn 0.4408 0.4179 -0.7944
vn 0.4177 -0.6566 -0.6280
vn 0.7780 0.4184 -0.4687
vn 0.6761 -0.6561 -0.3352
vn 0.6760 -0.6562 -0.3353
vn 0.7780 0.4185 -0.4687
vn 0.9081 0.4184 -0.0156
vn 0.7527 -0.6566 0.0478
vn 0.9081 0.4184 -0.0155
vn 0.7945 0.4180 0.4404
vn 0.6279 -0.6565 0.4181
vn 0.6279 -0.6566 0.4179
vn 0.7945 0.4180 0.4405
vn 0.4686 0.4185 0.7780
vn 0.3352 -0.6561 0.6761
vn 0.3353 -0.6561 0.6761
vn 0.0156 0.4186 0.9081
vn -0.0480 -0.6566 0.7527
vn -0.0480 -0.6567 0.7527
vn 0.0156 0.4185 0.9081
vn -0.4405 0.4180 0.7945
vn -0.4177 -0.6566 0.6281
vn -0.4176 -0.6566 0.6280
vn -0.7781 0.4184 0.4685
vn -0.6761 -0.6561 0.3353
vn -0.6760 -0.6561 0.3355
vn -0.9082 0.4183 0.0153
vn -0.7528 -0.6565 -0.0479
vn 0.5071 -0.0517 -0.8603
vn 0.0018 -0.2401 -0.9708
vn 0.1217 -0.0879 -0.9887
vn 0.4837 -0.1464 -0.8629
vn 0.4923 -0.2501 -0.8338
vn 0.8970 -0.0498 -0.4393
vn -0.4756 -0.2518 -0.8428
vn -0.8357 -0.2837 -0.4703
vn -0.3822 -0.2137 -0.8990
vn -0.4824 -0.2955 -0.8246
vn -0.4694 -0.3404 -0.8147
vn 0.0686 -0.2364 -0.9692
vn -0.9853 -0.1711 -0.0007
vn -0.8566 -0.0765 0.5103
vn -0.9842 -0.1235 -0.1270
vn -0.9788 -0.2047 0.0014
vn -0.9725 -0.2328 0.0112
vn -0.8101 -0.2390 -0.5353
vn -0.5119 0.1120 0.8517
vn 0.0026 0.1867 0.9824
vn -0.6068 0.0940 0.7893
vn -0.4894 0.0623 0.8698
vn -0.4978 -0.0175 0.8671
vn -0.8953 -0.0581 0.4416
vn 0.4584 0.3091 0.8332
vn 0.8455 0.2325 0.4806
vn 0.3645 0.2143 0.9062
vn 0.4873 0.2223 0.8445
vn 0.4970 0.0829 0.8638
vn -0.0858 0.1304 0.9877
vn 0.9717 0.2364 0.0010
vn 0.8645 0.0184 -0.5024
vn 0.9825 0.1253 0.1380
vn 0.9923 0.1236 0.0026
vn 0.9993 -0.0382 0.0019
vn 0.8155 0.1389 0.5619
vn -0.2540 -0.0303 -0.9667
vn -0.6801 -0.2789 -0.6780
vn -0.0001 -0.1701 -0.9854
vn -0.2677 -0.1885 -0.9449
vn -0.9239 -0.2787 -0.2621
vn -0.9089 -0.3254 0.2610
vn -0.8386 -0.2503 -0.4839
vn -0.9074 -0.3532 -0.2277
vn -0.6901 -0.2182 0.6900
vn -0.2492 -0.0931 0.9640
vn -0.8700 -0.0463 0.4909
vn -0.6871 -0.2223 0.6917
vn -0.8566 -0.0766 0.5103
vn -0.9852 -0.1712 -0.0008
vn 0.2492 0.0931 0.9640
vn 0.6901 0.2182 0.6900
vn -0.0110 0.2476 0.9688
vn 0.2600 0.0974 0.9607
vn 0.9088 0.3255 0.2609
vn 0.9239 0.2787 -0.2621
vn 0.8110 0.3301 0.4831
vn 0.9275 0.2814 0.2461
vn 0.6801 0.2789 -0.6780
vn 0.2540 0.0303 -0.9667
vn 0.8644 0.1347 -0.4845
vn 0.6994 0.1465 -0.6996
vn -0.8645 -0.0184 -0.5024
vn -0.9717 -0.2364 0.0010
vn -0.6994 -0.1465 -0.6996
vn -0.8644 -0.1347 -0.4845
vn -0.8455 -0.2325 0.4806
vn -0.4584 -0.3091 0.8332
vn -0.9275 -0.2814 0.2461
vn -0.8110 -0.3301 0.4831
vn -0.9088 -0.3255 0.2609
vn -0.0026 -0.1867 0.9824
vn 0.5119 -0.1120 0.8517
vn -0.2600 -0.0974 0.9607
vn 0.0110 -0.2476 0.9688
vn 0.8566 0.0766 0.5103
vn 0.9852 0.1712 -0.0008
vn 0.6871 0.2223 0.6917
vn 0.8700 0.0463 0.4909
vn 0.8357 0.2837 -0.4703
vn 0.4756 0.2518 -0.8428
vn 0.9074 0.3532 -0.2277
vn 0.8386 0.2503 -0.4839
vn 0.9089 0.3254 0.2610
vn -0.0018 0.2401 -0.9708
vn -0.5071 0.0517 -0.8603
vn 0.2677 0.1885 -0.9449
vn 0.0001 0.1701 -0.9854
vn -0.9993 0.0382 0.0019
vn -0.8155 -0.1389 0.5619
vn -0.9923 -0.1236 0.0026
vn -0.9825 -0.1253 0.1380
vn -0.4970 -0.0829 0.8638
vn 0.0858 -0.1304 0.9877
vn -0.4873 -0.2223 0.8445
vn -0.3645 -0.2143 0.9062
vn 0.4978 0.0175 0.8671
vn 0.8953 0.0581 0.4416
vn 0.4894 -0.0623 0.8698
vn 0.6068 -0.0940 0.7893
vn 0.9725 0.2328 0.0112
vn 0.8101 0.2390 -0.5353
vn 0.9788 0.2047 0.0014
vn 0.9842 0.1235 -0.1270
vn 0.9853 0.1711 -0.0007
vn 0.8566 0.0765 0.5103
vn 0.4694 0.3404 -0.8147
vn -0.0686 0.2364 -0.9692
vn 0.4824 0.2956 -0.8246
vn 0.3822 0.2137 -0.8990
vn -0.4923 0.2501 -0.8338
vn -0.8970 0.0498 -0.4393
vn -0.4837 0.1464 -0.8629
vn -0.1217 0.0879 -0.9887
vn -0.9959 0.0004 0.0908
vn -0.9057 -0.0000 -0.4239
vn -0.9079 0.4187 -0.0180
vn -0.7789 0.4178 -0.4677
vn -0.5774 -0.0000 -0.8165
vn -0.4406 0.4186 -0.7941
vn -0.0882 -0.0000 -0.9961
vn 0.0157 0.4181 -0.9083
vn 0.4212 -0.0000 -0.9069
vn 0.4696 0.4185 -0.7774
vn 0.8189 -0.0000 -0.5739
vn 0.7938 0.4179 -0.4419
vn 0.9957 -0.0000 -0.0921
vn 0.9080 0.4187 0.0164
vn 0.9056 -0.0000 0.4241
vn 0.7778 0.4181 0.4693
vn 0.5764 -0.0000 0.8172
vn 0.4423 0.4183 0.7933
vn 0.0910 -0.0000 0.9959
vn -0.0169 0.4189 0.9079
vn 0.0907 -0.0002 0.9959
vn -0.4257 -0.0000 0.9049
vn -0.0169 0.4188 0.9079
vn -0.4701 0.4187 0.7770
vn -0.8178 0.0013 0.5755
vn -0.7929 0.4188 0.4426
vn -0.0000 1.0000 -0.0000
vn -0.5069 -0.0501 0.8605
vn -0.0017 -0.2390 0.9710
vn -0.1217 -0.0879 0.9887
vn -0.4837 -0.1454 0.8631
vn -0.4923 -0.2501 0.8338
vn -0.8970 -0.0498 0.4393
vn 0.4758 -0.2507 0.8431
vn 0.8357 -0.2834 0.4704
vn 0.3822 -0.2137 0.8990
vn 0.4825 -0.2950 0.8247
vn 0.4694 -0.3404 0.8147
vn -0.0686 -0.2364 0.9692
vn 0.9852 -0.1715 0.0009
vn 0.8565 -0.0775 -0.5103
vn 0.9842 -0.1235 0.1270
vn 0.9788 -0.2049 -0.0013
vn 0.9725 -0.2328 -0.0112
vn 0.8101 -0.2390 0.5353
vn 0.5118 0.1105 -0.8520
vn -0.0026 0.1854 -0.9827
vn 0.6068 0.0940 -0.7893
vn 0.4894 0.0612 -0.8699
vn 0.4978 -0.0175 -0.8671
vn 0.8953 -0.0581 -0.4416
vn -0.4587 0.3079 -0.8335
vn -0.8456 0.2322 -0.4807
vn -0.3645 0.2143 -0.9062
vn -0.4873 0.2216 -0.8446
vn -0.4970 0.0829 -0.8638
vn 0.0858 0.1304 -0.9877
vn -0.9716 0.2368 -0.0012
vn -0.8644 0.0193 0.5024
vn -0.9825 0.1253 -0.1380
vn -0.9923 0.1239 -0.0025
vn -0.9993 -0.0382 -0.0019
vn -0.8155 0.1389 -0.5619
vn 0.2540 -0.0305 0.9667
vn 0.6801 -0.2782 0.6783
vn 0.0001 -0.1681 0.9858
vn 0.2677 -0.1874 0.9451
vn 0.9241 -0.2782 0.2621
vn 0.9089 -0.3251 -0.2611
vn 0.8387 -0.2497 0.4840
vn 0.9076 -0.3526 0.2278
vn 0.6901 -0.2175 -0.6902
vn 0.2489 -0.0932 -0.9640
vn 0.8699 -0.0475 -0.4909
vn 0.6870 -0.2226 -0.6917
vn 0.8565 -0.0776 -0.5103
vn 0.9852 -0.1716 0.0008
vn -0.2489 0.0932 -0.9640
vn -0.6901 0.2175 -0.6902
vn 0.0109 0.2458 -0.9693
vn -0.2601 0.0965 -0.9607
vn -0.9089 0.3252 -0.2611
vn -0.9241 0.2782 0.2620
vn -0.8111 0.3294 -0.4833
vn -0.9277 0.2807 -0.2463
vn -0.6801 0.2782 0.6783
vn -0.2540 0.0305 0.9667
vn -0.8642 0.1359 0.4844
vn -0.6993 0.1470 0.6995
vn 0.8644 -0.0193 0.5024
vn 0.9716 -0.2368 -0.0012
vn 0.6993 -0.1470 0.6995
vn 0.8642 -0.1359 0.4844
vn 0.8456 -0.2322 -0.4807
vn 0.4587 -0.3079 -0.8335
vn 0.9277 -0.2807 -0.2463
vn 0.8111 -0.3294 -0.4833
vn 0.9089 -0.3252 -0.2611
vn 0.9241 -0.2782 0.2620
vn 0.0026 -0.1854 -0.9827
vn -0.5118 -0.1105 -0.8520
vn 0.2601 -0.0965 -0.9607
vn -0.0109 -0.2458 -0.9693
vn -0.8565 0.0776 -0.5103
vn -0.9852 0.1716 0.0008
vn -0.6870 0.2226 -0.6917
vn -0.8699 0.0475 -0.4909
vn -0.8357 0.2834 0.4704
vn -0.4758 0.2507 0.8431
vn -0.9076 0.3526 0.2278
vn -0.8387 0.2497 0.4840
vn -0.9241 0.2782 0.2621
vn -0.9089 0.3251 -0.2611
vn 0.0017 0.2390 0.9710
vn 0.5069 0.0501 0.8605
vn -0.2677 0.1874 0.9451
vn -0.0001 0.1681 0.9858
vn 0.9993 0.0382 -0.0019
vn 0.8155 -0.1389 -0.5619
vn 0.9923 -0.1239 -0.0025
vn 0.9825 -0.1253 -0.1380
vn 0.4970 -0.0829 -0.8638
vn -0.0858 -0.1304 -0.9877
vn 0.4873 -0.2216 -0.8446
vn 0.3645 -0.2143 -0.9062
vn -0.4978 0.0175 -0.8671
vn -0.8953 0.0581 -0.4416
vn -0.4894 -0.0612 -0.8699
vn -0.6068 -0.0940 -0.7893
vn -0.9725 0.2328 -0.0112
vn -0.8101 0.2390 0.5353
vn -0.9788 0.2049 -0.0013
vn -0.9842 0.1235 0.1270
vn -0.9852 0.1715 0.0009
vn -0.8565 0.0775 -0.5103
vn -0.4694 0.3405 0.8147
vn 0.0686 0.2364 0.9692
vn -0.4825 0.2950 0.8247
vn -0.3822 0.2137 0.8990
vn 0.4923 0.2501 0.8338
vn 0.8970 0.0498 0.4393
vn 0.4837 0.1454 0.8631
vn 0.1217 0.0879 0.9887
vn -0.9807 0.0182 0.1946
vn -0.6530 -0.0000 0.7574
vn -0.9817 -0.0000 0.1905
vn -0.3264 -0.0000 0.9452
vn 0.3263 -0.0000 0.9453
vn -0.3263 -0.0000 0.9453
vn 0.6530 -0.0000 0.7574
vn 0.3264 -0.0000 0.9452
vn 0.9817 -0.0000 0.1905
vn 0.9807 -0.0182 0.1946
vn 0.9807 0.0182 -0.1946
vn 0.6530 -0.0000 -0.7574
vn 0.9817 -0.0000 -0.1905
vn 0.3264 -0.0000 -0.9452
vn -0.3263 -0.0000 -0.9453
vn 0.3263 -0.0000 -0.9453
vn -0.6530 -0.0000 -0.7574
vn -0.3264 -0.0000 -0.9452
vn -0.9817 -0.0000 -0.1905
vn -0.9807 -0.0182 -0.1946
vn -0.7789 0.4179 -0.4677
vn -0.7947 0.4185 -0.4397
vn -0.4405 0.4186 -0.7941
vn -0.4677 0.4187 -0.7785
vn 0.9079 0.4188 0.0164
vn 0.7779 0.4185 -0.4687
vn 0.4424 0.4183 0.7933
vn 0.4685 0.4186 0.7780
vn 0.4685 0.4185 0.7780
vn 0.0155 0.4186 0.9080
vn -0.4406 0.4181 0.7944
vn -0.4701 0.4187 0.7769
vn -0.7930 0.4188 0.4425
vn -0.4405 0.4181 0.7945
vn -0.7781 0.4185 0.4685
vn -0.0000 -1.0000 0.0001
vn -0.1606 -0.9827 0.0928
vn -0.1854 -0.9827 -0.0000
vn -0.0922 -0.9826 0.1610
vn -0.0000 -0.9825 0.1861
vn 0.0922 -0.9827 0.1609
vn 0.1606 -0.9827 0.0927
vn 0.1854 -0.9827 -0.0000
vn 0.1606 -0.9827 -0.0928
vn 0.0926 -0.9826 -0.1607
vn -0.0000 -0.9826 -0.1855
vn -0.0927 -0.9827 -0.1606
vn -0.1607 -0.9826 -0.0927
vn -0.1644 -0.9864 0.0001
vn -0.1984 -0.9781 -0.0625
vn -0.2034 -0.9720 0.1176
vn -0.1425 -0.9864 0.0824
vn -0.1424 -0.9864 -0.0822
vn -0.1406 -0.9781 -0.1535
vn -0.0822 -0.9864 -0.1424
vn -0.0450 -0.9781 -0.2032
vn -0.1173 -0.9720 0.2035
vn -0.0821 -0.9864 0.1426
vn -0.0000 -0.9720 0.2349
vn -0.0000 -0.9864 0.1646
vn 0.1173 -0.9720 0.2034
vn 0.0821 -0.9864 0.1426
vn 0.2034 -0.9720 0.1176
vn 0.1425 -0.9864 0.0824
vn 0.2347 -0.9721 0.0001
vn 0.1644 -0.9864 0.0001
vn 0.2032 -0.9721 -0.1174
vn 0.1424 -0.9864 -0.0822
vn 0.1173 -0.9721 -0.2033
vn 0.0822 -0.9864 -0.1424
vn -0.0000 -0.9721 -0.2347
vn -0.0000 -0.9864 -0.1644
vn -0.0821 -0.9864 0.1425
vn 0.3662 -0.9061 -0.2117
vn 0.5082 -0.8096 -0.2936
vn 0.5871 -0.8095 0.0001
vn 0.4231 -0.9061 0.0002
vn 0.2119 -0.9060 -0.3664
vn 0.2938 -0.8096 -0.5081
vn 0.0001 -0.9062 -0.4229
vn 0.0001 -0.8097 -0.5868
vn 0.5085 -0.8095 0.2937
vn 0.3666 -0.9060 0.2116
vn 0.2936 -0.8095 0.5085
vn 0.2115 -0.9061 0.3664
vn -0.2120 -0.9061 -0.3662
vn -0.2939 -0.8095 -0.5083
vn -0.3663 -0.9061 -0.2115
vn -0.5084 -0.8096 -0.2936
vn -0.4231 -0.9061 0.0001
vn -0.5871 -0.8095 -0.0000
vn -0.3664 -0.9060 0.2119
vn -0.5083 -0.8095 0.2938
vn -0.2114 -0.9060 0.3668
vn -0.2934 -0.8096 0.5084
vn -0.0002 -0.9060 0.4233
vn -0.0001 -0.8095 0.5871
vn 0.7999 -0.5984 0.0469
vn 0.7037 -0.5828 -0.4064
vn 0.4065 -0.5831 -0.7034
vn -0.0000 -0.5830 -0.8125
vn -0.4067 -0.5825 -0.7038
vn -0.7038 -0.5826 -0.4065
vn -0.8127 -0.5826 0.0001
vn -0.7037 -0.5827 0.4065
vn -0.4061 -0.5832 0.7036
vn -0.0000 -0.5829 0.8125
vn 0.3594 -0.5981 0.7163
vn 0.6694 -0.5982 0.4406
vt 0.486055 0.984006
vt 0.986055 0.984006
vt 0.986055 0.942339
vt 0.486055 0.942339
vt 0.486055 0.984110
vt 0.986055 0.984110
vt 0.986055 0.942443
vt 0.486055 0.942443
vt 0.292384 0.113071
vt 0.308638 0.113071
vt 0.295869 0.028937
vt 0.304282 0.028937
vt 0.320536 0.113071
vt 0.321109 0.028937
vt 0.316181 0.113071
vt 0.329523 0.028937
vt 0.299927 0.113071
vt 0.288029 0.113071
vt 0.279042 0.197205
vt 0.293615 0.197205
vt 0.264470 0.197205
vt 0.265700 0.281340
vt 0.270055 0.281340
vt 0.258157 0.281340
vt 0.241904 0.281340
vt 0.237548 0.281340
vt 0.249447 0.281340
vt 0.262215 0.365474
vt 0.253802 0.365474
vt 0.236975 0.365474
vt 0.228562 0.365474
vt 0.806109 0.894513
vt 0.824859 0.894513
vt 0.806109 0.669513
vt 0.824859 0.669513
vt 0.843609 0.894513
vt 0.843609 0.669513
vt 0.862359 0.894513
vt 0.862359 0.669513
vt 0.881109 0.894513
vt 0.881109 0.669513
vt 0.899859 0.894513
vt 0.899859 0.669513
vt 0.918609 0.894513
vt 0.918609 0.669513
vt 0.937359 0.894513
vt 0.937359 0.669513
vt 0.956109 0.894513
vt 0.956109 0.669513
vt 0.974859 0.894513
vt 0.974859 0.669513
vt 0.749859 0.894513
vt 0.768609 0.894513
vt 0.749859 0.669513
vt 0.768609 0.669513
vt 0.787359 0.894513
vt 0.787359 0.669513
vt 0.714151 0.814648
vt 0.723653 0.779190
vt 0.652737 0.779190
vt 0.688195 0.840604
vt 0.652737 0.850105
vt 0.617279 0.840604
vt 0.591322 0.814648
vt 0.581822 0.779190
vt 0.591322 0.743732
vt 0.617279 0.717775
vt 0.652737 0.708274
vt 0.688195 0.717775
vt 0.714151 0.743732
vt 0.145054 0.113071
vt 0.128801 0.113071
vt 0.141569 0.028937
vt 0.133156 0.028937
vt 0.116902 0.113071
vt 0.116329 0.028937
vt 0.121257 0.113071
vt 0.107915 0.028937
vt 0.137511 0.113071
vt 0.149409 0.113071
vt 0.158396 0.197205
vt 0.143823 0.197205
vt 0.172968 0.197205
vt 0.171738 0.281340
vt 0.167383 0.281340
vt 0.179281 0.281340
vt 0.195534 0.281340
vt 0.199890 0.281340
vt 0.187991 0.281340
vt 0.175223 0.365474
vt 0.183636 0.365474
vt 0.200463 0.365474
vt 0.208876 0.365474
vt 0.083196 0.020498
vt 0.023612 0.020498
vt 0.083196 0.377998
vt 0.023612 0.377998
vt 0.082964 0.020498
vt 0.023380 0.020498
vt 0.082964 0.377998
vt 0.023380 0.377998
vt 0.083213 0.020498
vt 0.023629 0.020498
vt 0.083213 0.377998
vt 0.023629 0.377998
vt 0.083124 0.020498
vt 0.023541 0.020498
vt 0.083124 0.377998
vt 0.023541 0.377998
vt 0.083035 0.020498
vt 0.023452 0.020498
vt 0.083035 0.377998
vt 0.023452 0.377998
vt 0.083284 0.020498
vt 0.023701 0.020498
vt 0.083284 0.377998
vt 0.023701 0.377998
vt 0.289164 0.733543
vt 0.286247 0.744428
vt 0.528643 0.733543
vt 0.493642 0.864168
vt 0.278278 0.752397
vt 0.398018 0.959792
vt 0.267393 0.755313
vt 0.267393 0.994793
vt 0.256508 0.752397
vt 0.136768 0.959792
vt 0.248539 0.744428
vt 0.041144 0.864168
vt 0.245622 0.733543
vt 0.006143 0.733543
vt 0.248539 0.722657
vt 0.041144 0.602918
vt 0.256508 0.714688
vt 0.136768 0.507293
vt 0.267393 0.711772
vt 0.267393 0.472293
vt 0.278278 0.714688
vt 0.398018 0.507293
vt 0.286247 0.722657
vt 0.493642 0.602918
vt 0.679010 0.321016
vt 0.530519 0.239152
vt 0.518549 0.321012
vt 0.596463 0.178492
vt 0.679015 0.157904
vt 0.758246 0.176504
vt 0.825516 0.238470
vt 0.840136 0.321018
vt 0.820876 0.400233
vt 0.758907 0.466174
vt 0.679004 0.484118
vt 0.597788 0.464198
vt 0.535155 0.401565
vt 0.375928 0.321016
vt 0.401770 0.321016
vt 0.438917 0.182398
vt 0.416531 0.169473
vt 0.416533 0.472558
vt 0.438911 0.459638
vt 0.527470 0.583493
vt 0.540396 0.561105
vt 0.540385 0.080910
vt 0.527467 0.058534
vt 0.679010 0.043777
vt 0.679010 0.017934
vt 0.817629 0.080921
vt 0.830553 0.058536
vt 0.919108 0.182396
vt 0.941488 0.169474
vt 0.956251 0.321016
vt 0.982094 0.321016
vt 0.919103 0.459634
vt 0.941489 0.472558
vt 0.817634 0.561119
vt 0.830555 0.583499
vt 0.679010 0.598262
vt 0.679010 0.624100
vt 0.362997 0.321016
vt 0.405335 0.479023
vt 0.405335 0.163009
vt 0.521004 0.047340
vt 0.679010 0.005003
vt 0.837017 0.047340
vt 0.952686 0.163009
vt 0.995024 0.321016
vt 0.952686 0.479023
vt 0.837017 0.594692
vt 0.679010 0.637029
vt 0.521004 0.594692
vt 0.459316 0.194176
vt 0.425340 0.321016
vt 0.552201 0.101374
vt 0.679010 0.067340
vt 0.459343 0.447841
vt 0.552156 0.540735
vt 0.805847 0.101328
vt 0.898700 0.194178
vt 0.932677 0.321016
vt 0.898707 0.447858
vt 0.805825 0.540665
vt 0.679010 0.574658
s 1
usemtl models_mapobjects_lamp_lamp
f 5/4/2 7/5/3 6/6/4 8/7/5
f 11/5/6 10/6/7 9/4/8
f 10/6/7 12/7/9 9/4/8
f 13/4/10 15/5/11 14/6/12 16/7/13
f 17/4/14 19/5/15 18/6/16 20/7/17
f 21/4/17 23/5/16 22/6/18 24/7/19
f 25/8/20 27/9/21 26/10/22 28/11/23
f 29/4/23 31/5/24 30/6/25 32/7/26
f 33/8/27 35/9/28 34/10/29 36/11/30
f 37/4/31 39/5/29 38/6/32 40/7/33
f 41/4/34 43/5/35 42/6/36 44/7/37
f 45/4/38 47/5/36 46/6/39 48/7/40
f 49/8/41 51/9/39 50/10/42 52/11/43
f 55/12/44 54/13/45 53/14/46
f 58/13/47 57/15/48 56/14/49
f 61/13/50 60/16/51 59/15/52
f 64/16/53 63/17/54 62/15/55
f 67/16/56 66/18/57 65/17/58
f 70/18/59 69/19/60 68/17/61
f 73/18/62 72/20/63 71/19/64
f 76/20/65 75/17/66 74/19/67
f 79/20/68 78/21/69 77/17/70
f 82/21/71 81/15/72 80/17/73
f 85/21/74 84/12/75 83/15/76
f 88/12/77 87/14/78 86/15/79
f 91/22/80 90/23/81 89/12/82
f 92/23/83 54/13/45 55/12/44
f 95/23/84 94/23/85 93/13/86
f 96/23/87 60/16/51 61/13/50
f 99/23/88 98/22/89 97/16/90
f 102/22/91 101/18/92 100/16/93
f 105/22/94 104/24/95 103/18/96
f 106/24/97 72/20/63 73/18/62
f 109/24/98 108/24/99 107/20/100
f 110/24/101 78/21/69 79/20/68
f 113/24/102 112/22/103 111/21/104
f 114/22/105 84/12/75 85/21/74
f 117/25/106 116/26/107 115/22/108
f 118/26/109 90/23/81 91/22/80
f 121/26/110 120/27/111 119/23/112
f 124/27/113 123/23/114 122/23/84
f 127/27/115 126/28/116 125/23/117
f 128/28/118 98/22/89 99/23/88
f 131/28/119 130/29/120 129/22/121
f 132/29/122 104/24/95 105/22/94
f 135/29/123 134/30/124 133/24/125
f 138/30/126 137/24/99 136/24/127
f 141/30/128 140/25/129 139/24/130
f 142/25/131 112/22/103 113/24/102
f 145/31/132 144/32/133 143/25/134
f 146/32/135 116/26/107 117/25/106
f 149/32/136 148/33/137 147/26/138
f 150/33/139 120/27/111 121/26/110
f 153/33/140 152/34/141 151/27/142
f 154/34/143 126/28/116 127/27/115
f 157/34/144 156/33/145 155/28/146
f 160/33/147 159/29/148 158/28/149
f 163/33/150 162/32/151 161/29/152
f 164/32/153 134/30/124 135/29/123
f 167/32/154 166/31/155 165/30/156
f 168/31/157 140/25/129 141/30/128
f 171/35/158 170/36/159 169/37/160
f 170/36/159 172/38/161 169/37/160
f 170/36/159 173/39/162 172/38/161
f 173/39/162 174/40/163 172/38/161
f 173/39/162 175/41/164 174/40/163
f 175/41/164 176/42/165 174/40/163
f 175/41/164 177/43/166 176/42/165
f 177/43/166 178/44/167 176/42/165
f 177/43/166 179/45/168 178/44/167
f 179/45/168 180/46/169 178/44/167
f 179/45/168 181/47/170 180/46/169
f 181/47/170 182/48/171 180/46/169
f 181/47/170 183/49/172 182/48/171
f 183/49/172 184/50/173 182/48/171
f 183/49/172 185/51/174 184/50/173
f 185/51/174 186/52/175 184/50/173
f 185/51/174 187/53/176 186/52/175
f 187/53/176 188/54/177 186/52/175
f 191/55/178 190/56/179 189/57/180
f 190/56/179 192/58/181 189/57/180
f 190/56/179 193/59/182 192/58/181
f 193/59/182 194/60/183 192/58/181
f 193/59/182 171/35/158 194/60/183
f 171/35/158 169/37/160 194/60/183
f 197/61/184 196/62/184 195/63/184
f 198/64/184 197/61/184 195/63/184
f 199/65/184 198/64/184 195/63/184
f 200/66/184 199/65/184 195/63/184
f 201/67/184 200/66/184 195/63/184
f 202/68/184 201/67/184 195/63/184
f 203/69/184 202/68/184 195/63/184
f 204/70/184 203/69/184 195/63/184
f 205/71/184 204/70/184 195/63/184
f 206/72/184 205/71/184 195/63/184
f 207/73/184 206/72/184 195/63/184
f 196/62/184 207/73/184 195/63/184
f 210/74/185 209/75/186 208/76/187
f 213/75/188 212/77/189 211/76/190
f 216/75/191 215/78/192 214/77/193
f 219/78/194 218/79/195 217/77/196
f 222/78/197 221/80/198 220/79/199
f 225/80/200 224/81/201 223/79/202
f 228/80/203 227/82/204 226/81/205
f 231/82/206 230/79/207 229/81/208
f 234/82/209 233/83/210 232/79/211
f 237/83/212 236/77/213 235/79/214
f 240/83/215 239/74/216 238/77/217
f 243/74/218 242/76/219 241/77/220
f 246/84/221 245/85/222 244/74/223
f 247/85/224 209/75/186 210/74/185
f 250/85/225 249/85/226 248/75/227
f 251/85/228 215/78/192 216/75/191
f 254/85/229 253/84/230 252/78/231
f 257/84/232 256/80/233 255/78/234
f 260/84/235 259/86/236 258/80/237
f 261/86/238 227/82/204 228/80/203
f 264/86/239 263/86/240 262/82/241
f 265/86/242 233/83/210 234/82/209
f 268/86/243 267/84/244 266/83/245
f 269/84/246 239/74/216 240/83/215
f 272/87/247 271/88/248 270/84/249
f 273/88/250 245/85/222 246/84/221
f 276/88/251 275/89/252 274/85/253
f 279/89/254 278/85/255 277/85/256
f 282/89/257 281/90/258 280/85/259
f 283/90/260 253/84/230 254/85/229
f 286/90/261 285/91/262 284/84/263
f 287/91/264 259/86/236 260/84/235
f 290/91/265 289/92/266 288/86/267
f 293/92/268 292/86/269 291/86/270
f 296/92/271 295/87/272 294/86/273
f 297/87/274 267/84/244 268/86/243
f 300/93/275 299/94/276 298/87/277
f 301/94/278 271/88/248 272/87/247
f 304/94/279 303/95/280 302/88/281
f 305/95/282 275/89/252 276/88/251
f 308/95/283 307/96/284 306/89/285
f 309/96/286 281/90/258 282/89/257
f 312/96/287 311/95/288 310/90/289
f 315/95/290 314/91/291 313/90/292
f 318/95/293 317/94/294 316/91/295
f 319/94/296 289/92/266 290/91/265
f 322/94/297 321/93/298 320/92/299
f 323/93/300 295/87/272 296/92/271
f 326/97/301 325/98/302 324/99/303
f 325/98/302 327/100/304 324/99/303
f 330/101/302 329/102/305 328/103/306
f 329/102/305 331/104/307 328/103/306
f 334/105/308 333/106/309 332/107/307
f 333/106/309 335/108/310 332/107/307
f 338/109/311 337/110/312 336/111/313
f 337/110/312 339/112/314 336/111/313
f 342/113/312 341/114/315 340/115/316
f 341/114/315 343/116/317 340/115/316
f 346/117/318 345/118/319 344/119/317
f 345/118/319 347/120/320 344/119/317
f 350/121/160 349/122/321 348/123/3
f 349/122/321 351/124/322 348/123/3
f 349/122/321 352/125/323 351/124/322
f 352/125/323 353/126/324 351/124/322
f 352/125/323 354/127/165 353/126/324
f 354/127/165 355/128/15 353/126/324
f 354/127/165 356/129/167 355/128/15
f 356/129/167 357/130/16 355/128/15
f 356/129/167 358/131/169 357/130/16
f 358/131/169 359/132/21 357/130/16
f 358/131/169 361/133/325 360/132/326
f 361/133/325 362/134/24 359/132/21
f 361/133/325 363/135/173 362/134/24
f 363/135/173 364/136/28 362/134/24
f 363/135/173 366/137/327 365/136/28
f 368/137/175 367/138/328 364/136/28
f 366/137/175 369/139/177 367/138/329
f 369/139/177 370/140/330 367/138/329
f 369/139/177 371/141/181 370/140/330
f 371/141/181 372/142/331 370/140/330
f 374/141/332 373/143/333 372/142/334
f 373/143/333 375/144/335 372/142/334
f 373/143/333 350/121/160 375/144/335
f 350/121/160 348/123/3 375/144/335
f 4/145/336 388/146/337 389/147/338
f 4/145/336 390/148/339 388/146/337
f 4/145/336 391/149/340 390/148/339
f 4/145/336 392/150/341 391/149/340
f 4/145/336 393/151/342 392/150/341
f 4/145/336 394/152/343 393/151/342
f 4/145/336 395/153/344 394/152/343
f 4/145/336 396/154/345 395/153/344
f 4/145/336 397/155/346 396/154/345
f 4/145/336 398/156/347 397/155/346
f 4/145/336 399/157/348 398/156/347
f 4/145/336 389/147/338 399/157/348
f 400/158/349 401/159/350 405/160/351 404/161/352
f 401/159/350 400/158/349 402/162/353 403/163/354
f 403/163/354 402/162/353 422/164/355 423/165/356
f 404/161/352 405/160/351 407/166/357 406/167/358
f 406/167/358 407/166/357 409/168/359 408/169/360
f 408/169/360 409/168/359 411/170/361 410/171/362
f 410/171/362 411/170/361 413/172/363 412/173/364
f 412/173/364 413/172/363 415/174/365 414/175/366
f 414/175/366 415/174/365 417/176/367 416/177/368
f 416/177/368 417/176/367 419/178/369 418/179/370
f 418/179/370 419/178/369 421/180/371 420/181/372
f 420/181/372 421/180/371 423/165/356 422/164/355
f 400/158/349 377/182/349 387/183/353 402/162/353
f 377/182/349 400/158/349 404/161/352 376/184/352
f 376/184/352 404/161/352 406/167/358 378/185/373
f 378/185/373 406/167/358 408/169/360 379/186/360
f 379/186/360 408/169/360 410/171/362 380/187/362
f 380/187/362 410/171/362 412/173/364 381/188/364
f 381/188/364 412/173/364 414/175/366 382/189/366
f 382/189/366 414/175/366 416/177/368 383/190/368
f 383/190/368 416/177/368 418/179/370 384/191/370
f 384/191/370 418/179/370 420/181/372 385/192/372
f 385/192/372 420/181/372 422/164/355 386/193/355
f 386/193/355 422/164/355 402/162/353 387/183/353
f 388/146/374 424/194/375 426/195/376 389/147/377
f 424/194/375 388/146/374 390/148/378 425/196/379
f 425/196/379 390/148/378 391/149/380 428/197/381
f 389/147/377 426/195/376 427/198/382 399/157/383
f 399/157/383 427/198/382 435/199/384 398/156/385
f 428/197/381 391/149/380 392/150/386 429/200/387
f 429/200/387 392/150/386 393/151/388 430/201/389
f 430/201/389 393/151/388 394/152/390 431/202/391
f 431/202/391 394/152/390 395/153/392 432/203/393
f 432/203/393 395/153/392 396/154/394 433/204/395
f 433/204/395 396/154/394 397/155/396 434/205/397
f 434/205/397 397/155/396 398/156/385 435/199/384
f 401/159/398 426/195/376 424/194/375 405/160/399
f 405/160/399 424/194/375 425/196/379 407/166/400
f 407/166/400 425/196/379 428/197/381 409/168/401
f 409/168/401 428/197/381 429/200/387 411/170/402
f 411/170/402 429/200/387 430/201/389 413/172/403
f 413/172/403 430/201/389 431/202/391 415/174/404
f 415/174/404 431/202/391 432/203/393 417/176/405
f 417/176/405 432/203/393 433/204/395 419/178/406
f 419/178/406 433/204/395 434/205/397 421/180/407
f 421/180/407 434/205/397 435/199/384 423/165/408
f 423/165/408 435/199/384 427/198/382 403/163/409
f 403/163/409 427/198/382 426/195/376 401/159/398
