# Exported by Gskelview
mtllib lamp_yellow.mtl

v 0.094285 -49.9602 -0
v 4 -41.9602 0
v -4 -41.9602 0
v -21.8238 -38.3362 6e-06
v -21.8238 -37.4269 6e-06
v -18.8969 -37.4269 -10.9048
v -18.8969 -38.3362 -10.9048
v -18.8969 -37.4269 -10.9048
v -10.9048 -37.4269 -18.8969
v -18.8969 -38.3362 -10.9048
v -10.9072 -38.3362 -18.8969
v -10.9072 -38.3362 -18.8969
v -10.9048 -37.4269 -18.8969
v 0 -37.4269 -21.8167
v 0 -38.3362 -21.8167
v 0 -38.3362 -21.8167
v 0 -37.4269 -21.8167
v 10.9119 -37.4269 -18.8969
v 10.9095 -38.3362 -18.8969
v 10.9095 -38.3362 -18.8969
v 10.9119 -37.4269 -18.8969
v 18.8969 -37.4269 -10.9048
v 18.8969 -38.3362 -10.9072
v 18.8969 -38.3362 -10.9072
v 18.8969 -37.4269 -10.9048
v 21.8238 -37.4269 6e-06
v 21.8238 -38.3362 6e-06
v 21.8238 -38.3362 6e-06
v 21.8238 -37.4269 6e-06
v 18.8969 -37.4269 10.9119
v 18.8969 -38.3338 10.9095
v 18.8969 -38.3338 10.9095
v 18.8969 -37.4269 10.9119
v 10.9048 -37.4269 18.8969
v 10.9072 -38.3338 18.8969
v 10.9072 -38.3338 18.8969
v 10.9048 -37.4269 18.8969
v 0 -37.4198 21.8238
v 0 -38.3291 21.8238
v 0 -38.3291 21.8238
v 0 -37.4198 21.8238
v -10.9119 -37.4269 18.8969
v -10.9095 -38.3338 18.8969
v -10.9095 -38.3338 18.8969
v -10.9119 -37.4269 18.8969
v -18.8969 -37.4269 10.9048
v -18.8969 -38.3338 10.9072
v -18.8969 -38.3338 10.9072
v -18.8969 -37.4269 10.9048
v -21.8238 -37.4269 6e-06
v -21.8238 -38.3362 6e-06
v -1.07221 2.87627 0.378825
v -2.40175 2.87627 0.035718
v -1.37243 9.73842 -0.007172
v -2.40175 2.87627 0.035718
v -2.05864 9.73842 -1.1866
v -1.37243 9.73842 -0.007172
v -2.40175 2.87627 0.035718
v -3.36673 2.87627 1.00071
v -2.05864 9.73842 -1.1866
v -3.36673 2.87627 1.00071
v -3.43107 9.73842 -1.1866
v -2.05864 9.73842 -1.1866
v -3.36673 2.87627 1.00071
v -3.02363 2.87627 2.33025
v -3.43107 9.73842 -1.1866
v -3.02363 2.87627 2.33025
v -4.11728 9.73842 -0.007172
v -3.43107 9.73842 -1.1866
v -3.02363 2.87627 2.33025
v -1.69409 2.87627 2.67335
v -4.11728 9.73842 -0.007172
v -1.69409 2.87627 2.67335
v -3.43107 9.73842 1.17226
v -4.11728 9.73842 -0.007172
v -1.69409 2.87627 2.67335
v -0.729102 2.87627 1.70836
v -3.43107 9.73842 1.17226
v -0.729102 2.87627 1.70836
v -2.05864 9.73842 1.17226
v -3.43107 9.73842 1.17226
v -0.729102 2.87627 1.70836
v -1.07221 2.87627 0.378825
v -2.05864 9.73842 1.17226
v -1.07221 2.87627 0.378825
v -1.37243 9.73842 -0.007172
v -2.05864 9.73842 1.17226
v 0 -3.98587 1.36526
v -1.17943 -3.98587 2.05147
v -1.07221 2.87627 0.378825
v -1.17943 -3.98587 2.05147
v -1.17943 -3.98587 2.05147
v -1.17943 -3.98587 3.4239
v -2.40175 2.87627 0.035718
v -1.17943 -3.98587 3.4239
v -1.17943 -3.98587 3.4239
v 0 -3.98587 4.11012
v -3.36673 2.87627 1.00071
v 0 -3.98587 4.11012
v -3.02363 2.87627 2.33025
v -3.36673 2.87627 1.00071
v 0 -3.98587 4.11012
v 1.17943 -3.98587 3.4239
v -3.02363 2.87627 2.33025
v 1.17943 -3.98587 3.4239
v 1.17943 -3.98587 3.4239
v 1.17943 -3.98587 2.05147
v -1.69409 2.87627 2.67335
v 1.17943 -3.98587 2.05147
v -1.69409 2.87627 2.67335
v 1.17943 -3.98587 2.05147
v 0 -3.98587 1.36526
v -0.729102 2.87627 1.70836
v 0 -3.98587 1.36526
v 1.07221 -10.848 0.378827
v 0.729102 -10.848 1.70836
v 0 -3.98587 1.36526
v 0.729102 -10.848 1.70836
v 0.729102 -10.848 1.70836
v 1.69409 -10.848 2.67335
v -1.17943 -3.98587 2.05147
v 1.69409 -10.848 2.67335
v -1.17943 -3.98587 3.4239
v -1.17943 -3.98587 2.05147
v 1.69409 -10.848 2.67335
v 3.02363 -10.848 2.33025
v -1.17943 -3.98587 3.4239
v 3.02363 -10.848 2.33025
v 3.02363 -10.848 2.33025
v 3.36673 -10.848 1.00071
v 0 -3.98587 4.11012
v 3.36673 -10.848 1.00071
v 3.36673 -10.848 1.00071
v 2.40175 -10.848 0.03572
v 1.17943 -3.98587 3.4239
v 2.40175 -10.848 0.03572
v 1.17943 -3.98587 2.05147
v 1.17943 -3.98587 3.4239
v 2.40175 -10.848 0.03572
v 1.07221 -10.848 0.378827
v 1.17943 -3.98587 2.05147
v 1.07221 -10.848 0.378827
v 1.37243 -17.7101 -0.007168
v 2.05864 -17.7101 1.17226
v 1.07221 -10.848 0.378827
v 2.05864 -17.7101 1.17226
v 2.05864 -17.7101 1.17226
v 3.43107 -17.7101 1.17226
v 0.729102 -10.848 1.70836
v 3.43107 -17.7101 1.17226
v 1.69409 -10.848 2.67335
v 3.43107 -17.7101 1.17226
v 4.11728 -17.7101 -0.007168
v 1.69409 -10.848 2.67335
v 4.11728 -17.7101 -0.007168
v 4.11728 -17.7101 -0.007168
v 3.43107 -17.7101 -1.1866
v 3.02363 -10.848 2.33025
v 3.43107 -17.7101 -1.1866
v 3.36673 -10.848 1.00071
v 3.02363 -10.848 2.33025
v 3.43107 -17.7101 -1.1866
v 2.05864 -17.7101 -1.1866
v 3.36673 -10.848 1.00071
v 2.05864 -17.7101 -1.1866
v 2.05864 -17.7101 -1.1866
v 1.37243 -17.7101 -0.007168
v 2.40175 -10.848 0.03572
v 1.37243 -17.7101 -0.007168
v -5.48971 -17.7101 -0.007168
v -4.73916 -17.7101 -2.73058
v -5.48971 -23.1999 -0.007166
v -4.73916 -23.1999 -2.73058
v -2.74485 -17.7101 -4.74634
v -2.74485 -23.1999 -4.74634
v 0 -17.7101 -5.47544
v 0 -23.1999 -5.47544
v 2.74485 -17.7101 -4.74634
v 2.74485 -23.1999 -4.74634
v 2.74485 -17.7101 -4.74634
v 4.73916 -17.7101 -2.73058
v 4.73916 -23.1999 -2.73058
v 5.48971 -17.7101 -0.007168
v 5.48971 -23.1999 -0.007166
v 4.73916 -17.7101 2.73769
v 4.73916 -23.1999 2.73769
v 2.74485 -17.7101 4.73199
v 2.74485 -23.1999 4.73199
v 0 -17.7101 5.48254
v 0 -23.1999 5.48254
v 0 -17.7101 5.48254
v -2.74485 -17.7101 4.73199
v 0 -23.1999 5.48254
v -2.74485 -23.1999 4.73199
v -4.73916 -17.7101 2.71624
v -4.73916 -23.1999 2.73769
v -4.73916 -17.7101 -2.73058
v -5.48971 -17.7101 -0.007168
v 0 -17.7101 -0.007168
v -2.74485 -17.7101 -4.74634
v 0 -17.7101 -5.47544
v 2.74485 -17.7101 -4.74634
v 4.73916 -17.7101 -2.73058
v 5.48971 -17.7101 -0.007168
v 4.73916 -17.7101 2.73769
v 2.74485 -17.7101 4.73199
v 0 -17.7101 5.48254
v -2.74485 -17.7101 4.73199
v -4.73916 -17.7101 2.71624
v 1.07221 2.87627 -0.393165
v 2.40175 2.87627 -0.050059
v 1.37243 9.73842 -0.007172
v 2.40175 2.87627 -0.050059
v 2.05864 9.73842 1.17226
v 1.37243 9.73842 -0.007172
v 2.40175 2.87627 -0.050059
v 3.36673 2.87627 -1.01505
v 2.05864 9.73842 1.17226
v 3.36673 2.87627 -1.01505
v 3.43107 9.73842 1.17226
v 2.05864 9.73842 1.17226
v 3.36673 2.87627 -1.01505
v 3.02363 2.87627 -2.34459
v 3.43107 9.73842 1.17226
v 3.02363 2.87627 -2.34459
v 4.11728 9.73842 -0.007172
v 3.43107 9.73842 1.17226
v 3.02363 2.87627 -2.34459
v 1.69409 2.87627 -2.68769
v 4.11728 9.73842 -0.007172
v 1.69409 2.87627 -2.68769
v 3.43107 9.73842 -1.1866
v 4.11728 9.73842 -0.007172
v 1.69409 2.87627 -2.68769
v 0.729102 2.87627 -1.7227
v 3.43107 9.73842 -1.1866
v 0.729102 2.87627 -1.7227
v 2.05864 9.73842 -1.1866
v 3.43107 9.73842 -1.1866
v 0.729102 2.87627 -1.7227
v 1.07221 2.87627 -0.393165
v 2.05864 9.73842 -1.1866
v 1.07221 2.87627 -0.393165
v 1.37243 9.73842 -0.007172
v 2.05864 9.73842 -1.1866
v 0 -3.98587 -1.35815
v 1.17943 -3.98587 -2.04437
v 1.07221 2.87627 -0.393165
v 1.17943 -3.98587 -2.04437
v 1.17943 -3.98587 -2.04437
v 1.17943 -3.98587 -3.4168
v 2.40175 2.87627 -0.050059
v 1.17943 -3.98587 -3.4168
v 1.17943 -3.98587 -3.4168
v 0 -3.98587 -4.10301
v 3.36673 2.87627 -1.01505
v 0 -3.98587 -4.10301
v 3.02363 2.87627 -2.34459
v 3.36673 2.87627 -1.01505
v 0 -3.98587 -4.10301
v -1.17943 -3.98587 -3.4168
v 3.02363 2.87627 -2.34459
v -1.17943 -3.98587 -3.4168
v -1.17943 -3.98587 -3.4168
v -1.17943 -3.98587 -2.04437
v 1.69409 2.87627 -2.68769
v -1.17943 -3.98587 -2.04437
v -1.17943 -3.98587 -2.04437
v 0 -3.98587 -1.35815
v 0.729102 2.87627 -1.7227
v 0 -3.98587 -1.35815
v -1.07221 -10.848 -0.393163
v -0.729102 -10.848 -1.7227
v 0 -3.98587 -1.35815
v -0.729102 -10.848 -1.7227
v -0.729102 -10.848 -1.7227
v -1.69409 -10.848 -2.68769
v 1.17943 -3.98587 -2.04437
v -1.69409 -10.848 -2.68769
v 1.17943 -3.98587 -3.4168
v 1.17943 -3.98587 -2.04437
v -1.69409 -10.848 -2.68769
v -3.02363 -10.848 -2.34459
v 1.17943 -3.98587 -3.4168
v -3.02363 -10.848 -2.34459
v -3.02363 -10.848 -2.34459
v -3.36673 -10.848 -1.01505
v 0 -3.98587 -4.10301
v -3.36673 -10.848 -1.01505
v -3.36673 -10.848 -1.01505
v -2.40175 -10.848 -0.050057
v -1.17943 -3.98587 -3.4168
v -2.40175 -10.848 -0.050057
v -1.17943 -3.98587 -2.04437
v -1.17943 -3.98587 -3.4168
v -2.40175 -10.848 -0.050057
v -1.07221 -10.848 -0.393163
v -1.17943 -3.98587 -2.04437
v -1.07221 -10.848 -0.393163
v -1.37243 -17.7101 -0.007168
v -2.05864 -17.7101 -1.1866
v -1.07221 -10.848 -0.393163
v -2.05864 -17.7101 -1.1866
v -2.05864 -17.7101 -1.1866
v -3.43107 -17.7101 -1.1866
v -0.729102 -10.848 -1.7227
v -3.43107 -17.7101 -1.1866
v -3.43107 -17.7101 -1.1866
v -4.11728 -17.7101 -0.007168
v -1.69409 -10.848 -2.68769
v -4.11728 -17.7101 -0.007168
v -4.11728 -17.7101 -0.007168
v -3.43107 -17.7101 1.17226
v -3.02363 -10.848 -2.34459
v -3.43107 -17.7101 1.17226
v -3.36673 -10.848 -1.01505
v -3.02363 -10.848 -2.34459
v -3.43107 -17.7101 1.17226
v -2.05864 -17.7101 1.17226
v -3.36673 -10.848 -1.01505
v -2.05864 -17.7101 1.17226
v -2.05864 -17.7101 1.17226
v -1.37243 -17.7101 -0.007168
v -2.40175 -10.848 -0.050057
v -1.37243 -17.7101 -0.007168
v -1.37243 -17.7101 -0.007168
v -0.686214 -17.7101 1.17226
v -1.37243 9.73842 -0.007172
v -0.686214 9.73842 1.17226
v -0.686214 -17.7101 1.17226
v 0.686214 -17.7101 1.17226
v -0.686214 9.73842 1.17226
v 0.686214 9.73842 1.17226
v 0.686214 -17.7101 1.17226
v 1.37243 -17.7101 -0.007168
v 0.686214 9.73842 1.17226
v 1.37243 9.73842 -0.007172
v 1.37243 -17.7101 -0.007168
v 0.686214 -17.7101 -1.1866
v 1.37243 9.73842 -0.007172
v 0.686214 9.73842 -1.1866
v 0.686214 -17.7101 -1.1866
v -0.686214 -17.7101 -1.1866
v 0.686214 9.73842 -1.1866
v -0.686214 9.73842 -1.1866
v -0.686214 -17.7101 -1.1866
v -1.37243 -17.7101 -0.007168
v -0.686214 9.73842 -1.1866
v -1.37243 9.73842 -0.007172
v -5.48971 -23.1999 -0.007166
v -4.73916 -23.1999 -2.73058
v -21.8238 -37.4269 6e-06
v -18.8969 -37.4269 -10.9048
v -2.74485 -23.1999 -4.74634
v -2.74485 -23.1999 -4.74634
v -10.9048 -37.4269 -18.8969
v -2.74485 -23.1999 -4.74634
v 0 -23.1999 -5.47544
v 0 -37.4269 -21.8167
v 2.74485 -23.1999 -4.74634
v 10.9119 -37.4269 -18.8969
v 4.73916 -23.1999 -2.73058
v 18.8969 -37.4269 -10.9048
v 5.48971 -23.1999 -0.007166
v 18.8969 -37.4269 -10.9048
v 21.8238 -37.4269 6e-06
v 4.73916 -23.1999 2.73769
v 18.8969 -37.4269 10.9119
v 2.74485 -23.1999 4.73199
v 18.8969 -37.4269 10.9119
v 2.74485 -23.1999 4.73199
v 10.9048 -37.4269 18.8969
v 2.74485 -23.1999 4.73199
v 0 -23.1999 5.48254
v 10.9048 -37.4269 18.8969
v 0 -37.4198 21.8238
v -2.74485 -23.1999 4.73199
v -10.9119 -37.4269 18.8969
v -2.74485 -23.1999 4.73199
v -4.73916 -23.1999 2.73769
v -10.9119 -37.4269 18.8969
v -18.8969 -37.4269 10.9048
v 0 -36.8566 6e-06
v -10.8843 -34.4847 6.28179
v -12.5693 -34.4847 -0.001038
v -6.27594 -34.4847 10.8819
v 0.000452 -34.4762 12.5678
v 6.28497 -34.4847 10.8823
v 10.8835 -34.4848 6.28294
v 12.5695 -34.4846 -0.00156
v 10.8841 -34.4846 -6.28491
v 6.27628 -34.4846 -10.8842
v -0.000589 -34.4847 -12.5613
v -6.28477 -34.4847 -10.8842
v -10.884 -34.4846 -6.27665
v -20.9308 -38.485 6e-06
v -19.1461 -38.7825 6e-06
v -16.5781 -38.7807 9.56939
v -18.1238 -38.4828 10.4612
v -18.1237 -38.485 -10.4583
v -16.5785 -38.7824 -9.56605
v -10.461 -38.485 -18.1236
v -9.56916 -38.7826 -16.5777
v -9.56987 -38.7805 16.579
v -10.4628 -38.4828 18.124
v 0 -38.7754 19.1461
v 0 -38.4779 20.9308
v 9.56941 -38.7807 16.5782
v 10.4612 -38.4828 18.1238
v 16.5784 -38.7807 9.57127
v 18.1237 -38.4828 10.4632
v 19.1462 -38.7825 6e-06
v 20.9308 -38.485 6e-06
v 16.578 -38.7825 -9.56933
v 18.1238 -38.485 -10.4611
v 9.56974 -38.7824 -16.5787
v 10.4629 -38.485 -18.1241
v 0 -38.7824 -19.1395
v 0 -38.485 -20.9238
v -21.8238 -38.3362 6e-06
v -18.8969 -38.3362 -10.9048
v -18.8969 -38.3338 10.9072
v -10.9095 -38.3338 18.8969
v 0 -38.3291 21.8238
v 10.9072 -38.3338 18.8969
v 18.8969 -38.3338 10.9095
v 21.8238 -38.3362 6e-06
v 18.8969 -38.3362 -10.9072
v 10.9095 -38.3362 -18.8969
v 0 -38.3362 -21.8167
v -10.9072 -38.3362 -18.8969
v -10.8843 -34.4847 6.28179
v -15.1695 -36.7945 8.75672
v -17.5184 -36.7961 6e-06
v -12.5693 -34.4847 -0.001038
v -6.27594 -34.4847 10.8819
v -8.7532 -36.7952 15.1659
v 0.000452 -34.4762 12.5678
v 0 -36.7889 17.5188
v -15.1677 -36.7963 -8.75137
v -10.884 -34.4846 -6.27665
v -8.75771 -36.7956 -15.1713
v -6.28477 -34.4847 -10.8842
v 6.28497 -34.4847 10.8823
v 8.75647 -36.7946 15.1691
v 10.8835 -34.4848 6.28294
v 15.1692 -36.7946 8.75792
v 12.5695 -34.4846 -0.00156
v 17.5182 -36.7961 6e-06
v 10.8841 -34.4846 -6.28491
v 15.1698 -36.7959 -8.75683
v 6.27628 -34.4846 -10.8842
v 8.75351 -36.7966 -15.1664
v -0.000589 -34.4847 -12.5613
v 0 -36.7964 -17.5093
v -19.1461 -38.7825 6e-06
v -16.5781 -38.7807 9.56939
v -9.56987 -38.7805 16.579
v 0 -38.7754 19.1461
v 9.56941 -38.7807 16.5782
v 16.5784 -38.7807 9.57127
v 19.1462 -38.7825 6e-06
v 16.578 -38.7825 -9.56933
v 9.56974 -38.7824 -16.5787
v 0 -38.7824 -19.1395
v -9.56916 -38.7826 -16.5777
v -16.5785 -38.7824 -9.56605
vt 1 0
vt 1 1
vt 0 1
vt 0.486055 0.984006
vt 0.986055 0.984006
vt 0.986055 0.942339
vt 0.486055 0.942339
vt 0.986055 0.984006
vt 0.986055 0.942339
vt 0.486055 0.984006
vt 0.486055 0.942339
vt 0.486055 0.984006
vt 0.986055 0.984006
vt 0.986055 0.942339
vt 0.486055 0.942339
vt 0.486055 0.984006
vt 0.986055 0.984006
vt 0.986055 0.942339
vt 0.486055 0.942339
vt 0.486055 0.984006
vt 0.986055 0.984006
vt 0.986055 0.942339
vt 0.486055 0.942339
vt 0.486055 0.98411
vt 0.986055 0.98411
vt 0.986055 0.942443
vt 0.486055 0.942443
vt 0.486055 0.984006
vt 0.986055 0.984006
vt 0.986055 0.942339
vt 0.486055 0.942339
vt 0.486055 0.98411
vt 0.986055 0.98411
vt 0.986055 0.942443
vt 0.486055 0.942443
vt 0.486055 0.984006
vt 0.986055 0.984006
vt 0.986055 0.942339
vt 0.486055 0.942339
vt 0.486055 0.984006
vt 0.986055 0.984006
vt 0.986055 0.942339
vt 0.486055 0.942339
vt 0.486055 0.984006
vt 0.986055 0.984006
vt 0.986055 0.942339
vt 0.486055 0.942339
vt 0.486055 0.98411
vt 0.986055 0.98411
vt 0.986055 0.942443
vt 0.486055 0.942443
vt 0.292384 0.113071
vt 0.308638 0.113071
vt 0.295869 0.028937
vt 0.308638 0.113071
vt 0.304282 0.028937
vt 0.295869 0.028937
vt 0.308638 0.113071
vt 0.320536 0.113071
vt 0.304282 0.028937
vt 0.320536 0.113071
vt 0.321109 0.028937
vt 0.304282 0.028937
vt 0.320536 0.113071
vt 0.316181 0.113071
vt 0.321109 0.028937
vt 0.316181 0.113071
vt 0.329523 0.028937
vt 0.321109 0.028937
vt 0.316181 0.113071
vt 0.299927 0.113071
vt 0.329523 0.028937
vt 0.299927 0.113071
vt 0.321109 0.028937
vt 0.329523 0.028937
vt 0.299927 0.113071
vt 0.288029 0.113071
vt 0.321109 0.028937
vt 0.288029 0.113071
vt 0.304282 0.028937
vt 0.321109 0.028937
vt 0.288029 0.113071
vt 0.292384 0.113071
vt 0.304282 0.028937
vt 0.292384 0.113071
vt 0.295869 0.028937
vt 0.304282 0.028937
vt 0.279042 0.197205
vt 0.293615 0.197205
vt 0.292384 0.113071
vt 0.293615 0.197205
vt 0.293615 0.197205
vt 0.293615 0.197205
vt 0.308638 0.113071
vt 0.293615 0.197205
vt 0.293615 0.197205
vt 0.279042 0.197205
vt 0.320536 0.113071
vt 0.279042 0.197205
vt 0.316181 0.113071
vt 0.320536 0.113071
vt 0.279042 0.197205
vt 0.26447 0.197205
vt 0.316181 0.113071
vt 0.26447 0.197205
vt 0.26447 0.197205
vt 0.26447 0.197205
vt 0.299927 0.113071
vt 0.26447 0.197205
vt 0.299927 0.113071
vt 0.26447 0.197205
vt 0.279042 0.197205
vt 0.288029 0.113071
vt 0.279042 0.197205
vt 0.2657 0.28134
vt 0.270055 0.28134
vt 0.279042 0.197205
vt 0.270055 0.28134
vt 0.270055 0.28134
vt 0.258157 0.28134
vt 0.293615 0.197205
vt 0.258157 0.28134
vt 0.293615 0.197205
vt 0.293615 0.197205
vt 0.258157 0.28134
vt 0.241904 0.28134
vt 0.293615 0.197205
vt 0.241904 0.28134
vt 0.241904 0.28134
vt 0.237548 0.28134
vt 0.279042 0.197205
vt 0.237548 0.28134
vt 0.237548 0.28134
vt 0.249447 0.28134
vt 0.26447 0.197205
vt 0.249447 0.28134
vt 0.26447 0.197205
vt 0.26447 0.197205
vt 0.249447 0.28134
vt 0.2657 0.28134
vt 0.26447 0.197205
vt 0.2657 0.28134
vt 0.262215 0.365474
vt 0.253802 0.365474
vt 0.2657 0.28134
vt 0.253802 0.365474
vt 0.253802 0.365474
vt 0.236975 0.365474
vt 0.270055 0.28134
vt 0.236975 0.365474
vt 0.258157 0.28134
vt 0.236975 0.365474
vt 0.228562 0.365474
vt 0.258157 0.28134
vt 0.228562 0.365474
vt 0.228562 0.365474
vt 0.236975 0.365474
vt 0.241904 0.28134
vt 0.236975 0.365474
vt 0.237548 0.28134
vt 0.241904 0.28134
vt 0.236975 0.365474
vt 0.253802 0.365474
vt 0.237548 0.28134
vt 0.253802 0.365474
vt 0.253802 0.365474
vt 0.262215 0.365474
vt 0.249447 0.28134
vt 0.262215 0.365474
vt 0.806109 0.894513
vt 0.824859 0.894513
vt 0.806109 0.669513
vt 0.824859 0.669513
vt 0.843609 0.894513
vt 0.843609 0.669513
vt 0.862359 0.894513
vt 0.862359 0.669513
vt 0.881109 0.894513
vt 0.881109 0.669513
vt 0.881109 0.894513
vt 0.899859 0.894513
vt 0.899859 0.669513
vt 0.918609 0.894513
vt 0.918609 0.669513
vt 0.937359 0.894513
vt 0.937359 0.669513
vt 0.956109 0.894513
vt 0.956109 0.669513
vt 0.974859 0.894513
vt 0.974859 0.669513
vt 0.749859 0.894513
vt 0.768609 0.894513
vt 0.749859 0.669513
vt 0.768609 0.669513
vt 0.787359 0.894513
vt 0.787359 0.669513
vt 0.714151 0.814648
vt 0.723653 0.77919
vt 0.652737 0.77919
vt 0.688195 0.840604
vt 0.652737 0.850105
vt 0.617279 0.840604
vt 0.591322 0.814648
vt 0.581822 0.77919
vt 0.591322 0.743732
vt 0.617279 0.717775
vt 0.652737 0.708274
vt 0.688195 0.717775
vt 0.714151 0.743732
vt 0.145054 0.113071
vt 0.128801 0.113071
vt 0.141569 0.028937
vt 0.128801 0.113071
vt 0.133156 0.028937
vt 0.141569 0.028937
vt 0.128801 0.113071
vt 0.116902 0.113071
vt 0.133156 0.028937
vt 0.116902 0.113071
vt 0.116329 0.028937
vt 0.133156 0.028937
vt 0.116902 0.113071
vt 0.121257 0.113071
vt 0.116329 0.028937
vt 0.121257 0.113071
vt 0.107915 0.028937
vt 0.116329 0.028937
vt 0.121257 0.113071
vt 0.137511 0.113071
vt 0.107915 0.028937
vt 0.137511 0.113071
vt 0.116329 0.028937
vt 0.107915 0.028937
vt 0.137511 0.113071
vt 0.149409 0.113071
vt 0.116329 0.028937
vt 0.149409 0.113071
vt 0.133156 0.028937
vt 0.116329 0.028937
vt 0.149409 0.113071
vt 0.145054 0.113071
vt 0.133156 0.028937
vt 0.145054 0.113071
vt 0.141569 0.028937
vt 0.133156 0.028937
vt 0.158396 0.197205
vt 0.143823 0.197205
vt 0.145054 0.113071
vt 0.143823 0.197205
vt 0.143823 0.197205
vt 0.143823 0.197205
vt 0.128801 0.113071
vt 0.143823 0.197205
vt 0.143823 0.197205
vt 0.158396 0.197205
vt 0.116902 0.113071
vt 0.158396 0.197205
vt 0.121257 0.113071
vt 0.116902 0.113071
vt 0.158396 0.197205
vt 0.172968 0.197205
vt 0.121257 0.113071
vt 0.172968 0.197205
vt 0.172968 0.197205
vt 0.172968 0.197205
vt 0.137511 0.113071
vt 0.172968 0.197205
vt 0.172968 0.197205
vt 0.158396 0.197205
vt 0.149409 0.113071
vt 0.158396 0.197205
vt 0.171738 0.28134
vt 0.167383 0.28134
vt 0.158396 0.197205
vt 0.167383 0.28134
vt 0.167383 0.28134
vt 0.179281 0.28134
vt 0.143823 0.197205
vt 0.179281 0.28134
vt 0.143823 0.197205
vt 0.143823 0.197205
vt 0.179281 0.28134
vt 0.195534 0.28134
vt 0.143823 0.197205
vt 0.195534 0.28134
vt 0.195534 0.28134
vt 0.19989 0.28134
vt 0.158396 0.197205
vt 0.19989 0.28134
vt 0.19989 0.28134
vt 0.187991 0.28134
vt 0.172968 0.197205
vt 0.187991 0.28134
vt 0.172968 0.197205
vt 0.172968 0.197205
vt 0.187991 0.28134
vt 0.171738 0.28134
vt 0.172968 0.197205
vt 0.171738 0.28134
vt 0.175223 0.365474
vt 0.183636 0.365474
vt 0.171738 0.28134
vt 0.183636 0.365474
vt 0.183636 0.365474
vt 0.200463 0.365474
vt 0.167383 0.28134
vt 0.200463 0.365474
vt 0.200463 0.365474
vt 0.208876 0.365474
vt 0.179281 0.28134
vt 0.208876 0.365474
vt 0.208876 0.365474
vt 0.200463 0.365474
vt 0.195534 0.28134
vt 0.200463 0.365474
vt 0.19989 0.28134
vt 0.195534 0.28134
vt 0.200463 0.365474
vt 0.183636 0.365474
vt 0.19989 0.28134
vt 0.183636 0.365474
vt 0.183636 0.365474
vt 0.175223 0.365474
vt 0.187991 0.28134
vt 0.175223 0.365474
vt 0.083196 0.020498
vt 0.023612 0.020498
vt 0.083196 0.377998
vt 0.023612 0.377998
vt 0.082964 0.020498
vt 0.02338 0.020498
vt 0.082964 0.377998
vt 0.02338 0.377998
vt 0.083213 0.020498
vt 0.023629 0.020498
vt 0.083213 0.377998
vt 0.023629 0.377998
vt 0.083124 0.020498
vt 0.023541 0.020498
vt 0.083124 0.377998
vt 0.023541 0.377998
vt 0.083035 0.020498
vt 0.023452 0.020498
vt 0.083035 0.377998
vt 0.023452 0.377998
vt 0.083284 0.020498
vt 0.023701 0.020498
vt 0.083284 0.377998
vt 0.023701 0.377998
vt 0.289164 0.733543
vt 0.286247 0.744428
vt 0.528643 0.733543
vt 0.493642 0.864168
vt 0.278278 0.752397
vt 0.278278 0.752397
vt 0.398018 0.959792
vt 0.278278 0.752397
vt 0.267393 0.755313
vt 0.267393 0.994793
vt 0.256508 0.752397
vt 0.136768 0.959792
vt 0.248539 0.744428
vt 0.041144 0.864168
vt 0.245622 0.733543
vt 0.041144 0.864168
vt 0.006143 0.733543
vt 0.248539 0.722657
vt 0.041144 0.602918
vt 0.256508 0.714688
vt 0.041144 0.602918
vt 0.256508 0.714688
vt 0.136768 0.507293
vt 0.256508 0.714688
vt 0.267393 0.711772
vt 0.136768 0.507293
vt 0.267393 0.472293
vt 0.278278 0.714688
vt 0.398018 0.507293
vt 0.278278 0.714688
vt 0.286247 0.722657
vt 0.398018 0.507293
vt 0.493642 0.602918
vt 0.67901 0.321016
vt 0.530519 0.239152
vt 0.518549 0.321012
vt 0.596463 0.178492
vt 0.679015 0.157904
vt 0.758246 0.176504
vt 0.825516 0.23847
vt 0.840136 0.321018
vt 0.820876 0.400233
vt 0.758907 0.466174
vt 0.679004 0.484118
vt 0.597788 0.464198
vt 0.535155 0.401565
vt 0.375928 0.321016
vt 0.40177 0.321016
vt 0.438917 0.182398
vt 0.416531 0.169473
vt 0.416533 0.472558
vt 0.438911 0.459638
vt 0.52747 0.583493
vt 0.540396 0.561105
vt 0.540385 0.08091
vt 0.527467 0.058534
vt 0.67901 0.043777
vt 0.67901 0.017934
vt 0.817629 0.080921
vt 0.830553 0.058536
vt 0.919108 0.182396
vt 0.941488 0.169474
vt 0.956251 0.321016
vt 0.982094 0.321016
vt 0.919103 0.459634
vt 0.941489 0.472558
vt 0.817634 0.561119
vt 0.830555 0.583499
vt 0.67901 0.598262
vt 0.67901 0.6241
vt 0.362997 0.321016
vt 0.405335 0.479023
vt 0.405335 0.163009
vt 0.521004 0.04734
vt 0.67901 0.00500298
vt 0.837017 0.04734
vt 0.952686 0.163009
vt 0.995024 0.321016
vt 0.952686 0.479023
vt 0.837017 0.594692
vt 0.67901 0.637029
vt 0.521004 0.594692
vt 0.530519 0.239152
vt 0.459316 0.194176
vt 0.42534 0.321016
vt 0.518549 0.321012
vt 0.596463 0.178492
vt 0.552201 0.101374
vt 0.679015 0.157904
vt 0.67901 0.06734
vt 0.459343 0.447841
vt 0.535155 0.401565
vt 0.552156 0.540735
vt 0.597788 0.464198
vt 0.758246 0.176504
vt 0.805847 0.101328
vt 0.825516 0.23847
vt 0.8987 0.194178
vt 0.840136 0.321018
vt 0.932677 0.321016
vt 0.820876 0.400233
vt 0.898707 0.447858
vt 0.758907 0.466174
vt 0.805825 0.540665
vt 0.679004 0.484118
vt 0.67901 0.574658
vt 0.40177 0.321016
vt 0.438917 0.182398
vt 0.540385 0.08091
vt 0.67901 0.043777
vt 0.817629 0.080921
vt 0.919108 0.182396
vt 0.956251 0.321016
vt 0.919103 0.459634
vt 0.817634 0.561119
vt 0.67901 0.598262
vt 0.540396 0.561105
vt 0.438911 0.459638
vn -0 -0 1
vn -0 -0 1
vn -0 -0 1
vn -0.7527 -0.6566 -0.0479
vn -0.9081 0.4184 0.0152
vn -0.7947 0.4184 -0.4398
vn -0.6282 -0.6562 -0.4181
vn -0.7947 0.4183 -0.4398
vn -0.4676 0.4186 -0.7785
vn -0.6282 -0.6563 -0.4179
vn -0.3351 -0.6562 -0.6761
vn -0.3352 -0.6562 -0.6761
vn -0.4677 0.4186 -0.7785
vn -0.0164 0.4184 -0.9081
vn 0.0478 -0.6565 -0.7528
vn 0.0477 -0.6566 -0.7527
vn -0.0163 0.4184 -0.9081
vn 0.4408 0.4179 -0.7944
vn 0.4177 -0.6566 -0.628
vn 0.4177 -0.6566 -0.628
vn 0.4408 0.4179 -0.7944
vn 0.778 0.4184 -0.4687
vn 0.6761 -0.6561 -0.3352
vn 0.676 -0.6562 -0.3353
vn 0.778 0.4185 -0.4687
vn 0.9081 0.4184 -0.0156
vn 0.7527 -0.6566 0.0478
vn 0.7527 -0.6566 0.0478
vn 0.9081 0.4184 -0.0155
vn 0.7945 0.418 0.4404
vn 0.6279 -0.6565 0.4181
vn 0.6279 -0.6566 0.4179
vn 0.7945 0.418 0.4405
vn 0.4686 0.4185 0.778
vn 0.3352 -0.6561 0.6761
vn 0.3353 -0.6561 0.6761
vn 0.4686 0.4185 0.778
vn 0.0156 0.4186 0.9081
vn -0.048 -0.6566 0.7527
vn -0.048 -0.6567 0.7527
vn 0.0156 0.4185 0.9081
vn -0.4405 0.418 0.7945
vn -0.4177 -0.6566 0.6281
vn -0.4176 -0.6566 0.628
vn -0.4405 0.418 0.7945
vn -0.7781 0.4184 0.4685
vn -0.6761 -0.6561 0.3353
vn -0.676 -0.6561 0.3355
vn -0.7781 0.4184 0.4685
vn -0.9082 0.4183 0.0153
vn -0.7528 -0.6565 -0.0479
vn 0.5071 -0.0517 -0.8603
vn 0.0018 -0.2401 -0.9708
vn 0.1217 -0.0879 -0.9887
vn 0.4837 -0.1464 -0.8629
vn 0.4923 -0.2501 -0.8338
vn 0.897 -0.0498 -0.4393
vn -0.4756 -0.2518 -0.8428
vn -0.8357 -0.2837 -0.4703
vn -0.3822 -0.2137 -0.899
vn -0.4824 -0.2955 -0.8246
vn -0.4694 -0.3404 -0.8147
vn 0.0686 -0.2364 -0.9692
vn -0.9853 -0.1711 -0.0007
vn -0.8566 -0.0765 0.5103
vn -0.9842 -0.1235 -0.127
vn -0.9788 -0.2047 0.0014
vn -0.9725 -0.2328 0.0112
vn -0.8101 -0.239 -0.5353
vn -0.5119 0.112 0.8517
vn 0.0026 0.1867 0.9824
vn -0.6068 0.094 0.7893
vn -0.4894 0.0623 0.8698
vn -0.4978 -0.0175 0.8671
vn -0.8953 -0.0581 0.4416
vn 0.4584 0.3091 0.8332
vn 0.8455 0.2325 0.4806
vn 0.3645 0.2143 0.9062
vn 0.4873 0.2223 0.8445
vn 0.497 0.0829 0.8638
vn -0.0858 0.1304 0.9877
vn 0.9717 0.2364 0.001
vn 0.8645 0.0184 -0.5024
vn 0.9825 0.1253 0.138
vn 0.9923 0.1236 0.0026
vn 0.9993 -0.0382 0.0019
vn 0.8155 0.1389 0.5619
vn -0.254 -0.0303 -0.9667
vn -0.6801 -0.2789 -0.678
vn -0.0001 -0.1701 -0.9854
vn -0.2677 -0.1885 -0.9449
vn -0.9239 -0.2787 -0.2621
vn -0.9089 -0.3254 0.261
vn -0.8386 -0.2503 -0.4839
vn -0.9074 -0.3532 -0.2277
vn -0.6901 -0.2182 0.69
vn -0.2492 -0.0931 0.964
vn -0.87 -0.0463 0.4909
vn -0.6871 -0.2223 0.6917
vn -0.8566 -0.0766 0.5103
vn -0.9852 -0.1712 -0.0008
vn 0.2492 0.0931 0.964
vn 0.6901 0.2182 0.69
vn -0.011 0.2476 0.9688
vn 0.26 0.0974 0.9607
vn 0.9088 0.3255 0.2609
vn 0.9239 0.2787 -0.2621
vn 0.811 0.3301 0.4831
vn 0.9275 0.2814 0.2461
vn 0.4584 0.3091 0.8332
vn 0.6801 0.2789 -0.678
vn 0.254 0.0303 -0.9667
vn 0.8644 0.1347 -0.4845
vn 0.6994 0.1465 -0.6996
vn -0.8645 -0.0184 -0.5024
vn -0.9717 -0.2364 0.001
vn -0.6994 -0.1465 -0.6996
vn -0.8644 -0.1347 -0.4845
vn -0.8455 -0.2325 0.4806
vn -0.4584 -0.3091 0.8332
vn -0.9275 -0.2814 0.2461
vn -0.811 -0.3301 0.4831
vn -0.9088 -0.3255 0.2609
vn -0.9239 -0.2787 -0.2621
vn -0.0026 -0.1867 0.9824
vn 0.5119 -0.112 0.8517
vn -0.26 -0.0974 0.9607
vn 0.011 -0.2476 0.9688
vn 0.8566 0.0766 0.5103
vn 0.9852 0.1712 -0.0008
vn 0.6871 0.2223 0.6917
vn 0.87 0.0463 0.4909
vn 0.8357 0.2837 -0.4703
vn 0.4756 0.2518 -0.8428
vn 0.9074 0.3532 -0.2277
vn 0.8386 0.2503 -0.4839
vn 0.9239 0.2787 -0.2621
vn 0.9089 0.3254 0.261
vn -0.0018 0.2401 -0.9708
vn -0.5071 0.0517 -0.8603
vn 0.2677 0.1885 -0.9449
vn 0.0001 0.1701 -0.9854
vn -0.9993 0.0382 0.0019
vn -0.8155 -0.1389 0.5619
vn -0.9923 -0.1236 0.0026
vn -0.9825 -0.1253 0.138
vn -0.497 -0.0829 0.8638
vn 0.0858 -0.1304 0.9877
vn -0.4873 -0.2223 0.8445
vn -0.3645 -0.2143 0.9062
vn -0.4584 -0.3091 0.8332
vn 0.4978 0.0175 0.8671
vn 0.8953 0.0581 0.4416
vn 0.4894 -0.0623 0.8698
vn 0.6068 -0.094 0.7893
vn 0.9725 0.2328 0.0112
vn 0.8101 0.239 -0.5353
vn 0.9788 0.2047 0.0014
vn 0.9842 0.1235 -0.127
vn 0.9853 0.1711 -0.0007
vn 0.8566 0.0765 0.5103
vn 0.4694 0.3404 -0.8147
vn -0.0686 0.2364 -0.9692
vn 0.4824 0.2956 -0.8246
vn 0.3822 0.2137 -0.899
vn -0.4923 0.2501 -0.8338
vn -0.897 0.0498 -0.4393
vn -0.4837 0.1464 -0.8629
vn -0.1217 0.0879 -0.9887
vn -0.9959 0.0004 0.0908
vn -0.9057 -0 -0.4239
vn -0.9079 0.4187 -0.018
vn -0.7789 0.4178 -0.4677
vn -0.5774 -0 -0.8165
vn -0.4406 0.4186 -0.7941
vn -0.0882 -0 -0.9961
vn 0.0157 0.4181 -0.9083
vn 0.4212 -0 -0.9069
vn 0.4696 0.4185 -0.7774
vn 0.4212 -0 -0.9069
vn 0.8189 -0 -0.5739
vn 0.7938 0.4179 -0.4419
vn 0.9957 -0 -0.0921
vn 0.908 0.4187 0.0164
vn 0.9056 -0 0.4241
vn 0.7778 0.4181 0.4693
vn 0.5764 -0 0.8172
vn 0.4423 0.4183 0.7933
vn 0.091 -0 0.9959
vn -0.0169 0.4189 0.9079
vn 0.0907 -0.0002 0.9959
vn -0.4257 -0 0.9049
vn -0.0169 0.4188 0.9079
vn -0.4701 0.4187 0.777
vn -0.8178 0.0013 0.5755
vn -0.7929 0.4188 0.4426
vn -0 1 -0
vn -0 1 -0
vn -0 1 -0
vn -0 1 -0
vn -0 1 -0
vn -0 1 -0
vn -0 1 -0
vn -0 1 -0
vn -0 1 -0
vn -0 1 -0
vn -0 1 -0
vn -0 1 -0
vn -0 1 -0
vn -0.5069 -0.0501 0.8605
vn -0.0017 -0.239 0.971
vn -0.1217 -0.0879 0.9887
vn -0.4837 -0.1454 0.8631
vn -0.4923 -0.2501 0.8338
vn -0.897 -0.0498 0.4393
vn 0.4758 -0.2507 0.8431
vn 0.8357 -0.2834 0.4704
vn 0.3822 -0.2137 0.899
vn 0.4825 -0.295 0.8247
vn 0.4694 -0.3404 0.8147
vn -0.0686 -0.2364 0.9692
vn 0.9852 -0.1715 0.0009
vn 0.8565 -0.0775 -0.5103
vn 0.9842 -0.1235 0.127
vn 0.9788 -0.2049 -0.0013
vn 0.9725 -0.2328 -0.0112
vn 0.8101 -0.239 0.5353
vn 0.5118 0.1105 -0.852
vn -0.0026 0.1854 -0.9827
vn 0.6068 0.094 -0.7893
vn 0.4894 0.0612 -0.8699
vn 0.4978 -0.0175 -0.8671
vn 0.8953 -0.0581 -0.4416
vn -0.4587 0.3079 -0.8335
vn -0.8456 0.2322 -0.4807
vn -0.3645 0.2143 -0.9062
vn -0.4873 0.2216 -0.8446
vn -0.497 0.0829 -0.8638
vn 0.0858 0.1304 -0.9877
vn -0.9716 0.2368 -0.0012
vn -0.8644 0.0193 0.5024
vn -0.9825 0.1253 -0.138
vn -0.9923 0.1239 -0.0025
vn -0.9993 -0.0382 -0.0019
vn -0.8155 0.1389 -0.5619
vn 0.254 -0.0305 0.9667
vn 0.6801 -0.2782 0.6783
vn 0.0001 -0.1681 0.9858
vn 0.2677 -0.1874 0.9451
vn 0.9241 -0.2782 0.2621
vn 0.9089 -0.3251 -0.2611
vn 0.8387 -0.2497 0.484
vn 0.9076 -0.3526 0.2278
vn 0.6901 -0.2175 -0.6902
vn 0.2489 -0.0932 -0.964
vn 0.8699 -0.0475 -0.4909
vn 0.687 -0.2226 -0.6917
vn 0.8565 -0.0776 -0.5103
vn 0.9852 -0.1716 0.0008
vn -0.2489 0.0932 -0.964
vn -0.6901 0.2175 -0.6902
vn 0.0109 0.2458 -0.9693
vn -0.2601 0.0965 -0.9607
vn -0.9089 0.3252 -0.2611
vn -0.9241 0.2782 0.262
vn -0.8111 0.3294 -0.4833
vn -0.9277 0.2807 -0.2463
vn -0.6801 0.2782 0.6783
vn -0.254 0.0305 0.9667
vn -0.8642 0.1359 0.4844
vn -0.6993 0.147 0.6995
vn 0.8644 -0.0193 0.5024
vn 0.9716 -0.2368 -0.0012
vn 0.6993 -0.147 0.6995
vn 0.8642 -0.1359 0.4844
vn 0.8456 -0.2322 -0.4807
vn 0.4587 -0.3079 -0.8335
vn 0.9277 -0.2807 -0.2463
vn 0.8111 -0.3294 -0.4833
vn 0.9089 -0.3252 -0.2611
vn 0.9241 -0.2782 0.262
vn 0.0026 -0.1854 -0.9827
vn -0.5118 -0.1105 -0.852
vn 0.2601 -0.0965 -0.9607
vn -0.0109 -0.2458 -0.9693
vn -0.8565 0.0776 -0.5103
vn -0.9852 0.1716 0.0008
vn -0.687 0.2226 -0.6917
vn -0.8699 0.0475 -0.4909
vn -0.8357 0.2834 0.4704
vn -0.4758 0.2507 0.8431
vn -0.9076 0.3526 0.2278
vn -0.8387 0.2497 0.484
vn -0.9241 0.2782 0.2621
vn -0.9089 0.3251 -0.2611
vn 0.0017 0.239 0.971
vn 0.5069 0.0501 0.8605
vn -0.2677 0.1874 0.9451
vn -0.0001 0.1681 0.9858
vn 0.9993 0.0382 -0.0019
vn 0.8155 -0.1389 -0.5619
vn 0.9923 -0.1239 -0.0025
vn 0.9825 -0.1253 -0.138
vn 0.497 -0.0829 -0.8638
vn -0.0858 -0.1304 -0.9877
vn 0.4873 -0.2216 -0.8446
vn 0.3645 -0.2143 -0.9062
vn -0.4978 0.0175 -0.8671
vn -0.8953 0.0581 -0.4416
vn -0.4894 -0.0612 -0.8699
vn -0.6068 -0.094 -0.7893
vn -0.9725 0.2328 -0.0112
vn -0.8101 0.239 0.5353
vn -0.9788 0.2049 -0.0013
vn -0.9842 0.1235 0.127
vn -0.9852 0.1715 0.0009
vn -0.8565 0.0775 -0.5103
vn -0.4694 0.3405 0.8147
vn 0.0686 0.2364 0.9692
vn -0.4825 0.295 0.8247
vn -0.3822 0.2137 0.899
vn 0.4923 0.2501 0.8338
vn 0.897 0.0498 0.4393
vn 0.4837 0.1454 0.8631
vn 0.1217 0.0879 0.9887
vn -0.9807 0.0182 0.1946
vn -0.653 -0 0.7574
vn -0.9817 -0 0.1905
vn -0.3264 -0 0.9452
vn -0.653 -0 0.7574
vn 0.3263 -0 0.9453
vn -0.3263 -0 0.9453
vn 0.653 -0 0.7574
vn 0.3264 -0 0.9452
vn 0.9817 -0 0.1905
vn 0.653 -0 0.7574
vn 0.9807 -0.0182 0.1946
vn 0.9807 0.0182 -0.1946
vn 0.653 -0 -0.7574
vn 0.9817 -0 -0.1905
vn 0.3264 -0 -0.9452
vn 0.653 -0 -0.7574
vn -0.3263 -0 -0.9453
vn 0.3263 -0 -0.9453
vn -0.653 -0 -0.7574
vn -0.3264 -0 -0.9452
vn -0.9817 -0 -0.1905
vn -0.653 -0 -0.7574
vn -0.9807 -0.0182 -0.1946
vn -0.9079 0.4187 -0.018
vn -0.7789 0.4179 -0.4677
vn -0.9081 0.4184 0.0152
vn -0.7947 0.4185 -0.4397
vn -0.4405 0.4186 -0.7941
vn -0.4405 0.4186 -0.7941
vn -0.4677 0.4187 -0.7785
vn -0.4405 0.4186 -0.7941
vn 0.0157 0.4181 -0.9083
vn -0.0163 0.4184 -0.9081
vn 0.4696 0.4185 -0.7774
vn 0.4408 0.4179 -0.7944
vn 0.7938 0.4179 -0.4419
vn 0.778 0.4185 -0.4687
vn 0.9079 0.4188 0.0164
vn 0.7779 0.4185 -0.4687
vn 0.9081 0.4184 -0.0155
vn 0.7778 0.4181 0.4693
vn 0.7945 0.418 0.4405
vn 0.4424 0.4183 0.7933
vn 0.7945 0.418 0.4405
vn 0.4423 0.4183 0.7933
vn 0.4685 0.4186 0.778
vn 0.4423 0.4183 0.7933
vn -0.0169 0.4189 0.9079
vn 0.4685 0.4185 0.778
vn 0.0155 0.4186 0.908
vn -0.4701 0.4187 0.777
vn -0.4406 0.4181 0.7944
vn -0.4701 0.4187 0.7769
vn -0.793 0.4188 0.4425
vn -0.4405 0.4181 0.7945
vn -0.7781 0.4185 0.4685
vn -0 -1 0.0001
vn -0.1606 -0.9827 0.0928
vn -0.1854 -0.9827 -0
vn -0.0922 -0.9826 0.161
vn -0 -0.9825 0.1861
vn 0.0922 -0.9827 0.1609
vn 0.1606 -0.9827 0.0927
vn 0.1854 -0.9827 -0
vn 0.1606 -0.9827 -0.0928
vn 0.0926 -0.9826 -0.1607
vn -0 -0.9826 -0.1855
vn -0.0927 -0.9827 -0.1606
vn -0.1607 -0.9826 -0.0927
vn -0.1644 -0.9864 0.0001
vn -0.1984 -0.9781 -0.0625
vn -0.2034 -0.972 0.1176
vn -0.1425 -0.9864 0.0824
vn -0.1424 -0.9864 -0.0822
vn -0.1406 -0.9781 -0.1535
vn -0.0822 -0.9864 -0.1424
vn -0.045 -0.9781 -0.2032
vn -0.1173 -0.972 0.2035
vn -0.0821 -0.9864 0.1426
vn -0 -0.972 0.2349
vn -0 -0.9864 0.1646
vn 0.1173 -0.972 0.2034
vn 0.0821 -0.9864 0.1426
vn 0.2034 -0.972 0.1176
vn 0.1425 -0.9864 0.0824
vn 0.2347 -0.9721 0.0001
vn 0.1644 -0.9864 0.0001
vn 0.2032 -0.9721 -0.1174
vn 0.1424 -0.9864 -0.0822
vn 0.1173 -0.9721 -0.2033
vn 0.0822 -0.9864 -0.1424
vn -0 -0.9721 -0.2347
vn -0 -0.9864 -0.1644
vn -0.1644 -0.9864 0.0001
vn -0.1424 -0.9864 -0.0822
vn -0.1425 -0.9864 0.0824
vn -0.0821 -0.9864 0.1425
vn -0 -0.9864 0.1646
vn 0.0821 -0.9864 0.1426
vn 0.1425 -0.9864 0.0824
vn 0.1644 -0.9864 0.0001
vn 0.1424 -0.9864 -0.0822
vn 0.0822 -0.9864 -0.1424
vn -0 -0.9864 -0.1644
vn -0.0822 -0.9864 -0.1424
vn 0.3662 -0.9061 -0.2117
vn 0.5082 -0.8096 -0.2936
vn 0.5871 -0.8095 0.0001
vn 0.4231 -0.9061 0.0002
vn 0.2119 -0.906 -0.3664
vn 0.2938 -0.8096 -0.5081
vn 0.0001 -0.9062 -0.4229
vn 0.0001 -0.8097 -0.5868
vn 0.5085 -0.8095 0.2937
vn 0.3666 -0.906 0.2116
vn 0.2936 -0.8095 0.5085
vn 0.2115 -0.9061 0.3664
vn -0.212 -0.9061 -0.3662
vn -0.2939 -0.8095 -0.5083
vn -0.3663 -0.9061 -0.2115
vn -0.5084 -0.8096 -0.2936
vn -0.4231 -0.9061 0.0001
vn -0.5871 -0.8095 -0
vn -0.3664 -0.906 0.2119
vn -0.5083 -0.8095 0.2938
vn -0.2114 -0.906 0.3668
vn -0.2934 -0.8096 0.5084
vn -0.0002 -0.906 0.4233
vn -0.0001 -0.8095 0.5871
vn 0.7999 -0.5984 0.0469
vn 0.7037 -0.5828 -0.4064
vn 0.4065 -0.5831 -0.7034
vn -0 -0.583 -0.8125
vn -0.4067 -0.5825 -0.7038
vn -0.7038 -0.5826 -0.4065
vn -0.8127 -0.5826 0.0001
vn -0.7037 -0.5827 0.4065
vn -0.4061 -0.5832 0.7036
vn -0 -0.5829 0.8125
vn 0.3594 -0.5981 0.7163
vn 0.6694 -0.5982 0.4406

g Plane_0_0
usemtl tag_light
f 1/1/1 2/2/2 3/3/3

g mesh_1_1
usemtl models_mapobjects_lamp_lamp_yellow
f 4/4/4 5/5/5 6/6/6
f 4/4/4 6/6/6 7/7/7
f 8/8/8 9/9/9 10/10/10
f 9/9/9 11/11/11 10/10/10
f 12/12/12 13/13/13 14/14/14
f 12/12/12 14/14/14 15/15/15
f 16/16/16 17/17/17 18/18/18
f 16/16/16 18/18/18 19/19/19
f 20/20/20 21/21/21 22/22/22
f 20/20/20 22/22/22 23/23/23
f 24/24/24 25/25/25 26/26/26
f 24/24/24 26/26/26 27/27/27
f 28/28/28 29/29/29 30/30/30
f 28/28/28 30/30/30 31/31/31
f 32/32/32 33/33/33 34/34/34
f 32/32/32 34/34/34 35/35/35
f 36/36/36 37/37/37 38/38/38
f 36/36/36 38/38/38 39/39/39
f 40/40/40 41/41/41 42/42/42
f 40/40/40 42/42/42 43/43/43
f 44/44/44 45/45/45 46/46/46
f 44/44/44 46/46/46 47/47/47
f 48/48/48 49/49/49 50/50/50
f 48/48/48 50/50/50 51/51/51
f 52/52/52 53/53/53 54/54/54
f 55/55/55 56/56/56 57/57/57
f 58/58/58 59/59/59 60/60/60
f 61/61/61 62/62/62 63/63/63
f 64/64/64 65/65/65 66/66/66
f 67/67/67 68/68/68 69/69/69
f 70/70/70 71/71/71 72/72/72
f 73/73/73 74/74/74 75/75/75
f 76/76/76 77/77/77 78/78/78
f 79/79/79 80/80/80 81/81/81
f 82/82/82 83/83/83 84/84/84
f 85/85/85 86/86/86 87/87/87
f 88/88/88 89/89/89 90/90/90
f 91/91/91 53/53/53 52/52/52
f 92/92/92 93/93/93 94/94/94
f 95/95/95 59/59/59 58/58/58
f 96/96/96 97/97/97 98/98/98
f 99/99/99 100/100/100 101/101/101
f 102/102/102 103/103/103 104/104/104
f 105/105/105 71/71/71 70/70/70
f 106/106/106 107/107/107 108/108/108
f 109/109/109 77/77/77 110/110/110
f 111/111/111 112/112/112 113/113/113
f 114/114/114 83/83/83 82/82/82
f 115/115/115 116/116/116 117/117/117
f 118/118/118 89/89/89 88/88/88
f 119/119/119 120/120/120 121/121/121
f 122/122/122 123/123/123 124/124/124
f 125/125/125 126/126/126 127/127/127
f 128/128/128 97/97/97 96/96/96
f 129/129/129 130/130/130 131/131/131
f 132/132/132 103/103/103 102/102/102
f 133/133/133 134/134/134 135/135/135
f 136/136/136 137/137/137 138/138/138
f 139/139/139 140/140/140 141/141/141
f 142/142/142 112/112/112 111/111/111
f 143/143/143 144/144/144 145/145/145
f 146/146/146 116/116/116 115/115/115
f 147/147/147 148/148/148 149/149/149
f 150/150/150 151/151/151 119/119/119
f 152/152/152 153/153/153 154/154/154
f 155/155/155 126/126/126 125/125/125
f 156/156/156 157/157/157 158/158/158
f 159/159/159 160/160/160 161/161/161
f 162/162/162 163/163/163 164/164/164
f 165/165/165 134/134/134 133/133/133
f 166/166/166 167/167/167 168/168/168
f 169/169/169 140/140/140 139/139/139
f 170/170/170 171/171/171 172/172/172
f 171/171/171 173/173/173 172/172/172
f 171/171/171 174/174/174 173/173/173
f 174/174/174 175/175/175 173/173/173
f 174/174/174 176/176/176 175/175/175
f 176/176/176 177/177/177 175/175/175
f 176/176/176 178/178/178 177/177/177
f 178/178/178 179/179/179 177/177/177
f 180/180/180 181/181/181 179/179/179
f 181/181/181 182/182/182 179/179/179
f 181/181/181 183/183/183 182/182/182
f 183/183/183 184/184/184 182/182/182
f 183/183/183 185/185/185 184/184/184
f 185/185/185 186/186/186 184/184/184
f 185/185/185 187/187/187 186/186/186
f 187/187/187 188/188/188 186/186/186
f 187/187/187 189/189/189 188/188/188
f 189/189/189 190/190/190 188/188/188
f 191/191/191 192/192/192 193/193/193
f 192/192/192 194/194/194 193/193/193
f 192/192/192 195/195/195 194/194/194
f 195/195/195 196/196/196 194/194/194
f 195/195/195 170/170/170 196/196/196
f 170/170/170 172/172/172 196/196/196
f 197/197/197 198/198/198 199/199/199
f 200/200/200 197/197/197 199/199/199
f 201/201/201 200/200/200 199/199/199
f 202/202/202 201/201/201 199/199/199
f 203/203/203 202/202/202 199/199/199
f 204/204/204 203/203/203 199/199/199
f 205/205/205 204/204/204 199/199/199
f 206/206/206 205/205/205 199/199/199
f 207/207/207 206/206/206 199/199/199
f 208/208/208 207/207/207 199/199/199
f 209/209/209 208/208/208 199/199/199
f 198/198/198 209/209/209 199/199/199
f 210/210/210 211/211/211 212/212/212
f 213/213/213 214/214/214 215/215/215
f 216/216/216 217/217/217 218/218/218
f 219/219/219 220/220/220 221/221/221
f 222/222/222 223/223/223 224/224/224
f 225/225/225 226/226/226 227/227/227
f 228/228/228 229/229/229 230/230/230
f 231/231/231 232/232/232 233/233/233
f 234/234/234 235/235/235 236/236/236
f 237/237/237 238/238/238 239/239/239
f 240/240/240 241/241/241 242/242/242
f 243/243/243 244/244/244 245/245/245
f 246/246/246 247/247/247 248/248/248
f 249/249/249 211/211/211 210/210/210
f 250/250/250 251/251/251 252/252/252
f 253/253/253 217/217/217 216/216/216
f 254/254/254 255/255/255 256/256/256
f 257/257/257 258/258/258 259/259/259
f 260/260/260 261/261/261 262/262/262
f 263/263/263 229/229/229 228/228/228
f 264/264/264 265/265/265 266/266/266
f 267/267/267 235/235/235 234/234/234
f 268/268/268 269/269/269 270/270/270
f 271/271/271 241/241/241 240/240/240
f 272/272/272 273/273/273 274/274/274
f 275/275/275 247/247/247 246/246/246
f 276/276/276 277/277/277 278/278/278
f 279/279/279 280/280/280 281/281/281
f 282/282/282 283/283/283 284/284/284
f 285/285/285 255/255/255 254/254/254
f 286/286/286 287/287/287 288/288/288
f 289/289/289 261/261/261 260/260/260
f 290/290/290 291/291/291 292/292/292
f 293/293/293 294/294/294 295/295/295
f 296/296/296 297/297/297 298/298/298
f 299/299/299 269/269/269 268/268/268
f 300/300/300 301/301/301 302/302/302
f 303/303/303 273/273/273 272/272/272
f 304/304/304 305/305/305 306/306/306
f 307/307/307 277/277/277 276/276/276
f 308/308/308 309/309/309 310/310/310
f 311/311/311 283/283/283 282/282/282
f 312/312/312 313/313/313 314/314/314
f 315/315/315 316/316/316 317/317/317
f 318/318/318 319/319/319 320/320/320
f 321/321/321 291/291/291 290/290/290
f 322/322/322 323/323/323 324/324/324
f 325/325/325 297/297/297 296/296/296
f 326/326/326 327/327/327 328/328/328
f 327/327/327 329/329/329 328/328/328
f 330/330/330 331/331/331 332/332/332
f 331/331/331 333/333/333 332/332/332
f 334/334/334 335/335/335 336/336/336
f 335/335/335 337/337/337 336/336/336
f 338/338/338 339/339/339 340/340/340
f 339/339/339 341/341/341 340/340/340
f 342/342/342 343/343/343 344/344/344
f 343/343/343 345/345/345 344/344/344
f 346/346/346 347/347/347 348/348/348
f 347/347/347 349/349/349 348/348/348
f 350/350/350 351/351/351 352/352/352
f 351/351/351 353/353/353 352/352/352
f 351/351/351 354/354/354 353/353/353
f 355/355/355 356/356/356 353/353/353
f 357/357/357 358/358/358 356/356/356
f 358/358/358 359/359/359 356/356/356
f 358/358/358 360/360/360 359/359/359
f 360/360/360 361/361/361 359/359/359
f 360/360/360 362/362/362 361/361/361
f 362/362/362 363/363/363 361/361/361
f 362/362/362 364/364/364 365/365/365
f 364/364/364 366/366/366 363/363/363
f 364/364/364 367/367/367 366/366/366
f 367/367/367 368/368/368 366/366/366
f 367/367/367 369/369/369 370/370/370
f 371/371/371 372/372/372 368/368/368
f 373/373/373 374/374/374 375/375/375
f 374/374/374 376/376/376 375/375/375
f 374/374/374 377/377/377 376/376/376
f 377/377/377 378/378/378 376/376/376
f 379/379/379 380/380/380 381/381/381
f 380/380/380 382/382/382 381/381/381
f 380/380/380 350/350/350 382/382/382
f 350/350/350 352/352/352 382/382/382
f 383/383/383 384/384/384 385/385/385
f 383/383/383 386/386/386 384/384/384
f 383/383/383 387/387/387 386/386/386
f 383/383/383 388/388/388 387/387/387
f 383/383/383 389/389/389 388/388/388
f 383/383/383 390/390/390 389/389/389
f 383/383/383 391/391/391 390/390/390
f 383/383/383 392/392/392 391/391/391
f 383/383/383 393/393/393 392/392/392
f 383/383/383 394/394/394 393/393/393
f 383/383/383 395/395/395 394/394/394
f 383/383/383 385/385/385 395/395/395
f 396/396/396 397/397/397 398/398/398
f 396/396/396 398/398/398 399/399/399
f 397/397/397 396/396/396 400/400/400
f 397/397/397 400/400/400 401/401/401
f 401/401/401 400/400/400 402/402/402
f 401/401/401 402/402/402 403/403/403
f 399/399/399 398/398/398 404/404/404
f 399/399/399 404/404/404 405/405/405
f 405/405/405 404/404/404 406/406/406
f 405/405/405 406/406/406 407/407/407
f 407/407/407 406/406/406 408/408/408
f 407/407/407 408/408/408 409/409/409
f 409/409/409 408/408/408 410/410/410
f 409/409/409 410/410/410 411/411/411
f 411/411/411 410/410/410 412/412/412
f 411/411/411 412/412/412 413/413/413
f 413/413/413 412/412/412 414/414/414
f 413/413/413 414/414/414 415/415/415
f 415/415/415 414/414/414 416/416/416
f 415/415/415 416/416/416 417/417/417
f 417/417/417 416/416/416 418/418/418
f 417/417/417 418/418/418 419/419/419
f 419/419/419 418/418/418 403/403/403
f 419/419/419 403/403/403 402/402/402
f 396/396/396 420/420/420 421/421/421
f 396/396/396 421/421/421 400/400/400
f 420/420/420 396/396/396 399/399/399
f 420/420/420 399/399/399 422/422/422
f 422/422/422 399/399/399 405/405/405
f 422/422/422 405/405/405 423/423/423
f 423/423/423 405/405/405 407/407/407
f 423/423/423 407/407/407 424/424/424
f 424/424/424 407/407/407 409/409/409
f 424/424/424 409/409/409 425/425/425
f 425/425/425 409/409/409 411/411/411
f 425/425/425 411/411/411 426/426/426
f 426/426/426 411/411/411 413/413/413
f 426/426/426 413/413/413 427/427/427
f 427/427/427 413/413/413 415/415/415
f 427/427/427 415/415/415 428/428/428
f 428/428/428 415/415/415 417/417/417
f 428/428/428 417/417/417 429/429/429
f 429/429/429 417/417/417 419/419/419
f 429/429/429 419/419/419 430/430/430
f 430/430/430 419/419/419 402/402/402
f 430/430/430 402/402/402 431/431/431
f 431/431/431 402/402/402 400/400/400
f 431/431/431 400/400/400 421/421/421
f 432/432/432 433/433/433 434/434/434
f 432/432/432 434/434/434 435/435/435
f 433/433/433 432/432/432 436/436/436
f 433/433/433 436/436/436 437/437/437
f 437/437/437 436/436/436 438/438/438
f 437/437/437 438/438/438 439/439/439
f 435/435/435 434/434/434 440/440/440
f 435/435/435 440/440/440 441/441/441
f 441/441/441 440/440/440 442/442/442
f 441/441/441 442/442/442 443/443/443
f 439/439/439 438/438/438 444/444/444
f 439/439/439 444/444/444 445/445/445
f 445/445/445 444/444/444 446/446/446
f 445/445/445 446/446/446 447/447/447
f 447/447/447 446/446/446 448/448/448
f 447/447/447 448/448/448 449/449/449
f 449/449/449 448/448/448 450/450/450
f 449/449/449 450/450/450 451/451/451
f 451/451/451 450/450/450 452/452/452
f 451/451/451 452/452/452 453/453/453
f 453/453/453 452/452/452 454/454/454
f 453/453/453 454/454/454 455/455/455
f 455/455/455 454/454/454 443/443/443
f 455/455/455 443/443/443 442/442/442
f 456/456/456 434/434/434 433/433/433
f 456/456/456 433/433/433 457/457/457
f 457/457/457 433/433/433 437/437/437
f 457/457/457 437/437/437 458/458/458
f 458/458/458 437/437/437 439/439/439
f 458/458/458 439/439/439 459/459/459
f 459/459/459 439/439/439 445/445/445
f 459/459/459 445/445/445 460/460/460
f 460/460/460 445/445/445 447/447/447
f 460/460/460 447/447/447 461/461/461
f 461/461/461 447/447/447 449/449/449
f 461/461/461 449/449/449 462/462/462
f 462/462/462 449/449/449 451/451/451
f 462/462/462 451/451/451 463/463/463
f 463/463/463 451/451/451 453/453/453
f 463/463/463 453/453/453 464/464/464
f 464/464/464 453/453/453 455/455/455
f 464/464/464 455/455/455 465/465/465
f 465/465/465 455/455/455 442/442/442
f 465/465/465 442/442/442 466/466/466
f 466/466/466 442/442/442 440/440/440
f 466/466/466 440/440/440 467/467/467
f 467/467/467 440/440/440 434/434/434
f 467/467/467 434/434/434 456/456/456
