# Generated by makebsp -bsp2obj
# Source: C:/Users/German/Documents/My Games/Warfork 2.1/basewf/models/mapobjects/handrails/sources/cx_decor_1
# Axis swap: Q3 Z-up -> OBJ Y-up (X=X, Y=Z, Z=-Y)
o cx_decor_1
mtllib cx_decor_1.mtl
g mat0m0s2
usemtl textures/blx_wtest3_vertex/vertex_blx_wt3_pillar2
v 56.577999 24.000000 -24.349001
vt 2.419280 0.499800
vn 0.000000 -1.000000 -0.000000
v -55.422752 25.000000 -27.301001
vt 2.419280 0.632165
vn -0.000309 -0.707107 -0.707107
v -55.422001 24.000000 -24.301001
vt 2.419280 0.499800
vn 0.000000 -1.000000 -0.000000
v 56.577248 25.000000 -27.349001
vt 2.419280 0.632165
vn -0.000309 -0.707107 -0.707107
v 61.828316 24.000000 -23.601625
vt 2.245670 0.499800
vn 0.000000 -1.000000 -0.000000
v 63.139839 25.000000 -26.383205
vt 2.245670 0.632165
vn 0.270446 -0.729468 -0.628280
v -61.985161 25.000000 -26.329407
vt 2.245670 0.632165
vn -0.270979 -0.729462 -0.628056
v -60.671684 24.000000 -23.548813
vt 2.245670 0.499800
vn 0.000000 -1.000000 -0.000000
v 65.579254 24.000000 -21.353500
vt 2.058170 0.499800
vn 0.000000 -1.000000 -0.000000
v 67.828377 25.000000 -23.479065
vt 2.058170 0.632165
vn 0.535109 -0.677294 -0.504907
v -66.671623 25.000000 -23.421124
vt 2.058170 0.632165
vn -0.535525 -0.677288 -0.504474
v -64.420746 24.000000 -21.297249
vt 2.058170 0.499800
vn 0.000000 -1.000000 -0.000000
v 67.830818 24.000000 -17.604626
vt 1.856780 0.499800
vn 0.000000 -1.000000 -0.000000
v 70.642845 25.000000 -18.636580
vt 1.856780 0.632165
vn 0.653315 -0.711612 -0.258435
v -69.482155 25.000000 -18.576157
vt 1.856780 0.632165
vn -0.653541 -0.711604 -0.257882
v -66.669182 24.000000 -17.546312
vt 1.856780 0.499800
vn 0.000000 -1.000000 -0.000000
v -70.416748 25.000000 -11.794499
vt 1.641500 0.632165
vn -0.734651 -0.626922 -0.259341
v -67.417000 24.000000 -12.296000
vt 1.641500 0.499800
vn -0.000191 -0.923880 -0.382683
v 65.019112 25.000000 -16.009468
vt 1.856780 0.367440
vn -0.616042 -0.751993 0.234518
v 63.330437 25.000000 -18.977375
vt 2.058170 0.367440
vn -0.503612 -0.736846 0.451035
v 60.517235 25.000000 -20.757219
vt 2.245670 0.367440
vn -0.270875 -0.746368 0.607916
v 56.579502 25.000000 -21.349001
vt 2.419280 0.367440
vn 0.000309 -0.707107 0.707107
v -62.169563 25.000000 -18.922937
vt 2.058170 0.367440
vn 0.503977 -0.736866 0.450595
v -63.855888 25.000000 -15.953547
vt 1.856780 0.367440
vn 0.616207 -0.752016 0.234009
v -59.357765 25.000000 -20.705421
vt 2.245670 0.367440
vn 0.271438 -0.746362 0.607672
v -55.420498 25.000000 -21.301001
vt 2.419280 0.367440
vn 0.000332 -0.707107 0.707107
v -64.416748 25.000000 -11.797251
vt 1.641500 0.367440
vn 0.734369 -0.626972 -0.260016
v 65.583252 25.000000 -11.853499
vt 1.641500 0.367440
vn -0.734650 -0.626914 -0.259360
v 68.583000 24.000000 -12.355000
vt 1.641500 0.499800
vn -0.000143 -0.923880 -0.382683
v 71.583252 25.000000 -11.855750
vt 1.641500 0.632165
vn 0.734398 -0.626935 -0.260024
v 65.594254 0.750000 12.396501
vt 0.620130 0.367440
vn -0.819642 -0.289670 -0.494246
v 68.594002 0.000000 11.645000
vt 0.620130 0.499800
vn -0.000324 -0.505449 -0.862856
v -70.405746 0.750000 12.455501
vt 0.620130 0.632165
vn -0.819642 -0.289670 -0.494246
v -67.405998 0.000000 11.704000
vt 0.620130 0.499800
vn -0.000432 -0.505449 -0.862856
v -64.405746 0.750000 12.452499
vt 0.620130 0.367440
vn 0.819220 -0.289755 -0.494894
v 71.594254 0.750000 12.394250
vt 0.620130 0.632165
vn 0.819261 -0.289726 -0.494844
v 65.594498 0.000000 12.646501
vt 0.444440 0.367440
vn -0.819678 -0.144984 -0.554173
v -70.405746 0.000000 12.705501
vt 0.444440 0.632165
vn -0.819623 -0.144855 -0.554289
v -67.405998 0.000000 11.704000
vt 0.444440 0.499800
vn -0.000484 -0.252725 -0.967538
v -64.405502 0.000000 12.702749
vt 0.444440 0.367440
vn 0.819183 -0.144728 -0.554971
v 68.594002 0.000000 11.645000
vt 0.444440 0.499800
vn -0.000363 -0.252725 -0.967538
v 71.594505 0.000000 12.644250
vt 0.444440 0.632165
vn 0.819229 -0.144712 -0.554908
v -67.405998 -16.000000 11.704000
vt 0.000000 0.499800
vn -0.000500 0.000000 -1.000000
v -64.405502 -16.000000 12.702749
vt 0.000000 0.367440
vn 0.706753 -0.000000 -0.707460
v 68.594002 -16.000000 11.645000
vt 0.000000 0.499800
vn -0.000375 0.000000 -1.000000
v 71.594505 -16.000000 12.644250
vt 0.000000 0.632165
vn 0.706842 0.000000 -0.707372
v -70.405746 -16.000000 12.705501
vt 0.000000 0.632165
vn -0.707372 0.000000 -0.706842
v 65.594498 -16.000000 12.646501
vt 0.000000 0.367440
vn -0.707460 0.000000 -0.706753
v 56.577000 28.000000 -28.349001
vt 2.419280 0.749900
vn -0.000437 0.000000 -1.000000
v 56.577251 31.000000 -27.349001
vt 2.419280 0.867635
vn -0.000309 0.707107 -0.707107
v -55.422749 31.000000 -27.301001
vt 2.419280 0.867635
vn -0.000309 0.707107 -0.707107
v -55.423000 28.000000 -28.301001
vt 2.419280 0.749900
vn -0.000437 0.000000 -1.000000
v 63.577061 28.000000 -27.227062
vt 2.245670 0.749900
vn 0.407873 0.022692 -0.912756
v -61.985062 31.000000 -26.141907
vt 2.245670 0.867635
vn -0.279956 0.747471 -0.602421
v -62.422939 28.000000 -27.172939
vt 2.245670 0.749900
vn -0.408647 0.022696 -0.912410
v 63.139938 31.000000 -26.195704
vt 2.245670 0.867635
vn 0.279443 0.747473 -0.602656
v 68.578247 28.000000 -23.854252
vt 2.058170 0.749900
vn 0.743452 0.082631 -0.663665
v -67.421753 28.000000 -23.795750
vt 2.058170 0.749900
vn -0.743996 0.082647 -0.663053
v -66.671249 31.000000 -22.671125
vt 2.058170 0.867635
vn -0.518096 0.735460 -0.436663
v 67.828751 31.000000 -22.729065
vt 2.058170 0.867635
vn 0.517741 0.735454 -0.437095
v 56.577999 32.000000 -24.349001
vt 2.419280 -0.000390
vn 0.000000 1.000000 -0.000000
v 56.579502 31.000000 -21.349001
vt 2.419280 0.131968
vn 0.000309 0.707107 0.707107
v -55.420498 31.000000 -21.301001
vt 2.419280 0.131968
vn 0.000332 0.707107 0.707107
v -55.422001 32.000000 -24.301001
vt 2.419280 -0.000390
vn 0.000000 1.000000 -0.000000
v 61.828438 32.000000 -23.351625
vt 2.245670 -0.000390
vn 0.000000 1.000000 -0.000000
v 60.517326 31.000000 -20.569719
vt 2.245670 0.131968
vn -0.303358 0.740925 0.599169
v -59.357670 31.000000 -20.517891
vt 2.245670 0.131968
vn 0.303927 0.740914 0.598894
v -60.671562 32.000000 -23.298813
vt 2.245670 -0.000390
vn 0.000000 1.000000 -0.000000
v 65.579750 32.000000 -20.353500
vt 2.058170 -0.000390
vn 0.000000 1.000000 -0.000000
v 63.330811 31.000000 -18.227375
vt 2.058170 0.131968
vn -0.590534 0.681496 0.432242
v -62.169189 31.000000 -18.172813
vt 2.058170 0.131968
vn 0.590917 0.681492 0.431724
v -64.420250 32.000000 -20.297249
vt 2.058170 -0.000390
vn 0.000000 1.000000 -0.000000
v 67.831932 32.000000 -15.354625
vt 1.856780 -0.000390
vn 0.000000 1.000000 -0.000000
v 65.019951 31.000000 -14.321969
vt 1.856780 0.131968
vn -0.673310 0.706134 0.219155
v -63.855049 31.000000 -14.265765
vt 1.856780 0.131968
vn 0.673514 0.706114 0.218590
v -66.668068 32.000000 -15.296312
vt 1.856780 -0.000390
vn 0.000000 1.000000 -0.000000
v 68.584999 32.000000 -8.355000
vt 1.641500 -0.000390
vn 0.000143 0.923880 0.382683
v 65.584747 31.000000 -8.853499
vt 1.641500 0.131968
vn -0.734389 0.626955 0.260001
v -64.415253 31.000000 -8.796750
vt 1.641500 0.131968
vn 0.734616 0.626943 0.259386
v -67.415001 32.000000 -8.296000
vt 1.641500 -0.000390
vn 0.000167 0.923878 0.382687
v 68.596001 6.000000 17.645000
vt 0.620130 -0.000390
vn 0.000319 0.525795 0.850611
v 65.595749 5.250000 16.896500
vt 0.620130 0.131968
vn -0.716381 0.366715 0.593565
v -64.404251 5.250000 16.952499
vt 0.620130 0.131968
vn 0.716888 0.366671 0.592979
v -67.403999 6.000000 17.704000
vt 0.620130 -0.000390
vn 0.000425 0.525731 0.850651
v 68.597000 0.000000 19.646000
vt 0.444440 -0.000390
vn 0.000370 0.160182 0.987087
v 65.596748 0.000000 18.646749
vt 0.444440 0.131968
vn -0.711497 0.112451 0.693633
v -64.403252 0.000000 18.702751
vt 0.444440 0.131968
vn 0.711962 0.112590 0.693134
v -67.403000 0.000000 19.704000
vt 0.444440 -0.000390
vn 0.000494 0.160182 0.987087
v 68.597000 -16.000000 19.646000
vt 0.000000 -0.000390
vn 0.000375 -0.000000 1.000000
v 65.596748 -16.000000 18.646749
vt 0.000000 0.131968
vn -0.706930 0.000000 0.707283
v -64.403252 -16.000000 18.702751
vt 0.000000 0.131968
vn 0.707372 0.000000 0.706842
v -67.403000 -16.000000 19.704000
vt 0.000000 -0.000390
vn 0.000500 -0.000000 1.000000
v 56.580002 28.000000 -20.349001
vt 2.419280 0.249700
vn 0.000438 0.000000 1.000000
v -55.419998 28.000000 -20.301001
vt 2.419280 0.249700
vn 0.000469 0.000000 1.000000
v -58.919746 28.000000 -19.674252
vt 2.245670 0.249700
vn 0.429954 -0.021607 0.902592
v 60.080250 28.000000 -19.725752
vt 2.245670 0.249700
vn -0.429114 -0.021599 0.902992
v -61.418999 28.000000 -17.798000
vt 2.058170 0.249700
vn 0.775031 -0.078217 0.627064
v -55.420498 25.000000 -21.301001
vt 2.419280 0.367440
vn 0.000332 -0.707107 0.707107
v 56.579502 25.000000 -21.349001
vt 2.419280 0.367440
vn 0.000309 -0.707107 0.707107
v -59.357765 25.000000 -20.705421
vt 2.245670 0.367440
vn 0.271438 -0.746362 0.607672
v 60.517235 25.000000 -20.757219
vt 2.245670 0.367440
vn -0.270875 -0.746368 0.607916
v -62.169563 25.000000 -18.922937
vt 2.058170 0.367440
vn 0.503977 -0.736866 0.450595
v 62.581001 28.000000 -17.852001
vt 2.058170 0.249700
vn -0.774492 -0.078183 0.627734
v 63.330437 25.000000 -18.977375
vt 2.058170 0.367440
vn -0.503612 -0.736846 0.451035
v -66.671249 31.000000 -22.671125
vt 2.058170 0.867635
vn -0.518096 0.735460 -0.436663
v -64.420250 32.000000 -20.297249
vt 2.058170 1.000000
vn 0.000000 1.000000 -0.000000
v -66.668068 32.000000 -15.296312
vt 1.856780 1.000000
vn 0.000000 1.000000 -0.000000
v -69.481308 31.000000 -16.888657
vt 1.856780 0.867635
vn -0.621732 0.749997 -0.225730
v -67.415001 32.000000 -8.296000
vt 1.641500 1.000000
vn 0.000167 0.923878 0.382687
v -70.415253 31.000000 -8.794500
vt 1.641500 0.867635
vn -0.734389 0.626949 0.260015
v -61.985062 31.000000 -26.141907
vt 2.245670 0.867635
vn -0.279956 0.747471 -0.602421
v -60.671562 32.000000 -23.298813
vt 2.245670 1.000000
vn 0.000000 1.000000 -0.000000
v -55.422749 31.000000 -27.301001
vt 2.419280 0.867635
vn -0.000309 0.707107 -0.707107
v -55.422001 32.000000 -24.301001
vt 2.419280 1.000000
vn 0.000000 1.000000 -0.000000
v 56.577251 31.000000 -27.349001
vt 2.419280 0.867635
vn -0.000309 0.707107 -0.707107
v 56.577999 32.000000 -24.349001
vt 2.419280 1.000000
vn 0.000000 1.000000 -0.000000
v 63.139938 31.000000 -26.195704
vt 2.245670 0.867635
vn 0.279443 0.747473 -0.602656
v 61.828438 32.000000 -23.351625
vt 2.245670 1.000000
vn 0.000000 1.000000 -0.000000
v 67.828751 31.000000 -22.729065
vt 2.058170 0.867635
vn 0.517741 0.735454 -0.437095
v 65.579750 32.000000 -20.353500
vt 2.058170 1.000000
vn 0.000000 1.000000 -0.000000
v 70.643692 31.000000 -16.949080
vt 1.856780 0.867635
vn 0.621553 0.749982 -0.226271
v 67.831932 32.000000 -15.354625
vt 1.856780 1.000000
vn 0.000000 1.000000 -0.000000
v 71.584747 31.000000 -8.855750
vt 1.641500 0.867635
vn 0.734601 0.626967 0.259374
v 68.584999 32.000000 -8.355000
vt 1.641500 1.000000
vn 0.000143 0.923880 0.382683
v 71.595749 5.250000 16.894249
vt 0.620130 0.867635
vn 0.716830 0.366747 0.593002
v 68.596001 6.000000 17.645000
vt 0.620130 1.000000
vn 0.000319 0.525795 0.850611
v -67.403999 6.000000 17.704000
vt 0.620130 1.000000
vn 0.000425 0.525731 0.850651
v -70.404251 5.250000 16.955500
vt 0.620130 0.867635
vn -0.716366 0.366678 0.593605
v 71.596756 0.000000 18.644501
vt 0.444440 0.867635
vn 0.711962 0.112590 0.693134
v 68.597000 0.000000 19.646000
vt 0.444440 1.000000
vn 0.000370 0.160182 0.987087
v -67.403000 0.000000 19.704000
vt 0.444440 1.000000
vn 0.000494 0.160182 0.987087
v -70.403503 0.000000 18.705500
vt 0.444440 0.867635
vn -0.711335 0.112586 0.693777
v 71.596756 -16.000000 18.644501
vt 0.000000 0.867635
vn 0.707372 0.000000 0.706842
v 68.597000 -16.000000 19.646000
vt 0.000000 1.000000
vn 0.000375 -0.000000 1.000000
v -67.403000 -16.000000 19.704000
vt 0.000000 1.000000
vn 0.000500 -0.000000 1.000000
v -70.403503 -16.000000 18.705500
vt 0.000000 0.867635
vn -0.706753 0.000000 0.707460
v 64.595001 3.000000 14.647000
vt 0.620130 0.249700
vn -1.000000 0.000015 0.000414
v 65.594254 0.750000 12.396501
vt 0.620130 0.367440
vn -0.819642 -0.289670 -0.494246
v 65.583252 25.000000 -11.853499
vt 1.641500 0.367440
vn -0.734650 -0.626914 -0.259360
v 64.584000 28.000000 -10.353000
vt 1.641500 0.249700
vn -1.000000 0.000028 0.000435
v 64.596001 0.000000 15.647000
vt 0.444440 0.249700
vn -1.000000 -0.000119 0.000428
v 65.594498 0.000000 12.646501
vt 0.444440 0.367440
vn -0.819678 -0.144984 -0.554173
v 64.596001 -16.000000 15.647000
vt 0.000000 0.249700
vn -1.000000 0.000000 0.000375
v 65.594498 -16.000000 12.646501
vt 0.000000 0.367440
vn -0.707460 0.000000 -0.706753
v 65.595749 5.250000 16.896500
vt 0.620130 0.131968
vn -0.716381 0.366715 0.593565
v 65.584747 31.000000 -8.853499
vt 1.641500 0.131968
vn -0.734389 0.626955 0.260001
v 64.082253 28.000000 -14.727751
vt 1.856780 0.249700
vn -0.941305 -0.062114 0.331793
v 65.019951 31.000000 -14.321969
vt 1.856780 0.131968
vn -0.673310 0.706134 0.219155
v 65.596748 -16.000000 18.646749
vt 0.000000 0.131968
vn -0.706930 0.000000 0.707283
v 65.596748 0.000000 18.646749
vt 0.444440 0.131968
vn -0.711497 0.112451 0.693633
v 65.019112 25.000000 -16.009468
vt 1.856780 0.367440
vn -0.616042 -0.751993 0.234518
v 62.581001 28.000000 -17.852001
vt 2.058170 0.249700
vn -0.774492 -0.078183 0.627734
v 63.330811 31.000000 -18.227375
vt 2.058170 0.131968
vn -0.590534 0.681496 0.432242
v 63.330437 25.000000 -18.977375
vt 2.058170 0.367440
vn -0.503612 -0.736846 0.451035
v -70.416748 25.000000 -11.794499
vt 1.641500 0.632165
vn -0.734651 -0.626922 -0.259341
v -71.404999 3.000000 14.706000
vt 0.620130 0.749900
vn -1.000000 0.000015 0.000414
v -70.405746 0.750000 12.455501
vt 0.620130 0.632165
vn -0.819642 -0.289670 -0.494246
v -71.416000 28.000000 -10.294000
vt 1.641500 0.749900
vn -1.000000 0.000019 0.000459
v -69.482155 25.000000 -18.576157
vt 1.856780 0.632165
vn -0.653541 -0.711604 -0.257882
v -70.419434 28.000000 -18.169437
vt 1.856780 0.749900
vn -0.933155 0.066250 -0.353316
v -71.404999 0.000000 15.706000
vt 0.444440 0.749900
vn -1.000000 0.000059 0.000393
v -70.405746 0.000000 12.705501
vt 0.444440 0.632165
vn -0.819623 -0.144855 -0.554289
v -71.404999 -16.000000 15.706000
vt 0.000000 0.749900
vn -1.000000 0.000000 0.000375
v -70.405746 -16.000000 12.705501
vt 0.000000 0.632165
vn -0.707372 0.000000 -0.706842
v -70.404251 5.250000 16.955500
vt 0.620130 0.867635
vn -0.716366 0.366678 0.593605
v -70.415253 31.000000 -8.794500
vt 1.641500 0.867635
vn -0.734389 0.626949 0.260015
v -70.403503 -16.000000 18.705500
vt 0.000000 0.867635
vn -0.706753 0.000000 0.707460
v -70.403503 0.000000 18.705500
vt 0.444440 0.867635
vn -0.711335 0.112586 0.693777
v -69.481308 31.000000 -16.888657
vt 1.856780 0.867635
vn -0.621732 0.749997 -0.225730
v -66.671623 25.000000 -23.421124
vt 2.058170 0.632165
vn -0.535525 -0.677288 -0.504474
v -67.421753 28.000000 -23.795750
vt 2.058170 0.749900
vn -0.743996 0.082647 -0.663053
v -66.671249 31.000000 -22.671125
vt 2.058170 0.867635
vn -0.518096 0.735460 -0.436663
v -63.416000 28.000000 -10.297000
vt 1.641500 0.249700
vn 1.000000 -0.000028 -0.000435
v -64.416748 25.000000 -11.797251
vt 1.641500 0.367440
vn 0.734369 -0.626972 -0.260016
v -64.405746 0.750000 12.452499
vt 0.620130 0.367440
vn 0.819220 -0.289755 -0.494894
v -63.404999 3.000000 14.702000
vt 0.620130 0.249700
vn 1.000000 -0.000015 -0.000414
v -64.405502 0.000000 12.702749
vt 0.444440 0.367440
vn 0.819183 -0.144728 -0.554971
v -63.403999 0.000000 15.703000
vt 0.444440 0.249700
vn 1.000000 0.000119 -0.000428
v -64.405502 -16.000000 12.702749
vt 0.000000 0.367440
vn 0.706753 -0.000000 -0.707460
v -63.403999 -16.000000 15.703000
vt 0.000000 0.249700
vn 1.000000 0.000000 -0.000375
v -64.415253 31.000000 -8.796750
vt 1.641500 0.131968
vn 0.734616 0.626943 0.259386
v -64.404251 5.250000 16.952499
vt 0.620130 0.131968
vn 0.716888 0.366671 0.592979
v -63.855049 31.000000 -14.265765
vt 1.856780 0.131968
vn 0.673514 0.706114 0.218590
v -62.917751 28.000000 -14.672251
vt 1.856780 0.249700
vn 0.941576 -0.062181 0.331010
v -64.403252 0.000000 18.702751
vt 0.444440 0.131968
vn 0.711962 0.112590 0.693134
v -64.403252 -16.000000 18.702751
vt 0.000000 0.131968
vn 0.707372 0.000000 0.706842
v -63.855888 25.000000 -15.953547
vt 1.856780 0.367440
vn 0.616207 -0.752016 0.234009
v -62.169189 31.000000 -18.172813
vt 2.058170 0.131968
vn 0.590917 0.681492 0.431724
v -61.418999 28.000000 -17.798000
vt 2.058170 0.249700
vn 0.775031 -0.078217 0.627064
v -62.169563 25.000000 -18.922937
vt 2.058170 0.367440
vn 0.503977 -0.736866 0.450595
v 71.594254 0.750000 12.394250
vt 0.620130 0.632165
vn 0.819261 -0.289726 -0.494844
v 72.584000 28.000000 -10.356000
vt 1.641500 0.749900
vn 1.000000 -0.000019 -0.000459
v 71.583252 25.000000 -11.855750
vt 1.641500 0.632165
vn 0.734398 -0.626935 -0.260024
v 72.595001 3.000000 14.644000
vt 0.620130 0.749900
vn 1.000000 -0.000015 -0.000414
v 71.580566 28.000000 -18.230564
vt 1.856780 0.749900
vn 0.932855 0.066214 -0.354115
v 70.642845 25.000000 -18.636580
vt 1.856780 0.632165
vn 0.653315 -0.711612 -0.258435
v 71.594505 0.000000 12.644250
vt 0.444440 0.632165
vn 0.819229 -0.144712 -0.554908
v 72.596001 0.000000 15.644000
vt 0.444440 0.749900
vn 1.000000 0.000119 -0.000428
v 71.594505 -16.000000 12.644250
vt 0.000000 0.632165
vn 0.706842 0.000000 -0.707372
v 72.596001 -16.000000 15.644000
vt 0.000000 0.749900
vn 1.000000 0.000000 -0.000375
v 71.584747 31.000000 -8.855750
vt 1.641500 0.867635
vn 0.734601 0.626967 0.259374
v 71.595749 5.250000 16.894249
vt 0.620130 0.867635
vn 0.716830 0.366747 0.593002
v 71.596756 0.000000 18.644501
vt 0.444440 0.867635
vn 0.711962 0.112590 0.693134
v 71.596756 -16.000000 18.644501
vt 0.000000 0.867635
vn 0.707372 0.000000 0.706842
v 70.643692 31.000000 -16.949080
vt 1.856780 0.867635
vn 0.621553 0.749982 -0.226271
v 68.578247 28.000000 -23.854252
vt 2.058170 0.749900
vn 0.743452 0.082631 -0.663665
v 67.828377 25.000000 -23.479065
vt 2.058170 0.632165
vn 0.535109 -0.677294 -0.504907
v 67.828751 31.000000 -22.729065
vt 2.058170 0.867635
vn 0.517741 0.735454 -0.437095
f 89/89/89 86/86/86 90/90/90
f 89/89/89 85/85/85 86/86/86
f 85/85/85 82/82/82 86/86/86
f 85/85/85 81/81/81 82/82/82
f 81/81/81 78/78/78 82/82/82
f 81/81/81 77/77/77 78/78/78
f 77/77/77 74/74/74 78/78/78
f 77/77/77 73/73/73 74/74/74
f 73/73/73 70/70/70 74/74/74
f 73/73/73 69/69/69 70/70/70
f 69/69/69 66/66/66 70/70/70
f 69/69/69 65/65/65 66/66/66
f 65/65/65 62/62/62 66/66/66
f 65/65/65 61/61/61 62/62/62
f 61/61/61 63/63/63 62/62/62
f 61/61/61 64/64/64 63/63/63
f 64/64/64 67/67/67 63/63/63
f 64/64/64 68/68/68 67/67/67
f 68/68/68 71/71/71 67/67/67
f 68/68/68 72/72/72 71/71/71
f 72/72/72 75/75/75 71/71/71
f 72/72/72 76/76/76 75/75/75
f 76/76/76 79/79/79 75/75/75
f 76/76/76 80/80/80 79/79/79
f 80/80/80 83/83/83 79/79/79
f 80/80/80 84/84/84 83/83/83
f 84/84/84 87/87/87 83/83/83
f 84/84/84 88/88/88 87/87/87
f 88/88/88 91/91/91 87/87/87
f 88/88/88 92/92/92 91/91/91
f 149/149/149 141/141/141 143/143/143
f 149/149/149 150/150/150 141/141/141
f 150/150/150 137/137/137 141/141/141
f 150/150/150 145/145/145 137/137/137
f 145/145/145 140/140/140 137/137/137
f 145/145/145 146/146/146 140/140/140
f 146/146/146 147/147/147 140/140/140
f 146/146/146 148/148/148 147/147/147
f 148/148/148 152/152/152 147/147/147
f 148/148/148 153/153/153 152/152/152
f 70/70/70 96/96/96 103/103/103
f 70/70/70 66/66/66 96/96/96
f 66/66/66 93/93/93 96/96/96
f 66/66/66 62/62/62 93/93/93
f 62/62/62 94/94/94 93/93/93
f 62/62/62 63/63/63 94/94/94
f 63/63/63 95/95/95 94/94/94
f 63/63/63 67/67/67 95/95/95
f 67/67/67 97/97/97 95/95/95
f 67/67/67 71/71/71 97/97/97
f 188/188/188 184/184/184 189/189/189
f 188/188/188 183/183/183 184/184/184
f 183/183/183 173/173/173 184/184/184
f 183/183/183 181/181/181 173/173/173
f 181/181/181 176/176/176 173/173/173
f 181/181/181 182/182/182 176/176/176
f 182/182/182 178/178/178 176/176/176
f 182/182/182 185/185/185 178/178/178
f 185/185/185 180/180/180 178/178/178
f 185/185/185 186/186/186 180/180/180
f 143/143/143 142/142/142 144/144/144
f 143/143/143 141/141/141 142/142/142
f 141/141/141 138/138/138 142/142/142
f 141/141/141 137/137/137 138/138/138
f 137/137/137 139/139/139 138/138/138
f 137/137/137 140/140/140 139/139/139
f 140/140/140 151/151/151 139/139/139
f 140/140/140 147/147/147 151/151/151
f 147/147/147 154/154/154 151/151/151
f 147/147/147 152/152/152 154/154/154
f 103/103/103 101/101/101 104/104/104
f 103/103/103 96/96/96 101/101/101
f 96/96/96 99/99/99 101/101/101
f 96/96/96 93/93/93 99/99/99
f 93/93/93 98/98/98 99/99/99
f 93/93/93 94/94/94 98/98/98
f 94/94/94 100/100/100 98/98/98
f 94/94/94 95/95/95 100/100/100
f 95/95/95 102/102/102 100/100/100
f 95/95/95 97/97/97 102/102/102
f 189/189/189 187/187/187 190/190/190
f 189/189/189 184/184/184 187/187/187
f 184/184/184 174/174/174 187/187/187
f 184/184/184 173/173/173 174/174/174
f 173/173/173 175/175/175 174/174/174
f 173/173/173 176/176/176 175/175/175
f 176/176/176 177/177/177 175/175/175
f 176/176/176 178/178/178 177/177/177
f 178/178/178 179/179/179 177/177/177
f 178/178/178 180/180/180 179/179/179
f 48/48/48 41/41/41 45/45/45
f 48/48/48 37/37/37 41/41/41
f 37/37/37 31/31/31 32/32/32
f 31/31/31 29/29/29 32/32/32
f 31/31/31 28/28/28 29/29/29
f 28/28/28 13/13/13 29/29/29
f 28/28/28 19/19/19 13/13/13
f 19/19/19 9/9/9 13/13/13
f 19/19/19 20/20/20 9/9/9
f 20/20/20 5/5/5 9/9/9
f 20/20/20 21/21/21 5/5/5
f 21/21/21 1/1/1 5/5/5
f 21/21/21 22/22/22 1/1/1
f 22/22/22 3/3/3 1/1/1
f 22/22/22 26/26/26 3/3/3
f 26/26/26 8/8/8 3/3/3
f 26/26/26 25/25/25 8/8/8
f 25/25/25 12/12/12 8/8/8
f 25/25/25 23/23/23 12/12/12
f 23/23/23 16/16/16 12/12/12
f 23/23/23 24/24/24 16/16/16
f 24/24/24 18/18/18 16/16/16
f 24/24/24 27/27/27 18/18/18
f 27/27/27 34/34/34 18/18/18
f 27/27/27 35/35/35 34/34/34
f 35/35/35 40/40/40 39/39/39
f 40/40/40 43/43/43 39/39/39
f 40/40/40 44/44/44 43/43/43
f 45/45/45 42/42/42 46/46/46
f 45/45/45 41/41/41 42/42/42
f 41/41/41 36/36/36 42/42/42
f 32/32/32 30/30/30 36/36/36
f 32/32/32 29/29/29 30/30/30
f 29/29/29 14/14/14 30/30/30
f 29/29/29 13/13/13 14/14/14
f 13/13/13 10/10/10 14/14/14
f 13/13/13 9/9/9 10/10/10
f 9/9/9 6/6/6 10/10/10
f 9/9/9 5/5/5 6/6/6
f 5/5/5 4/4/4 6/6/6
f 5/5/5 1/1/1 4/4/4
f 1/1/1 2/2/2 4/4/4
f 1/1/1 3/3/3 2/2/2
f 3/3/3 7/7/7 2/2/2
f 3/3/3 8/8/8 7/7/7
f 8/8/8 11/11/11 7/7/7
f 8/8/8 12/12/12 11/11/11
f 12/12/12 15/15/15 11/11/11
f 12/12/12 16/16/16 15/15/15
f 16/16/16 17/17/17 15/15/15
f 16/16/16 18/18/18 17/17/17
f 18/18/18 33/33/33 17/17/17
f 18/18/18 34/34/34 33/33/33
f 34/34/34 38/38/38 33/33/33
f 39/39/39 47/47/47 38/38/38
f 39/39/39 43/43/43 47/47/47
f 199/199/199 198/198/198 200/200/200
f 199/199/199 197/197/197 198/198/198
f 197/197/197 194/194/194 198/198/198
f 197/197/197 191/191/191 194/194/194
f 191/191/191 192/192/192 194/194/194
f 191/191/191 193/193/193 192/192/192
f 193/193/193 195/195/195 192/192/192
f 193/193/193 196/196/196 195/195/195
f 196/196/196 206/206/206 195/195/195
f 196/196/196 207/207/207 206/206/206
f 10/10/10 53/53/53 57/57/57
f 10/10/10 6/6/6 53/53/53
f 6/6/6 49/49/49 53/53/53
f 6/6/6 4/4/4 49/49/49
f 4/4/4 52/52/52 49/49/49
f 4/4/4 2/2/2 52/52/52
f 2/2/2 55/55/55 52/52/52
f 2/2/2 7/7/7 55/55/55
f 7/7/7 58/58/58 55/55/55
f 7/7/7 11/11/11 58/58/58
f 170/170/170 160/160/160 171/171/171
f 170/170/170 159/159/159 160/160/160
f 159/159/159 158/158/158 160/160/160
f 159/159/159 155/155/155 158/158/158
f 155/155/155 156/156/156 158/158/158
f 155/155/155 157/157/157 156/156/156
f 157/157/157 161/161/161 156/156/156
f 157/157/157 162/162/162 161/161/161
f 162/162/162 163/163/163 161/161/161
f 162/162/162 164/164/164 163/163/163
f 200/200/200 203/203/203 204/204/204
f 200/200/200 198/198/198 203/203/203
f 198/198/198 202/202/202 203/203/203
f 198/198/198 194/194/194 202/202/202
f 194/194/194 201/201/201 202/202/202
f 194/194/194 192/192/192 201/201/201
f 192/192/192 205/205/205 201/201/201
f 192/192/192 195/195/195 205/205/205
f 195/195/195 208/208/208 205/205/205
f 195/195/195 206/206/206 208/208/208
f 57/57/57 56/56/56 60/60/60
f 57/57/57 53/53/53 56/56/56
f 53/53/53 50/50/50 56/56/56
f 53/53/53 49/49/49 50/50/50
f 49/49/49 51/51/51 50/50/50
f 49/49/49 52/52/52 51/51/51
f 52/52/52 54/54/54 51/51/51
f 52/52/52 55/55/55 54/54/54
f 55/55/55 59/59/59 54/54/54
f 55/55/55 58/58/58 59/59/59
f 171/171/171 169/169/169 172/172/172
f 171/171/171 160/160/160 169/169/169
f 160/160/160 166/166/166 169/169/169
f 160/160/160 158/158/158 166/166/166
f 158/158/158 165/165/165 166/166/166
f 158/158/158 156/156/156 165/165/165
f 156/156/156 168/168/168 165/165/165
f 156/156/156 161/161/161 168/168/168
f 161/161/161 167/167/167 168/168/168
f 161/161/161 163/163/163 167/167/167
f 133/133/133 130/130/130 134/134/134
f 133/133/133 129/129/129 130/130/130
f 129/129/129 126/126/126 130/130/130
f 129/129/129 125/125/125 126/126/126
f 125/125/125 124/124/124 126/126/126
f 125/125/125 123/123/123 124/124/124
f 123/123/123 122/122/122 124/124/124
f 123/123/123 121/121/121 122/122/122
f 121/121/121 120/120/120 122/122/122
f 121/121/121 119/119/119 120/120/120
f 119/119/119 118/118/118 120/120/120
f 119/119/119 117/117/117 118/118/118
f 117/117/117 116/116/116 118/118/118
f 117/117/117 115/115/115 116/116/116
f 115/115/115 114/114/114 116/116/116
f 115/115/115 113/113/113 114/114/114
f 113/113/113 112/112/112 114/114/114
f 113/113/113 111/111/111 112/112/112
f 111/111/111 106/106/106 112/112/112
f 111/111/111 105/105/105 106/106/106
f 105/105/105 107/107/107 106/106/106
f 105/105/105 108/108/108 107/107/107
f 108/108/108 109/109/109 107/107/107
f 108/108/108 110/110/110 109/109/109
f 110/110/110 127/127/127 109/109/109
f 110/110/110 128/128/128 127/127/127
f 128/128/128 131/131/131 127/127/127
f 128/128/128 132/132/132 131/131/131
f 132/132/132 135/135/135 131/131/131
f 132/132/132 136/136/136 135/135/135
g mat1m0s3
usemtl textures/grates_vertex/vertex_grid02
v 64.595001 3.000000 14.647000
vt 1.197650 1.000000
vn 0.000372 0.525731 0.850651
v -63.404999 3.000000 14.702000
vt 1.197650 9.000000
vn 0.000359 0.525731 0.850651
v -63.416000 28.000000 -10.297000
vt 3.407360 9.000000
vn 0.000164 0.923876 0.382692
v 64.584000 28.000000 -10.353000
vt 3.407360 1.000000
vn 0.000167 0.923880 0.382683
v 64.596001 0.000000 15.647000
vt 1.000000 1.000000
vn 0.000432 0.160182 0.987087
v -63.403999 0.000000 15.703000
vt 1.000000 9.000000
vn 0.000428 0.160330 0.987063
v 64.596001 -16.000000 15.647000
vt 0.000000 1.000000
vn 0.000437 0.000000 1.000000
v -63.403999 -16.000000 15.703000
vt 0.000000 9.000000
vn 0.000437 0.000000 1.000000
v -63.419998 28.000000 -20.297001
vt 4.032360 9.000000
vn 0.000000 1.000000 -0.000000
v 64.580002 28.000000 -20.353001
vt 4.032360 1.000000
vn 0.000000 1.000000 -0.000000
f 215/215/215 214/214/214 216/216/216
f 215/215/215 213/213/213 214/214/214
f 213/213/213 210/210/210 214/214/214
f 213/213/213 209/209/209 210/210/210
f 209/209/209 211/211/211 210/210/210
f 209/209/209 212/212/212 211/211/211
f 212/212/212 217/217/217 211/211/211
f 212/212/212 218/218/218 217/217/217
