# Generated by makebsp -bsp2obj
# Source: C:/Users/German/Documents/My Games/Warfork 2.1/basewf/models/mapobjects/handrails/sources/handrail_2
# Axis swap: Q3 Z-up -> OBJ Y-up (X=X, Y=Z, Z=-Y)
o handrail_2
mtllib handrail_2.mtl
g mat0m0s6
usemtl textures/metal/chrome
v 35.187500 29.187500 0.750000
vt 0.004311 1.015625
vn -0.485071 -0.485071 0.727607
v 34.589844 29.652344 0.750000
vt 0.004311 1.019531
vn -0.357351 -0.580724 0.731478
v 35.046875 30.296875 1.000000
vt 0.009431 1.019531
vn 0.000000 0.000000 1.000000
v 35.750000 29.750000 1.000000
vt 0.009431 1.015625
vn 0.000000 0.000000 1.000000
v 34.187500 30.687500 1.000000
vt 0.009431 1.023438
vn 0.000000 0.000000 1.000000
v 33.859375 29.984375 0.750000
vt 0.004311 1.023438
vn -0.220527 -0.661581 0.716713
v 33.171875 30.921875 1.000000
vt 0.009431 1.027344
vn 0.000000 0.000000 1.000000
v 32.996094 30.183594 0.750000
vt 0.004311 1.027344
vn -0.110970 -0.688731 0.716474
v 32.000000 31.000000 1.000000
vt 0.009431 1.031250
vn 0.000000 0.000000 1.000000
v 32.000000 30.250000 0.750000
vt 0.004311 1.031250
vn 0.000000 -0.707107 0.707107
v 32.000000 30.250000 0.750000
vt 0.054688 1.000000
vn 0.000000 -0.707107 0.707107
v -34.000000 31.000000 1.000000
vt 0.062500 1.515625
vn 0.000000 0.000000 1.000000
v 32.000000 31.000000 1.000000
vt 0.062500 1.000000
vn 0.000000 0.000000 1.000000
v -34.000000 30.250000 0.750000
vt 0.054688 1.515625
vn 0.000000 -0.707107 0.707107
v -35.171875 30.921875 1.000000
vt 0.056583 1.054688
vn 0.000000 0.000000 1.000000
v -34.000000 31.000000 1.000000
vt 0.056583 1.062500
vn 0.000000 0.000000 1.000000
v -34.000000 30.250000 0.750000
vt 0.066823 1.062500
vn 0.000000 -0.707107 0.707107
v -34.996094 30.183594 0.750000
vt 0.066823 1.054688
vn 0.110970 -0.688731 0.716474
v -36.187500 30.687500 1.000000
vt 0.056583 1.046875
vn 0.000000 0.000000 1.000000
v -35.859375 29.984375 0.750000
vt 0.066823 1.046875
vn 0.220527 -0.661581 0.716713
v -37.046875 30.296875 1.000000
vt 0.056583 1.039062
vn 0.000000 0.000000 1.000000
v -36.589844 29.652344 0.750000
vt 0.066823 1.039062
vn 0.357351 -0.580724 0.731478
v -37.750000 29.750000 1.000000
vt 0.056583 1.031250
vn 0.000000 0.000000 1.000000
v -37.187500 29.187500 0.750000
vt 0.066823 1.031250
vn 0.485071 -0.485071 0.727607
v -38.296875 29.046875 1.000000
vt 0.056583 1.023438
vn 0.000000 0.000000 1.000000
v -37.652344 28.589844 0.750000
vt 0.066823 1.023438
vn 0.580724 -0.357351 0.731478
v 35.652344 28.589844 0.750000
vt 0.004311 1.011719
vn -0.580724 -0.357351 0.731478
v 36.296875 29.046875 1.000000
vt 0.009431 1.011719
vn 0.000000 0.000000 1.000000
v -38.687500 28.187500 1.000000
vt 0.056583 1.015625
vn 0.000000 0.000000 1.000000
v -37.984375 27.859375 0.750000
vt 0.066823 1.015625
vn 0.661581 -0.220527 0.716713
v 35.984375 27.859375 0.750000
vt 0.004311 1.007812
vn -0.661581 -0.220527 0.716713
v 36.687500 28.187500 1.000000
vt 0.009431 1.007812
vn 0.000000 0.000000 1.000000
v -38.921875 27.171875 1.000000
vt 0.056583 1.007812
vn 0.000000 0.000000 1.000000
v -38.183594 26.996094 0.750000
vt 0.066823 1.007812
vn 0.688731 -0.110970 0.716474
v 36.183594 26.996094 0.750000
vt 0.004311 1.003906
vn -0.688731 -0.110970 0.716474
v 36.921875 27.171875 1.000000
vt 0.009431 1.003906
vn 0.000000 0.000000 1.000000
v -39.000000 26.000000 1.000000
vt 0.056583 1.000000
vn 0.000000 0.000000 1.000000
v -38.250000 26.000000 0.750000
vt 0.066823 1.000000
vn 0.707107 0.000000 0.707107
v 36.312500 30.312500 0.750000
vt 0.014550 1.015625
vn 0.485071 0.485071 0.727607
v 36.941406 29.503906 0.750000
vt 0.014550 1.011719
vn 0.580724 0.357351 0.731478
v -38.941406 29.503906 0.750000
vt 0.046344 1.023438
vn -0.580724 0.357351 0.731478
v -38.312500 30.312500 0.750000
vt 0.046344 1.031250
vn -0.485071 0.485071 0.727607
v 37.390625 28.515625 0.750000
vt 0.014550 1.007812
vn 0.661581 0.220527 0.716713
v -39.390625 28.515625 0.750000
vt 0.046344 1.015625
vn -0.661581 0.220527 0.716713
v 35.503906 30.941406 0.750000
vt 0.014550 1.019531
vn 0.357351 0.580724 0.731478
v -37.503906 30.941406 0.750000
vt 0.046344 1.039062
vn -0.357351 0.580724 0.731478
v 37.660156 27.347656 0.750000
vt 0.014550 1.003906
vn 0.688731 0.110970 0.716474
v 34.515625 31.390625 0.750000
vt 0.014550 1.023438
vn 0.220527 0.661581 0.716713
v -36.515625 31.390625 0.750000
vt 0.046344 1.046875
vn -0.220527 0.661581 0.716713
v -39.660156 27.347656 0.750000
vt 0.046344 1.007812
vn -0.688731 0.110970 0.716474
v 36.250000 26.000000 0.750000
vt 0.004311 1.000000
vn -0.707107 0.000000 0.707107
v 37.000000 26.000000 1.000000
vt 0.009431 1.000000
vn 0.000000 0.000000 1.000000
v 37.750000 26.000000 0.750000
vt 0.014550 1.000000
vn 0.707107 0.000000 0.707107
v 33.347656 31.660156 0.750000
vt 0.014550 1.027344
vn 0.110970 0.688731 0.716474
v -35.347656 31.660156 0.750000
vt 0.046344 1.054688
vn -0.110970 0.688731 0.716474
v -39.750000 26.000000 0.750000
vt 0.046344 1.000000
vn -0.707107 0.000000 0.707107
v 32.000000 31.750000 0.750000
vt 0.014550 1.031250
vn 0.000000 0.707107 0.707107
v -34.000000 31.750000 0.750000
vt 0.046344 1.062500
vn 0.000000 0.707107 0.707107
v 37.000000 -8.000000 1.000000
vt 0.007812 1.000000
vn 0.000000 0.000000 1.000000
v 37.000000 26.000000 1.000000
vt 0.007812 1.132812
vn 0.000000 0.000000 1.000000
v 37.750000 26.000000 0.750000
vt 0.011719 1.132812
vn 0.707107 0.000000 0.707107
v 37.750000 -8.000000 0.750000
vt 0.011719 1.000000
vn 0.707107 0.000000 0.707107
v 36.250000 -8.000000 0.750000
vt 0.003906 1.000000
vn -0.707107 0.000000 0.707107
v 36.250000 26.000000 0.750000
vt 0.003906 1.132812
vn -0.707107 0.000000 0.707107
v -39.000000 -8.000000 1.000000
vt 0.046875 1.000000
vn 0.000000 0.000000 1.000000
v -39.000000 26.000000 1.000000
vt 0.046875 1.265625
vn 0.000000 0.000000 1.000000
v -38.250000 26.000000 0.750000
vt 0.054688 1.265625
vn 0.707107 0.000000 0.707107
v -38.250000 -8.000000 0.750000
vt 0.054688 1.000000
vn 0.707107 0.000000 0.707107
v -39.750000 -8.000000 0.750000
vt 0.039062 1.000000
vn -0.707107 0.000000 0.707107
v -39.750000 26.000000 0.750000
vt 0.039062 1.265625
vn -0.707107 0.000000 0.707107
v 32.000000 31.000000 1.000000
vt 0.000000 1.000000
vn 0.000000 0.000000 1.000000
v -34.000000 31.000000 1.000000
vt 0.000000 1.515625
vn 0.000000 0.000000 1.000000
v -34.000000 31.750000 0.750000
vt 0.007812 1.515625
vn 0.000000 0.707107 0.707107
v 32.000000 31.750000 0.750000
vt 0.007812 1.000000
vn 0.000000 0.707107 0.707107
v 32.000000 31.750000 0.750000
vt 0.007812 1.000000
vn 0.000000 0.707107 0.707107
v -34.000000 31.750000 0.750000
vt 0.007812 1.515625
vn 0.000000 0.707107 0.707107
v -34.000000 32.000000 -0.000000
vt 0.015625 1.515625
vn 0.000000 1.000000 -0.000000
v 32.000000 32.000000 -0.000000
vt 0.015625 1.000000
vn 0.000000 1.000000 -0.000000
v 33.347656 31.660156 0.750000
vt 0.014550 1.027344
vn 0.110970 0.688731 0.716474
v 32.000000 31.750000 0.750000
vt 0.014550 1.031250
vn 0.000000 0.707107 0.707107
v 32.000000 32.000000 -0.000000
vt 0.018861 1.031250
vn 0.000000 1.000000 -0.000000
v 33.406250 31.906250 -0.000000
vt 0.018861 1.027344
vn 0.160182 0.987087 -0.000000
v -35.406250 31.906250 -0.000000
vt 0.037722 1.054688
vn -0.160182 0.987087 -0.000000
v -34.000000 32.000000 -0.000000
vt 0.037722 1.062500
vn 0.000000 1.000000 -0.000000
v -34.000000 31.750000 0.750000
vt 0.046344 1.062500
vn 0.000000 0.707107 0.707107
v -35.347656 31.660156 0.750000
vt 0.046344 1.054688
vn -0.110970 0.688731 0.716474
v -36.625000 31.625000 -0.000000
vt 0.037722 1.046875
vn -0.316228 0.948683 -0.000000
v -36.515625 31.390625 0.750000
vt 0.046344 1.046875
vn -0.220527 0.661581 0.716713
v 34.515625 31.390625 0.750000
vt 0.014550 1.023438
vn 0.220527 0.661581 0.716713
v 34.625000 31.625000 -0.000000
vt 0.018861 1.023438
vn 0.316228 0.948683 -0.000000
v -37.656250 31.156250 -0.000000
vt 0.037722 1.039062
vn -0.525731 0.850651 -0.000000
v -37.503906 30.941406 0.750000
vt 0.046344 1.039062
vn -0.357351 0.580724 0.731478
v 35.503906 30.941406 0.750000
vt 0.014550 1.019531
vn 0.357351 0.580724 0.731478
v 35.656250 31.156250 -0.000000
vt 0.018861 1.019531
vn 0.525731 0.850651 -0.000000
v -34.000000 31.750000 -0.750000
vt 0.023438 1.515625
vn 0.000000 0.707107 -0.707107
v 32.000000 31.750000 -0.750000
vt 0.023438 1.000000
vn 0.000000 0.707107 -0.707107
v -35.347656 31.660156 -0.750000
vt 0.029101 1.054688
vn -0.110970 0.688731 -0.716474
v -34.000000 31.750000 -0.750000
vt 0.029101 1.062500
vn 0.000000 0.707107 -0.707107
v 32.000000 31.750000 -0.750000
vt 0.023172 1.031250
vn 0.000000 0.707107 -0.707107
v 33.347656 31.660156 -0.750000
vt 0.023172 1.027344
vn 0.110970 0.688731 -0.716474
v -36.515625 31.390625 -0.750000
vt 0.029101 1.046875
vn -0.220527 0.661581 -0.716713
v 34.515625 31.390625 -0.750000
vt 0.023172 1.023438
vn 0.220527 0.661581 -0.716713
v -37.503906 30.941406 -0.750000
vt 0.029101 1.039062
vn -0.357351 0.580724 -0.731478
v 35.503906 30.941406 -0.750000
vt 0.023172 1.019531
vn 0.357351 0.580724 -0.731478
v 36.500000 30.500000 -0.000000
vt 0.018861 1.015625
vn 0.707107 0.707107 -0.000000
v 36.312500 30.312500 -0.750000
vt 0.023172 1.015625
vn 0.485071 0.485071 -0.727607
v -38.312500 30.312500 -0.750000
vt 0.029101 1.031250
vn -0.485071 0.485071 -0.727607
v -38.500000 30.500000 -0.000000
vt 0.037722 1.031250
vn -0.707107 0.707107 -0.000000
v 36.312500 30.312500 0.750000
vt 0.014550 1.015625
vn 0.485071 0.485071 0.727607
v -38.312500 30.312500 0.750000
vt 0.046344 1.031250
vn -0.485071 0.485071 0.727607
v 32.000000 30.000000 -0.000000
vt 0.046875 1.000000
vn 0.000000 -1.000000 -0.000000
v -34.000000 30.000000 -0.000000
vt 0.046875 1.515625
vn 0.000000 -1.000000 -0.000000
v -34.000000 30.250000 0.750000
vt 0.054688 1.515625
vn 0.000000 -0.707107 0.707107
v 32.000000 30.250000 0.750000
vt 0.054688 1.000000
vn 0.000000 -0.707107 0.707107
v 32.937500 29.937500 -0.000000
vt 0.000000 1.027344
vn -0.160182 -0.987088 -0.000000
v 32.000000 30.000000 -0.000000
vt 0.000000 1.031250
vn 0.000000 -1.000000 -0.000000
v 32.000000 30.250000 0.750000
vt 0.004311 1.031250
vn 0.000000 -0.707107 0.707107
v 32.996094 30.183594 0.750000
vt 0.004311 1.027344
vn -0.110970 -0.688731 0.716474
v -34.996094 30.183594 0.750000
vt 0.066823 1.054688
vn 0.110970 -0.688731 0.716474
v -34.000000 30.250000 0.750000
vt 0.066823 1.062500
vn 0.000000 -0.707107 0.707107
v -34.000000 30.000000 -0.000000
vt 0.075444 1.062500
vn 0.000000 -1.000000 -0.000000
v -34.937500 29.937500 -0.000000
vt 0.075444 1.054688
vn 0.160182 -0.987088 -0.000000
v -35.859375 29.984375 0.750000
vt 0.066823 1.046875
vn 0.220527 -0.661581 0.716713
v -35.750000 29.750000 -0.000000
vt 0.075444 1.046875
vn 0.316228 -0.948683 -0.000000
v 33.750000 29.750000 -0.000000
vt 0.000000 1.023438
vn -0.316228 -0.948683 -0.000000
v 33.859375 29.984375 0.750000
vt 0.004311 1.023438
vn -0.220527 -0.661581 0.716713
v -36.589844 29.652344 0.750000
vt 0.066823 1.039062
vn 0.357351 -0.580724 0.731478
v -36.437500 29.437500 -0.000000
vt 0.075444 1.039062
vn 0.525731 -0.850651 -0.000000
v 34.437500 29.437500 -0.000000
vt 0.000000 1.019531
vn -0.525731 -0.850651 -0.000000
v 34.589844 29.652344 0.750000
vt 0.004311 1.019531
vn -0.357351 -0.580724 0.731478
v 32.000000 30.250000 -0.750000
vt 0.039062 1.000000
vn 0.000000 -0.707107 -0.707107
v -34.000000 30.250000 -0.750000
vt 0.039062 1.515625
vn 0.000000 -0.707107 -0.707107
v -37.187500 29.187500 0.750000
vt 0.066823 1.031250
vn 0.485071 -0.485071 0.727607
v -37.000000 29.000000 -0.000000
vt 0.075444 1.031250
vn 0.707107 -0.707107 -0.000000
v 35.000000 29.000000 -0.000000
vt 0.000000 1.015625
vn -0.707107 -0.707107 -0.000000
v 35.187500 29.187500 0.750000
vt 0.004311 1.015625
vn -0.485071 -0.485071 0.727607
v -34.937500 29.937500 -0.000000
vt 0.000000 1.054688
vn 0.160182 -0.987088 -0.000000
v -34.000000 30.000000 -0.000000
vt 0.000000 1.062500
vn 0.000000 -1.000000 -0.000000
v -34.000000 30.250000 -0.750000
vt 0.008622 1.062500
vn 0.000000 -0.707107 -0.707107
v -34.996094 30.183594 -0.750000
vt 0.008622 1.054688
vn 0.110970 -0.688731 -0.716474
v 32.996094 30.183594 -0.750000
vt 0.033411 1.027344
vn -0.110970 -0.688731 -0.716474
v 32.000000 30.000000 -0.000000
vt 0.037722 1.031250
vn 0.000000 -1.000000 -0.000000
v 32.937500 29.937500 -0.000000
vt 0.037722 1.027344
vn -0.160182 -0.987088 -0.000000
v 32.000000 30.250000 -0.750000
vt 0.033411 1.031250
vn 0.000000 -0.707107 -0.707107
v 33.859375 29.984375 -0.750000
vt 0.033411 1.023438
vn -0.220527 -0.661581 -0.716713
v 33.750000 29.750000 -0.000000
vt 0.037722 1.023438
vn -0.316228 -0.948683 -0.000000
v -35.750000 29.750000 -0.000000
vt 0.000000 1.046875
vn 0.316228 -0.948683 -0.000000
v -35.859375 29.984375 -0.750000
vt 0.008622 1.046875
vn 0.220527 -0.661581 -0.716713
v 34.589844 29.652344 -0.750000
vt 0.033411 1.019531
vn -0.357351 -0.580724 -0.731478
v 34.437500 29.437500 -0.000000
vt 0.037722 1.019531
vn -0.525731 -0.850651 -0.000000
v -36.437500 29.437500 -0.000000
vt 0.000000 1.039062
vn 0.525731 -0.850651 -0.000000
v -36.589844 29.652344 -0.750000
vt 0.008622 1.039062
vn 0.357351 -0.580724 -0.731478
v 36.000000 26.000000 -0.000000
vt 0.000000 1.000000
vn -1.000000 0.000000 -0.000000
v 36.183594 26.996094 0.750000
vt 0.004311 1.003906
vn -0.688731 -0.110970 0.716474
v 36.250000 26.000000 0.750000
vt 0.004311 1.000000
vn -0.707107 0.000000 0.707107
v 35.937500 26.937500 -0.000000
vt 0.000000 1.003906
vn -0.987088 -0.160182 -0.000000
v 36.000000 -8.000000 -0.000000
vt 0.000000 1.000000
vn -1.000000 0.000000 -0.000000
v 36.000000 26.000000 -0.000000
vt 0.000000 1.132812
vn -1.000000 0.000000 -0.000000
v 36.250000 26.000000 0.750000
vt 0.003906 1.132812
vn -0.707107 0.000000 0.707107
v 36.250000 -8.000000 0.750000
vt 0.003906 1.000000
vn -0.707107 0.000000 0.707107
v 35.984375 27.859375 0.750000
vt 0.004311 1.007812
vn -0.661581 -0.220527 0.716713
v 35.750000 27.750000 -0.000000
vt 0.000000 1.007812
vn -0.948683 -0.316228 -0.000000
v 35.652344 28.589844 0.750000
vt 0.004311 1.011719
vn -0.580724 -0.357351 0.731478
v 35.437500 28.437500 -0.000000
vt 0.000000 1.011719
vn -0.850651 -0.525731 -0.000000
v 35.187500 29.187500 0.750000
vt 0.004311 1.015625
vn -0.485071 -0.485071 0.727607
v 35.000000 29.000000 -0.000000
vt 0.000000 1.015625
vn -0.707107 -0.707107 -0.000000
v 36.250000 26.000000 -0.750000
vt 0.033411 1.000000
vn -0.707107 0.000000 -0.707107
v 35.937500 26.937500 -0.000000
vt 0.037722 1.003906
vn -0.987088 -0.160182 -0.000000
v 36.000000 26.000000 -0.000000
vt 0.037722 1.000000
vn -1.000000 0.000000 -0.000000
v 36.183594 26.996094 -0.750000
vt 0.033411 1.003906
vn -0.688731 -0.110970 -0.716474
v 36.250000 -8.000000 -0.750000
vt 0.027344 1.000000
vn -0.707107 0.000000 -0.707107
v 36.250000 26.000000 -0.750000
vt 0.027344 1.132812
vn -0.707107 0.000000 -0.707107
v 36.000000 26.000000 -0.000000
vt 0.031250 1.132812
vn -1.000000 0.000000 -0.000000
v 36.000000 -8.000000 -0.000000
vt 0.031250 1.000000
vn -1.000000 0.000000 -0.000000
v 35.750000 27.750000 -0.000000
vt 0.037722 1.007812
vn -0.948683 -0.316228 -0.000000
v 35.984375 27.859375 -0.750000
vt 0.033411 1.007812
vn -0.661581 -0.220527 -0.716713
v 35.437500 28.437500 -0.000000
vt 0.037722 1.011719
vn -0.850651 -0.525731 -0.000000
v 35.652344 28.589844 -0.750000
vt 0.033411 1.011719
vn -0.580724 -0.357351 -0.731478
v 35.000000 29.000000 -0.000000
vt 0.037722 1.015625
vn -0.707107 -0.707107 -0.000000
v 35.187500 29.187500 -0.750000
vt 0.033411 1.015625
vn -0.485071 -0.485071 -0.727607
v 34.437500 29.437500 -0.000000
vt 0.037722 1.019531
vn -0.525731 -0.850651 -0.000000
v 34.589844 29.652344 -0.750000
vt 0.033411 1.019531
vn -0.357351 -0.580724 -0.731478
v -38.000000 26.000000 -0.000000
vt 0.000000 1.000000
vn 1.000000 0.000000 -0.000000
v -38.183594 26.996094 -0.750000
vt 0.008622 1.007812
vn 0.688731 -0.110970 -0.716474
v -38.250000 26.000000 -0.750000
vt 0.008622 1.000000
vn 0.707107 0.000000 -0.707107
v -37.937500 26.937500 -0.000000
vt 0.000000 1.007812
vn 0.987088 -0.160182 -0.000000
v -38.000000 -8.000000 -0.000000
vt 0.000000 1.000000
vn 1.000000 0.000000 -0.000000
v -38.000000 26.000000 -0.000000
vt 0.000000 1.265625
vn 1.000000 0.000000 -0.000000
v -38.250000 26.000000 -0.750000
vt 0.007812 1.265625
vn 0.707107 0.000000 -0.707107
v -38.250000 -8.000000 -0.750000
vt 0.007812 1.000000
vn 0.707107 0.000000 -0.707107
v -37.984375 27.859375 -0.750000
vt 0.008622 1.015625
vn 0.661581 -0.220527 -0.716713
v -37.750000 27.750000 -0.000000
vt 0.000000 1.015625
vn 0.948683 -0.316228 -0.000000
v -37.652344 28.589844 -0.750000
vt 0.008622 1.023438
vn 0.580724 -0.357351 -0.731478
v -37.437500 28.437500 -0.000000
vt 0.000000 1.023438
vn 0.850651 -0.525731 -0.000000
v -37.187500 29.187500 -0.750000
vt 0.008622 1.031250
vn 0.485071 -0.485071 -0.727607
v -37.000000 29.000000 -0.000000
vt 0.000000 1.031250
vn 0.707107 -0.707107 -0.000000
v -36.589844 29.652344 -0.750000
vt 0.008622 1.039062
vn 0.357351 -0.580724 -0.731478
v -36.437500 29.437500 -0.000000
vt 0.000000 1.039062
vn 0.525731 -0.850651 -0.000000
v -37.046875 30.296875 -1.000000
vt 0.018861 1.039062
vn 0.000000 0.000000 -1.000000
v -37.750000 29.750000 -1.000000
vt 0.018861 1.031250
vn 0.000000 0.000000 -1.000000
v -36.187500 30.687500 -1.000000
vt 0.018861 1.046875
vn 0.000000 0.000000 -1.000000
v -35.859375 29.984375 -0.750000
vt 0.008622 1.046875
vn 0.220527 -0.661581 -0.716713
v -35.171875 30.921875 -1.000000
vt 0.018861 1.054688
vn 0.000000 0.000000 -1.000000
v -34.996094 30.183594 -0.750000
vt 0.008622 1.054688
vn 0.110970 -0.688731 -0.716474
v -34.000000 31.000000 -1.000000
vt 0.018861 1.062500
vn 0.000000 0.000000 -1.000000
v -34.000000 30.250000 -0.750000
vt 0.008622 1.062500
vn 0.000000 -0.707107 -0.707107
v 32.000000 31.000000 -1.000000
vt 0.031250 1.000000
vn 0.000000 0.000000 -1.000000
v -34.000000 31.000000 -1.000000
vt 0.031250 1.515625
vn 0.000000 0.000000 -1.000000
v -34.000000 30.250000 -0.750000
vt 0.039062 1.515625
vn 0.000000 -0.707107 -0.707107
v 32.000000 30.250000 -0.750000
vt 0.039062 1.000000
vn 0.000000 -0.707107 -0.707107
v 33.171875 30.921875 -1.000000
vt 0.028292 1.027344
vn 0.000000 0.000000 -1.000000
v 32.000000 31.000000 -1.000000
vt 0.028292 1.031250
vn 0.000000 0.000000 -1.000000
v 32.000000 30.250000 -0.750000
vt 0.033411 1.031250
vn 0.000000 -0.707107 -0.707107
v 32.996094 30.183594 -0.750000
vt 0.033411 1.027344
vn -0.110970 -0.688731 -0.716474
v 34.187500 30.687500 -1.000000
vt 0.028292 1.023438
vn 0.000000 0.000000 -1.000000
v 33.859375 29.984375 -0.750000
vt 0.033411 1.023438
vn -0.220527 -0.661581 -0.716713
v 35.046875 30.296875 -1.000000
vt 0.028292 1.019531
vn 0.000000 0.000000 -1.000000
v 35.750000 29.750000 -1.000000
vt 0.028292 1.015625
vn 0.000000 0.000000 -1.000000
v 36.296875 29.046875 -1.000000
vt 0.028292 1.011719
vn 0.000000 0.000000 -1.000000
v -38.296875 29.046875 -1.000000
vt 0.018861 1.023438
vn 0.000000 0.000000 -1.000000
v 36.687500 28.187500 -1.000000
vt 0.028292 1.007812
vn 0.000000 0.000000 -1.000000
v -38.687500 28.187500 -1.000000
vt 0.018861 1.015625
vn 0.000000 0.000000 -1.000000
v 36.921875 27.171875 -1.000000
vt 0.028292 1.003906
vn 0.000000 0.000000 -1.000000
v -38.921875 27.171875 -1.000000
vt 0.018861 1.007812
vn 0.000000 0.000000 -1.000000
v 37.000000 26.000000 -1.000000
vt 0.028292 1.000000
vn 0.000000 0.000000 -1.000000
v -38.312500 30.312500 -0.750000
vt 0.029101 1.031250
vn -0.485071 0.485071 -0.727607
v -38.941406 29.503906 -0.750000
vt 0.029101 1.023438
vn -0.580724 0.357351 -0.731478
v 36.941406 29.503906 -0.750000
vt 0.023172 1.011719
vn 0.580724 0.357351 -0.731478
v 36.312500 30.312500 -0.750000
vt 0.023172 1.015625
vn 0.485071 0.485071 -0.727607
v -39.390625 28.515625 -0.750000
vt 0.029101 1.015625
vn -0.661581 0.220527 -0.716713
v 37.390625 28.515625 -0.750000
vt 0.023172 1.007812
vn 0.661581 0.220527 -0.716713
v -37.503906 30.941406 -0.750000
vt 0.029101 1.039062
vn -0.357351 0.580724 -0.731478
v 35.503906 30.941406 -0.750000
vt 0.023172 1.019531
vn 0.357351 0.580724 -0.731478
v -39.660156 27.347656 -0.750000
vt 0.029101 1.007812
vn -0.688731 0.110970 -0.716474
v 32.000000 31.750000 -0.750000
vt 0.023438 1.000000
vn 0.000000 0.707107 -0.707107
v -34.000000 31.750000 -0.750000
vt 0.023438 1.515625
vn 0.000000 0.707107 -0.707107
v -36.515625 31.390625 -0.750000
vt 0.029101 1.046875
vn -0.220527 0.661581 -0.716713
v 34.515625 31.390625 -0.750000
vt 0.023172 1.023438
vn 0.220527 0.661581 -0.716713
v 37.660156 27.347656 -0.750000
vt 0.023172 1.003906
vn 0.688731 0.110970 -0.716474
v -35.347656 31.660156 -0.750000
vt 0.029101 1.054688
vn -0.110970 0.688731 -0.716474
v -34.000000 31.750000 -0.750000
vt 0.029101 1.062500
vn 0.000000 0.707107 -0.707107
v 33.347656 31.660156 -0.750000
vt 0.023172 1.027344
vn 0.110970 0.688731 -0.716474
v 32.000000 31.750000 -0.750000
vt 0.023172 1.031250
vn 0.000000 0.707107 -0.707107
v 37.750000 26.000000 -0.750000
vt 0.023172 1.000000
vn 0.707107 0.000000 -0.707107
v -39.000000 26.000000 -1.000000
vt 0.018861 1.000000
vn 0.000000 0.000000 -1.000000
v -39.750000 26.000000 -0.750000
vt 0.029101 1.000000
vn -0.707107 0.000000 -0.707107
v -39.000000 26.000000 -1.000000
vt 0.015625 1.265625
vn 0.000000 0.000000 -1.000000
v -39.000000 -8.000000 -1.000000
vt 0.015625 1.000000
vn 0.000000 0.000000 -1.000000
v -39.750000 26.000000 -0.750000
vt 0.023438 1.265625
vn -0.707107 0.000000 -0.707107
v -39.750000 -8.000000 -0.750000
vt 0.023438 1.000000
vn -0.707107 0.000000 -0.707107
v 37.750000 -8.000000 -0.750000
vt 0.019531 1.000000
vn 0.707107 0.000000 -0.707107
v 37.750000 26.000000 -0.750000
vt 0.019531 1.132812
vn 0.707107 0.000000 -0.707107
v 37.000000 26.000000 -1.000000
vt 0.023438 1.132812
vn 0.000000 0.000000 -1.000000
v 37.000000 -8.000000 -1.000000
vt 0.023438 1.000000
vn 0.000000 0.000000 -1.000000
v 37.750000 26.000000 0.750000
vt 0.014550 1.000000
vn 0.707107 0.000000 0.707107
v 37.906250 27.406250 -0.000000
vt 0.018861 1.003906
vn 0.987087 0.160182 -0.000000
v 38.000000 26.000000 -0.000000
vt 0.018861 1.000000
vn 1.000000 0.000000 -0.000000
v 37.660156 27.347656 0.750000
vt 0.014550 1.003906
vn 0.688731 0.110970 0.716474
v 37.750000 -8.000000 0.750000
vt 0.011719 1.000000
vn 0.707107 0.000000 0.707107
v 37.750000 26.000000 0.750000
vt 0.011719 1.132812
vn 0.707107 0.000000 0.707107
v 38.000000 26.000000 -0.000000
vt 0.015625 1.132812
vn 1.000000 0.000000 -0.000000
v 38.000000 -8.000000 -0.000000
vt 0.015625 1.000000
vn 1.000000 0.000000 -0.000000
v 37.625000 28.625000 -0.000000
vt 0.018861 1.007812
vn 0.948683 0.316228 -0.000000
v 37.390625 28.515625 0.750000
vt 0.014550 1.007812
vn 0.661581 0.220527 0.716713
v 37.156250 29.656250 -0.000000
vt 0.018861 1.011719
vn 0.850651 0.525731 -0.000000
v 36.941406 29.503906 0.750000
vt 0.014550 1.011719
vn 0.580724 0.357351 0.731478
v 37.750000 26.000000 -0.750000
vt 0.019531 1.132812
vn 0.707107 0.000000 -0.707107
v 37.750000 -8.000000 -0.750000
vt 0.019531 1.000000
vn 0.707107 0.000000 -0.707107
v 37.660156 27.347656 -0.750000
vt 0.023172 1.003906
vn 0.688731 0.110970 -0.716474
v 37.750000 26.000000 -0.750000
vt 0.023172 1.000000
vn 0.707107 0.000000 -0.707107
v 37.390625 28.515625 -0.750000
vt 0.023172 1.007812
vn 0.661581 0.220527 -0.716713
v 36.941406 29.503906 -0.750000
vt 0.023172 1.011719
vn 0.580724 0.357351 -0.731478
v 36.312500 30.312500 -0.750000
vt 0.023172 1.015625
vn 0.485071 0.485071 -0.727607
v 36.500000 30.500000 -0.000000
vt 0.018861 1.015625
vn 0.707107 0.707107 -0.000000
v 36.312500 30.312500 0.750000
vt 0.014550 1.015625
vn 0.485071 0.485071 0.727607
v -39.750000 26.000000 -0.750000
vt 0.029101 1.000000
vn -0.707107 0.000000 -0.707107
v -39.906250 27.406250 -0.000000
vt 0.037722 1.007812
vn -0.987087 0.160182 -0.000000
v -40.000000 26.000000 -0.000000
vt 0.037722 1.000000
vn -1.000000 0.000000 -0.000000
v -39.660156 27.347656 -0.750000
vt 0.029101 1.007812
vn -0.688731 0.110970 -0.716474
v -39.750000 -8.000000 -0.750000
vt 0.023438 1.000000
vn -0.707107 0.000000 -0.707107
v -39.750000 26.000000 -0.750000
vt 0.023438 1.265625
vn -0.707107 0.000000 -0.707107
v -40.000000 26.000000 -0.000000
vt 0.031250 1.265625
vn -1.000000 0.000000 -0.000000
v -40.000000 -8.000000 -0.000000
vt 0.031250 1.000000
vn -1.000000 0.000000 -0.000000
v -39.625000 28.625000 -0.000000
vt 0.037722 1.015625
vn -0.948683 0.316228 -0.000000
v -39.390625 28.515625 -0.750000
vt 0.029101 1.015625
vn -0.661581 0.220527 -0.716713
v -39.156250 29.656250 -0.000000
vt 0.037722 1.023438
vn -0.850651 0.525731 -0.000000
v -38.941406 29.503906 -0.750000
vt 0.029101 1.023438
vn -0.580724 0.357351 -0.731478
v -39.750000 26.000000 0.750000
vt 0.039062 1.265625
vn -0.707107 0.000000 0.707107
v -39.750000 -8.000000 0.750000
vt 0.039062 1.000000
vn -0.707107 0.000000 0.707107
v -39.660156 27.347656 0.750000
vt 0.046344 1.007812
vn -0.688731 0.110970 0.716474
v -39.750000 26.000000 0.750000
vt 0.046344 1.000000
vn -0.707107 0.000000 0.707107
v -39.390625 28.515625 0.750000
vt 0.046344 1.015625
vn -0.661581 0.220527 0.716713
v -38.941406 29.503906 0.750000
vt 0.046344 1.023438
vn -0.580724 0.357351 0.731478
v -38.312500 30.312500 0.750000
vt 0.046344 1.031250
vn -0.485071 0.485071 0.727607
v -38.500000 30.500000 -0.000000
vt 0.037722 1.031250
vn -0.707107 0.707107 -0.000000
v -38.312500 30.312500 -0.750000
vt 0.029101 1.031250
vn -0.485071 0.485071 -0.727607
v -38.250000 26.000000 0.750000
vt 0.066823 1.000000
vn 0.707107 0.000000 0.707107
v -37.937500 26.937500 -0.000000
vt 0.075444 1.007812
vn 0.987088 -0.160182 -0.000000
v -38.000000 26.000000 -0.000000
vt 0.075444 1.000000
vn 1.000000 0.000000 -0.000000
v -38.183594 26.996094 0.750000
vt 0.066823 1.007812
vn 0.688731 -0.110970 0.716474
v -38.250000 -8.000000 0.750000
vt 0.054688 1.000000
vn 0.707107 0.000000 0.707107
v -38.250000 26.000000 0.750000
vt 0.054688 1.265625
vn 0.707107 0.000000 0.707107
v -38.000000 26.000000 -0.000000
vt 0.062500 1.265625
vn 1.000000 0.000000 -0.000000
v -38.000000 -8.000000 -0.000000
vt 0.062500 1.000000
vn 1.000000 0.000000 -0.000000
v -37.750000 27.750000 -0.000000
vt 0.075444 1.015625
vn 0.948683 -0.316228 -0.000000
v -37.984375 27.859375 0.750000
vt 0.066823 1.015625
vn 0.661581 -0.220527 0.716713
v -37.437500 28.437500 -0.000000
vt 0.075444 1.023438
vn 0.850651 -0.525731 -0.000000
v -37.652344 28.589844 0.750000
vt 0.066823 1.023438
vn 0.580724 -0.357351 0.731478
v -37.000000 29.000000 -0.000000
vt 0.075444 1.031250
vn 0.707107 -0.707107 -0.000000
v -37.187500 29.187500 0.750000
vt 0.066823 1.031250
vn 0.485071 -0.485071 0.727607
v 37.000000 11.750000 -0.750000
vt 0.007812 1.000000
vn 0.000000 0.707107 -0.707107
v -39.000000 11.000000 -1.000000
vt 0.015625 1.593750
vn 0.000000 0.000000 -1.000000
v 37.000000 11.000000 -1.000000
vt 0.015625 1.000000
vn 0.000000 0.000000 -1.000000
v -39.000000 11.750000 -0.750000
vt 0.007812 1.593750
vn 0.000000 0.707107 -0.707107
v -39.000000 10.250000 -0.750000
vt 0.023438 1.593750
vn 0.000000 -0.707107 -0.707107
v 37.000000 10.250000 -0.750000
vt 0.023438 1.000000
vn 0.000000 -0.707107 -0.707107
v 37.000000 12.000000 -0.000000
vt 0.000000 1.000000
vn 0.000000 1.000000 -0.000000
v -39.000000 12.000000 -0.000000
vt 0.000000 1.593750
vn 0.000000 1.000000 -0.000000
v 37.000000 11.000000 1.000000
vt 0.046875 1.000000
vn 0.000000 0.000000 1.000000
v -39.000000 11.000000 1.000000
vt 0.046875 1.593750
vn 0.000000 0.000000 1.000000
v -39.000000 11.750000 0.750000
vt 0.054688 1.593750
vn 0.000000 0.707107 0.707107
v 37.000000 11.750000 0.750000
vt 0.054688 1.000000
vn 0.000000 0.707107 0.707107
v 37.000000 10.250000 0.750000
vt 0.039062 1.000000
vn 0.000000 -0.707107 0.707107
v -39.000000 10.250000 0.750000
vt 0.039062 1.593750
vn 0.000000 -0.707107 0.707107
v -39.000000 12.000000 -0.000000
vt 0.062500 1.593750
vn 0.000000 1.000000 -0.000000
v 37.000000 12.000000 -0.000000
vt 0.062500 1.000000
vn 0.000000 1.000000 -0.000000
v 37.000000 10.000000 -0.000000
vt 0.031250 1.000000
vn 0.000000 -1.000000 -0.000000
v -39.000000 10.000000 -0.000000
vt 0.031250 1.593750
vn 0.000000 -1.000000 -0.000000
v -39.000000 10.250000 0.750000
vt 0.039062 1.593750
vn 0.000000 -0.707107 0.707107
v 37.000000 10.250000 0.750000
vt 0.039062 1.000000
vn 0.000000 -0.707107 0.707107
v 37.000000 10.250000 -0.750000
vt 0.023438 1.000000
vn 0.000000 -0.707107 -0.707107
v -39.000000 10.250000 -0.750000
vt 0.023438 1.593750
vn 0.000000 -0.707107 -0.707107
f 153/153/153 154/154/154 156/156/156
f 153/153/153 155/155/155 154/154/154
f 51/51/51 36/36/36 35/35/35
f 51/51/51 52/52/52 36/36/36
f 52/52/52 47/47/47 36/36/36
f 52/52/52 53/53/53 47/47/47
f 255/255/255 256/256/256 258/258/258
f 255/255/255 257/257/257 256/256/256
f 257/257/257 269/269/269 256/256/256
f 257/257/257 270/270/270 269/269/269
f 244/244/244 223/223/223 239/239/239
f 244/244/244 225/225/225 223/223/223
f 225/225/225 170/170/170 223/223/223
f 225/225/225 167/167/167 170/170/170
f 167/167/167 168/168/168 170/170/170
f 167/167/167 169/169/169 168/168/168
f 156/156/156 161/161/161 162/162/162
f 156/156/156 154/154/154 161/161/161
f 35/35/35 32/32/32 31/31/31
f 35/35/35 36/36/36 32/32/32
f 36/36/36 43/43/43 32/32/32
f 36/36/36 47/47/47 43/43/43
f 258/258/258 263/263/263 264/264/264
f 258/258/258 256/256/256 263/263/263
f 256/256/256 271/271/271 263/263/263
f 256/256/256 269/269/269 271/271/271
f 239/239/239 221/221/221 231/231/231
f 239/239/239 223/223/223 221/221/221
f 223/223/223 176/176/176 221/221/221
f 223/223/223 170/170/170 176/176/176
f 170/170/170 175/175/175 176/176/176
f 170/170/170 168/168/168 175/175/175
f 162/162/162 163/163/163 164/164/164
f 162/162/162 161/161/161 163/163/163
f 31/31/31 28/28/28 27/27/27
f 31/31/31 32/32/32 28/28/28
f 32/32/32 40/40/40 28/28/28
f 32/32/32 43/43/43 40/40/40
f 264/264/264 265/265/265 266/266/266
f 264/264/264 263/263/263 265/265/265
f 263/263/263 272/272/272 265/265/265
f 263/263/263 271/271/271 272/272/272
f 231/231/231 219/219/219 228/228/228
f 231/231/231 221/221/221 219/219/219
f 221/221/221 178/178/178 219/219/219
f 221/221/221 176/176/176 178/178/178
f 176/176/176 177/177/177 178/178/178
f 176/176/176 175/175/175 177/177/177
f 164/164/164 165/165/165 166/166/166
f 164/164/164 163/163/163 165/165/165
f 27/27/27 4/4/4 1/1/1
f 27/27/27 28/28/28 4/4/4
f 28/28/28 39/39/39 4/4/4
f 28/28/28 40/40/40 39/39/39
f 266/266/266 274/274/274 275/275/275
f 266/266/266 265/265/265 274/274/274
f 265/265/265 273/273/273 274/274/274
f 265/265/265 272/272/272 273/273/273
f 228/228/228 218/218/218 229/229/229
f 228/228/228 219/219/219 218/218/218
f 219/219/219 180/180/180 218/218/218
f 219/219/219 178/178/178 180/180/180
f 178/178/178 179/179/179 180/180/180
f 178/178/178 177/177/177 179/179/179
f 135/135/135 130/130/130 129/129/129
f 135/135/135 136/136/136 130/130/130
f 1/1/1 3/3/3 2/2/2
f 1/1/1 4/4/4 3/3/3
f 4/4/4 45/45/45 3/3/3
f 4/4/4 39/39/39 45/45/45
f 109/109/109 94/94/94 93/93/93
f 109/109/109 105/105/105 94/94/94
f 105/105/105 104/104/104 94/94/94
f 105/105/105 106/106/106 104/104/104
f 229/229/229 217/217/217 233/233/233
f 229/229/229 218/218/218 217/217/217
f 218/218/218 182/182/182 217/217/217
f 218/218/218 180/180/180 182/182/182
f 180/180/180 181/181/181 182/182/182
f 180/180/180 179/179/179 181/181/181
f 129/129/129 126/126/126 125/125/125
f 129/129/129 130/130/130 126/126/126
f 2/2/2 5/5/5 6/6/6
f 2/2/2 3/3/3 5/5/5
f 3/3/3 48/48/48 5/5/5
f 3/3/3 45/45/45 48/48/48
f 93/93/93 90/90/90 89/89/89
f 93/93/93 94/94/94 90/90/90
f 94/94/94 102/102/102 90/90/90
f 94/94/94 104/104/104 102/102/102
f 233/233/233 215/215/215 238/238/238
f 233/233/233 217/217/217 215/215/215
f 217/217/217 216/216/216 215/215/215
f 217/217/217 182/182/182 216/216/216
f 149/149/149 146/146/146 145/145/145
f 149/149/149 150/150/150 146/146/146
f 125/125/125 118/118/118 115/115/115
f 125/125/125 126/126/126 118/118/118
f 6/6/6 7/7/7 8/8/8
f 6/6/6 5/5/5 7/7/7
f 5/5/5 54/54/54 7/7/7
f 5/5/5 48/48/48 54/54/54
f 89/89/89 82/82/82 79/79/79
f 89/89/89 90/90/90 82/82/82
f 90/90/90 100/100/100 82/82/82
f 90/90/90 102/102/102 100/100/100
f 238/238/238 211/211/211 242/242/242
f 238/238/238 215/215/215 211/211/211
f 215/215/215 214/214/214 211/211/211
f 215/215/215 216/216/216 214/214/214
f 145/145/145 143/143/143 141/141/141
f 145/145/145 146/146/146 143/143/143
f 115/115/115 117/117/117 116/116/116
f 115/115/115 118/118/118 117/117/117
f 8/8/8 9/9/9 10/10/10
f 8/8/8 7/7/7 9/9/9
f 7/7/7 57/57/57 9/9/9
f 7/7/7 54/54/54 57/57/57
f 79/79/79 81/81/81 80/80/80
f 79/79/79 82/82/82 81/81/81
f 82/82/82 99/99/99 81/81/81
f 82/82/82 100/100/100 99/99/99
f 242/242/242 212/212/212 243/243/243
f 242/242/242 211/211/211 212/212/212
f 211/211/211 213/213/213 212/212/212
f 211/211/211 214/214/214 213/213/213
f 141/141/141 142/142/142 144/144/144
f 141/141/141 143/143/143 142/142/142
f 71/71/71 73/73/73 72/72/72
f 71/71/71 74/74/74 73/73/73
f 75/75/75 77/77/77 76/76/76
f 75/75/75 78/78/78 77/77/77
f 78/78/78 95/95/95 77/77/77
f 78/78/78 96/96/96 95/95/95
f 235/235/235 208/208/208 236/236/236
f 235/235/235 207/207/207 208/208/208
f 207/207/207 209/209/209 208/208/208
f 207/207/207 210/210/210 209/209/209
f 131/131/131 112/112/112 132/132/132
f 131/131/131 111/111/111 112/112/112
f 111/111/111 113/113/113 112/112/112
f 111/111/111 114/114/114 113/113/113
f 11/11/11 12/12/12 14/14/14
f 11/11/11 13/13/13 12/12/12
f 157/157/157 159/159/159 158/158/158
f 157/157/157 160/160/160 159/159/159
f 63/63/63 60/60/60 64/64/64
f 63/63/63 59/59/59 60/60/60
f 59/59/59 61/61/61 60/60/60
f 59/59/59 62/62/62 61/61/61
f 259/259/259 261/261/261 260/260/260
f 259/259/259 262/262/262 261/261/261
f 262/262/262 267/267/267 261/261/261
f 262/262/262 268/268/268 267/267/267
f 251/251/251 253/253/253 252/252/252
f 251/251/251 254/254/254 253/253/253
f 254/254/254 172/172/172 253/253/253
f 254/254/254 171/171/171 172/172/172
f 171/171/171 173/173/173 172/172/172
f 171/171/171 174/174/174 173/173/173
f 183/183/183 184/184/184 186/186/186
f 183/183/183 185/185/185 184/184/184
f 185/185/185 224/224/224 184/184/184
f 185/185/185 245/245/245 224/224/224
f 245/245/245 234/234/234 224/224/224
f 245/245/245 246/246/246 234/234/234
f 276/276/276 277/277/277 279/279/279
f 276/276/276 278/278/278 277/277/277
f 278/278/278 290/290/290 277/277/277
f 278/278/278 291/291/291 290/290/290
f 56/56/56 33/33/33 50/50/50
f 56/56/56 37/37/37 33/33/33
f 37/37/37 34/34/34 33/33/33
f 37/37/37 38/38/38 34/34/34
f 297/297/297 298/298/298 300/300/300
f 297/297/297 299/299/299 298/298/298
f 186/186/186 191/191/191 192/192/192
f 186/186/186 184/184/184 191/191/191
f 184/184/184 222/222/222 191/191/191
f 184/184/184 224/224/224 222/222/222
f 224/224/224 230/230/230 222/222/222
f 224/224/224 234/234/234 230/230/230
f 279/279/279 284/284/284 285/285/285
f 279/279/279 277/277/277 284/284/284
f 277/277/277 292/292/292 284/284/284
f 277/277/277 290/290/290 292/292/292
f 50/50/50 29/29/29 44/44/44
f 50/50/50 33/33/33 29/29/29
f 33/33/33 30/30/30 29/29/29
f 33/33/33 34/34/34 30/30/30
f 300/300/300 305/305/305 306/306/306
f 300/300/300 298/298/298 305/305/305
f 192/192/192 193/193/193 194/194/194
f 192/192/192 191/191/191 193/193/193
f 191/191/191 220/220/220 193/193/193
f 191/191/191 222/222/222 220/220/220
f 222/222/222 227/227/227 220/220/220
f 222/222/222 230/230/230 227/227/227
f 285/285/285 286/286/286 287/287/287
f 285/285/285 284/284/284 286/286/286
f 284/284/284 293/293/293 286/286/286
f 284/284/284 292/292/292 293/293/293
f 44/44/44 25/25/25 41/41/41
f 44/44/44 29/29/29 25/25/25
f 29/29/29 26/26/26 25/25/25
f 29/29/29 30/30/30 26/26/26
f 306/306/306 307/307/307 308/308/308
f 306/306/306 305/305/305 307/307/307
f 194/194/194 195/195/195 196/196/196
f 194/194/194 193/193/193 195/195/195
f 193/193/193 200/200/200 195/195/195
f 193/193/193 220/220/220 200/200/200
f 220/220/220 226/226/226 200/200/200
f 220/220/220 227/227/227 226/226/226
f 287/287/287 295/295/295 296/296/296
f 287/287/287 286/286/286 295/295/295
f 286/286/286 294/294/294 295/295/295
f 286/286/286 293/293/293 294/294/294
f 41/41/41 23/23/23 42/42/42
f 41/41/41 25/25/25 23/23/23
f 25/25/25 24/24/24 23/23/23
f 25/25/25 26/26/26 24/24/24
f 308/308/308 309/309/309 310/310/310
f 308/308/308 307/307/307 309/309/309
f 196/196/196 197/197/197 198/198/198
f 196/196/196 195/195/195 197/197/197
f 195/195/195 199/199/199 197/197/197
f 195/195/195 200/200/200 199/199/199
f 200/200/200 232/232/232 199/199/199
f 200/200/200 226/226/226 232/232/232
f 107/107/107 91/91/91 103/103/103
f 107/107/107 108/108/108 91/91/91
f 108/108/108 92/92/92 91/91/91
f 108/108/108 110/110/110 92/92/92
f 42/42/42 21/21/21 46/46/46
f 42/42/42 23/23/23 21/21/21
f 23/23/23 22/22/22 21/21/21
f 23/23/23 24/24/24 22/22/22
f 133/133/133 128/128/128 127/127/127
f 133/133/133 134/134/134 128/128/128
f 151/151/151 148/148/148 147/147/147
f 151/151/151 152/152/152 148/148/148
f 197/197/197 201/201/201 202/202/202
f 197/197/197 199/199/199 201/201/201
f 199/199/199 237/237/237 201/201/201
f 199/199/199 232/232/232 237/237/237
f 103/103/103 87/87/87 101/101/101
f 103/103/103 91/91/91 87/87/87
f 91/91/91 88/88/88 87/87/87
f 91/91/91 92/92/92 88/88/88
f 46/46/46 19/19/19 49/49/49
f 46/46/46 21/21/21 19/19/19
f 21/21/21 20/20/20 19/19/19
f 21/21/21 22/22/22 20/20/20
f 127/127/127 124/124/124 123/123/123
f 127/127/127 128/128/128 124/124/124
f 147/147/147 140/140/140 137/137/137
f 147/147/147 148/148/148 140/140/140
f 202/202/202 203/203/203 204/204/204
f 202/202/202 201/201/201 203/203/203
f 201/201/201 240/240/240 203/203/203
f 201/201/201 237/237/237 240/240/240
f 101/101/101 83/83/83 97/97/97
f 101/101/101 87/87/87 83/83/83
f 87/87/87 86/86/86 83/83/83
f 87/87/87 88/88/88 86/86/86
f 49/49/49 15/15/15 55/55/55
f 49/49/49 19/19/19 15/15/15
f 19/19/19 18/18/18 15/15/15
f 19/19/19 20/20/20 18/18/18
f 123/123/123 122/122/122 119/119/119
f 123/123/123 124/124/124 122/122/122
f 137/137/137 139/139/139 138/138/138
f 137/137/137 140/140/140 139/139/139
f 204/204/204 205/205/205 206/206/206
f 204/204/204 203/203/203 205/205/205
f 203/203/203 241/241/241 205/205/205
f 203/203/203 240/240/240 241/241/241
f 97/97/97 84/84/84 98/98/98
f 97/97/97 83/83/83 84/84/84
f 83/83/83 85/85/85 84/84/84
f 83/83/83 86/86/86 85/85/85
f 55/55/55 16/16/16 58/58/58
f 55/55/55 15/15/15 16/16/16
f 15/15/15 17/17/17 16/16/16
f 15/15/15 18/18/18 17/17/17
f 119/119/119 121/121/121 120/120/120
f 119/119/119 122/122/122 121/121/121
f 317/317/317 314/314/314 318/318/318
f 317/317/317 311/311/311 314/314/314
f 311/311/311 312/312/312 314/314/314
f 311/311/311 313/313/313 312/312/312
f 313/313/313 315/315/315 312/312/312
f 313/313/313 316/316/316 315/315/315
f 331/331/331 328/328/328 332/332/332
f 331/331/331 327/327/327 328/328/328
f 327/327/327 329/329/329 328/328/328
f 327/327/327 330/330/330 329/329/329
f 323/323/323 320/320/320 324/324/324
f 323/323/323 319/319/319 320/320/320
f 319/319/319 321/321/321 320/320/320
f 319/319/319 322/322/322 321/321/321
f 322/322/322 325/325/325 321/321/321
f 322/322/322 326/326/326 325/325/325
f 187/187/187 189/189/189 188/188/188
f 187/187/187 190/190/190 189/189/189
f 190/190/190 247/247/247 189/189/189
f 190/190/190 248/248/248 247/247/247
f 248/248/248 249/249/249 247/247/247
f 248/248/248 250/250/250 249/249/249
f 280/280/280 282/282/282 281/281/281
f 280/280/280 283/283/283 282/282/282
f 283/283/283 288/288/288 282/282/282
f 283/283/283 289/289/289 288/288/288
f 69/69/69 66/66/66 70/70/70
f 69/69/69 65/65/65 66/66/66
f 65/65/65 67/67/67 66/66/66
f 65/65/65 68/68/68 67/67/67
f 301/301/301 303/303/303 302/302/302
f 301/301/301 304/304/304 303/303/303
