# Generated by makebsp -bsp2obj
# Source: C:/Users/German/Documents/My Games/Warfork 2.1/basewf/models/mapobjects/handrails/sources/m_handrail_mini
# Axis swap: Q3 Z-up -> OBJ Y-up (X=X, Y=Z, Z=-Y)
o m_handrail_mini
mtllib m_handrail_mini.mtl
g mat0m0s1
usemtl textures/metal_vertex/vertex_aluminium
v -3.750000 -5.115966 -31.569433
vt 0.048582 1.027344
vn -0.952881 0.264685 -0.148186
v -4.000000 -8.421875 -33.250000
vt 0.068163 1.046875
vn -1.000000 0.000000 -0.000000
v -3.750000 -6.814792 -34.270401
vt 0.050060 1.046875
vn -0.955999 0.239188 -0.169869
v -4.000000 -6.792969 -30.812500
vt 0.065534 1.027344
vn -1.000000 0.000000 -0.000000
v -4.000000 -10.136719 -35.312500
vt 0.070388 1.058594
vn -1.000000 0.000000 -0.000000
v -3.750000 -8.656105 -36.555832
vt 0.051312 1.058594
vn -0.957290 0.212710 -0.195834
v -4.000000 -11.937500 -37.000000
vt 0.072208 1.062500
vn -1.000000 0.000000 -0.000000
v -3.750000 -10.639907 -38.425735
vt 0.052336 1.062500
vn -0.957005 0.182420 -0.225531
v -4.000000 -13.824219 -38.312500
vt 0.073624 1.058594
vn -1.000000 0.000000 -0.000000
v -3.750000 -12.766197 -39.880096
vt 0.053132 1.058594
vn -0.955325 0.145859 -0.257058
v -4.000000 -15.796875 -39.250000
vt 0.074635 1.046875
vn -1.000000 0.000000 -0.000000
v -3.750000 -15.034977 -40.918934
vt 0.053701 1.046875
vn -0.952653 0.101806 -0.286511
v -4.000000 -17.855469 -39.812500
vt 0.075242 1.027344
vn -1.000000 0.000000 -0.000000
v -3.750000 -17.446243 -41.542233
vt 0.054042 1.027344
vn -0.949937 0.051620 -0.308149
v -4.000000 -20.000000 -40.000000
vt 0.075444 1.000000
vn -1.000000 0.000000 -0.000000
v -3.750000 -20.000000 -41.750000
vt 0.054156 1.000000
vn -0.948683 -0.000000 -0.316228
v -4.000000 -28.000000 -40.000000
vt 0.062500 1.000000
vn -1.000000 0.000000 -0.000000
v -3.750000 -28.000000 -41.750000
vt 0.046875 1.000000
vn -0.948683 0.000000 -0.316228
v -3.750000 -3.559629 -28.452934
vt 0.046875 1.000000
vn -0.946917 0.281743 -0.154822
v -3.750000 31.538229 28.979492
vt 0.050636 1.480103
vn -0.943423 0.299216 -0.142908
v -4.000000 29.862061 29.320312
vt 0.069187 1.480103
vn -1.000000 0.000000 -0.000000
v -4.000000 16.860107 6.632812
vt 0.064030 1.535767
vn -1.000000 0.000000 -0.000000
v -3.750000 18.507301 6.097396
vt 0.047735 1.535767
vn -0.944912 0.278977 -0.171208
v -4.000000 -5.250000 -28.000000
vt 0.062500 1.000000
vn -1.000000 0.000000 -0.000000
v -3.750000 33.732880 34.625648
vt 0.052855 1.201782
vn -0.946884 0.316183 -0.058642
v -4.000000 32.012451 34.757812
vt 0.073131 1.201782
vn -1.000000 0.000000 -0.000000
v -3.750000 33.696289 37.665039
vt 0.054128 1.014648
vn -0.949279 0.313650 0.022214
v -4.000000 31.953125 37.453125
vt 0.075394 1.014648
vn -1.000000 0.000000 -0.000000
v -3.750000 33.266602 40.672852
vt 0.053900 1.038086
vn -0.950685 0.301918 0.071017
v -4.000000 31.578125 40.078125
vt 0.074989 1.038086
vn -1.000000 0.000000 -0.000000
v -3.750000 32.407227 43.250977
vt 0.053445 1.053711
vn -0.952724 0.276178 0.126660
v -4.000000 30.828125 42.328125
vt 0.074180 1.053711
vn -1.000000 0.000000 -0.000000
v -3.750000 31.118164 45.399414
vt 0.052762 1.061523
vn -0.954226 0.235841 0.183933
v -4.000000 29.703125 44.203125
vt 0.072967 1.061523
vn -1.000000 0.000000 -0.000000
v -3.750000 29.399414 47.118164
vt 0.051852 1.061523
vn -0.954226 0.183933 0.235841
v -4.000000 28.203125 45.703125
vt 0.071349 1.061523
vn -1.000000 0.000000 -0.000000
v -3.750000 15.212914 7.168228
vt 0.080324 1.535767
vn -0.944867 -0.278769 0.171799
v -3.750000 -6.940371 -27.547066
vt 0.078125 1.000000
vn -0.945403 -0.285647 0.156902
v -3.750000 28.185892 29.661133
vt 0.087738 1.480103
vn -0.943139 -0.298400 0.146449
v -3.750000 -8.203369 -30.055567
vt 0.082486 1.027344
vn -0.942932 -0.290323 0.163070
v -3.750000 -9.571926 -32.229599
vt 0.086266 1.046875
vn -0.940261 -0.277864 0.196725
v -3.750000 -11.046043 -34.069168
vt 0.089464 1.058594
vn -0.939752 -0.252484 0.230473
v -3.750000 -12.625718 -35.574265
vt 0.092080 1.062500
vn -0.941180 -0.214200 0.261340
v -3.750000 -14.310951 -36.744904
vt 0.094116 1.058594
vn -0.943720 -0.165366 0.286438
v -3.750000 -16.101742 -37.581066
vt 0.095569 1.046875
vn -0.946301 -0.110260 0.303904
v -3.750000 -17.998093 -38.082767
vt 0.096442 1.027344
vn -0.948079 -0.053779 0.313454
v -3.750000 30.292023 34.889977
vt 0.093407 1.201782
vn -0.947000 -0.316393 0.055554
v -3.750000 30.209961 37.241211
vt 0.096660 1.014648
vn -0.949279 -0.313650 -0.022214
v -3.750000 29.889648 39.483398
vt 0.096078 1.038086
vn -0.950685 -0.301918 -0.071017
v -3.750000 29.249023 41.405273
vt 0.094915 1.053711
vn -0.952724 -0.276178 -0.126660
v -3.750000 28.288086 43.006836
vt 0.093171 1.061523
vn -0.954226 -0.235841 -0.183933
v -3.750000 27.006836 44.288086
vt 0.090845 1.061523
vn -0.954226 -0.183933 -0.235841
v -3.750000 -28.000000 -38.250000
vt 0.078125 1.000000
vn -0.948683 0.000000 0.316228
v -3.750000 -20.000000 -38.250000
vt 0.096732 1.000000
vn -0.948683 0.000000 0.316228
v -4.000000 26.328125 46.828125
vt 0.069326 1.053711
vn -1.000000 0.000000 -0.000000
v -3.750000 25.405273 45.249023
vt 0.087937 1.053711
vn -0.952724 -0.126661 -0.276178
v -3.750000 27.250977 48.407227
vt 0.050715 1.053711
vn -0.952724 0.126660 0.276178
v -4.000000 24.078125 47.578125
vt 0.066899 1.038086
vn -1.000000 0.000000 -0.000000
v -3.750000 23.483398 45.889648
vt 0.084449 1.038086
vn -0.950685 -0.071017 -0.301918
v -3.750000 24.672852 49.266602
vt 0.049349 1.038086
vn -0.950685 0.071017 0.301918
v -4.000000 21.453125 47.953125
vt 0.064067 1.014648
vn -1.000000 0.000000 -0.000000
v -3.750000 21.241211 46.209961
vt 0.080378 1.014648
vn -0.949279 -0.022214 -0.313650
v -3.750000 21.665039 49.696289
vt 0.047757 1.014648
vn -0.949279 0.022214 0.313650
v -4.000000 4.000000 48.000000
vt 0.062500 1.875000
vn -1.000000 0.000000 -0.000000
v -3.750000 4.000000 46.250000
vt 0.078125 1.875000
vn -0.948683 0.000000 -0.316228
v -3.750000 4.000000 49.750000
vt 0.046875 1.875000
vn -0.948683 0.000000 0.316228
v -3.000000 -7.598525 -37.443928
vt 0.033222 1.058594
vn -0.741128 0.496457 -0.451951
v -3.000000 -9.713055 -39.444115
vt 0.033677 1.062500
vn -0.739826 0.422202 -0.523835
v -3.000000 -5.666875 -34.999260
vt 0.032666 1.046875
vn -0.735926 0.557251 -0.384557
v -3.000000 -12.010468 -40.999813
vt 0.034031 1.058594
vn -0.732766 0.331694 -0.594166
v -3.000000 -3.918108 -32.110100
vt 0.032008 1.027344
vn -0.723787 0.608985 -0.324452
v -3.000000 -14.490764 -42.111031
vt 0.034284 1.046875
vn -0.722018 0.226071 -0.653898
v -3.000000 -2.352222 -28.776459
vt 0.031250 1.000000
vn -0.701642 0.629182 -0.334408
v -3.000000 30.253906 48.128906
vt 0.033462 1.061523
vn -0.728522 0.421402 0.540071
v -3.000000 32.128906 46.253906
vt 0.033867 1.061523
vn -0.728522 0.540071 0.421402
v -3.000000 33.535156 43.910156
vt 0.034170 1.053711
vn -0.722578 0.628225 0.288469
v -3.000000 27.277344 42.152344
vt 0.112067 1.061523
vn -0.728522 -0.540071 -0.421402
v -3.000000 26.152344 43.277344
vt 0.109235 1.061523
vn -0.728522 -0.421402 -0.540071
v -3.000000 24.746094 44.121094
vt 0.105696 1.053711
vn -0.722578 -0.288469 -0.628225
v -3.000000 23.058594 44.683594
vt 0.101448 1.038086
vn -0.714676 -0.160393 -0.680817
v -3.000000 21.089844 44.964844
vt 0.096493 1.014648
vn -0.709337 -0.049872 -0.703103
v -3.000000 28.121094 40.746094
vt 0.114190 1.053711
vn -0.722578 -0.628225 -0.288469
v -3.000000 28.683594 39.058594
vt 0.115606 1.038086
vn -0.714676 -0.680817 -0.160393
v -3.000000 28.964844 37.089844
vt 0.116314 1.014648
vn -0.709337 -0.703103 -0.049872
v -3.000000 29.063145 34.984383
vt 0.112354 1.201782
vn -0.701108 -0.702935 0.119709
v -3.000000 26.988626 29.904575
vt 0.105452 1.480103
vn -0.686754 -0.651247 0.322872
v -3.000000 4.000000 45.000000
vt 0.093750 1.875000
vn -0.707107 0.000000 -0.707107
v -3.000000 27.910156 49.535156
vt 0.032957 1.053711
vn -0.722578 0.288469 0.628225
v -3.000000 -17.153940 -42.777756
vt 0.034435 1.027344
vn -0.711673 0.111939 -0.693535
v -3.000000 34.472656 41.097656
vt 0.034372 1.038086
vn -0.714676 0.680817 0.160393
v -3.000000 25.097656 50.472656
vt 0.032350 1.038086
vn -0.714676 0.160393 0.680817
v -3.000000 34.941406 37.816406
vt 0.034473 1.014648
vn -0.709337 0.703103 0.049872
v -3.000000 -20.000000 -43.000000
vt 0.034486 1.000000
vn -0.707107 0.000000 -0.707107
v -3.000000 34.961754 34.531242
vt 0.033908 1.201782
vn -0.700372 0.701519 -0.131720
v -3.000000 -28.000000 -43.000000
vt 0.031250 1.000000
vn -0.707107 0.000000 -0.707107
v -3.000000 21.816406 50.941406
vt 0.031642 1.014648
vn -0.709337 0.049872 0.703103
v -3.000000 4.000000 51.000000
vt 0.031250 1.875000
vn -0.707107 0.000000 0.707107
v -3.000000 -28.000000 -37.000000
vt 0.093750 1.000000
vn -0.707107 0.000000 0.707107
v -3.000000 -20.000000 -37.000000
vt 0.116402 1.000000
vn -0.707107 0.000000 0.707107
v -3.000000 -18.201529 -36.847244
vt 0.116048 1.027344
vn -0.711965 -0.120638 0.691775
v -3.000000 -16.493610 -36.388969
vt 0.114987 1.046875
vn -0.722593 -0.238555 0.648808
v -3.000000 -14.876251 -35.625187
vt 0.113217 1.058594
vn -0.733244 -0.342537 0.587386
v -3.000000 -13.349445 -34.555885
vt 0.110739 1.062500
vn -0.740032 -0.427985 0.518826
v -3.000000 -11.913195 -33.181072
vt 0.107554 1.058594
vn -0.741126 -0.496379 0.452040
v -3.000000 -10.567499 -31.500742
vt 0.103660 1.046875
vn -0.735726 -0.552345 0.391947
v -3.000000 -9.312361 -29.514900
vt 0.099059 1.027344
vn -0.723088 -0.601151 0.340238
v -3.000000 -8.147778 -27.223541
vt 0.093750 1.000000
vn -0.700540 -0.624648 0.345048
v -3.000000 14.036345 7.550668
vt 0.096427 1.535767
vn -0.693158 -0.613364 0.378571
v -3.000000 19.683868 5.714957
vt 0.031632 1.535767
vn -0.693438 0.614347 -0.376460
v -3.000000 32.735497 28.736050
vt 0.032922 1.480103
vn -0.688457 0.655592 -0.310203
v -1.750000 -16.978558 -43.519070
vt 0.016421 1.027344
vn -0.319871 0.148134 -0.935809
v -1.750000 -20.000000 -43.750000
vt 0.016434 1.000000
vn -0.316228 0.000000 -0.948683
v -1.750000 -28.000000 -43.750000
vt 0.015625 1.000000
vn -0.316228 0.000000 -0.948683
v 2.437500 20.095667 5.581103
vt 0.232466 1.535767
vn 0.512730 0.732151 -0.448400
v 1.750000 20.389809 5.485493
vt 0.240398 1.535767
vn 0.305498 0.812083 -0.497183
v 1.750000 -1.627778 -28.970573
vt 0.234375 1.000000
vn 0.299886 0.861903 -0.408891
v 2.437500 -1.929630 -28.889692
vt 0.226562 1.000000
vn 0.517290 0.775276 -0.362435
v 2.437500 33.154541 28.650845
vt 0.252370 1.480103
vn 0.508133 0.779012 -0.367343
v 3.000000 19.683868 5.714957
vt 0.224486 1.535767
vn 0.693438 0.614347 -0.376460
v 3.000000 -2.352222 -28.776459
vt 0.218750 1.000000
vn 0.704483 0.642481 -0.301533
v 3.437500 19.154413 5.887054
vt 0.216458 1.535767
vn 0.842435 0.459337 -0.281623
v 3.437500 -2.895555 -28.630873
vt 0.210938 1.000000
vn 0.850246 0.474978 -0.226887
v 3.000000 32.735497 28.736050
vt 0.243826 1.480103
vn 0.688457 0.655592 -0.310203
v 3.437500 32.196724 28.845600
vt 0.235073 1.480103
vn 0.839353 0.491061 -0.233122
v 3.000000 -3.562639 -32.110100
vt 0.230127 1.027344
vn 0.724520 0.632085 -0.274846
v 3.437500 34.408760 34.573727
vt 0.249308 1.201782
vn 0.846754 0.522924 -0.097771
v 3.000000 34.961754 34.531242
vt 0.258616 1.201782
vn 0.700372 0.701519 -0.131720
v 2.437500 -3.165605 -32.299332
vt 0.238271 1.027344
vn 0.500163 0.794121 -0.345266
v 2.437500 -4.693815 -35.254360
vt 0.248418 1.046875
vn 0.485891 0.744744 -0.457456
v 3.000000 -5.057500 -34.999260
vt 0.239987 1.046875
vn 0.736144 0.576802 -0.354106
v 2.437500 -6.514260 -37.754761
vt 0.257005 1.058594
vn 0.483668 0.661815 -0.572771
v 3.000000 -6.836805 -37.443928
vt 0.248329 1.058594
vn 0.741362 0.507656 -0.438940
v 2.437500 35.391865 34.498199
vt 0.267591 1.201782
vn 0.519393 0.839750 -0.158275
v 1.750000 -2.932791 -32.434502
vt 0.246321 1.027344
vn 0.235322 0.887218 -0.396823
v 1.750000 33.453854 28.589985
vt 0.260705 1.480103
vn 0.301813 0.862634 -0.405920
v 1.750000 -4.521094 -35.436573
vt 0.256673 1.046875
vn 0.186868 0.833391 -0.520135
v 1.750000 -6.392687 -37.976784
vt 0.265433 1.058594
vn 0.174101 0.742290 -0.647066
v 1.750000 -8.547569 -40.055145
vt 0.272601 1.062500
vn 0.193059 0.615014 -0.764517
v 2.437500 -8.626938 -39.800549
vt 0.264030 1.062500
vn 0.491253 0.546186 -0.678492
v 0.937500 20.566294 5.428126
vt 0.248282 1.535767
vn 0.154610 0.842653 -0.515782
v 0.937500 33.633442 28.553469
vt 0.268831 1.480103
vn 0.152711 0.894439 -0.420308
v 0.937500 -1.446667 -29.019100
vt 0.242188 1.000000
vn 0.139699 0.888490 -0.437114
v 0.937500 -2.864196 -32.515602
vt 0.254275 1.027344
vn 0.040104 0.903017 -0.427730
v 1.750000 35.699081 34.474602
vt 0.276234 1.201782
vn 0.310825 0.933954 -0.176402
v 0.937500 35.883415 34.460442
vt 0.284545 1.201782
vn 0.157393 0.970324 -0.183573
v 0.937500 -4.539336 -35.545898
vt 0.264751 1.046875
vn -0.030213 0.840127 -0.541548
v 0.000000 20.625122 5.409005
vt 0.256118 1.535767
vn 0.000000 0.852926 -0.522032
v 0.000000 33.693306 28.541298
vt 0.276748 1.480103
vn 0.000000 0.905127 -0.425141
v 0.000000 -1.386296 -29.035276
vt 0.250000 1.000000
vn -0.011846 0.890776 -0.454288
v 0.000000 -2.959821 -32.542633
vt 0.262135 1.027344
vn -0.078833 0.890992 -0.447122
v 0.937500 -6.472087 -38.110001
vt 0.273616 1.058594
vn -0.050691 0.748182 -0.661554
v 0.000000 35.944859 34.455719
vt 0.292524 1.201782
vn 0.000000 0.982558 -0.185959
v 0.937500 -8.662448 -40.207901
vt 0.280868 1.062500
vn -0.027471 0.626397 -0.779020
v 0.000000 -4.748542 -35.582344
vt 0.272652 1.046875
vn -0.124194 0.825550 -0.550494
v 0.000000 -6.752460 -38.154404
vt 0.281551 1.058594
vn -0.137981 0.737037 -0.661617
v 0.000000 -4.748542 -35.582344
vt 0.000000 1.046875
vn -0.124194 0.825550 -0.550494
v -1.750000 -4.978125 -35.436573
vt 0.015979 1.046875
vn -0.340736 0.777708 -0.528270
v -1.750000 -6.963976 -37.976784
vt 0.016118 1.058594
vn -0.345372 0.695894 -0.629642
v 0.000000 -6.752460 -38.154404
vt 0.000000 1.058594
vn -0.137981 0.737037 -0.661617
v 0.000000 -2.959821 -32.542633
vt 0.000000 1.027344
vn -0.078833 0.890992 -0.447122
v -1.750000 -3.199393 -32.434502
vt 0.015815 1.027344
vn -0.330296 0.838050 -0.434255
v 0.000000 -1.386296 -29.035276
vt 0.000000 1.000000
vn -0.011846 0.890776 -0.454288
v -1.750000 -1.627778 -28.970573
vt 0.015625 1.000000
vn -0.312364 0.842544 -0.438804
v 0.000000 20.625122 5.409005
vt 0.000000 1.535767
vn 0.000000 0.852926 -0.522032
v -1.750000 20.389809 5.485493
vt 0.015721 1.535767
vn -0.305498 0.812083 -0.497183
v 0.000000 33.693306 28.541298
vt 0.000000 1.480103
vn 0.000000 0.905127 -0.425141
v -1.750000 33.453854 28.589985
vt 0.016043 1.480103
vn -0.301813 0.862634 -0.405920
v 0.000000 35.944859 34.455719
vt 0.000000 1.201782
vn 0.000000 0.982558 -0.185959
v -1.750000 35.699081 34.474602
vt 0.016289 1.201782
vn -0.310825 0.933954 -0.176402
v -1.750000 -9.156944 -40.055145
vt 0.016232 1.062500
vn -0.344134 0.588521 -0.731584
v 0.000000 -8.971574 -40.258820
vt 0.000000 1.062500
vn -0.124304 0.621717 -0.773315
v 0.000000 -8.971574 -40.258820
vt 0.288833 1.062500
vn -0.124304 0.621717 -0.773315
v 0.937500 -11.110418 -41.839600
vt 0.286509 1.058594
vn 0.026492 0.476896 -0.878560
v 1.750000 -10.985741 -41.671642
vt 0.278175 1.058594
vn 0.231778 0.460263 -0.856993
v 0.000000 -11.405885 -41.895584
vt 0.294496 1.058594
vn -0.090196 0.479441 -0.872927
v -1.750000 -11.557030 -41.671642
vt 0.016320 1.058594
vn -0.337747 0.455768 -0.823531
v 0.000000 -11.405885 -41.895584
vt 0.000000 1.058594
vn -0.090196 0.479441 -0.872927
v 0.000000 35.937500 37.937500
vt 0.000000 1.014648
vn 0.000000 0.997484 0.070889
v -1.750000 35.688477 37.907227
vt 0.016431 1.014648
vn -0.318032 0.945697 0.067183
v -3.000000 -2.352222 -28.776459
vt 0.031250 1.000000
vn -0.701642 0.629182 -0.334408
v -3.000000 19.683868 5.714957
vt 0.031632 1.535767
vn -0.693438 0.614347 -0.376460
v -3.000000 32.735497 28.736050
vt 0.032922 1.480103
vn -0.688457 0.655592 -0.310203
v -3.000000 34.961754 34.531242
vt 0.033908 1.201782
vn -0.700372 0.701519 -0.131720
v -3.000000 -3.918108 -32.110100
vt 0.032008 1.027344
vn -0.723787 0.608985 -0.324452
v -3.000000 -5.666875 -34.999260
vt 0.032666 1.046875
vn -0.735926 0.557251 -0.384557
v -3.000000 -7.598525 -37.443928
vt 0.033222 1.058594
vn -0.741128 0.496457 -0.451951
v -3.000000 -9.713055 -39.444115
vt 0.033677 1.062500
vn -0.739826 0.422202 -0.523835
v -3.000000 -12.010468 -40.999813
vt 0.034031 1.058594
vn -0.732766 0.331694 -0.594166
v 0.000000 -14.055393 -43.064705
vt 0.298541 1.046875
vn -0.047982 0.318319 -0.946769
v -1.750000 -14.164236 -42.826286
vt 0.016383 1.046875
vn -0.328424 0.304664 -0.894046
v 0.000000 -14.055393 -43.064705
vt 0.000000 1.046875
vn -0.047982 0.318319 -0.946769
v -3.000000 34.941406 37.816406
vt 0.034473 1.014648
vn -0.709337 0.703103 0.049872
v -3.000000 -14.490764 -42.111031
vt 0.034284 1.046875
vn -0.722018 0.226071 -0.653898
v 0.000000 35.437500 41.437500
vt 0.000000 1.038086
vn 0.000000 0.973249 0.229753
v -1.750000 35.196289 41.352539
vt 0.016406 1.038086
vn -0.322412 0.921297 0.217399
v -3.000000 34.472656 41.097656
vt 0.034372 1.038086
vn -0.714676 0.680817 0.160393
v -1.750000 -16.978558 -43.519070
vt 0.016421 1.027344
vn -0.319871 0.148134 -0.935809
v 0.000000 -16.920097 -43.766174
vt 0.000000 1.027344
vn -0.013478 0.153558 -0.988048
v -3.000000 -17.153940 -42.777756
vt 0.034435 1.027344
vn -0.711673 0.111939 -0.693535
v -1.750000 34.211914 44.305664
vt 0.016355 1.053711
vn -0.329036 0.857975 0.394479
v -3.000000 33.535156 43.910156
vt 0.034170 1.053711
vn -0.722578 0.628225 0.288469
v 0.000000 34.437500 44.437500
vt 0.000000 1.053711
vn 0.000000 0.908513 0.417857
v 1.750000 25.352539 51.196289
vt 0.251696 1.038086
vn 0.322412 0.217399 0.921297
v 0.937500 25.416260 51.377197
vt 0.259715 1.038086
vn 0.163436 0.226621 0.960173
v 0.937500 28.404541 50.381104
vt 0.269385 1.053711
vn 0.166910 0.411939 0.895794
v 1.750000 28.305664 50.211914
vt 0.261252 1.053711
vn 0.329036 0.394479 0.857975
v 0.000000 28.437500 50.437500
vt 0.277304 1.053711
vn 0.000000 0.417857 0.908513
v 0.000000 25.437500 51.437500
vt 0.267596 1.038086
vn 0.000000 0.229753 0.973249
v 0.937500 21.929932 51.875244
vt 0.248433 1.014648
vn 0.161141 0.069950 0.984449
v 0.000000 21.937500 51.937500
vt 0.256270 1.014648
vn 0.000000 0.070889 0.997484
v 1.750000 21.907227 51.688477
vt 0.240547 1.014648
vn 0.318032 0.067183 0.945697
v 0.937500 4.000000 51.937500
vt 0.242188 1.875000
vn 0.160182 -0.000000 0.987088
v 0.000000 4.000000 52.000000
vt 0.250000 1.875000
vn 0.000000 0.000000 1.000000
v 1.750000 4.000000 51.750000
vt 0.234375 1.875000
vn 0.316228 0.000000 0.948683
v 2.437500 4.000000 51.437500
vt 0.226562 1.875000
vn 0.525731 0.000000 0.850651
v 2.437500 21.869385 51.377197
vt 0.232612 1.014648
vn 0.527984 0.060141 0.847122
v 2.437500 25.246338 50.894775
vt 0.243540 1.038086
vn 0.533230 0.194162 0.823387
v 2.437500 28.140869 49.929932
vt 0.252907 1.053711
vn 0.541062 0.351152 0.764162
v 0.000000 4.000000 52.000000
vt 0.000000 1.875000
vn 0.000000 0.000000 1.000000
v -1.750000 21.907227 51.688477
vt 0.015723 1.014648
vn -0.318032 0.067183 0.945697
v 0.000000 21.937500 51.937500
vt 0.000000 1.014648
vn 0.000000 0.070889 0.997484
v -1.750000 4.000000 51.750000
vt 0.015625 1.875000
vn -0.316228 0.000000 0.948683
v -1.750000 25.352539 51.196289
vt 0.015900 1.038086
vn -0.322412 0.217399 0.921297
v 0.000000 25.437500 51.437500
vt 0.000000 1.038086
vn 0.000000 0.229753 0.973249
v -1.750000 28.305664 50.211914
vt 0.016052 1.053711
vn -0.329036 0.394479 0.857975
v 0.000000 28.437500 50.437500
vt 0.000000 1.053711
vn 0.000000 0.417857 0.908513
v 0.000000 30.937500 48.937500
vt 0.285394 1.061523
vn 0.000000 0.615412 0.788206
v 0.937500 30.894775 48.886963
vt 0.277443 1.061523
vn 0.169589 0.606473 0.776808
v 1.750000 30.766602 48.735352
vt 0.269216 1.061523
vn 0.334129 0.579994 0.742943
v 2.437500 30.552979 48.482666
vt 0.260712 1.061523
vn 0.547021 0.515061 0.659909
v 3.000000 4.000000 51.000000
vt 0.218750 1.875000
vn 0.707107 0.000000 0.707107
v 3.000000 21.816406 50.941406
vt 0.224628 1.014648
vn 0.709337 0.049872 0.703103
v 3.000000 25.097656 50.472656
vt 0.235246 1.038086
vn 0.714676 0.160393 0.680817
v 3.000000 27.910156 49.535156
vt 0.244348 1.053711
vn 0.722578 0.288469 0.628225
v -1.750000 30.766602 48.735352
vt 0.016178 1.061523
vn -0.334129 0.579994 0.742943
v 0.000000 30.937500 48.937500
vt 0.000000 1.061523
vn 0.000000 0.615412 0.788206
v -3.000000 21.816406 50.941406
vt 0.031642 1.014648
vn -0.709337 0.049872 0.703103
v -3.000000 4.000000 51.000000
vt 0.031250 1.875000
vn -0.707107 0.000000 0.707107
v -3.000000 25.097656 50.472656
vt 0.032350 1.038086
vn -0.714676 0.160393 0.680817
v -3.000000 27.910156 49.535156
vt 0.032957 1.053711
vn -0.722578 0.288469 0.628225
v -3.000000 30.253906 48.128906
vt 0.033462 1.061523
vn -0.728522 0.421402 0.540071
v -1.750000 32.735352 46.766602
vt 0.016279 1.061523
vn -0.334129 0.742943 0.579994
v 0.000000 32.937500 46.937500
vt 0.000000 1.061523
vn 0.000000 0.788206 0.615412
v -3.000000 32.128906 46.253906
vt 0.033867 1.061523
vn -0.728522 0.540071 0.421402
v -1.750000 34.211914 44.305664
vt 0.016355 1.053711
vn -0.329036 0.857975 0.394479
v 0.000000 34.437500 44.437500
vt 0.000000 1.053711
vn 0.000000 0.908513 0.417857
v -3.000000 33.535156 43.910156
vt 0.034170 1.053711
vn -0.722578 0.628225 0.288469
v -1.750000 22.803711 43.959961
vt 0.117898 1.038086
vn -0.322412 -0.217399 -0.921297
v 0.000000 22.718750 43.718750
vt 0.133798 1.038086
vn 0.000000 -0.229753 -0.973249
v 0.000000 24.218750 43.218750
vt 0.138652 1.053711
vn 0.000000 -0.417857 -0.908513
v -1.750000 24.350586 43.444336
vt 0.122600 1.053711
vn -0.329036 -0.394479 -0.857975
v -1.750000 20.999023 44.217773
vt 0.112412 1.014648
vn -0.318032 -0.067183 -0.945697
v 0.000000 20.968750 43.968750
vt 0.128135 1.014648
vn 0.000000 -0.070889 -0.997484
v -1.750000 4.000000 44.250000
vt 0.109375 1.875000
vn -0.316228 0.000000 -0.948683
v 0.000000 4.000000 44.000000
vt 0.125000 1.875000
vn 0.000000 0.000000 -1.000000
v 1.750000 20.999023 44.217773
vt 0.143858 1.014648
vn 0.318032 -0.067183 -0.945697
v 1.750000 4.000000 44.250000
vt 0.140625 1.875000
vn 0.316228 0.000000 -0.948683
v 1.750000 22.803711 43.959961
vt 0.149698 1.038086
vn 0.322412 -0.217399 -0.921297
v 1.750000 24.350586 43.444336
vt 0.154704 1.053711
vn 0.329036 -0.394479 -0.857975
v -3.000000 4.000000 45.000000
vt 0.093750 1.875000
vn -0.707107 0.000000 -0.707107
v -3.000000 21.089844 44.964844
vt 0.096493 1.014648
vn -0.709337 -0.049872 -0.703103
v -3.000000 23.058594 44.683594
vt 0.101448 1.038086
vn -0.714676 -0.160393 -0.680817
v -3.000000 24.746094 44.121094
vt 0.105696 1.053711
vn -0.722578 -0.288469 -0.628225
v 0.000000 25.468750 42.468750
vt 0.142697 1.061523
vn 0.000000 -0.615412 -0.788205
v -1.750000 25.639648 42.670898
vt 0.126519 1.061523
vn -0.334129 -0.579994 -0.742943
v 1.750000 25.639648 42.670898
vt 0.158875 1.061523
vn 0.334129 -0.579994 -0.742943
v -3.000000 26.152344 43.277344
vt 0.109235 1.061523
vn -0.728522 -0.421402 -0.540071
v 3.000000 21.089844 44.964844
vt 0.159777 1.014648
vn 0.709337 -0.049872 -0.703103
v 3.000000 4.000000 45.000000
vt 0.156250 1.875000
vn 0.707107 0.000000 -0.707107
v 3.000000 23.058594 44.683594
vt 0.166148 1.038086
vn 0.714676 -0.160393 -0.680817
v 3.000000 24.746094 44.121094
vt 0.171609 1.053711
vn 0.722578 -0.288469 -0.628225
v 3.000000 26.152344 43.277344
vt 0.176159 1.061523
vn 0.728522 -0.421402 -0.540071
v 0.000000 -18.790840 -35.858826
vt 0.150484 1.027344
vn -0.018810 -0.217673 0.975841
v 1.750000 -20.000000 -36.250000
vt 0.167322 1.000000
vn 0.316228 0.000000 0.948683
v 0.000000 -20.000000 -36.000000
vt 0.150888 1.000000
vn 0.000000 0.000000 1.000000
v 1.750000 -18.732380 -36.105930
vt 0.166905 1.027344
vn 0.320665 -0.207300 0.924230
v 1.750000 -28.000000 -36.250000
vt 0.140625 1.000000
vn 0.316228 0.000000 0.948683
v 0.000000 -28.000000 -36.000000
vt 0.125000 1.000000
vn 0.000000 0.000000 1.000000
v -1.750000 -20.000000 -36.250000
vt 0.134454 1.000000
vn -0.316228 0.000000 0.948683
v -1.750000 -28.000000 -36.250000
vt 0.109375 1.000000
vn -0.316228 0.000000 0.948683
v -1.750000 -18.465778 -36.105930
vt 0.134062 1.027344
vn -0.339083 -0.176384 0.924073
v -1.750000 -16.972483 -35.673714
vt 0.132887 1.046875
vn -0.389564 -0.335985 0.857528
v 0.000000 -17.538357 -35.435295
vt 0.149270 1.046875
vn -0.059459 -0.398170 0.915383
v 1.750000 -17.429514 -35.673714
vt 0.165654 1.046875
vn 0.329845 -0.377681 0.865194
v 0.000000 -16.242554 -34.729416
vt 0.147248 1.058594
vn -0.100070 -0.534554 0.839189
v 1.750000 -16.091408 -34.953358
vt 0.163568 1.058594
vn 0.338812 -0.505865 0.793289
v -1.750000 -15.520119 -34.953358
vt 0.130928 1.058594
vn -0.440751 -0.464066 0.768363
v 3.000000 -20.000000 -37.000000
vt 0.185374 1.000000
vn 0.707107 0.000000 0.707107
v 3.000000 -18.556997 -36.847244
vt 0.184919 1.027344
vn 0.712481 -0.145002 0.686546
v 3.000000 -28.000000 -37.000000
vt 0.156250 1.000000
vn 0.707107 0.000000 0.707107
v 3.000000 -17.102985 -36.388969
vt 0.183554 1.046875
vn 0.723408 -0.266797 0.636788
v 3.000000 -15.637970 -35.625187
vt 0.181279 1.058594
vn 0.733751 -0.359465 0.576537
v 1.750000 -14.718056 -33.944855
vt 0.160648 1.062500
vn 0.344370 -0.599015 0.722904
v 3.000000 -14.161945 -34.555885
vt 0.178093 1.062500
vn 0.740032 -0.427985 0.518826
v -3.000000 -20.000000 -37.000000
vt 0.116402 1.000000
vn -0.707107 0.000000 0.707107
v -3.000000 -28.000000 -37.000000
vt 0.093750 1.000000
vn -0.707107 0.000000 0.707107
v -3.000000 -18.201529 -36.847244
vt 0.116048 1.027344
vn -0.711965 -0.120638 0.691775
v -3.000000 -16.493610 -36.388969
vt 0.114987 1.046875
vn -0.722593 -0.238555 0.648808
v 0.937500 -16.779194 -43.704399
vt 0.292956 1.027344
vn 0.140889 0.147746 -0.978939
v 0.000000 -20.000000 -44.000000
vt 0.301777 1.000000
vn 0.000000 0.000000 -1.000000
v 0.937500 -20.000000 -43.937500
vt 0.293762 1.000000
vn 0.160182 0.000000 -0.987087
v 0.000000 -16.920097 -43.766174
vt 0.300968 1.027344
vn -0.013478 0.153558 -0.988048
v 0.000000 -28.000000 -44.000000
vt 0.250000 1.000000
vn 0.000000 0.000000 -1.000000
v 0.937500 -28.000000 -43.937500
vt 0.242188 1.000000
vn 0.160182 -0.000000 -0.987088
v 1.750000 -20.000000 -43.750000
vt 0.285343 1.000000
vn 0.316228 -0.000000 -0.948683
v 1.750000 -28.000000 -43.750000
vt 0.234375 1.000000
vn 0.316228 0.000000 -0.948683
v 1.750000 -16.711956 -43.519070
vt 0.284546 1.027344
vn 0.304850 0.138329 -0.942301
v 1.750000 -13.707205 -42.826286
vt 0.282157 1.046875
vn 0.273836 0.295306 -0.915318
v 0.937500 -13.816003 -43.005096
vt 0.290539 1.046875
vn 0.090424 0.311337 -0.945988
v 2.437500 -16.718380 -43.210190
vt 0.275738 1.027344
vn 0.523161 0.122339 -0.843407
v 2.437500 -20.000000 -43.437500
vt 0.276519 1.000000
vn 0.525731 -0.000000 -0.850651
v 2.437500 -28.000000 -43.437500
vt 0.226562 1.000000
vn 0.525731 0.000000 -0.850651
v 2.437500 -13.729000 -42.528263
vt 0.273397 1.046875
vn 0.515468 0.261078 -0.816169
v 0.000000 -14.055393 -43.064705
vt 0.298541 1.046875
vn -0.047982 0.318319 -0.946769
v 1.750000 -10.985741 -41.671642
vt 0.278175 1.058594
vn 0.231778 0.460263 -0.856993
v 2.437500 -11.031851 -41.391716
vt 0.269494 1.058594
vn 0.503676 0.407350 -0.761824
v 3.000000 -16.798471 -42.777756
vt 0.266532 1.027344
vn 0.711231 0.101089 -0.695652
v 3.000000 -20.000000 -43.000000
vt 0.267291 1.000000
vn 0.707107 0.000000 -0.707107
v 3.000000 -13.881389 -42.111031
vt 0.264257 1.046875
vn 0.721175 0.211376 -0.659717
v 0.937500 -11.110418 -41.839600
vt 0.286509 1.058594
vn 0.026492 0.476896 -0.878560
v 3.000000 -28.000000 -43.000000
vt 0.218750 1.000000
vn 0.707107 0.000000 -0.707107
v 3.000000 -11.248749 -40.999813
vt 0.260465 1.058594
vn 0.732210 0.321507 -0.600418
v 2.437500 -8.626938 -39.800549
vt 0.264030 1.062500
vn 0.491253 0.546186 -0.678492
v 1.750000 -8.547569 -40.055145
vt 0.272601 1.062500
vn 0.193059 0.615014 -0.764517
v 3.000000 -8.900555 -39.444115
vt 0.255156 1.062500
vn 0.739826 0.422202 -0.523835
v 3.437500 -16.952225 -42.221771
vt 0.256928 1.027344
vn 0.854454 0.075670 -0.513987
v 3.437500 -20.000000 -42.437500
vt 0.257658 1.000000
vn 0.850651 -0.000000 -0.525731
v 3.437500 -14.164371 -41.574585
vt 0.254738 1.046875
vn 0.863264 0.155360 -0.480248
v 3.437500 -11.636435 -40.495941
vt 0.251088 1.058594
vn 0.872546 0.231636 -0.430126
v 3.437500 -28.000000 -42.437500
vt 0.210938 1.000000
vn 0.850651 0.000000 -0.525731
v 3.437500 -9.368420 -38.985844
vt 0.245978 1.062500
vn 0.878857 0.299593 -0.371288
v 3.000000 -6.836805 -37.443928
vt 0.248329 1.058594
vn 0.741362 0.507656 -0.438940
v 2.437500 -6.514260 -37.754761
vt 0.257005 1.058594
vn 0.483668 0.661815 -0.572771
v 3.437500 -7.360324 -37.044285
vt 0.239408 1.058594
vn 0.880552 0.357824 -0.310789
v 3.437500 -5.612148 -34.671272
vt 0.231378 1.046875
vn 0.877032 0.408063 -0.253573
v 3.000000 -5.057500 -34.999260
vt 0.239987 1.046875
vn 0.736144 0.576802 -0.354106
v 3.437500 -4.123892 -31.866800
vt 0.221888 1.027344
vn 0.867593 0.454301 -0.202221
v 3.000000 -3.562639 -32.110100
vt 0.230127 1.027344
vn 0.724520 0.632085 -0.274846
v 3.437500 -2.895555 -28.630873
vt 0.210938 1.000000
vn 0.850246 0.474978 -0.226887
v 1.750000 34.211914 44.305664
vt 0.280365 1.053711
vn 0.329036 0.857975 0.394479
v 0.937500 34.381104 44.404541
vt 0.288725 1.053711
vn 0.166910 0.895794 0.411939
v 0.937500 35.377197 41.416260
vt 0.291949 1.038086
vn 0.163436 0.960173 0.226621
v 1.750000 35.196289 41.352539
vt 0.283551 1.038086
vn 0.322412 0.921297 0.217399
v 0.000000 35.437500 41.437500
vt 0.299956 1.038086
vn 0.000000 0.973249 0.229753
v 0.000000 34.437500 44.437500
vt 0.296720 1.053711
vn 0.000000 0.908513 0.417857
v 0.000000 35.937500 37.937500
vt 0.301574 1.014648
vn 0.000000 0.997484 0.070889
v 0.937500 35.875244 37.929932
vt 0.293561 1.014648
vn 0.161141 0.984449 0.069950
v 1.750000 35.688477 37.907227
vt 0.285144 1.014648
vn 0.318032 0.945697 0.067183
v 0.000000 35.944859 34.455719
vt 0.292524 1.201782
vn 0.000000 0.982558 -0.185959
v 0.937500 35.883415 34.460442
vt 0.284545 1.201782
vn 0.157393 0.970324 -0.183573
v 1.750000 35.699081 34.474602
vt 0.276234 1.201782
vn 0.310825 0.933954 -0.176402
v 2.437500 34.894775 41.246338
vt 0.274763 1.038086
vn 0.533230 0.823387 0.194162
v 2.437500 35.377197 37.869385
vt 0.276324 1.014648
vn 0.527984 0.847122 0.060141
v 2.437500 35.391865 34.498199
vt 0.267591 1.201782
vn 0.519393 0.839750 -0.158275
v 2.437500 33.929932 44.140869
vt 0.271640 1.053711
vn 0.541062 0.764162 0.351153
v 1.750000 32.735352 46.766602
vt 0.275587 1.061523
vn 0.334129 0.742943 0.579994
v 0.937500 32.886963 46.894775
vt 0.283890 1.061523
vn 0.169589 0.776808 0.606473
v 2.437500 32.482666 46.552979
vt 0.266957 1.061523
vn 0.547021 0.659909 0.515061
v 0.000000 32.937500 46.937500
vt 0.291866 1.061523
vn 0.000000 0.788206 0.615412
v 3.000000 34.472656 41.097656
vt 0.265584 1.038086
vn 0.714676 0.680817 0.160393
v 3.000000 34.941406 37.816406
vt 0.267101 1.014648
vn 0.709337 0.703103 0.049872
v 3.000000 33.535156 43.910156
vt 0.262550 1.053711
vn 0.722578 0.628225 0.288469
v 3.000000 34.961754 34.531242
vt 0.258616 1.201782
vn 0.700372 0.701519 -0.131720
v 3.000000 32.128906 46.253906
vt 0.258000 1.061523
vn 0.728522 0.540071 0.421402
v 2.437500 30.552979 48.482666
vt 0.260712 1.061523
vn 0.547021 0.515061 0.659909
v 1.750000 30.766602 48.735352
vt 0.269216 1.061523
vn 0.334129 0.579994 0.742943
v 3.000000 30.253906 48.128906
vt 0.251932 1.061523
vn 0.728522 0.421402 0.540071
v 0.937500 30.894775 48.886963
vt 0.277443 1.061523
vn 0.169589 0.606473 0.776808
v 3.437500 33.027588 43.613525
vt 0.253095 1.053711
vn 0.859898 0.463927 0.212947
v 3.437500 33.929932 40.906494
vt 0.256015 1.038086
vn 0.855226 0.504458 0.118788
v 3.437500 34.381104 37.748291
vt 0.257475 1.014648
vn 0.852037 0.522171 0.037021
v 3.437500 34.408760 34.573727
vt 0.249308 1.201782
vn 0.846754 0.522924 -0.097771
v 3.437500 31.674072 45.869385
vt 0.248715 1.061523
vn 0.863385 0.397805 0.310351
v 3.437500 29.869385 47.674072
vt 0.242875 1.061523
vn 0.863385 0.310351 0.397805
v 0.000000 30.937500 48.937500
vt 0.285394 1.061523
vn 0.000000 0.615412 0.788206
v 1.750000 33.453854 28.589985
vt 0.260705 1.480103
vn 0.301813 0.862634 -0.405920
v 2.437500 33.154541 28.650845
vt 0.252370 1.480103
vn 0.508133 0.779012 -0.367343
v 3.437500 27.613525 49.027588
vt 0.235575 1.053711
vn 0.859898 0.212947 0.463927
v 3.000000 27.910156 49.535156
vt 0.244348 1.053711
vn 0.722578 0.288469 0.628225
v 3.437500 24.906494 49.929932
vt 0.226815 1.038086
vn 0.855226 0.118788 0.504458
v 3.000000 25.097656 50.472656
vt 0.235246 1.038086
vn 0.714676 0.160393 0.680817
v 3.437500 21.748291 50.381104
vt 0.216595 1.014648
vn 0.852037 0.037021 0.522171
v 3.000000 21.816406 50.941406
vt 0.224628 1.014648
vn 0.709337 0.049872 0.703103
v 3.437500 4.000000 50.437500
vt 0.210938 1.875000
vn 0.850651 0.000000 0.525731
v 3.000000 4.000000 51.000000
vt 0.218750 1.875000
vn 0.707107 0.000000 0.707107
v 2.437500 28.140869 49.929932
vt 0.252907 1.053711
vn 0.541062 0.351152 0.764162
v 4.000000 -5.250000 -28.000000
vt 0.187500 1.000000
vn 1.000000 0.000000 -0.000000
v 3.750000 -4.849365 -31.569433
vt 0.213554 1.027344
vn 0.960842 0.249657 -0.120223
v 4.000000 -6.792969 -30.812500
vt 0.196601 1.027344
vn 1.000000 0.000000 -0.000000
v 3.750000 -6.357760 -34.270401
vt 0.222592 1.046875
vn 0.966614 0.214910 -0.139543
v 3.750000 -3.559629 -28.452934
vt 0.203125 1.000000
vn 0.948937 0.281811 -0.141776
v 4.000000 -8.421875 -33.250000
vt 0.204489 1.046875
vn 1.000000 0.000000 -0.000000
v 3.750000 -8.084816 -36.555832
vt 0.230240 1.058594
vn 0.968412 0.186808 -0.165170
v 4.000000 -10.136719 -35.312500
vt 0.211164 1.058594
vn 1.000000 0.000000 -0.000000
v 3.750000 -10.030532 -38.425735
vt 0.236497 1.062500
vn 0.967242 0.159646 -0.197375
v 4.000000 -11.937500 -37.000000
vt 0.216624 1.062500
vn 1.000000 0.000000 -0.000000
v 3.750000 -12.194908 -39.880096
vt 0.241363 1.058594
vn 0.963413 0.128906 -0.234987
v 4.000000 -13.824219 -38.312500
vt 0.220872 1.058594
vn 1.000000 0.000000 -0.000000
v 3.750000 -14.577946 -40.918934
vt 0.244840 1.046875
vn 0.957507 0.091329 -0.273567
v 4.000000 -15.796875 -39.250000
vt 0.223905 1.046875
vn 1.000000 0.000000 -0.000000
v 3.750000 -17.179642 -41.542233
vt 0.246925 1.027344
vn 0.951451 0.046726 -0.304233
v 4.000000 -17.855469 -39.812500
vt 0.225726 1.027344
vn 1.000000 0.000000 -0.000000
v 3.750000 -20.000000 -41.750000
vt 0.247621 1.000000
vn 0.948683 0.000000 -0.316228
v 4.000000 -20.000000 -40.000000
vt 0.226333 1.000000
vn 1.000000 0.000000 -0.000000
v 3.750000 -28.000000 -41.750000
vt 0.203125 1.000000
vn 0.948683 0.000000 -0.316228
v 4.000000 -28.000000 -40.000000
vt 0.187500 1.000000
vn 1.000000 0.000000 -0.000000
v 4.000000 16.860107 6.632812
vt 0.192089 1.535767
vn 1.000000 0.000000 -0.000000
v 4.000000 29.862061 29.320312
vt 0.207561 1.480103
vn 1.000000 0.000000 -0.000000
v 3.750000 31.538229 28.979492
vt 0.226112 1.480103
vn 0.943423 0.299216 -0.142908
v 3.750000 18.507301 6.097396
vt 0.208383 1.535767
vn 0.944912 0.278977 -0.171208
v 3.750000 -11.617332 -34.069168
vt 0.192088 1.058594
vn 0.957199 -0.208916 0.200313
v 3.750000 -13.235093 -35.574265
vt 0.196752 1.062500
vn 0.957034 -0.183817 0.224271
v 3.750000 28.185892 29.661133
vt 0.189010 1.480103
vn 0.943139 -0.298400 0.146449
v 3.750000 15.212914 7.168228
vt 0.175794 1.535767
vn 0.944867 -0.278769 0.171799
v 3.750000 -6.940371 -27.547066
vt 0.171875 1.000000
vn 0.945916 -0.276976 0.168898
v 3.750000 -8.469971 -30.055567
vt 0.179649 1.027344
vn 0.952069 -0.255274 0.168522
v 3.750000 -10.028957 -32.229599
vt 0.186387 1.046875
vn 0.955695 -0.231584 0.181702
v 3.750000 -14.882240 -36.744904
vt 0.200380 1.058594
vn 0.955470 -0.152587 0.252576
v 3.750000 -16.558773 -37.581066
vt 0.202971 1.046875
vn 0.952867 -0.111703 0.282077
v 3.750000 -18.264694 -38.082767
vt 0.204526 1.027344
vn 0.950065 -0.059660 0.306297
v 3.750000 -20.000000 -38.250000
vt 0.205044 1.000000
vn 0.948683 -0.000000 0.316228
v 3.750000 -28.000000 -38.250000
vt 0.171875 1.000000
vn 0.948683 0.000000 0.316228
v 4.000000 32.012451 34.757812
vt 0.219393 1.201782
vn 1.000000 0.000000 -0.000000
v 3.750000 33.732880 34.625648
vt 0.239669 1.201782
vn 0.946884 0.316183 -0.058642
v 3.750000 30.292023 34.889977
vt 0.199117 1.201782
vn 0.947000 -0.316393 0.055554
v 4.000000 31.953125 37.453125
vt 0.226181 1.014648
vn 1.000000 0.000000 -0.000000
v 3.750000 33.696289 37.665039
vt 0.247447 1.014648
vn 0.949279 0.313650 0.022214
v 3.750000 30.209961 37.241211
vt 0.204915 1.014648
vn 0.949279 -0.313650 -0.022214
v 4.000000 31.578125 40.078125
vt 0.224967 1.038086
vn 1.000000 0.000000 -0.000000
v 3.750000 33.266602 40.672852
vt 0.246056 1.038086
vn 0.950685 0.301918 0.071017
v 3.750000 29.889648 39.483398
vt 0.203878 1.038086
vn 0.950685 -0.301918 -0.071017
v 4.000000 30.828125 42.328125
vt 0.222540 1.053711
vn 1.000000 0.000000 -0.000000
v 3.750000 32.407227 43.250977
vt 0.243275 1.053711
vn 0.952724 0.276178 0.126660
v 3.750000 29.249023 41.405273
vt 0.201805 1.053711
vn 0.952724 -0.276178 -0.126660
v 4.000000 29.703125 44.203125
vt 0.218900 1.061523
vn 1.000000 0.000000 -0.000000
v 3.750000 31.118164 45.399414
vt 0.239104 1.061523
vn 0.954226 0.235841 0.183933
v 3.750000 28.288086 43.006836
vt 0.198696 1.061523
vn 0.954226 -0.235841 -0.183933
v 4.000000 28.203125 45.703125
vt 0.214046 1.061523
vn 1.000000 0.000000 -0.000000
v 3.750000 29.399414 47.118164
vt 0.233542 1.061523
vn 0.954226 0.183933 0.235841
v 3.750000 27.006836 44.288086
vt 0.194549 1.061523
vn 0.954226 -0.183933 -0.235841
v 3.750000 25.405273 45.249023
vt 0.189367 1.053711
vn 0.952724 -0.126660 -0.276178
v 4.000000 26.328125 46.828125
vt 0.207978 1.053711
vn 1.000000 0.000000 -0.000000
v 3.750000 27.250977 48.407227
vt 0.226589 1.053711
vn 0.952724 0.126660 0.276178
v 3.750000 23.483398 45.889648
vt 0.183147 1.038086
vn 0.950685 -0.071017 -0.301918
v 4.000000 24.078125 47.578125
vt 0.200697 1.038086
vn 1.000000 0.000000 -0.000000
v 3.750000 24.672852 49.266602
vt 0.218247 1.038086
vn 0.950685 0.071017 0.301918
v 3.750000 21.241211 46.209961
vt 0.175892 1.014648
vn 0.949279 -0.022214 -0.313650
v 4.000000 21.453125 47.953125
vt 0.192202 1.014648
vn 1.000000 0.000000 -0.000000
v 3.750000 21.665039 49.696289
vt 0.208513 1.014648
vn 0.949279 0.022214 0.313650
v 3.750000 4.000000 46.250000
vt 0.171875 1.875000
vn 0.948683 0.000000 -0.316228
v 4.000000 4.000000 48.000000
vt 0.187500 1.875000
vn 1.000000 0.000000 -0.000000
v 3.750000 4.000000 49.750000
vt 0.203125 1.875000
vn 0.948683 0.000000 0.316228
v 3.437500 -7.360324 -37.044285
vt 0.239408 1.058594
vn 0.880552 0.357824 -0.310789
v 3.437500 -5.612148 -34.671272
vt 0.231378 1.046875
vn 0.877032 0.408063 -0.253573
v 3.437500 -9.368420 -38.985844
vt 0.245978 1.062500
vn 0.878857 0.299593 -0.371288
v 3.437500 -11.636435 -40.495941
vt 0.251088 1.058594
vn 0.872546 0.231636 -0.430126
v 3.437500 -14.164371 -41.574585
vt 0.254738 1.046875
vn 0.863264 0.155360 -0.480248
v 3.437500 -4.123892 -31.866800
vt 0.221888 1.027344
vn 0.867593 0.454301 -0.202221
v 3.437500 -16.952225 -42.221771
vt 0.256928 1.027344
vn 0.854454 0.075670 -0.513987
v 3.437500 -20.000000 -42.437500
vt 0.257658 1.000000
vn 0.850651 -0.000000 -0.525731
v 3.437500 -2.895555 -28.630873
vt 0.210938 1.000000
vn 0.850246 0.474978 -0.226887
v 3.437500 -28.000000 -42.437500
vt 0.210938 1.000000
vn 0.850651 0.000000 -0.525731
v 3.437500 19.154413 5.887054
vt 0.216458 1.535767
vn 0.842435 0.459337 -0.281623
v 3.437500 32.196724 28.845600
vt 0.235073 1.480103
vn 0.839353 0.491061 -0.233122
v 3.000000 -12.674913 -33.181072
vt 0.173998 1.058594
vn 0.740443 -0.480709 0.469749
v 3.000000 -14.161945 -34.555885
vt 0.178093 1.062500
vn 0.740032 -0.427985 0.518826
v 3.000000 -15.637970 -35.625187
vt 0.181279 1.058594
vn 0.733751 -0.359465 0.576537
v 3.000000 -17.102985 -36.388969
vt 0.183554 1.046875
vn 0.723408 -0.266797 0.636788
v 3.000000 -11.176874 -31.500742
vt 0.168992 1.046875
vn 0.733660 -0.525327 0.431015
v 3.000000 -9.667830 -29.514900
vt 0.163076 1.027344
vn 0.718028 -0.567918 0.402374
v 3.000000 26.152344 43.277344
vt 0.176159 1.061523
vn 0.728522 -0.421402 -0.540071
v 3.000000 27.277344 42.152344
vt 0.179800 1.061523
vn 0.728522 -0.540071 -0.421402
v 3.000000 24.746094 44.121094
vt 0.171609 1.053711
vn 0.722578 -0.288469 -0.628225
v 3.000000 23.058594 44.683594
vt 0.166148 1.038086
vn 0.714676 -0.160393 -0.680817
v 3.000000 21.089844 44.964844
vt 0.159777 1.014648
vn 0.709337 -0.049872 -0.703103
v 3.000000 28.121094 40.746094
vt 0.182530 1.053711
vn 0.722578 -0.628225 -0.288469
v 3.000000 28.683594 39.058594
vt 0.184350 1.038086
vn 0.714676 -0.680817 -0.160393
v 3.000000 28.964844 37.089844
vt 0.185261 1.014648
vn 0.709337 -0.703103 -0.049872
v 3.000000 29.063145 34.984383
vt 0.180170 1.201782
vn 0.701108 -0.702935 0.119709
v 3.000000 26.988626 29.904575
vt 0.171296 1.480103
vn 0.686754 -0.651247 0.322872
v 3.000000 4.000000 45.000000
vt 0.156250 1.875000
vn 0.707107 0.000000 -0.707107
v 3.000000 -8.147778 -27.223541
vt 0.156250 1.000000
vn 0.695153 -0.605981 0.386715
v 3.000000 14.036345 7.550668
vt 0.159691 1.535767
vn 0.693158 -0.613364 0.378571
v 3.000000 -18.556997 -36.847244
vt 0.184919 1.027344
vn 0.712481 -0.145002 0.686546
v 3.000000 -20.000000 -37.000000
vt 0.185374 1.000000
vn 0.707107 0.000000 0.707107
v 3.000000 -28.000000 -37.000000
vt 0.156250 1.000000
vn 0.707107 0.000000 0.707107
v 0.000000 27.218750 40.218750
vt 0.148360 1.053711
vn 0.000000 -0.908513 -0.417857
v 1.750000 27.959961 38.803711
vt 0.166384 1.038086
vn 0.322412 -0.921297 -0.217399
v 0.000000 27.718750 38.718750
vt 0.149978 1.038086
vn 0.000000 -0.973249 -0.229753
v 1.750000 27.444336 40.350586
vt 0.164715 1.053711
vn 0.329036 -0.857975 -0.394479
v 1.750000 28.217773 36.999023
vt 0.167218 1.014648
vn 0.318032 -0.945697 -0.067183
v 0.000000 27.968750 36.968750
vt 0.150787 1.014648
vn 0.000000 -0.997484 -0.070889
v 1.750000 28.325817 35.041023
vt 0.162551 1.201782
vn 0.311561 -0.937331 0.156010
v 0.000000 28.080044 35.059906
vt 0.146262 1.201782
vn 0.000000 -0.986641 0.162906
v -1.750000 27.959961 38.803711
vt 0.133573 1.038086
vn -0.322412 -0.921297 -0.217399
v -1.750000 28.217773 36.999023
vt 0.134356 1.014648
vn -0.318032 -0.945697 -0.067183
v -1.750000 28.325817 35.041023
vt 0.129972 1.201782
vn -0.311561 -0.937331 0.156010
v -1.750000 27.444336 40.350586
vt 0.132005 1.053711
vn -0.329036 -0.857975 -0.394479
v 0.000000 26.468750 41.468750
vt 0.145933 1.061523
vn 0.000000 -0.788205 -0.615412
v 1.750000 26.670898 41.639648
vt 0.162212 1.061523
vn 0.334129 -0.742943 -0.579994
v -1.750000 26.670898 41.639648
vt 0.129654 1.061523
vn -0.334129 -0.742943 -0.579994
v 3.000000 28.964844 37.089844
vt 0.185261 1.014648
vn 0.709337 -0.703103 -0.049872
v 3.000000 28.683594 39.058594
vt 0.184350 1.038086
vn 0.714676 -0.680817 -0.160393
v 3.000000 28.121094 40.746094
vt 0.182530 1.053711
vn 0.722578 -0.628225 -0.288469
v 3.000000 29.063145 34.984383
vt 0.180170 1.201782
vn 0.701108 -0.702935 0.119709
v 3.000000 27.277344 42.152344
vt 0.179800 1.061523
vn 0.728522 -0.540071 -0.421402
v 0.000000 25.468750 42.468750
vt 0.142697 1.061523
vn 0.000000 -0.615412 -0.788205
v 1.750000 25.639648 42.670898
vt 0.158875 1.061523
vn 0.334129 -0.579994 -0.742943
v -1.750000 25.639648 42.670898
vt 0.126519 1.061523
vn -0.334129 -0.579994 -0.742943
v 3.000000 26.152344 43.277344
vt 0.176159 1.061523
vn 0.728522 -0.421402 -0.540071
v -3.000000 28.121094 40.746094
vt 0.114190 1.053711
vn -0.722578 -0.628225 -0.288469
v -3.000000 28.683594 39.058594
vt 0.115606 1.038086
vn -0.714676 -0.680817 -0.160393
v -3.000000 28.964844 37.089844
vt 0.116314 1.014648
vn -0.709337 -0.703103 -0.049872
v -3.000000 27.277344 42.152344
vt 0.112067 1.061523
vn -0.728522 -0.540071 -0.421402
v -3.000000 26.152344 43.277344
vt 0.109235 1.061523
vn -0.728522 -0.421402 -0.540071
v 0.000000 -9.113704 -26.964724
vt 0.125000 1.000000
vn -0.010471 -0.837079 0.546981
v 1.750000 -10.386545 -29.190498
vt 0.146882 1.027344
vn 0.323943 -0.759722 0.563812
v 0.000000 -10.626117 -29.082365
vt 0.131068 1.027344
vn -0.071568 -0.803871 0.590483
v 1.750000 -8.872223 -27.029427
vt 0.140625 1.000000
vn 0.305782 -0.795409 0.523280
v 1.750000 -11.865625 -31.063427
vt 0.152305 1.046875
vn 0.338085 -0.718701 0.607592
v 0.000000 -12.095208 -30.917656
vt 0.136326 1.046875
vn -0.115117 -0.760884 0.638596
v 1.750000 -13.309462 -32.648216
vt 0.156894 1.058594
vn 0.344559 -0.667142 0.660455
v 0.000000 -13.520978 -32.470596
vt 0.140776 1.058594
vn -0.132603 -0.705916 0.695773
v 0.000000 13.095091 7.856620
vt 0.128059 1.535767
vn 0.000000 -0.850684 0.525677
v 1.750000 13.330405 7.780132
vt 0.143780 1.535767
vn 0.305229 -0.810156 0.500483
v 0.000000 26.030815 30.099327
vt 0.138374 1.480103
vn 0.000000 -0.894465 0.447137
v 1.750000 26.270267 30.050640
vt 0.154417 1.480103
vn 0.300204 -0.853564 0.425801
v 1.750000 -14.718056 -33.944855
vt 0.160648 1.062500
vn 0.344370 -0.599015 0.722904
v 0.000000 -14.903426 -33.741180
vt 0.144416 1.062500
vn -0.126587 -0.633517 0.763303
v -1.750000 13.330405 7.780132
vt 0.112338 1.535767
vn -0.305229 -0.810156 0.500483
v -1.750000 -8.872223 -27.029427
vt 0.109375 1.000000
vn -0.321786 -0.815236 0.481501
v -1.750000 26.270267 30.050640
vt 0.122331 1.480103
vn -0.300204 -0.853564 0.425801
v -1.750000 -10.119944 -29.190498
vt 0.115253 1.027344
vn -0.408031 -0.772889 0.485955
v -1.750000 -11.408594 -31.063427
vt 0.120347 1.046875
vn -0.463494 -0.706401 0.534949
v -1.750000 -12.738173 -32.648216
vt 0.124658 1.058594
vn -0.483893 -0.638541 0.598425
v -1.750000 -14.108681 -33.944855
vt 0.128185 1.062500
vn -0.474883 -0.561508 0.677640
v 1.750000 -16.091408 -34.953358
vt 0.163568 1.058594
vn 0.338812 -0.505865 0.793289
v 0.000000 -16.242554 -34.729416
vt 0.147248 1.058594
vn -0.100070 -0.534554 0.839189
v -3.000000 26.988626 29.904575
vt 0.105452 1.480103
vn -0.686754 -0.651247 0.322872
v -3.000000 14.036345 7.550668
vt 0.096427 1.535767
vn -0.693158 -0.613364 0.378571
v -3.000000 -8.147778 -27.223541
vt 0.093750 1.000000
vn -0.700540 -0.624648 0.345048
v -3.000000 29.063145 34.984383
vt 0.112354 1.201782
vn -0.701108 -0.702935 0.119709
v -1.750000 -15.520119 -34.953358
vt 0.130928 1.058594
vn -0.440751 -0.464066 0.768363
v -3.000000 -9.312361 -29.514900
vt 0.099059 1.027344
vn -0.723088 -0.601151 0.340238
v -3.000000 -10.567499 -31.500742
vt 0.103660 1.046875
vn -0.735726 -0.552345 0.391947
v -3.000000 -11.913195 -33.181072
vt 0.107554 1.058594
vn -0.741126 -0.496379 0.452040
v -3.000000 -13.349445 -34.555885
vt 0.110739 1.062500
vn -0.740032 -0.427985 0.518826
v -3.000000 -14.876251 -35.625187
vt 0.113217 1.058594
vn -0.733244 -0.342537 0.587386
v -1.750000 -16.972483 -35.673714
vt 0.132887 1.046875
vn -0.389564 -0.335985 0.857528
v -3.000000 -16.493610 -36.388969
vt 0.114987 1.046875
vn -0.722593 -0.238555 0.648808
v 3.000000 -8.147778 -27.223541
vt 0.156250 1.000000
vn 0.695153 -0.605981 0.386715
v 3.000000 14.036345 7.550668
vt 0.159691 1.535767
vn 0.693158 -0.613364 0.378571
v 3.000000 26.988626 29.904575
vt 0.171296 1.480103
vn 0.686754 -0.651247 0.322872
v 3.000000 -9.667830 -29.514900
vt 0.163076 1.027344
vn 0.718028 -0.567918 0.402374
v 3.000000 -11.176874 -31.500742
vt 0.168992 1.046875
vn 0.733660 -0.525327 0.431015
v 3.000000 -12.674913 -33.181072
vt 0.173998 1.058594
vn 0.740443 -0.480709 0.469749
v 3.000000 -14.161945 -34.555885
vt 0.178093 1.062500
vn 0.740032 -0.427985 0.518826
v 0.000000 -20.000000 -44.000000
vt 0.000000 1.000000
vn 0.000000 0.000000 -1.000000
v -1.750000 -20.000000 -43.750000
vt 0.016434 1.000000
vn -0.316228 0.000000 -0.948683
v -1.750000 -28.000000 -43.750000
vt 0.015625 1.000000
vn -0.316228 0.000000 -0.948683
v 0.000000 -28.000000 -44.000000
vt 0.000000 1.000000
vn 0.000000 0.000000 -1.000000
v 0.000000 -16.920097 -43.766174
vt 0.000000 1.027344
vn -0.013478 0.153558 -0.988048
v -1.750000 -16.978558 -43.519070
vt 0.016421 1.027344
vn -0.319871 0.148134 -0.935809
f 219/219/219 220/220/220 222/222/222
f 219/219/219 221/221/221 220/220/220
f 221/221/221 223/223/223 220/220/220
f 221/221/221 224/224/224 223/223/223
f 224/224/224 225/225/225 223/223/223
f 224/224/224 226/226/226 225/225/225
f 226/226/226 235/235/235 225/225/225
f 226/226/226 236/236/236 235/235/235
f 236/236/236 242/242/242 235/235/235
f 236/236/236 243/243/243 242/242/242
f 243/243/243 245/245/245 242/242/242
f 243/243/243 246/246/246 245/245/245
f 202/202/202 195/195/195 200/200/200
f 202/202/202 194/194/194 195/195/195
f 194/194/194 179/179/179 195/195/195
f 194/194/194 178/178/178 179/179/179
f 178/178/178 169/169/169 179/179/179
f 178/178/178 168/168/168 169/169/169
f 168/168/168 167/167/167 169/169/169
f 168/168/168 166/166/166 167/167/167
f 166/166/166 165/165/165 167/167/167
f 166/166/166 164/164/164 165/165/165
f 164/164/164 163/163/163 165/165/165
f 164/164/164 162/162/162 163/163/163
f 162/162/162 161/161/161 163/163/163
f 162/162/162 160/160/160 161/161/161
f 160/160/160 157/157/157 161/161/161
f 160/160/160 156/156/156 157/157/157
f 156/156/156 158/158/158 157/157/157
f 156/156/156 159/159/159 158/158/158
f 159/159/159 170/170/170 158/158/158
f 159/159/159 171/171/171 170/170/170
f 171/171/171 176/176/176 170/170/170
f 171/171/171 177/177/177 176/176/176
f 177/177/177 190/190/190 176/176/176
f 177/177/177 191/191/191 190/190/190
f 191/191/191 197/197/197 190/190/190
f 191/191/191 198/198/198 197/197/197
f 562/562/562 559/559/559 563/563/563
f 562/562/562 558/558/558 559/559/559
f 558/558/558 560/560/560 559/559/559
f 558/558/558 561/561/561 560/560/560
f 222/222/222 237/237/237 238/238/238
f 222/222/222 220/220/220 237/237/237
f 220/220/220 239/239/239 237/237/237
f 220/220/220 223/223/223 239/239/239
f 223/223/223 240/240/240 239/239/239
f 223/223/223 225/225/225 240/240/240
f 225/225/225 241/241/241 240/240/240
f 225/225/225 235/235/235 241/241/241
f 235/235/235 244/244/244 241/241/241
f 235/235/235 242/242/242 244/244/244
f 242/242/242 247/247/247 244/244/244
f 242/242/242 245/245/245 247/247/247
f 200/200/200 196/196/196 201/201/201
f 200/200/200 195/195/195 196/196/196
f 195/195/195 192/192/192 196/196/196
f 195/195/195 179/179/179 192/192/192
f 179/179/179 183/183/183 192/192/192
f 179/179/179 169/169/169 183/183/183
f 169/169/169 182/182/182 183/183/183
f 169/169/169 167/167/167 182/182/182
f 167/167/167 181/181/181 182/182/182
f 167/167/167 165/165/165 181/181/181
f 165/165/165 180/180/180 181/181/181
f 165/165/165 163/163/163 180/180/180
f 163/163/163 184/184/184 180/180/180
f 163/163/163 161/161/161 184/184/184
f 161/161/161 185/185/185 184/184/184
f 161/161/161 157/157/157 185/185/185
f 157/157/157 186/186/186 185/185/185
f 157/157/157 158/158/158 186/186/186
f 158/158/158 187/187/187 186/186/186
f 158/158/158 170/170/170 187/187/187
f 170/170/170 188/188/188 187/187/187
f 170/170/170 176/176/176 188/188/188
f 176/176/176 193/193/193 188/188/188
f 176/176/176 190/190/190 193/193/193
f 190/190/190 199/199/199 193/193/193
f 190/190/190 197/197/197 199/199/199
f 111/111/111 93/93/93 89/89/89
f 111/111/111 112/112/112 93/93/93
f 112/112/112 95/95/95 93/93/93
f 112/112/112 113/113/113 95/95/95
f 97/97/97 63/63/63 66/66/66
f 97/97/97 96/96/96 63/63/63
f 96/96/96 60/60/60 63/63/63
f 96/96/96 91/91/91 60/60/60
f 91/91/91 57/57/57 60/60/60
f 91/91/91 88/88/88 57/57/57
f 88/88/88 35/35/35 57/57/57
f 88/88/88 74/74/74 35/35/35
f 74/74/74 33/33/33 35/35/35
f 74/74/74 75/75/75 33/33/33
f 75/75/75 31/31/31 33/33/33
f 75/75/75 76/76/76 31/31/31
f 76/76/76 29/29/29 31/31/31
f 76/76/76 90/90/90 29/29/29
f 90/90/90 27/27/27 29/29/29
f 90/90/90 92/92/92 27/27/27
f 92/92/92 25/25/25 27/27/27
f 92/92/92 94/94/94 25/25/25
f 94/94/94 20/20/20 25/25/25
f 94/94/94 110/110/110 20/20/20
f 110/110/110 23/23/23 20/20/20
f 110/110/110 109/109/109 23/23/23
f 109/109/109 19/19/19 23/23/23
f 109/109/109 73/73/73 19/19/19
f 73/73/73 1/1/1 19/19/19
f 73/73/73 71/71/71 1/1/1
f 71/71/71 3/3/3 1/1/1
f 71/71/71 69/69/69 3/3/3
f 69/69/69 6/6/6 3/3/3
f 69/69/69 67/67/67 6/6/6
f 67/67/67 8/8/8 6/6/6
f 67/67/67 68/68/68 8/8/8
f 68/68/68 10/10/10 8/8/8
f 68/68/68 70/70/70 10/10/10
f 70/70/70 12/12/12 10/10/10
f 70/70/70 72/72/72 12/12/12
f 72/72/72 14/14/14 12/12/12
f 72/72/72 89/89/89 14/14/14
f 89/89/89 16/16/16 14/14/14
f 89/89/89 93/93/93 16/16/16
f 93/93/93 18/18/18 16/16/16
f 93/93/93 95/95/95 18/18/18
f 66/66/66 61/61/61 64/64/64
f 66/66/66 63/63/63 61/61/61
f 63/63/63 58/58/58 61/61/61
f 63/63/63 60/60/60 58/58/58
f 60/60/60 55/55/55 58/58/58
f 60/60/60 57/57/57 55/55/55
f 57/57/57 36/36/36 55/55/55
f 57/57/57 35/35/35 36/36/36
f 35/35/35 34/34/34 36/36/36
f 35/35/35 33/33/33 34/34/34
f 33/33/33 32/32/32 34/34/34
f 33/33/33 31/31/31 32/32/32
f 31/31/31 30/30/30 32/32/32
f 31/31/31 29/29/29 30/30/30
f 29/29/29 28/28/28 30/30/30
f 29/29/29 27/27/27 28/28/28
f 27/27/27 26/26/26 28/28/28
f 27/27/27 25/25/25 26/26/26
f 25/25/25 21/21/21 26/26/26
f 25/25/25 20/20/20 21/21/21
f 20/20/20 22/22/22 21/21/21
f 20/20/20 23/23/23 22/22/22
f 23/23/23 24/24/24 22/22/22
f 23/23/23 19/19/19 24/24/24
f 19/19/19 4/4/4 24/24/24
f 19/19/19 1/1/1 4/4/4
f 1/1/1 2/2/2 4/4/4
f 1/1/1 3/3/3 2/2/2
f 3/3/3 5/5/5 2/2/2
f 3/3/3 6/6/6 5/5/5
f 6/6/6 7/7/7 5/5/5
f 6/6/6 8/8/8 7/7/7
f 8/8/8 9/9/9 7/7/7
f 8/8/8 10/10/10 9/9/9
f 10/10/10 11/11/11 9/9/9
f 10/10/10 12/12/12 11/11/11
f 12/12/12 13/13/13 11/11/11
f 12/12/12 14/14/14 13/13/13
f 14/14/14 15/15/15 13/13/13
f 14/14/14 16/16/16 15/15/15
f 16/16/16 17/17/17 15/15/15
f 16/16/16 18/18/18 17/17/17
f 64/64/64 62/62/62 65/65/65
f 64/64/64 61/61/61 62/62/62
f 61/61/61 59/59/59 62/62/62
f 61/61/61 58/58/58 59/59/59
f 58/58/58 56/56/56 59/59/59
f 58/58/58 55/55/55 56/56/56
f 55/55/55 52/52/52 56/56/56
f 55/55/55 36/36/36 52/52/52
f 36/36/36 51/51/51 52/52/52
f 36/36/36 34/34/34 51/51/51
f 34/34/34 50/50/50 51/51/51
f 34/34/34 32/32/32 50/50/50
f 32/32/32 49/49/49 50/50/50
f 32/32/32 30/30/30 49/49/49
f 30/30/30 48/48/48 49/49/49
f 30/30/30 28/28/28 48/48/48
f 28/28/28 47/47/47 48/48/48
f 28/28/28 26/26/26 47/47/47
f 26/26/26 39/39/39 47/47/47
f 26/26/26 21/21/21 39/39/39
f 21/21/21 37/37/37 39/39/39
f 21/21/21 22/22/22 37/37/37
f 22/22/22 38/38/38 37/37/37
f 22/22/22 24/24/24 38/38/38
f 24/24/24 40/40/40 38/38/38
f 24/24/24 4/4/4 40/40/40
f 4/4/4 41/41/41 40/40/40
f 4/4/4 2/2/2 41/41/41
f 2/2/2 42/42/42 41/41/41
f 2/2/2 5/5/5 42/42/42
f 5/5/5 43/43/43 42/42/42
f 5/5/5 7/7/7 43/43/43
f 7/7/7 44/44/44 43/43/43
f 7/7/7 9/9/9 44/44/44
f 9/9/9 45/45/45 44/44/44
f 9/9/9 11/11/11 45/45/45
f 11/11/11 46/46/46 45/45/45
f 11/11/11 13/13/13 46/46/46
f 13/13/13 54/54/54 46/46/46
f 13/13/13 15/15/15 54/54/54
f 15/15/15 53/53/53 54/54/54
f 15/15/15 17/17/17 53/53/53
f 65/65/65 81/81/81 87/87/87
f 65/65/65 62/62/62 81/81/81
f 62/62/62 80/80/80 81/81/81
f 62/62/62 59/59/59 80/80/80
f 59/59/59 79/79/79 80/80/80
f 59/59/59 56/56/56 79/79/79
f 56/56/56 78/78/78 79/79/79
f 56/56/56 52/52/52 78/78/78
f 52/52/52 77/77/77 78/78/78
f 52/52/52 51/51/51 77/77/77
f 51/51/51 82/82/82 77/77/77
f 51/51/51 50/50/50 82/82/82
f 50/50/50 83/83/83 82/82/82
f 50/50/50 49/49/49 83/83/83
f 49/49/49 84/84/84 83/83/83
f 49/49/49 48/48/48 84/84/84
f 48/48/48 85/85/85 84/84/84
f 48/48/48 47/47/47 85/85/85
f 47/47/47 86/86/86 85/85/85
f 47/47/47 39/39/39 86/86/86
f 39/39/39 108/108/108 86/86/86
f 39/39/39 37/37/37 108/108/108
f 37/37/37 107/107/107 108/108/108
f 37/37/37 38/38/38 107/107/107
f 38/38/38 106/106/106 107/107/107
f 38/38/38 40/40/40 106/106/106
f 40/40/40 105/105/105 106/106/106
f 40/40/40 41/41/41 105/105/105
f 41/41/41 104/104/104 105/105/105
f 41/41/41 42/42/42 104/104/104
f 42/42/42 103/103/103 104/104/104
f 42/42/42 43/43/43 103/103/103
f 43/43/43 102/102/102 103/103/103
f 43/43/43 44/44/44 102/102/102
f 44/44/44 101/101/101 102/102/102
f 44/44/44 45/45/45 101/101/101
f 45/45/45 100/100/100 101/101/101
f 45/45/45 46/46/46 100/100/100
f 46/46/46 99/99/99 100/100/100
f 46/46/46 54/54/54 99/99/99
f 54/54/54 98/98/98 99/99/99
f 54/54/54 53/53/53 98/98/98
f 260/260/260 252/252/252 254/254/254
f 260/260/260 261/261/261 252/252/252
f 261/261/261 248/248/248 252/252/252
f 261/261/261 262/262/262 248/248/248
f 262/262/262 251/251/251 248/248/248
f 262/262/262 263/263/263 251/251/251
f 263/263/263 265/265/265 251/251/251
f 263/263/263 267/267/267 265/265/265
f 515/515/515 501/501/501 509/509/509
f 515/515/515 514/514/514 501/501/501
f 514/514/514 498/498/498 501/501/501
f 514/514/514 511/511/511 498/498/498
f 511/511/511 495/495/495 498/498/498
f 511/511/511 512/512/512 495/495/495
f 512/512/512 496/496/496 495/495/495
f 512/512/512 513/513/513 496/496/496
f 513/513/513 497/497/497 496/496/496
f 513/513/513 542/542/542 497/497/497
f 542/542/542 532/532/532 497/497/497
f 542/542/542 539/539/539 532/532/532
f 539/539/539 530/530/530 532/532/532
f 539/539/539 540/540/540 530/530/530
f 540/540/540 531/531/531 530/530/530
f 540/540/540 541/541/541 531/531/531
f 541/541/541 533/533/533 531/531/531
f 541/541/541 544/544/544 533/533/533
f 544/544/544 534/534/534 533/533/533
f 544/544/544 545/545/545 534/534/534
f 545/545/545 535/535/535 534/534/534
f 545/545/545 546/546/546 535/535/535
f 546/546/546 536/536/536 535/535/535
f 546/546/546 547/547/547 536/536/536
f 547/547/547 543/543/543 536/536/536
f 547/547/547 548/548/548 543/543/543
f 548/548/548 549/549/549 543/543/543
f 548/548/548 550/550/550 549/549/549
f 298/298/298 281/281/281 282/282/282
f 298/298/298 297/297/297 281/281/281
f 297/297/297 279/279/279 281/281/281
f 297/297/297 295/295/295 279/279/279
f 295/295/295 280/280/280 279/279/279
f 295/295/295 296/296/296 280/280/280
f 254/254/254 253/253/253 255/255/255
f 254/254/254 252/252/252 253/253/253
f 252/252/252 249/249/249 253/253/253
f 252/252/252 248/248/248 249/249/249
f 248/248/248 250/250/250 249/249/249
f 248/248/248 251/251/251 250/250/250
f 251/251/251 264/264/264 250/250/250
f 251/251/251 265/265/265 264/264/264
f 509/509/509 499/499/499 507/507/507
f 509/509/509 501/501/501 499/499/499
f 501/501/501 487/487/487 499/499/499
f 501/501/501 498/498/498 487/487/487
f 498/498/498 489/489/489 487/487/487
f 498/498/498 495/495/495 489/489/489
f 495/495/495 492/492/492 489/489/489
f 495/495/495 496/496/496 492/492/492
f 496/496/496 494/494/494 492/492/492
f 496/496/496 497/497/497 494/494/494
f 497/497/497 526/526/526 494/494/494
f 497/497/497 532/532/532 526/526/526
f 532/532/532 524/524/524 526/526/526
f 532/532/532 530/530/530 524/524/524
f 530/530/530 516/516/516 524/524/524
f 530/530/530 531/531/531 516/516/516
f 531/531/531 518/518/518 516/516/516
f 531/531/531 533/533/533 518/518/518
f 533/533/533 521/521/521 518/518/518
f 533/533/533 534/534/534 521/521/521
f 534/534/534 523/523/523 521/521/521
f 534/534/534 535/535/535 523/523/523
f 535/535/535 529/529/529 523/523/523
f 535/535/535 536/536/536 529/529/529
f 536/536/536 538/538/538 529/529/529
f 536/536/536 543/543/543 538/538/538
f 287/287/287 283/283/283 285/285/285
f 287/287/287 282/282/282 283/283/283
f 282/282/282 273/273/273 283/283/283
f 282/282/282 281/281/281 273/273/273
f 281/281/281 275/275/275 273/273/273
f 281/281/281 279/279/279 275/275/275
f 279/279/279 278/278/278 275/275/275
f 279/279/279 280/280/280 278/278/278
f 255/255/255 256/256/256 257/257/257
f 255/255/255 253/253/253 256/256/256
f 253/253/253 258/258/258 256/256/256
f 253/253/253 249/249/249 258/258/258
f 249/249/249 259/259/259 258/258/258
f 249/249/249 250/250/250 259/259/259
f 250/250/250 266/266/266 259/259/259
f 250/250/250 264/264/264 266/266/266
f 507/507/507 500/500/500 508/508/508
f 507/507/507 499/499/499 500/500/500
f 499/499/499 490/490/490 500/500/500
f 499/499/499 487/487/487 490/490/490
f 487/487/487 488/488/488 490/490/490
f 487/487/487 489/489/489 488/488/488
f 489/489/489 491/491/491 488/488/488
f 489/489/489 492/492/492 491/491/491
f 492/492/492 493/493/493 491/491/491
f 492/492/492 494/494/494 493/493/493
f 494/494/494 527/527/527 493/493/493
f 494/494/494 526/526/526 527/527/527
f 526/526/526 525/525/525 527/527/527
f 526/526/526 524/524/524 525/525/525
f 524/524/524 519/519/519 525/525/525
f 524/524/524 516/516/516 519/519/519
f 516/516/516 517/517/517 519/519/519
f 516/516/516 518/518/518 517/517/517
f 518/518/518 520/520/520 517/517/517
f 518/518/518 521/521/521 520/520/520
f 521/521/521 522/522/522 520/520/520
f 521/521/521 523/523/523 522/522/522
f 523/523/523 528/528/528 522/522/522
f 523/523/523 529/529/529 528/528/528
f 529/529/529 537/537/537 528/528/528
f 529/529/529 538/538/538 537/537/537
f 285/285/285 284/284/284 286/286/286
f 285/285/285 283/283/283 284/284/284
f 283/283/283 276/276/276 284/284/284
f 283/283/283 273/273/273 276/276/276
f 273/273/273 274/274/274 276/276/276
f 273/273/273 275/275/275 274/274/274
f 275/275/275 277/277/277 274/274/274
f 275/275/275 278/278/278 277/277/277
f 257/257/257 268/268/268 269/269/269
f 257/257/257 256/256/256 268/268/268
f 256/256/256 270/270/270 268/268/268
f 256/256/256 258/258/258 270/270/270
f 258/258/258 271/271/271 270/270/270
f 258/258/258 259/259/259 271/271/271
f 259/259/259 272/272/272 271/271/271
f 259/259/259 266/266/266 272/272/272
f 508/508/508 506/506/506 510/510/510
f 508/508/508 500/500/500 506/506/506
f 500/500/500 504/504/504 506/506/506
f 500/500/500 490/490/490 504/504/504
f 490/490/490 503/503/503 504/504/504
f 490/490/490 488/488/488 503/503/503
f 488/488/488 502/502/502 503/503/503
f 488/488/488 491/491/491 502/502/502
f 491/491/491 505/505/505 502/502/502
f 491/491/491 493/493/493 505/505/505
f 493/493/493 553/553/553 505/505/505
f 493/493/493 527/527/527 553/553/553
f 527/527/527 552/552/552 553/553/553
f 527/527/527 525/525/525 552/552/552
f 525/525/525 551/551/551 552/552/552
f 525/525/525 519/519/519 551/551/551
f 519/519/519 554/554/554 551/551/551
f 519/519/519 517/517/517 554/554/554
f 517/517/517 555/555/555 554/554/554
f 517/517/517 520/520/520 555/555/555
f 520/520/520 556/556/556 555/555/555
f 520/520/520 522/522/522 556/556/556
f 522/522/522 557/557/557 556/556/556
f 522/522/522 528/528/528 557/557/557
f 293/293/293 292/292/292 294/294/294
f 293/293/293 286/286/286 292/292/292
f 286/286/286 291/291/291 292/292/292
f 286/286/286 284/284/284 291/291/291
f 284/284/284 289/289/289 291/291/291
f 284/284/284 276/276/276 289/289/289
f 276/276/276 288/288/288 289/289/289
f 276/276/276 274/274/274 288/288/288
f 274/274/274 290/290/290 288/288/288
f 274/274/274 277/277/277 290/290/290
f 481/481/481 447/447/447 450/450/450
f 481/481/481 475/475/475 447/447/447
f 475/475/475 444/444/444 447/447/447
f 475/475/475 474/474/474 444/444/444
f 474/474/474 441/441/441 444/444/444
f 474/474/474 473/473/473 441/441/441
f 473/473/473 440/440/440 441/441/441
f 473/473/473 471/471/471 440/440/440
f 471/471/471 437/437/437 440/440/440
f 471/471/471 472/472/472 437/437/437
f 472/472/472 434/434/434 437/437/437
f 472/472/472 476/476/476 434/434/434
f 476/476/476 431/431/431 434/434/434
f 476/476/476 477/477/477 431/431/431
f 477/477/477 428/428/428 431/431/431
f 477/477/477 478/478/478 428/428/428
f 478/478/478 425/425/425 428/428/428
f 478/478/478 479/479/479 425/425/425
f 479/479/479 413/413/413 425/425/425
f 479/479/479 480/480/480 413/413/413
f 480/480/480 414/414/414 413/413/413
f 480/480/480 483/483/483 414/414/414
f 483/483/483 415/415/415 414/414/414
f 483/483/483 482/482/482 415/415/415
f 482/482/482 416/416/416 415/415/415
f 482/482/482 470/470/470 416/416/416
f 470/470/470 417/417/417 416/416/416
f 470/470/470 469/469/469 417/417/417
f 469/469/469 411/411/411 417/417/417
f 469/469/469 465/465/465 411/411/411
f 465/465/465 412/412/412 411/411/411
f 465/465/465 466/466/466 412/412/412
f 466/466/466 418/418/418 412/412/412
f 466/466/466 467/467/467 418/418/418
f 467/467/467 419/419/419 418/418/418
f 467/467/467 468/468/468 419/419/419
f 468/468/468 420/420/420 419/419/419
f 468/468/468 484/484/484 420/420/420
f 484/484/484 421/421/421 420/420/420
f 484/484/484 485/485/485 421/421/421
f 485/485/485 422/422/422 421/421/421
f 485/485/485 486/486/486 422/422/422
f 450/450/450 448/448/448 451/451/451
f 450/450/450 447/447/447 448/448/448
f 447/447/447 445/445/445 448/448/448
f 447/447/447 444/444/444 445/445/445
f 444/444/444 442/442/442 445/445/445
f 444/444/444 441/441/441 442/442/442
f 441/441/441 438/438/438 442/442/442
f 441/441/441 440/440/440 438/438/438
f 440/440/440 435/435/435 438/438/438
f 440/440/440 437/437/437 435/435/435
f 437/437/437 432/432/432 435/435/435
f 437/437/437 434/434/434 432/432/432
f 434/434/434 429/429/429 432/432/432
f 434/434/434 431/431/431 429/429/429
f 431/431/431 426/426/426 429/429/429
f 431/431/431 428/428/428 426/426/426
f 428/428/428 423/423/423 426/426/426
f 428/428/428 425/425/425 423/423/423
f 425/425/425 408/408/408 423/423/423
f 425/425/425 413/413/413 408/408/408
f 413/413/413 407/407/407 408/408/408
f 413/413/413 414/414/414 407/407/407
f 414/414/414 387/387/387 407/407/407
f 414/414/414 415/415/415 387/387/387
f 415/415/415 389/389/389 387/387/387
f 415/415/415 416/416/416 389/389/389
f 416/416/416 392/392/392 389/389/389
f 416/416/416 417/417/417 392/392/392
f 417/417/417 394/394/394 392/392/392
f 417/417/417 411/411/411 394/394/394
f 411/411/411 396/396/396 394/394/394
f 411/411/411 412/412/412 396/396/396
f 412/412/412 398/398/398 396/396/396
f 412/412/412 418/418/418 398/398/398
f 418/418/418 400/400/400 398/398/398
f 418/418/418 419/419/419 400/400/400
f 419/419/419 402/402/402 400/400/400
f 419/419/419 420/420/420 402/402/402
f 420/420/420 404/404/404 402/402/402
f 420/420/420 421/421/421 404/404/404
f 421/421/421 406/406/406 404/404/404
f 421/421/421 422/422/422 406/406/406
f 451/451/451 449/449/449 452/452/452
f 451/451/451 448/448/448 449/449/449
f 448/448/448 446/446/446 449/449/449
f 448/448/448 445/445/445 446/446/446
f 445/445/445 443/443/443 446/446/446
f 445/445/445 442/442/442 443/443/443
f 442/442/442 439/439/439 443/443/443
f 442/442/442 438/438/438 439/439/439
f 438/438/438 436/436/436 439/439/439
f 438/438/438 435/435/435 436/436/436
f 435/435/435 433/433/433 436/436/436
f 435/435/435 432/432/432 433/433/433
f 432/432/432 430/430/430 433/433/433
f 432/432/432 429/429/429 430/430/430
f 429/429/429 427/427/427 430/430/430
f 429/429/429 426/426/426 427/427/427
f 426/426/426 424/424/424 427/427/427
f 426/426/426 423/423/423 424/424/424
f 423/423/423 409/409/409 424/424/424
f 423/423/423 408/408/408 409/409/409
f 408/408/408 410/410/410 409/409/409
f 408/408/408 407/407/407 410/410/410
f 407/407/407 391/391/391 410/410/410
f 407/407/407 387/387/387 391/391/391
f 387/387/387 388/388/388 391/391/391
f 387/387/387 389/389/389 388/388/388
f 389/389/389 390/390/390 388/388/388
f 389/389/389 392/392/392 390/390/390
f 392/392/392 393/393/393 390/390/390
f 392/392/392 394/394/394 393/393/393
f 394/394/394 395/395/395 393/393/393
f 394/394/394 396/396/396 395/395/395
f 396/396/396 397/397/397 395/395/395
f 396/396/396 398/398/398 397/397/397
f 398/398/398 399/399/399 397/397/397
f 398/398/398 400/400/400 399/399/399
f 400/400/400 401/401/401 399/399/399
f 400/400/400 402/402/402 401/401/401
f 402/402/402 403/403/403 401/401/401
f 402/402/402 404/404/404 403/403/403
f 404/404/404 405/405/405 403/403/403
f 404/404/404 406/406/406 405/405/405
f 452/452/452 382/382/382 384/384/384
f 452/452/452 449/449/449 382/382/382
f 449/449/449 380/380/380 382/382/382
f 449/449/449 446/446/446 380/380/380
f 446/446/446 378/378/378 380/380/380
f 446/446/446 443/443/443 378/378/378
f 443/443/443 374/374/374 378/378/378
f 443/443/443 439/439/439 374/374/374
f 439/439/439 373/373/373 374/374/374
f 439/439/439 436/436/436 373/373/373
f 436/436/436 369/369/369 373/373/373
f 436/436/436 433/433/433 369/369/369
f 433/433/433 370/370/370 369/369/369
f 433/433/433 430/430/430 370/370/370
f 430/430/430 371/371/371 370/370/370
f 430/430/430 427/427/427 371/371/371
f 427/427/427 372/372/372 371/371/371
f 427/427/427 424/424/424 372/372/372
f 424/424/424 464/464/464 372/372/372
f 424/424/424 409/409/409 464/464/464
f 409/409/409 463/463/463 464/464/464
f 409/409/409 410/410/410 463/463/463
f 410/410/410 461/461/461 463/463/463
f 410/410/410 391/391/391 461/461/461
f 391/391/391 458/458/458 461/461/461
f 391/391/391 388/388/388 458/458/458
f 388/388/388 454/454/454 458/458/458
f 388/388/388 390/390/390 454/454/454
f 390/390/390 453/453/453 454/454/454
f 390/390/390 393/393/393 453/453/453
f 393/393/393 455/455/455 453/453/453
f 393/393/393 395/395/395 455/455/455
f 395/395/395 456/456/456 455/455/455
f 395/395/395 397/397/397 456/456/456
f 397/397/397 457/457/457 456/456/456
f 397/397/397 399/399/399 457/457/457
f 399/399/399 459/459/459 457/457/457
f 399/399/399 401/401/401 459/459/459
f 401/401/401 460/460/460 459/459/459
f 401/401/401 403/403/403 460/460/460
f 403/403/403 462/462/462 460/460/460
f 403/403/403 405/405/405 462/462/462
f 384/384/384 383/383/383 385/385/385
f 384/384/384 382/382/382 383/383/383
f 382/382/382 381/381/381 383/383/383
f 382/382/382 380/380/380 381/381/381
f 380/380/380 379/379/379 381/381/381
f 380/380/380 378/378/378 379/379/379
f 378/378/378 367/367/367 379/379/379
f 378/378/378 374/374/374 367/367/367
f 374/374/374 364/364/364 367/367/367
f 374/374/374 373/373/373 364/364/364
f 373/373/373 362/362/362 364/364/364
f 373/373/373 369/369/369 362/362/362
f 369/369/369 360/360/360 362/362/362
f 369/369/369 370/370/370 360/360/360
f 370/370/370 361/361/361 360/360/360
f 370/370/370 371/371/371 361/361/361
f 371/371/371 363/363/363 361/361/361
f 371/371/371 372/372/372 363/363/363
f 126/126/126 123/123/123 127/127/127
f 126/126/126 124/124/124 123/123/123
f 124/124/124 119/119/119 123/123/123
f 124/124/124 121/121/121 119/119/119
f 121/121/121 120/120/120 119/119/119
f 121/121/121 122/122/122 120/120/120
f 122/122/122 125/125/125 120/120/120
f 339/339/339 337/337/337 338/338/338
f 337/337/337 336/336/336 338/338/338
f 337/337/337 335/335/335 336/336/336
f 335/335/335 332/332/332 336/336/336
f 335/335/335 334/334/334 332/332/332
f 334/334/334 325/325/325 332/332/332
f 334/334/334 331/331/331 325/325/325
f 331/331/331 322/322/322 325/325/325
f 331/331/331 329/329/329 322/322/322
f 329/329/329 319/319/319 322/322/322
f 329/329/329 328/328/328 319/319/319
f 328/328/328 317/317/317 319/319/319
f 328/328/328 326/326/326 317/317/317
f 326/326/326 318/318/318 317/317/317
f 326/326/326 327/327/327 318/318/318
f 327/327/327 321/321/321 318/318/318
f 327/327/327 330/330/330 321/321/321
f 231/231/231 216/216/216 215/215/215
f 231/231/231 232/232/232 216/216/216
f 232/232/232 217/217/217 216/216/216
f 232/232/232 233/233/233 217/217/217
f 233/233/233 218/218/218 217/217/217
f 233/233/233 234/234/234 218/218/218
f 379/379/379 365/365/365 386/386/386
f 379/379/379 367/367/367 365/365/365
f 367/367/367 358/358/358 365/365/365
f 367/367/367 364/364/364 358/358/358
f 364/364/364 355/355/355 358/358/358
f 364/364/364 362/362/362 355/355/355
f 362/362/362 352/352/352 355/355/355
f 362/362/362 360/360/360 352/352/352
f 360/360/360 353/353/353 352/352/352
f 360/360/360 361/361/361 353/353/353
f 361/361/361 354/354/354 353/353/353
f 361/361/361 363/363/363 354/354/354
f 127/127/127 118/118/118 133/133/133
f 127/127/127 123/123/123 118/118/118
f 123/123/123 114/114/114 118/118/118
f 123/123/123 119/119/119 114/114/114
f 119/119/119 117/117/117 114/114/114
f 119/119/119 120/120/120 117/117/117
f 120/120/120 128/128/128 117/117/117
f 120/120/120 125/125/125 128/128/128
f 125/125/125 129/129/129 128/128/128
f 125/125/125 130/130/130 129/129/129
f 130/130/130 131/131/131 129/129/129
f 130/130/130 132/132/132 131/131/131
f 332/332/332 323/323/323 333/333/333
f 332/332/332 325/325/325 323/323/323
f 325/325/325 316/316/316 323/323/323
f 325/325/325 322/322/322 316/316/316
f 322/322/322 313/313/313 316/316/316
f 322/322/322 319/319/319 313/313/313
f 319/319/319 310/310/310 313/313/313
f 319/319/319 317/317/317 310/310/310
f 317/317/317 311/311/311 310/310/310
f 317/317/317 318/318/318 311/311/311
f 318/318/318 312/312/312 311/311/311
f 318/318/318 321/321/321 312/312/312
f 215/215/215 211/211/211 214/214/214
f 215/215/215 216/216/216 211/211/211
f 216/216/216 203/203/203 211/211/211
f 216/216/216 217/217/217 203/203/203
f 217/217/217 206/206/206 203/203/203
f 217/217/217 218/218/218 206/206/206
f 218/218/218 229/229/229 206/206/206
f 218/218/218 230/230/230 229/229/229
f 365/365/365 356/356/356 366/366/366
f 365/365/365 358/358/358 356/356/356
f 358/358/358 340/340/340 356/356/356
f 358/358/358 355/355/355 340/340/340
f 355/355/355 343/343/343 340/340/340
f 355/355/355 352/352/352 343/343/343
f 352/352/352 348/348/348 343/343/343
f 352/352/352 353/353/353 348/348/348
f 353/353/353 351/351/351 348/348/348
f 353/353/353 354/354/354 351/351/351
f 354/354/354 376/376/376 351/351/351
f 354/354/354 377/377/377 376/376/376
f 118/118/118 115/115/115 135/135/135
f 118/118/118 114/114/114 115/115/115
f 114/114/114 116/116/116 115/115/115
f 114/114/114 117/117/117 116/116/116
f 117/117/117 134/134/134 116/116/116
f 117/117/117 128/128/128 134/134/134
f 128/128/128 136/136/136 134/134/134
f 128/128/128 129/129/129 136/136/136
f 129/129/129 137/137/137 136/136/136
f 129/129/129 131/131/131 137/137/137
f 131/131/131 138/138/138 137/137/137
f 131/131/131 139/139/139 138/138/138
f 323/323/323 315/315/315 324/324/324
f 323/323/323 316/316/316 315/315/315
f 316/316/316 308/308/308 315/315/315
f 316/316/316 313/313/313 308/308/308
f 313/313/313 307/307/307 308/308/308
f 313/313/313 310/310/310 307/307/307
f 310/310/310 305/305/305 307/307/307
f 310/310/310 311/311/311 305/305/305
f 311/311/311 306/306/306 305/305/305
f 311/311/311 312/312/312 306/306/306
f 214/214/214 209/209/209 212/212/212
f 214/214/214 211/211/211 209/209/209
f 211/211/211 204/204/204 209/209/209
f 211/211/211 203/203/203 204/204/204
f 203/203/203 205/205/205 204/204/204
f 203/203/203 206/206/206 205/205/205
f 206/206/206 228/228/228 205/205/205
f 206/206/206 229/229/229 228/228/228
f 366/366/366 357/357/357 368/368/368
f 366/366/366 356/356/356 357/357/357
f 356/356/356 341/341/341 357/357/357
f 356/356/356 340/340/340 341/341/341
f 340/340/340 342/342/342 341/341/341
f 340/340/340 343/343/343 342/342/342
f 343/343/343 347/347/347 342/342/342
f 343/343/343 348/348/348 347/347/347
f 348/348/348 350/350/350 347/347/347
f 348/348/348 351/351/351 350/350/350
f 144/144/144 141/141/141 145/145/145
f 144/144/144 135/135/135 141/141/141
f 135/135/135 140/140/140 141/141/141
f 135/135/135 115/115/115 140/140/140
f 115/115/115 142/142/142 140/140/140
f 115/115/115 116/116/116 142/142/142
f 116/116/116 143/143/143 142/142/142
f 116/116/116 134/134/134 143/143/143
f 134/134/134 146/146/146 143/143/143
f 134/134/134 136/136/136 146/146/146
f 136/136/136 151/151/151 146/146/146
f 136/136/136 137/137/137 151/151/151
f 137/137/137 153/153/153 151/151/151
f 137/137/137 138/138/138 153/153/153
f 138/138/138 173/173/173 153/153/153
f 138/138/138 174/174/174 173/173/173
f 315/315/315 309/309/309 320/320/320
f 315/315/315 308/308/308 309/309/309
f 308/308/308 299/299/299 309/309/309
f 308/308/308 307/307/307 299/299/299
f 307/307/307 301/301/301 299/299/299
f 307/307/307 305/305/305 301/301/301
f 305/305/305 304/304/304 301/301/301
f 305/305/305 306/306/306 304/304/304
f 212/212/212 210/210/210 213/213/213
f 212/212/212 209/209/209 210/210/210
f 209/209/209 208/208/208 210/210/210
f 209/209/209 204/204/204 208/208/208
f 204/204/204 207/207/207 208/208/208
f 204/204/204 205/205/205 207/207/207
f 205/205/205 227/227/227 207/207/207
f 205/205/205 228/228/228 227/227/227
f 368/368/368 359/359/359 375/375/375
f 368/368/368 357/357/357 359/359/359
f 357/357/357 345/345/345 359/359/359
f 357/357/357 341/341/341 345/345/345
f 341/341/341 344/344/344 345/345/345
f 341/341/341 342/342/342 344/344/344
f 342/342/342 346/346/346 344/344/344
f 342/342/342 347/347/347 346/346/346
f 347/347/347 349/349/349 346/346/346
f 347/347/347 350/350/350 349/349/349
f 145/145/145 148/148/148 152/152/152
f 145/145/145 141/141/141 148/148/148
f 141/141/141 147/147/147 148/148/148
f 141/141/141 140/140/140 147/147/147
f 140/140/140 149/149/149 147/147/147
f 140/140/140 142/142/142 149/149/149
f 142/142/142 150/150/150 149/149/149
f 142/142/142 143/143/143 150/150/150
f 143/143/143 154/154/154 150/150/150
f 143/143/143 146/146/146 154/154/154
f 146/146/146 155/155/155 154/154/154
f 146/146/146 151/151/151 155/155/155
f 151/151/151 172/172/172 155/155/155
f 151/151/151 153/153/153 172/172/172
f 153/153/153 175/175/175 172/172/172
f 153/153/153 173/173/173 175/175/175
f 173/173/173 189/189/189 175/175/175
f 320/320/320 309/309/309 314/314/314
f 309/309/309 302/302/302 314/314/314
f 309/309/309 299/299/299 302/302/302
f 299/299/299 300/300/300 302/302/302
f 299/299/299 301/301/301 300/300/300
f 301/301/301 303/303/303 300/300/300
f 301/301/301 304/304/304 303/303/303
