# Exported by Gskelview
mtllib m_handrail_upwards.mtl

v 175 -24 1
v 175 88 1
v 176 88 4
v 176 -24 4
v 176 88 4
v 175 -24 7
v 176 -24 4
v 175 88 7
v 172 88 0
v 172 88 8
v 172 -24 0
v 172 -24 8
v 169 -24 7
v 169 88 7
v 168 88 4
v 168 -24 4
v 169 -24 1
v 169 88 1
v 171.25 99.25 1
v 176 88 4
v 175 88 1
v 172 100 4
v 160 104 4
v 160 103 1
v 172 88 0
v 169 97 0
v 172 88 0
v 166.75 94.75 1
v 169 88 1
v 168 88 4
v 166 94 4
v 166.75 94.75 7
v 169 88 7
v 172 88 8
v 172 88 8
v 169 97 8
v 171.25 99.25 7
v 175 88 7
v 176 88 4
v 172 100 4
v 169 97 0
v 160 100 0
v 160 97 1
v 160 100 0
v 160 96 4
v 160 104 4
v 160 103 7
v 160 97 7
v 160 100 8
v 169 97 8
v 160 100 8
v 171.25 99.25 1
v 171.25 -35.25 1
v 175 -24 1
v 176 -24 4
v 172 -36 4
v 160 -40 4
v 172 -24 0
v 169 -33 0
v 172 -24 0
v 166.75 -30.75 1
v 169 -24 1
v 168 -24 4
v 166 -30 4
v 166.75 -30.75 7
v 169 -24 7
v 172 -24 8
v 172 -24 8
v 169 -33 8
v 171.25 -35.25 7
v 175 -24 7
v 176 -24 4
v 172 -36 4
v 160 -40 4
v 160 -39 7
v 169 -33 8
v 160 -36 8
v 160 -33 7
v 160 -32 4
v 160 -33 1
v 160 -36 0
v 169 -33 0
v 160 -36 0
v 171.25 -35.25 1
v 160 -39 1
v 160 97 1
v -144 -28 0
v 160 100 0
v 160 103 1
v -144 -25 1
v -144 -31 1
v -144 -24 4
v -144 -32 4
v 160 104 4
v 160 96 4
v 160 97 7
v -144 -31 7
v -144 -28 8
v 160 100 8
v 160 103 7
v -144 -25 7
v -144 -24 4
v 160 104 4
v 160 -33 7
v -144 -164 8
v 160 -36 8
v -144 -161 7
v 160 -39 7
v -144 -167 7
v -144 -160 4
v -144 -168 4
v 160 -32 4
v 160 -40 4
v 160 -39 1
v -144 -167 1
v -144 -164 0
v 160 -36 0
v 160 -33 1
v -144 -161 1
v -144 -160 4
v 160 -32 4
v -150.75 -33.25 1
v -144 -28 0
v -144 -31 1
v -144 -32 4
v -150 -34 4
v -150.75 -33.25 7
v -152 -40 4
v -153 -31 0
v -144 -28 0
v -150.75 -33.25 1
v -153 -40 1
v -153 -40 7
v -155.25 -28.75 1
v -144 -25 1
v -144 -24 4
v -156 -40 0
v -153 -31 0
v -156 -40 0
v -156 -28 4
v -156 -40 8
v -153 -31 8
v -156 -40 8
v -144 -28 8
v -153 -31 8
v -144 -31 7
v -144 -28 8
v -155.25 -28.75 7
v -144 -25 7
v -159 -40 1
v -159 -40 7
v -160 -40 4
v -160 -40 4
v -156 -28 4
v -144 -24 4
v -152 -152 4
v -153 -40 1
v -152 -40 4
v -153 -152 1
v -153 -40 7
v -153 -152 7
v -156 -152 0
v -156 -40 0
v -156 -152 8
v -156 -40 8
v -159 -40 1
v -159 -152 1
v -159 -40 7
v -159 -152 7
v -160 -152 4
v -160 -40 4
v -160 -152 4
v -160 -40 4
v -152 -152 4
v -150.75 -158.75 1
v -153 -152 1
v -156 -152 0
v -153 -161 0
v -156 -152 0
v -155.25 -163.25 1
v -159 -152 1
v -160 -152 4
v -156 -164 4
v -150 -158 4
v -150.75 -158.75 7
v -153 -152 7
v -156 -152 8
v -156 -152 8
v -153 -161 8
v -153 -161 8
v -144 -164 8
v -155.25 -163.25 7
v -144 -164 8
v -144 -167 7
v -159 -152 7
v -160 -152 4
v -156 -164 4
v -144 -161 7
v -144 -168 4
v -144 -160 4
v -144 -161 1
v -150.75 -158.75 1
v -144 -164 0
v -144 -164 0
v -153 -161 0
v -144 -167 1
v -144 -168 4
v 17.75 -186 -5.75
v 21 -186 4
v 24 -192 4
v 20 -192 -8
v 12 -180 4
v 24 -192 4
v 21 -186 4
v 17.75 -186 13.75
v 20 -192 16
v 12 -180 4
v 11 -180 1
v 8 -192 -12
v 8 -186 -9
v 17.75 -186 -5.75
v 8 -180 0
v 11 -180 1
v 8 -192 20
v 8 -186 17
v 17.75 -186 13.75
v 8 -180 8
v 11 -180 7
v 11 -180 7
v -1.75 -186 -5.75
v 5 -180 1
v 4 -180 4
v 5 -180 1
v -1.75 -186 13.75
v -4 -192 -8
v -4 -192 16
v -1.75 -186 -5.75
v -5 -186 4
v -1.75 -186 13.75
v -8 -192 4
v 5 -180 7
v 4 -180 4
v 5 -180 7
v 11 -180 1
v 11 36 1
v 12 36 4
v 12 -180 4
v 12 36 4
v 11 -180 7
v 12 -180 4
v 11 36 7
v 8 36 0
v 8 36 8
v 8 -180 0
v 8 -180 8
v 5 -180 1
v 5 36 1
v 5 -180 7
v 5 36 7
v 4 36 4
v 4 -180 4
vt 0.21875 -0.125
vt 0.21875 -1
vt 0.25 -1
vt 0.25 -0.125
vt 0 -1
vt 0.03125 -0.125
vt 0 -0.125
vt 0.03125 -1
vt 0.1875 -1
vt 0.0625 -1
vt 0.1875 -0.125
vt 0.0625 -0.125
vt 0.09375 -0.125
vt 0.09375 -1
vt 0.125 -1
vt 0.125 -0.125
vt 0.15625 -0.125
vt 0.15625 -1
vt 0.267291 -0.875
vt 0.301777 -0.75
vt 0.267291 -0.75
vt 0.301777 -0.875
vt 0.301777 -1
vt 0.267291 -1
vt 0.226333 -0.75
vt 0.226333 -0.875
vt 0.226333 -0.75
vt 0.185374 -0.875
vt 0.185374 -0.75
vt 0.150888 -0.75
vt 0.150888 -0.875
vt 0.116402 -0.875
vt 0.116402 -0.75
vt 0.075444 -0.75
vt 0.075444 -0.75
vt 0.075444 -0.875
vt 0.034486 -0.875
vt 0.034486 -0.75
vt 0 -0.75
vt 0 -0.875
vt 0.226333 -0.875
vt 0.226333 -1
vt 0.185374 -1
vt 0.226333 -1
vt 0.150888 -1
vt 0 -1
vt 0.034486 -1
vt 0.116402 -1
vt 0.075444 -1
vt 0.075444 -0.875
vt 0.075444 -1
vt 0.267291 -0.875
vt 0.267291 -0.875
vt 0.267291 -1
vt 0.301777 -1
vt 0.301777 -0.875
vt 0.301777 -0.75
vt 0.226333 -1
vt 0.226333 -0.875
vt 0.226333 -1
vt 0.185374 -0.875
vt 0.185374 -1
vt 0.150888 -1
vt 0.150888 -0.875
vt 0.116402 -0.875
vt 0.116402 -1
vt 0.075444 -1
vt 0.075444 -1
vt 0.075444 -0.875
vt 0.034486 -0.875
vt 0.034486 -1
vt 0 -1
vt 0 -0.875
vt 0 -0.75
vt 0.034486 -0.75
vt 0.075444 -0.875
vt 0.075444 -0.75
vt 0.116402 -0.75
vt 0.150888 -0.75
vt 0.185374 -0.75
vt 0.226333 -0.75
vt 0.226333 -0.875
vt 0.226333 -0.75
vt 0.267291 -0.875
vt 0.267291 -0.75
vt 0.15625 1.375
vt 0.1875 -1
vt 0.1875 1.375
vt 0.21875 1.375
vt 0.21875 -1
vt 0.15625 -1
vt 0.25 -1
vt 0.125 -1
vt 0.25 1.375
vt 0.125 1.375
vt 0.09375 1.375
vt 0.09375 -1
vt 0.0625 -1
vt 0.0625 1.375
vt 0.03125 1.375
vt 0.03125 -1
vt 0 -1
vt 0 1.375
vt 0.03125 1.375
vt 0.0625 -1
vt 0.0625 1.375
vt 0.03125 -1
vt 0.09375 1.375
vt 0.09375 -1
vt 0 -1
vt 0.125 -1
vt 0 1.375
vt 0.125 1.375
vt 0.15625 1.375
vt 0.15625 -1
vt 0.1875 -1
vt 0.1875 1.375
vt 0.21875 1.375
vt 0.21875 -1
vt 0.25 -1
vt 0.25 1.375
vt 0.185374 -0.875
vt 0.226333 -0.75
vt 0.185374 -0.75
vt 0.150888 -0.75
vt 0.150888 -0.875
vt 0.116402 -0.875
vt 0.150888 -1
vt 0.226333 -0.875
vt 0.226333 -0.75
vt 0.185374 -0.875
vt 0.185374 -1
vt 0.116402 -1
vt 0.267291 -0.875
vt 0.267291 -0.75
vt 0.301777 -0.75
vt 0.226333 -1
vt 0.226333 -0.875
vt 0.226333 -1
vt 0.301777 -0.875
vt 0.075444 -1
vt 0.075444 -0.875
vt 0.075444 -1
vt 0.075444 -0.75
vt 0.075444 -0.875
vt 0.116402 -0.75
vt 0.075444 -0.75
vt 0.034486 -0.875
vt 0.034486 -0.75
vt 0.267291 -1
vt 0.034486 -1
vt 0.301777 -1
vt 0 -1
vt 0 -0.875
vt 0 -0.75
vt 0.125 -1
vt 0.15625 -0.125
vt 0.125 -0.125
vt 0.15625 -1
vt 0.09375 -0.125
vt 0.09375 -1
vt 0.1875 -1
vt 0.1875 -0.125
vt 0.0625 -1
vt 0.0625 -0.125
vt 0.21875 -0.125
vt 0.21875 -1
vt 0.03125 -0.125
vt 0.03125 -1
vt 0.25 -1
vt 0.25 -0.125
vt 0 -1
vt 0 -0.125
vt 0.150888 -0.75
vt 0.185374 -0.875
vt 0.185374 -0.75
vt 0.226333 -0.75
vt 0.226333 -0.875
vt 0.226333 -0.75
vt 0.267291 -0.875
vt 0.267291 -0.75
vt 0.301777 -0.75
vt 0.301777 -0.875
vt 0.150888 -0.875
vt 0.116402 -0.875
vt 0.116402 -0.75
vt 0.075444 -0.75
vt 0.075444 -0.75
vt 0.075444 -0.875
vt 0.075444 -0.875
vt 0.075444 -1
vt 0.034486 -0.875
vt 0.075444 -1
vt 0.034486 -1
vt 0.034486 -0.75
vt 0 -0.75
vt 0 -0.875
vt 0.116402 -1
vt 0 -1
vt 0.150888 -1
vt 0.185374 -1
vt 0.185374 -0.875
vt 0.226333 -1
vt 0.226333 -1
vt 0.226333 -0.875
vt 0.267291 -1
vt 0.301777 -1
vt 0.875 0.090331
vt 1 0.090331
vt 1 0.151691
vt 0.875 0.151691
vt 1 0
vt 0 0.151691
vt 0 0.090331
vt 0.125 0.090331
vt 0.125 0.151691
vt 0 0
vt 0.875 0
vt 0.75 0.151691
vt 0.75 0.090331
vt 0.875 0.090331
vt 0.75 0
vt 0.875 0
vt 0.25 0.151691
vt 0.25 0.090331
vt 0.125 0.090331
vt 0.25 0
vt 0.125 0
vt 0.125 0
vt 0.625 0.090331
vt 0.625 0
vt 0.5 0
vt 0.625 0
vt 0.375 0.090331
vt 0.625 0.151691
vt 0.375 0.151691
vt 0.625 0.090331
vt 0.5 0.090331
vt 0.375 0.090331
vt 0.5 0.151691
vt 0.375 0
vt 0.5 0
vt 0.375 0
vt 0.21875 1.75
vt 0.21875 0
vt 0.25 0
vt 0.25 1.75
vt 0 0
vt 0.03125 1.75
vt 0 1.75
vt 0.03125 0
vt 0.1875 0
vt 0.0625 0
vt 0.1875 1.75
vt 0.0625 1.75
vt 0.15625 1.75
vt 0.15625 0
vt 0.09375 1.75
vt 0.09375 0
vt 0.125 0
vt 0.125 1.75
vn 0.707062 -0.0112709 -0.707062
vn 0.706943 0.0215094 -0.706943
vn 0.999509 0.0313294 0
vn 0.998362 -0.0572075 0
vn 0.999509 0.0313294 0
vn 0.707062 -0.0112709 0.707062
vn 0.998362 -0.0572075 0
vn 0.706943 0.0215094 0.706943
vn 0.00309916 0.00103305 -0.999995
vn 0.00309916 0.00103305 0.999995
vn 0.00576912 -0.00192304 -0.999982
vn 0.00576912 -0.00192304 0.999982
vn -0.70709 0.0068947 0.70709
vn -0.707043 -0.0133966 0.707043
vn -0.999839 -0.0179485 0
vn -0.99942 0.0340484 0
vn -0.70709 0.0068947 -0.70709
vn -0.707043 -0.0133966 -0.707043
vn 0.502519 0.502519 -0.703526
vn 0.999509 0.0313294 0
vn 0.706943 0.0215094 -0.706943
vn 0.707107 0.707107 0
vn -0.344908 0.938637 0
vn -0.276785 0.679481 -0.679481
vn 0.00309916 0.00103305 -0.999995
vn 0 0 -1
vn 0.00309916 0.00103305 -0.999995
vn -0.457496 -0.457496 -0.762493
vn -0.707043 -0.0133966 -0.707043
vn -0.999839 -0.0179485 0
vn -0.707107 -0.707107 0
vn -0.457496 -0.457496 0.762493
vn -0.707043 -0.0133966 0.707043
vn 0.00309916 0.00103305 0.999995
vn 0.00309916 0.00103305 0.999995
vn 0 0 1
vn 0.502519 0.502519 0.703526
vn 0.706943 0.0215094 0.706943
vn 0.999509 0.0313294 0
vn 0.707107 0.707107 0
vn 0 0 -1
vn 0.000776395 0.00232919 -0.999997
vn 0.280182 -0.678785 -0.678785
vn 0.000776395 0.00232919 -0.999997
vn 0.3639 -0.931438 0
vn -0.344908 0.938637 0
vn -0.276785 0.679481 0.679481
vn 0.280182 -0.678785 0.678785
vn 0.000776395 0.00232919 0.999997
vn 0 0 1
vn 0.000776395 0.00232919 0.999997
vn 0.502519 0.502519 -0.703526
vn 0.502519 -0.502519 -0.703526
vn 0.707062 -0.0112709 -0.707062
vn 0.998362 -0.0572075 0
vn 0.707107 -0.707107 0
vn 0.383162 -0.923681 0
vn 0.00576912 -0.00192304 -0.999982
vn 0 0 -1
vn 0.00576912 -0.00192304 -0.999982
vn -0.457496 0.457496 -0.762493
vn -0.70709 0.0068947 -0.70709
vn -0.99942 0.0340484 0
vn -0.707107 0.707107 0
vn -0.457496 0.457496 0.762493
vn -0.70709 0.0068947 0.70709
vn 0.00576912 -0.00192304 0.999982
vn 0.00576912 -0.00192304 0.999982
vn 0 0 1
vn 0.502519 -0.502519 0.703526
vn 0.707062 -0.0112709 0.707062
vn 0.998362 -0.0572075 0
vn 0.707107 -0.707107 0
vn 0.383162 -0.923681 0
vn 0.284358 -0.677916 0.677916
vn 0 0 1
vn 0.000776395 -0.00232919 0.999997
vn -0.284751 0.677834 0.677834
vn -0.385288 0.922797 0
vn -0.284751 0.677834 -0.677834
vn 0.000776395 -0.00232919 -0.999997
vn 0 0 -1
vn 0.000776395 -0.00232919 -0.999997
vn 0.502519 -0.502519 -0.703526
vn 0.284358 -0.677916 -0.677916
vn 0.280182 -0.678785 -0.678785
vn -0.000399361 0.00119808 -0.999999
vn 0.000776395 0.00232919 -0.999997
vn -0.276785 0.679481 -0.679481
vn -0.2834 0.678117 -0.678117
vn 0.284164 -0.677957 -0.677957
vn -0.385523 0.922698 0
vn 0.386645 -0.922229 0
vn -0.344908 0.938637 0
vn 0.3639 -0.931438 0
vn 0.280182 -0.678785 0.678785
vn 0.284164 -0.677957 0.677957
vn -0.000399361 0.00119808 0.999999
vn 0.000776395 0.00232919 0.999997
vn -0.276785 0.679481 0.679481
vn -0.2834 0.678117 0.678117
vn -0.385523 0.922698 0
vn -0.344908 0.938637 0
vn -0.284751 0.677834 0.677834
vn -0.000399361 -0.00119808 0.999999
vn 0.000776395 -0.00232919 0.999997
vn -0.275101 0.679823 0.679823
vn 0.284358 -0.677916 0.677916
vn 0.268462 -0.681149 0.681149
vn -0.375826 0.92669 0
vn 0.365983 -0.930622 0
vn -0.385288 0.922797 0
vn 0.383162 -0.923681 0
vn 0.284358 -0.677916 -0.677916
vn 0.268462 -0.681149 -0.681149
vn -0.000399361 -0.00119808 -0.999999
vn 0.000776395 -0.00232919 -0.999997
vn -0.284751 0.677834 -0.677834
vn -0.275101 0.679823 -0.679823
vn -0.375826 0.92669 0
vn -0.385288 0.922797 0
vn 0.457496 -0.457496 -0.762493
vn -0.000399361 0.00119808 -0.999999
vn 0.284164 -0.677957 -0.677957
vn 0.386645 -0.922229 0
vn 0.707107 -0.707107 0
vn 0.457496 -0.457496 0.762493
vn 0.99942 -0.0340484 0
vn 0 0 -1
vn -0.000399361 0.00119808 -0.999999
vn 0.457496 -0.457496 -0.762493
vn 0.70709 -0.0068947 -0.70709
vn 0.70709 -0.0068947 0.70709
vn -0.502519 0.502519 -0.703526
vn -0.2834 0.678117 -0.678117
vn -0.385523 0.922698 0
vn -0.00576912 0.00192304 -0.999982
vn 0 0 -1
vn -0.00576912 0.00192304 -0.999982
vn -0.707107 0.707107 0
vn -0.00576912 0.00192304 0.999982
vn 0 0 1
vn -0.00576912 0.00192304 0.999982
vn -0.000399361 0.00119808 0.999999
vn 0 0 1
vn 0.284164 -0.677957 0.677957
vn -0.000399361 0.00119808 0.999999
vn -0.502519 0.502519 0.703526
vn -0.2834 0.678117 0.678117
vn -0.707062 0.0112709 -0.707062
vn -0.707062 0.0112709 0.707062
vn -0.998362 0.0572075 0
vn -0.998362 0.0572075 0
vn -0.707107 0.707107 0
vn -0.385523 0.922698 0
vn 0.999839 0.0179485 0
vn 0.70709 -0.0068947 -0.70709
vn 0.99942 -0.0340484 0
vn 0.707043 0.0133966 -0.707043
vn 0.70709 -0.0068947 0.70709
vn 0.707043 0.0133966 0.707043
vn -0.00309916 -0.00103305 -0.999995
vn -0.00576912 0.00192304 -0.999982
vn -0.00309916 -0.00103305 0.999995
vn -0.00576912 0.00192304 0.999982
vn -0.707062 0.0112709 -0.707062
vn -0.706943 -0.0215094 -0.706943
vn -0.707062 0.0112709 0.707062
vn -0.706943 -0.0215094 0.706943
vn -0.999509 -0.0313294 0
vn -0.998362 0.0572075 0
vn -0.999509 -0.0313294 0
vn -0.998362 0.0572075 0
vn 0.999839 0.0179485 0
vn 0.457496 0.457496 -0.762493
vn 0.707043 0.0133966 -0.707043
vn -0.00309916 -0.00103305 -0.999995
vn 0 0 -1
vn -0.00309916 -0.00103305 -0.999995
vn -0.502519 -0.502519 -0.703526
vn -0.706943 -0.0215094 -0.706943
vn -0.999509 -0.0313294 0
vn -0.707107 -0.707107 0
vn 0.707107 0.707107 0
vn 0.457496 0.457496 0.762493
vn 0.707043 0.0133966 0.707043
vn -0.00309916 -0.00103305 0.999995
vn -0.00309916 -0.00103305 0.999995
vn 0 0 1
vn 0 0 1
vn -0.000399361 -0.00119808 0.999999
vn -0.502519 -0.502519 0.703526
vn -0.000399361 -0.00119808 0.999999
vn 0.268462 -0.681149 0.681149
vn -0.706943 -0.0215094 0.706943
vn -0.999509 -0.0313294 0
vn -0.707107 -0.707107 0
vn -0.275101 0.679823 0.679823
vn 0.365983 -0.930622 0
vn -0.375826 0.92669 0
vn -0.275101 0.679823 -0.679823
vn 0.457496 0.457496 -0.762493
vn -0.000399361 -0.00119808 -0.999999
vn -0.000399361 -0.00119808 -0.999999
vn 0 0 -1
vn 0.268462 -0.681149 -0.681149
vn 0.365983 -0.930622 0
vn 0.519782 0.677977 -0.519782
vn 0.707107 0.707107 0
vn 0.894427 0.447214 0
vn 0.624695 0.468521 -0.624695
vn 0.5547 0.83205 0
vn 0.894427 0.447214 0
vn 0.707107 0.707107 0
vn 0.519782 0.677977 0.519782
vn 0.624695 0.468521 0.624695
vn 0.5547 0.83205 0
vn 0.376288 0.846649 -0.376288
vn 0 0.447214 -0.894427
vn 0 0.707107 -0.707107
vn 0.519782 0.677977 -0.519782
vn 0 0.83205 -0.5547
vn 0.376288 0.846649 -0.376288
vn 0 0.447214 0.894427
vn 0 0.707107 0.707107
vn 0.519782 0.677977 0.519782
vn 0 0.83205 0.5547
vn 0.376288 0.846649 0.376288
vn 0.376288 0.846649 0.376288
vn -0.519782 0.677977 -0.519782
vn -0.376288 0.846649 -0.376288
vn -0.5547 0.83205 0
vn -0.376288 0.846649 -0.376288
vn -0.519782 0.677977 0.519782
vn -0.624695 0.468521 -0.624695
vn -0.624695 0.468521 0.624695
vn -0.519782 0.677977 -0.519782
vn -0.707107 0.707107 0
vn -0.519782 0.677977 0.519782
vn -0.894427 0.447214 0
vn -0.376288 0.846649 0.376288
vn -0.5547 0.83205 0
vn -0.376288 0.846649 0.376288
vn 0.707107 0 -0.707107
vn 0.707107 0 -0.707107
vn 1 0 0
vn 1 0 0
vn 1 0 0
vn 0.707107 0 0.707107
vn 1 0 0
vn 0.707107 0 0.707107
vn 0 0 -1
vn 0 0 1
vn 0 0 -1
vn 0 0 1
vn -0.707107 0 -0.707107
vn -0.707107 0 -0.707107
vn -0.707107 0 0.707107
vn -0.707107 0 0.707107
vn -1 0 0
vn -1 0 0

g _0
usemtl textures/metal_vertex/vertex_aluminium
f 1/1/1 2/2/2 3/3/3
f 1/1/1 3/3/3 4/4/4
f 5/5/5 6/6/6 7/7/7
f 5/5/5 8/8/8 6/6/6
f 1/1/1 9/9/9 2/2/2
f 6/6/6 8/8/8 10/10/10
f 1/1/1 11/11/11 9/9/9
f 6/6/6 10/10/10 12/12/12
f 10/10/10 13/13/13 12/12/12
f 10/10/10 14/14/14 13/13/13
f 13/13/13 14/14/14 15/15/15
f 13/13/13 15/15/15 16/16/16
f 15/15/15 17/17/17 16/16/16
f 9/9/9 11/11/11 17/17/17
f 9/9/9 17/17/17 18/18/18
f 15/15/15 18/18/18 17/17/17
f 19/19/19 20/20/20 21/21/21
f 19/19/19 22/22/22 20/20/20
f 19/19/19 23/23/23 22/22/22
f 19/19/19 24/24/24 23/23/23
f 19/19/19 21/21/21 25/25/25
f 19/19/19 25/25/25 26/26/26
f 27/27/27 28/28/28 26/26/26
f 25/25/25 29/29/29 28/28/28
f 28/28/28 29/29/29 30/30/30
f 28/28/28 30/30/30 31/31/31
f 30/30/30 32/32/32 31/31/31
f 30/30/30 33/33/33 32/32/32
f 34/34/34 32/32/32 33/33/33
f 35/35/35 36/36/36 32/32/32
f 37/37/37 36/36/36 34/34/34
f 38/38/38 37/37/37 34/34/34
f 39/39/39 37/37/37 38/38/38
f 39/39/39 40/40/40 37/37/37
f 41/41/41 28/28/28 42/42/42
f 19/19/19 41/41/41 42/42/42
f 28/28/28 43/43/43 44/44/44
f 28/28/28 45/45/45 43/43/43
f 28/28/28 31/31/31 45/45/45
f 32/32/32 45/45/45 31/31/31
f 37/37/37 40/40/40 46/46/46
f 37/37/37 46/46/46 47/47/47
f 32/32/32 48/48/48 45/45/45
f 37/37/37 47/47/47 49/49/49
f 37/37/37 49/49/49 50/50/50
f 50/50/50 51/51/51 32/32/32
f 32/32/32 49/49/49 48/48/48
f 52/52/52 44/44/44 24/24/24
f 53/53/53 54/54/54 55/55/55
f 53/53/53 55/55/55 56/56/56
f 53/53/53 56/56/56 57/57/57
f 53/53/53 58/58/58 54/54/54
f 53/53/53 59/59/59 58/58/58
f 60/60/60 59/59/59 61/61/61
f 58/58/58 61/61/61 62/62/62
f 61/61/61 63/63/63 62/62/62
f 61/61/61 64/64/64 63/63/63
f 65/65/65 63/63/63 64/64/64
f 65/65/65 66/66/66 63/63/63
f 67/67/67 66/66/66 65/65/65
f 68/68/68 65/65/65 69/69/69
f 70/70/70 67/67/67 69/69/69
f 70/70/70 71/71/71 67/67/67
f 72/72/72 71/71/71 70/70/70
f 72/72/72 70/70/70 73/73/73
f 70/70/70 74/74/74 73/73/73
f 70/70/70 75/75/75 74/74/74
f 70/70/70 76/76/76 77/77/77
f 76/76/76 65/65/65 77/77/77
f 70/70/70 77/77/77 75/75/75
f 65/65/65 78/78/78 77/77/77
f 61/61/61 79/79/79 64/64/64
f 65/65/65 64/64/64 79/79/79
f 65/65/65 79/79/79 78/78/78
f 61/61/61 80/80/80 79/79/79
f 61/61/61 81/81/81 80/80/80
f 82/82/82 83/83/83 61/61/61
f 53/53/53 81/81/81 82/82/82
f 84/84/84 85/85/85 81/81/81
f 53/53/53 57/57/57 85/85/85
f 86/86/86 87/87/87 88/88/88
f 88/88/88 87/87/87 89/89/89
f 87/87/87 90/90/90 89/89/89
f 86/86/86 91/91/91 87/87/87
f 89/89/89 90/90/90 92/92/92
f 86/86/86 93/93/93 91/91/91
f 89/89/89 92/92/92 94/94/94
f 86/86/86 95/95/95 93/93/93
f 93/93/93 95/95/95 96/96/96
f 93/93/93 96/96/96 97/97/97
f 96/96/96 98/98/98 97/97/97
f 96/96/96 99/99/99 98/98/98
f 100/100/100 98/98/98 99/99/99
f 100/100/100 101/101/101 98/98/98
f 102/102/102 101/101/101 100/100/100
f 102/102/102 100/100/100 103/103/103
f 104/104/104 105/105/105 106/106/106
f 104/104/104 107/107/107 105/105/105
f 106/106/106 105/105/105 108/108/108
f 105/105/105 109/109/109 108/108/108
f 104/104/104 110/110/110 107/107/107
f 108/108/108 109/109/109 111/111/111
f 104/104/104 112/112/112 110/110/110
f 108/108/108 111/111/111 113/113/113
f 111/111/111 114/114/114 113/113/113
f 111/111/111 115/115/115 114/114/114
f 114/114/114 115/115/115 116/116/116
f 114/114/114 116/116/116 117/117/117
f 117/117/117 116/116/116 118/118/118
f 116/116/116 119/119/119 118/118/118
f 118/118/118 119/119/119 120/120/120
f 118/118/118 120/120/120 121/121/121
f 122/122/122 123/123/123 124/124/124
f 122/122/122 124/124/124 125/125/125
f 122/122/122 125/125/125 126/126/126
f 125/125/125 127/127/127 126/126/126
f 122/122/122 126/126/126 128/128/128
f 126/126/126 127/127/127 128/128/128
f 122/122/122 129/129/129 130/130/130
f 131/131/131 128/128/128 132/132/132
f 127/127/127 133/133/133 128/128/128
f 123/123/123 129/129/129 134/134/134
f 123/123/123 134/134/134 135/135/135
f 135/135/135 134/134/134 136/136/136
f 122/122/122 137/137/137 138/138/138
f 131/131/131 132/132/132 139/139/139
f 138/138/138 137/137/137 134/134/134
f 134/134/134 140/140/140 136/136/136
f 127/127/127 141/141/141 133/133/133
f 127/127/127 142/142/142 143/143/143
f 127/127/127 144/144/144 145/145/145
f 127/127/127 146/146/146 147/147/147
f 125/125/125 146/146/146 127/127/127
f 147/147/147 148/148/148 145/145/145
f 142/142/142 148/148/148 141/141/141
f 147/147/147 149/149/149 148/148/148
f 134/134/134 139/139/139 150/150/150
f 148/148/148 151/151/151 141/141/141
f 134/134/134 152/152/152 140/140/140
f 134/134/134 150/150/150 152/152/152
f 148/148/148 153/153/153 151/151/151
f 148/148/148 154/154/154 153/153/153
f 148/148/148 155/155/155 154/154/154
f 148/148/148 149/149/149 155/155/155
f 156/156/156 157/157/157 158/158/158
f 156/156/156 159/159/159 157/157/157
f 156/156/156 158/158/158 160/160/160
f 156/156/156 160/160/160 161/161/161
f 157/157/157 159/159/159 162/162/162
f 157/157/157 162/162/162 163/163/163
f 160/160/160 164/164/164 161/161/161
f 160/160/160 165/165/165 164/164/164
f 163/163/163 162/162/162 166/166/166
f 162/162/162 167/167/167 166/166/166
f 164/164/164 165/165/165 168/168/168
f 164/164/164 168/168/168 169/169/169
f 166/166/166 167/167/167 170/170/170
f 166/166/166 170/170/170 171/171/171
f 168/168/168 172/172/172 169/169/169
f 168/168/168 173/173/173 172/172/172
f 174/174/174 175/175/175 176/176/176
f 176/176/176 175/175/175 177/177/177
f 175/175/175 178/178/178 179/179/179
f 177/177/177 178/178/178 180/180/180
f 177/177/177 180/180/180 181/181/181
f 180/180/180 182/182/182 181/181/181
f 180/180/180 183/183/183 182/182/182
f 174/174/174 184/184/184 175/175/175
f 174/174/174 185/185/185 184/184/184
f 174/174/174 186/186/186 185/185/185
f 185/185/185 186/186/186 187/187/187
f 185/185/185 188/188/188 189/189/189
f 185/185/185 190/190/190 191/191/191
f 191/191/191 190/190/190 192/192/192
f 189/189/189 187/187/187 192/192/192
f 193/193/193 192/192/192 194/194/194
f 192/192/192 187/187/187 195/195/195
f 192/192/192 195/195/195 196/196/196
f 192/192/192 196/196/196 197/197/197
f 185/185/185 193/193/193 198/198/198
f 192/192/192 199/199/199 194/194/194
f 192/192/192 197/197/197 199/199/199
f 185/185/185 200/200/200 184/184/184
f 185/185/185 198/198/198 200/200/200
f 175/175/175 184/184/184 200/200/200
f 175/175/175 200/200/200 201/201/201
f 202/202/202 201/201/201 203/203/203
f 175/175/175 204/204/204 205/205/205
f 205/205/205 203/203/203 180/180/180
f 180/180/180 203/203/203 206/206/206
f 180/180/180 206/206/206 207/207/207
f 180/180/180 207/207/207 183/183/183

g _1
usemtl textures/metal_vertex/vertex_aluminium
f 208/208/208 209/209/209 210/210/210
f 208/208/208 210/210/210 211/211/211
f 208/208/208 212/212/212 209/209/209
f 213/213/213 214/214/214 215/215/215
f 213/213/213 215/215/215 216/216/216
f 215/215/215 214/214/214 217/217/217
f 208/208/208 218/218/218 212/212/212
f 208/208/208 211/211/211 219/219/219
f 208/208/208 219/219/219 220/220/220
f 221/221/221 220/220/220 222/222/222
f 208/208/208 222/222/222 223/223/223
f 215/215/215 224/224/224 216/216/216
f 215/215/215 225/225/225 224/224/224
f 226/226/226 227/227/227 225/225/225
f 215/215/215 228/228/228 227/227/227
f 215/215/215 217/217/217 229/229/229
f 219/219/219 230/230/230 220/220/220
f 220/220/220 230/230/230 222/222/222
f 222/222/222 230/230/230 231/231/231
f 230/230/230 232/232/232 233/233/233
f 227/227/227 234/234/234 225/225/225
f 225/225/225 234/234/234 224/224/224
f 219/219/219 235/235/235 230/230/230
f 224/224/224 234/234/234 236/236/236
f 237/237/237 238/238/238 232/232/232
f 232/232/232 238/238/238 239/239/239
f 230/230/230 235/235/235 240/240/240
f 230/230/230 240/240/240 238/238/238
f 239/239/239 238/238/238 240/240/240
f 234/234/234 240/240/240 236/236/236
f 227/227/227 241/241/241 234/234/234
f 242/242/242 234/234/234 243/243/243

g _2
usemtl textures/metal_vertex/vertex_aluminium
f 244/244/244 245/245/245 246/246/246
f 244/244/244 246/246/246 247/247/247
f 248/248/248 249/249/249 250/250/250
f 248/248/248 251/251/251 249/249/249
f 244/244/244 252/252/252 245/245/245
f 249/249/249 251/251/251 253/253/253
f 244/244/244 254/254/254 252/252/252
f 249/249/249 253/253/253 255/255/255
f 252/252/252 254/254/254 256/256/256
f 252/252/252 256/256/256 257/257/257
f 253/253/253 258/258/258 255/255/255
f 253/253/253 259/259/259 258/258/258
f 256/256/256 260/260/260 257/257/257
f 258/258/258 259/259/259 260/260/260
f 258/258/258 260/260/260 261/261/261
f 256/256/256 261/261/261 260/260/260
