# Blender 5.0.1
# www.blender.org
mtllib bench.mtl
o Bench_Bench_Mat_0
v 1.710177 -16.066767 -9.432177
v 1.710177 2.309803 -9.432177
v -1.790803 2.309803 -9.414183
v -1.790803 -16.066767 -9.414183
v -1.808797 -16.066767 -12.915162
v 1.692183 2.079966 -12.933156
v 1.692183 -16.066767 -12.933156
v -1.808797 2.079966 -12.915162
v -57.991291 32.697536 -16.699579
v 57.832806 32.697536 -17.294891
v -57.982372 32.928074 -14.964336
v 57.841724 32.928074 -15.559649
v -1.799906 2.309803 -11.185224
v 1.827705 2.309803 13.434088
v -1.673275 2.309803 13.452082
v 1.701074 2.309803 -11.203218
v 61.079815 2.309803 -9.960877
v 61.190994 2.309803 11.670193
v 59.440506 2.309803 11.679190
v 59.329327 2.309803 -9.951880
v -61.051559 2.309803 12.298494
v -61.162739 2.309803 -9.332576
v -59.301071 2.309803 12.289497
v -59.412251 2.309803 -9.341573
v 1.836702 -16.066767 15.184578
v 1.836702 2.309803 15.184578
v -1.664278 2.309803 15.202572
v -1.664278 -16.066767 15.202572
v 1.836702 2.309803 15.184578
v 1.836702 -16.066767 15.184578
v 1.818708 -16.066767 11.683598
v 1.818708 2.309803 11.683598
v -1.682272 2.309803 11.701591
v -1.682272 -16.066767 11.701591
v -1.664278 2.309803 15.202572
v -1.664278 -16.066767 15.202572
v -1.682272 -16.066767 11.701591
v 1.818708 2.309803 11.683598
v 1.818708 -16.066767 11.683598
v -1.682272 2.309803 11.701591
v -57.961464 2.309803 -10.896564
v 57.853714 2.079262 -13.227119
v 57.862633 2.309803 -11.491877
v -57.970383 2.079262 -12.631807
v 57.859104 7.477509 -12.178429
v -57.973911 7.246967 -13.318359
v -57.964993 7.477509 -11.583117
v 57.850185 7.246967 -13.913671
v -57.961464 2.309803 -10.896564
v 57.862633 2.309803 -11.491877
v -57.964993 7.477509 -11.583117
v 57.859104 7.477509 -12.178429
v -57.970383 2.079262 -12.631807
v 57.850185 7.246967 -13.913671
v 57.853714 2.079262 -13.227119
v -57.973911 7.246967 -13.318359
v 0.542818 -10.787696 -9.497249
v 0.653214 -10.787696 11.981344
v -0.513780 -10.787696 11.987343
v -0.624175 -10.787696 -9.491250
v -60.759811 -10.787696 12.296994
v -60.870209 -10.787696 -9.181599
v -59.592819 -10.787696 12.290997
v -59.703217 -10.787696 -9.187596
v 0.653214 -7.870173 11.981344
v 0.542818 -7.870173 -9.497249
v -0.513780 -7.870173 11.987343
v -0.624175 -7.870173 -9.491250
v 0.653214 -10.787696 11.981344
v 0.542818 -10.787696 -9.497249
v 0.653214 -7.870173 11.981344
v 0.542818 -7.870173 -9.497249
v -60.870209 -7.870173 -9.181599
v -60.759811 -7.870173 12.296994
v -59.592819 -7.870173 12.290997
v -59.703217 -7.870173 -9.187596
v -0.513780 -7.870173 11.987343
v -0.624175 -7.870173 -9.491250
v -0.513780 -10.787696 11.987343
v -0.624175 -10.787696 -9.491250
v 60.788849 -10.787696 -9.806901
v 60.899246 -10.787696 11.671692
v 59.732254 -10.787696 11.677691
v 59.621857 -10.787696 -9.800902
v -60.870209 -10.787696 -9.181599
v -60.759811 -10.787696 12.296994
v -60.759811 -7.870173 12.296994
v -60.870209 -7.870173 -9.181599
v 60.899246 -7.870173 11.671692
v 60.788849 -7.870173 -9.806901
v 59.732254 -7.870173 11.677691
v 59.621857 -7.870173 -9.800902
v 60.899246 -10.787696 11.671692
v 60.788849 -10.787696 -9.806901
v 60.899246 -7.870173 11.671692
v 60.788849 -7.870173 -9.806901
v -59.592819 -10.787696 12.290997
v -59.703217 -7.870173 -9.187596
v -59.592819 -7.870173 12.290997
v -59.703217 -10.787696 -9.187596
v 59.732254 -7.870173 11.677691
v 59.621857 -7.870173 -9.800902
v 59.732254 -10.787696 11.677691
v 59.621857 -10.787696 -9.800902
v -56.035755 7.288948 -13.031423
v -51.750107 32.732483 -16.450129
v -52.536499 7.178869 -13.049408
v -55.249359 32.842560 -16.432144
v -51.739334 32.886101 -15.293324
v -52.536499 7.178869 -13.049408
v -51.750107 32.732483 -16.450129
v -52.525726 7.332487 -11.892604
v -55.238583 32.996178 -15.275339
v -52.525726 7.332487 -11.892604
v -51.739334 32.886101 -15.293324
v -56.024975 7.442566 -11.874619
v -55.238583 32.996178 -15.275339
v -56.035755 7.288948 -13.031423
v -56.024975 7.442566 -11.874619
v -55.249359 32.842560 -16.432144
v -48.456078 7.227549 -13.070380
v -44.972561 32.793800 -16.484962
v -44.955101 7.227549 -13.088374
v -48.473537 32.793800 -16.466969
v -44.966614 32.947495 -15.328135
v -44.955101 7.227549 -13.088374
v -44.972561 32.793800 -16.484962
v -44.949154 7.381241 -11.931545
v -48.467590 32.947495 -15.310140
v -44.949154 7.381241 -11.931545
v -44.966614 32.947495 -15.328135
v -48.450130 7.381241 -11.913551
v -48.467590 32.947495 -15.310140
v -48.456078 7.227549 -13.070380
v -48.450130 7.381241 -11.913551
v -48.473537 32.793800 -16.466969
v -41.279888 7.227549 -13.107265
v -37.796368 32.793800 -16.521847
v -37.778908 7.227549 -13.125258
v -41.297348 32.793800 -16.503851
v -37.790421 32.947495 -15.365018
v -37.778908 7.227549 -13.125258
v -37.796368 32.793800 -16.521847
v -37.772961 7.381241 -11.968430
v -41.291401 32.947495 -15.347024
v -37.772961 7.381241 -11.968430
v -37.790421 32.947495 -15.365018
v -41.273941 7.381241 -11.950436
v -41.291401 32.947495 -15.347024
v -41.279888 7.227549 -13.107265
v -41.273941 7.381241 -11.950436
v -41.297348 32.793800 -16.503851
v -34.103695 7.227549 -13.144149
v -30.620171 32.793800 -16.558731
v -30.602713 7.227549 -13.162143
v -34.121155 32.793800 -16.540735
v -30.614225 32.947495 -15.401902
v -30.602713 7.227549 -13.162143
v -30.620171 32.793800 -16.558731
v -30.596767 7.381241 -12.005314
v -34.115208 32.947495 -15.383908
v -30.596767 7.381241 -12.005314
v -30.614225 32.947495 -15.401902
v -34.097748 7.381241 -11.987320
v -34.115208 32.947495 -15.383908
v -34.103695 7.227549 -13.144149
v -34.097748 7.381241 -11.987320
v -34.121155 32.793800 -16.540735
v -26.927502 7.227549 -13.181033
v -23.443979 32.793800 -16.595615
v -23.426521 7.227549 -13.199027
v -26.944960 32.793800 -16.577620
v -23.438034 32.947495 -15.438787
v -23.426521 7.227549 -13.199027
v -23.443979 32.793800 -16.595615
v -23.420576 7.381241 -12.042198
v -26.939014 32.947495 -15.420793
v -23.420576 7.381241 -12.042198
v -23.438034 32.947495 -15.438787
v -26.921556 7.381241 -12.024204
v -26.939014 32.947495 -15.420793
v -26.927502 7.227549 -13.181033
v -26.921556 7.381241 -12.024204
v -26.944960 32.793800 -16.577620
v -19.213984 7.165781 -13.220678
v -16.798704 32.855709 -16.629772
v -15.716047 7.311653 -13.238657
v -20.296644 32.709839 -16.611794
v -16.799164 33.009262 -15.472910
v -15.716047 7.311653 -13.238657
v -16.798704 32.855709 -16.629772
v -15.716504 7.465210 -12.081796
v -20.297102 32.863396 -15.454931
v -15.716504 7.465210 -12.081796
v -16.799164 33.009262 -15.472910
v -19.214441 7.319342 -12.063817
v -20.297102 32.863396 -15.454931
v -19.213984 7.165781 -13.220678
v -19.214441 7.319342 -12.063817
v -20.296644 32.709839 -16.611794
v -12.575117 7.227549 -13.254801
v -9.091594 32.793800 -16.669382
v -9.074137 7.227549 -13.272796
v -12.592574 32.793800 -16.651388
v -9.085649 32.947495 -15.512555
v -9.074137 7.227549 -13.272796
v -9.091594 32.793800 -16.669382
v -9.068191 7.381241 -12.115967
v -12.586629 32.947495 -15.494560
v -9.068191 7.381241 -12.115967
v -9.085649 32.947495 -15.512555
v -12.569171 7.381241 -12.097972
v -12.586629 32.947495 -15.494560
v -12.575117 7.227549 -13.254801
v -12.569171 7.381241 -12.097972
v -12.592574 32.793800 -16.651388
v -5.398923 7.227549 -13.291685
v -1.915401 32.793800 -16.706266
v -1.897944 7.227549 -13.309679
v -5.416381 32.793800 -16.688272
v -1.909456 32.947495 -15.549439
v -1.897944 7.227549 -13.309679
v -1.915401 32.793800 -16.706266
v -1.891998 7.381241 -12.152850
v -5.410436 32.947495 -15.531445
v -1.891998 7.381241 -12.152850
v -1.909456 32.947495 -15.549439
v -5.392978 7.381241 -12.134856
v -5.410436 32.947495 -15.531445
v -5.398923 7.227549 -13.291685
v -5.392978 7.381241 -12.134856
v -5.416381 32.793800 -16.688272
v 1.777269 7.227549 -13.328569
v 5.260791 32.793800 -16.743151
v 5.278249 7.227549 -13.346563
v 1.759811 32.793800 -16.725157
v 5.266736 32.947495 -15.586323
v 5.278249 7.227549 -13.346563
v 5.260791 32.793800 -16.743151
v 5.284194 7.381241 -12.189734
v 1.765757 32.947495 -15.568329
v 5.284194 7.381241 -12.189734
v 5.266736 32.947495 -15.586323
v 1.783215 7.381241 -12.171741
v 1.765757 32.947495 -15.568329
v 1.777269 7.227549 -13.328569
v 1.783215 7.381241 -12.171741
v 1.759811 32.793800 -16.725157
v 8.549984 7.288948 -13.363379
v 12.835630 32.732483 -16.782085
v 12.049233 7.178869 -13.381365
v 9.336381 32.842560 -16.764101
v 12.846408 32.886101 -15.625282
v 12.049233 7.178869 -13.381365
v 12.835630 32.732483 -16.782085
v 12.060012 7.332485 -12.224561
v 9.347158 32.996178 -15.607297
v 12.060012 7.332485 -12.224561
v 12.846408 32.886101 -15.625282
v 8.560762 7.442566 -12.206575
v 9.347158 32.996178 -15.607297
v 8.549984 7.288948 -13.363379
v 8.560762 7.442566 -12.206575
v 9.336381 32.842560 -16.764101
v 16.129654 7.227549 -13.402337
v 19.613174 32.793800 -16.816919
v 19.630632 7.227549 -13.420332
v 16.112196 32.793800 -16.798925
v 19.619120 32.947495 -15.660091
v 19.630632 7.227549 -13.420332
v 19.613174 32.793800 -16.816919
v 19.636578 7.381241 -12.263503
v 16.118141 32.947495 -15.642097
v 19.636578 7.381241 -12.263503
v 19.619120 32.947495 -15.660091
v 16.135599 7.381241 -12.245508
v 16.118141 32.947495 -15.642097
v 16.129654 7.227549 -13.402337
v 16.135599 7.381241 -12.245508
v 16.112196 32.793800 -16.798925
v 23.305847 7.227549 -13.439221
v 26.789370 32.793800 -16.853804
v 26.806828 7.227549 -13.457216
v 23.288389 32.793800 -16.835810
v 26.795315 32.947495 -15.696976
v 26.806828 7.227549 -13.457216
v 26.789370 32.793800 -16.853804
v 26.812773 7.381241 -12.300387
v 23.294334 32.947495 -15.678981
v 26.812773 7.381241 -12.300387
v 26.795315 32.947495 -15.696976
v 23.311792 7.381241 -12.282393
v 23.294334 32.947495 -15.678981
v 23.305847 7.227549 -13.439221
v 23.311792 7.381241 -12.282393
v 23.288389 32.793800 -16.835810
v 30.482038 7.227549 -13.476106
v 33.965561 32.793800 -16.890688
v 33.983021 7.227549 -13.494101
v 30.464581 32.793800 -16.872694
v 33.971508 32.947495 -15.733860
v 33.983021 7.227549 -13.494101
v 33.965561 32.793800 -16.890688
v 33.988968 7.381241 -12.337272
v 30.470526 32.947495 -15.715865
v 33.988968 7.381241 -12.337272
v 33.971508 32.947495 -15.733860
v 30.487984 7.381241 -12.319277
v 30.470526 32.947495 -15.715865
v 30.482038 7.227549 -13.476106
v 30.487984 7.381241 -12.319277
v 30.464581 32.793800 -16.872694
v 36.884693 7.356764 -13.509014
v 41.906017 32.664867 -16.931503
v 40.379280 7.145298 -13.526976
v 38.411430 32.876335 -16.913542
v 41.921249 32.818291 -15.774721
v 40.379280 7.145298 -13.526976
v 41.906017 32.664867 -16.931503
v 40.394508 7.298712 -12.370194
v 38.426662 33.029755 -15.756761
v 40.394508 7.298712 -12.370194
v 41.921249 32.818291 -15.774721
v 36.899921 7.510176 -12.352233
v 38.426662 33.029755 -15.756761
v 36.884693 7.356764 -13.509014
v 36.899921 7.510176 -12.352233
v 38.411430 32.876335 -16.913542
v 44.834427 7.227549 -13.549874
v 48.317944 32.793800 -16.964457
v 48.335403 7.227549 -13.567868
v 44.816967 32.793800 -16.946461
v 48.323891 32.947495 -15.807628
v 48.335403 7.227549 -13.567868
v 48.317944 32.793800 -16.964457
v 48.341351 7.381241 -12.411039
v 44.822914 32.947495 -15.789634
v 48.341351 7.381241 -12.411039
v 48.323891 32.947495 -15.807628
v 44.840374 7.381241 -12.393045
v 44.822914 32.947495 -15.789634
v 44.834427 7.227549 -13.549874
v 44.840374 7.381241 -12.393045
v 44.816967 32.793800 -16.946461
v 52.010616 7.227549 -13.586759
v 55.494137 32.793800 -17.001341
v 55.511597 7.227549 -13.604753
v 51.993156 32.793800 -16.983345
v 55.500084 32.947495 -15.844512
v 55.511597 7.227549 -13.604753
v 55.494137 32.793800 -17.001341
v 55.517544 7.381241 -12.447924
v 51.999104 32.947495 -15.826518
v 55.517544 7.381241 -12.447924
v 55.500084 32.947495 -15.844512
v 52.016563 7.381241 -12.429930
v 51.999104 32.947495 -15.826518
v 52.010616 7.227549 -13.586759
v 52.016563 7.381241 -12.429930
v 51.993156 32.793800 -16.983345
v -57.819633 6.066528 16.697886
v 58.004463 6.066528 16.102575
v -57.819633 7.233538 16.697886
v 58.004463 7.233538 16.102575
v -57.837627 6.066528 13.196907
v 57.986469 6.066528 12.601595
v -57.819633 6.066528 16.697886
v 58.004463 6.066528 16.102575
v -57.837627 6.066528 13.196907
v 57.986469 7.233538 12.601595
v 57.986469 6.066528 12.601595
v -57.837627 7.233538 13.196907
v 58.004463 7.233538 16.102575
v -57.837627 7.233538 13.196907
v -57.819633 7.233538 16.697886
v 57.986469 7.233538 12.601595
v -62.510265 5.873602 12.313406
v 62.649776 5.873602 11.670109
v -62.510700 7.037548 12.228901
v 62.649342 7.037548 11.585604
v -62.510700 7.037548 12.228901
v -62.528214 5.620083 8.821618
v -62.510265 5.873602 12.313406
v -62.528648 6.784029 8.737112
v -62.528214 5.620083 8.821618
v 62.631393 6.784029 8.093815
v 62.631828 5.620083 8.178321
v -62.528648 6.784029 8.737112
v 62.649776 5.873602 11.670109
v 62.631828 5.620083 8.178321
v 62.649342 7.037548 11.585604
v 62.631393 6.784029 8.093815
v -62.528214 5.620083 8.821618
v 62.631828 5.620083 8.178321
v -62.510265 5.873602 12.313406
v 62.649776 5.873602 11.670109
v 62.649342 7.037548 11.585604
v -62.528648 6.784029 8.737112
v -62.510700 7.037548 12.228901
v 62.631393 6.784029 8.093815
v -62.533459 5.482460 7.801185
v 62.626583 5.482460 7.157888
v -62.533634 6.648970 7.766957
v 62.626408 6.648970 7.123661
v -62.533634 6.648970 7.766957
v -62.551445 5.379778 4.301711
v -62.533459 5.482460 7.801185
v -62.551620 6.546284 4.267483
v -62.551445 5.379778 4.301711
v 62.608421 6.546284 3.624187
v 62.608597 5.379778 3.658414
v -62.551620 6.546284 4.267483
v 62.626583 5.482460 7.157888
v 62.608597 5.379778 3.658414
v 62.626408 6.648970 7.123661
v 62.608421 6.546284 3.624187
v -62.551445 5.379778 4.301711
v 62.608597 5.379778 3.658414
v -62.533459 5.482460 7.801185
v 62.626583 5.482460 7.157888
v 62.626408 6.648970 7.123661
v -62.551620 6.546284 4.267483
v -62.533634 6.648970 7.766957
v 62.608421 6.546284 3.624187
v -62.556587 5.350412 3.300967
v 62.603455 5.350412 2.657670
v -62.556763 6.516920 3.266739
v 62.603279 6.516920 2.623442
v -62.556763 6.516920 3.266739
v -62.574574 5.247730 -0.198508
v -62.556587 5.350412 3.300967
v -62.574749 6.414236 -0.232735
v -62.574574 5.247730 -0.198508
v 62.585293 6.414236 -0.876032
v 62.585468 5.247730 -0.841804
v -62.574749 6.414236 -0.232735
v 62.603455 5.350412 2.657670
v 62.585468 5.247730 -0.841804
v 62.603279 6.516920 2.623442
v 62.585293 6.414236 -0.876032
v -62.574574 5.247730 -0.198508
v 62.585468 5.247730 -0.841804
v -62.556587 5.350412 3.300967
v 62.603455 5.350412 2.657670
v 62.603279 6.516920 2.623442
v -62.574749 6.414236 -0.232735
v -62.556763 6.516920 3.266739
v 62.585293 6.414236 -0.876032
v -62.579933 5.396399 -1.240857
v 62.580109 5.396399 -1.884153
v -62.579666 6.562265 -1.189222
v 62.580376 6.562265 -1.832519
v -62.579666 6.562265 -1.189222
v -62.597645 6.717171 -4.686774
v -62.579933 5.396399 -1.240857
v -62.597908 5.551306 -4.738408
v -62.597908 5.551306 -4.738408
v 62.562397 6.717171 -5.330070
v 62.562134 5.551306 -5.381705
v -62.597645 6.717171 -4.686774
v 62.580109 5.396399 -1.884153
v 62.562397 6.717171 -5.330070
v 62.580376 6.562265 -1.832519
v 62.562134 5.551306 -5.381705
v -62.597908 5.551306 -4.738408
v 62.562134 5.551306 -5.381705
v -62.579933 5.396399 -1.240857
v 62.580109 5.396399 -1.884153
v 62.580376 6.562265 -1.832519
v -62.597645 6.717171 -4.686774
v -62.579666 6.562265 -1.189222
v 62.562397 6.717171 -5.330070
v -62.603050 5.595604 -5.738603
v 62.556992 5.595604 -6.381899
v -62.602783 6.761471 -5.686968
v 62.557259 6.761471 -6.330265
v -62.602783 6.761471 -5.686968
v -62.620762 6.916374 -9.184520
v -62.603050 5.595604 -5.738603
v -62.621025 5.750507 -9.236154
v -62.621025 5.750507 -9.236154
v 62.539280 6.916374 -9.827817
v 62.539017 5.750507 -9.879451
v -62.620762 6.916374 -9.184520
v 62.556992 5.595604 -6.381899
v 62.539280 6.916374 -9.827817
v 62.557259 6.761471 -6.330265
v 62.539017 5.750507 -9.879451
v -62.621025 5.750507 -9.236154
v 62.539017 5.750507 -9.879451
v -62.603050 5.595604 -5.738603
v 62.556992 5.595604 -6.381899
v 62.557259 6.761471 -6.330265
v -62.620762 6.916374 -9.184520
v -62.602783 6.761471 -5.686968
v 62.539280 6.916374 -9.827817
v -5.821045 0.630081 14.932181
v -7.500745 2.309803 14.940814
v -5.827043 0.630081 13.765188
v -7.506742 2.309803 13.773821
v -3.345478 -1.845519 14.919457
v -1.671776 -3.525242 13.743831
v -1.665778 -3.525242 14.910824
v -3.351476 -1.845519 13.752464
v 52.155792 2.309803 13.467168
v 53.841492 0.630081 14.625528
v 52.161793 2.309803 14.634161
v 53.835491 0.630081 13.458535
v 57.996761 -3.525242 14.604171
v 56.317062 -1.845519 14.612804
v 56.311062 -1.845519 13.445811
v 57.990761 -3.525242 13.437178
v -53.672066 0.630081 15.178125
v -51.998367 2.309803 14.002499
v -51.992367 2.309803 15.169492
v -53.678066 0.630081 14.011132
v -56.147636 -1.845519 15.190849
v -57.827335 -3.525242 15.199483
v -56.153637 -1.845519 14.023856
v -57.833336 -3.525242 14.032490
v 7.670169 2.309803 14.862839
v 5.990469 0.630081 14.871472
v 5.984471 0.630081 13.704479
v 7.664171 2.309803 13.695846
v 1.835202 -3.525242 14.892830
v 1.829204 -3.525242 13.725837
v 3.514902 -1.845519 14.884196
v 3.508904 -1.845519 13.717203
v 62.688606 20.549110 19.225105
v 62.525925 20.549110 -12.426571
v 58.020634 20.549110 19.249096
v 57.857952 20.549110 -12.402578
v 58.020634 20.549110 19.249096
v 57.858963 19.090347 -12.205974
v 58.020634 19.090347 19.249096
v 57.857952 20.549110 -12.402578
v 58.020634 20.549110 19.249096
v 62.688606 19.090347 19.225105
v 62.688606 20.549110 19.225105
v 58.020634 19.090347 19.249096
v 62.688606 19.090347 19.225105
v 62.526936 19.090347 -12.229966
v 62.688606 20.549110 19.225105
v 62.525925 20.549110 -12.426571
v -62.471436 19.090347 19.868401
v -62.633106 19.090347 -11.586669
v -57.803463 19.090347 19.844408
v -57.965134 19.090347 -11.610662
v 62.526936 19.090347 -12.229966
v 62.688606 19.090347 19.225105
v 58.020634 19.090347 19.249096
v 57.858963 19.090347 -12.205974
v -57.803463 20.549110 19.844408
v -62.634117 20.549110 -11.783274
v -62.471436 20.549110 19.868401
v -57.966145 20.549110 -11.807266
v -57.803463 20.549110 19.844408
v -57.965134 19.090347 -11.610662
v -57.966145 20.549110 -11.807266
v -57.803463 19.090347 19.844408
v -57.803463 20.549110 19.844408
v -62.471436 20.549110 19.868401
v -62.471436 19.090347 19.868401
v -57.803463 19.090347 19.844408
v -62.633106 19.090347 -11.586669
v -62.471436 19.090347 19.868401
v -62.471436 20.549110 19.868401
v -62.634117 20.549110 -11.783274
v 57.998260 6.650034 14.895919
v -57.834835 6.650034 13.740741
v -57.825836 6.650034 15.491231
v 57.989262 6.650034 13.145429
v -57.825836 2.309803 15.491231
v 57.998260 2.309803 14.895919
v -57.825836 6.650034 15.491231
v 57.998260 6.650034 14.895919
v -57.834835 2.309803 13.740741
v 57.989262 2.309803 13.145429
v -57.825836 2.309803 15.491231
v 57.998260 2.309803 14.895919
v -57.834835 6.650034 13.740741
v 57.989262 6.650034 13.145429
v -57.834835 2.309803 13.740741
v 57.989262 2.309803 13.145429
v 1.692183 -16.066767 -12.933156
v 1.692183 2.079966 -12.933156
v 1.710177 -16.066767 -9.432177
v 1.701074 2.309803 -11.203218
v 1.710177 2.309803 -9.432177
v -1.790803 2.309803 -9.414183
v -1.799906 2.309803 -11.185224
v -1.790803 -16.066767 -9.414183
v -1.808797 2.079966 -12.915162
v -1.808797 -16.066767 -12.915162
v 1.698732 5.740402 -11.658987
v 1.730032 5.573454 -5.569151
v 1.701074 2.309803 -11.203218
v 1.753258 5.322063 -1.050328
v 1.827705 2.309803 13.434088
v 1.776495 5.365093 3.470693
v 1.799676 5.551271 7.980756
v 1.820207 5.851238 11.975347
v 1.827705 5.851238 13.434088
v -1.770948 5.573454 -5.551157
v -1.802248 5.740402 -11.640993
v -1.799906 2.309803 -11.185224
v -1.747722 5.322063 -1.032333
v -1.673275 2.309803 13.452082
v -1.724485 5.365093 3.488687
v -1.701304 5.551271 7.998750
v -1.680773 5.851238 11.993340
v -1.673275 5.851238 13.452082
v 61.077438 5.740402 -10.423235
v 61.100819 5.573454 -5.874304
v 61.079815 2.309803 -9.960877
v 61.124046 5.322063 -1.355481
v 61.190994 2.309803 11.670193
v 61.147282 5.365093 3.165540
v 61.170464 5.551271 7.675602
v 61.190994 5.851238 11.670193
v 59.350330 5.573454 -5.865307
v 59.326950 5.740402 -10.414238
v 59.329327 2.309803 -9.951880
v 59.373558 5.322063 -1.346484
v 59.440506 2.309803 11.679190
v 59.396793 5.365093 3.174537
v 59.419975 5.551271 7.684599
v 59.440506 5.851238 11.679190
v -61.141735 5.573454 -5.246003
v -61.165115 5.740402 -9.794933
v -61.162739 2.309803 -9.332576
v -61.118507 5.322063 -0.727180
v -61.051559 2.309803 12.298494
v -61.095272 5.365093 3.793841
v -61.072090 5.551271 8.303904
v -61.051559 5.851238 12.298494
v -59.414627 5.740402 -9.803930
v -59.391247 5.573454 -5.255000
v -59.412251 2.309803 -9.341573
v -59.368019 5.322063 -0.736177
v -59.301071 2.309803 12.289497
v -59.344784 5.365093 3.784844
v -59.321602 5.551271 8.294907
v -59.301071 5.851238 12.289497
v 57.990761 -3.525242 13.437178
v 56.311062 -1.845519 13.445811
v 56.578453 -1.246456 13.444437
v 57.990761 2.309803 13.437178
v 56.442532 -0.476244 13.445135
v 55.939724 0.258740 13.447720
v 55.204750 0.761557 13.451497
v 54.434547 0.897476 13.455456
v 52.155792 2.309803 13.467168
v 53.835491 0.630081 13.458535
v 52.161793 2.309803 14.634161
v 53.841492 0.630081 14.625528
v 54.440548 0.897476 14.622449
v 57.996761 2.309803 14.604171
v 55.210751 0.761557 14.618490
v 55.945724 0.258740 14.614713
v 56.448532 -0.476244 14.612128
v 56.584454 -1.246456 14.611430
v 57.996761 -3.525242 14.604171
v 56.317062 -1.845519 14.612804
v 56.311062 -1.845519 13.445811
v 56.317062 -1.845519 14.612804
v 56.584454 -1.246456 14.611430
v 56.578453 -1.246456 13.444437
v 56.448532 -0.476244 14.612128
v 56.442532 -0.476244 13.445135
v 55.945724 0.258740 14.614713
v 55.939724 0.258740 13.447720
v 55.210751 0.761557 14.618490
v 55.204750 0.761557 13.451497
v 54.440548 0.897476 14.622449
v 54.434547 0.897476 13.455456
v 53.841492 0.630081 14.625528
v 53.835491 0.630081 13.458535
v -5.821045 0.630081 14.932181
v -5.827043 0.630081 13.765188
v -5.221989 0.897476 14.929102
v -5.227987 0.897476 13.762109
v -4.451787 0.761557 14.925143
v -4.457785 0.761557 13.758150
v -3.716813 0.258740 14.921366
v -3.722811 0.258740 13.754373
v -3.214003 -0.476244 14.918781
v -3.220001 -0.476244 13.751788
v -3.078085 -1.246456 14.918083
v -3.084083 -1.246456 13.751090
v -3.345478 -1.845519 14.919457
v -3.351476 -1.845519 13.752464
v -56.153637 -1.845519 14.023856
v -57.833336 -3.525242 14.032490
v -56.421028 -1.246456 14.025230
v -57.833336 2.309803 14.032490
v -56.285107 -0.476244 14.024532
v -55.782299 0.258740 14.021948
v -55.047325 0.761557 14.018170
v -54.277122 0.897476 14.014212
v -51.998367 2.309803 14.002499
v -53.678066 0.630081 14.011132
v -53.672066 0.630081 15.178125
v -51.992367 2.309803 15.169492
v -54.271122 0.897476 15.181205
v -57.827335 2.309803 15.199483
v -55.041325 0.761557 15.185163
v -55.776299 0.258740 15.188941
v -56.279106 -0.476244 15.191525
v -56.415028 -1.246456 15.192224
v -57.827335 -3.525242 15.199483
v -56.147636 -1.845519 15.190849
v -56.147636 -1.845519 15.190849
v -56.153637 -1.845519 14.023856
v -56.415028 -1.246456 15.192224
v -56.421028 -1.246456 14.025230
v -56.279106 -0.476244 15.191525
v -56.285107 -0.476244 14.024532
v -55.776299 0.258740 15.188941
v -55.782299 0.258740 14.021948
v -55.041325 0.761557 15.185163
v -55.047325 0.761557 14.018170
v -54.271122 0.897476 15.181205
v -54.277122 0.897476 14.014212
v -53.672066 0.630081 15.178125
v -53.678066 0.630081 14.011132
v 1.835202 -3.525242 14.892830
v 3.514902 -1.845519 14.884196
v 3.247510 -1.246456 14.885571
v 1.835202 2.309803 14.892830
v 3.383428 -0.476244 14.884872
v 3.886237 0.258740 14.882288
v 4.621211 0.761557 14.878510
v 5.391414 0.897476 14.874552
v 7.670169 2.309803 14.862839
v 5.990469 0.630081 14.871472
v 7.664171 2.309803 13.695846
v 5.984471 0.630081 13.704479
v 5.385415 0.897476 13.707559
v 1.829204 2.309803 13.725837
v 4.615213 0.761557 13.711517
v 3.880239 0.258740 13.715295
v 3.377430 -0.476244 13.717879
v 3.241512 -1.246456 13.718577
v 1.829204 -3.525242 13.725837
v 3.508904 -1.845519 13.717203
v 5.984471 0.630081 13.704479
v 5.990469 0.630081 14.871472
v 5.391414 0.897476 14.874552
v 5.385415 0.897476 13.707559
v 4.621211 0.761557 14.878510
v 4.615213 0.761557 13.711517
v 3.886237 0.258740 14.882288
v 3.880239 0.258740 13.715295
v 3.383428 -0.476244 14.884872
v 3.377430 -0.476244 13.717879
v 3.247510 -1.246456 14.885571
v 3.241512 -1.246456 13.718577
v 3.514902 -1.845519 14.884196
v 3.508904 -1.845519 13.717203
v -3.345478 -1.845519 14.919457
v -1.665778 -3.525242 14.910824
v -3.078085 -1.246456 14.918083
v -1.665778 2.309803 14.910824
v -3.214003 -0.476244 14.918781
v -3.716813 0.258740 14.921366
v -4.451787 0.761557 14.925143
v -5.221989 0.897476 14.929102
v -7.500745 2.309803 14.940814
v -5.821045 0.630081 14.932181
v -5.827043 0.630081 13.765188
v -7.506742 2.309803 13.773821
v -5.227987 0.897476 13.762109
v -1.671776 2.309803 13.743831
v -4.457785 0.761557 13.758150
v -3.722811 0.258740 13.754373
v -3.220001 -0.476244 13.751788
v -3.084083 -1.246456 13.751090
v -1.671776 -3.525242 13.743831
v -3.351476 -1.845519 13.752464
v 57.841724 32.928074 -15.559649
v -57.985077 36.890266 -15.490730
v -57.982372 32.928074 -14.964336
v 57.839020 36.890266 -16.086042
v -57.986305 37.193634 -15.729299
v 57.837791 37.193634 -16.324612
v -57.988815 37.267525 -16.217768
v 57.835281 37.267525 -16.813080
v -57.990894 37.213730 -16.622658
v 57.833202 37.213730 -17.217970
v -57.993221 37.014858 -17.074890
v 57.830875 37.014858 -17.670202
v -57.993996 36.659729 -17.225975
v 57.830101 36.659729 -17.821287
v -57.991291 32.697536 -16.699579
v 57.832806 32.697536 -17.294891
v 1.827705 5.851238 13.434088
v -1.680773 5.851238 11.993340
v -1.673275 5.851238 13.452082
v 1.820207 5.851238 11.975347
v -1.701304 5.551271 7.998750
v 1.799676 5.551271 7.980756
v 1.776495 5.365093 3.470693
v -1.724485 5.365093 3.488687
v 1.753258 5.322063 -1.050328
v -1.747722 5.322063 -1.032333
v 1.730032 5.573454 -5.569151
v -1.770948 5.573454 -5.551157
v 1.698732 5.740402 -11.658987
v -1.802248 5.740402 -11.640993
v 59.350330 5.573454 -5.865307
v 61.077438 5.740402 -10.423235
v 59.326950 5.740402 -10.414238
v 61.100819 5.573454 -5.874304
v 59.373558 5.322063 -1.346484
v 61.124046 5.322063 -1.355481
v 59.396793 5.365093 3.174537
v 61.147282 5.365093 3.165540
v 59.419975 5.551271 7.684599
v 61.170464 5.551271 7.675602
v 61.190994 5.851238 11.670193
v 59.440506 5.851238 11.679190
v -59.391247 5.573454 -5.255000
v -59.414627 5.740402 -9.803930
v -61.165115 5.740402 -9.794933
v -61.141735 5.573454 -5.246003
v -59.368019 5.322063 -0.736177
v -61.118507 5.322063 -0.727180
v -59.344784 5.365093 3.784844
v -61.095272 5.365093 3.793841
v -59.321602 5.551271 8.294907
v -61.072090 5.551271 8.303904
v -61.051559 5.851238 12.298494
v -59.301071 5.851238 12.289497
v 57.871368 -14.834602 -9.791825
v 57.847378 0.284185 -14.460034
v 57.847588 -14.834602 -14.418695
v 57.871368 1.179605 -9.792061
v 57.820988 38.925903 -19.593908
v 57.844795 39.541279 -14.962240
v 57.837875 40.594700 -16.308704
v 57.842800 40.180878 -15.350044
v 57.831932 40.621513 -17.464687
v 57.826241 40.293854 -18.572601
v 57.822044 39.644066 -19.388559
v 62.515560 -14.834602 -14.442688
v 62.515350 0.284185 -14.484027
v 62.539341 -14.834602 -9.815818
v 62.539341 1.179605 -9.816053
v 62.488960 38.925903 -19.617899
v 62.512768 39.541279 -14.986233
v 62.505848 40.594700 -16.332695
v 62.510773 40.180878 -15.374037
v 62.499905 40.621513 -17.488678
v 62.494213 40.293854 -18.596592
v 62.490017 39.644066 -19.412550
v -57.976719 0.284185 -13.864722
v -57.952728 -14.834602 -9.196513
v -57.976509 -14.834602 -13.823383
v -57.952728 1.179605 -9.196749
v -58.003109 38.925903 -18.998596
v -57.979301 39.541279 -14.366928
v -57.986221 40.594700 -15.713391
v -57.981297 40.180878 -14.754732
v -57.992165 40.621513 -16.869375
v -57.997856 40.293854 -17.977289
v -58.002052 39.644066 -18.793247
v -62.620701 -14.834602 -9.172521
v -62.644691 0.284185 -13.840730
v -62.644482 -14.834602 -13.799391
v -62.620701 1.179605 -9.172756
v -62.671082 38.925903 -18.974604
v -62.647274 39.541279 -14.342937
v -62.654194 40.594700 -15.689400
v -62.649269 40.180878 -14.730741
v -62.660137 40.621513 -16.845383
v -62.665829 40.293854 -17.953297
v -62.670025 39.644066 -18.769255
v 58.005756 9.042400 16.354662
v 58.005756 -14.834602 16.354662
v 62.673729 -14.834602 16.330669
v 62.673729 9.042400 16.330669
v 58.002808 11.868280 15.780904
v 62.670780 11.868280 15.756911
v 57.999302 13.853010 15.098559
v 62.667274 13.853010 15.074567
v 57.997826 16.310911 14.811543
v 62.665798 16.310911 14.787550
v 57.998581 19.090347 14.958726
v 62.666553 19.090347 14.934733
v 62.673729 9.042400 16.330669
v 62.673729 -14.834602 16.330669
v 62.649738 -14.834602 11.662695
v 62.649738 9.042400 11.662695
v 62.670780 11.868280 15.756911
v 62.647820 10.584873 11.289382
v 62.667274 13.853010 15.074567
v 62.643574 13.202530 10.463160
v 62.665798 16.310911 14.787550
v 62.641838 16.308205 10.125983
v 62.642796 19.090347 10.311811
v 62.666553 19.090347 14.934733
v 58.005756 -14.834602 16.354662
v 58.005756 9.042400 16.354662
v 57.981766 -14.834602 11.686687
v 57.981766 9.042400 11.686687
v 58.002808 11.868280 15.780904
v 57.979847 10.584873 11.313375
v 57.999302 13.853010 15.098559
v 57.975601 13.202530 10.487152
v 57.997826 16.310911 14.811543
v 57.973866 16.308205 10.149976
v 57.974823 19.090347 10.335804
v 57.998581 19.090347 14.958726
v 57.981766 -14.834602 11.686687
v 62.649738 9.042400 11.662695
v 62.649738 -14.834602 11.662695
v 57.981766 9.042400 11.686687
v 62.647820 10.584873 11.289382
v 57.979847 10.584873 11.313375
v 62.643574 13.202530 10.463160
v 57.975601 13.202530 10.487152
v 62.641838 16.308205 10.125983
v 57.973866 16.308205 10.149976
v 62.642796 19.090347 10.311811
v 57.974823 19.090347 10.335804
v -57.818340 9.042400 16.949972
v -62.486313 -14.834602 16.973965
v -57.818340 -14.834602 16.949972
v -62.486313 9.042400 16.973965
v -57.821289 11.868280 16.376215
v -62.489262 11.868280 16.400208
v -57.824795 13.853010 15.693871
v -62.492767 13.853010 15.717864
v -57.826271 16.310911 15.406855
v -62.494244 16.310911 15.430847
v -57.825516 19.090347 15.554038
v -62.493488 19.090347 15.578031
v -62.486313 9.042400 16.973965
v -62.510303 -14.834602 12.305992
v -62.486313 -14.834602 16.973965
v -62.510303 9.042400 12.305992
v -62.489262 11.868280 16.400208
v -62.512222 10.584873 11.932679
v -62.492767 13.853010 15.717864
v -62.516468 13.202530 11.106457
v -62.494244 16.310911 15.430847
v -62.518204 16.308205 10.769280
v -62.517246 19.090347 10.955109
v -62.493488 19.090347 15.578031
v -57.818340 9.042400 16.949972
v -57.818340 -14.834602 16.949972
v -57.842331 -14.834602 12.282000
v -57.842331 9.042400 12.282000
v -57.821289 11.868280 16.376215
v -57.844250 10.584873 11.908687
v -57.824795 13.853010 15.693871
v -57.848495 13.202530 11.082464
v -57.826271 16.310911 15.406855
v -57.850231 16.308205 10.745288
v -57.849274 19.090347 10.931116
v -57.825516 19.090347 15.554038
v -62.510303 9.042400 12.305992
v -57.842331 -14.834602 12.282000
v -62.510303 -14.834602 12.305992
v -57.842331 9.042400 12.282000
v -62.512222 10.584873 11.932679
v -57.844250 10.584873 11.908687
v -62.516468 13.202530 11.106457
v -57.848495 13.202530 11.082464
v -62.518204 16.308205 10.769280
v -57.850231 16.308205 10.745288
v -62.517246 19.090347 10.955109
v -57.849274 19.090347 10.931116
v 62.539341 1.179605 -9.816053
v 57.871368 -14.834602 -9.791825
v 62.539341 -14.834602 -9.815818
v 57.871368 1.179605 -9.792061
v 57.844795 39.541279 -14.962240
v 62.512768 39.541279 -14.986233
v 57.842800 40.180878 -15.350044
v 62.510773 40.180878 -15.374037
v 57.837875 40.594700 -16.308704
v 62.505848 40.594700 -16.332695
v 57.831932 40.621513 -17.464687
v 62.499905 40.621513 -17.488678
v 57.826241 40.293854 -18.572601
v 62.494213 40.293854 -18.596592
v 57.822044 39.644066 -19.388559
v 62.490017 39.644066 -19.412550
v 57.820988 38.925903 -19.593908
v 62.488960 38.925903 -19.617899
v 62.515350 0.284185 -14.484027
v 57.847378 0.284185 -14.460034
v 57.847588 -14.834602 -14.418695
v 62.515560 -14.834602 -14.442688
v -62.620701 1.179605 -9.172756
v -62.620701 -14.834602 -9.172521
v -57.952728 -14.834602 -9.196513
v -57.952728 1.179605 -9.196749
v -57.979301 39.541279 -14.366928
v -62.647274 39.541279 -14.342937
v -57.981297 40.180878 -14.754732
v -62.649269 40.180878 -14.730741
v -57.986221 40.594700 -15.713391
v -62.654194 40.594700 -15.689400
v -57.992165 40.621513 -16.869375
v -62.660137 40.621513 -16.845383
v -57.997856 40.293854 -17.977289
v -62.665829 40.293854 -17.953297
v -58.002052 39.644066 -18.793247
v -62.670025 39.644066 -18.769255
v -58.003109 38.925903 -18.998596
v -62.671082 38.925903 -18.974604
v -62.644691 0.284185 -13.840730
v -57.976719 0.284185 -13.864722
v -57.976509 -14.834602 -13.823383
v -62.644482 -14.834602 -13.799391
v -57.529232 -14.834602 -8.781189
v -63.039898 -14.834602 -8.752865
v -63.039886 -16.018866 -8.750932
v -57.529217 -16.018866 -8.779256
v -63.039898 -14.834602 -8.752865
v -63.067974 -14.834602 -14.215012
v -63.067963 -16.018864 -14.213076
v -63.039886 -16.018866 -8.750932
v -63.067974 -14.834602 -14.215012
v -57.557308 -14.834602 -14.243336
v -57.557293 -16.018864 -14.241400
v -63.067963 -16.018864 -14.213076
v -57.557308 -14.834602 -14.243336
v -57.529232 -14.834602 -8.781189
v -57.529217 -16.018866 -8.779256
v -57.557293 -16.018864 -14.241400
v -63.039898 -14.834602 -8.752865
v -57.529232 -14.834602 -8.781189
v -58.067539 -13.882288 -9.309302
v -62.507030 -13.882288 -9.286484
v -63.067974 -14.834602 -14.215012
v -63.039898 -14.834602 -8.752865
v -62.507030 -13.882288 -9.286484
v -62.529648 -13.882288 -13.686897
v -57.557308 -14.834602 -14.243336
v -63.067974 -14.834602 -14.215012
v -62.529648 -13.882288 -13.686897
v -58.090157 -13.882288 -13.709716
v -57.529232 -14.834602 -8.781189
v -57.557308 -14.834602 -14.243336
v -58.090157 -13.882288 -13.709716
v -58.067539 -13.882288 -9.309302
v 62.958549 -14.834606 -9.400471
v 57.447884 -14.834606 -9.372148
v 57.447895 -16.018869 -9.370214
v 62.958569 -16.018869 -9.398539
v 57.447884 -14.834606 -9.372148
v 57.419807 -14.834606 -14.834293
v 57.419819 -16.018869 -14.832358
v 57.447895 -16.018869 -9.370214
v 57.419807 -14.834606 -14.834293
v 62.930473 -14.834606 -14.862617
v 62.930492 -16.018869 -14.860682
v 57.419819 -16.018869 -14.832358
v 62.930473 -14.834606 -14.862617
v 62.958549 -14.834606 -9.400471
v 62.958569 -16.018869 -9.398539
v 62.930492 -16.018869 -14.860682
v 57.447884 -14.834606 -9.372148
v 62.958549 -14.834606 -9.400471
v 62.420246 -13.882292 -9.928584
v 57.980747 -13.882292 -9.905766
v 57.419807 -14.834606 -14.834293
v 57.447884 -14.834606 -9.372148
v 57.980747 -13.882292 -9.905766
v 57.958130 -13.882292 -14.306179
v 62.930473 -14.834606 -14.862617
v 57.419807 -14.834606 -14.834293
v 57.958130 -13.882292 -14.306179
v 62.397629 -13.882292 -14.328998
v 62.958549 -14.834606 -9.400471
v 62.930473 -14.834606 -14.862617
v 62.397629 -13.882292 -14.328998
v 62.420246 -13.882292 -9.928584
v -57.394958 -14.834602 17.341341
v -62.905628 -14.834602 17.369665
v -62.905621 -16.018866 17.371601
v -57.394951 -16.018866 17.343277
v -62.905628 -14.834602 17.369665
v -62.933704 -14.834602 11.907522
v -62.933693 -16.018866 11.909454
v -62.905621 -16.018866 17.371601
v -62.933704 -14.834602 11.907522
v -57.423035 -14.834602 11.879198
v -57.423023 -16.018866 11.881130
v -62.933693 -16.018866 11.909454
v -57.423035 -14.834602 11.879198
v -57.394958 -14.834602 17.341341
v -57.394951 -16.018866 17.343277
v -57.423023 -16.018866 11.881130
v -62.905628 -14.834602 17.369665
v -57.394958 -14.834602 17.341341
v -57.933277 -13.882288 16.813231
v -62.372768 -13.882288 16.836048
v -62.933704 -14.834602 11.907522
v -62.905628 -14.834602 17.369665
v -62.372768 -13.882288 16.836048
v -62.395386 -13.882288 12.435637
v -57.423035 -14.834602 11.879198
v -62.933704 -14.834602 11.907522
v -62.395386 -13.882288 12.435637
v -57.955894 -13.882288 12.412819
v -57.394958 -14.834602 17.341341
v -57.423035 -14.834602 11.879198
v -57.955894 -13.882288 12.412819
v -57.933277 -13.882288 16.813231
v 63.092815 -14.834607 16.722059
v 57.582150 -14.834607 16.750383
v 57.582157 -16.018869 16.752319
v 63.092831 -16.018869 16.723995
v 57.582150 -14.834607 16.750383
v 57.554073 -14.834607 11.288238
v 57.554085 -16.018869 11.290172
v 57.582157 -16.018869 16.752319
v 57.554073 -14.834607 11.288238
v 63.064739 -14.834607 11.259914
v 63.064758 -16.018869 11.261848
v 57.554085 -16.018869 11.290172
v 63.064739 -14.834607 11.259914
v 63.092815 -14.834607 16.722059
v 63.092831 -16.018869 16.723995
v 63.064758 -16.018869 11.261848
v 57.582150 -14.834607 16.750383
v 63.092815 -14.834607 16.722059
v 62.554504 -13.882293 16.193949
v 58.115009 -13.882293 16.216766
v 57.554073 -14.834607 11.288238
v 57.582150 -14.834607 16.750383
v 58.115009 -13.882293 16.216766
v 58.092392 -13.882293 11.816356
v 63.064739 -14.834607 11.259914
v 57.554073 -14.834607 11.288238
v 58.092392 -13.882293 11.816356
v 62.531887 -13.882293 11.793537
v 63.092815 -14.834607 16.722059
v 63.064739 -14.834607 11.259914
v 62.531887 -13.882293 11.793537
v 62.554504 -13.882293 16.193949
vn 0.0051 -0.0000 1.0000
vn -0.0051 -0.0000 -1.0000
vn 0.0007 -0.9910 0.1337
vn -0.0000 -1.0000 -0.0000
vn 1.0000 -0.0000 -0.0051
vn -1.0000 -0.0000 0.0051
vn -0.0007 0.9910 -0.1337
vn 0.0051 0.1337 0.9910
vn -0.0051 -0.1337 -0.9910
vn -0.0000 1.0000 -0.0000
vn -0.0051 -0.1338 -0.9910
vn 0.0051 0.1336 0.9910
vn -0.0051 -0.1336 -0.9910
vn 0.0051 0.1338 0.9910
vn 0.0051 0.0706 0.9975
vn -0.0051 -0.0706 -0.9975
vn 0.0004 -0.9975 0.0707
vn 0.0004 -0.9975 0.0706
vn -0.0004 0.9975 -0.0707
vn -0.0004 0.9975 -0.0706
vn 0.0051 0.0314 0.9995
vn -0.0051 -0.0314 -0.9995
vn 0.0002 -0.9995 0.0314
vn -0.0002 0.9995 -0.0314
vn 0.0051 -0.0472 0.9989
vn -0.0051 0.0472 -0.9989
vn -0.0002 -0.9989 -0.0472
vn 0.0002 0.9989 0.0472
vn -0.7071 -0.7071 0.0036
vn 0.7071 -0.7071 -0.0036
vn -0.9125 0.4091 0.0047
vn -0.9920 0.1260 0.0051
vn -0.9920 0.1259 0.0051
vn -0.9263 -0.3768 0.0048
vn -0.9263 -0.3769 0.0048
vn -0.3768 -0.9263 0.0019
vn -0.3769 -0.9263 0.0019
vn 0.1260 -0.9920 -0.0006
vn 0.4091 -0.9125 -0.0021
vn 0.4090 -0.9125 -0.0021
vn 0.1259 -0.9920 -0.0006
vn -0.9125 0.4090 0.0047
vn 0.9125 0.4091 -0.0047
vn 0.9920 0.1260 -0.0051
vn 0.9263 -0.3768 -0.0048
vn 0.3768 -0.9263 -0.0019
vn 0.3769 -0.9263 -0.0019
vn -0.1260 -0.9920 0.0006
vn -0.4091 -0.9125 0.0021
vn -0.4090 -0.9125 0.0021
vn -0.1259 -0.9920 0.0006
vn 0.9125 0.4090 -0.0047
vn 0.0047 0.3863 0.9224
vn 0.0026 0.8643 0.5029
vn 0.0026 0.8642 0.5032
vn -0.0000 1.0000 0.0078
vn -0.0000 1.0000 0.0079
vn -0.0014 0.9633 -0.2685
vn -0.0014 0.9633 -0.2684
vn -0.0037 0.7032 -0.7110
vn -0.0037 0.7033 -0.7109
vn -0.0051 0.1337 -0.9910
vn -0.0002 0.9992 -0.0393
vn -0.0003 0.9985 -0.0550
vn -0.0001 0.9997 -0.0237
vn -0.0001 0.9997 -0.0236
vn 0.0001 0.9997 0.0235
vn 0.0002 0.9992 0.0393
vn 0.0002 0.9992 0.0394
vn 0.0001 0.9997 0.0236
vn -0.0004 0.9969 -0.0785
vn 0.0051 0.1026 0.9947
vn 0.0050 0.2591 0.9658
vn 0.0050 0.2203 0.9754
vn 0.0050 0.2202 0.9754
vn 0.0051 0.0317 0.9995
vn 0.0051 -0.0550 0.9985
vn -0.0051 -0.1181 -0.9930
vn -0.0051 -0.1184 -0.9929
vn -0.0050 -0.2686 -0.9632
vn -0.0050 -0.2683 -0.9633
vn -0.0050 -0.2055 -0.9787
vn -0.0051 -0.0236 -0.9997
vn -0.0051 0.0629 -0.9980
vn 0.0051 0.0707 0.9975
vn 0.0049 0.3303 0.9438
vn 0.0049 0.3304 0.9438
vn 0.0034 0.7565 0.6540
vn 0.0011 0.9771 0.2127
vn 0.0011 0.9771 0.2129
vn -0.0024 0.8864 -0.4628
vn -0.0043 0.5511 -0.8344
vn -0.0043 0.5511 -0.8345
vn -0.0051 0.0707 -0.9975
vn -0.0051 -0.0707 -0.9975
vn 0.0051 0.0016 1.0000
vn -0.0051 -0.0016 -1.0000
vn 0.0045 0.4869 0.8734
vn -0.8716 0.4902 0.0045
vn -0.0045 0.4869 -0.8734
vn 0.8716 0.4902 -0.0045
vt 0.691895 0.153442
vt 0.691895 0.049774
vt 0.670898 0.049774
vt 0.670898 0.153442
vt 0.957031 0.054291
vt 0.935547 0.156494
vt 0.935547 0.054291
vt 0.957031 0.156494
vt 0.092224 0.297363
vt 0.092224 0.998047
vt 0.102844 0.297363
vt 0.102844 0.997559
vt 0.962402 0.530273
vt 0.983398 0.381348
vt 0.962402 0.381348
vt 0.983398 0.530273
vt 0.718262 0.320068
vt 0.718262 0.450928
vt 0.728516 0.450928
vt 0.728516 0.320068
vt 0.001953 0.068665
vt 0.132690 0.068665
vt 0.001953 0.058105
vt 0.132690 0.058105
vt 0.755859 0.094360
vt 0.755859 0.197998
vt 0.776855 0.197998
vt 0.776855 0.094360
vt 0.734375 0.094360
vt 0.734375 0.197998
vt 0.797852 0.197998
vt 0.797852 0.094360
vt 0.819336 0.197998
vt 0.819336 0.094360
vt 0.001953 0.998047
vt 0.012535 0.297363
vt 0.001953 0.297363
vt 0.012535 0.998047
vt 0.054626 0.297363
vt 0.044037 0.997559
vt 0.054626 0.998047
vt 0.044037 0.297363
vt 0.086121 0.998047
vt 0.086121 0.297363
vt 0.832031 0.197998
vt 0.832031 0.068176
vt 0.824707 0.068176
vt 0.824707 0.197998
vt 0.501465 0.222900
vt 0.501465 0.093079
vt 0.494385 0.222900
vt 0.494385 0.093079
vt 0.849609 0.068176
vt 0.849609 0.197998
vt 0.856445 0.068176
vt 0.856445 0.197998
vt 0.519043 0.093079
vt 0.519043 0.222900
vt 0.525879 0.222900
vt 0.525879 0.093079
vt 0.874023 0.068176
vt 0.874023 0.197998
vt 0.887207 0.157104
vt 0.887207 0.027313
vt 0.880371 0.027313
vt 0.880371 0.157104
vt 0.904785 0.027313
vt 0.904785 0.157104
vt 0.912109 0.027313
vt 0.912109 0.157104
vt 0.531250 0.108154
vt 0.661133 0.090515
vt 0.531250 0.090515
vt 0.661133 0.108154
vt 0.929688 0.027313
vt 0.929688 0.157104
vt 0.845703 0.202026
vt 0.866699 0.357910
vt 0.866699 0.202026
vt 0.845703 0.357910
vt 0.817383 0.357910
vt 0.810547 0.202026
vt 0.810547 0.357910
vt 0.817383 0.202026
vt 0.838867 0.357910
vt 0.838867 0.202026
vt 0.330811 0.222900
vt 0.309814 0.067017
vt 0.309814 0.222900
vt 0.330811 0.067017
vt 0.359131 0.067017
vt 0.366211 0.222900
vt 0.366211 0.067017
vt 0.359131 0.222900
vt 0.337891 0.067017
vt 0.337891 0.222900
vt 0.454102 0.222900
vt 0.432861 0.067017
vt 0.432861 0.222900
vt 0.454102 0.067017
vt 0.482178 0.067017
vt 0.489258 0.222900
vt 0.489258 0.067017
vt 0.482178 0.222900
vt 0.461182 0.067017
vt 0.461182 0.222900
vt 0.207764 0.229980
vt 0.186646 0.074036
vt 0.186646 0.229980
vt 0.207764 0.074036
vt 0.236084 0.074036
vt 0.243042 0.229980
vt 0.243042 0.074036
vt 0.236084 0.229980
vt 0.214844 0.074036
vt 0.214844 0.229980
vt 0.628418 0.300049
vt 0.607422 0.144165
vt 0.607422 0.300049
vt 0.628418 0.144165
vt 0.656738 0.144165
vt 0.663574 0.300049
vt 0.663574 0.144165
vt 0.656738 0.300049
vt 0.635254 0.144165
vt 0.635254 0.300049
vt 0.160278 0.137573
vt 0.181519 0.293457
vt 0.181519 0.137573
vt 0.160278 0.293457
vt 0.132080 0.293457
vt 0.125000 0.137573
vt 0.125000 0.293457
vt 0.132080 0.137573
vt 0.153320 0.293457
vt 0.153320 0.137573
vt 0.823242 0.837891
vt 0.802246 0.681641
vt 0.802246 0.837891
vt 0.823242 0.681641
vt 0.851562 0.681641
vt 0.858887 0.837891
vt 0.858887 0.681641
vt 0.851562 0.837891
vt 0.830566 0.681641
vt 0.830566 0.837891
vt 0.837402 0.841797
vt 0.858887 0.997559
vt 0.858887 0.841797
vt 0.837402 0.998047
vt 0.809082 0.997559
vt 0.802246 0.841797
vt 0.802246 0.997559
vt 0.809082 0.841797
vt 0.830566 0.997559
vt 0.830566 0.841797
vt 0.566895 0.293457
vt 0.545410 0.137573
vt 0.545410 0.293457
vt 0.566895 0.137573
vt 0.595215 0.137573
vt 0.602051 0.293457
vt 0.602051 0.137573
vt 0.595215 0.293457
vt 0.573730 0.137573
vt 0.573730 0.293457
vt 0.269287 0.222900
vt 0.248169 0.067017
vt 0.248169 0.222900
vt 0.269287 0.067017
vt 0.297607 0.067017
vt 0.304688 0.222900
vt 0.304688 0.067017
vt 0.297607 0.222900
vt 0.276367 0.067017
vt 0.276367 0.222900
vt 0.845703 0.362061
vt 0.866699 0.517578
vt 0.866699 0.362061
vt 0.845703 0.517578
vt 0.817383 0.517578
vt 0.810547 0.362061
vt 0.810547 0.517578
vt 0.817383 0.362061
vt 0.838867 0.517578
vt 0.838867 0.362061
vt 0.845703 0.521973
vt 0.866699 0.677734
vt 0.866699 0.521973
vt 0.845703 0.677734
vt 0.817383 0.677734
vt 0.810547 0.521973
vt 0.810547 0.677734
vt 0.817383 0.521973
vt 0.838867 0.677734
vt 0.838867 0.521973
vt 0.406494 0.067017
vt 0.427734 0.222900
vt 0.427734 0.067017
vt 0.406494 0.222900
vt 0.378418 0.222900
vt 0.371338 0.067017
vt 0.371338 0.222900
vt 0.378418 0.067017
vt 0.399414 0.222900
vt 0.399414 0.067017
vt 0.708008 0.157471
vt 0.729492 0.313232
vt 0.729492 0.157471
vt 0.708008 0.313232
vt 0.680176 0.313232
vt 0.672852 0.157471
vt 0.672852 0.313232
vt 0.680176 0.157471
vt 0.701172 0.313232
vt 0.701172 0.157471
vt 0.098816 0.137573
vt 0.119934 0.293457
vt 0.119934 0.137573
vt 0.098816 0.293457
vt 0.070557 0.293457
vt 0.063477 0.137573
vt 0.063477 0.293457
vt 0.070557 0.137573
vt 0.091736 0.293457
vt 0.091736 0.137573
vt 0.023117 0.293457
vt 0.001953 0.137573
vt 0.001953 0.293457
vt 0.023117 0.137573
vt 0.051331 0.137573
vt 0.058411 0.293457
vt 0.058411 0.137573
vt 0.051331 0.293457
vt 0.030182 0.137573
vt 0.030182 0.293457
vt 0.566895 0.297363
vt 0.566895 0.997559
vt 0.573730 0.297363
vt 0.573730 0.997559
vt 0.545410 0.297363
vt 0.545410 0.998047
vt 0.602051 0.297363
vt 0.595215 0.998047
vt 0.602051 0.997559
vt 0.595215 0.297363
vt 0.320557 0.234009
vt 0.320557 0.990723
vt 0.327637 0.234009
vt 0.327637 0.990723
vt 0.348877 0.226929
vt 0.327637 0.226929
vt 0.348877 0.234009
vt 0.355957 0.234009
vt 0.348877 0.990723
vt 0.355957 0.990723
vt 0.327637 0.997559
vt 0.348877 0.998047
vt 0.299561 0.234009
vt 0.299561 0.990723
vt 0.382080 0.234009
vt 0.382080 0.990723
vt 0.389160 0.234009
vt 0.389160 0.990723
vt 0.410400 0.226929
vt 0.389160 0.226929
vt 0.410400 0.234009
vt 0.417480 0.234009
vt 0.410400 0.990723
vt 0.417480 0.990723
vt 0.389160 0.997559
vt 0.410400 0.998047
vt 0.361084 0.234009
vt 0.361084 0.990723
vt 0.259033 0.234009
vt 0.259033 0.990723
vt 0.266113 0.234009
vt 0.266113 0.990723
vt 0.287354 0.226929
vt 0.266113 0.226929
vt 0.287354 0.234009
vt 0.294434 0.234009
vt 0.287354 0.990723
vt 0.294434 0.990723
vt 0.266113 0.997559
vt 0.287354 0.998047
vt 0.237915 0.234009
vt 0.237915 0.990723
vt 0.505371 0.234009
vt 0.505371 0.990723
vt 0.512207 0.234009
vt 0.512207 0.990723
vt 0.533691 0.234009
vt 0.512207 0.226929
vt 0.533691 0.226929
vt 0.540527 0.234009
vt 0.533691 0.990723
vt 0.540527 0.990723
vt 0.512207 0.997559
vt 0.533691 0.998047
vt 0.484131 0.234009
vt 0.484131 0.990723
vt 0.443848 0.234009
vt 0.443848 0.990723
vt 0.450928 0.234009
vt 0.450928 0.990723
vt 0.471924 0.234009
vt 0.450928 0.226929
vt 0.471924 0.226929
vt 0.479004 0.234009
vt 0.471924 0.990723
vt 0.479004 0.990723
vt 0.450928 0.997559
vt 0.471924 0.998047
vt 0.422607 0.234009
vt 0.422607 0.990723
vt 0.762207 0.955078
vt 0.762207 0.940918
vt 0.754883 0.955078
vt 0.754883 0.940918
vt 0.762207 0.983398
vt 0.754883 0.998047
vt 0.762207 0.998047
vt 0.754883 0.983398
vt 0.217407 0.236572
vt 0.224487 0.250977
vt 0.224487 0.236572
vt 0.217407 0.250977
vt 0.224487 0.293457
vt 0.224487 0.279053
vt 0.217407 0.279053
vt 0.217407 0.293457
vt 0.715820 0.613281
vt 0.723145 0.599121
vt 0.715820 0.599121
vt 0.723145 0.613281
vt 0.715820 0.641602
vt 0.715820 0.655762
vt 0.723145 0.641602
vt 0.723145 0.655762
vt 0.756836 0.835938
vt 0.756836 0.850098
vt 0.764160 0.850098
vt 0.764160 0.835938
vt 0.756836 0.892578
vt 0.764160 0.892578
vt 0.756836 0.878418
vt 0.764160 0.878418
vt 0.769531 0.806152
vt 0.769531 0.998047
vt 0.797363 0.806152
vt 0.797363 0.997559
vt 0.968262 0.186035
vt 0.977051 0.376221
vt 0.977051 0.186035
vt 0.968262 0.377441
vt 0.769531 0.797363
vt 0.797363 0.797363
vt 0.998047 0.998047
vt 0.998047 0.807617
vt 0.988770 0.998047
vt 0.988770 0.806152
vt 0.805664 0.403320
vt 0.805664 0.213013
vt 0.777344 0.403320
vt 0.777344 0.213013
vt 0.769531 0.607422
vt 0.797363 0.607422
vt 0.777344 0.412109
vt 0.805664 0.603516
vt 0.805664 0.412109
vt 0.777344 0.603516
vt 0.988770 0.802246
vt 0.998047 0.612305
vt 0.988770 0.610840
vt 0.998047 0.802246
vt 0.982910 0.187256
vt 0.982910 0.377441
vt 0.991699 0.377441
vt 0.991699 0.186035
vt 0.196411 0.998047
vt 0.207031 0.297363
vt 0.196411 0.297363
vt 0.207031 0.998047
vt 0.170166 0.297363
vt 0.170166 0.998047
vt 0.872070 0.297363
vt 0.872070 0.998047
vt 0.882812 0.297363
vt 0.882812 0.998047
vt 0.233276 0.297363
vt 0.233276 0.998047
vt 0.141479 0.029877
vt 0.141479 0.132080
vt 0.162598 0.029877
vt 0.151978 0.133545
vt 0.162598 0.133545
vt 0.734375 0.316406
vt 0.745117 0.316406
vt 0.734375 0.212646
vt 0.755859 0.314941
vt 0.755859 0.212646
vt 0.962891 0.690430
vt 0.963867 0.727051
vt 0.983887 0.692871
vt 0.965332 0.754395
vt 0.983887 0.841797
vt 0.965332 0.781738
vt 0.964355 0.809082
vt 0.962402 0.833008
vt 0.962402 0.841797
vt 0.963867 0.960938
vt 0.962891 0.998047
vt 0.983887 0.995117
vt 0.965332 0.933594
vt 0.983887 0.846191
vt 0.965332 0.906250
vt 0.964355 0.878906
vt 0.962402 0.854980
vt 0.962402 0.846191
vt 0.709961 0.454346
vt 0.710938 0.481934
vt 0.730469 0.457031
vt 0.712402 0.509277
vt 0.731445 0.587891
vt 0.712402 0.536621
vt 0.711426 0.563965
vt 0.709961 0.587891
vt 0.029449 0.088440
vt 0.001953 0.087341
vt 0.004642 0.108093
vt 0.056763 0.090149
vt 0.135376 0.108765
vt 0.084106 0.090027
vt 0.111389 0.088989
vt 0.135498 0.087341
vt 0.108032 0.132324
vt 0.135498 0.133545
vt 0.132812 0.112793
vt 0.080688 0.130737
vt 0.002060 0.112122
vt 0.053375 0.130859
vt 0.026108 0.131836
vt 0.001953 0.133545
vt 0.665039 0.112183
vt 0.637207 0.113342
vt 0.662109 0.132935
vt 0.609863 0.114990
vt 0.531250 0.133545
vt 0.582520 0.114868
vt 0.555664 0.113892
vt 0.531250 0.112183
vt 0.968262 0.182007
vt 0.968262 0.167725
vt 0.972168 0.166260
vt 0.993164 0.157104
vt 0.975098 0.162354
vt 0.976074 0.157104
vt 0.975098 0.151855
vt 0.972168 0.147949
vt 0.968262 0.132202
vt 0.968262 0.146484
vt 0.728516 0.124451
vt 0.728516 0.110107
vt 0.725098 0.108704
vt 0.703613 0.099548
vt 0.722168 0.104797
vt 0.721191 0.099548
vt 0.722168 0.094238
vt 0.725098 0.090332
vt 0.728516 0.074585
vt 0.728516 0.088928
vt 0.224487 0.275146
vt 0.217407 0.275146
vt 0.224487 0.270264
vt 0.217407 0.270264
vt 0.224487 0.264893
vt 0.217407 0.264893
vt 0.224487 0.259521
vt 0.217407 0.259521
vt 0.224487 0.254883
vt 0.217407 0.254883
vt 0.762207 0.959473
vt 0.754883 0.959473
vt 0.762207 0.963867
vt 0.754883 0.963867
vt 0.762207 0.969238
vt 0.754883 0.969238
vt 0.762207 0.974609
vt 0.754883 0.974609
vt 0.762207 0.979492
vt 0.754883 0.979492
vt 0.186646 0.257812
vt 0.186646 0.243652
vt 0.190308 0.259277
vt 0.211548 0.268555
vt 0.192993 0.263184
vt 0.194092 0.268555
vt 0.192993 0.273682
vt 0.190308 0.277588
vt 0.186646 0.293457
vt 0.186646 0.279053
vt 0.217773 0.034515
vt 0.217773 0.020157
vt 0.213989 0.035919
vt 0.192749 0.045105
vt 0.211304 0.039795
vt 0.210327 0.045105
vt 0.211304 0.050385
vt 0.213989 0.054260
vt 0.217773 0.070007
vt 0.217773 0.055695
vt 0.715820 0.637695
vt 0.723145 0.637695
vt 0.715820 0.632812
vt 0.723145 0.632812
vt 0.715820 0.627441
vt 0.723145 0.627441
vt 0.715820 0.622070
vt 0.723145 0.622070
vt 0.715820 0.617188
vt 0.723145 0.617188
vt 0.193115 0.070007
vt 0.193115 0.055695
vt 0.189453 0.054260
vt 0.168091 0.045105
vt 0.186646 0.050385
vt 0.185669 0.045105
vt 0.186646 0.039795
vt 0.189453 0.035919
vt 0.193115 0.020157
vt 0.193115 0.034515
vt 0.697754 0.153442
vt 0.697754 0.139038
vt 0.701172 0.137573
vt 0.722656 0.128418
vt 0.704102 0.133789
vt 0.705078 0.128418
vt 0.704102 0.123169
vt 0.701172 0.119324
vt 0.697754 0.103516
vt 0.697754 0.117920
vt 0.756836 0.854004
vt 0.764160 0.854004
vt 0.756836 0.858887
vt 0.764160 0.858887
vt 0.756836 0.864258
vt 0.764160 0.864258
vt 0.756836 0.869629
vt 0.764160 0.869629
vt 0.756836 0.874512
vt 0.764160 0.874512
vt 0.755371 0.054810
vt 0.755371 0.040466
vt 0.751465 0.056244
vt 0.730469 0.065369
vt 0.749023 0.060120
vt 0.748047 0.065369
vt 0.749023 0.070679
vt 0.751465 0.074585
vt 0.755371 0.090332
vt 0.755371 0.075989
vt 0.962402 0.094666
vt 0.962402 0.080322
vt 0.965820 0.096130
vt 0.987305 0.105286
vt 0.968750 0.099976
vt 0.969727 0.105286
vt 0.968750 0.110596
vt 0.965820 0.114441
vt 0.962402 0.130249
vt 0.962402 0.115845
vt 0.126953 0.297363
vt 0.126953 0.998047
vt 0.129272 0.297363
vt 0.129272 0.997559
vt 0.132324 0.297363
vt 0.132324 0.997559
vt 0.134766 0.297363
vt 0.134766 0.997559
vt 0.137695 0.297363
vt 0.137695 0.997559
vt 0.140015 0.297363
vt 0.140015 0.997559
vt 0.164307 0.297363
vt 0.164307 0.997559
vt 0.983398 0.534180
vt 0.962402 0.542969
vt 0.962402 0.534180
vt 0.983398 0.542969
vt 0.962402 0.567383
vt 0.983398 0.567383
vt 0.983398 0.594727
vt 0.962402 0.594727
vt 0.983398 0.622070
vt 0.962402 0.622070
vt 0.983398 0.649414
vt 0.962402 0.649414
vt 0.983398 0.686035
vt 0.962402 0.686035
vt 0.029480 0.072693
vt 0.001953 0.083313
vt 0.001953 0.072693
vt 0.029480 0.083313
vt 0.056824 0.072693
vt 0.056824 0.083313
vt 0.084167 0.072693
vt 0.084167 0.083313
vt 0.111450 0.072693
vt 0.111450 0.083313
vt 0.135620 0.083313
vt 0.135620 0.072693
vt 0.521973 0.086487
vt 0.494385 0.086487
vt 0.494385 0.075928
vt 0.521973 0.075928
vt 0.549316 0.086487
vt 0.549316 0.075867
vt 0.576660 0.086487
vt 0.576660 0.075867
vt 0.604004 0.086487
vt 0.604004 0.075928
vt 0.627930 0.075867
vt 0.627930 0.086487
vt 0.743652 0.998047
vt 0.724609 0.904297
vt 0.715820 0.995117
vt 0.752930 0.901367
vt 0.715820 0.668457
vt 0.744141 0.667480
vt 0.736816 0.660156
vt 0.742188 0.663574
vt 0.729980 0.659668
vt 0.723145 0.660645
vt 0.717773 0.664062
vt 0.734375 0.322021
vt 0.743164 0.412842
vt 0.762207 0.319336
vt 0.771484 0.415527
vt 0.734375 0.648438
vt 0.762695 0.649414
vt 0.755371 0.656738
vt 0.760742 0.653320
vt 0.748047 0.657227
vt 0.741211 0.656250
vt 0.736328 0.652832
vt 0.701660 0.562012
vt 0.682129 0.655273
vt 0.709961 0.652832
vt 0.672852 0.559082
vt 0.709961 0.326416
vt 0.681641 0.325195
vt 0.689453 0.318115
vt 0.683594 0.321289
vt 0.696289 0.317383
vt 0.703125 0.318604
vt 0.708496 0.322021
vt 0.682129 0.659668
vt 0.701660 0.753418
vt 0.709961 0.662109
vt 0.672852 0.755859
vt 0.709961 0.988770
vt 0.681641 0.989746
vt 0.689453 0.997070
vt 0.683594 0.994141
vt 0.696289 0.998047
vt 0.703125 0.996582
vt 0.708496 0.993164
vt 0.957520 0.515137
vt 0.957520 0.370850
vt 0.929688 0.370850
vt 0.929688 0.515137
vt 0.957520 0.532715
vt 0.929688 0.532715
vt 0.957520 0.545410
vt 0.929688 0.545410
vt 0.957520 0.560059
vt 0.929688 0.560059
vt 0.957520 0.577148
vt 0.929688 0.577148
vt 0.923828 0.515137
vt 0.916504 0.371094
vt 0.888184 0.372314
vt 0.895508 0.516602
vt 0.920898 0.532227
vt 0.893555 0.525879
vt 0.917480 0.544434
vt 0.889648 0.541992
vt 0.916504 0.559570
vt 0.888184 0.561035
vt 0.890137 0.577637
vt 0.918457 0.576172
vt 0.916504 0.998047
vt 0.923828 0.853516
vt 0.888184 0.996582
vt 0.895508 0.852051
vt 0.920898 0.836426
vt 0.893555 0.842773
vt 0.917480 0.824219
vt 0.889648 0.826660
vt 0.916504 0.809082
vt 0.888184 0.807617
vt 0.890137 0.791016
vt 0.918457 0.792480
vt 0.929688 0.787598
vt 0.957520 0.643066
vt 0.957520 0.787598
vt 0.929688 0.643066
vt 0.957520 0.633301
vt 0.929688 0.633301
vt 0.957520 0.616699
vt 0.929688 0.616699
vt 0.957520 0.598145
vt 0.929688 0.598145
vt 0.957520 0.581055
vt 0.929688 0.581055
vt 0.935547 0.304932
vt 0.963867 0.160522
vt 0.935547 0.160522
vt 0.963867 0.304932
vt 0.935547 0.322266
vt 0.963867 0.322266
vt 0.935547 0.334961
vt 0.963867 0.334961
vt 0.935547 0.350098
vt 0.963867 0.350098
vt 0.935547 0.366943
vt 0.963867 0.366943
vt 0.888184 0.726074
vt 0.923828 0.583008
vt 0.895508 0.581543
vt 0.916504 0.727051
vt 0.891113 0.743164
vt 0.918457 0.736816
vt 0.894531 0.755371
vt 0.922852 0.752930
vt 0.895508 0.770020
vt 0.923828 0.771484
vt 0.921875 0.788086
vt 0.894043 0.787109
vt 0.886230 0.223633
vt 0.893555 0.367920
vt 0.921875 0.366455
vt 0.914551 0.222290
vt 0.889160 0.206421
vt 0.916504 0.212891
vt 0.892578 0.194214
vt 0.920410 0.196777
vt 0.893555 0.179321
vt 0.921875 0.177979
vt 0.919922 0.161133
vt 0.891602 0.162598
vt 0.957520 0.936035
vt 0.929688 0.791504
vt 0.957520 0.791504
vt 0.929688 0.936035
vt 0.957520 0.945312
vt 0.929688 0.945312
vt 0.957520 0.961914
vt 0.929688 0.961914
vt 0.957520 0.980957
vt 0.929688 0.980957
vt 0.957520 0.998047
vt 0.929688 0.998047
vt 0.607422 0.401123
vt 0.635254 0.304199
vt 0.607422 0.304199
vt 0.635254 0.401123
vt 0.635254 0.634766
vt 0.607422 0.634766
vt 0.635254 0.639648
vt 0.607422 0.639648
vt 0.635254 0.645996
vt 0.607422 0.645996
vt 0.635254 0.652832
vt 0.607422 0.652832
vt 0.635254 0.659668
vt 0.607422 0.659668
vt 0.635254 0.666016
vt 0.607422 0.666016
vt 0.635254 0.670410
vt 0.607422 0.670410
vt 0.607422 0.906250
vt 0.635254 0.906250
vt 0.635254 0.998047
vt 0.607422 0.997559
vt 0.640137 0.900879
vt 0.640137 0.997559
vt 0.668457 0.998047
vt 0.668457 0.900879
vt 0.668457 0.666992
vt 0.640137 0.666992
vt 0.668457 0.662109
vt 0.640137 0.662109
vt 0.668457 0.655762
vt 0.640137 0.655762
vt 0.668457 0.648926
vt 0.640137 0.648926
vt 0.668457 0.642090
vt 0.640137 0.642090
vt 0.668457 0.635742
vt 0.640137 0.635742
vt 0.668457 0.631348
vt 0.640137 0.631348
vt 0.640137 0.395508
vt 0.668457 0.395508
vt 0.668457 0.304199
vt 0.640137 0.304199
vt 0.368855 0.041012
vt 0.333522 0.041012
vt 0.333522 0.048605
vt 0.368855 0.048605
vt 0.298500 0.040954
vt 0.298500 0.048548
vt 0.263167 0.040954
vt 0.263167 0.048548
vt 0.228145 0.041012
vt 0.228145 0.048605
vt 0.365421 0.034906
vt 0.336956 0.034906
vt 0.330128 0.034900
vt 0.301914 0.034854
vt 0.295066 0.034849
vt 0.266601 0.034849
vt 0.259753 0.034854
vt 0.231539 0.034900
s 0
usemtl Bench_Mat
f 1/1/1 2/2/1 3/3/1
f 3/3/1 4/4/1 1/1/1
f 5/5/2 6/6/2 7/7/2
f 6/6/2 5/5/2 8/8/2
s 1
f 9/9/3 10/10/3 11/11/3
f 12/12/3 11/11/3 10/10/3
s 0
f 13/13/4 14/14/4 15/15/4
f 14/14/4 13/13/4 16/16/4
f 17/17/4 18/18/4 19/19/4
f 19/19/4 20/20/4 17/17/4
f 21/21/4 22/22/4 23/23/4
f 23/23/4 22/22/4 24/24/4
f 25/25/1 26/26/1 27/27/1
f 27/27/1 28/28/1 25/25/1
f 29/26/5 30/25/5 31/29/5
f 29/26/5 31/29/5 32/30/5
f 33/31/6 34/32/6 35/27/6
f 36/28/6 35/27/6 34/32/6
f 37/32/2 38/33/2 39/34/2
f 38/33/2 37/32/2 40/31/2
s 1
f 41/35/3 42/36/3 43/37/3
f 42/36/3 41/35/3 44/38/3
f 45/39/7 46/40/7 47/41/7
f 46/40/7 45/39/7 48/42/7
f 49/43/8 50/44/8 51/41/8
f 52/39/8 51/41/8 50/44/8
f 53/38/9 54/42/9 55/36/9
f 54/42/9 53/38/9 56/40/9
s 0
f 57/45/4 58/46/4 59/47/4
f 59/47/4 60/48/4 57/45/4
f 61/49/4 62/50/4 63/51/4
f 63/51/4 62/50/4 64/52/4
f 65/53/10 66/54/10 67/55/10
f 67/55/10 66/54/10 68/56/10
f 69/46/5 70/45/5 71/53/5
f 71/53/5 70/45/5 72/54/5
f 73/57/10 74/58/10 75/59/10
f 75/59/10 76/60/10 73/57/10
f 77/55/6 78/56/6 79/61/6
f 79/61/6 78/56/6 80/62/6
f 81/63/4 82/64/4 83/65/4
f 83/65/4 84/66/4 81/63/4
f 85/50/6 86/49/6 87/58/6
f 87/58/6 88/57/6 85/50/6
f 89/67/10 90/68/10 91/69/10
f 91/69/10 90/68/10 92/70/10
f 93/64/5 94/63/5 95/67/5
f 95/67/5 94/63/5 96/68/5
f 97/71/5 98/72/5 99/73/5
f 98/72/5 97/71/5 100/74/5
f 101/69/6 102/70/6 103/75/6
f 103/75/6 102/70/6 104/76/6
s 1
f 105/77/9 106/78/9 107/79/9
f 106/78/9 105/77/9 108/80/9
f 109/81/5 110/82/5 111/83/5
f 110/82/5 109/81/5 112/84/5
f 113/85/8 114/84/8 115/81/8
f 114/84/8 113/85/8 116/86/8
f 117/85/6 118/77/6 119/86/6
f 120/80/6 118/77/6 117/85/6
f 121/87/9 122/88/9 123/89/11
f 122/88/9 121/87/9 124/90/9
s 0
f 125/91/5 126/92/5 127/93/5
f 126/92/5 125/91/5 128/94/5
s 1
f 129/95/8 130/94/8 131/91/12
f 130/94/8 129/95/8 132/96/8
s 0
f 133/95/6 134/87/6 135/96/6
f 136/90/6 134/87/6 133/95/6
s 1
f 137/97/9 138/98/9 139/99/11
f 138/98/9 137/97/9 140/100/9
s 0
f 141/101/5 142/102/5 143/103/5
f 142/102/5 141/101/5 144/104/5
s 1
f 145/105/8 146/104/8 147/101/12
f 146/104/8 145/105/8 148/106/8
s 0
f 149/105/6 150/97/6 151/106/6
f 152/100/6 150/97/6 149/105/6
s 1
f 153/107/9 154/108/9 155/109/11
f 154/108/9 153/107/9 156/110/9
s 0
f 157/111/5 158/112/5 159/113/5
f 158/112/5 157/111/5 160/114/5
s 1
f 161/115/8 162/114/8 163/111/12
f 162/114/8 161/115/8 164/116/8
s 0
f 165/115/6 166/107/6 167/116/6
f 168/110/6 166/107/6 165/115/6
s 1
f 169/117/9 170/118/9 171/119/9
f 170/118/9 169/117/9 172/120/9
s 0
f 173/121/5 174/122/5 175/123/5
f 174/122/5 173/121/5 176/124/5
s 1
f 177/125/8 178/124/8 179/121/8
f 178/124/8 177/125/8 180/126/8
s 0
f 181/125/6 182/117/6 183/126/6
f 184/120/6 182/117/6 181/125/6
s 1
f 185/127/9 186/128/9 187/129/9
f 186/128/9 185/127/9 188/130/9
f 189/131/5 190/132/5 191/133/5
f 190/132/5 189/131/5 192/134/5
f 193/135/8 194/134/8 195/131/8
f 194/134/8 193/135/8 196/136/8
f 197/135/6 198/127/6 199/136/6
f 200/130/6 198/127/6 197/135/6
f 201/137/9 202/138/9 203/139/9
f 202/138/9 201/137/9 204/140/9
s 0
f 205/141/5 206/142/5 207/143/5
f 206/142/5 205/141/5 208/144/5
s 1
f 209/145/8 210/144/8 211/141/8
f 210/144/8 209/145/8 212/146/8
s 0
f 213/145/6 214/137/6 215/146/6
f 216/140/6 214/137/6 213/145/6
s 1
f 217/147/9 218/148/9 219/149/9
f 218/148/9 217/147/9 220/150/9
s 0
f 221/151/5 222/152/5 223/153/5
f 222/152/5 221/151/5 224/154/5
s 1
f 225/155/8 226/154/8 227/151/8
f 226/154/8 225/155/8 228/156/8
s 0
f 229/155/6 230/147/6 231/156/6
f 232/150/6 230/147/6 229/155/6
s 1
f 233/157/9 234/158/9 235/159/9
f 234/158/9 233/157/9 236/160/9
s 0
f 237/161/5 238/162/5 239/163/5
f 238/162/5 237/161/5 240/164/5
s 1
f 241/165/8 242/164/8 243/161/8
f 242/164/8 241/165/8 244/166/8
s 0
f 245/165/6 246/157/6 247/166/6
f 248/160/6 246/157/6 245/165/6
s 1
f 249/167/9 250/168/9 251/169/9
f 250/168/9 249/167/9 252/170/9
f 253/171/5 254/172/5 255/173/5
f 254/172/5 253/171/5 256/174/5
f 257/175/8 258/174/8 259/171/8
f 258/174/8 257/175/8 260/176/8
f 261/175/6 262/167/6 263/176/6
f 264/170/6 262/167/6 261/175/6
f 265/177/9 266/178/9 267/179/9
f 266/178/9 265/177/9 268/180/13
s 0
f 269/181/5 270/182/5 271/183/5
f 270/182/5 269/181/5 272/184/5
s 1
f 273/185/8 274/184/8 275/181/8
f 274/184/8 273/185/8 276/186/12
s 0
f 277/185/6 278/177/6 279/186/6
f 280/180/6 278/177/6 277/185/6
s 1
f 281/187/9 282/188/9 283/189/9
f 282/188/9 281/187/9 284/190/9
s 0
f 285/191/5 286/192/5 287/193/5
f 286/192/5 285/191/5 288/194/5
s 1
f 289/195/8 290/194/8 291/191/8
f 290/194/8 289/195/8 292/196/8
s 0
f 293/195/6 294/187/6 295/196/6
f 296/190/6 294/187/6 293/195/6
s 1
f 297/197/9 298/198/9 299/199/9
f 298/198/9 297/197/9 300/200/13
s 0
f 301/201/5 302/202/5 303/203/5
f 302/202/5 301/201/5 304/204/5
s 1
f 305/205/8 306/204/8 307/201/8
f 306/204/8 305/205/8 308/206/14
s 0
f 309/205/6 310/197/6 311/206/6
f 312/200/6 310/197/6 309/205/6
s 1
f 313/207/9 314/208/9 315/209/9
f 314/208/9 313/207/9 316/210/9
f 317/211/5 318/212/5 319/213/5
f 318/212/5 317/211/5 320/214/5
f 321/215/8 322/214/8 323/211/8
f 322/214/8 321/215/8 324/216/8
f 325/215/6 326/207/6 327/216/6
f 328/210/6 326/207/6 325/215/6
f 329/217/9 330/218/9 331/219/9
f 330/218/9 329/217/9 332/220/13
s 0
f 333/221/5 334/222/5 335/223/5
f 334/222/5 333/221/5 336/224/5
s 1
f 337/225/8 338/224/8 339/221/8
f 338/224/8 337/225/8 340/226/14
s 0
f 341/225/6 342/217/6 343/226/6
f 344/220/6 342/217/6 341/225/6
s 1
f 345/227/9 346/228/9 347/229/11
f 346/228/9 345/227/9 348/230/9
s 0
f 349/231/5 350/232/5 351/233/5
f 350/232/5 349/231/5 352/234/5
s 1
f 353/235/8 354/234/8 355/231/12
f 354/234/8 353/235/8 356/236/8
s 0
f 357/235/6 358/227/6 359/236/6
f 360/230/6 358/227/6 357/235/6
f 361/237/1 362/238/1 363/239/1
f 364/240/1 363/239/1 362/238/1
f 365/241/4 366/242/4 367/237/4
f 368/238/4 367/237/4 366/242/4
f 369/243/2 370/244/2 371/245/2
f 370/244/2 369/243/2 372/246/2
f 373/240/10 374/246/10 375/239/10
f 374/246/10 373/240/10 376/244/10
s 1
f 377/247/15 378/248/15 379/249/15
f 380/250/15 379/249/15 378/248/15
s 0
f 381/249/6 382/251/6 383/252/6
f 382/251/6 381/249/6 384/253/6
s 1
f 385/254/16 386/255/16 387/256/16
f 386/255/16 385/254/16 388/253/16
s 0
f 389/257/5 390/258/5 391/250/5
f 391/250/5 390/258/5 392/255/5
s 1
f 393/259/17 394/260/18 395/247/17
f 396/248/17 395/247/17 394/260/18
f 397/250/19 398/253/20 399/249/19
f 398/253/20 397/250/19 400/255/19
f 401/261/21 402/262/21 403/263/21
f 404/264/21 403/263/21 402/262/21
s 0
f 405/263/6 406/265/6 407/266/6
f 406/265/6 405/263/6 408/267/6
s 1
f 409/268/22 410/269/22 411/270/22
f 410/269/22 409/268/22 412/267/22
s 0
f 413/271/5 414/272/5 415/264/5
f 415/264/5 414/272/5 416/269/5
s 1
f 417/273/23 418/274/23 419/261/23
f 420/262/23 419/261/23 418/274/23
f 421/264/24 422/267/24 423/263/24
f 422/267/24 421/264/24 424/269/24
f 425/275/21 426/276/21 427/277/21
f 428/278/21 427/277/21 426/276/21
s 0
f 429/277/6 430/279/6 431/280/6
f 430/279/6 429/277/6 432/281/6
s 1
f 433/282/22 434/283/22 435/284/22
f 434/283/22 433/282/22 436/281/22
s 0
f 437/285/5 438/286/5 439/278/5
f 439/278/5 438/286/5 440/283/5
s 1
f 441/287/23 442/288/23 443/275/23
f 444/276/23 443/275/23 442/288/23
f 445/278/24 446/281/24 447/277/24
f 446/281/24 445/278/24 448/283/24
f 449/289/25 450/290/25 451/291/25
f 452/292/25 451/291/25 450/290/25
s 0
f 453/291/6 454/293/6 455/294/6
f 455/294/6 454/293/6 456/295/6
s 1
f 457/296/26 458/297/26 459/298/26
f 458/297/26 457/296/26 460/293/26
s 0
f 461/299/5 462/297/5 463/292/5
f 462/297/5 461/299/5 464/300/5
s 1
f 465/301/27 466/302/27 467/289/27
f 468/290/27 467/289/27 466/302/27
f 469/292/28 470/293/28 471/291/28
f 470/293/28 469/292/28 472/297/28
f 473/303/25 474/304/25 475/305/25
f 476/306/25 475/305/25 474/304/25
s 0
f 477/305/6 478/307/6 479/308/6
f 479/308/6 478/307/6 480/309/6
s 1
f 481/310/26 482/311/26 483/312/26
f 482/311/26 481/310/26 484/307/26
s 0
f 485/313/5 486/311/5 487/306/5
f 486/311/5 485/313/5 488/314/5
s 1
f 489/315/27 490/316/27 491/303/27
f 492/304/27 491/303/27 490/316/27
f 493/306/28 494/307/28 495/305/28
f 494/307/28 493/306/28 496/311/28
s 0
f 497/317/29 498/318/29 499/319/29
f 498/318/29 500/320/29 499/319/29
f 501/321/29 502/322/29 503/323/29
f 502/322/29 501/321/29 504/324/29
f 505/325/29 506/326/29 507/327/29
f 506/326/29 505/325/29 508/328/29
f 509/329/29 510/330/29 511/331/29
f 509/329/29 511/331/29 512/332/29
f 513/333/30 514/334/30 515/335/30
f 514/334/30 513/333/30 516/336/30
f 517/337/30 518/338/30 519/339/30
f 518/338/30 520/340/30 519/339/30
f 521/341/30 522/342/30 523/343/30
f 521/341/30 523/343/30 524/344/30
f 525/345/30 526/346/30 527/347/30
f 527/347/30 526/346/30 528/348/30
f 529/349/10 530/350/10 531/351/10
f 531/351/10 530/350/10 532/352/10
f 533/353/6 534/354/6 535/355/6
f 534/354/6 533/353/6 536/356/6
f 537/351/1 538/357/1 539/349/1
f 538/357/1 537/351/1 540/358/1
f 541/359/5 542/360/5 543/361/5
f 543/361/5 542/360/5 544/362/5
f 545/363/4 546/364/4 547/365/4
f 547/365/4 546/364/4 548/366/4
f 549/367/4 550/357/4 551/358/4
f 551/358/4 552/368/4 549/367/4
f 553/369/10 554/370/10 555/371/10
f 554/370/10 553/369/10 556/372/10
f 557/373/5 558/374/5 559/375/5
f 558/374/5 557/373/5 560/376/5
f 561/369/1 562/371/1 563/363/1
f 561/369/1 563/363/1 564/365/1
f 565/377/6 566/378/6 567/379/6
f 567/379/6 568/380/6 565/377/6
f 569/381/10 570/382/10 571/383/10
f 570/382/10 569/381/10 572/384/10
f 573/385/1 574/386/1 575/383/1
f 576/381/1 575/383/1 574/386/1
f 577/387/4 578/388/4 579/389/4
f 580/390/4 579/389/4 578/388/4
f 581/382/2 582/384/2 583/391/2
f 584/392/2 583/391/2 582/384/2
f 585/393/5 586/394/5 587/395/5
f 588/396/5 587/395/5 586/394/5
f 588/396/5 589/397/5 587/395/5
f 590/398/6 591/399/6 592/400/6
f 592/400/6 591/399/6 593/401/6
f 592/400/6 593/401/6 594/402/6
f 595/403/5 596/404/5 597/405/5
f 598/406/5 597/405/5 596/404/5
f 598/406/5 599/407/5 597/405/5
f 599/407/5 598/406/5 600/408/5
f 600/408/5 601/409/5 599/407/5
f 599/407/5 601/409/5 602/410/5
f 599/407/5 602/410/5 603/411/5
f 604/412/6 605/413/6 606/414/6
f 606/414/6 607/415/6 604/412/6
f 608/416/6 607/415/6 606/414/6
f 607/415/6 608/416/6 609/417/6
f 608/416/6 610/418/6 609/417/6
f 610/418/6 608/416/6 611/419/6
f 611/419/6 608/416/6 612/420/6
f 613/421/5 614/422/5 615/423/5
f 616/424/5 615/423/5 614/422/5
f 616/424/5 617/425/5 615/423/5
f 617/425/5 616/424/5 618/426/5
f 618/426/5 619/427/5 617/425/5
f 619/427/5 620/428/5 617/425/5
f 621/429/6 622/430/6 623/431/6
f 623/431/6 624/432/6 621/429/6
f 625/433/6 624/432/6 623/431/6
f 624/432/6 625/433/6 626/434/6
f 625/433/6 627/435/6 626/434/6
f 625/433/6 628/436/6 627/435/6
f 629/437/6 630/438/6 631/439/6
f 631/439/6 632/440/6 629/437/6
f 633/441/6 632/440/6 631/439/6
f 632/440/6 633/441/6 634/442/6
f 635/443/6 634/442/6 633/441/6
f 636/444/6 635/443/6 633/441/6
f 637/445/5 638/446/5 639/447/5
f 640/448/5 639/447/5 638/446/5
f 640/448/5 641/449/5 639/447/5
f 641/449/5 640/448/5 642/450/5
f 643/451/5 641/449/5 642/450/5
f 644/452/5 641/449/5 643/451/5
f 645/453/2 646/454/2 647/455/2
f 647/455/2 648/456/2 645/453/2
f 648/456/2 647/455/2 649/457/2
f 649/457/2 650/458/2 648/456/2
f 650/458/2 651/459/2 648/456/2
f 652/460/2 648/456/2 651/459/2
f 648/456/2 652/460/2 653/461/2
f 652/460/2 654/462/2 653/461/2
f 655/463/1 656/464/1 657/465/1
f 657/465/1 658/466/1 655/463/1
f 658/466/1 657/465/1 659/467/1
f 659/467/1 660/468/1 658/466/1
f 660/468/1 661/469/1 658/466/1
f 662/470/1 658/466/1 661/469/1
f 658/466/1 662/470/1 663/471/1
f 662/470/1 664/472/1 663/471/1
s 1
f 665/331/31 666/330/31 667/473/32
f 667/473/32 668/474/33 665/331/31
f 667/473/32 669/475/34 668/474/33
f 669/475/34 670/476/35 668/474/33
f 669/475/34 671/477/29 670/476/35
f 671/477/29 672/478/29 670/476/35
f 671/477/29 673/479/36 672/478/29
f 673/479/36 674/480/37 672/478/29
f 673/479/36 675/481/38 674/480/37
f 675/481/38 676/482/38 674/480/37
f 677/326/39 676/482/38 675/481/38
f 676/482/38 677/326/39 678/328/40
f 679/317/39 680/319/40 681/483/38
f 681/483/38 680/319/40 682/484/41
f 682/484/41 683/485/36 681/483/38
f 683/485/36 682/484/41 684/486/36
f 683/485/36 684/486/36 685/487/29
f 685/487/29 684/486/36 686/488/29
f 685/487/29 686/488/29 687/489/34
f 687/489/34 686/488/29 688/490/34
f 688/490/34 689/491/32 687/489/34
f 689/491/32 688/490/34 690/492/32
f 690/492/32 691/321/42 689/491/32
f 691/321/42 690/492/32 692/324/42
s 0
f 693/493/2 694/494/2 695/495/2
f 696/496/2 695/495/2 694/494/2
f 695/495/2 696/496/2 697/497/2
f 698/498/2 697/497/2 696/496/2
f 699/499/2 698/498/2 696/496/2
f 696/496/2 700/500/2 699/499/2
f 700/500/2 696/496/2 701/501/2
f 702/502/2 700/500/2 701/501/2
f 703/503/1 704/504/1 705/505/1
f 706/506/1 705/505/1 704/504/1
f 705/505/1 706/506/1 707/507/1
f 708/508/1 707/507/1 706/506/1
f 709/509/1 708/508/1 706/506/1
f 706/506/1 710/510/1 709/509/1
f 710/510/1 706/506/1 711/511/1
f 712/512/1 710/510/1 711/511/1
s 1
f 713/337/43 714/339/43 715/513/44
f 715/513/44 714/339/43 716/514/44
f 717/515/45 715/513/44 716/514/44
f 717/515/45 716/514/44 718/516/45
f 719/517/30 717/515/45 718/516/45
f 719/517/30 718/516/45 720/518/30
f 721/519/46 719/517/30 720/518/30
f 721/519/46 720/518/30 722/520/47
f 723/521/48 721/519/46 722/520/47
f 723/521/48 722/520/47 724/522/48
f 724/522/48 725/333/49 723/521/48
f 725/333/49 724/522/48 726/336/50
s 0
f 727/523/1 728/524/1 729/525/1
f 729/525/1 730/526/1 727/523/1
f 730/526/1 729/525/1 731/527/1
f 731/527/1 732/528/1 730/526/1
f 732/528/1 733/529/1 730/526/1
f 734/530/1 730/526/1 733/529/1
f 730/526/1 734/530/1 735/531/1
f 734/530/1 736/532/1 735/531/1
f 737/533/2 738/534/2 739/535/2
f 739/535/2 740/536/2 737/533/2
f 740/536/2 739/535/2 741/537/2
f 741/537/2 742/538/2 740/536/2
f 742/538/2 743/539/2 740/536/2
f 744/540/2 740/536/2 743/539/2
f 740/536/2 744/540/2 745/541/2
f 744/540/2 746/542/2 745/541/2
s 1
f 747/343/50 748/342/49 749/543/48
f 749/543/48 750/544/51 747/343/50
f 751/545/46 750/544/51 749/543/48
f 750/544/51 751/545/46 752/546/46
f 753/547/30 752/546/46 751/545/46
f 752/546/46 753/547/30 754/548/30
f 755/549/45 754/548/30 753/547/30
f 754/548/30 755/549/45 756/550/45
f 757/551/44 756/550/45 755/549/45
f 756/550/45 757/551/44 758/552/44
f 759/347/52 758/552/44 757/551/44
f 758/552/44 759/347/52 760/348/52
s 0
f 761/553/1 762/554/1 763/555/1
f 764/556/1 763/555/1 762/554/1
f 763/555/1 764/556/1 765/557/1
f 766/558/1 765/557/1 764/556/1
f 767/559/1 766/558/1 764/556/1
f 764/556/1 768/560/1 767/559/1
f 768/560/1 764/556/1 769/561/1
f 770/562/1 768/560/1 769/561/1
f 771/563/2 772/564/2 773/565/2
f 774/566/2 773/565/2 772/564/2
f 773/565/2 774/566/2 775/567/2
f 776/568/2 775/567/2 774/566/2
f 777/569/2 776/568/2 774/566/2
f 774/566/2 778/570/2 777/569/2
f 778/570/2 774/566/2 779/571/2
f 780/572/2 778/570/2 779/571/2
s 1
f 781/12/8 782/573/53 783/11/8
f 782/573/53 781/12/8 784/574/53
f 784/574/53 785/575/54 782/573/53
f 785/575/54 784/574/53 786/576/55
f 785/575/54 786/576/55 787/577/56
f 788/578/57 787/577/56 786/576/55
f 788/578/57 789/579/58 787/577/56
f 789/579/58 788/578/57 790/580/59
f 789/579/58 790/580/59 791/581/60
f 792/582/61 791/581/60 790/580/59
f 792/582/61 793/583/62 791/581/60
f 793/583/62 792/582/61 794/584/62
f 794/584/62 795/585/9 793/583/62
f 795/585/9 794/584/62 796/586/9
f 797/587/10 798/588/63 799/589/10
f 798/588/63 797/587/10 800/590/63
f 800/590/63 801/591/64 798/588/63
f 801/591/64 800/590/63 802/592/64
f 801/591/64 802/592/64 803/593/65
f 801/591/64 803/593/65 804/594/66
f 804/594/66 803/593/65 805/595/67
f 804/594/66 805/595/67 806/596/67
f 807/597/68 806/596/67 805/595/67
f 806/596/67 807/597/68 808/598/69
f 807/597/68 809/599/70 808/598/69
f 808/598/69 809/599/70 810/600/70
f 811/601/28 812/602/68 813/603/68
f 814/604/28 812/602/68 811/601/28
f 815/605/70 814/604/28 811/601/28
f 816/606/70 814/604/28 815/605/70
f 817/607/65 816/606/70 815/605/70
f 818/608/65 816/606/70 817/607/65
f 819/609/64 818/608/65 817/607/65
f 820/610/64 818/608/65 819/609/64
f 819/609/64 821/611/71 820/610/64
f 821/611/71 819/609/64 822/612/71
f 823/613/28 824/614/68 825/615/68
f 825/615/68 826/616/28 823/613/28
f 826/616/28 827/617/70 823/613/28
f 827/617/70 826/616/28 828/618/70
f 829/619/65 827/617/70 828/618/70
f 828/618/70 830/620/65 829/619/65
f 831/621/64 829/619/65 830/620/65
f 830/620/65 832/622/64 831/621/64
f 833/623/71 831/621/64 832/622/64
f 834/624/71 831/621/64 833/623/71
s 0
f 835/625/6 836/626/6 837/627/6
f 836/626/6 835/625/6 838/628/6
f 838/628/6 839/629/6 836/626/6
f 839/629/6 838/628/6 840/630/6
f 841/631/6 840/630/6 842/632/6
f 839/629/6 840/630/6 841/631/6
f 843/633/6 839/629/6 841/631/6
f 839/629/6 843/633/6 844/634/6
f 844/634/6 845/635/6 839/629/6
f 846/636/5 847/637/5 848/638/5
f 849/639/5 848/638/5 847/637/5
f 850/640/5 849/639/5 847/637/5
f 849/639/5 850/640/5 851/641/5
f 851/641/5 852/642/5 853/643/5
f 851/641/5 850/640/5 852/642/5
f 850/640/5 854/644/5 852/642/5
f 854/644/5 850/640/5 855/645/5
f 850/640/5 856/646/5 855/645/5
f 857/647/5 858/648/5 859/649/5
f 858/648/5 857/647/5 860/650/5
f 861/651/5 860/650/5 857/647/5
f 860/650/5 861/651/5 862/652/5
f 862/652/5 863/653/5 864/654/5
f 862/652/5 861/651/5 863/653/5
f 861/651/5 865/655/5 863/653/5
f 865/655/5 861/651/5 866/656/5
f 867/657/5 866/656/5 861/651/5
f 868/658/6 869/659/6 870/660/6
f 868/658/6 871/661/6 869/659/6
f 871/661/6 872/662/6 869/659/6
f 872/662/6 871/661/6 873/663/6
f 874/664/6 873/663/6 875/665/6
f 872/662/6 873/663/6 874/664/6
f 876/666/6 872/662/6 874/664/6
f 872/662/6 876/666/6 877/667/6
f 878/668/6 872/662/6 877/667/6
s 1
f 879/669/72 880/670/1 881/671/1
f 881/671/1 882/672/72 879/669/72
f 882/672/72 883/673/73 879/669/72
f 883/673/73 882/672/72 884/674/73
f 884/674/73 885/675/74 883/673/73
f 885/675/74 884/674/73 886/676/75
f 886/676/75 887/677/76 885/675/74
f 887/677/76 886/676/75 888/678/76
f 888/678/76 889/679/77 887/677/76
f 889/679/77 888/678/76 890/680/77
s 0
f 891/681/5 892/682/5 893/683/5
f 891/681/5 893/683/5 894/684/5
f 895/685/5 891/681/5 894/684/5
f 895/685/5 894/684/5 896/686/5
f 896/686/5 897/687/5 895/685/5
f 897/687/5 896/686/5 898/688/5
f 898/688/5 899/689/5 897/687/5
f 899/689/5 898/688/5 900/690/5
f 901/691/5 899/689/5 900/690/5
f 899/689/5 901/691/5 902/692/5
f 903/693/6 904/694/6 905/695/6
f 906/696/6 905/695/6 904/694/6
f 907/697/6 906/696/6 904/694/6
f 906/696/6 907/697/6 908/698/6
f 909/699/6 908/698/6 907/697/6
f 908/698/6 909/699/6 910/700/6
f 911/701/6 910/700/6 909/699/6
f 910/700/6 911/701/6 912/702/6
f 911/701/6 913/703/6 912/702/6
f 914/704/6 913/703/6 911/701/6
s 1
f 915/705/2 916/706/78 917/707/2
f 916/706/78 915/705/2 918/708/79
f 916/706/78 918/708/79 919/709/80
f 920/710/81 919/709/80 918/708/79
f 919/709/80 920/710/81 921/711/82
f 922/712/82 921/711/82 920/710/81
f 921/711/82 922/712/82 923/713/83
f 922/712/82 924/714/83 923/713/83
f 923/713/83 924/714/83 925/715/84
f 924/714/83 926/716/84 925/715/84
f 927/717/72 928/718/1 929/719/1
f 930/720/72 928/718/1 927/717/72
f 931/721/73 930/720/72 927/717/72
f 932/722/73 930/720/72 931/721/73
f 933/723/74 932/722/73 931/721/73
f 933/723/74 934/724/75 932/722/73
f 935/725/76 934/724/75 933/723/74
f 935/725/76 936/726/76 934/724/75
f 937/727/77 936/726/76 935/725/76
f 938/728/77 936/726/76 937/727/77
s 0
f 939/729/6 940/730/6 941/731/6
f 940/730/6 939/729/6 942/732/6
f 939/729/6 943/733/6 942/732/6
f 943/733/6 944/734/6 942/732/6
f 945/735/6 944/734/6 943/733/6
f 945/735/6 946/736/6 944/734/6
f 947/737/6 946/736/6 945/735/6
f 947/737/6 948/738/6 946/736/6
f 947/737/6 949/739/6 948/738/6
f 949/739/6 947/737/6 950/740/6
f 951/741/5 952/742/5 953/743/5
f 951/741/5 953/743/5 954/744/5
f 954/744/5 955/745/5 951/741/5
f 955/745/5 954/744/5 956/746/5
f 956/746/5 957/747/5 955/745/5
f 957/747/5 956/746/5 958/748/5
f 958/748/5 959/749/5 957/747/5
f 959/749/5 958/748/5 960/750/5
f 961/751/5 959/749/5 960/750/5
f 959/749/5 961/751/5 962/752/5
s 1
f 963/753/78 964/754/2 965/755/2
f 964/754/2 963/753/78 966/756/79
f 966/756/79 963/753/78 967/757/80
f 966/756/79 967/757/80 968/758/80
f 968/758/80 967/757/80 969/759/82
f 968/758/80 969/759/82 970/760/82
f 970/760/82 969/759/82 971/761/83
f 970/760/82 971/761/83 972/762/83
f 972/762/83 971/761/83 973/763/84
f 972/762/83 973/763/84 974/764/84
f 975/765/85 976/766/1 977/767/1
f 978/768/85 976/766/1 975/765/85
f 975/765/85 979/769/86 978/768/85
f 979/769/86 975/765/85 980/770/87
f 980/770/87 981/771/88 979/769/86
f 981/771/88 980/770/87 982/772/88
f 981/771/88 982/772/88 983/773/89
f 984/774/90 983/773/89 982/772/88
f 983/773/89 984/774/90 985/775/7
f 986/776/7 985/775/7 984/774/90
f 985/775/7 986/776/7 987/777/91
f 988/778/91 987/777/91 986/776/7
f 987/777/91 988/778/91 989/779/92
f 990/780/93 989/779/92 988/778/91
f 990/780/93 991/781/94 989/779/92
f 991/781/94 990/780/93 992/782/94
f 993/783/95 991/781/94 992/782/94
f 994/784/95 991/781/94 993/783/95
f 993/783/95 995/785/2 994/784/95
f 995/785/2 993/783/95 996/786/2
f 997/787/85 998/788/1 999/789/1
f 999/789/1 1000/790/85 997/787/85
f 1001/791/86 997/787/85 1000/790/85
f 1002/792/87 997/787/85 1001/791/86
f 1003/793/88 1002/792/87 1001/791/86
f 1003/793/88 1004/794/88 1002/792/87
f 1004/794/88 1003/793/88 1005/795/89
f 1004/794/88 1005/795/89 1006/796/90
f 1006/796/90 1005/795/89 1007/797/7
f 1006/796/90 1007/797/7 1008/798/7
f 1008/798/7 1007/797/7 1009/799/91
f 1008/798/7 1009/799/91 1010/800/91
f 1010/800/91 1009/799/91 1011/801/92
f 1010/800/91 1011/801/92 1012/802/93
f 1013/803/94 1012/802/93 1011/801/92
f 1013/803/94 1014/804/94 1012/802/93
f 1015/805/95 1014/804/94 1013/803/94
f 1013/803/94 1016/806/95 1015/805/95
f 1017/807/2 1015/805/95 1016/806/95
f 1015/805/95 1017/807/2 1018/808/2
s 0
f 1019/809/96 1020/810/96 1021/811/96
f 1019/809/96 1021/811/96 1022/812/96
f 1023/810/6 1024/813/6 1025/814/6
f 1023/810/6 1025/814/6 1026/811/6
f 1027/813/97 1028/815/97 1029/816/97
f 1027/813/97 1029/816/97 1030/814/97
f 1031/815/5 1032/817/5 1033/818/5
f 1031/815/5 1033/818/5 1034/816/5
f 1035/810/98 1036/809/98 1037/819/98
f 1035/810/98 1037/819/98 1038/820/98
f 1039/813/99 1040/810/99 1041/821/99
f 1039/813/99 1041/821/99 1042/822/99
f 1043/815/100 1044/813/100 1045/823/100
f 1043/815/100 1045/823/100 1046/824/100
f 1047/817/101 1048/815/101 1049/825/101
f 1047/817/101 1049/825/101 1050/826/101
f 1051/809/96 1052/810/96 1053/811/96
f 1051/809/96 1053/811/96 1054/812/96
f 1055/810/6 1056/813/6 1057/814/6
f 1055/810/6 1057/814/6 1058/811/6
f 1059/813/97 1060/815/97 1061/816/97
f 1059/813/97 1061/816/97 1062/814/97
f 1063/815/5 1064/817/5 1065/818/5
f 1063/815/5 1065/818/5 1066/816/5
f 1067/810/98 1068/809/98 1069/819/98
f 1067/810/98 1069/819/98 1070/820/98
f 1071/813/99 1072/810/99 1073/821/99
f 1071/813/99 1073/821/99 1074/822/99
f 1075/815/100 1076/813/100 1077/823/100
f 1075/815/100 1077/823/100 1078/824/100
f 1079/817/101 1080/815/101 1081/825/101
f 1079/817/101 1081/825/101 1082/826/101
f 1083/809/96 1084/810/96 1085/811/96
f 1083/809/96 1085/811/96 1086/812/96
f 1087/810/6 1088/813/6 1089/814/6
f 1087/810/6 1089/814/6 1090/811/6
f 1091/813/97 1092/815/97 1093/816/97
f 1091/813/97 1093/816/97 1094/814/97
f 1095/815/5 1096/817/5 1097/818/5
f 1095/815/5 1097/818/5 1098/816/5
f 1099/810/98 1100/809/98 1101/819/98
f 1099/810/98 1101/819/98 1102/820/98
f 1103/813/99 1104/810/99 1105/821/99
f 1103/813/99 1105/821/99 1106/822/99
f 1107/815/100 1108/813/100 1109/823/100
f 1107/815/100 1109/823/100 1110/824/100
f 1111/817/101 1112/815/101 1113/825/101
f 1111/817/101 1113/825/101 1114/826/101
f 1115/809/96 1116/810/96 1117/811/96
f 1115/809/96 1117/811/96 1118/812/96
f 1119/810/6 1120/813/6 1121/814/6
f 1119/810/6 1121/814/6 1122/811/6
f 1123/813/97 1124/815/97 1125/816/97
f 1123/813/97 1125/816/97 1126/814/97
f 1127/815/5 1128/817/5 1129/818/5
f 1127/815/5 1129/818/5 1130/816/5
f 1131/810/98 1132/809/98 1133/819/98
f 1131/810/98 1133/819/98 1134/820/98
f 1135/813/99 1136/810/99 1137/821/99
f 1135/813/99 1137/821/99 1138/822/99
f 1139/815/100 1140/813/100 1141/823/100
f 1139/815/100 1141/823/100 1142/824/100
f 1143/817/101 1144/815/101 1145/825/101
f 1143/817/101 1145/825/101 1146/826/101
