# This file uses centimeters as units for non-parametric coordinates.

mtllib jumppad.mtl
g default
v -91.671898 41.024971 91.671898
v 91.671898 41.024971 -91.671898
v -91.671898 41.024971 -91.671898
v 91.671898 41.024971 91.671898
v -130.483994 1.368164 130.483994
v 130.483994 1.368164 -130.483994
v -130.483994 1.368164 -130.483994
v 130.483994 1.368164 130.483994
v 253.983994 -79.413033 -25.890600
v 254.358994 -64.944229 24.984400
v 253.983994 -64.944229 -25.890600
v 254.358994 -79.413033 24.984400
v 140.906006 -79.413033 -141.921997
v 192.983994 -49.413033 -52.453098
v 140.906006 -49.413033 -141.921997
v 192.983994 -79.413033 -52.453098
v 51.062500 -79.413033 -193.358994
v 51.062500 -49.413033 -193.358994
v -31.843800 -79.413033 -253.983994
v 30.734400 -64.944229 -254.358994
v -31.843800 -64.944229 -253.983994
v 30.734400 -79.413033 -254.358994
v -141.921997 -79.413033 -140.906006
v -52.453098 -49.413033 -192.983994
v -141.921997 -49.413033 -140.906006
v -52.453098 -79.413033 -192.983994
v -193.358994 -79.413033 -51.062500
v -193.358994 -49.413033 -51.062500
v -253.983994 -79.413033 25.890600
v -254.358994 -64.944229 -24.984400
v -253.983994 -64.944229 25.890600
v -254.358994 -79.413033 -24.984400
v -140.906006 -79.413033 141.921997
v -192.983994 -49.413033 52.453098
v -140.906006 -49.413033 141.921997
v -192.983994 -79.413033 52.453098
v -51.062500 -79.413033 193.358994
v -51.062500 -49.413033 193.358994
v 31.843800 -79.413033 253.983994
v -30.734400 -64.944229 254.358994
v 31.843800 -64.944229 253.983994
v -30.734400 -79.413033 254.358994
v 141.921997 -79.413033 140.906006
v 52.453098 -49.413033 192.983994
v 141.921997 -49.413033 140.906006
v 52.453098 -79.413033 192.983994
v 193.358994 -79.413033 51.062500
v 193.358994 -49.413033 51.062500
v 47.390598 -45.147434 -179.483994
v 129.171997 -52.834930 -130.125000
v 46.812500 -52.834930 -177.281006
v 130.796997 -45.147434 -131.750000
v 253.983994 -79.413033 -25.890600
v 253.983994 -64.944229 -25.890600
v 193.358994 -49.413033 51.062500
v 253.983994 -64.944229 -25.890600
v 254.358994 -64.944229 24.984400
v 192.983994 -49.413033 -52.453098
v 254.358994 -64.944229 24.984400
v 254.358994 -79.413033 24.984400
v -131.750000 -45.147434 -130.796997
v -48.093800 -52.834930 -176.938004
v -130.125000 -52.834930 -129.171997
v -48.687500 -45.147434 -179.141006
v -31.843800 -79.413033 -253.983994
v -31.843800 -64.944229 -253.983994
v 51.062500 -49.413033 -193.358994
v -31.843800 -64.944229 -253.983994
v 30.734400 -64.944229 -254.358994
v -52.453098 -49.413033 -192.983994
v 30.734400 -64.944229 -254.358994
v 30.734400 -79.413033 -254.358994
v 176.938004 -52.834930 -48.093800
v 179.141006 -45.147434 -48.687500
v -253.983994 -79.413033 25.890600
v -253.983994 -64.944229 25.890600
v -193.358994 -49.413033 -51.062500
v -253.983994 -64.944229 25.890600
v -254.358994 -64.944229 -24.984400
v -192.983994 -49.413033 52.453098
v -254.358994 -64.944229 -24.984400
v -254.358994 -79.413033 -24.984400
v 31.843800 -79.413033 253.983994
v 31.843800 -64.944229 253.983994
v -51.062500 -49.413033 193.358994
v 31.843800 -64.944229 253.983994
v -30.734400 -64.944229 254.358994
v 52.453098 -49.413033 192.983994
v -30.734400 -64.944229 254.358994
v -30.734400 -79.413033 254.358994
v 43.281200 -27.413033 11.421900
v 31.890600 -27.428631 31.656200
v 43.515598 -27.444233 -11.828100
v -31.718800 -27.444233 31.953100
v 11.781200 -27.428631 43.359402
v -11.421900 -27.413033 43.281200
v -31.953100 -27.444233 -31.718800
v -43.359402 -27.428631 11.781200
v -43.281200 -27.413033 -11.421900
v 31.656200 -27.428631 -31.890600
v -11.781200 -27.428631 -43.359402
v 11.421900 -27.413033 -43.281200
v 177.281006 -52.834930 46.812500
v 95.484398 -38.288033 94.796898
v 130.093994 -38.288033 34.343800
v 130.125000 -52.834930 129.171997
v 176.938004 -52.834930 -48.093800
v 129.843994 -38.288033 -35.296902
v 35.296902 -38.288033 129.843994
v 48.093800 -52.834930 176.938004
v -46.812500 -52.834930 177.281006
v -94.796898 -38.288033 95.484398
v -34.343800 -38.288033 130.093994
v -129.171997 -52.834930 130.125000
v -129.843994 -38.288033 35.296902
v -176.938004 -52.834930 48.093800
v -177.281006 -52.834930 -46.812500
v -95.484398 -38.288033 -94.796898
v -130.093994 -38.288033 -34.343800
v -130.125000 -52.834930 -129.171997
v 129.171997 -52.834930 -130.125000
v 94.796898 -38.288033 -95.484398
v -35.296902 -38.288033 -129.843994
v -48.093800 -52.834930 -176.938004
v 46.812500 -52.834930 -177.281006
v 34.343800 -38.288033 -130.093994
v 131.750000 -45.147434 130.796997
v 179.483994 -45.147434 47.390598
v 141.921997 -49.413033 140.906006
v 179.141006 -45.147434 -48.687500
v 48.687500 -45.147434 179.141006
v -130.796997 -45.147434 131.750000
v -47.390598 -45.147434 179.483994
v -140.906006 -49.413033 141.921997
v -179.141006 -45.147434 48.687500
v -131.750000 -45.147434 -130.796997
v -179.483994 -45.147434 -47.390598
v -141.921997 -49.413033 -140.906006
v 140.906006 -49.413033 -141.921997
v 130.796997 -45.147434 -131.750000
v -48.687500 -45.147434 -179.141006
v 47.390598 -45.147434 -179.483994
v 179.483994 -45.147434 47.390598
v 130.125000 -52.834930 129.171997
v 177.281006 -52.834930 46.812500
v 131.750000 -45.147434 130.796997
v 179.141006 -45.147434 -48.687500
v 177.281006 -52.834930 46.812500
v 176.938004 -52.834930 -48.093800
v 179.483994 -45.147434 47.390598
v 131.750000 -45.147434 130.796997
v 48.093800 -52.834930 176.938004
v 130.125000 -52.834930 129.171997
v 48.687500 -45.147434 179.141006
v -47.390598 -45.147434 179.483994
v -129.171997 -52.834930 130.125000
v -46.812500 -52.834930 177.281006
v -130.796997 -45.147434 131.750000
v -130.796997 -45.147434 131.750000
v -176.938004 -52.834930 48.093800
v -129.171997 -52.834930 130.125000
v -179.141006 -45.147434 48.687500
v -179.483994 -45.147434 -47.390598
v -177.281006 -52.834930 -46.812500
v -179.141006 -45.147434 48.687500
v -177.281006 -52.834930 -46.812500
v -176.938004 -52.834930 48.093800
v -179.483994 -45.147434 -47.390598
v 127.265999 -261.913025 -127.265999
v -127.265999 103.086967 127.265999
v 127.265999 103.070961 -127.265999
v -127.265999 -261.897034 127.265999
vt 0.000000 0.000000
vt 0.000000 1.000000
vt 1.000000 1.000000
vt 1.000000 0.000000
vn 0.000000 -1.000000 0.000000
vn 0.000000 -1.000000 0.000000
vn 0.000000 -1.000000 0.000000
vn 0.000000 -1.000000 0.000000
s off
g jumppad:_0
usemtl jumppad:MD3__default__upper_ring_
f 1/1/1 3/2/2 2/3/3 4/4/4
g default
v -130.483994 33.648132 130.483994
v -130.483994 33.648132 -130.483994
v 130.483994 33.648132 -130.483994
v 130.483994 33.648132 130.483994
vt 0.000000 0.000000
vt 0.000000 1.000000
vt 1.000000 1.000000
vt 1.000000 0.000000
vn 0.000000 -1.000000 0.000000
vn 0.000000 -1.000000 0.000000
vn 0.000000 -1.000000 0.000000
vn 0.000000 -1.000000 0.000000
s off
g jumppad:_1
usemtl jumppad:MD3__default__lower_ring_
f 173/5/5 174/6/6 175/7/7 176/8/8
g default
v 152.390396 0.000000 -15.534361
v 152.615402 0.000000 14.990641
v 84.543610 0.000000 -85.153198
v 115.790398 0.000000 -31.471863
v 30.637501 0.000000 -116.015411
v -19.106281 0.000000 -152.390396
v 18.440641 0.000000 -152.615402
v -85.153198 0.000000 -84.543610
v -31.471863 0.000000 -115.790398
v -116.015411 0.000000 -30.637501
v -152.390396 0.000000 15.534361
v -152.615402 0.000000 -14.990641
v -84.543610 0.000000 85.153198
v -115.790398 0.000000 31.471863
v -30.637501 0.000000 116.015411
v 19.106281 0.000000 152.390396
v -18.440641 0.000000 152.615402
v 85.153198 0.000000 84.543610
v 31.471863 0.000000 115.790398
v 116.015411 0.000000 30.637501
v 28.434361 22.272638 -107.690399
v 26.942982 18.544926 -102.034264
v 74.345078 18.544926 -74.893578
v 78.478203 22.272638 -79.050003
v -79.050003 22.272638 -78.478203
v -74.893578 18.544926 -74.345078
v -27.680435 18.544926 -101.836845
v -29.212502 22.272638 -107.484619
v 101.836868 18.544926 -27.680437
v 107.484619 22.272640 -29.212502
v 24.910540 32.530838 6.573887
v 25.045446 32.513672 -6.807675
v 18.354668 32.522255 18.219759
v -18.255787 32.513672 18.390640
v 6.780682 32.522255 24.955547
v -6.573887 32.530838 24.910540
v -18.390640 32.513672 -18.255787
v -24.955547 32.522255 6.780682
v -24.910540 32.530838 -6.573887
v 18.219759 32.522255 -18.354668
v -6.780682 32.522255 -24.955547
v 6.573887 32.530838 -24.910540
v 102.034264 18.544926 26.942982
v 74.875725 26.547934 19.766609
v 54.956142 26.547934 54.560448
v 74.893578 18.544926 74.345078
v 74.731842 26.547934 -20.315168
v 20.315168 26.547934 74.731842
v 27.680435 18.544926 101.836845
v -26.942982 18.544926 102.034264
v -19.766609 26.547934 74.875725
v -54.560448 26.547934 54.956142
v -74.345078 18.544926 74.893578
v -74.731842 26.547934 20.315168
v -101.836868 18.544926 27.680437
v -102.034264 18.544926 -26.942982
v -74.875725 26.547934 -19.766609
v -54.956142 26.547934 -54.560448
v 54.560448 26.547934 -54.956142
v -20.315168 26.547934 -74.731842
v 19.766609 26.547934 -74.875725
v 107.690399 22.272640 28.434362
v 79.050003 22.272640 78.478203
v 29.212502 22.272638 107.484619
v -28.434361 22.272638 107.690399
v -78.478203 22.272640 79.050003
v -107.484619 22.272640 29.212502
v -107.690399 22.272640 -28.434362
v 84.543610 17.850142 -85.153198
v 83.401581 20.022047 -84.004059
v 115.790398 17.747482 -31.471863
v 114.611877 19.894674 -30.092953
v 30.637501 17.734015 -116.015411
v 29.173573 19.883339 -114.860268
v -85.153198 17.850142 -84.543610
v -84.004059 20.022047 -83.401581
v -31.471863 17.735533 -115.790398
v -30.010773 19.884829 -114.641708
v -116.015411 17.745691 -30.637501
v -114.831749 19.892942 -29.254000
v -84.543610 17.850142 85.153198
v -83.401581 20.022047 84.004059
v -115.790398 17.747482 31.471863
v -114.611877 19.894674 30.092953
v -30.637501 17.734015 116.015411
v -29.173573 19.883339 114.860268
v 85.153198 17.850142 84.543610
v 84.004059 20.022047 83.401581
v 31.471863 17.735533 115.790398
v 30.010773 19.884829 114.641708
v 116.015411 17.745691 30.637501
v 114.831749 19.892942 29.254000
v 152.404816 9.404719 -13.578406
v 152.390396 7.549988 -15.534361
v 152.615402 7.544744 14.990642
v 152.601074 9.404719 13.046343
v -17.192984 9.404719 -152.401855
v -19.106281 7.527926 -152.390396
v 18.440641 7.523963 -152.615402
v 16.533110 9.404719 -152.603973
v -152.404816 9.404719 13.578406
v -152.390396 7.549988 15.534361
v -152.615402 7.544744 -14.990642
v -152.601074 9.404719 -13.046343
v 17.192984 9.404719 152.401855
v 19.106281 7.527926 152.390396
v -18.440641 7.523963 152.615402
v -16.533110 9.404719 152.603973
vt 0.972752 0.333301
vt 0.953452 0.334753
vt 0.953617 0.128021
vt 0.972919 0.123987
vt 0.972394 0.782930
vt 0.953098 0.778836
vt 0.953262 0.572967
vt 0.972560 0.574490
vt 0.953712 0.008167
vt 0.973016 0.002636
vt 0.457408 0.639885
vt 0.418171 0.640261
vt 0.491526 0.620915
vt 0.492029 0.515075
vt 0.511266 0.587471
vt 0.511147 0.548840
vt 0.384609 0.514692
vt 0.458007 0.495718
vt 0.418842 0.495835
vt 0.384336 0.620532
vt 0.364984 0.548249
vt 0.365103 0.586880
vt 0.517084 0.862786
vt 0.496072 0.784300
vt 0.598026 0.726725
vt 0.656010 0.784332
vt 0.357001 0.862214
vt 0.378590 0.783880
vt 0.657135 0.626581
vt 0.736554 0.647875
vt 0.737133 0.489977
vt 0.657561 0.510704
vt 0.599188 0.410141
vt 0.657593 0.352949
vt 0.497659 0.351839
vt 0.519247 0.273505
vt 0.359163 0.272933
vt 0.380177 0.351420
vt 0.278222 0.408995
vt 0.220237 0.351387
vt 0.218654 0.782771
vt 0.277060 0.725578
vt 0.219113 0.509138
vt 0.139694 0.487844
vt 0.139114 0.645742
vt 0.218688 0.625016
vt 0.993462 0.902786
vt 0.974167 0.897214
vt 0.974262 0.778853
vt 0.993558 0.782947
vt 0.842809 0.260993
vt 0.823747 0.260730
vt 0.823974 0.219252
vt 0.843038 0.218997
vt 0.974262 0.778853
vt 0.974426 0.572984
vt 0.993724 0.574507
vt 0.993916 0.333318
vt 0.974616 0.334769
vt 0.974781 0.128038
vt 0.994083 0.124004
vt 0.974781 0.128038
vt 0.974876 0.008184
vt 0.994180 0.002653
vt 0.972298 0.902769
vt 0.953003 0.897197
vt 0.845147 0.218997
vt 0.864208 0.219259
vt 0.863982 0.260737
vt 0.844918 0.260993
vt 0.475679 0.100929
vt 0.400823 0.100929
vt 0.395357 0.076836
vt 0.996568 0.975999
vt 0.996568 0.995282
vt 0.991189 1.000090
vt 0.896378 1.000090
vt 0.891015 0.995272
vt 0.891015 0.975999
vt 0.475679 0.033070
vt 0.400823 0.033070
vt 0.395357 0.008976
vt 0.996568 0.933386
vt 0.996568 0.952672
vt 0.991189 0.957480
vt 0.896378 0.957480
vt 0.891015 0.952662
vt 0.891015 0.933386
vt 0.676217 0.126418
vt 0.677775 0.126743
vt 0.764208 0.126743
vt 0.526158 0.126743
vt 0.481178 0.100929
vt 0.481178 0.096178
vt 0.110548 0.652337
vt 0.009100 0.618989
vt 0.009132 0.613700
vt 0.199588 0.058558
vt 0.201156 0.058883
vt 0.351548 0.058883
vt 0.112555 0.058883
vt 0.009731 0.033070
vt 0.009731 0.028262
vt 0.352691 0.244576
vt 0.395976 0.144695
vt 0.401442 0.144735
vt 0.676217 0.058558
vt 0.677775 0.058883
vt 0.764208 0.058883
vt 0.526158 0.058883
vt 0.481178 0.033070
vt 0.481178 0.028318
vt 0.765699 0.483383
vt 0.867146 0.516730
vt 0.867114 0.522019
vt 0.199588 0.126418
vt 0.201156 0.126743
vt 0.351548 0.126743
vt 0.112555 0.126743
vt 0.009731 0.100929
vt 0.009731 0.096121
vt 0.523557 0.891144
vt 0.480271 0.991024
vt 0.474805 0.990984
vt 0.526158 0.122258
vt 0.526158 0.076836
vt 0.677202 0.122521
vt 0.677202 0.076836
vt 0.112555 0.054367
vt 0.112555 0.008976
vt 0.200159 0.054661
vt 0.200159 0.008976
vt 0.526158 0.054398
vt 0.526158 0.008976
vt 0.677202 0.054661
vt 0.677202 0.008976
vt 0.112555 0.122227
vt 0.112555 0.076836
vt 0.200159 0.122521
vt 0.200159 0.076836
vt 0.481178 0.076836
vt 0.399949 0.990440
vt 0.351548 0.076836
vt 0.395357 0.096164
vt 0.351548 0.122253
vt 0.009731 0.008976
vt 0.009700 0.520184
vt 0.764208 0.076836
vt 0.867146 0.076836
vt 0.867146 0.096111
vt 0.764208 0.122223
vt 0.481178 0.008976
vt 0.476297 0.145278
vt 0.351548 0.008976
vt 0.395357 0.028305
vt 0.351548 0.054393
vt 0.009731 0.076836
vt 0.866546 0.615535
vt 0.764208 0.008976
vt 0.867146 0.008976
vt 0.867146 0.028252
vt 0.764208 0.054363
vt 0.520361 0.886266
vt 0.658732 0.787036
vt 0.353516 0.885656
vt 0.518071 0.866470
vt 0.672571 0.800786
vt 0.740281 0.648874
vt 0.761018 0.486969
vt 0.660335 0.350265
vt 0.760403 0.651084
vt 0.740868 0.489005
vt 0.674274 0.336614
vt 0.520260 0.269829
vt 0.355887 0.249453
vt 0.217516 0.348684
vt 0.522732 0.250064
vt 0.358178 0.269250
vt 0.201973 0.799105
vt 0.355988 0.865891
vt 0.203677 0.334934
vt 0.135967 0.486845
vt 0.115230 0.648751
vt 0.215913 0.785455
vt 0.115845 0.484635
vt 0.135380 0.646715
vn 0.999973 0.000000 -0.007371
vn 0.999973 0.000000 -0.007371
vn 0.999973 0.000000 -0.007371
vn 0.999973 0.000000 -0.007371
vn 0.999973 0.000000 -0.007371
vn 0.999973 0.000000 -0.007371
vn 0.000000 -1.000000 -0.000361
vn -0.005993 0.000000 -0.999982
vn -0.005993 0.000000 -0.999982
vn -0.005993 0.000000 -0.999982
vn -0.005993 0.000000 -0.999982
vn 0.000000 -1.000000 -0.000361
vn -0.999973 0.000000 0.007371
vn -0.999973 0.000000 0.007371
vn -0.999973 0.000000 0.007371
vn -0.999973 0.000000 0.007371
vn -0.999973 0.000000 0.007371
vn -0.999973 0.000000 0.007371
vn 0.005993 0.000000 0.999982
vn 0.005993 0.000000 0.999982
vn 0.005993 0.000000 0.999982
vn 0.005993 0.000000 0.999982
vn 0.005993 0.000000 0.999982
vn 0.005993 0.000000 0.999982
vn -0.137118 0.843457 0.519403
vn -0.137118 0.843457 0.519403
vn -0.378318 0.843580 0.381115
vn -0.378318 0.843580 0.381115
vn 0.381115 0.843580 0.378318
vn 0.381115 0.843580 0.378318
vn 0.140832 0.843509 0.518323
vn 0.140832 0.843509 0.518323
vn -0.378318 0.843580 0.381115
vn -0.378318 0.843580 0.381115
vn -0.518323 0.843509 0.140832
vn -0.518323 0.843509 0.140832
vn 0.140832 0.843509 0.518323
vn 0.140832 0.843509 0.518323
vn -0.137118 0.843457 0.519403
vn -0.137118 0.843457 0.519403
vn 0.073048 0.997144 0.019181
vn 0.043672 0.998971 -0.012198
vn 0.031957 0.998980 0.031902
vn 0.020130 0.997079 0.073675
vn 0.031957 0.998980 0.031902
vn -0.032079 0.998959 0.032447
vn -0.019618 0.997080 0.073807
vn -0.032079 0.998959 0.032447
vn 0.031957 0.998980 0.031902
vn 0.043672 0.998971 -0.012198
vn -0.032376 0.998955 -0.032271
vn -0.073442 0.997095 0.020197
vn -0.032079 0.998959 0.032447
vn -0.032376 0.998955 -0.032271
vn -0.073590 0.997097 -0.019561
vn 0.040352 0.998382 -0.040063
vn -0.015329 0.998383 -0.054737
vn -0.032376 0.998955 -0.032271
vn 0.043672 0.998971 -0.012198
vn 0.040352 0.998382 -0.040063
vn 0.019390 0.997112 -0.073435
vn -0.015329 0.998383 -0.054737
vn 0.264922 0.961729 0.069959
vn 0.188618 0.980786 0.049817
vn 0.138453 0.980787 0.137431
vn 0.194463 0.961725 0.193052
vn 0.264420 0.961725 -0.071890
vn 0.188255 0.980786 -0.051170
vn 0.188618 0.980786 0.049817
vn 0.264922 0.961729 0.069959
vn 0.194463 0.961725 0.193052
vn 0.138453 0.980787 0.137431
vn 0.051168 0.980787 0.188250
vn 0.071890 0.961725 0.264420
vn -0.069959 0.961729 0.264922
vn -0.049814 0.980790 0.188601
vn -0.137426 0.980789 0.138448
vn -0.193052 0.961725 0.194463
vn 0.071890 0.961725 0.264420
vn 0.051168 0.980787 0.188250
vn -0.049814 0.980790 0.188601
vn -0.069959 0.961729 0.264922
vn -0.193052 0.961725 0.194463
vn -0.137426 0.980789 0.138448
vn -0.188238 0.980789 0.051176
vn -0.264420 0.961725 0.071890
vn -0.264922 0.961729 -0.069959
vn -0.188601 0.980790 -0.049814
vn -0.138448 0.980789 -0.137427
vn -0.194463 0.961725 -0.193052
vn -0.264420 0.961725 0.071890
vn -0.188238 0.980789 0.051176
vn -0.188601 0.980790 -0.049814
vn -0.264922 0.961729 -0.069959
vn 0.193052 0.961725 -0.194463
vn 0.137430 0.980786 -0.138465
vn 0.188255 0.980786 -0.051170
vn 0.264420 0.961725 -0.071890
vn -0.194463 0.961725 -0.193052
vn -0.138448 0.980789 -0.137427
vn -0.051176 0.980789 -0.188238
vn -0.071890 0.961725 -0.264420
vn 0.069959 0.961729 -0.264922
vn 0.049806 0.980788 -0.188613
vn 0.137430 0.980786 -0.138465
vn 0.193052 0.961725 -0.194463
vn -0.071890 0.961725 -0.264420
vn -0.051176 0.980789 -0.188238
vn 0.049806 0.980788 -0.188613
vn 0.069959 0.961729 -0.264922
vn 0.188618 0.980786 0.049817
vn 0.073048 0.997144 0.019181
vn 0.031957 0.998980 0.031902
vn 0.138453 0.980787 0.137431
vn 0.188255 0.980786 -0.051170
vn 0.043672 0.998971 -0.012198
vn 0.073048 0.997144 0.019181
vn 0.188618 0.980786 0.049817
vn 0.138453 0.980787 0.137431
vn 0.031957 0.998980 0.031902
vn 0.020130 0.997079 0.073675
vn 0.051168 0.980787 0.188250
vn -0.049814 0.980790 0.188601
vn -0.019618 0.997080 0.073807
vn -0.032079 0.998959 0.032447
vn -0.137426 0.980789 0.138448
vn 0.051168 0.980787 0.188250
vn 0.020130 0.997079 0.073675
vn -0.019618 0.997080 0.073807
vn -0.049814 0.980790 0.188601
vn -0.137426 0.980789 0.138448
vn -0.032079 0.998959 0.032447
vn -0.073442 0.997095 0.020197
vn -0.188238 0.980789 0.051176
vn -0.188601 0.980790 -0.049814
vn -0.073590 0.997097 -0.019561
vn -0.032376 0.998955 -0.032271
vn -0.138448 0.980789 -0.137427
vn -0.188238 0.980789 0.051176
vn -0.073442 0.997095 0.020197
vn -0.073590 0.997097 -0.019561
vn -0.188601 0.980790 -0.049814
vn 0.137430 0.980786 -0.138465
vn 0.040352 0.998382 -0.040063
vn 0.043672 0.998971 -0.012198
vn 0.188255 0.980786 -0.051170
vn -0.138448 0.980789 -0.137427
vn -0.032376 0.998955 -0.032271
vn -0.015329 0.998383 -0.054737
vn -0.051176 0.980789 -0.188238
vn 0.049806 0.980788 -0.188613
vn 0.019390 0.997112 -0.073435
vn 0.040352 0.998382 -0.040063
vn 0.137430 0.980786 -0.138465
vn -0.051176 0.980789 -0.188238
vn -0.015329 0.998383 -0.054737
vn 0.019390 0.997112 -0.073435
vn 0.049806 0.980788 -0.188613
vn -0.519404 0.843456 -0.137118
vn -0.519404 0.843456 -0.137118
vn -0.381115 0.843580 -0.378318
vn -0.381115 0.843580 -0.378318
vn -0.518323 0.843509 0.140832
vn -0.518323 0.843509 0.140832
vn -0.519404 0.843456 -0.137118
vn -0.519404 0.843456 -0.137118
vn -0.381115 0.843580 -0.378318
vn -0.381115 0.843580 -0.378318
vn -0.140832 0.843509 -0.518323
vn -0.140832 0.843509 -0.518323
vn 0.137118 0.843457 -0.519403
vn 0.137118 0.843457 -0.519403
vn 0.378318 0.843580 -0.381115
vn 0.378318 0.843580 -0.381115
vn -0.140832 0.843509 -0.518323
vn -0.140832 0.843509 -0.518323
vn 0.137118 0.843457 -0.519403
vn 0.137118 0.843457 -0.519403
vn 0.378318 0.843580 -0.381115
vn 0.378318 0.843580 -0.381115
vn 0.518323 0.843509 -0.140832
vn 0.518323 0.843509 -0.140832
vn 0.519404 0.843456 0.137118
vn 0.519404 0.843456 0.137118
vn 0.381115 0.843580 0.378318
vn 0.381115 0.843580 0.378318
vn 0.518323 0.843509 -0.140832
vn 0.518323 0.843509 -0.140832
vn 0.519404 0.843456 0.137118
vn 0.519404 0.843456 0.137118
vn 0.553414 0.618599 -0.557735
vn 0.553368 0.618599 -0.557781
vn 0.609320 0.627146 -0.485198
vn 0.596971 0.629722 -0.497068
vn 0.505290 0.637320 -0.581812
vn 0.490898 0.634027 -0.597519
vn 0.449019 0.645479 -0.617851
vn 0.449019 0.645479 -0.617851
vn 0.644094 0.653786 -0.397122
vn 0.644094 0.653786 -0.397122
vn -0.557378 0.618617 -0.553754
vn -0.557439 0.618616 -0.553693
vn -0.493958 0.633055 -0.596026
vn -0.507987 0.636246 -0.580638
vn -0.597594 0.630971 -0.494729
vn -0.610332 0.628281 -0.482450
vn -0.643862 0.652510 -0.399590
vn -0.643862 0.652510 -0.399590
vn -0.445140 0.647095 -0.618965
vn -0.445140 0.647095 -0.618965
vn -0.553414 0.618599 0.557735
vn -0.553368 0.618599 0.557781
vn -0.609320 0.627146 0.485198
vn -0.596971 0.629722 0.497068
vn -0.505290 0.637320 0.581812
vn -0.490898 0.634027 0.597519
vn -0.449019 0.645479 0.617851
vn -0.449019 0.645479 0.617851
vn -0.644094 0.653786 0.397122
vn -0.644094 0.653786 0.397122
vn 0.557378 0.618617 0.553754
vn 0.557439 0.618616 0.553693
vn 0.493958 0.633055 0.596026
vn 0.507987 0.636246 0.580638
vn 0.597594 0.630971 0.494729
vn 0.610332 0.628281 0.482450
vn 0.643862 0.652510 0.399590
vn 0.643862 0.652510 0.399590
vn 0.445140 0.647095 0.618965
vn 0.445140 0.647095 0.618965
vn 0.704567 0.000000 -0.709638
vn 0.704567 0.000000 -0.709638
vn 0.864250 0.000000 -0.503062
vn 0.864250 0.000000 -0.503062
vn 0.496852 0.000000 -0.867836
vn 0.496852 0.000000 -0.867836
vn 0.704567 0.000000 -0.709638
vn 0.704567 0.000000 -0.709638
vn -0.709638 0.000000 -0.704567
vn -0.709638 0.000000 -0.704567
vn -0.503062 0.000000 -0.864250
vn -0.503062 0.000000 -0.864250
vn -0.867836 0.000000 -0.496851
vn -0.867836 0.000000 -0.496851
vn -0.709638 0.000000 -0.704567
vn -0.709638 0.000000 -0.704567
vn -0.704567 0.000000 0.709638
vn -0.704567 0.000000 0.709638
vn -0.864250 0.000000 0.503062
vn -0.864250 0.000000 0.503062
vn -0.496852 0.000000 0.867836
vn -0.496852 0.000000 0.867836
vn -0.704567 0.000000 0.709638
vn -0.704567 0.000000 0.709638
vn 0.709638 0.000000 0.704567
vn 0.709638 0.000000 0.704567
vn 0.503062 0.000000 0.864250
vn 0.503062 0.000000 0.864250
vn 0.867836 0.000000 0.496851
vn 0.867836 0.000000 0.496851
vn 0.709638 0.000000 0.704567
vn 0.709638 0.000000 0.704567
vn 0.399241 0.000000 -0.916846
vn 0.399241 0.000000 -0.916846
vn 0.399241 0.000000 -0.916846
vn 0.399241 0.000000 -0.916846
vn 0.280864 0.959424 0.024927
vn 0.267514 0.963553 -0.001275
vn 0.267514 0.963553 -0.001275
vn 0.280748 0.959386 -0.027560
vn 0.393095 0.000000 0.919498
vn 0.393095 0.000000 0.919498
vn 0.393095 0.000000 0.919498
vn 0.393095 0.000000 0.919498
vn -0.947390 0.000000 -0.320083
vn -0.947390 0.000000 -0.320083
vn -0.947390 0.000000 -0.320083
vn -0.947390 0.000000 -0.320083
vn 0.022482 0.959780 -0.279851
vn -0.001196 0.963564 -0.267474
vn -0.001196 0.963565 -0.267474
vn -0.024961 0.959753 -0.279735
vn 0.948708 0.000000 -0.316155
vn 0.948708 0.000000 -0.316155
vn 0.948708 0.000000 -0.316155
vn 0.948708 0.000000 -0.316155
vn -0.399241 0.000000 0.916846
vn -0.399241 0.000000 0.916846
vn -0.399241 0.000000 0.916846
vn -0.399241 0.000000 0.916846
vn -0.280864 0.959424 -0.024927
vn -0.267514 0.963553 0.001275
vn -0.267514 0.963553 0.001275
vn -0.280748 0.959386 0.027560
vn -0.393095 0.000000 -0.919498
vn -0.393095 0.000000 -0.919498
vn -0.393095 0.000000 -0.919498
vn -0.393095 0.000000 -0.919498
vn 0.947390 0.000000 0.320083
vn 0.947390 0.000000 0.320083
vn 0.947390 0.000000 0.320083
vn 0.947390 0.000000 0.320083
vn -0.022482 0.959780 0.279851
vn 0.001196 0.963564 0.267474
vn 0.001196 0.963565 0.267474
vn 0.024961 0.959753 0.279735
vn -0.948708 0.000000 0.316155
vn -0.948708 0.000000 0.316155
vn -0.948708 0.000000 0.316155
vn -0.948708 0.000000 0.316155
vn 0.300810 0.949885 0.085045
vn 0.225319 0.948216 0.223870
vn 0.225284 0.948216 0.223905
vn 0.300151 0.949904 -0.087128
vn 0.087715 0.949727 0.300542
vn -0.085613 0.949711 0.301197
vn -0.223614 0.948219 0.225559
vn -0.223657 0.948220 0.225515
vn -0.300151 0.949904 0.087128
vn -0.300810 0.949885 -0.085045
vn -0.225319 0.948216 -0.223870
vn -0.225284 0.948216 -0.223905
vn 0.223657 0.948220 -0.225515
vn 0.223614 0.948219 -0.225558
vn -0.087715 0.949727 -0.300542
vn 0.085613 0.949711 -0.301197
s off
g jumppad:_2
usemtl jumppad:MD3__default__jumppad_
f 177/149/9 270/102/10 269/79/11 272/80/12 271/152/13 178/81/14
f 182/82/15 274/83/16 273/84/17 276/85/18 275/86/19 183/87/20
f 187/160/21 278/120/22 277/88/23 280/89/24 279/163/25 188/90/26
f 192/91/27 282/92/28 281/93/29 284/94/30 283/95/31 193/96/32
f 197/9/33 198/10/34 199/11/35 200/12/36
f 201/13/37 202/14/38 203/15/39 204/16/40
f 200/12/41 199/11/42 205/17/43 206/18/44
f 204/16/45 203/15/46 198/10/47 197/9/48
f 207/19/49 208/20/50 209/21/51
f 211/23/52 209/21/53 210/22/54 212/24/55
f 210/22/56 209/21/57 208/20/58 213/25/59
f 214/26/60 210/22/61 213/25/62 215/27/63
f 216/28/64 217/29/65 213/25/66 208/20/67
f 216/28/68 218/30/69 217/29/70
f 219/31/71 220/32/72 221/33/73 222/34/74
f 205/35/75 223/36/76 220/32/77 219/31/78
f 222/34/79 221/33/80 224/37/81 225/38/82
f 226/39/83 227/40/84 228/41/85 229/42/86
f 225/38/87 224/37/88 227/40/89 226/39/90
f 229/42/91 228/41/92 230/43/93 231/44/94
f 232/45/95 233/46/96 234/47/97 202/48/98
f 231/44/99 230/43/100 233/46/101 232/45/102
f 199/49/103 235/50/104 223/36/105 205/35/106
f 202/48/107 234/47/108 236/51/109 203/52/110
f 198/53/111 237/54/112 235/50/113 199/49/114
f 203/52/115 236/51/116 237/54/117 198/53/118
f 220/32/119 207/19/120 209/21/121 221/33/122
f 223/36/123 208/20/124 207/19/125 220/32/126
f 221/33/127 209/21/128 211/23/129 224/37/130
f 227/40/131 212/24/132 210/22/133 228/41/134
f 224/37/135 211/23/136 212/24/137 227/40/138
f 228/41/139 210/22/140 214/26/141 230/43/142
f 233/46/143 215/27/144 213/25/145 234/47/146
f 230/43/147 214/26/148 215/27/149 233/46/150
f 235/50/151 216/28/152 208/20/153 223/36/154
f 234/47/155 213/25/156 217/29/157 236/51/158
f 237/54/159 218/30/160 216/28/161 235/50/162
f 236/51/163 217/29/164 218/30/165 237/54/166
f 238/55/167 219/56/168 222/57/169 239/58/170
f 206/59/171 205/60/172 219/61/173 238/62/174
f 239/58/175 222/63/176 225/64/177 240/65/178
f 241/66/179 226/67/180 229/68/181 242/69/182
f 240/65/183 225/64/184 226/67/185 241/66/186
f 242/69/187 229/70/188 231/71/189 243/72/190
f 244/73/191 232/74/192 202/14/193 201/13/194
f 243/75/195 231/76/196 232/77/197 244/78/198
s 1
f 245/135/199 246/97/200 248/100/201 247/133/202
f 246/98/200 245/135/199 249/159/203 250/99/204
f 247/133/202 248/100/201 269/101/205 270/102/206
f 250/191/204 249/103/203 275/104/207 276/105/208
s 2
f 251/139/209 252/106/210 254/109/211 253/137/212
f 252/107/210 251/139/209 255/164/213 256/108/214
f 253/137/212 254/109/211 273/110/215 274/111/216
f 256/183/214 255/112/213 279/113/217 280/114/218
s 3
f 257/143/219 258/115/220 260/118/221 259/141/222
f 258/116/220 257/143/219 261/170/223 262/117/224
f 259/141/222 260/118/221 277/119/225 278/120/226
f 262/177/224 261/121/223 283/122/227 284/123/228
s 4
f 263/147/229 264/124/230 266/127/231 265/145/232
f 264/125/230 263/147/229 267/153/233 268/126/234
f 265/145/232 266/127/231 281/128/235 282/129/236
f 268/171/234 267/130/233 271/131/237 272/132/238
s off
f 179/136/239 245/135/240 247/133/241 180/134/242
f 181/156/243 249/159/244 245/135/245 179/136/246
f 184/140/247 251/139/248 253/137/249 185/138/250
f 186/162/251 255/164/252 251/139/253 184/140/254
f 189/144/255 257/143/256 259/141/257 190/142/258
f 191/167/259 261/170/260 257/143/261 189/144/262
f 194/148/263 263/147/264 265/145/265 195/146/266
f 196/151/267 267/153/268 263/147/269 194/148/270
f 247/133/271 270/102/272 177/149/273 180/134/274
s 5
f 268/171/275 272/132/276 269/150/277 248/173/278
s off
f 196/151/279 178/81/280 271/152/281 267/153/282
f 253/137/283 274/111/284 182/154/285 185/138/286
s 5
f 250/191/287 276/105/288 273/155/289 254/193/290
s off
f 181/156/291 183/157/292 275/158/293 249/159/294
f 259/141/295 278/120/296 187/160/297 190/142/298
s 5
f 256/183/299 280/114/300 277/161/301 260/185/302
s off
f 186/162/303 188/90/304 279/163/305 255/164/306
f 265/145/307 282/129/308 192/165/309 195/146/310
s 5
f 262/177/311 284/123/312 281/166/313 266/179/314
s off
f 191/167/315 193/168/316 283/169/317 261/170/318
s 5
f 268/171/275 238/174/319 239/172/320 264/175/321
f 248/173/278 206/188/322 238/174/319 268/171/275
f 264/175/321 239/172/320 240/176/323 266/179/314
f 262/177/311 241/180/324 242/178/325 258/181/326
f 266/179/314 240/176/323 241/180/324 262/177/311
f 258/181/326 242/178/325 243/182/327 260/185/302
f 256/183/299 244/186/328 201/184/329 252/189/330
f 260/185/302 243/182/327 244/186/328 256/183/299
f 246/187/331 200/192/332 206/188/322 248/173/278
f 252/189/330 201/184/329 204/190/333 254/193/290
f 250/191/287 197/194/334 200/192/332 246/187/331
f 254/193/290 204/190/333 197/194/334 250/191/287
g default
v 55.667450 -71.848198 -55.667450
v 55.667450 87.799538 -55.667450
v -55.667450 87.806541 55.667450
v -55.667450 -71.841194 55.667450
vt 0.000000 0.000000
vt 0.000000 1.000000
vt 1.000000 1.000000
vt 1.000000 0.000000
vn 0.707107 0.000000 0.707107
vn 0.707107 0.000000 0.707107
vn 0.707107 0.000000 0.707107
vn 0.707107 0.000000 0.707107
s off
g jumppad:_3
usemtl jumppad:MD3__default__glow_
f 285/195/335 286/196/336 287/197/337 288/198/338
