# This file uses centimeters as units for non-parametric coordinates.

mtllib walllamp1.mtl
g default
v 3.000000 -0.006285 6.257566
v -3.000000 -0.006285 6.257566
v -0.000000 -0.006285 12.257566
vt 0.000000 0.000000
vt 1.000000 0.000000
vt 0.500000 1.000000
vn 0.000000 1.000000 0.000000
vn 0.000000 1.000000 0.000000
vn 0.000000 1.000000 0.000000
s off
g pasted__pPlane1 group
usemtl lambert2SG
f 1/1/1 2/2/2 3/3/3
g default
v 14.636100 13.943415 5.048653
v 13.949700 14.629814 5.048653
v 13.071101 14.993715 5.048653
v -13.071101 14.993715 5.048653
v -13.949700 14.629814 5.048653
v -14.636100 13.943415 5.048653
v -15.000000 13.064816 5.048653
v -15.000000 -13.077386 5.048653
v -14.636100 -13.955985 5.048653
v -13.949700 -14.642385 5.048653
v -13.071101 -15.006285 5.048653
v 13.071101 -15.006285 5.048653
v 13.949700 -14.642385 5.048653
v 14.636100 -13.955985 5.048653
v 15.000000 -13.077386 5.048653
v 15.000000 13.064816 5.048653
v 13.270000 15.993715 2.048654
v -13.270000 15.993715 2.048654
v -13.270000 15.993715 6.048653
v 13.270000 15.993715 6.048653
v -16.000000 13.263716 2.048654
v -16.000000 -13.276285 2.048654
v -16.000000 -13.276285 6.048653
v -16.000000 13.263716 6.048653
v -13.270000 -16.006285 2.048654
v 13.270000 -16.006285 2.048654
v 13.270000 -16.006285 6.048653
v -13.270000 -16.006285 6.048653
v 16.000000 -13.276285 2.048654
v 16.000000 13.263716 2.048654
v 16.000000 13.263716 6.048653
v 16.000000 -13.276285 6.048653
v -14.516200 15.477514 2.048654
v -15.483800 14.509914 2.048654
v -15.483800 14.509914 6.048653
v -14.516200 15.477514 6.048653
v 14.516200 15.477514 6.048653
v 15.483800 14.509914 6.048653
v 15.483800 14.509914 2.048654
v 14.516200 15.477514 2.048654
v -15.483800 -14.522486 2.048654
v -14.516200 -15.490086 2.048654
v -14.516200 -15.490086 6.048653
v -15.483800 -14.522486 6.048653
v 14.516200 -15.490086 2.048654
v 15.483801 -14.522486 2.048654
v 15.483800 -14.522486 6.048653
v 14.516200 -15.490086 6.048653
v -13.071101 14.993715 6.048653
v 13.071101 14.993715 6.048653
v -13.949700 14.629814 6.048653
v -14.636100 13.943415 6.048653
v -15.000000 13.064816 6.048653
v -15.000000 -13.077386 6.048653
v -14.636100 -13.955985 6.048653
v -13.949700 -14.642385 6.048653
v -13.071101 -15.006285 6.048653
v 13.071101 -15.006285 6.048653
v 13.949700 -14.642385 6.048653
v 14.636100 -13.955985 6.048653
v 15.000000 -13.077386 6.048653
v 15.000000 13.064816 6.048653
v 14.636100 13.943415 6.048653
v 13.949700 14.629814 6.048653
v 18.333302 12.291515 4.381954
v 16.000000 12.291515 4.381953
v 16.000000 -12.643584 4.381953
v 18.333302 -12.643585 4.381954
v 19.333300 12.291515 2.048654
v 16.000000 12.291515 2.048654
v 19.333302 12.291515 3.381953
v 19.333300 -12.643584 2.048654
v 19.333302 -12.643585 3.381953
v 16.000000 -12.643584 2.048654
v 19.333300 -12.643584 0.048853
v 19.333300 12.291515 0.048853
v -18.333302 12.291515 4.381954
v -18.333302 -12.643585 4.381954
v -16.000000 -12.643584 4.381953
v -16.000000 12.291515 4.381953
v -19.333302 12.291515 3.381953
v -19.333300 12.291515 2.048654
v -16.000000 12.291515 2.048654
v -16.000000 -12.643584 2.048654
v -19.333302 -12.643585 3.381953
v -19.333300 -12.643584 2.048654
v -19.333300 12.291515 0.048853
v -19.333300 -12.643584 0.048853
vt 0.485300 0.420000
vt 0.476100 0.410800
vt 0.471200 0.398900
vt 0.471200 0.046800
vt 0.476100 0.035000
vt 0.485300 0.025800
vt 0.497200 0.020900
vt 0.849200 0.020900
vt 0.861100 0.025800
vt 0.870300 0.035000
vt 0.875200 0.046800
vt 0.875200 0.398900
vt 0.870300 0.410800
vt 0.861100 0.420000
vt 0.849200 0.424900
vt 0.497200 0.424900
vt 0.814700 0.760700
vt 0.457300 0.760700
vt 0.457300 0.706800
vt 0.814700 0.706800
vt 0.814700 0.680500
vt 0.457300 0.680500
vt 0.457300 0.626600
vt 0.814700 0.626600
vt 0.814700 0.840900
vt 0.457300 0.840900
vt 0.457300 0.787000
vt 0.814700 0.787000
vt 0.007000 0.928500
vt 0.364400 0.928500
vt 0.364400 0.982300
vt 0.007000 0.982300
vt 0.962100 0.239300
vt 0.962100 0.258200
vt 0.906800 0.258200
vt 0.906800 0.239300
vt 0.962100 0.327800
vt 0.962100 0.346700
vt 0.906800 0.346700
vt 0.906800 0.327800
vt 0.962100 0.062400
vt 0.962100 0.081300
vt 0.906800 0.081300
vt 0.906800 0.062400
vt 0.906800 0.169800
vt 0.906800 0.150900
vt 0.962100 0.150900
vt 0.962100 0.169800
vt 0.962100 0.222100
vt 0.906800 0.222100
vt 0.962100 0.310500
vt 0.906800 0.310500
vt 0.962100 0.045200
vt 0.906800 0.045200
vt 0.906800 0.187000
vt 0.962100 0.187000
vt 0.962100 0.275500
vt 0.906800 0.275500
vt 0.962100 0.363900
vt 0.906800 0.363900
vt 0.962100 0.098600
vt 0.906800 0.098600
vt 0.906800 0.133700
vt 0.962100 0.133700
vt 0.437900 0.508000
vt 0.437900 0.865400
vt 0.424500 0.862700
vt 0.424500 0.510600
vt 0.431000 0.882200
vt 0.419600 0.874500
vt 0.417900 0.895200
vt 0.410300 0.883800
vt 0.401200 0.902200
vt 0.398500 0.888700
vt 0.043700 0.902200
vt 0.046400 0.888700
vt 0.026900 0.895200
vt 0.034600 0.883800
vt 0.013900 0.882200
vt 0.025300 0.874500
vt 0.007000 0.865400
vt 0.020400 0.862700
vt 0.007000 0.508000
vt 0.020400 0.510600
vt 0.013900 0.491200
vt 0.025300 0.498800
vt 0.026900 0.478100
vt 0.034600 0.489600
vt 0.043700 0.471200
vt 0.046400 0.484700
vt 0.401200 0.471200
vt 0.398500 0.484700
vt 0.417900 0.478100
vt 0.410300 0.489600
vt 0.431000 0.491200
vt 0.419600 0.498800
vt 0.458400 0.971600
vt 0.810400 0.971600
vt 0.810400 0.985000
vt 0.458400 0.985000
vt 0.428400 0.942300
vt 0.416300 0.942300
vt 0.416300 0.928500
vt 0.428400 0.928500
vt 0.402800 0.942300
vt 0.402800 0.928500
vt 0.390700 0.942300
vt 0.390700 0.928500
vt 0.809400 0.960200
vt 0.457300 0.960200
vt 0.457300 0.946700
vt 0.809400 0.946700
vt 0.575200 0.479400
vt 0.563100 0.479400
vt 0.563100 0.465600
vt 0.575200 0.465600
vt 0.549600 0.479400
vt 0.549600 0.465600
vt 0.537500 0.479400
vt 0.537500 0.465600
vt 0.457300 0.867200
vt 0.809400 0.867200
vt 0.809400 0.880700
vt 0.457300 0.880700
vt 0.841000 0.626600
vt 0.853200 0.626600
vt 0.853200 0.640400
vt 0.841000 0.640400
vt 0.866600 0.626600
vt 0.866600 0.640400
vt 0.878700 0.626600
vt 0.878700 0.640400
vt 0.457300 0.907000
vt 0.809400 0.907000
vt 0.809400 0.920400
vt 0.457300 0.920400
vt 0.537500 0.550200
vt 0.549600 0.550200
vt 0.549600 0.564100
vt 0.537500 0.564100
vt 0.563100 0.550200
vt 0.563100 0.564100
vt 0.575200 0.550200
vt 0.575200 0.564100
vt 0.431000 0.424900
vt 0.417900 0.437900
vt 0.401200 0.444900
vt 0.043700 0.444900
vt 0.026900 0.437900
vt 0.013900 0.424900
vt 0.007000 0.408100
vt 0.007000 0.050700
vt 0.013900 0.033900
vt 0.026900 0.020900
vt 0.043700 0.013900
vt 0.401200 0.013900
vt 0.417900 0.020900
vt 0.431000 0.033900
vt 0.437900 0.050700
vt 0.431000 0.424900
vt 0.437900 0.408100
vt 0.246400 0.858200
vt 0.215000 0.858200
vt 0.215000 0.522400
vt 0.246400 0.522400
vt 0.978000 0.488700
vt 0.933100 0.488700
vt 0.933100 0.457300
vt 0.964600 0.457300
vt 0.978000 0.470800
vt 0.457300 0.573400
vt 0.457300 0.555400
vt 0.470800 0.542000
vt 0.502200 0.573400
vt 0.502200 0.542000
vt 0.367000 0.522400
vt 0.367000 0.858200
vt 0.349100 0.858200
vt 0.349100 0.522400
vt 0.584000 0.564100
vt 0.584000 0.545000
vt 0.919800 0.545000
vt 0.919800 0.564100
vt 0.393900 0.522400
vt 0.393900 0.858200
vt 0.457300 0.600300
vt 0.978000 0.515600
vt 0.255200 0.858200
vt 0.255200 0.522400
vt 0.286600 0.522400
vt 0.286600 0.858200
vt 0.457300 0.470800
vt 0.470700 0.457300
vt 0.502200 0.457300
vt 0.457300 0.488700
vt 0.502200 0.488700
vt 0.933100 0.573400
vt 0.933100 0.542000
vt 0.964600 0.542000
vt 0.978000 0.555400
vt 0.978000 0.573400
vt 0.322300 0.522400
vt 0.340300 0.522400
vt 0.340300 0.858200
vt 0.322300 0.858200
vt 0.584000 0.460300
vt 0.919800 0.460300
vt 0.919800 0.479400
vt 0.584000 0.479400
vt 0.295400 0.858200
vt 0.295400 0.522400
vt 0.978000 0.600300
vt 0.457300 0.515600
vn 0.000000 0.000000 1.000000
vn 0.000000 0.000000 1.000000
vn 0.000000 0.000000 1.000000
vn 0.000000 0.000000 1.000000
vn 0.000000 0.000000 1.000000
vn 0.000000 0.000000 1.000000
vn 0.000000 0.000000 1.000000
vn 0.000000 0.000000 1.000000
vn 0.000000 0.000000 1.000000
vn 0.000000 0.000000 1.000000
vn 0.000000 0.000000 1.000000
vn 0.000000 0.000000 1.000000
vn 0.000000 0.000000 1.000000
vn 0.000000 0.000000 1.000000
vn 0.000000 0.000000 1.000000
vn 0.000000 0.000000 1.000000
vn 0.195093 0.980785 0.000000
vn -0.195093 0.980785 0.000000
vn -0.195093 0.980785 0.000000
vn 0.195093 0.980785 0.000000
vn -0.980785 0.195093 0.000000
vn -0.980785 -0.195093 0.000000
vn -0.980785 -0.195093 0.000000
vn -0.980785 0.195093 0.000000
vn -0.195093 -0.980785 -0.000000
vn 0.195093 -0.980785 -0.000000
vn 0.195093 -0.980785 -0.000000
vn -0.195093 -0.980785 -0.000000
vn 0.980785 -0.195093 -0.000000
vn 0.980785 0.195093 -0.000000
vn 0.980785 0.195093 -0.000000
vn 0.980785 -0.195093 -0.000000
vn -0.555572 0.831468 0.000000
vn -0.831468 0.555572 0.000000
vn -0.831468 0.555572 0.000000
vn -0.555572 0.831468 0.000000
vn 0.555572 0.831468 -0.000000
vn 0.831468 0.555572 -0.000000
vn 0.831468 0.555572 -0.000000
vn 0.555572 0.831468 -0.000000
vn -0.831468 -0.555572 0.000000
vn -0.555572 -0.831468 0.000000
vn -0.555572 -0.831468 0.000000
vn -0.831468 -0.555572 0.000000
vn 0.555572 -0.831468 -0.000000
vn 0.831468 -0.555572 -0.000000
vn 0.831468 -0.555572 -0.000000
vn 0.555572 -0.831468 -0.000000
vn -0.195093 0.980785 0.000000
vn -0.555572 0.831468 0.000000
vn -0.555572 0.831468 0.000000
vn -0.195093 0.980785 0.000000
vn 0.195093 0.980785 0.000000
vn 0.555572 0.831468 -0.000000
vn 0.555572 0.831468 -0.000000
vn 0.195093 0.980785 0.000000
vn -0.980785 -0.195093 0.000000
vn -0.831468 -0.555572 0.000000
vn -0.831468 -0.555572 0.000000
vn -0.980785 -0.195093 0.000000
vn 0.195093 -0.980785 -0.000000
vn 0.555572 -0.831468 -0.000000
vn 0.555572 -0.831468 -0.000000
vn 0.195093 -0.980785 -0.000000
vn -0.831468 0.555572 0.000000
vn -0.980785 0.195093 0.000000
vn -0.980785 0.195093 0.000000
vn -0.831468 0.555572 0.000000
vn 0.831468 0.555572 -0.000000
vn 0.980785 0.195093 -0.000000
vn 0.980785 0.195093 -0.000000
vn 0.831468 0.555572 -0.000000
vn -0.555572 -0.831468 0.000000
vn -0.195093 -0.980785 -0.000000
vn -0.195093 -0.980785 -0.000000
vn -0.555572 -0.831468 0.000000
vn 0.831468 -0.555572 -0.000000
vn 0.980785 -0.195093 -0.000000
vn 0.980785 -0.195093 -0.000000
vn 0.831468 -0.555572 -0.000000
vn 0.000000 0.000000 1.000000
vn 0.000000 0.000000 1.000000
vn 0.000000 0.000000 1.000000
vn 0.000000 0.000000 1.000000
vn -0.000000 0.000000 1.000000
vn -0.000000 0.000000 1.000000
vn -0.000000 0.000000 1.000000
vn -0.000000 0.000000 1.000000
vn 0.000000 0.000000 1.000000
vn 0.000000 0.000000 1.000000
vn 0.000000 0.000000 1.000000
vn 0.000000 0.000000 1.000000
vn 0.000000 0.000000 1.000000
vn 0.000000 0.000000 1.000000
vn 0.000000 0.000000 1.000000
vn 0.000000 0.000000 1.000000
vn 0.000000 0.000000 1.000000
vn 0.000000 0.000000 1.000000
vn 0.000000 0.000000 1.000000
vn 0.000000 0.000000 1.000000
vn 0.000000 0.000000 1.000000
vn 0.000000 0.000000 1.000000
vn 0.000000 0.000000 1.000000
vn 0.000000 0.000000 1.000000
vn 0.000000 0.000000 1.000000
vn 0.000000 0.000000 1.000000
vn 0.000000 0.000000 1.000000
vn 0.000000 0.000000 1.000000
vn 0.000000 0.000000 1.000000
vn 0.000000 0.000000 1.000000
vn 0.000000 0.000000 1.000000
vn 0.000000 0.000000 1.000000
vn 0.000000 0.000000 1.000000
vn 0.000000 0.000000 1.000000
vn 0.000000 0.000000 1.000000
vn 0.000000 0.000000 1.000000
vn 0.000000 0.000000 1.000000
vn 0.000000 0.000000 1.000000
vn 0.000000 0.000000 1.000000
vn 0.000000 0.000000 1.000000
vn 0.000000 0.000000 1.000000
vn 0.000000 0.000000 1.000000
vn 0.000000 0.000000 1.000000
vn 0.000000 0.000000 1.000000
vn 0.000000 0.000000 1.000000
vn 0.000000 0.000000 1.000000
vn 0.000000 0.000000 1.000000
vn 0.000000 0.000000 1.000000
vn -0.000000 0.000000 1.000000
vn -0.000000 0.000000 1.000000
vn -0.000000 0.000000 1.000000
vn -0.000000 0.000000 1.000000
vn -0.000000 0.000000 1.000000
vn -0.000000 0.000000 1.000000
vn -0.000000 0.000000 1.000000
vn -0.000000 0.000000 1.000000
vn -0.000000 0.000000 1.000000
vn -0.000000 0.000000 1.000000
vn -0.000000 0.000000 1.000000
vn -0.000000 0.000000 1.000000
vn 0.000000 0.000000 1.000000
vn 0.000000 0.000000 1.000000
vn 0.000000 0.000000 1.000000
vn 0.000000 0.000000 1.000000
vn -0.195077 -0.980788 -0.000000
vn 0.195077 -0.980788 -0.000000
vn 0.195077 -0.980788 -0.000000
vn -0.195077 -0.980788 -0.000000
vn 0.195077 -0.980788 -0.000000
vn 0.555559 -0.831477 -0.000000
vn 0.555559 -0.831477 -0.000000
vn 0.195077 -0.980788 -0.000000
vn 0.555559 -0.831477 -0.000000
vn 0.831477 -0.555559 -0.000000
vn 0.831477 -0.555559 -0.000000
vn 0.555559 -0.831477 -0.000000
vn 0.831477 -0.555559 -0.000000
vn 0.980788 -0.195077 -0.000000
vn 0.980788 -0.195077 -0.000000
vn 0.831477 -0.555559 -0.000000
vn 0.980788 -0.195077 -0.000000
vn 0.980788 0.195077 -0.000000
vn 0.980788 0.195077 -0.000000
vn 0.980788 -0.195077 -0.000000
vn 0.980788 0.195077 -0.000000
vn 0.831477 0.555559 -0.000000
vn 0.831477 0.555559 -0.000000
vn 0.980788 0.195077 -0.000000
vn 0.831477 0.555559 -0.000000
vn 0.555559 0.831477 -0.000000
vn 0.555559 0.831477 -0.000000
vn 0.831477 0.555559 -0.000000
vn 0.555559 0.831477 -0.000000
vn 0.195077 0.980788 0.000000
vn 0.195077 0.980788 0.000000
vn 0.555559 0.831477 -0.000000
vn 0.195077 0.980788 0.000000
vn -0.195077 0.980788 0.000000
vn -0.195077 0.980788 0.000000
vn 0.195077 0.980788 0.000000
vn -0.195077 0.980788 0.000000
vn -0.555559 0.831477 0.000000
vn -0.555559 0.831477 0.000000
vn -0.195077 0.980788 0.000000
vn -0.555559 0.831477 0.000000
vn -0.831477 0.555559 0.000000
vn -0.831477 0.555559 0.000000
vn -0.555559 0.831477 0.000000
vn -0.831477 0.555559 0.000000
vn -0.980788 0.195077 0.000000
vn -0.980788 0.195077 0.000000
vn -0.831477 0.555559 0.000000
vn -0.980788 0.195077 0.000000
vn -0.980788 -0.195077 0.000000
vn -0.980788 -0.195077 0.000000
vn -0.980788 0.195077 0.000000
vn -0.980788 -0.195077 0.000000
vn -0.831477 -0.555559 0.000000
vn -0.831477 -0.555559 0.000000
vn -0.980788 -0.195077 0.000000
vn -0.831477 -0.555559 0.000000
vn -0.555559 -0.831477 0.000000
vn -0.555559 -0.831477 0.000000
vn -0.831477 -0.555559 0.000000
vn -0.555559 -0.831477 0.000000
vn -0.195077 -0.980788 -0.000000
vn -0.195077 -0.980788 -0.000000
vn -0.555559 -0.831477 0.000000
vn 0.000000 0.000000 -1.000000
vn 0.000000 0.000000 -1.000000
vn 0.000000 0.000000 -1.000000
vn 0.000000 0.000000 -1.000000
vn 0.000000 0.000000 -1.000000
vn 0.000000 0.000000 -1.000000
vn 0.000000 0.000000 -1.000000
vn 0.000000 0.000000 -1.000000
vn 0.000000 0.000000 -1.000000
vn 0.000000 0.000000 -1.000000
vn 0.000000 0.000000 -1.000000
vn 0.000000 0.000000 -1.000000
vn 0.000000 0.000000 -1.000000
vn 0.000000 0.000000 -1.000000
vn 0.000000 0.000000 -1.000000
vn 0.000000 0.000000 -1.000000
vn 0.000000 0.000000 -1.000000
vn 0.000000 0.000000 -1.000000
vn 0.382684 -0.000000 0.923880
vn -0.000000 -0.000000 1.000000
vn -0.000000 -0.000000 1.000000
vn 0.382684 -0.000000 0.923880
vn 0.000000 1.000000 -0.000001
vn 0.000000 1.000000 -0.000001
vn 0.000000 1.000000 -0.000001
vn 0.000000 1.000000 -0.000001
vn 0.000000 1.000000 -0.000001
vn -0.000000 -1.000000 -0.000001
vn -0.000000 -1.000000 -0.000001
vn -0.000000 -1.000000 -0.000001
vn -0.000000 -1.000000 -0.000001
vn -0.000000 -1.000000 -0.000001
vn 1.000000 0.000000 -0.000000
vn 1.000000 0.000000 -0.000000
vn 0.923880 -0.000000 0.382683
vn 0.923880 -0.000000 0.382683
vn 0.382684 -0.000000 0.923880
vn 0.923880 -0.000000 0.382683
vn 0.923880 -0.000000 0.382683
vn 0.382684 -0.000000 0.923880
vn 1.000000 0.000000 -0.000000
vn 1.000000 0.000000 -0.000000
vn 1.000000 0.000000 -0.000000
vn 1.000000 0.000000 -0.000000
vn 0.000000 -1.000000 -0.000000
vn 0.000000 -1.000000 -0.000000
vn 0.000000 -1.000000 -0.000000
vn 0.000000 -1.000000 -0.000000
vn 0.000000 -1.000000 -0.000000
vn 0.000000 -1.000000 -0.000000
vn -0.382684 -0.000000 0.923880
vn -0.382684 -0.000000 0.923880
vn 0.000000 -0.000000 1.000000
vn 0.000000 -0.000000 1.000000
vn 0.000000 1.000000 -0.000000
vn 0.000000 1.000000 -0.000000
vn 0.000000 1.000000 -0.000000
vn 0.000000 1.000000 -0.000000
vn 0.000000 1.000000 -0.000000
vn 0.000000 -1.000000 -0.000001
vn 0.000000 -1.000000 -0.000001
vn 0.000000 -1.000000 -0.000001
vn 0.000000 -1.000000 -0.000001
vn 0.000000 -1.000000 -0.000001
vn -1.000000 0.000000 0.000000
vn -0.923880 -0.000000 0.382683
vn -0.923880 -0.000000 0.382683
vn -1.000000 0.000000 0.000000
vn -0.382684 -0.000000 0.923880
vn -0.382684 -0.000000 0.923880
vn -0.923880 -0.000000 0.382683
vn -0.923880 -0.000000 0.382683
vn -1.000000 0.000000 0.000000
vn -1.000000 0.000000 0.000000
vn -1.000000 0.000000 0.000000
vn -1.000000 0.000000 0.000000
vn 0.000000 1.000000 -0.000000
vn 0.000000 1.000000 -0.000000
vn 0.000000 1.000000 -0.000000
vn 0.000000 1.000000 -0.000000
vn 0.000000 1.000000 -0.000000
vn 0.000000 1.000000 -0.000000
s off
g walllamp1:_0
usemtl walllamp1:textures_boqu_models_walllamp1
f 4/4/4 5/5/5 6/6/6 7/7/7 8/8/8 9/9/9 10/10/10 11/11/11 12/12/12 13/13/13 14/14/14 15/15/15 16/16/16 17/17/17 18/18/18 19/19/19
f 20/20/20 21/21/21 22/22/22 23/23/23
f 24/24/24 25/25/25 26/26/26 27/27/27
f 28/28/28 29/29/29 30/30/30 31/31/31
f 32/32/32 33/33/33 34/34/34 35/35/35
f 36/36/36 37/37/37 38/38/38 39/39/39
f 40/40/40 41/41/41 42/42/42 43/43/43
f 44/44/44 45/45/45 46/46/46 47/47/47
f 48/48/48 49/49/49 50/50/50 51/51/51
f 21/52/52 36/36/53 39/39/54 22/53/55
f 23/54/56 40/40/57 43/43/58 20/55/59
f 25/56/60 44/44/61 47/47/62 26/57/63
f 29/58/64 48/48/65 51/51/66 30/59/67
f 37/37/68 24/60/69 27/61/70 38/38/71
f 41/41/72 34/62/73 33/63/74 42/42/75
f 45/45/76 28/64/77 31/65/78 46/46/79
f 49/49/80 32/66/81 35/67/82 50/50/83
f 23/68/84 22/69/85 52/70/86 53/71/87
f 22/69/88 39/72/89 54/73/90 52/70/91
f 39/72/92 38/74/93 55/75/94 54/73/95
f 38/74/96 27/76/97 56/77/98 55/75/99
f 27/76/100 26/78/101 57/79/102 56/77/103
f 26/78/104 47/80/105 58/81/106 57/79/107
f 47/80/108 46/82/109 59/83/110 58/81/111
f 46/82/112 31/84/113 60/85/114 59/83/115
f 31/84/116 30/86/117 61/87/118 60/85/119
f 30/86/120 51/88/121 62/89/122 61/87/123
f 51/88/124 50/90/125 63/91/126 62/89/127
f 50/90/128 35/92/129 64/93/130 63/91/131
f 35/92/132 34/94/133 65/95/134 64/93/135
f 34/94/136 41/96/137 66/97/138 65/95/139
f 41/96/140 40/98/141 67/99/142 66/97/143
f 40/98/144 23/68/145 53/71/146 67/99/147
f 53/100/148 52/101/149 7/102/150 6/103/151
f 52/104/152 54/105/153 8/106/154 7/107/155
f 54/105/156 55/108/157 9/109/158 8/106/159
f 55/108/160 56/110/161 10/111/162 9/109/163
f 56/112/164 57/113/165 11/114/166 10/115/167
f 57/116/168 58/117/169 12/118/170 11/119/171
f 58/117/172 59/120/173 13/121/174 12/118/175
f 59/120/176 60/122/177 14/123/178 13/121/179
f 60/124/180 61/125/181 15/126/182 14/127/183
f 61/128/184 62/129/185 16/130/186 15/131/187
f 62/129/188 63/132/189 17/133/190 16/130/191
f 63/132/192 64/134/193 18/135/194 17/133/195
f 64/136/196 65/137/197 19/138/198 18/139/199
f 65/140/200 66/141/201 4/142/202 19/143/203
f 66/141/204 67/144/205 5/145/206 4/142/207
f 67/144/208 53/146/209 6/147/210 5/145/211
f 49/148/212 48/149/213 29/150/214
f 21/158/215 20/159/216 43/160/217 42/161/218 33/162/219 32/164/220 49/163/221 29/150/222 28/151/223 45/152/224 44/153/225 25/154/226 24/155/227 37/156/228 36/157/229
f 68/165/230 69/166/231 70/167/232 71/168/233
f 69/171/234 68/172/235 74/173/236 72/169/237 73/170/238
f 75/174/239 76/175/240 71/176/241 70/178/242 77/177/243
f 75/179/244 72/180/245 74/181/246 76/182/247
f 71/183/248 76/184/249 74/185/250 68/186/251
f 72/180/252 75/179/253 78/187/254 79/188/255
f 91/215/256 78/189/257 75/174/258 77/177/259 87/200/260 89/204/261
f 80/191/262 81/192/263 82/193/264 83/194/265
f 84/195/266 80/196/267 83/197/268 86/199/269 85/198/270
f 81/202/271 88/203/272 89/204/273 87/200/274 82/201/275
f 89/205/276 88/206/277 84/207/278 85/208/279
f 81/209/280 80/210/281 84/211/282 88/212/283
f 85/208/284 90/213/285 91/214/286 89/205/287
f 79/190/288 90/216/289 85/198/290 86/199/291 73/170/292 72/169/293
