# Exported by Gskelview
mtllib box_orange.mtl

v 29 23 -29
v 29 29 -23
v 29 29 -21
v 29 21 -29
v 29 21 -25
v 29 25 -21
v 29 -21 -29
v 29 -21 -25
v 29 -25 -21
v 29 -23 -29
v 29 -29 -21
v 29 -29 -23
v 29 25 21
v 29 29 21
v 29 23 29
v 29 29 23
v 29 21 29
v 29 21 25
v 29 -25 21
v 29 -21 25
v 29 -21 29
v 29 -29 21
v 29 -23 29
v 29 -29 23
v 29 21 -29
v 29 21 -25
v 27 21 -25
v 27 21 -27
v 29 21 -29
v 27 21 -27
v 25 21 -27
v 25 21 -29
v 29 -21 -25
v 29 -21 -29
v 27 -21 -25
v 27 -21 -27
v 27 -21 -27
v 29 -21 -29
v 25 -21 -27
v 25 -21 -29
v 29 25 -21
v 29 29 -21
v 27 25 -21
v 27 27 -21
v 27 27 -21
v 29 29 -21
v 25 27 -21
v 25 29 -21
v 29 21 -25
v 29 25 -21
v 27 25 -21
v 27 21 -25
v 29 -25 -21
v 29 -21 -25
v 27 -25 -21
v 27 -21 -25
v 29 -25 -21
v 27 -25 -21
v 27 -27 -21
v 29 -29 -21
v 29 -29 -21
v 27 -27 -21
v 25 -29 -21
v 25 -27 -21
v 29 29 21
v 29 25 21
v 27 25 21
v 27 27 21
v 29 29 21
v 27 27 21
v 25 27 21
v 25 29 21
v 27 -25 21
v 29 -25 21
v 27 -27 21
v 29 -29 21
v 27 -27 21
v 29 -29 21
v 25 -29 21
v 25 -27 21
v 29 25 21
v 29 21 25
v 27 21 25
v 27 25 21
v 29 -25 21
v 27 -25 21
v 27 -21 25
v 29 -21 25
v 27 21 25
v 29 21 25
v 27 21 27
v 29 21 29
v 27 21 27
v 29 21 29
v 25 21 29
v 25 21 27
v 29 -21 25
v 27 -21 25
v 27 -21 27
v 29 -21 29
v 29 -21 29
v 27 -21 27
v 25 -21 29
v 25 -21 27
v 29 23 -29
v 29 21 -29
v 25 21 -29
v 23 29 -29
v 21 25 -29
v 21 29 -29
v 29 -29 -23
v 29 -29 -21
v 25 -29 -21
v 23 -29 -29
v 21 -29 -25
v 21 -29 -29
v 29 -21 -29
v 29 -23 -29
v 23 -29 -29
v 25 -21 -29
v 21 -29 -29
v 21 -25 -29
v 23 29 -29
v 29 29 -23
v 29 23 -29
v 29 -29 -23
v 23 -29 -29
v 29 -23 -29
v 29 29 23
v 23 29 29
v 29 23 29
v 23 -29 29
v 29 -29 23
v 29 -23 29
v 29 -29 21
v 29 -29 23
v 23 -29 29
v 25 -29 21
v 21 -29 29
v 21 -29 25
v 21 27 -27
v 21 29 -29
v 21 25 -27
v 21 25 -29
v 21 29 -29
v 21 27 -27
v 21 27 -25
v 21 29 -25
v 21 25 -29
v 25 21 -29
v 21 25 -27
v 25 21 -27
v 25 -21 -27
v 25 -21 -29
v 21 -25 -27
v 21 -25 -29
v 21 -25 -27
v 21 -25 -29
v 21 -27 -27
v 21 -29 -29
v 21 -27 -27
v 21 -29 -29
v 21 -29 -25
v 21 -27 -25
v 29 29 -23
v 23 29 -29
v 21 29 -29
v 29 29 -21
v 21 29 -25
v 25 29 -21
v 25 29 -21
v 21 29 -25
v 21 27 -25
v 25 27 -21
v 25 -27 -21
v 21 -27 -25
v 21 -29 -25
v 25 -29 -21
v 29 29 23
v 29 29 21
v 21 29 25
v 25 29 21
v 21 29 29
v 23 29 29
v 25 29 21
v 25 27 21
v 21 27 25
v 21 29 25
v 25 -27 21
v 25 -29 21
v 21 -29 25
v 21 -27 25
v 21 29 25
v 21 27 25
v 21 29 29
v 21 27 27
v 21 29 29
v 21 27 27
v 21 25 29
v 21 25 27
v 29 23 29
v 23 29 29
v 21 29 29
v 29 21 29
v 25 21 29
v 21 25 29
v 21 25 27
v 25 21 27
v 21 25 29
v 25 21 29
v 25 -21 27
v 21 -25 27
v 21 -25 29
v 25 -21 29
v 29 -21 29
v 25 -21 29
v 21 -25 29
v 29 -23 29
v 21 -29 29
v 23 -29 29
v 21 -25 27
v 21 -27 27
v 21 -29 29
v 21 -25 29
v 21 -27 27
v 21 -27 25
v 21 -29 29
v 21 -29 25
v -21 25 -29
v -21 29 -29
v -21 25 -27
v -21 27 -27
v -21 27 -27
v -21 29 -29
v -21 27 -25
v -21 29 -25
v -21 -25 -29
v -21 -25 -27
v -21 -27 -27
v -21 -29 -29
v -21 -29 -29
v -21 -27 -27
v -21 -29 -25
v -21 -27 -25
v -21 27 25
v -21 29 25
v -21 29 29
v -21 27 27
v -21 27 27
v -21 29 29
v -21 25 29
v -21 25 27
v -21 -29 25
v -21 -27 25
v -21 -29 29
v -21 -27 27
v -21 -27 27
v -21 -25 27
v -21 -29 29
v -21 -25 29
v -21 -25 -29
v -21 -29 -29
v -23 -29 -29
v -25 -21 -29
v -29 -23 -29
v -29 -21 -29
v -21 -29 25
v -21 -29 29
v -23 -29 29
v -25 -29 21
v -29 -29 23
v -29 -29 21
v -23 29 -29
v -21 29 -29
v -25 21 -29
v -21 25 -29
v -29 21 -29
v -29 23 -29
v -25 21 -29
v -21 25 -29
v -25 21 -27
v -21 25 -27
v -21 -25 -27
v -21 -25 -29
v -25 -21 -27
v -25 -21 -29
v -21 27 -25
v -21 29 -25
v -25 27 -21
v -25 29 -21
v -21 -29 -25
v -21 -27 -25
v -25 -29 -21
v -25 -27 -21
v -21 -29 -29
v -21 -29 -25
v -25 -29 -21
v -23 -29 -29
v -29 -29 -21
v -29 -29 -23
v -21 29 25
v -21 27 25
v -25 27 21
v -25 29 21
v -21 -27 25
v -21 -29 25
v -25 -29 21
v -25 -27 21
v -25 21 27
v -21 25 27
v -25 21 29
v -21 25 29
v -21 -25 29
v -21 -25 27
v -25 -21 29
v -25 -21 27
v -25 21 -29
v -25 21 -27
v -29 21 -29
v -27 21 -27
v -29 21 -29
v -27 21 -27
v -29 21 -25
v -27 21 -25
v -25 -21 -27
v -25 -21 -29
v -29 -21 -29
v -27 -21 -27
v -27 -21 -27
v -29 -21 -29
v -29 -21 -25
v -27 -21 -25
v -29 23 -29
v -29 21 -29
v -29 21 -25
v -29 29 -23
v -29 25 -21
v -29 29 -21
v -21 29 -29
v -23 29 -29
v -29 29 -23
v -21 29 -25
v -29 29 -21
v -25 29 -21
v -29 29 -23
v -23 29 -29
v -29 23 -29
v -29 -21 -29
v -29 -23 -29
v -29 -29 -23
v -29 -21 -25
v -29 -29 -21
v -29 -25 -21
v -23 -29 -29
v -29 -29 -23
v -29 -23 -29
v -25 27 -21
v -25 29 -21
v -29 29 -21
v -27 27 -21
v -27 27 -21
v -29 29 -21
v -29 25 -21
v -27 25 -21
v -27 21 -25
v -27 25 -21
v -29 25 -21
v -29 21 -25
v -27 -21 -25
v -29 -21 -25
v -29 -25 -21
v -27 -25 -21
v -25 -27 -21
v -27 -27 -21
v -29 -29 -21
v -27 -27 -21
v -27 -25 -21
v -29 -29 -21
v -25 -29 -21
v -29 -25 -21
v -25 27 21
v -27 27 21
v -29 29 21
v -25 29 21
v -29 29 21
v -27 27 21
v -29 25 21
v -27 25 21
v -29 -25 21
v -27 -25 21
v -29 -29 21
v -27 -27 21
v -27 -27 21
v -25 -27 21
v -29 -29 21
v -25 -29 21
v -29 -25 21
v -29 -29 21
v -29 -29 23
v -29 -21 25
v -29 -23 29
v -29 -21 29
v -21 29 25
v -25 29 21
v -29 29 21
v -21 29 29
v -29 29 23
v -23 29 29
v -29 25 21
v -27 25 21
v -29 21 25
v -27 21 25
v -29 29 21
v -29 25 21
v -29 21 25
v -29 29 23
v -29 21 29
v -29 23 29
v -27 -21 25
v -27 -25 21
v -29 -21 25
v -29 -25 21
v -21 25 29
v -21 29 29
v -29 23 29
v -23 29 29
v -29 21 29
v -25 21 29
v -23 29 29
v -29 29 23
v -29 23 29
v -29 21 25
v -27 21 25
v -29 21 29
v -27 21 27
v -27 21 27
v -25 21 27
v -29 21 29
v -25 21 29
v -27 -21 25
v -29 -21 25
v -29 -21 29
v -27 -21 27
v -25 -21 27
v -27 -21 27
v -29 -21 29
v -25 -21 29
v -21 -25 29
v -25 -21 29
v -29 -21 29
v -21 -29 29
v -29 -23 29
v -23 -29 29
v -29 -29 23
v -23 -29 29
v -29 -23 29
v 27 27 21
v 27 21 27
v 27 -21 -27
v 27 21 -27
v 27 -27 -21
v 27 27 -21
v 27 -21 27
v 27 -27 21
v 21 27 -27
v 21 -27 -27
v -21 -27 -27
v 27 21 -27
v -21 27 -27
v 27 -21 -27
v -27 -21 -27
v -27 21 -27
v 21 -27 27
v -21 -27 27
v 21 -27 -27
v 27 -27 -21
v -21 -27 -27
v 27 -27 21
v -27 -27 21
v -27 -27 -21
v -21 27 -27
v -27 27 -21
v 27 27 21
v 27 27 -21
v 21 27 27
v 21 27 -27
v -27 27 21
v -21 27 27
v -21 27 27
v -27 21 27
v 27 -21 27
v 27 21 27
v 21 -27 27
v 21 27 27
v -27 -21 27
v -21 -27 27
v -27 -27 -21
v -27 -27 21
v -27 27 -21
v -27 21 -27
v -27 27 21
v -27 -21 -27
v -27 -21 27
v -27 21 27
vt 0.875 0.5
vt 0.5 0.125
vt 0.5 0
vt 1 0.5
vt 1 0.25
vt 0.75 0
vt 1 0.5
vt 1 0.25
vt 0.75 0
vt 0.875 0.5
vt 0.5 0
vt 0.5 0.125
vt 0.75 0
vt 0.5 0
vt 0.875 0.5
vt 0.5 0.125
vt 1 0.5
vt 1 0.25
vt 0.75 0
vt 1 0.25
vt 1 0.5
vt 0.5 0
vt 0.875 0.5
vt 0.5 0.125
vt 0.75 1
vt 0.5 1
vt 0.5 0.875
vt 0.625 0.875
vt 0.75 1
vt 0.625 0.875
vt 0.5 0.875
vt 0.5 1
vt 0.5 1
vt 0.75 1
vt 0.5 0.875
vt 0.625 0.875
vt 0.625 0.875
vt 0.75 1
vt 0.5 0.875
vt 0.5 1
vt -1.5 1
vt -1.75 1
vt -1.5 0.875
vt -1.625 0.875
vt 2.625 0.875
vt 2.75 1
vt 2.5 0.875
vt 2.5 1
vt 0.5 1
vt 0.25 1
vt 0.25 0.875
vt 0.5 0.875
vt 0.25 1
vt 0.5 1
vt 0.25 0.875
vt 0.5 0.875
vt -1.5 1
vt -1.5 0.875
vt -1.625 0.875
vt -1.75 1
vt 2.75 1
vt 2.625 0.875
vt 2.5 1
vt 2.5 0.875
vt 0.25 1
vt 0.5 1
vt 0.5 0.875
vt 0.375 0.875
vt 0.25 1
vt 0.375 0.875
vt 0.5 0.875
vt 0.5 1
vt 0.5 0.875
vt 0.5 1
vt 0.375 0.875
vt 0.25 1
vt 0.375 0.875
vt 0.25 1
vt 0.5 1
vt 0.5 0.875
vt 0.25 1
vt 0.5 1
vt 0.5 0.875
vt 0.25 0.875
vt 0.25 1
vt 0.25 0.875
vt 0.5 0.875
vt 0.5 1
vt 0.5 0.875
vt 0.5 1
vt 0.625 0.875
vt 0.75 1
vt 0.625 0.875
vt 0.75 1
vt 0.5 1
vt 0.5 0.875
vt 0.5 1
vt 0.5 0.875
vt 0.625 0.875
vt 0.75 1
vt 0.75 1
vt 0.625 0.875
vt 0.5 1
vt 0.5 0.875
vt 0.875 0.5
vt 1 0.5
vt 1 0.25
vt 0.5 0.125
vt 0.75 0
vt 0.5 0
vt 0.875 0.5
vt 1 0.5
vt 1 0.25
vt 0.5 0.125
vt 0.75 0
vt 0.5 0
vt 1 0.5
vt 0.875 0.5
vt 0.5 0.125
vt 1 0.25
vt 0.5 0
vt 0.75 0
vt 0.916672 0.083344
vt 0.541672 0.458344
vt 0.916672 0.458344
vt 0.541672 0.458344
vt 0.916672 0.083344
vt 0.916672 0.458344
vt 0.916672 0.083344
vt 0.541672 0.458344
vt 0.916672 0.458344
vt 0.541672 0.458344
vt 0.916672 0.083344
vt 0.916672 0.458344
vt 0.5 0
vt 0.5 0.125
vt 0.875 0.5
vt 0.75 0
vt 1 0.5
vt 1 0.25
vt 0.375 0.875
vt 0.25 1
vt 0.5 0.875
vt 0.5 1
vt 0.25 1
vt 0.375 0.875
vt 0.5 0.875
vt 0.5 1
vt 0.25 1
vt 0.5 1
vt 0.25 0.875
vt 0.5 0.875
vt 0.5 0.875
vt 0.5 1
vt 0.25 0.875
vt 0.25 1
vt 0.5 0.875
vt 0.5 1
vt 0.375 0.875
vt 0.25 1
vt 0.375 0.875
vt 0.25 1
vt 0.5 1
vt 0.5 0.875
vt 0.875 0.5
vt 0.5 0.125
vt 0.5 0
vt 1 0.5
vt 0.75 0
vt 1 0.25
vt 0.5 1
vt 0.25 1
vt 0.25 0.875
vt 0.5 0.875
vt 0.5 0.875
vt 0.25 0.875
vt 0.25 1
vt 0.5 1
vt 0.5 0.125
vt 0.5 0
vt 1 0.25
vt 0.75 0
vt 1 0.5
vt 0.875 0.5
vt 0.25 1
vt 0.25 0.875
vt 0.5 0.875
vt 0.5 1
vt 0.25 0.875
vt 0.25 1
vt 0.5 1
vt 0.5 0.875
vt 2.5 1
vt 2.5 0.875
vt 2.75 1
vt 2.625 0.875
vt -1.75 1
vt -1.625 0.875
vt -1.5 1
vt -1.5 0.875
vt 0.875 0.5
vt 0.5 0.125
vt 0.5 0
vt 1 0.5
vt 1 0.25
vt 0.75 0
vt 0.25 0.875
vt 0.5 0.875
vt 0.25 1
vt 0.5 1
vt 0.5 0.875
vt 0.25 0.875
vt 0.25 1
vt 0.5 1
vt 1 0.5
vt 1 0.25
vt 0.75 0
vt 0.875 0.5
vt 0.5 0
vt 0.5 0.125
vt -1.5 0.875
vt -1.625 0.875
vt -1.75 1
vt -1.5 1
vt 2.625 0.875
vt 2.5 0.875
vt 2.75 1
vt 2.5 1
vt -1.5 1
vt -1.75 1
vt -1.5 0.875
vt -1.625 0.875
vt 2.625 0.875
vt 2.75 1
vt 2.5 0.875
vt 2.5 1
vt -1.5 1
vt -1.5 0.875
vt -1.625 0.875
vt -1.75 1
vt 2.75 1
vt 2.625 0.875
vt 2.5 1
vt 2.5 0.875
vt 0.5 0.875
vt 0.5 1
vt 0.25 1
vt 0.375 0.875
vt 0.375 0.875
vt 0.25 1
vt 0.5 1
vt 0.5 0.875
vt 0.5 1
vt 0.5 0.875
vt 0.25 1
vt 0.375 0.875
vt 0.375 0.875
vt 0.5 0.875
vt 0.25 1
vt 0.5 1
vt 0.75 0
vt 0.5 0
vt 0.5 0.125
vt 1 0.25
vt 0.875 0.5
vt 1 0.5
vt 0.75 0
vt 0.5 0
vt 0.5 0.125
vt 1 0.25
vt 0.875 0.5
vt 1 0.5
vt 0.5 0.125
vt 0.5 0
vt 1 0.25
vt 0.75 0
vt 1 0.5
vt 0.875 0.5
vt 0.5 1
vt 0.25 1
vt 0.5 0.875
vt 0.25 0.875
vt 0.25 0.875
vt 0.25 1
vt 0.5 0.875
vt 0.5 1
vt 0.5 0.875
vt 0.5 1
vt 0.25 0.875
vt 0.25 1
vt 0.5 1
vt 0.5 0.875
vt 0.25 1
vt 0.25 0.875
vt 1 0.5
vt 1 0.25
vt 0.75 0
vt 0.875 0.5
vt 0.5 0
vt 0.5 0.125
vt 0.25 1
vt 0.25 0.875
vt 0.5 0.875
vt 0.5 1
vt 0.25 0.875
vt 0.25 1
vt 0.5 1
vt 0.5 0.875
vt 0.5 0.875
vt 0.25 0.875
vt 0.5 1
vt 0.25 1
vt 0.25 1
vt 0.25 0.875
vt 0.5 1
vt 0.5 0.875
vt 0.5 1
vt 0.5 0.875
vt 0.75 1
vt 0.625 0.875
vt 0.75 1
vt 0.625 0.875
vt 0.5 1
vt 0.5 0.875
vt 0.5 0.875
vt 0.5 1
vt 0.75 1
vt 0.625 0.875
vt 0.625 0.875
vt 0.75 1
vt 0.5 1
vt 0.5 0.875
vt 0.875 0.5
vt 1 0.5
vt 1 0.25
vt 0.5 0.125
vt 0.75 0
vt 0.5 0
vt 1 0.5
vt 0.875 0.5
vt 0.5 0.125
vt 1 0.25
vt 0.5 0
vt 0.75 0
vt 0.916672 0.083344
vt 0.541672 0.458344
vt 0.916672 0.458344
vt 1 0.5
vt 0.875 0.5
vt 0.5 0.125
vt 1 0.25
vt 0.5 0
vt 0.75 0
vt 0.541672 0.458344
vt 0.916672 0.083344
vt 0.916672 0.458344
vt 0.5 0.875
vt 0.5 1
vt 0.25 1
vt 0.375 0.875
vt 0.375 0.875
vt 0.25 1
vt 0.5 1
vt 0.5 0.875
vt 0.5 0.875
vt 0.25 0.875
vt 0.25 1
vt 0.5 1
vt 0.5 0.875
vt 0.5 1
vt 0.25 1
vt 0.25 0.875
vt 0.5 0.875
vt 0.375 0.875
vt 0.25 1
vt 0.375 0.875
vt 0.5 0.875
vt 0.25 1
vt 0.5 1
vt 0.5 1
vt 2.5 0.875
vt 2.625 0.875
vt 2.75 1
vt 2.5 1
vt -1.75 1
vt -1.625 0.875
vt -1.5 1
vt -1.5 0.875
vt -1.5 1
vt -1.5 0.875
vt -1.75 1
vt -1.625 0.875
vt 2.625 0.875
vt 2.5 0.875
vt 2.75 1
vt 2.5 1
vt 0.75 0
vt 0.5 0
vt 0.5 0.125
vt 1 0.25
vt 0.875 0.5
vt 1 0.5
vt 0.75 0
vt 1 0.25
vt 1 0.5
vt 0.5 0
vt 0.875 0.5
vt 0.5 0.125
vt 0.25 1
vt 0.25 0.875
vt 0.5 1
vt 0.5 0.875
vt 0.5 0
vt 0.75 0
vt 1 0.25
vt 0.5 0.125
vt 1 0.5
vt 0.875 0.5
vt 0.5 0.875
vt 0.25 0.875
vt 0.5 1
vt 0.25 1
vt 0.75 0
vt 0.5 0
vt 0.875 0.5
vt 0.5 0.125
vt 1 0.5
vt 1 0.25
vt 0.916672 0.083343
vt 0.541672 0.458343
vt 0.916672 0.458343
vt 0.5 1
vt 0.5 0.875
vt 0.75 1
vt 0.625 0.875
vt 0.625 0.875
vt 0.5 0.875
vt 0.75 1
vt 0.5 1
vt 0.5 0.875
vt 0.5 1
vt 0.75 1
vt 0.625 0.875
vt 0.5 0.875
vt 0.625 0.875
vt 0.75 1
vt 0.5 1
vt 0.75 0
vt 1 0.25
vt 1 0.5
vt 0.5 0
vt 0.875 0.5
vt 0.5 0.125
vt 0.541672 0.458343
vt 0.916672 0.083343
vt 0.916672 0.458343
vt 0.11111 1
vt -1e-06 0.888889
vt 0.999999 0.111111
vt 0.999999 0.888889
vt 0.888888 0
vt 0.888888 1
vt -1e-06 0.111111
vt 0.11111 0
vt 0.888889 1
vt 0.888889 0
vt 0.111112 0
vt 1 0.888889
vt 0.111112 1
vt 1 0.111111
vt 0 0.111111
vt 0 0.888889
vt 0.888889 -9.53674e-07
vt 0.111112 -9.53674e-07
vt 0.888889 0.999999
vt 1 0.888888
vt 0.111112 0.999999
vt 1 0.11111
vt 0 0.11111
vt 0 0.888888
vt 0.111112 0.999999
vt 0 0.888888
vt 1 0.11111
vt 1 0.888888
vt 0.888889 -9.53674e-07
vt 0.888889 0.999999
vt 0 0.11111
vt 0.111112 -9.53674e-07
vt 0.111112 1
vt 0 0.888889
vt 1 0.111111
vt 1 0.888889
vt 0.888889 0
vt 0.888889 1
vt 0 0.111111
vt 0.111112 0
vt 0.888888 0
vt 0.11111 0
vt 0.888888 1
vt 0.999999 0.888889
vt 0.11111 1
vt 0.999999 0.111111
vt -1e-06 0.111111
vt -1e-06 0.888889
vn 1 0 0
vn 1 0 0
vn 1 0 0
vn 1 0 0
vn 1 0 0
vn 1 0 0
vn 1 0 0
vn 1 0 0
vn 1 0 0
vn 1 0 0
vn 1 0 0
vn 1 0 0
vn 1 0 0
vn 1 0 0
vn 1 0 0
vn 1 0 0
vn 1 0 0
vn 1 0 0
vn 1 0 0
vn 1 0 0
vn 1 0 0
vn 1 0 0
vn 1 0 0
vn 1 0 0
vn 0 -1 0
vn 0 -1 0
vn 0 -1 0
vn 0 -1 0
vn 0 -1 0
vn 0 -1 0
vn 0 -1 0
vn 0 -1 0
vn 0 1 0
vn 0 1 0
vn 0 1 0
vn 0 1 0
vn 0 1 0
vn 0 1 0
vn 0 1 0
vn 0 1 0
vn 0 0 1
vn 0 0 1
vn 0 0 1
vn 0 0 1
vn 0 0 1
vn 0 0 1
vn 0 0 1
vn 0 0 1
vn 0 -0.707107 0.707107
vn 0 -0.707107 0.707107
vn 0 -0.707107 0.707107
vn 0 -0.707107 0.707107
vn 0 0.707107 0.707107
vn 0 0.707107 0.707107
vn 0 0.707107 0.707107
vn 0 0.707107 0.707107
vn 0 0 1
vn 0 0 1
vn 0 0 1
vn 0 0 1
vn 0 0 1
vn 0 0 1
vn 0 0 1
vn 0 0 1
vn 0 0 -1
vn 0 0 -1
vn 0 0 -1
vn 0 0 -1
vn 0 0 -1
vn 0 0 -1
vn 0 0 -1
vn 0 0 -1
vn 0 0 -1
vn 0 0 -1
vn 0 0 -1
vn 0 0 -1
vn 0 0 -1
vn 0 0 -1
vn 0 0 -1
vn 0 0 -1
vn 0 -0.707107 -0.707107
vn 0 -0.707107 -0.707107
vn 0 -0.707107 -0.707107
vn 0 -0.707107 -0.707107
vn 0 0.707107 -0.707107
vn 0 0.707107 -0.707107
vn 0 0.707107 -0.707107
vn 0 0.707107 -0.707107
vn 0 -1 0
vn 0 -1 0
vn 0 -1 0
vn 0 -1 0
vn 0 -1 0
vn 0 -1 0
vn 0 -1 0
vn 0 -1 0
vn 0 1 0
vn 0 1 0
vn 0 1 0
vn 0 1 0
vn 0 1 0
vn 0 1 0
vn 0 1 0
vn 0 1 0
vn 0 0 -1
vn 0 0 -1
vn 0 0 -1
vn 0 0 -1
vn 0 0 -1
vn 0 0 -1
vn 0 -1 0
vn 0 -1 0
vn 0 -1 0
vn 0 -1 0
vn 0 -1 0
vn 0 -1 0
vn 0 0 -1
vn 0 0 -1
vn 0 0 -1
vn 0 0 -1
vn 0 0 -1
vn 0 0 -1
vn 0.57735 0.57735 -0.57735
vn 0.57735 0.57735 -0.57735
vn 0.57735 0.57735 -0.57735
vn 0.57735 -0.57735 -0.57735
vn 0.57735 -0.57735 -0.57735
vn 0.57735 -0.57735 -0.57735
vn 0.57735 0.57735 0.57735
vn 0.57735 0.57735 0.57735
vn 0.57735 0.57735 0.57735
vn 0.57735 -0.57735 0.57735
vn 0.57735 -0.57735 0.57735
vn 0.57735 -0.57735 0.57735
vn 0 -1 0
vn 0 -1 0
vn 0 -1 0
vn 0 -1 0
vn 0 -1 0
vn 0 -1 0
vn -1 0 0
vn -1 0 0
vn -1 0 0
vn -1 0 0
vn -1 0 0
vn -1 0 0
vn -1 0 0
vn -1 0 0
vn -0.707107 -0.707107 0
vn -0.707107 -0.707107 0
vn -0.707107 -0.707107 0
vn -0.707107 -0.707107 0
vn -0.707107 0.707107 0
vn -0.707107 0.707107 0
vn -0.707107 0.707107 0
vn -0.707107 0.707107 0
vn -1 0 0
vn -1 0 0
vn -1 0 0
vn -1 0 0
vn -1 0 0
vn -1 0 0
vn -1 0 0
vn -1 0 0
vn 0 1 0
vn 0 1 0
vn 0 1 0
vn 0 1 0
vn 0 1 0
vn 0 1 0
vn -0.707107 0 0.707107
vn -0.707107 0 0.707107
vn -0.707107 0 0.707107
vn -0.707107 0 0.707107
vn -0.707107 0 0.707107
vn -0.707107 0 0.707107
vn -0.707107 0 0.707107
vn -0.707107 0 0.707107
vn 0 1 0
vn 0 1 0
vn 0 1 0
vn 0 1 0
vn 0 1 0
vn 0 1 0
vn -0.707107 0 -0.707107
vn -0.707107 0 -0.707107
vn -0.707107 0 -0.707107
vn -0.707107 0 -0.707107
vn -0.707107 0 -0.707107
vn -0.707107 0 -0.707107
vn -0.707107 0 -0.707107
vn -0.707107 0 -0.707107
vn -1 0 0
vn -1 0 0
vn -1 0 0
vn -1 0 0
vn -1 0 0
vn -1 0 0
vn -1 0 0
vn -1 0 0
vn 0 0 1
vn 0 0 1
vn 0 0 1
vn 0 0 1
vn 0 0 1
vn 0 0 1
vn -0.707107 -0.707107 0
vn -0.707107 -0.707107 0
vn -0.707107 -0.707107 0
vn -0.707107 -0.707107 0
vn -0.707107 0.707107 0
vn -0.707107 0.707107 0
vn -0.707107 0.707107 0
vn -0.707107 0.707107 0
vn 0 0 1
vn 0 0 1
vn 0 0 1
vn 0 0 1
vn 0 0 1
vn 0 0 1
vn -1 0 0
vn -1 0 0
vn -1 0 0
vn -1 0 0
vn -1 0 0
vn -1 0 0
vn -1 0 0
vn -1 0 0
vn 1 0 0
vn 1 0 0
vn 1 0 0
vn 1 0 0
vn 1 0 0
vn 1 0 0
vn 1 0 0
vn 1 0 0
vn 1 0 0
vn 1 0 0
vn 1 0 0
vn 1 0 0
vn 1 0 0
vn 1 0 0
vn 1 0 0
vn 1 0 0
vn 1 0 0
vn 1 0 0
vn 1 0 0
vn 1 0 0
vn 1 0 0
vn 1 0 0
vn 1 0 0
vn 1 0 0
vn 1 0 0
vn 1 0 0
vn 1 0 0
vn 1 0 0
vn 1 0 0
vn 1 0 0
vn 1 0 0
vn 1 0 0
vn 0 0 -1
vn 0 0 -1
vn 0 0 -1
vn 0 0 -1
vn 0 0 -1
vn 0 0 -1
vn 0 -1 0
vn 0 -1 0
vn 0 -1 0
vn 0 -1 0
vn 0 -1 0
vn 0 -1 0
vn 0 0 -1
vn 0 0 -1
vn 0 0 -1
vn 0 0 -1
vn 0 0 -1
vn 0 0 -1
vn 0.707107 -0.707107 0
vn 0.707107 -0.707107 0
vn 0.707107 -0.707107 0
vn 0.707107 -0.707107 0
vn 0.707107 0.707107 0
vn 0.707107 0.707107 0
vn 0.707107 0.707107 0
vn 0.707107 0.707107 0
vn 0.707107 0 0.707107
vn 0.707107 0 0.707107
vn 0.707107 0 0.707107
vn 0.707107 0 0.707107
vn 0.707107 0 0.707107
vn 0.707107 0 0.707107
vn 0.707107 0 0.707107
vn 0.707107 0 0.707107
vn 0 -1 0
vn 0 -1 0
vn 0 -1 0
vn 0 -1 0
vn 0 -1 0
vn 0 -1 0
vn 0.707107 0 -0.707107
vn 0.707107 0 -0.707107
vn 0.707107 0 -0.707107
vn 0.707107 0 -0.707107
vn 0.707107 0 -0.707107
vn 0.707107 0 -0.707107
vn 0.707107 0 -0.707107
vn 0.707107 0 -0.707107
vn 0.707107 -0.707107 0
vn 0.707107 -0.707107 0
vn 0.707107 -0.707107 0
vn 0.707107 -0.707107 0
vn 0.707107 0.707107 0
vn 0.707107 0.707107 0
vn 0.707107 0.707107 0
vn 0.707107 0.707107 0
vn 0 -1 0
vn 0 -1 0
vn 0 -1 0
vn 0 -1 0
vn 0 -1 0
vn 0 -1 0
vn 0 -1 0
vn 0 -1 0
vn 0 1 0
vn 0 1 0
vn 0 1 0
vn 0 1 0
vn 0 1 0
vn 0 1 0
vn 0 1 0
vn 0 1 0
vn -1 0 0
vn -1 0 0
vn -1 0 0
vn -1 0 0
vn -1 0 0
vn -1 0 0
vn 0 1 0
vn 0 1 0
vn 0 1 0
vn 0 1 0
vn 0 1 0
vn 0 1 0
vn -0.57735 0.57735 -0.57735
vn -0.57735 0.57735 -0.57735
vn -0.57735 0.57735 -0.57735
vn -1 0 0
vn -1 0 0
vn -1 0 0
vn -1 0 0
vn -1 0 0
vn -1 0 0
vn -0.57735 -0.57735 -0.57735
vn -0.57735 -0.57735 -0.57735
vn -0.57735 -0.57735 -0.57735
vn 0 0 1
vn 0 0 1
vn 0 0 1
vn 0 0 1
vn 0 0 1
vn 0 0 1
vn 0 0 1
vn 0 0 1
vn 0 -0.707107 0.707107
vn 0 -0.707107 0.707107
vn 0 -0.707107 0.707107
vn 0 -0.707107 0.707107
vn 0 0.707107 0.707107
vn 0 0.707107 0.707107
vn 0 0.707107 0.707107
vn 0 0.707107 0.707107
vn 0 0 1
vn 0 0 1
vn 0 0 1
vn 0 0 1
vn 0 0 1
vn 0 0 1
vn 0 0 1
vn 0 0 1
vn 0 0 -1
vn 0 0 -1
vn 0 0 -1
vn 0 0 -1
vn 0 0 -1
vn 0 0 -1
vn 0 0 -1
vn 0 0 -1
vn 0 0 -1
vn 0 0 -1
vn 0 0 -1
vn 0 0 -1
vn 0 0 -1
vn 0 0 -1
vn 0 0 -1
vn 0 0 -1
vn -1 0 0
vn -1 0 0
vn -1 0 0
vn -1 0 0
vn -1 0 0
vn -1 0 0
vn 0 1 0
vn 0 1 0
vn 0 1 0
vn 0 1 0
vn 0 1 0
vn 0 1 0
vn 0 -0.707107 -0.707107
vn 0 -0.707107 -0.707107
vn 0 -0.707107 -0.707107
vn 0 -0.707107 -0.707107
vn -1 0 0
vn -1 0 0
vn -1 0 0
vn -1 0 0
vn -1 0 0
vn -1 0 0
vn 0 0.707107 -0.707107
vn 0 0.707107 -0.707107
vn 0 0.707107 -0.707107
vn 0 0.707107 -0.707107
vn 0 0 1
vn 0 0 1
vn 0 0 1
vn 0 0 1
vn 0 0 1
vn 0 0 1
vn -0.57735 0.57735 0.57735
vn -0.57735 0.57735 0.57735
vn -0.57735 0.57735 0.57735
vn 0 -1 0
vn 0 -1 0
vn 0 -1 0
vn 0 -1 0
vn 0 -1 0
vn 0 -1 0
vn 0 -1 0
vn 0 -1 0
vn 0 1 0
vn 0 1 0
vn 0 1 0
vn 0 1 0
vn 0 1 0
vn 0 1 0
vn 0 1 0
vn 0 1 0
vn 0 0 1
vn 0 0 1
vn 0 0 1
vn 0 0 1
vn 0 0 1
vn 0 0 1
vn -0.57735 -0.57735 0.57735
vn -0.57735 -0.57735 0.57735
vn -0.57735 -0.57735 0.57735
vn 1 0 0
vn 1 0 0
vn 1 0 0
vn 1 0 0
vn 1 0 0
vn 1 0 0
vn 1 0 0
vn 1 0 0
vn 0 0 -1
vn 0 0 -1
vn 0 0 -1
vn 0 0 -1
vn 0 0 -1
vn 0 0 -1
vn 0 0 -1
vn 0 0 -1
vn 0 -1 0
vn 0 -1 0
vn 0 -1 0
vn 0 -1 0
vn 0 -1 0
vn 0 -1 0
vn 0 -1 0
vn 0 -1 0
vn 0 1 0
vn 0 1 0
vn 0 1 0
vn 0 1 0
vn 0 1 0
vn 0 1 0
vn 0 1 0
vn 0 1 0
vn 0 0 1
vn 0 0 1
vn 0 0 1
vn 0 0 1
vn 0 0 1
vn 0 0 1
vn 0 0 1
vn 0 0 1
vn -1 0 0
vn -1 0 0
vn -1 0 0
vn -1 0 0
vn -1 0 0
vn -1 0 0
vn -1 0 0
vn -1 0 0

g _0
usemtl textures/blx_wtest3/blx_wt3_floor4
f 1/1/1 2/2/2 3/3/3
f 4/4/4 1/1/1 3/3/3
f 5/5/5 4/4/4 6/6/6
f 4/4/4 3/3/3 6/6/6

g _1
usemtl textures/blx_wtest3/blx_wt3_floor4
f 7/7/7 8/8/8 9/9/9
f 10/10/10 7/7/7 9/9/9
f 10/10/10 9/9/9 11/11/11
f 12/12/12 10/10/10 11/11/11

g _2
usemtl textures/blx_wtest3/blx_wt3_floor4
f 13/13/13 14/14/14 15/15/15
f 14/14/14 16/16/16 15/15/15
f 13/13/13 15/15/15 17/17/17
f 18/18/18 13/13/13 17/17/17

g _3
usemtl textures/blx_wtest3/blx_wt3_floor4
f 19/19/19 20/20/20 21/21/21
f 22/22/22 19/19/19 21/21/21
f 22/22/22 21/21/21 23/23/23
f 24/24/24 22/22/22 23/23/23

g _4
usemtl textures/blx_wtest3/blx_wt3_floor4
f 25/25/25 26/26/26 27/27/27
f 28/28/28 25/25/25 27/27/27
f 29/29/29 30/30/30 31/31/31
f 32/32/32 29/29/29 31/31/31

g _5
usemtl textures/blx_wtest3/blx_wt3_floor4
f 33/33/33 34/34/34 35/35/35
f 34/34/34 36/36/36 35/35/35
f 37/37/37 38/38/38 39/39/39
f 38/38/38 40/40/40 39/39/39

g _6
usemtl textures/blx_wtest3/blx_wt3_floor4
f 41/41/41 42/42/42 43/43/43
f 42/42/42 44/44/44 43/43/43
f 45/45/45 46/46/46 47/47/47
f 46/46/46 48/48/48 47/47/47

g _7
usemtl textures/blx_wtest3/blx_wt3_floor4
f 49/49/49 50/50/50 51/51/51
f 52/52/52 49/49/49 51/51/51

g _8
usemtl textures/blx_wtest3/blx_wt3_floor4
f 53/53/53 54/54/54 55/55/55
f 54/54/54 56/56/56 55/55/55

g _9
usemtl textures/blx_wtest3/blx_wt3_floor4
f 57/57/57 58/58/58 59/59/59
f 60/60/60 57/57/57 59/59/59
f 61/61/61 62/62/62 63/63/63
f 62/62/62 64/64/64 63/63/63

g _10
usemtl textures/blx_wtest3/blx_wt3_floor4
f 65/65/65 66/66/66 67/67/67
f 68/68/68 65/65/65 67/67/67
f 69/69/69 70/70/70 71/71/71
f 72/72/72 69/69/69 71/71/71

g _11
usemtl textures/blx_wtest3/blx_wt3_floor4
f 73/73/73 74/74/74 75/75/75
f 74/74/74 76/76/76 75/75/75
f 77/77/77 78/78/78 79/79/79
f 80/80/80 77/77/77 79/79/79

g _12
usemtl textures/blx_wtest3/blx_wt3_floor4
f 81/81/81 82/82/82 83/83/83
f 84/84/84 81/81/81 83/83/83

g _13
usemtl textures/blx_wtest3/blx_wt3_floor4
f 85/85/85 86/86/86 87/87/87
f 88/88/88 85/85/85 87/87/87

g _14
usemtl textures/blx_wtest3/blx_wt3_floor4
f 89/89/89 90/90/90 91/91/91
f 90/90/90 92/92/92 91/91/91
f 93/93/93 94/94/94 95/95/95
f 96/96/96 93/93/93 95/95/95

g _15
usemtl textures/blx_wtest3/blx_wt3_floor4
f 97/97/97 98/98/98 99/99/99
f 100/100/100 97/97/97 99/99/99
f 101/101/101 102/102/102 103/103/103
f 102/102/102 104/104/104 103/103/103

g _16
usemtl textures/blx_wtest3/blx_wt3_floor4
f 105/105/105 106/106/106 107/107/107
f 108/108/108 105/105/105 107/107/107
f 108/108/108 107/107/107 109/109/109
f 110/110/110 108/108/108 109/109/109

g _17
usemtl textures/blx_wtest3/blx_wt3_floor4
f 111/111/111 112/112/112 113/113/113
f 114/114/114 111/111/111 113/113/113
f 114/114/114 113/113/113 115/115/115
f 116/116/116 114/114/114 115/115/115

g _18
usemtl textures/blx_wtest3/blx_wt3_floor4
f 117/117/117 118/118/118 119/119/119
f 120/120/120 117/117/117 119/119/119
f 120/120/120 119/119/119 121/121/121
f 122/122/122 120/120/120 121/121/121

g _19
usemtl textures/blx_wtest3/blx_wt3_floor4
f 123/123/123 124/124/124 125/125/125

g _20
usemtl textures/blx_wtest3/blx_wt3_floor4
f 126/126/126 127/127/127 128/128/128

g _21
usemtl textures/blx_wtest3/blx_wt3_floor4
f 129/129/129 130/130/130 131/131/131

g _22
usemtl textures/blx_wtest3/blx_wt3_floor4
f 132/132/132 133/133/133 134/134/134

g _23
usemtl textures/blx_wtest3/blx_wt3_floor4
f 135/135/135 136/136/136 137/137/137
f 138/138/138 135/135/135 137/137/137
f 138/138/138 137/137/137 139/139/139
f 140/140/140 138/138/138 139/139/139

g _24
usemtl textures/blx_wtest3/blx_wt3_floor4
f 141/141/141 142/142/142 143/143/143
f 142/142/142 144/144/144 143/143/143
f 145/145/145 146/146/146 147/147/147
f 148/148/148 145/145/145 147/147/147

g _25
usemtl textures/blx_wtest3/blx_wt3_floor4
f 149/149/149 150/150/150 151/151/151
f 150/150/150 152/152/152 151/151/151

g _26
usemtl textures/blx_wtest3/blx_wt3_floor4
f 153/153/153 154/154/154 155/155/155
f 154/154/154 156/156/156 155/155/155

g _27
usemtl textures/blx_wtest3/blx_wt3_floor4
f 157/157/157 158/158/158 159/159/159
f 158/158/158 160/160/160 159/159/159
f 161/161/161 162/162/162 163/163/163
f 164/164/164 161/161/161 163/163/163

g _28
usemtl textures/blx_wtest3/blx_wt3_floor4
f 165/165/165 166/166/166 167/167/167
f 168/168/168 165/165/165 167/167/167
f 168/168/168 167/167/167 169/169/169
f 170/170/170 168/168/168 169/169/169

g _29
usemtl textures/blx_wtest3/blx_wt3_floor4
f 171/171/171 172/172/172 173/173/173
f 174/174/174 171/171/171 173/173/173

g _30
usemtl textures/blx_wtest3/blx_wt3_floor4
f 175/175/175 176/176/176 177/177/177
f 178/178/178 175/175/175 177/177/177

g _31
usemtl textures/blx_wtest3/blx_wt3_floor4
f 179/179/179 180/180/180 181/181/181
f 180/180/180 182/182/182 181/181/181
f 179/179/179 181/181/181 183/183/183
f 184/184/184 179/179/179 183/183/183

g _32
usemtl textures/blx_wtest3/blx_wt3_floor4
f 185/185/185 186/186/186 187/187/187
f 188/188/188 185/185/185 187/187/187

g _33
usemtl textures/blx_wtest3/blx_wt3_floor4
f 189/189/189 190/190/190 191/191/191
f 192/192/192 189/189/189 191/191/191

g _34
usemtl textures/blx_wtest3/blx_wt3_floor4
f 193/193/193 194/194/194 195/195/195
f 194/194/194 196/196/196 195/195/195
f 197/197/197 198/198/198 199/199/199
f 198/198/198 200/200/200 199/199/199

g _35
usemtl textures/blx_wtest3/blx_wt3_floor4
f 201/201/201 202/202/202 203/203/203
f 204/204/204 201/201/201 203/203/203
f 205/205/205 204/204/204 206/206/206
f 204/204/204 203/203/203 206/206/206

g _36
usemtl textures/blx_wtest3/blx_wt3_floor4
f 207/207/207 208/208/208 209/209/209
f 208/208/208 210/210/210 209/209/209

g _37
usemtl textures/blx_wtest3/blx_wt3_floor4
f 211/211/211 212/212/212 213/213/213
f 214/214/214 211/211/211 213/213/213

g _38
usemtl textures/blx_wtest3/blx_wt3_floor4
f 215/215/215 216/216/216 217/217/217
f 218/218/218 215/215/215 217/217/217
f 218/218/218 217/217/217 219/219/219
f 220/220/220 218/218/218 219/219/219

g _39
usemtl textures/blx_wtest3/blx_wt3_floor4
f 221/221/221 222/222/222 223/223/223
f 224/224/224 221/221/221 223/223/223
f 225/225/225 226/226/226 227/227/227
f 226/226/226 228/228/228 227/227/227

g _40
usemtl textures/blx_wtest3/blx_wt3_floor4
f 229/229/229 230/230/230 231/231/231
f 230/230/230 232/232/232 231/231/231
f 233/233/233 234/234/234 235/235/235
f 234/234/234 236/236/236 235/235/235

g _41
usemtl textures/blx_wtest3/blx_wt3_floor4
f 237/237/237 238/238/238 239/239/239
f 240/240/240 237/237/237 239/239/239
f 241/241/241 242/242/242 243/243/243
f 242/242/242 244/244/244 243/243/243

g _42
usemtl textures/blx_wtest3/blx_wt3_floor4
f 245/245/245 246/246/246 247/247/247
f 248/248/248 245/245/245 247/247/247
f 249/249/249 250/250/250 251/251/251
f 252/252/252 249/249/249 251/251/251

g _43
usemtl textures/blx_wtest3/blx_wt3_floor4
f 253/253/253 254/254/254 255/255/255
f 254/254/254 256/256/256 255/255/255
f 257/257/257 258/258/258 259/259/259
f 258/258/258 260/260/260 259/259/259

g _44
usemtl textures/blx_wtest3/blx_wt3_floor4
f 261/261/261 262/262/262 263/263/263
f 264/264/264 261/261/261 263/263/263
f 264/264/264 263/263/263 265/265/265
f 266/266/266 264/264/264 265/265/265

g _45
usemtl textures/blx_wtest3/blx_wt3_floor4
f 267/267/267 268/268/268 269/269/269
f 270/270/270 267/267/267 269/269/269
f 270/270/270 269/269/269 271/271/271
f 272/272/272 270/270/270 271/271/271

g _46
usemtl textures/blx_wtest3/blx_wt3_floor4
f 273/273/273 274/274/274 275/275/275
f 274/274/274 276/276/276 275/275/275
f 273/273/273 275/275/275 277/277/277
f 278/278/278 273/273/273 277/277/277

g _47
usemtl textures/blx_wtest3/blx_wt3_floor4
f 279/279/279 280/280/280 281/281/281
f 280/280/280 282/282/282 281/281/281

g _48
usemtl textures/blx_wtest3/blx_wt3_floor4
f 283/283/283 284/284/284 285/285/285
f 284/284/284 286/286/286 285/285/285

g _49
usemtl textures/blx_wtest3/blx_wt3_floor4
f 287/287/287 288/288/288 289/289/289
f 288/288/288 290/290/290 289/289/289

g _50
usemtl textures/blx_wtest3/blx_wt3_floor4
f 291/291/291 292/292/292 293/293/293
f 292/292/292 294/294/294 293/293/293

g _51
usemtl textures/blx_wtest3/blx_wt3_floor4
f 295/295/295 296/296/296 297/297/297
f 298/298/298 295/295/295 297/297/297
f 298/298/298 297/297/297 299/299/299
f 300/300/300 298/298/298 299/299/299

g _52
usemtl textures/blx_wtest3/blx_wt3_floor4
f 301/301/301 302/302/302 303/303/303
f 304/304/304 301/301/301 303/303/303

g _53
usemtl textures/blx_wtest3/blx_wt3_floor4
f 305/305/305 306/306/306 307/307/307
f 308/308/308 305/305/305 307/307/307

g _54
usemtl textures/blx_wtest3/blx_wt3_floor4
f 309/309/309 310/310/310 311/311/311
f 310/310/310 312/312/312 311/311/311

g _55
usemtl textures/blx_wtest3/blx_wt3_floor4
f 313/313/313 314/314/314 315/315/315
f 314/314/314 316/316/316 315/315/315

g _56
usemtl textures/blx_wtest3/blx_wt3_floor4
f 317/317/317 318/318/318 319/319/319
f 318/318/318 320/320/320 319/319/319
f 321/321/321 322/322/322 323/323/323
f 322/322/322 324/324/324 323/323/323

g _57
usemtl textures/blx_wtest3/blx_wt3_floor4
f 325/325/325 326/326/326 327/327/327
f 328/328/328 325/325/325 327/327/327
f 329/329/329 330/330/330 331/331/331
f 332/332/332 329/329/329 331/331/331

g _58
usemtl textures/blx_wtest3/blx_wt3_floor4
f 333/333/333 334/334/334 335/335/335
f 336/336/336 333/333/333 335/335/335
f 336/336/336 335/335/335 337/337/337
f 338/338/338 336/336/336 337/337/337

g _59
usemtl textures/blx_wtest3/blx_wt3_floor4
f 339/339/339 340/340/340 341/341/341
f 342/342/342 339/339/339 341/341/341
f 342/342/342 341/341/341 343/343/343
f 344/344/344 342/342/342 343/343/343

g _60
usemtl textures/blx_wtest3/blx_wt3_floor4
f 345/345/345 346/346/346 347/347/347

g _61
usemtl textures/blx_wtest3/blx_wt3_floor4
f 348/348/348 349/349/349 350/350/350
f 351/351/351 348/348/348 350/350/350
f 351/351/351 350/350/350 352/352/352
f 353/353/353 351/351/351 352/352/352

g _62
usemtl textures/blx_wtest3/blx_wt3_floor4
f 354/354/354 355/355/355 356/356/356

g _63
usemtl textures/blx_wtest3/blx_wt3_floor4
f 357/357/357 358/358/358 359/359/359
f 360/360/360 357/357/357 359/359/359
f 361/361/361 362/362/362 363/363/363
f 364/364/364 361/361/361 363/363/363

g _64
usemtl textures/blx_wtest3/blx_wt3_floor4
f 365/365/365 366/366/366 367/367/367
f 368/368/368 365/365/365 367/367/367

g _65
usemtl textures/blx_wtest3/blx_wt3_floor4
f 369/369/369 370/370/370 371/371/371
f 372/372/372 369/369/369 371/371/371

g _66
usemtl textures/blx_wtest3/blx_wt3_floor4
f 373/373/373 374/374/374 375/375/375
f 376/376/376 377/377/377 378/378/378
f 379/379/379 373/373/373 375/375/375
f 377/377/377 380/380/380 378/378/378

g _67
usemtl textures/blx_wtest3/blx_wt3_floor4
f 381/381/381 382/382/382 383/383/383
f 384/384/384 381/381/381 383/383/383
f 385/385/385 386/386/386 387/387/387
f 386/386/386 388/388/388 387/387/387

g _68
usemtl textures/blx_wtest3/blx_wt3_floor4
f 389/389/389 390/390/390 391/391/391
f 390/390/390 392/392/392 391/391/391
f 393/393/393 394/394/394 395/395/395
f 394/394/394 396/396/396 395/395/395

g _69
usemtl textures/blx_wtest3/blx_wt3_floor4
f 397/397/397 398/398/398 399/399/399
f 400/400/400 397/397/397 399/399/399
f 400/400/400 399/399/399 401/401/401
f 402/402/402 400/400/400 401/401/401

g _70
usemtl textures/blx_wtest3/blx_wt3_floor4
f 403/403/403 404/404/404 405/405/405
f 406/406/406 403/403/403 405/405/405
f 406/406/406 405/405/405 407/407/407
f 408/408/408 406/406/406 407/407/407

g _71
usemtl textures/blx_wtest3/blx_wt3_floor4
f 409/409/409 410/410/410 411/411/411
f 410/410/410 412/412/412 411/411/411

g _72
usemtl textures/blx_wtest3/blx_wt3_floor4
f 413/413/413 414/414/414 415/415/415
f 416/416/416 413/413/413 415/415/415
f 416/416/416 415/415/415 417/417/417
f 418/418/418 416/416/416 417/417/417

g _73
usemtl textures/blx_wtest3/blx_wt3_floor4
f 419/419/419 420/420/420 421/421/421
f 420/420/420 422/422/422 421/421/421

g _74
usemtl textures/blx_wtest3/blx_wt3_floor4
f 423/423/423 424/424/424 425/425/425
f 424/424/424 426/426/426 425/425/425
f 423/423/423 425/425/425 427/427/427
f 428/428/428 423/423/423 427/427/427

g _75
usemtl textures/blx_wtest3/blx_wt3_floor4
f 429/429/429 430/430/430 431/431/431

g _76
usemtl textures/blx_wtest3/blx_wt3_floor4
f 432/432/432 433/433/433 434/434/434
f 433/433/433 435/435/435 434/434/434
f 436/436/436 437/437/437 438/438/438
f 437/437/437 439/439/439 438/438/438

g _77
usemtl textures/blx_wtest3/blx_wt3_floor4
f 440/440/440 441/441/441 442/442/442
f 443/443/443 440/440/440 442/442/442
f 444/444/444 445/445/445 446/446/446
f 447/447/447 444/444/444 446/446/446

g _78
usemtl textures/blx_wtest3/blx_wt3_floor4
f 448/448/448 449/449/449 450/450/450
f 451/451/451 448/448/448 450/450/450
f 451/451/451 450/450/450 452/452/452
f 453/453/453 451/451/451 452/452/452

g _79
usemtl textures/blx_wtest3/blx_wt3_floor4
f 454/454/454 455/455/455 456/456/456

g _80
usemtl textures/exwsw/eXmetal_plate01c
f 457/457/457 458/458/458 459/459/459
f 460/460/460 457/457/457 459/459/459
f 459/459/459 458/458/458 461/461/461
f 460/460/460 462/462/462 457/457/457
f 458/458/458 463/463/463 461/461/461
f 461/461/461 463/463/463 464/464/464

g _81
usemtl textures/exwsw/eXmetal_plate01c
f 465/465/465 466/466/466 467/467/467
f 465/465/465 468/468/468 466/466/466
f 465/465/465 467/467/467 469/469/469
f 466/466/466 468/468/468 470/470/470
f 467/467/467 471/471/471 469/469/469
f 469/469/469 471/471/471 472/472/472

g _82
usemtl textures/exwsw/eXmetal_plate01c
f 473/473/473 474/474/474 475/475/475
f 476/476/476 473/473/473 475/475/475
f 475/475/475 474/474/474 477/477/477
f 476/476/476 478/478/478 473/473/473
f 474/474/474 479/479/479 477/477/477
f 477/477/477 479/479/479 480/480/480

g _83
usemtl textures/exwsw/eXmetal_plate01c
f 481/481/481 482/482/482 483/483/483
f 484/484/484 481/481/481 483/483/483
f 483/483/483 482/482/482 485/485/485
f 484/484/484 486/486/486 481/481/481
f 482/482/482 487/487/487 485/485/485
f 485/485/485 487/487/487 488/488/488

g _84
usemtl textures/exwsw/eXmetal_plate01c
f 489/489/489 490/490/490 491/491/491
f 492/492/492 489/489/489 491/491/491
f 491/491/491 490/490/490 493/493/493
f 492/492/492 494/494/494 489/489/489
f 490/490/490 495/495/495 493/493/493
f 493/493/493 495/495/495 496/496/496

g _85
usemtl textures/exwsw/eXmetal_plate01c
f 497/497/497 498/498/498 499/499/499
f 500/500/500 497/497/497 499/499/499
f 499/499/499 498/498/498 501/501/501
f 500/500/500 502/502/502 497/497/497
f 498/498/498 503/503/503 501/501/501
f 501/501/501 503/503/503 504/504/504
