# Exported by Gskelview
mtllib crate_wood4.mtl

v 62 56.5115 -55.4282
v 62 56.5115 41.5711
v 62 43.8092 55.4282
v 62 -40.6322 -55.4282
v 62 -54.3449 55.4282
v 62 -54.3449 -42.7259
v 48 -62 -48
v 48 -62 37
v 36.125 -62 48
v -37 -62 -48
v -48 -62 48
v -48 -62 -36
v 41.1426 54.8568 -62
v 54.8568 42.2854 -62
v -42.2854 -54.8568 -62
v 54.8568 -54.8568 -62
v -54.8568 -41.2854 -62
v -54.8568 54.8568 -62
v 48 62 -36
v 37 62 -48
v -48 62 -48
v 48 62 48
v -48 62 37
v -36.125 62 48
v 54.8568 54.8568 62
v -41.1426 54.8568 62
v -54.8568 42.2854 62
v 54.8568 -41.2854 62
v -54.8568 -54.8568 62
v 42.2854 -54.8568 62
v -62 56.5115 -41.5711
v -62 43.8092 -55.4282
v -62 -54.3449 42.7259
v -62 -54.3449 -55.4282
v -62 -40.6322 55.4282
v -62 56.5115 55.4282
v 54.8568 -41.2854 64
v 54.8568 54.8568 64
v 54.8568 -41.2854 62
v 54.8568 54.8568 62
v 54.8568 54.8568 62
v 54.8568 54.8568 64
v -41.1426 54.8568 62
v -41.1426 54.8568 64
v 42.2854 -54.8568 62
v 42.2854 -54.8568 64
v -54.8568 42.2854 62
v -54.8568 42.2854 64
v 54.8568 -41.2854 62
v -41.1426 54.8568 62
v 54.8568 -41.2854 64
v -41.1426 54.8568 64
v 63.064 63.064 64
v 62.678 63.9618 63.937
v 54.8568 54.8568 64
v -41.1426 54.8568 64
v -62.6144 63.4458 64
v -62.9448 62.9448 64
v -41.1426 54.8568 64
v -54.8568 54.8568 64
v -64 63.2933 64
v -64 48 64
v -54.8568 42.2854 64
v -54.8568 54.8568 64
v -64 48 64
v -64 -48 64
v -54.8568 42.2854 64
v -64 -48 64
v -54.8568 -54.8568 64
v 54.8568 -41.2854 64
v -41.1426 54.8568 64
v -54.8568 54.8568 64
v 54.8568 -54.8568 64
v -54.8568 42.2854 64
v 42.2854 -54.8568 64
v -64 -48 64
v -64 -64 64
v -54.8568 -54.8568 64
v 42.2854 -54.8568 64
v 64 -64 64
v 42.2854 -54.8568 64
v 54.8568 -54.8568 64
v 64 -48 64
v 54.8568 -54.8568 64
v 64 48 64
v 54.8568 -41.2854 64
v 54.8568 54.8568 64
v 64 48 64
v 54.8568 -54.8568 64
v 64 -48 64
v -54.8568 -54.8568 64
v -54.8568 -54.8568 62
v -54.8568 42.2854 64
v -54.8568 42.2854 62
v 42.2854 -54.8568 62
v -54.8568 -54.8568 62
v 42.2854 -54.8568 64
v -54.8568 -54.8568 64
v 63.9064 63.9532 -62.6846
v 64 56.5115 41.5711
v 64 62.1281 -61.8573
v 64 56.5115 -55.4282
v 63.9064 63.9532 -62.6846
v 64 63.2007 61.6061
v 64 56.5115 41.5711
v 64 63.2007 61.6061
v 64 62.1281 61.8573
v 64 56.5115 55.4282
v 64 62.6763 64
v 64 48 64
v 64 62.1281 61.8573
v 64 56.5115 55.4282
v 64 43.8092 55.4282
v 64 56.5115 55.4282
v 64 48 64
v 64 -48 64
v 64 43.8092 55.4282
v 64 -48 64
v 64 -54.3449 55.4282
v 64 -54.3449 -55.4282
v 64 48 -64
v 64 -40.6322 -55.4282
v 64 56.5115 -55.4282
v 64 48 -64
v 64 -54.3449 -55.4282
v 64 -48 -64
v 64 -48 -64
v 64 -54.3449 -55.4282
v 64 -64 -64
v 64 -64 -64
v 64 -54.3449 -55.4282
v 64 -54.3449 -42.7259
v 64 -64 64
v 64 -54.3449 -42.7259
v 64 -54.3449 55.4282
v 64 -64 64
v 64 -54.3449 55.4282
v 64 -48 64
v 64 -40.6322 -55.4282
v 64 56.5115 41.5711
v 64 56.5115 55.4282
v 64 -54.3449 -55.4282
v 64 43.8092 55.4282
v 64 43.8092 55.4282
v 64 56.5115 55.4282
v 64 -54.3449 -55.4282
v 64 -54.3449 -42.7259
v 62 43.8092 55.4282
v 62 -54.3449 -42.7259
v 64 43.8092 55.4282
v 64 -54.3449 -42.7259
v 62 56.5115 41.5711
v 64 56.5115 41.5711
v 62 -40.6322 -55.4282
v 64 -40.6322 -55.4282
v 62 -40.6322 -55.4282
v 64 -40.6322 -55.4282
v 62 56.5115 -55.4282
v 64 56.5115 -55.4282
v 62 56.5115 41.5711
v 62 56.5115 -55.4282
v 64 56.5115 41.5711
v 64 56.5115 -55.4282
v 64 43.8092 55.4282
v 64 -54.3449 55.4282
v 62 43.8092 55.4282
v 62 -54.3449 55.4282
v 62 -54.3449 55.4282
v 64 -54.3449 55.4282
v 62 -54.3449 -42.7259
v 64 -54.3449 -42.7259
v 41.1426 54.8568 -64
v 60.1361 62.4544 -64
v 54.8568 54.8568 -64
v 62.3091 62.3091 -64
v 64 62.4022 -64
v 64 48 -64
v -63.2222 63.9071 -63.8391
v 41.1426 54.8568 -64
v -63.2424 63.2776 -63.8716
v -54.8568 54.8568 -64
v -54.8568 -54.8568 -64
v -64 48 -64
v -54.8568 -41.2854 -64
v -54.8568 54.8568 -64
v -64 48 -64
v -54.8568 -54.8568 -64
v -64 -48 -64
v -42.2854 -54.8568 -64
v -64 -64 -64
v -54.8568 -54.8568 -64
v -64 -48 -64
v 64 -64 -64
v -42.2854 -54.8568 -64
v 54.8568 -54.8568 -64
v 64 -64 -64
v 64 -48 -64
v 54.8568 42.2854 -64
v 54.8568 54.8568 -64
v 64 48 -64
v 64 -48 -64
v 54.8568 42.2854 -64
v 64 -48 -64
v 54.8568 -54.8568 -64
v 41.1426 54.8568 -64
v 54.8568 54.8568 -64
v -42.2854 -54.8568 -64
v -42.2854 -54.8568 -64
v 54.8568 54.8568 -64
v 54.8568 42.2854 -64
v 41.1426 54.8568 -64
v -54.8568 -54.8568 -64
v -54.8568 -41.2854 -64
v -54.8568 54.8568 -62
v -54.8568 54.8568 -64
v 41.1426 54.8568 -62
v 41.1426 54.8568 -64
v -54.8568 54.8568 -64
v -54.8568 54.8568 -62
v -54.8568 -41.2854 -64
v -54.8568 -41.2854 -62
v 54.8568 42.2854 -64
v 54.8568 42.2854 -62
v -42.2854 -54.8568 -64
v -42.2854 -54.8568 -62
v 41.1426 54.8568 -64
v -54.8568 -41.2854 -64
v 41.1426 54.8568 -62
v -54.8568 -41.2854 -62
v 54.8568 -54.8568 -62
v 54.8568 42.2854 -62
v 54.8568 -54.8568 -64
v 54.8568 42.2854 -64
v -42.2854 -54.8568 -62
v 54.8568 -54.8568 -62
v -42.2854 -54.8568 -64
v 54.8568 -54.8568 -64
v -64 56.5115 55.4282
v -64 56.5115 -41.5711
v -62 56.5115 55.4282
v -62 56.5115 -41.5711
v -63.8892 63.2166 -63.0657
v -64 56.5115 -55.4282
v -63.8924 63.0272 -61.1873
v -64 56.5115 -41.5711
v -63.8823 63.314 -63.8671
v -64 48 -64
v -63.8892 63.2166 -63.0657
v -64 56.5115 -55.4282
v -64 63.9295 63.0067
v -64 56.5115 -41.5711
v -64 63.2935 63.1913
v -64 56.5115 55.4282
v -64 -54.3449 55.4282
v -64 48 64
v -64 -40.6322 55.4282
v -64 56.5115 55.4282
v -64 48 64
v -64 -54.3449 55.4282
v -64 -48 64
v -64 -48 64
v -64 -54.3449 55.4282
v -64 -64 64
v -64 -64 64
v -64 -54.3449 55.4282
v -64 -54.3449 42.7259
v -64 -64 -64
v -64 -54.3449 42.7259
v -64 -54.3449 -55.4282
v -64 -64 -64
v -64 -54.3449 -55.4282
v -64 -48 -64
v -64 -40.6322 55.4282
v -64 56.5115 -41.5711
v -64 -54.3449 55.4282
v -64 -54.3449 42.7259
v -64 56.5115 -55.4282
v -64 -54.3449 42.7259
v -64 43.8092 -55.4282
v -64 43.8092 -55.4282
v -64 56.5115 -55.4282
v -64 48 -64
v -64 -48 -64
v -64 43.8092 -55.4282
v -64 -48 -64
v -64 -54.3449 -55.4282
v -64 -40.6322 55.4282
v -64 56.5115 55.4282
v -62 -40.6322 55.4282
v -62 56.5115 55.4282
v -64 -40.6322 55.4282
v -62 -40.6322 55.4282
v -64 56.5115 -41.5711
v -62 56.5115 -41.5711
v -64 -54.3449 -55.4282
v -62 -54.3449 -55.4282
v -64 43.8092 -55.4282
v -62 43.8092 -55.4282
v -62 43.8092 -55.4282
v -62 -54.3449 42.7259
v -64 43.8092 -55.4282
v -64 -54.3449 42.7259
v -62 -54.3449 -55.4282
v -64 -54.3449 -55.4282
v -62 -54.3449 42.7259
v -64 -54.3449 42.7259
v 48 62 48
v 48 64 48
v 48 62 -36
v 48 64 -36
v 63.9064 63.9532 -62.6846
v 62.1281 64 -60.7241
v 48 64 48
v 48 64 -36
v 62.1281 64 -62.1281
v 48 64 -48
v 61.4762 64 61.4762
v 63.9064 63.9532 -62.6846
v 48 64 48
v 62.1281 64 -62.1281
v 60.5411 64 -61.9503
v 48 64 -48
v 37 64 -48
v 62.678 63.9618 63.937
v 62.1281 64 63.7009
v -48 64 48
v -36.125 64 48
v -63.2222 63.9071 -63.8391
v -63.1788 63.9193 -63.1637
v -48 64 -48
v 48 64 -48
v 37 64 -48
v 48 64 -36
v -48 64 37
v -48 64 48
v 48 64 -36
v -36.125 64 48
v -63.1788 63.9193 -63.1637
v -63.4394 63.9179 -61.0778
v -48 64 -48
v -48 64 37
v -48 64 37
v -63.0026 64 62.3169
v -63.2934 64 63.2934
v -48 64 48
v -63.0026 64 62.3169
v -48 64 48
v 48 64 48
v 48 62 48
v -36.125 64 48
v -36.125 62 48
v 37 64 -48
v 37 62 -48
v -48 64 37
v -48 62 37
v -36.125 62 48
v 48 62 -36
v -36.125 64 48
v 48 64 -36
v 37 64 -48
v -48 64 -48
v 37 62 -48
v -48 62 -48
v -48 64 -48
v -48 64 37
v -48 62 -48
v -48 62 37
v 48 -62 -48
v 48 -64 -48
v 48 -62 37
v 48 -64 37
v -37 -64 -48
v 48 -64 -48
v -37 -62 -48
v 48 -62 -48
v -48 -64 -36
v 36.125 -64 48
v -48 -62 -36
v 36.125 -62 48
v 48 -62 37
v 48 -64 37
v -37 -62 -48
v -37 -64 -48
v 36.125 -62 48
v 36.125 -64 48
v -48 -62 48
v -48 -64 48
v 64 -64 64
v 48 -64 37
v 64 -64 -64
v 48 -64 -48
v 48 -64 48
v -48 -64 -48
v 64 -64 -64
v -37 -64 -48
v 48 -64 -48
v -64 -64 -64
v -48 -64 -48
v -48 -64 -36
v -64 -64 -64
v -48 -64 48
v -64 -64 64
v 48 -64 37
v 48 -64 48
v 36.125 -64 48
v -37 -64 -48
v -48 -64 -36
v -48 -64 -48
v 36.125 -64 48
v 48 -64 48
v 64 -64 64
v -64 -64 64
v -48 -64 48
v -48 -64 48
v -48 -64 -36
v -48 -62 48
v -48 -62 -36
v 61.4762 64 61.4762
v 48 64 48
v -63.2933 63.9998 63.9996
v 62.678 63.9618 63.937
v -63.2934 64 63.2934
v -63.2933 63.9998 63.9996
v -62.6144 63.4458 64
v 62.678 63.9618 63.937
v 64 62.6763 64
v 64 48 64
v 64 62.4022 -64
v 64 62.1281 -61.8573
v 64 48 -64
v 64 56.5115 -55.4282
v 60.1361 62.4544 -64
v 57.557 63.9209 -63.7663
v 60.5411 64 -61.9503
v 57.557 63.9209 -63.7663
v 61.4762 64 61.4762
v 64 63.2007 61.6061
v 63.9064 63.9532 -62.6846
v 61.4762 64 61.4762
v 62.1281 64 63.7009
v 64 63.2007 61.6061
v 62.1281 64 63.7009
v 62.678 63.9618 63.937
v 64 63.2007 61.6061
v 64 62.6763 64
v 64 62.1281 61.8573
v 64 62.1281 61.8573
v 64 63.2007 61.6061
v 63.064 63.064 64
v 62.1281 64 -60.7241
v 63.9064 63.9532 -62.6846
v 62.1281 64 -62.1281
v 57.557 63.9209 -63.7663
v 60.5411 64 -61.9503
v 60.1361 62.4544 -64
v 62.3091 62.3091 -64
v 60.5411 64 -61.9503
v 62.3091 62.3091 -64
v 62.3091 62.3091 -64
v 63.9064 63.9532 -62.6846
v 64 62.4022 -64
v 63.9064 63.9532 -62.6846
v 64 62.1281 -61.8573
v -64 63.9295 63.0067
v -64 63.2933 64
v -64 63.2935 63.1913
v -64 48 64
v -64 56.5115 55.4282
v -63.8823 63.314 -63.8671
v -63.2424 63.2776 -63.8716
v -64 48 -64
v -63.2222 63.9071 -63.8391
v -64 63.9295 63.0067
v -63.0026 64 62.3169
v -63.8924 63.0272 -61.1873
v -63.4394 63.9179 -61.0778
v -62.9448 62.9448 64
v -63.2933 63.9998 63.9996
v -64 63.2933 64
v -63.4394 63.9179 -61.0778
v -63.1788 63.9193 -63.1637
v -63.8924 63.0272 -61.1873
v -63.8924 63.0272 -61.1873
v -63.1788 63.9193 -63.1637
v -63.8892 63.2166 -63.0657
vt 1.11893 1.12363
vt 0.038498 1.12363
vt -0.115849 0.98025
vt 1.11893 0.027102
vt -0.115849 -0.127682
vt 0.977447 -0.127682
vt 0.987759 0.990702
vt 0.987759 0.116714
vt 0.86727 0.00361103
vt 0.125313 0.990702
vt 0.013703 0.00361103
vt 0.013703 0.867319
vt 0.964585 1.12363
vt 1.11893 0.98025
vt 0.025636 -0.127682
vt 1.11893 -0.127682
vt -0.115849 0.027102
vt -0.115849 1.12363
vt 0.987759 0.867319
vt 0.876148 0.990702
vt 0.013703 0.990702
vt 0.987759 0.00361103
vt 0.013703 0.116714
vt 0.134192 0.00361103
vt 1.11893 1.12363
vt 0.038498 1.12363
vt -0.115849 0.98025
vt 1.11893 0.027102
vt -0.115849 -0.127682
vt 0.977447 -0.127682
vt 0.964256 1.10874
vt 1.11977 0.966183
vt 0.01819 -0.135404
vt 1.11977 -0.135404
vt -0.124367 0.018494
vt -0.124367 1.10874
vt 1.89607 -0.078221
vt 1.89607 1.23136
vt 1.98992 -0.078221
vt 1.98992 1.23136
vt 2.08376 -0.138542
vt 2.1776 -0.138542
vt 2.08376 1.16909
vt 2.1776 1.16909
vt -0.831946 -0.498016
vt -0.865129 -0.498016
vt -0.831946 0.163582
vt -0.865129 0.163582
vt -2.02951 0.202318
vt -0.633932 0.202318
vt -2.02951 0.217886
vt -0.633932 0.217886
vt -1.1205 -0.362117
vt -1.19265 -0.367548
vt -0.446607 -0.138542
vt -0.446607 1.16909
vt -1.15185 1.57854
vt -1.11071 1.57622
vt -0.446607 1.16909
vt -0.446607 1.35589
vt -1.1642 1.60496
vt -0.446607 1.60496
vt 0.210298 -0.455073
vt 0.210298 -0.51215
vt -0.540451 -0.51215
vt -0.540451 -0.014007
vt 0.210298 -0.455073
vt -0.540451 -0.014007
vt 0.210298 -0.014007
vt 0.525781 -0.46074
vt 0.529241 1.31873
vt 0.197452 1.44574
vt 0.197452 -0.586427
vt -0.106685 1.32931
vt -0.106685 -0.470001
vt 1.42686 1.60496
vt 2.1776 1.60496
vt 1.42686 1.35589
vt 1.42686 0.032693
vt 2.1776 -0.387614
vt 1.42686 0.032693
vt 1.42686 -0.138542
vt 1.42686 -0.387614
vt 2.08376 -0.014007
vt 2.83451 -0.51215
vt 2.08376 -0.075627
vt 2.08376 -0.51215
vt 2.83451 -0.51215
vt 2.08376 -0.014007
vt 2.83451 -0.014007
vt 1.89607 -0.263078
vt 1.98992 -0.263078
vt 1.89607 1.06011
vt 1.98992 1.06011
vt 0.133171 -0.479994
vt 0.133171 0.8432
vt 0.227014 -0.479994
vt 0.227014 0.8432
vt 2.17291 -0.36768
vt 1.42686 1.16909
vt 1.98994 -0.325352
vt 1.42686 -0.138542
vt 2.17291 -0.36768
vt 2.09748 1.55844
vt 1.42686 1.16909
vt 2.09748 1.55844
vt 1.98994 1.5427
vt 1.42686 1.35589
vt 2.1155 1.60496
vt 1.42686 1.60496
vt 1.98994 1.5427
vt 1.42686 1.35589
vt -0.728138 1.18465
vt -0.728138 1.35589
vt -1.47889 1.35589
vt -1.47889 -0.138542
vt -0.728138 1.18465
vt -1.47889 -0.138542
vt -0.728138 -0.138542
vt 1.14532 -0.138542
vt 1.89607 1.35589
vt 1.14532 0.046315
vt 1.14532 1.35589
vt 1.89607 1.35589
vt 1.14532 -0.138542
vt 1.89607 -0.138542
vt -0.446607 -0.387614
vt -0.446607 -0.138542
vt -1.19736 -0.387614
vt -1.19736 -0.387614
vt -0.446607 -0.138542
vt -0.446607 0.032693
vt -1.19736 1.60496
vt -0.446607 0.032693
vt -0.446607 1.35589
vt -1.19736 1.60496
vt -0.446607 1.35589
vt -0.446607 1.60496
vt 1.16143 -0.46074
vt 1.16489 1.31873
vt 0.833097 1.44574
vt 0.833097 -0.586427
vt 0.52896 1.32931
vt 0.52896 1.32931
vt 0.833097 1.44574
vt 0.833097 -0.586427
vt 0.52896 -0.470001
vt -1.46638 -0.48732
vt -1.46638 0.174278
vt -1.4332 -0.48732
vt -1.4332 0.174278
vt -0.673862 0.163582
vt -0.640679 0.163582
vt -0.673862 -0.491205
vt -0.640679 -0.491205
vt -0.14836 -0.466373
vt -0.054517 -0.466373
vt -0.14836 0.8432
vt -0.054517 0.8432
vt 0.133171 -0.464429
vt 0.133171 0.8432
vt 0.227014 -0.464429
vt 0.227014 0.8432
vt 1.89607 1.18465
vt 1.89607 -0.138542
vt 1.80223 1.18465
vt 1.80223 -0.138542
vt 2.08376 -0.138542
vt 2.1776 -0.138542
vt 2.08376 1.18465
vt 2.1776 1.18465
vt -0.446607 0.048261
vt -1.07045 -0.313933
vt -0.446607 -0.138542
vt -1.05852 -0.341552
vt -1.12238 -0.387614
vt -0.446607 -0.387614
vt -1.18627 1.59365
vt -0.446607 0.048261
vt -1.13584 1.58394
vt -0.446607 1.35589
vt -0.728138 1.35589
vt -1.47889 -0.138542
vt -0.728138 1.17102
vt -0.728138 -0.138542
vt -1.47889 -0.138542
vt -0.728138 1.35589
vt -1.47889 1.35589
vt 1.42686 1.06011
vt 2.1776 1.48043
vt 1.42686 1.23136
vt 1.42686 1.48043
vt 2.1776 -0.51215
vt 1.42686 1.06011
vt 1.42686 -0.263078
vt 2.1776 -0.51215
vt 1.42686 -0.51215
vt 1.14532 0.032693
vt 1.14532 -0.138542
vt 1.89607 -0.138542
vt 1.89607 1.35589
vt 1.14532 0.032693
vt 1.89607 1.35589
vt 1.14532 1.35589
vt -0.511751 -0.459416
vt -0.179962 -0.586427
vt 0.124175 1.32931
vt 0.124175 1.32931
vt -0.179962 -0.586427
vt 0.124175 -0.470001
vt -0.511751 -0.459416
vt -0.179962 1.44574
vt -0.508292 1.32005
vt -0.353667 0.163582
vt -0.306748 0.163582
vt -0.353667 -0.490233
vt -0.306748 -0.490233
vt -0.482433 0.163582
vt -0.529352 0.163582
vt -0.482433 -0.491205
vt -0.529352 -0.491205
vt -1.4332 -0.48732
vt -1.46638 -0.48732
vt -1.4332 0.174278
vt -1.46638 0.174278
vt -0.821619 0.25601
vt -2.2172 0.25601
vt -0.821619 0.271576
vt -2.2172 0.271576
vt -1.13419 -0.48732
vt -1.13419 0.174278
vt -1.08727 -0.48732
vt -1.08727 0.174278
vt -1.00386 0.174278
vt -1.00386 -0.48732
vt -0.956945 0.174278
vt -0.956945 -0.48732
vt 1.98992 -0.138542
vt 1.98992 1.16909
vt 2.08376 -0.138542
vt 2.08376 1.16909
vt -1.11694 -0.36144
vt -0.446607 -0.138542
vt -1.09799 -0.332724
vt -0.446607 0.048261
vt -1.15884 -0.384787
vt -0.446607 -0.387614
vt -1.11694 -0.36144
vt -0.446607 -0.138542
vt -1.19029 1.59032
vt -0.446607 0.048261
vt -1.12653 1.58147
vt -0.446607 1.35589
vt 0.210298 1.35589
vt -0.540451 -0.138542
vt 0.210298 1.17102
vt 0.210298 -0.138542
vt -0.540451 -0.138542
vt 0.210298 1.35589
vt -0.540451 1.35589
vt 1.42686 1.48043
vt 1.42686 1.23136
vt 2.1776 1.48043
vt 2.1776 1.48043
vt 1.42686 1.23136
vt 1.42686 1.06011
vt 2.1776 -0.51215
vt 1.42686 1.06011
vt 1.42686 -0.263078
vt 2.1776 -0.51215
vt 1.42686 -0.263078
vt 1.42686 -0.51215
vt 0.279644 1.32005
vt 0.276184 -0.459416
vt 0.607973 1.44574
vt 0.91211 1.32931
vt 0.607973 -0.586427
vt 0.91211 1.32931
vt 0.91211 -0.470001
vt 2.08376 0.032693
vt 2.08376 -0.138542
vt 2.83451 -0.138542
vt 2.83451 1.35589
vt 2.08376 0.032693
vt 2.83451 1.35589
vt 2.08376 1.35589
vt 2.83451 1.17102
vt 2.83451 -0.138542
vt 2.92835 1.17102
vt 2.92835 -0.138542
vt -0.865129 -0.491205
vt -0.831946 -0.491205
vt -0.865129 0.163582
vt -0.831946 0.163582
vt 0.324448 0.8432
vt 0.418291 0.8432
vt 0.324448 -0.479994
vt 0.418291 -0.479994
vt -0.831946 0.163582
vt -0.831946 -0.498016
vt -0.865129 0.163582
vt -0.865129 -0.498016
vt -0.304101 0.202318
vt -0.304101 0.217886
vt -2.29828 0.202318
vt -2.29828 0.217886
vt 0.039327 0.8432
vt -0.054517 0.8432
vt 0.039327 -0.464429
vt -0.054517 -0.464429
vt 1.45372 1.58456
vt 1.37467 1.55397
vt 0.711755 -0.138542
vt 0.711755 1.16909
vt 1.37467 1.57582
vt 0.711755 1.35589
vt 1.34408 -0.348326
vt 1.45372 1.58456
vt 0.711755 -0.138542
vt 1.28223 -0.358474
vt 1.28885 -0.33377
vt 1.8091 -0.138542
vt 1.8091 0.032693
vt 1.79779 -0.367009
vt 1.78819 -0.358471
vt 1.05148 1.35589
vt 1.05148 1.17102
vt 1.22094 1.58967
vt 1.2448 1.59009
vt 1.8091 1.35589
vt 0.276908 1.44574
vt -0.02723 1.32931
vt 0.608697 1.31873
vt -0.02723 -0.470001
vt 0.276908 -0.586427
vt 0.608697 1.31873
vt 0.605237 -0.46074
vt -0.552293 1.58984
vt -0.561252 1.55734
vt -0.030622 1.35589
vt -0.030622 0.032693
vt -0.030622 0.032693
vt -0.546144 -0.361413
vt -0.556135 -0.376614
vt -0.030622 -0.138542
vt -0.546144 -0.361413
vt -0.030622 -0.138542
vt 1.80223 -0.138542
vt 1.89607 -0.138542
vt 1.80223 1.17102
vt 1.89607 1.17102
vt -1.4332 -0.48732
vt -1.46638 -0.48732
vt -1.4332 0.174278
vt -1.46638 0.174278
vt -1.2787 0.167464
vt -1.2787 -0.48732
vt -1.24551 0.167464
vt -1.24551 -0.48732
vt -0.14836 -0.479994
vt -0.14836 0.8432
vt -0.054517 -0.479994
vt -0.054517 0.8432
vt 1.80223 -0.138542
vt 1.80223 1.18465
vt 1.89607 -0.138542
vt 1.89607 1.18465
vt 1.98992 -0.263078
vt 1.89607 -0.263078
vt 1.98992 1.06011
vt 1.89607 1.06011
vt 1.98992 1.06011
vt 1.98992 -0.263078
vt 2.08376 1.06011
vt 2.08376 -0.263078
vt 0.163259 -0.138542
vt 0.163259 1.17102
vt 0.21458 -0.138542
vt 0.21458 1.17102
vt 0.604495 -0.479994
vt 0.553174 -0.479994
vt 0.604495 0.8432
vt 0.553174 0.8432
vt 2.08376 -0.078221
vt 1.98992 -0.078221
vt 2.08376 1.23136
vt 1.98992 1.23136
vt 1.58487 -0.51215
vt 0.834124 -0.091843
vt 1.58487 1.48043
vt 0.834124 1.23136
vt 0.834124 -0.263078
vt 0.94121 1.23136
vt 1.69196 -0.51215
vt 0.94121 1.06011
vt 0.94121 -0.263078
vt 1.69196 1.48043
vt -0.725274 1.23136
vt -0.725274 1.04455
vt -1.11096 1.48043
vt -0.725274 -0.263078
vt -1.11096 -0.51215
vt 1.52127 1.32931
vt 1.21713 1.44574
vt 0.888804 1.32005
vt 1.52127 -0.470001
vt 0.885344 -0.459416
vt 1.21713 -0.586427
vt -0.488626 -0.078221
vt -0.488626 -0.263078
vt -1.23937 -0.51215
vt -1.23937 1.48043
vt -0.488626 1.23136
vt 1.89607 1.23136
vt 1.89607 -0.076275
vt 1.98992 1.23136
vt 1.98992 -0.076275
vt 1.68381 -0.348325
vt 1.05148 -0.138542
vt 1.80221 1.59396
vt 1.79779 -0.367009
vt 1.76907 1.59396
vt -1.19733 1.59396
vt -1.15185 1.57854
vt -1.19265 -0.367548
vt -1.13525 -0.387614
vt -0.446607 -0.387614
vt 2.10263 -0.387614
vt 1.98994 -0.325352
vt 1.42686 -0.387614
vt 1.42686 -0.138542
vt -1.07045 -0.313933
vt -1.17877 -0.283824
vt 1.28885 -0.33377
vt 1.22414 -0.286804
vt 2.1776 1.56568
vt 2.09748 1.55844
vt 2.17291 -0.36768
vt -1.17812 -0.347737
vt -1.183 -0.35784
vt -1.12607 -0.363964
vt -1.183 -0.35784
vt -1.18714 -0.366442
vt -1.12607 -0.363964
vt -1.13525 -0.387614
vt -1.05829 -0.343447
vt -1.05829 -0.343447
vt -1.12607 -0.363964
vt -1.1205 -0.362117
vt 2.15308 -0.336758
vt 2.1676 -0.366865
vt 2.16339 -0.358141
vt 2.15985 -0.379654
vt 2.16207 -0.3554
vt 2.01198 -0.332667
vt 1.99672 -0.327602
vt 2.16207 -0.3554
vt 1.99672 -0.327602
vt 1.99672 -0.327602
vt 2.1676 -0.366865
vt 2.10263 -0.387614
vt 2.17291 -0.36768
vt 1.98994 -0.325352
vt -1.19029 1.59032
vt -1.1642 1.60496
vt -1.12653 1.58147
vt -0.446607 1.60496
vt -0.446607 1.35589
vt -1.16003 1.60135
vt -1.13584 1.58394
vt -0.446607 1.60496
vt -1.18627 1.59365
vt -0.580385 -0.372142
vt -0.546144 -0.361413
vt -0.576404 1.55779
vt -0.561252 1.55734
vt -1.11071 1.57622
vt -1.16058 1.58361
vt -1.10538 1.57445
vt -1.18437 1.59348
vt -1.1826 1.58978
vt -1.11274 1.57629
vt -1.11274 1.57629
vt -1.1826 1.58978
vt -1.12692 1.58099
vn 1 0 0
vn 1 0 0
vn 1 0 0
vn 1 0 0
vn 1 0 0
vn 1 0 0
vn 0 -1 0
vn 0 -1 0
vn 0 -1 0
vn 0 -1 0
vn 0 -1 0
vn 0 -1 0
vn 0 0 -1
vn 0 0 -1
vn 0 0 -1
vn 0 0 -1
vn 0 0 -1
vn 0 0 -1
vn 0 1 0
vn 0 1 0
vn 0 1 0
vn 0 1 0
vn 0 1 0
vn 0 1 0
vn 0 0 1
vn 0 0 1
vn 0 0 1
vn 0 0 1
vn 0 0 1
vn 0 0 1
vn -1 0 0
vn -1 0 0
vn -1 0 0
vn -1 0 0
vn -1 0 0
vn -1 0 0
vn -1 0 0
vn -1 0 0
vn -1 0 0
vn -1 0 0
vn 0 -1 0
vn 0 -1 0
vn 0 -1 0
vn 0 -1 0
vn -0.707108 -0.707106 0
vn -0.707108 -0.707106 0
vn -0.707107 -0.707107 0
vn -0.707107 -0.707107 0
vn 0.707634 0.70658 0
vn 0.707632 0.706581 0
vn 0.707632 0.706581 0
vn 0.707632 0.706581 0
vn 0.029711 0.032449 0.999032
vn 0.003134 0.011842 0.999925
vn 0 0 1
vn 0 0 1
vn 0 0 1
vn 0 0 1
vn 0 0 1
vn 0 0 1
vn 0 0 1
vn 0 0 1
vn 0 0 1
vn 0 0 1
vn 0 0 1
vn 0 0 1
vn 0 0 1
vn 0 0 1
vn 0 0 1
vn 0 0 1
vn 0 0 1
vn 0 0 1
vn 0 0 1
vn 0 0 1
vn 0 0 1
vn 0 0 1
vn 0 0 1
vn 0 0 1
vn 0 0 1
vn 0 0 1
vn 0 0 1
vn 0 0 1
vn 0 0 1
vn 0 0 1
vn 0 0 1
vn 0 0 1
vn 0 0 1
vn 0 0 1
vn 0 0 1
vn 0 0 1
vn 1 0 0
vn 1 0 0
vn 1 0 0
vn 1 0 0
vn 0 1 0
vn 0 1 0
vn 0 1 0
vn 0 1 0
vn 0.998617 0.052503 0.002851
vn 0.999987 0.005043 0.000274
vn 0.999751 0.022291 0.001211
vn 1 0 0
vn 0.999997 0.002216 -0.00074
vn 0.999997 0.002216 -0.00074
vn 1 0 0
vn 1 0 0
vn 1 0 0
vn 1 0 0
vn 1 0 0
vn 1 0 0
vn 1 0 0
vn 1 0 0
vn 1 0 0
vn 1 0 0
vn 1 0 0
vn 1 0 0
vn 1 0 0
vn 1 0 0
vn 1 0 0
vn 1 0 0
vn 1 0 0
vn 1 0 0
vn 1 0 0
vn 1 0 0
vn 1 0 0
vn 1 0 0
vn 1 0 0
vn 1 0 0
vn 1 0 0
vn 1 0 0
vn 1 0 0
vn 1 0 0
vn 1 0 0
vn 1 0 0
vn 1 0 0
vn 1 0 0
vn 1 0 0
vn 1 0 0
vn 1 0 0
vn 1 0 0
vn 1 0 0
vn 1 0 0
vn 1 0 0
vn 1 0 0
vn 1 0 0
vn 1 0 0
vn 1 0 0
vn 0 -0.707106 0.707108
vn 0 -0.707108 0.707106
vn 0 -0.707107 0.707107
vn 0 -0.707107 0.707107
vn 0 0.70658 -0.707633
vn 0 0.70658 -0.707633
vn 0 0.706581 -0.707632
vn 0 0.706581 -0.707632
vn 0 0 1
vn 0 0 1
vn 0 0 1
vn 0 0 1
vn 0 -1 0
vn 0 -1 0
vn 0 -1 0
vn 0 -1 0
vn 0 0 -1
vn 0 0 -1
vn 0 0 -1
vn 0 0 -1
vn 0 1 0
vn 0 1 0
vn 0 1 0
vn 0 1 0
vn 0 0 -1
vn 0 0 -1
vn 0 0 -1
vn 0 0 -1
vn 0 0 -1
vn 0 0 -1
vn 0.001797 0.0385 -0.999257
vn 0 0 -1
vn -0.000647 0.01903 -0.999819
vn 0 0 -1
vn 0 0 -1
vn 0 0 -1
vn 0 0 -1
vn 0 0 -1
vn 0 0 -1
vn 0 0 -1
vn 0 0 -1
vn 0 0 -1
vn 0 0 -1
vn 0 0 -1
vn 0 0 -1
vn 0 0 -1
vn 0 0 -1
vn 0 0 -1
vn 0 0 -1
vn 0 0 -1
vn 0 0 -1
vn 0 0 -1
vn 0 0 -1
vn 0 0 -1
vn 0 0 -1
vn 0 0 -1
vn 0 0 -1
vn 0 0 -1
vn 0 0 -1
vn 0 0 -1
vn 0 0 -1
vn 0 0 -1
vn 0 0 -1
vn 0 0 -1
vn 0 0 -1
vn 0 0 -1
vn 0 -1 0
vn 0 -1 0
vn 0 -1 0
vn 0 -1 0
vn 1 0 0
vn 1 0 0
vn 1 0 0
vn 1 0 0
vn 0.707106 -0.707107 0
vn 0.707106 -0.707107 0
vn 0.707107 -0.707107 0
vn 0.707107 -0.707107 0
vn -0.707632 0.706581 0
vn -0.707634 0.70658 0
vn -0.707632 0.706581 0
vn -0.707632 0.706581 0
vn -1 0 0
vn -1 0 0
vn -1 0 0
vn -1 0 0
vn 0 1 0
vn 0 1 0
vn 0 1 0
vn 0 1 0
vn 0 -1 0
vn 0 -1 0
vn 0 -1 0
vn 0 -1 0
vn -0.99994 0.008188 -0.007312
vn -0.999917 0.012407 -0.003607
vn -0.999898 0.014234 -0.000758
vn -0.999907 0.013646 -0.000953
vn -0.767263 0.011459 -0.64123
vn -1 0 0
vn -0.99994 0.008188 -0.007312
vn -0.999917 0.012407 -0.003607
vn -1 -7e-06 0
vn -1 0 0
vn -1 -1e-06 0
vn -1 0 0
vn -1 0 0
vn -1 0 0
vn -1 0 0
vn -1 0 0
vn -1 0 0
vn -1 0 0
vn -1 0 0
vn -1 0 0
vn -1 0 0
vn -1 0 0
vn -1 0 0
vn -1 0 0
vn -1 0 0
vn -1 0 0
vn -1 0 0
vn -1 0 0
vn -1 0 0
vn -1 0 0
vn -1 0 0
vn -1 0 0
vn -1 0 0
vn -1 0 0
vn -1 0 0
vn -1 0 0
vn -1 0 0
vn -1 0 0
vn -1 0 0
vn -1 0 0
vn -1 0 0
vn -1 0 0
vn -1 0 0
vn -1 0 0
vn -1 0 0
vn 0 0 -1
vn 0 0 -1
vn 0 0 -1
vn 0 0 -1
vn 0 0.706582 0.707632
vn 0 0.706582 0.707632
vn 0 0.706581 0.707632
vn 0 0.706581 0.707632
vn 0 0 1
vn 0 0 1
vn 0 0 1
vn 0 0 1
vn 0 -0.707106 -0.707108
vn 0 -0.707108 -0.707106
vn 0 -0.707107 -0.707107
vn 0 -0.707107 -0.707107
vn 0 1 0
vn 0 1 0
vn 0 1 0
vn 0 1 0
vn -1 0 0
vn -1 0 0
vn -1 0 0
vn -1 0 0
vn 0.030721 0.99952 0.003992
vn 0.013134 0.999912 0.001707
vn 0.000442 1 5.7e-05
vn 0 1 0
vn 0 1 0
vn 0 1 0
vn 0.085549 0.996334 0.000932
vn 0.010118 0.999949 -0.000179
vn 0 1 0
vn 0 1 0
vn 0 1 0
vn 0 1 0
vn 0 1 0
vn -0.033563 0.971321 0.235392
vn -0.005979 0.999103 0.041934
vn 0 1 0
vn 0 1 0
vn 0.000368 0.999966 -0.008194
vn 0.000248 0.999976 -0.006961
vn 0 1 0
vn 0 1 0
vn 0 1 0
vn 0 1 0
vn 0 1 0
vn 0 1 0
vn 0 1 0
vn 0 1 0
vn -0.005315 0.999986 0
vn -0.004394 0.99999 -0.000145
vn 0 1 0
vn 0 1 0
vn 0 1 0
vn -0.001116 0.999999 -0.000661
vn 0 1 0
vn 0 1 0
vn 0 1 0
vn 0 1 0
vn 0 0 -1
vn 0 0 -1
vn 0 0 -1
vn 0 0 -1
vn -0.707107 0 -0.707107
vn -0.707107 0 -0.707107
vn -0.707107 0 -0.707107
vn -0.707107 0 -0.707107
vn 0.706581 0 0.707632
vn 0.706581 0 0.707632
vn 0.706581 0 0.707632
vn 0.706581 0 0.707632
vn 0 0 1
vn 0 0 1
vn 0 0 1
vn 0 0 1
vn 1 0 0
vn 1 0 0
vn 1 0 0
vn 1 0 0
vn -1 0 0
vn -1 0 0
vn -1 0 0
vn -1 0 0
vn 0 0 1
vn 0 0 1
vn 0 0 1
vn 0 0 1
vn -0.706581 0 0.707632
vn -0.706581 0 0.707632
vn -0.706581 0 0.707632
vn -0.706581 0 0.707632
vn 0.707107 0 -0.707107
vn 0.707107 0 -0.707107
vn 0.707107 0 -0.707107
vn 0.707107 0 -0.707107
vn 0 0 -1
vn 0 0 -1
vn 0 0 -1
vn 0 0 -1
vn 0 -1 0
vn 0 -1 0
vn 0 -1 0
vn 0 -1 0
vn 0 -1 0
vn 0 -1 0
vn 0 -1 0
vn 0 -1 0
vn 0 -1 0
vn 0 -1 0
vn 0 -1 0
vn 0 -1 0
vn 0 -1 0
vn 0 -1 0
vn 0 -1 0
vn 0 -1 0
vn 0 -1 0
vn 0 -1 0
vn 0 -1 0
vn 0 -1 0
vn 0 -1 0
vn 0 -1 0
vn 0 -1 0
vn 0 -1 0
vn 0 -1 0
vn 0 -1 0
vn 1 0 0
vn 1 0 0
vn 1 0 0
vn 1 0 0
vn 0 1 2e-06
vn 0 1 0
vn 0.000302 1 0.000291
vn 0.000302 1 0.000302
vn 0.000302 1 0.000301
vn 0.000498 0.001244 0.999999
vn 0.000498 0.001244 0.999999
vn 0.003134 0.011842 0.999925
vn 0 0 1
vn 0 0 1
vn 1 0 0
vn 0.999751 0.022291 0.001211
vn 1 0 0
vn 1 0 0
vn -0.037241 0.093095 -0.994961
vn -0.005249 0.035277 -0.999364
vn 0.013101 0.99372 -0.111128
vn -9.3e-05 0.999953 -0.009725
vn 0.085549 0.996334 0.000932
vn 0.308524 0.951186 0.007655
vn 0.010118 0.999949 -0.000179
vn 0.085549 0.996334 0.000932
vn 0.269625 0.95502 -0.123448
vn 0.308524 0.951186 0.007655
vn 0.269625 0.95502 -0.123448
vn 0.003134 0.011842 0.999925
vn 0.308524 0.951186 0.007655
vn 0.372415 0.899099 -0.230059
vn 0.919624 0.272936 0.282484
vn 0.919624 0.272936 0.282484
vn 0.308524 0.951186 0.007655
vn 0.029711 0.032449 0.999032
vn 0.026324 0.999654 0
vn 0.342323 0.74429 -0.573452
vn -0.090558 0.850764 -0.517687
vn -9.3e-05 0.999953 -0.009725
vn 0.013101 0.99372 -0.111128
vn 0.220554 0.757342 -0.614645
vn -0.044948 0.73942 -0.671743
vn 0.013101 0.99372 -0.111128
vn -0.044948 0.73942 -0.671743
vn -0.044948 0.73942 -0.671743
vn 0.342323 0.74429 -0.573452
vn 0.533443 0.565581 -0.628932
vn 0.342323 0.74429 -0.573452
vn 0.998497 0.054357 0.006955
vn -0.999907 0.013609 -0.000965
vn -1 0 0
vn -1 -1e-06 0
vn -1 0 0
vn -1 0 0
vn -0.767263 0.011459 -0.64123
vn -0.000647 0.01903 -0.999819
vn -1 0 0
vn 0.001797 0.0385 -0.999257
vn -0.075493 0.997119 -0.00731
vn -0.078647 0.996876 -0.007286
vn -0.888625 0.458631 0.001602
vn -0.89143 0.453157 0.001141
vn 0.000123 0.000373 1
vn 0.000123 0.000373 1
vn 0.000123 0.000373 1
vn -0.89143 0.453157 0.001141
vn -0.772523 0.634941 0.007674
vn -0.888625 0.458631 0.001602
vn -0.888625 0.458631 0.001602
vn -0.772523 0.634941 0.007674
vn -0.696487 0.714064 0.07084

g crate_wood4:_0_0
usemtl crate_wood4:textures_wood_woodplank04
f 1/1/1 2/2/2 3/3/3
f 4/4/4 1/1/1 3/3/3
f 4/4/4 3/3/3 5/5/5
f 6/6/6 4/4/4 5/5/5

g crate_wood4:_1_1
usemtl crate_wood4:textures_wood_woodplank04
f 7/7/7 8/8/8 9/9/9
f 10/10/10 7/7/7 9/9/9
f 10/10/10 9/9/9 11/11/11
f 12/12/12 10/10/10 11/11/11

g crate_wood4:_2_2
usemtl crate_wood4:textures_wood_woodplank04
f 13/13/13 14/14/14 15/15/15
f 14/14/14 16/16/16 15/15/15
f 13/13/13 15/15/15 17/17/17
f 18/18/18 13/13/13 17/17/17

g crate_wood4:_3_3
usemtl crate_wood4:textures_wood_woodplank04
f 19/19/19 20/20/20 21/21/21
f 22/22/22 19/19/19 21/21/21
f 22/22/22 21/21/21 23/23/23
f 24/24/24 22/22/22 23/23/23

g crate_wood4:_4_4
usemtl crate_wood4:textures_wood_woodplank04
f 25/25/25 26/26/26 27/27/27
f 28/28/28 25/25/25 27/27/27
f 28/28/28 27/27/27 29/29/29
f 30/30/30 28/28/28 29/29/29

g crate_wood4:_5_5
usemtl crate_wood4:textures_wood_woodplank04
f 31/31/31 32/32/32 33/33/33
f 32/32/32 34/34/34 33/33/33
f 31/31/31 33/33/33 35/35/35
f 36/36/36 31/31/31 35/35/35

g crate_wood4:_54_6
usemtl crate_wood4:textures_wood_woodplank02
f 37/37/37 38/38/38 39/39/39
f 39/39/39 38/38/38 40/40/40
f 41/41/41 42/42/42 43/43/43
f 43/43/43 42/42/42 44/44/44
f 45/45/45 46/46/46 47/47/47
f 47/47/47 46/46/46 48/48/48
f 49/49/49 50/50/50 51/51/51
f 51/51/51 50/50/50 52/52/52
f 53/53/53 54/54/54 55/55/55
f 56/56/56 55/55/55 54/54/54
f 57/57/57 58/58/58 59/59/59
f 59/59/59 58/58/58 60/60/60
f 61/61/61 62/62/62 58/58/58
f 60/60/60 58/58/58 62/62/62
f 63/63/63 64/64/64 65/65/65
f 65/65/65 66/66/66 63/63/63
f 67/67/67 68/68/68 69/69/69
f 70/70/70 71/71/71 72/72/72
f 73/73/73 70/70/70 74/74/74
f 74/74/74 70/70/70 72/72/72
f 73/73/73 74/74/74 75/75/75
f 76/76/76 77/77/77 78/78/78
f 78/78/78 77/77/77 79/79/79
f 77/77/77 80/80/80 81/81/81
f 81/81/81 80/80/80 82/82/82
f 82/82/82 80/80/80 83/83/83
f 84/84/84 85/85/85 86/86/86
f 85/85/85 87/87/87 86/86/86
f 88/88/88 89/89/89 90/90/90
f 91/91/91 92/92/92 93/93/93
f 93/93/93 92/92/92 94/94/94
f 95/95/95 96/96/96 97/97/97
f 97/97/97 96/96/96 98/98/98
f 99/99/99 100/100/100 101/101/101
f 100/100/100 102/102/102 101/101/101
f 103/103/103 104/104/104 105/105/105
f 106/106/106 107/107/107 105/105/105
f 105/105/105 107/107/107 108/108/108
f 109/109/109 110/110/110 111/111/111
f 112/112/112 111/111/111 110/110/110
f 113/113/113 114/114/114 115/115/115
f 115/115/115 116/116/116 113/113/113
f 117/117/117 118/118/118 119/119/119
f 120/120/120 121/121/121 122/122/122
f 121/121/121 123/123/123 122/122/122
f 124/124/124 125/125/125 126/126/126
f 127/127/127 128/128/128 129/129/129
f 130/130/130 131/131/131 132/132/132
f 129/129/129 132/132/132 133/133/133
f 134/134/134 135/135/135 136/136/136
f 133/133/133 137/137/137 138/138/138
f 139/139/139 140/140/140 141/141/141
f 142/142/142 139/139/139 143/143/143
f 144/144/144 139/139/139 145/145/145
f 146/146/146 144/144/144 147/147/147
f 148/148/148 149/149/149 150/150/150
f 150/150/150 149/149/149 151/151/151
f 152/152/152 153/153/153 154/154/154
f 154/154/154 153/153/153 155/155/155
f 156/156/156 157/157/157 158/158/158
f 158/158/158 157/157/157 159/159/159
f 160/160/160 161/161/161 162/162/162
f 162/162/162 161/161/161 163/163/163
f 164/164/164 165/165/165 166/166/166
f 166/166/166 165/165/165 167/167/167
f 168/168/168 169/169/169 170/170/170
f 170/170/170 169/169/169 171/171/171
f 172/172/172 173/173/173 174/174/174
f 174/174/174 173/173/173 175/175/175
f 176/176/176 177/177/177 175/175/175
f 174/174/174 175/175/175 177/177/177
f 178/178/178 179/179/179 180/180/180
f 179/179/179 181/181/181 180/180/180
f 182/182/182 183/183/183 184/184/184
f 183/183/183 185/185/185 184/184/184
f 186/186/186 187/187/187 188/188/188
f 189/189/189 190/190/190 191/191/191
f 191/191/191 190/190/190 192/192/192
f 190/190/190 189/189/189 193/193/193
f 194/194/194 195/195/195 196/196/196
f 193/193/193 195/195/195 197/197/197
f 198/198/198 199/199/199 200/200/200
f 200/200/200 201/201/201 198/198/198
f 202/202/202 203/203/203 204/204/204
f 205/205/205 206/206/206 207/207/207
f 208/208/208 209/209/209 210/210/210
f 211/211/211 208/208/208 212/212/212
f 211/211/211 212/212/212 213/213/213
f 214/214/214 215/215/215 216/216/216
f 216/216/216 215/215/215 217/217/217
f 218/218/218 219/219/219 220/220/220
f 220/220/220 219/219/219 221/221/221
f 222/222/222 223/223/223 224/224/224
f 224/224/224 223/223/223 225/225/225
f 226/226/226 227/227/227 228/228/228
f 228/228/228 227/227/227 229/229/229
f 230/230/230 231/231/231 232/232/232
f 232/232/232 231/231/231 233/233/233
f 234/234/234 235/235/235 236/236/236
f 236/236/236 235/235/235 237/237/237
f 238/238/238 239/239/239 240/240/240
f 240/240/240 239/239/239 241/241/241
f 242/242/242 243/243/243 244/244/244
f 245/245/245 244/244/244 243/243/243
f 246/246/246 247/247/247 248/248/248
f 249/249/249 248/248/248 247/247/247
f 250/250/250 251/251/251 252/252/252
f 251/251/251 253/253/253 252/252/252
f 254/254/254 255/255/255 256/256/256
f 255/255/255 257/257/257 256/256/256
f 258/258/258 259/259/259 260/260/260
f 261/261/261 262/262/262 263/263/263
f 264/264/264 265/265/265 266/266/266
f 263/263/263 266/266/266 267/267/267
f 268/268/268 269/269/269 270/270/270
f 267/267/267 271/271/271 272/272/272
f 273/273/273 274/274/274 275/275/275
f 275/275/275 274/274/274 276/276/276
f 274/274/274 277/277/277 278/278/278
f 276/276/276 277/277/277 279/279/279
f 280/280/280 281/281/281 282/282/282
f 282/282/282 283/283/283 280/280/280
f 284/284/284 285/285/285 286/286/286
f 287/287/287 288/288/288 289/289/289
f 289/289/289 288/288/288 290/290/290
f 291/291/291 292/292/292 293/293/293
f 293/293/293 292/292/292 294/294/294
f 295/295/295 296/296/296 297/297/297
f 297/297/297 296/296/296 298/298/298
f 299/299/299 300/300/300 301/301/301
f 301/301/301 300/300/300 302/302/302
f 303/303/303 304/304/304 305/305/305
f 305/305/305 304/304/304 306/306/306
f 307/307/307 308/308/308 309/309/309
f 309/309/309 308/308/308 310/310/310
f 311/311/311 312/312/312 313/313/313
f 313/313/313 312/312/312 314/314/314
f 315/315/315 316/316/316 312/312/312
f 314/314/314 312/312/312 316/316/316
f 317/317/317 318/318/318 319/319/319
f 320/320/320 321/321/321 322/322/322
f 323/323/323 322/322/322 321/321/321
f 324/324/324 325/325/325 326/326/326
f 326/326/326 325/325/325 327/327/327
f 328/328/328 329/329/329 323/323/323
f 323/323/323 329/329/329 330/330/330
f 331/331/331 332/332/332 333/333/333
f 332/332/332 334/334/334 333/333/333
f 334/334/334 335/335/335 333/333/333
f 336/336/336 335/335/335 337/337/337
f 338/338/338 339/339/339 340/340/340
f 340/340/340 339/339/339 341/341/341
f 342/342/342 339/339/339 343/343/343
f 344/344/344 345/345/345 346/346/346
f 341/341/341 346/346/346 347/347/347
f 348/348/348 349/349/349 350/350/350
f 350/350/350 349/349/349 351/351/351
f 352/352/352 353/353/353 354/354/354
f 354/354/354 353/353/353 355/355/355
f 356/356/356 357/357/357 358/358/358
f 358/358/358 357/357/357 359/359/359
f 360/360/360 361/361/361 362/362/362
f 362/362/362 361/361/361 363/363/363
f 364/364/364 365/365/365 366/366/366
f 366/366/366 365/365/365 367/367/367
f 368/368/368 369/369/369 370/370/370
f 370/370/370 369/369/369 371/371/371
f 372/372/372 373/373/373 374/374/374
f 374/374/374 373/373/373 375/375/375
f 376/376/376 377/377/377 378/378/378
f 378/378/378 377/377/377 379/379/379
f 380/380/380 381/381/381 382/382/382
f 382/382/382 381/381/381 383/383/383
f 384/384/384 385/385/385 386/386/386
f 386/386/386 385/385/385 387/387/387
f 388/388/388 389/389/389 390/390/390
f 390/390/390 389/389/389 391/391/391
f 389/389/389 388/388/388 392/392/392
f 393/393/393 394/394/394 395/395/395
f 394/394/394 396/396/396 395/395/395
f 394/394/394 393/393/393 397/397/397
f 398/398/398 399/399/399 400/400/400
f 400/400/400 399/399/399 401/401/401
f 400/400/400 401/401/401 402/402/402
f 403/403/403 404/404/404 405/405/405
f 406/406/406 403/403/403 407/407/407
f 407/407/407 403/403/403 405/405/405
f 406/406/406 407/407/407 408/408/408
f 409/409/409 410/410/410 411/411/411
f 411/411/411 412/412/412 409/409/409
f 409/409/409 412/412/412 413/413/413
f 414/414/414 415/415/415 416/416/416
f 416/416/416 415/415/415 417/417/417
f 325/325/325 418/418/418 327/327/327
f 418/418/418 419/419/419 327/327/327
f 420/420/420 421/421/421 422/422/422
f 421/421/421 326/326/326 422/422/422
f 423/423/423 424/424/424 425/425/425
f 425/425/425 424/424/424 59/59/59
f 426/426/426 53/53/53 427/427/427
f 53/53/53 55/55/55 427/427/427
f 428/428/428 429/429/429 430/430/430
f 429/429/429 431/431/431 430/430/430
f 432/432/432 172/172/172 433/433/433
f 323/323/323 434/434/434 435/435/435
f 435/435/435 328/328/328 323/323/323
f 436/436/436 437/437/437 438/438/438
f 439/439/439 440/440/440 441/441/441
f 442/442/442 443/443/443 444/444/444
f 445/445/445 446/446/446 53/53/53
f 447/447/447 448/448/448 449/449/449
f 443/443/443 53/53/53 448/448/448
f 450/450/450 451/451/451 452/452/452
f 453/453/453 454/454/454 455/455/455
f 455/455/455 454/454/454 456/456/456
f 457/457/457 452/452/452 458/458/458
f 452/452/452 451/451/451 458/458/458
f 459/459/459 460/460/460 461/461/461
f 462/462/462 463/463/463 461/461/461
f 464/464/464 244/244/244 245/245/245
f 465/465/465 466/466/466 467/467/467
f 466/466/466 468/468/468 467/467/467
f 469/469/469 470/470/470 471/471/471
f 470/470/470 181/181/181 471/471/471
f 472/472/472 433/433/433 172/172/172
f 473/473/473 474/474/474 475/475/475
f 475/475/475 474/474/474 476/476/476
f 477/477/477 478/478/478 479/479/479
f 480/480/480 481/481/481 482/482/482
f 483/483/483 484/484/484 485/485/485
