# Exported by Gskelview
mtllib crate_wood2.mtl

v -62.889 -64 62.889
v -62.889 -62.889 64
v -64 -62.889 62.889
v -62.889 62.889 64
v -62.889 64 62.889
v -64 62.889 62.889
v -64 -62.889 -62.889
v -62.889 -62.889 -64
v -62.889 -64 -62.889
v -62.889 64 -62.889
v -62.889 62.889 -64
v -64 62.889 -62.889
v 64 -62.889 62.889
v 62.889 -62.889 64
v 62.889 -64 62.889
v 62.889 64 62.889
v 62.889 62.889 64
v 64 62.889 62.889
v 62.889 -62.889 -64
v 64 -62.889 -62.889
v 62.889 -64 -62.889
v 62.889 64 -62.889
v 64 62.889 -62.889
v 62.889 62.889 -64
v -30.7519 -54.882 -37.0212
v -51.9583 -54.882 -37.0212
v 40.1276 -54.882 56.8146
v 61.3341 -54.882 56.8146
v -51.9583 -59.0519 -37.0212
v -51.9583 -59.0519 -58.2277
v -30.7519 -59.0519 -58.2277
v -30.7519 -59.0519 -37.0212
v -51.9583 -59.0519 -58.2277
v -51.9583 -59.0519 -37.0212
v -51.9583 -54.882 -37.0212
v -51.9583 -54.882 -58.2277
v -51.9583 -54.882 -58.2277
v -51.9583 -54.882 -37.0212
v -30.7519 -54.882 -37.0212
v -30.7519 -54.882 -58.2277
v -51.9583 -59.0519 -58.2277
v -51.9583 -54.882 -58.2277
v -30.7519 -54.882 -58.2277
v -30.7519 -59.0519 -58.2277
v -51.9583 -54.882 -37.0212
v -51.9583 -59.0519 -37.0212
v 40.1276 -59.0518 56.8146
v 40.1276 -54.882 56.8146
v 61.3341 -59.0518 56.8146
v 61.3341 -59.0518 35.6081
v 61.3341 -54.882 35.6081
v 61.3341 -54.882 56.8146
v 40.1276 -54.882 56.8146
v 40.1276 -59.0518 56.8146
v 61.3341 -59.0518 56.8146
v 61.3341 -54.882 56.8146
v -30.7519 -59.0519 -58.2277
v -30.7519 -54.882 -58.2277
v 61.3341 -54.882 35.6081
v 61.3341 -59.0518 35.6081
v -51.9583 -59.0519 -37.0212
v -30.7519 -59.0519 -37.0212
v 61.3341 -59.0518 56.8146
v 40.1276 -59.0518 56.8146
v 61.3341 -59.0518 35.6081
v 61.3341 -59.0518 56.8146
v 61.3341 -54.882 56.8146
v 61.3341 -54.882 35.6081
v -51.9583 56.4961 -37.0212
v -30.7519 56.4961 -37.0212
v 61.334 56.4961 56.8145
v 40.1276 56.4961 56.8145
v -51.9583 60.6659 -58.2277
v -51.9583 60.6659 -37.0212
v -30.7519 60.6659 -37.0212
v -30.7519 60.6659 -58.2277
v -51.9583 56.4961 -58.2277
v -51.9583 56.4961 -37.0212
v -51.9583 60.6659 -37.0212
v -51.9583 60.6659 -58.2277
v -51.9583 56.4961 -37.0212
v -51.9583 56.4961 -58.2277
v -30.7519 56.4961 -58.2277
v -30.7519 56.4961 -37.0212
v -51.9583 56.4961 -58.2277
v -51.9583 60.6659 -58.2277
v -30.7519 60.6659 -58.2277
v -30.7519 56.4961 -58.2277
v -51.9583 60.6659 -37.0212
v -51.9583 56.4961 -37.0212
v 40.1276 56.4961 56.8145
v 40.1276 60.6659 56.8145
v 61.334 56.4961 56.8145
v 61.334 56.4961 35.6081
v 61.334 60.6659 35.6081
v 61.334 60.6659 56.8145
v 40.1276 60.6659 56.8145
v 40.1276 56.4961 56.8145
v 61.334 56.4961 56.8145
v 61.334 60.6659 56.8145
v -30.7519 56.4961 -58.2277
v -30.7519 60.6659 -58.2277
v 61.334 60.6659 35.6081
v 61.334 56.4961 35.6081
v -30.7519 60.6659 -37.0212
v -51.9583 60.6659 -37.0212
v 40.1276 60.6659 56.8145
v 61.334 60.6659 56.8145
v 61.334 60.6659 56.8145
v 61.334 60.6659 35.6081
v 61.334 56.4961 35.6081
v 61.334 56.4961 56.8145
v -30.7519 -56.6474 34.7572
v -30.7519 -56.6474 55.9636
v 63.0839 -56.6474 -36.1223
v 63.0839 -56.6474 -57.3288
v -51.9583 -60.8172 55.9636
v -51.9583 -60.8172 34.7572
v -30.7519 -60.8172 34.7572
v -30.7519 -60.8172 55.9636
v -51.9583 -56.6474 55.9636
v -51.9583 -60.8172 55.9636
v -30.7519 -60.8172 55.9636
v -30.7519 -56.6474 55.9636
v -51.9583 -56.6474 34.7572
v -51.9583 -56.6474 55.9636
v -30.7519 -56.6474 55.9636
v -30.7519 -56.6474 34.7572
v -51.9583 -60.8172 34.7572
v -51.9583 -60.8172 55.9636
v -51.9583 -56.6474 55.9636
v -51.9583 -56.6474 34.7572
v -30.7519 -56.6474 55.9636
v -30.7519 -60.8172 55.9636
v 63.0839 -60.8172 -36.1223
v 63.0839 -56.6474 -36.1223
v 41.8774 -60.8172 -57.3288
v 41.8774 -56.6474 -57.3288
v 63.0839 -56.6474 -57.3288
v 63.0839 -60.8172 -57.3288
v 63.0839 -60.8172 -36.1223
v 63.0839 -60.8172 -57.3288
v 63.0839 -56.6474 -57.3288
v 63.0839 -56.6474 -36.1223
v -51.9583 -60.8172 34.7572
v -51.9583 -56.6474 34.7572
v 41.8774 -56.6474 -57.3288
v 41.8774 -60.8172 -57.3288
v -30.7519 -60.8172 55.9636
v -30.7519 -60.8172 34.7572
v 63.0839 -60.8172 -57.3288
v 63.0839 -60.8172 -36.1223
v -30.7519 -60.8172 34.7572
v -51.9583 -60.8172 34.7572
v 41.8774 -60.8172 -57.3288
v 63.0839 -60.8172 -57.3288
v -51.9583 -56.6474 34.7572
v -30.7519 -56.6474 34.7572
v 63.0839 -56.6474 -57.3288
v 41.8774 -56.6474 -57.3288
v -30.7519 58.2614 55.9636
v -30.7519 58.2614 34.7572
v 63.0839 58.2614 -57.3288
v 63.0839 58.2614 -36.1223
v -51.9583 62.4312 34.7572
v -51.9583 62.4313 55.9636
v -30.7519 62.4313 55.9636
v -30.7519 62.4313 34.7572
v -51.9583 62.4313 55.9636
v -51.9583 58.2614 55.9636
v -30.7519 58.2614 55.9636
v -30.7519 62.4313 55.9636
v -51.9583 58.2614 55.9636
v -51.9583 58.2614 34.7572
v -30.7519 58.2614 34.7572
v -30.7519 58.2614 55.9636
v -51.9583 58.2614 34.7572
v -51.9583 58.2614 55.9636
v -51.9583 62.4313 55.9636
v -51.9583 62.4312 34.7572
v -30.7519 62.4313 55.9636
v -30.7519 58.2614 55.9636
v 63.0839 58.2614 -36.1223
v 63.0839 62.4313 -36.1223
v 41.8774 58.2614 -57.3288
v 41.8774 62.4312 -57.3288
v 63.0839 62.4313 -57.3288
v 63.0839 58.2614 -57.3288
v 63.0839 58.2614 -36.1223
v 63.0839 58.2614 -57.3288
v 63.0839 62.4313 -57.3288
v 63.0839 62.4313 -36.1223
v -51.9583 58.2614 34.7572
v -51.9583 62.4312 34.7572
v 41.8774 62.4312 -57.3288
v 41.8774 58.2614 -57.3288
v -30.7519 62.4313 34.7572
v -30.7519 62.4313 55.9636
v 63.0839 62.4313 -36.1223
v 63.0839 62.4313 -57.3288
v 63.0839 62.4313 -57.3288
v 41.8774 62.4312 -57.3288
v 41.8774 58.2614 -57.3288
v 63.0839 58.2614 -57.3288
v -52.3989 64 -52.3989
v -52.3989 56.5629 -52.3989
v 52.3989 56.5629 -52.3989
v 52.3989 64 -52.3989
v -52.3989 -52.3989 56.5629
v -52.3989 -52.3989 64
v 52.3989 -52.3989 64
v 52.3989 -52.3989 56.5629
v -52.3989 52.3989 -56.5629
v -52.3989 52.3989 -64
v 52.3989 52.3989 -64
v 52.3989 52.3989 -56.5629
v -52.3989 -56.5629 -52.3989
v -52.3989 -64 -52.3989
v 52.3989 -64 -52.3989
v 52.3989 -56.5629 -52.3989
v 56.5629 -52.3989 -52.3989
v 56.5629 -52.3989 52.3989
v 64 -52.3989 52.3989
v 64 -52.3989 -52.3989
v -64 52.3989 52.3989
v -64 52.3989 -52.3989
v -56.5629 52.3989 -52.3989
v -56.5629 52.3989 52.3989
v -52.3989 -52.3989 64
v -62.889 -62.889 64
v 62.889 -62.889 64
v 52.3989 -52.3989 64
v -52.3989 64 52.3989
v -62.889 64 62.889
v 62.889 64 62.889
v 52.3989 64 52.3989
v -62.889 -62.889 -64
v -52.3989 -52.3989 -64
v 52.3989 -52.3989 -64
v 62.889 -62.889 -64
v -62.889 62.889 64
v -62.889 -62.889 64
v -52.3989 -52.3989 64
v -52.3989 52.3989 64
v -52.3989 -64 -52.3989
v -62.889 -64 -62.889
v 62.889 -64 -62.889
v 52.3989 -64 -52.3989
v 52.3989 -64 52.3989
v 52.3989 -64 -52.3989
v 62.889 -64 -62.889
v 62.889 -64 62.889
v -62.889 64 -62.889
v -52.3989 64 -52.3989
v 52.3989 64 -52.3989
v 62.889 64 -62.889
v 52.3989 -52.3989 -64
v 52.3989 52.3989 -64
v 62.889 62.889 -64
v 62.889 -62.889 -64
v 64 -52.3989 -52.3989
v 64 -62.889 -62.889
v 64 62.889 -62.889
v 64 52.3989 -52.3989
v 52.3989 64 -52.3989
v 52.3989 64 52.3989
v 62.889 64 62.889
v 62.889 64 -62.889
v 52.3989 52.3989 64
v 52.3989 -52.3989 64
v 62.889 -62.889 64
v 62.889 62.889 64
v 64 -62.889 62.889
v 64 -52.3989 52.3989
v 64 52.3989 52.3989
v 64 62.889 62.889
v -62.889 -62.889 -64
v -62.889 62.889 -64
v -52.3989 52.3989 -64
v -52.3989 -52.3989 -64
v -62.889 -64 62.889
v -52.3989 -64 52.3989
v 52.3989 -64 52.3989
v 62.889 -64 62.889
v -64 -62.889 62.889
v -64 -52.3989 52.3989
v -64 -52.3989 -52.3989
v -64 -62.889 -62.889
v -64 -62.889 -62.889
v -64 -52.3989 -52.3989
v -64 52.3989 -52.3989
v -64 62.889 -62.889
v 64 -52.3989 52.3989
v 64 -62.889 62.889
v 64 -62.889 -62.889
v 64 -52.3989 -52.3989
v -62.889 64 -62.889
v -62.889 64 62.889
v -52.3989 64 52.3989
v -52.3989 64 -52.3989
v -64 -52.3989 52.3989
v -64 -62.889 62.889
v -64 62.889 62.889
v -64 52.3989 52.3989
v -52.3989 52.3989 -64
v -62.889 62.889 -64
v 62.889 62.889 -64
v 52.3989 52.3989 -64
v -64 52.3989 52.3989
v -64 62.889 62.889
v -64 62.889 -62.889
v -64 52.3989 -52.3989
v -62.889 62.889 64
v -52.3989 52.3989 64
v 52.3989 52.3989 64
v 62.889 62.889 64
v 64 62.889 62.889
v 64 52.3989 52.3989
v 64 52.3989 -52.3989
v 64 62.889 -62.889
v -56.5629 -52.3989 -52.3989
v -56.5629 -52.3989 52.3989
v -56.5629 52.3989 52.3989
v -56.5629 52.3989 -52.3989
v -52.3989 -52.3989 -56.5629
v -52.3989 52.3989 -56.5629
v 52.3989 52.3989 -56.5629
v 52.3989 -52.3989 -56.5629
v 56.5629 -52.3989 52.3989
v 56.5629 -52.3989 -52.3989
v 56.5629 52.3989 -52.3989
v 56.5629 52.3989 52.3989
v -52.3989 52.3989 56.5629
v -52.3989 -52.3989 56.5629
v 52.3989 -52.3989 56.5629
v 52.3989 52.3989 56.5629
v -52.3989 -56.5629 52.3989
v -52.3989 -56.5629 -52.3989
v 52.3989 -56.5629 -52.3989
v 52.3989 -56.5629 52.3989
v -52.3989 56.5629 -52.3989
v -52.3989 56.5629 52.3989
v 52.3989 56.5629 52.3989
v 52.3989 56.5629 -52.3989
v -64 52.3989 -52.3989
v -64 -52.3989 -52.3989
v -56.5629 -52.3989 -52.3989
v -56.5629 52.3989 -52.3989
v 56.5629 52.3989 52.3989
v 56.5629 52.3989 -52.3989
v 64 52.3989 -52.3989
v 64 52.3989 52.3989
v -52.3989 -56.5629 52.3989
v -52.3989 -64 52.3989
v -52.3989 -64 -52.3989
v -52.3989 -56.5629 -52.3989
v 52.3989 -52.3989 -64
v 52.3989 -52.3989 -56.5629
v 52.3989 52.3989 -56.5629
v 52.3989 52.3989 -64
v -52.3989 52.3989 64
v -52.3989 52.3989 56.5629
v 52.3989 52.3989 56.5629
v 52.3989 52.3989 64
v 52.3989 56.5629 52.3989
v 52.3989 64 52.3989
v 52.3989 64 -52.3989
v 52.3989 56.5629 -52.3989
v 56.5629 -52.3989 52.3989
v 56.5629 52.3989 52.3989
v 64 52.3989 52.3989
v 64 -52.3989 52.3989
v 52.3989 -64 52.3989
v 52.3989 -56.5629 52.3989
v 52.3989 -56.5629 -52.3989
v 52.3989 -64 -52.3989
v -52.3989 -52.3989 64
v -52.3989 -52.3989 56.5629
v -52.3989 52.3989 56.5629
v -52.3989 52.3989 64
v -52.3989 64 52.3989
v -52.3989 56.5629 52.3989
v -52.3989 56.5629 -52.3989
v -52.3989 64 -52.3989
v -52.3989 -64 52.3989
v -52.3989 -56.5629 52.3989
v 52.3989 -56.5629 52.3989
v 52.3989 -64 52.3989
v -52.3989 56.5629 52.3989
v -52.3989 64 52.3989
v 52.3989 64 52.3989
v 52.3989 56.5629 52.3989
v -64 -52.3989 52.3989
v -64 52.3989 52.3989
v -56.5629 52.3989 52.3989
v -56.5629 -52.3989 52.3989
v -52.3989 -52.3989 -56.5629
v -52.3989 -52.3989 -64
v -52.3989 52.3989 -64
v -52.3989 52.3989 -56.5629
v -64 -52.3989 -52.3989
v -64 -52.3989 52.3989
v -56.5629 -52.3989 52.3989
v -56.5629 -52.3989 -52.3989
v 56.5629 52.3989 -52.3989
v 56.5629 -52.3989 -52.3989
v 64 -52.3989 -52.3989
v 64 52.3989 -52.3989
v -52.3989 -52.3989 -64
v -52.3989 -52.3989 -56.5629
v 52.3989 -52.3989 -56.5629
v 52.3989 -52.3989 -64
v 52.3989 -52.3989 56.5629
v 52.3989 -52.3989 64
v 52.3989 52.3989 64
v 52.3989 52.3989 56.5629
v -64 -62.889 62.889
v -64 -62.889 -62.889
v -62.889 -64 -62.889
v -62.889 -64 62.889
v -64 62.889 62.889
v -64 -62.889 62.889
v -62.889 -62.889 64
v -62.889 62.889 64
v -64 62.889 -62.889
v -64 62.889 62.889
v -62.889 64 62.889
v -62.889 64 -62.889
v -64 -62.889 -62.889
v -64 62.889 -62.889
v -62.889 62.889 -64
v -62.889 -62.889 -64
v -62.889 -64 -62.889
v -62.889 -62.889 -64
v 62.889 -62.889 -64
v 62.889 -64 -62.889
v -62.889 62.889 -64
v -62.889 64 -62.889
v 62.889 64 -62.889
v 62.889 62.889 -64
v 62.889 -62.889 -64
v 62.889 62.889 -64
v 64 62.889 -62.889
v 64 -62.889 -62.889
v 62.889 -64 62.889
v 62.889 -64 -62.889
v 64 -62.889 -62.889
v 64 -62.889 62.889
v 62.889 64 -62.889
v 62.889 64 62.889
v 64 62.889 62.889
v 64 62.889 -62.889
v 62.889 62.889 64
v 62.889 -62.889 64
v 64 -62.889 62.889
v 64 62.889 62.889
v -62.889 -62.889 64
v -62.889 -64 62.889
v 62.889 -64 62.889
v 62.889 -62.889 64
v -62.889 64 62.889
v -62.889 62.889 64
v 62.889 62.889 64
v 62.889 64 62.889
v -62.889 -64 62.889
v -62.889 -64 -62.889
v -52.3989 -64 -52.3989
v -52.3989 -64 52.3989
v 55.689 -35.521 -37.0212
v 55.689 -56.7274 -37.0212
v 55.689 35.3586 56.8146
v 55.689 56.565 56.8146
v 59.8589 -56.7274 -37.0212
v 59.8589 -56.7274 -58.2277
v 59.8589 -35.521 -58.2277
v 59.8589 -35.521 -37.0212
v 55.689 -56.7274 -37.0212
v 55.689 -56.7274 -58.2277
v 59.8589 -56.7274 -58.2277
v 59.8589 -56.7274 -37.0212
v 55.689 -56.7274 -58.2277
v 55.689 -56.7274 -37.0212
v 55.689 -35.521 -37.0212
v 55.689 -35.521 -58.2277
v 55.689 -56.7274 -58.2277
v 55.689 -35.521 -58.2277
v 59.8589 -35.521 -58.2277
v 59.8589 -56.7274 -58.2277
v 55.689 35.3586 56.8146
v 55.689 -56.7274 -37.0212
v 59.8589 -56.7274 -37.0212
v 59.8589 35.3586 56.8146
v 55.689 56.565 35.6081
v 55.689 56.565 56.8146
v 59.8589 56.565 56.8146
v 59.8589 56.565 35.6081
v 55.689 56.565 56.8146
v 55.689 35.3586 56.8146
v 59.8589 35.3586 56.8146
v 59.8589 56.565 56.8146
v 55.689 -35.521 -58.2277
v 55.689 56.565 35.6081
v 59.8589 56.565 35.6081
v 59.8589 -35.521 -58.2277
v 59.8589 -56.7274 -37.0212
v 59.8589 -35.521 -37.0212
v 59.8589 56.565 56.8146
v 59.8589 35.3586 56.8146
v 59.8589 -35.521 -37.0212
v 59.8589 -35.521 -58.2277
v 59.8589 56.565 35.6081
v 59.8589 56.565 56.8146
v 55.689 -35.521 -58.2277
v 55.689 -35.521 -37.0212
v 55.689 56.565 56.8146
v 55.689 56.565 35.6081
v -55.689 -56.7274 -37.0212
v -55.689 -35.521 -37.0212
v -55.689 56.565 56.8146
v -55.689 35.3585 56.8145
v -59.8589 -56.7274 -58.2277
v -59.8589 -56.7274 -37.0212
v -59.8589 -35.521 -37.0212
v -59.8589 -35.521 -58.2277
v -59.8589 -56.7274 -37.0212
v -59.8589 -56.7274 -58.2277
v -55.689 -56.7274 -58.2277
v -55.689 -56.7274 -37.0212
v -55.689 -56.7274 -37.0212
v -55.689 -56.7274 -58.2277
v -55.689 -35.521 -58.2277
v -55.689 -35.521 -37.0212
v -59.8589 -56.7274 -58.2277
v -59.8589 -35.521 -58.2277
v -55.689 -35.521 -58.2277
v -55.689 -56.7274 -58.2277
v -59.8589 35.3585 56.8145
v -59.8589 -56.7274 -37.0212
v -55.689 -56.7274 -37.0212
v -55.689 35.3585 56.8145
v -59.8589 56.565 35.6081
v -59.8589 56.565 56.8146
v -55.689 56.565 56.8146
v -55.689 56.565 35.6081
v -59.8589 56.565 56.8146
v -59.8589 35.3585 56.8145
v -55.689 35.3585 56.8145
v -55.689 56.565 56.8146
v -59.8589 -35.521 -58.2277
v -59.8589 56.565 35.6081
v -55.689 56.565 35.6081
v -55.689 -35.521 -58.2277
v -59.8589 -35.521 -37.0212
v -59.8589 -56.7274 -37.0212
v -59.8589 35.3585 56.8145
v -59.8589 56.565 56.8146
v -59.8589 -35.521 -58.2277
v -59.8589 -35.521 -37.0212
v -59.8589 56.565 56.8146
v -59.8589 56.565 35.6081
v -55.689 -35.521 -37.0212
v -55.689 -35.521 -58.2277
v -55.689 56.565 35.6081
v -55.689 56.565 56.8146
v 57.4544 -35.521 34.7572
v 57.4544 -35.521 55.9636
v 57.4544 58.3149 -36.1223
v 57.4544 58.3149 -57.3288
v 61.6243 -56.7274 55.9636
v 61.6243 -56.7274 34.7572
v 61.6243 -35.521 34.7572
v 61.6243 -35.521 55.9636
v 57.4544 -35.521 55.9636
v 57.4544 -56.7274 55.9636
v 61.6243 -56.7274 55.9636
v 61.6243 -35.521 55.9636
v 57.4544 -56.7274 34.7572
v 57.4544 -56.7274 55.9636
v 57.4544 -35.521 55.9636
v 57.4544 -35.521 34.7572
v 57.4544 -56.7274 55.9636
v 57.4544 -56.7274 34.7572
v 61.6243 -56.7274 34.7572
v 61.6243 -56.7274 55.9636
v 57.4544 58.3149 -36.1223
v 57.4544 -35.521 55.9636
v 61.6243 -35.521 55.9636
v 61.6243 58.3149 -36.1223
v 57.4544 37.1084 -57.3288
v 57.4544 58.3149 -57.3288
v 61.6243 58.3149 -57.3288
v 61.6243 37.1084 -57.3288
v 57.4544 58.3149 -57.3288
v 57.4544 58.3149 -36.1223
v 61.6243 58.3149 -36.1223
v 61.6243 58.3149 -57.3288
v 57.4544 -56.7274 34.7572
v 57.4544 37.1084 -57.3288
v 61.6243 37.1084 -57.3288
v 61.6243 -56.7274 34.7572
v 61.6243 -35.521 55.9636
v 61.6243 -35.521 34.7572
v 61.6243 58.3149 -57.3288
v 61.6243 58.3149 -36.1223
v 61.6243 -35.521 34.7572
v 61.6243 -56.7274 34.7572
v 61.6243 37.1084 -57.3288
v 61.6243 58.3149 -57.3288
v 57.4544 -56.7274 34.7572
v 57.4544 -35.521 34.7572
v 57.4544 58.3149 -57.3288
v 57.4544 37.1084 -57.3288
v -57.4544 -35.521 55.9636
v -57.4544 -35.521 34.7572
v -57.4544 58.3149 -57.3288
v -57.4544 58.3149 -36.1223
v -61.6243 -56.7274 34.7572
v -61.6243 -56.7274 55.9636
v -61.6243 -35.521 55.9636
v -61.6243 -35.521 34.7572
v -61.6243 -35.521 55.9636
v -61.6243 -56.7274 55.9636
v -57.4544 -56.7274 55.9636
v -57.4544 -35.521 55.9636
v -57.4544 -56.7274 55.9636
v -57.4544 -56.7274 34.7572
v -57.4544 -35.521 34.7572
v -57.4544 -35.521 55.9636
v -61.6243 -56.7274 55.9636
v -61.6243 -56.7274 34.7572
v -57.4544 -56.7274 34.7572
v -57.4544 -56.7274 55.9636
v -61.6243 58.3149 -36.1223
v -61.6243 -35.521 55.9636
v -57.4544 -35.521 55.9636
v -57.4544 58.3149 -36.1223
v -61.6243 37.1084 -57.3288
v -61.6243 58.3149 -57.3288
v -57.4544 58.3149 -57.3288
v -57.4544 37.1084 -57.3288
v -61.6243 58.3149 -57.3288
v -61.6243 58.3149 -36.1223
v -57.4544 58.3149 -36.1223
v -57.4544 58.3149 -57.3288
v -61.6243 -56.7274 34.7572
v -61.6243 37.1084 -57.3288
v -57.4544 37.1084 -57.3288
v -57.4544 -56.7274 34.7572
v -61.6243 -35.521 34.7572
v -61.6243 -35.521 55.9636
v -61.6243 58.3149 -36.1223
v -61.6243 58.3149 -57.3288
v -61.6243 -56.7274 34.7572
v -61.6243 -35.521 34.7572
v -61.6243 58.3149 -57.3288
v -61.6243 37.1084 -57.3288
v -57.4544 -35.521 34.7572
v -57.4544 -56.7274 34.7572
v -57.4544 37.1084 -57.3288
v -57.4544 58.3149 -57.3288
v -58.19 35.3585 55.5941
v -58.19 56.565 55.5941
v 35.6458 -35.521 55.5941
v 35.6458 -56.7274 55.5941
v 35.6458 -35.521 59.764
v 35.6458 -56.7274 59.764
v 56.8523 -56.7274 59.764
v 56.8523 -35.521 59.764
v 35.6458 -56.7274 59.764
v 35.6458 -56.7274 55.5941
v 56.8523 -56.7274 55.5941
v 56.8523 -56.7274 59.764
v 35.6458 -56.7274 55.5941
v 35.6458 -35.521 55.5941
v 56.8523 -35.521 55.5941
v 56.8523 -56.7274 55.5941
v 56.8523 -56.7274 59.764
v 56.8523 -56.7274 55.5941
v 56.8523 -35.521 55.5941
v 56.8523 -35.521 59.764
v -58.19 35.3585 59.764
v -58.19 35.3585 55.5941
v 35.6458 -56.7274 55.5941
v 35.6458 -56.7274 59.764
v -58.19 56.565 55.5941
v -58.19 56.565 59.764
v -36.9836 56.565 59.764
v -36.9836 56.565 55.5941
v -58.19 35.3585 55.5941
v -58.19 35.3585 59.764
v -58.19 56.565 59.764
v -58.19 56.565 55.5941
v -36.9836 56.565 55.5941
v -36.9836 56.565 59.764
v 56.8523 -35.521 59.764
v 56.8523 -35.521 55.5941
v -58.19 56.565 59.764
v -58.19 35.3585 59.764
v 35.6458 -56.7274 59.764
v 35.6458 -35.521 59.764
v -36.9836 56.565 59.764
v -58.19 56.565 59.764
v 35.6458 -35.521 59.764
v 56.8523 -35.521 59.764
v -58.19 56.565 55.5941
v -36.9836 56.565 55.5941
v 56.8523 -35.521 55.5941
v 35.6458 -35.521 55.5941
v -58.19 56.565 -55.7839
v -58.19 35.3585 -55.7839
v 35.6458 -56.7274 -55.784
v 35.6458 -35.521 -55.784
v 35.6458 -56.7274 -59.9539
v 35.6458 -35.521 -59.9539
v 56.8523 -35.521 -59.9539
v 56.8523 -56.7274 -59.9539
v 35.6458 -56.7274 -55.784
v 35.6458 -56.7274 -59.9539
v 56.8523 -56.7274 -59.9539
v 56.8523 -56.7274 -55.784
v 35.6458 -35.521 -55.784
v 35.6458 -56.7274 -55.784
v 56.8523 -56.7274 -55.784
v 56.8523 -35.521 -55.784
v 56.8523 -56.7274 -55.784
v 56.8523 -56.7274 -59.9539
v 56.8523 -35.521 -59.9539
v 56.8523 -35.521 -55.784
v -58.19 35.3585 -55.7839
v -58.19 35.3585 -59.9538
v 35.6458 -56.7274 -59.9539
v 35.6458 -56.7274 -55.784
v -58.19 56.565 -59.9538
v -58.19 56.565 -55.7839
v -36.9836 56.565 -55.7839
v -36.9836 56.565 -59.9538
v -58.19 35.3585 -59.9538
v -58.19 35.3585 -55.7839
v -58.19 56.565 -55.7839
v -58.19 56.565 -59.9538
v -36.9836 56.565 -59.9538
v -36.9836 56.565 -55.7839
v 56.8523 -35.521 -55.784
v 56.8523 -35.521 -59.9539
v -58.19 35.3585 -59.9538
v -58.19 56.565 -59.9538
v 35.6458 -35.521 -59.9539
v 35.6458 -56.7274 -59.9539
v -58.19 56.565 -59.9538
v -36.9836 56.565 -59.9538
v 56.8523 -35.521 -59.9539
v 35.6458 -35.521 -59.9539
v -36.9836 56.565 -55.7839
v -58.19 56.565 -55.7839
v 35.6458 -35.521 -55.784
v 56.8523 -35.521 -55.784
v -36.1326 -35.521 57.3595
v -57.3391 -35.521 57.3595
v 34.7469 58.3149 57.3594
v 55.9533 58.3149 57.3594
v -57.3391 -35.521 61.5293
v -57.339 -56.7274 61.5293
v -36.1326 -56.7274 61.5293
v -36.1326 -35.521 61.5293
v -57.3391 -35.521 61.5293
v -57.3391 -35.521 57.3595
v -57.339 -56.7274 57.3595
v -57.339 -56.7274 61.5293
v -57.339 -56.7274 57.3595
v -57.3391 -35.521 57.3595
v -36.1326 -35.521 57.3595
v -36.1326 -56.7274 57.3595
v -57.339 -56.7274 61.5293
v -57.339 -56.7274 57.3595
v -36.1326 -56.7274 57.3595
v -36.1326 -56.7274 61.5293
v -57.3391 -35.521 57.3595
v -57.3391 -35.521 61.5293
v 34.7469 58.3149 61.5293
v 34.7469 58.3149 57.3594
v 55.9533 37.1084 61.5293
v 55.9533 37.1084 57.3594
v 55.9533 58.3149 57.3594
v 55.9533 58.3149 61.5293
v 34.7469 58.3149 57.3594
v 34.7469 58.3149 61.5293
v 55.9533 58.3149 61.5293
v 55.9533 58.3149 57.3594
v -36.1326 -56.7274 61.5293
v -36.1326 -56.7274 57.3595
v 55.9533 37.1084 57.3594
v 55.9533 37.1084 61.5293
v -57.3391 -35.521 61.5293
v -36.1326 -35.521 61.5293
v 55.9533 58.3149 61.5293
v 34.7469 58.3149 61.5293
v -36.1326 -35.521 61.5293
v -36.1326 -56.7274 61.5293
v 55.9533 37.1084 61.5293
v 55.9533 58.3149 61.5293
v -36.1326 -56.7274 57.3595
v -36.1326 -35.521 57.3595
v 55.9533 58.3149 57.3594
v 55.9533 37.1084 57.3594
v -57.3391 -35.521 -57.5493
v -36.1326 -35.521 -57.5493
v 55.9533 58.3149 -57.5493
v 34.7469 58.3149 -57.5493
v -57.3391 -56.7274 -61.7192
v -57.3391 -35.521 -61.7192
v -36.1326 -35.521 -61.7192
v -36.1326 -56.7274 -61.7192
v -57.3391 -56.7274 -61.7192
v -57.3391 -56.7274 -57.5493
v -57.3391 -35.521 -57.5493
v -57.3391 -35.521 -61.7192
v -57.3391 -35.521 -57.5493
v -57.3391 -56.7274 -57.5493
v -36.1326 -56.7274 -57.5493
v -36.1326 -35.521 -57.5493
v -57.3391 -56.7274 -57.5493
v -57.3391 -56.7274 -61.7192
v -36.1326 -56.7274 -61.7192
v -36.1326 -56.7274 -57.5493
v -57.3391 -35.521 -61.7192
v -57.3391 -35.521 -57.5493
v 34.7469 58.3149 -57.5493
v 34.7469 58.3149 -61.7192
v 55.9533 37.1084 -57.5493
v 55.9533 37.1084 -61.7192
v 55.9533 58.3149 -61.7192
v 55.9533 58.3149 -57.5493
v 34.7469 58.3149 -61.7192
v 34.7469 58.3149 -57.5493
v 55.9533 58.3149 -57.5493
v 55.9533 58.3149 -61.7192
v -36.1326 -56.7274 -57.5493
v -36.1326 -56.7274 -61.7192
v 55.9533 37.1084 -61.7192
v 55.9533 37.1084 -57.5493
v -36.1326 -35.521 -61.7192
v -57.3391 -35.521 -61.7192
v 34.7469 58.3149 -61.7192
v 55.9533 58.3149 -61.7192
v -36.1326 -56.7274 -61.7192
v -36.1326 -35.521 -61.7192
v 55.9533 58.3149 -61.7192
v 55.9533 37.1084 -61.7192
v -36.1326 -35.521 -57.5493
v -36.1326 -56.7274 -57.5493
v 55.9533 37.1084 -57.5493
v 55.9533 58.3149 -57.5493
vt 0.192201 0.980264
vt 0.190671 0.982632
vt 0.193425 0.982632
vt 0.201262 0.852655
vt 0.203911 0.852655
vt 0.202588 0.850193
vt 0.19769 0.907973
vt 0.196448 0.910423
vt 0.19911 0.910423
vt 0.195485 0.923902
vt 0.198181 0.923902
vt 0.196686 0.921483
vt 0.011499 0.816068
vt 0.009953 0.813736
vt 0.008702 0.816068
vt 0.01 0.820494
vt 0.008702 0.822808
vt 0.011521 0.822808
vt 0.199123 0.917162
vt 0.197673 0.914724
vt 0.196448 0.917162
vt 0.198656 0.901231
vt 0.197411 0.903683
vt 0.200071 0.903683
vt 0.220839 0.323672
vt 0.244374 0.296064
vt 0.024535 0.296064
vt 0.001 0.323672
vt 0.469987 0.558246
vt 0.440734 0.53719
vt 0.416506 0.566639
vt 0.445758 0.587695
vt 0.533428 0.794887
vt 0.56863 0.794887
vt 0.56863 0.787225
vt 0.533428 0.787225
vt 0.493174 0.808744
vt 0.522427 0.787689
vt 0.498199 0.758239
vt 0.468947 0.779295
vt 0.077603 0.353925
vt 0.077603 0.346264
vt 0.0424 0.346264
vt 0.0424 0.353925
vt 0.958042 0.880392
vt 0.967531 0.880392
vt 0.967531 0.704192
vt 0.958042 0.704192
vt 0.540167 0.334669
vt 0.57537 0.334669
vt 0.57537 0.327008
vt 0.540167 0.327008
vt 0.929138 0.948013
vt 0.929138 0.955674
vt 0.96434 0.955674
vt 0.96434 0.948013
vt 0.827756 0.156305
vt 0.834472 0.16302
vt 0.958965 0.038527
vt 0.952249 0.031811
vt 0.001 0.266479
vt 0.024523 0.294092
vt 0.244318 0.294093
vt 0.220794 0.26648
vt 0.440734 0.787688
vt 0.469986 0.808744
vt 0.522427 0.537191
vt 0.493175 0.558247
vt 0.79204 0.740591
vt 0.819658 0.71708
vt 0.819658 0.497331
vt 0.79204 0.520842
vt 0.556386 0.763617
vt 0.585639 0.742564
vt 0.56141 0.713113
vt 0.532158 0.734167
vt 0.320649 0.9576
vt 0.355852 0.9576
vt 0.355852 0.949938
vt 0.320649 0.949938
vt 0.446396 0.447011
vt 0.470329 0.417276
vt 0.444024 0.392648
vt 0.420091 0.422382
vt 0.367405 0.946046
vt 0.367405 0.938385
vt 0.332203 0.938385
vt 0.332203 0.946046
vt 0.650376 0.332245
vt 0.644973 0.326843
vt 0.490222 0.481594
vt 0.495625 0.486996
vt 0.45502 0.137336
vt 0.419817 0.137336
vt 0.419817 0.144998
vt 0.45502 0.144998
vt 0.570977 0.070903
vt 0.570977 0.078565
vt 0.606179 0.078565
vt 0.606179 0.070903
vt 0.516186 0.403334
vt 0.509485 0.396632
vt 0.384731 0.521386
vt 0.391432 0.528087
vt 0.701167 0.520085
vt 0.728777 0.543614
vt 0.728777 0.323797
vt 0.701167 0.300269
vt 0.585639 0.492072
vt 0.556386 0.513125
vt 0.223895 0.417276
vt 0.199962 0.447011
vt 0.024513 0.191721
vt 0.001 0.219339
vt 0.220755 0.219339
vt 0.244268 0.191721
vt 0.92328 0.132557
vt 0.92328 0.171
vt 0.958959 0.169252
vt 0.958959 0.130809
vt 0.963798 0.444469
vt 0.963798 0.452131
vt 0.999 0.452131
vt 0.999 0.444469
vt 0.921721 0.079714
vt 0.894538 0.106897
vt 0.918531 0.133362
vt 0.945714 0.106179
vt 0.998999 0.386701
vt 0.963798 0.386701
vt 0.963798 0.394363
vt 0.998999 0.394363
vt 0.221309 0.083043
vt 0.221309 0.090703
vt 0.439593 0.090703
vt 0.439593 0.083043
vt 0.002926 0.346264
vt 0.002926 0.353925
vt 0.038128 0.353925
vt 0.038128 0.346264
vt 0.767388 0.151738
vt 0.80259 0.151738
vt 0.80259 0.144076
vt 0.767387 0.144076
vt 0.917123 0.574171
vt 0.909462 0.574171
vt 0.909462 0.792411
vt 0.917123 0.792411
vt 0.823764 0.453869
vt 0.851387 0.430366
vt 0.851387 0.210651
vt 0.823764 0.234154
vt 0.731399 0.567937
vt 0.704302 0.543891
vt 0.704302 0.763691
vt 0.731399 0.787737
vt 0.245062 0.385793
vt 0.220972 0.358717
vt 0.001 0.358717
vt 0.025091 0.385793
vt 0.730749 0.563638
vt 0.758363 0.540118
vt 0.758363 0.320336
vt 0.730749 0.343856
vt 0.500552 0.756731
vt 0.52478 0.78618
vt 0.554033 0.765125
vt 0.529804 0.735675
vt 0.963798 0.432915
vt 0.963798 0.440577
vt 0.999 0.440577
vt 0.999 0.432915
vt 0.413399 0.808744
vt 0.437626 0.779295
vt 0.408374 0.758239
vt 0.384146 0.787688
vt 0.963798 0.382809
vt 0.998999 0.382809
vt 0.998999 0.375147
vt 0.963798 0.375147
vt 0.899832 0.973323
vt 0.909187 0.973323
vt 0.909187 0.794582
vt 0.899832 0.794582
vt 0.963798 0.363594
vt 0.963798 0.371255
vt 0.998999 0.371255
vt 0.998999 0.363594
vt 0.998999 0.398255
vt 0.963798 0.398255
vt 0.963798 0.405916
vt 0.998999 0.405916
vt 0.001 0.106742
vt 0.001 0.116055
vt 0.180549 0.116055
vt 0.180549 0.106742
vt 0.787264 0.975487
vt 0.814882 0.999
vt 0.814882 0.779245
vt 0.787264 0.755733
vt 0.554033 0.514628
vt 0.52478 0.535684
vt 0.413398 0.558245
vt 0.384146 0.537188
vt 0.352864 0.036147
vt 0.352864 0.049814
vt 0.526797 0.049814
vt 0.526797 0.036147
vt 0.705023 0.051784
vt 0.705023 0.065444
vt 0.879043 0.065444
vt 0.879043 0.051784
vt 0.915068 0.347887
vt 0.928721 0.347887
vt 0.928721 0.17378
vt 0.915068 0.17378
vt 0.95607 0.701873
vt 0.942409 0.701873
vt 0.942409 0.875879
vt 0.95607 0.875879
vt 0.944351 0.347887
vt 0.944351 0.173839
vt 0.930693 0.173839
vt 0.930693 0.347887
vt 0.177011 0.065445
vt 0.351046 0.065445
vt 0.351046 0.051787
vt 0.177011 0.051787
vt 0.888236 0.807018
vt 0.868982 0.790002
vt 0.868982 0.999
vt 0.888236 0.981155
vt 0.847758 0.981154
vt 0.86701 0.999
vt 0.86701 0.789979
vt 0.847758 0.806998
vt 0.001 0.139251
vt 0.01802 0.158503
vt 0.192184 0.158503
vt 0.210031 0.139251
vt 0.782053 0.999
vt 0.782053 0.789924
vt 0.762806 0.807772
vt 0.762806 0.981974
vt 0.578061 0.11193
vt 0.595076 0.092675
vt 0.386088 0.092675
vt 0.403933 0.11193
vt 0.253708 0.999
vt 0.3769 0.875808
vt 0.375913 0.849578
vt 0.228058 0.997433
vt 0.339497 0.827767
vt 0.313847 0.826201
vt 0.190649 0.949399
vt 0.191636 0.975629
vt 0.614062 0.11193
vt 0.788185 0.11193
vt 0.806029 0.092674
vt 0.597048 0.092674
vt 0.853359 0.353396
vt 0.872612 0.370415
vt 0.872612 0.161398
vt 0.853359 0.179245
vt 0.874328 0.372612
vt 0.874328 0.546745
vt 0.893583 0.56459
vt 0.893583 0.355597
vt 0.746121 0.135128
vt 0.571963 0.135128
vt 0.554116 0.15438
vt 0.76314 0.15438
vt 0.703138 0.298297
vt 0.72937 0.299289
vt 0.852529 0.176131
vt 0.850953 0.150482
vt 0.808858 0.113902
vt 0.599855 0.113902
vt 0.617701 0.133156
vt 0.791842 0.133156
vt 0.184375 0.104625
vt 0.20222 0.12388
vt 0.376348 0.12388
vt 0.393363 0.104625
vt 0.563517 0.168619
vt 0.54567 0.149368
vt 0.371496 0.149368
vt 0.354474 0.168619
vt 0.874583 0.368671
vt 0.893839 0.351657
vt 0.893839 0.177528
vt 0.874583 0.159683
vt 0.198588 0.442387
vt 0.215616 0.423141
vt 0.006522 0.423141
vt 0.024371 0.442387
vt 0.20628 0.147396
vt 0.4153 0.147396
vt 0.398281 0.128144
vt 0.224127 0.128144
vt 0.790722 0.175602
vt 0.80857 0.156352
vt 0.599526 0.156352
vt 0.616548 0.175602
vt 0.853103 0.606718
vt 0.872356 0.624564
vt 0.872356 0.415545
vt 0.853103 0.432564
vt 0.018846 0.118026
vt 0.001 0.13728
vt 0.210014 0.13728
vt 0.192996 0.118027
vt 0.874328 0.791012
vt 0.893583 0.773167
vt 0.893583 0.599037
vt 0.874328 0.582022
vt 0.38888 0.113902
vt 0.406725 0.133156
vt 0.580867 0.133156
vt 0.597883 0.113902
vt 0.001 0.627485
vt 0.183914 0.627485
vt 0.198043 0.444359
vt 0.015129 0.444358
vt 0.19748 0.81433
vt 0.182185 0.629456
vt 0.001 0.629456
vt 0.016295 0.81433
vt 0.1997 0.816302
vt 0.016358 0.816302
vt 0.001 0.999
vt 0.184342 0.999
vt 0.385222 0.810716
vt 0.374197 0.999
vt 0.5521 0.999
vt 0.563125 0.810716
vt 0.199452 0.629041
vt 0.199452 0.812358
vt 0.382174 0.827113
vt 0.382174 0.643795
vt 0.374902 0.627069
vt 0.3879 0.448982
vt 0.19981 0.448982
vt 0.186812 0.627069
vt 0.176932 0.049815
vt 0.350892 0.049815
vt 0.350892 0.03615
vt 0.176932 0.03615
vt 0.351169 0.067417
vt 0.17707 0.067417
vt 0.17707 0.081071
vt 0.351169 0.081071
vt 0.919095 0.702006
vt 0.932749 0.702006
vt 0.932749 0.52791
vt 0.919095 0.52791
vt 0.527051 0.065445
vt 0.527051 0.051786
vt 0.353017 0.051786
vt 0.353018 0.065445
vt 0.92481 0.794382
vt 0.911159 0.794382
vt 0.911159 0.968511
vt 0.92481 0.968511
vt 0.946064 0.523864
vt 0.959725 0.523864
vt 0.959725 0.349858
vt 0.946064 0.349858
vt 0.175099 0.069741
vt 0.001 0.069741
vt 0.001 0.083394
vt 0.175099 0.083394
vt 0.948382 0.525894
vt 0.934721 0.525894
vt 0.934721 0.699901
vt 0.948382 0.699901
vt 0.928464 0.35183
vt 0.914811 0.35183
vt 0.914811 0.525939
vt 0.928464 0.525939
vt 0.946323 0.345915
vt 0.959986 0.345915
vt 0.959986 0.171939
vt 0.946323 0.171939
vt 0.83789 0.08107
vt 0.83789 0.067416
vt 0.663793 0.067416
vt 0.663793 0.08107
vt 0.702702 0.049813
vt 0.702702 0.036146
vt 0.528769 0.036146
vt 0.528769 0.049813
vt 0.17496 0.038474
vt 0.001 0.038474
vt 0.001 0.052139
vt 0.17496 0.052139
vt 0.940437 0.703977
vt 0.926782 0.703977
vt 0.926782 0.878056
vt 0.940437 0.878056
vt 0.17504 0.054111
vt 0.001 0.054111
vt 0.001 0.067769
vt 0.17504 0.067769
vt 0.52724 0.067416
vt 0.353141 0.067416
vt 0.353141 0.08107
vt 0.527239 0.08107
vt 0.703051 0.065444
vt 0.703051 0.051785
vt 0.529023 0.051785
vt 0.529023 0.065444
vt 0.930435 0.523922
vt 0.944092 0.523922
vt 0.944092 0.349858
vt 0.930435 0.349859
vt 0.778603 0.182083
vt 0.671682 0.289005
vt 0.674501 0.291824
vt 0.781422 0.184902
vt 0.254082 0.447011
vt 0.410128 0.44701
vt 0.410128 0.443148
vt 0.254082 0.443148
vt 0.724276 0.788569
vt 0.724276 0.944453
vt 0.728143 0.944453
vt 0.728143 0.788569
vt 0.744589 0.595614
vt 0.744589 0.751486
vt 0.748456 0.751486
vt 0.748456 0.595614
vt 0.415055 0.285993
vt 0.415055 0.282126
vt 0.259147 0.282127
vt 0.259147 0.285993
vt 0.467071 0.570852
vt 0.46321 0.570852
vt 0.46321 0.726953
vt 0.467071 0.726953
vt 0.388001 0.778634
vt 0.388001 0.622258
vt 0.384146 0.622258
vt 0.384146 0.778634
vt 0.004739 0.92909
vt 0.004739 0.767886
vt 0.001 0.767887
vt 0.001 0.92909
vt 0.194141 0.941964
vt 0.308129 0.827976
vt 0.305485 0.825332
vt 0.191497 0.93932
vt 0.403246 0.391155
vt 0.247214 0.391154
vt 0.247214 0.395018
vt 0.403246 0.395018
vt 0.373937 0.888152
vt 0.371218 0.885433
vt 0.26037 0.996281
vt 0.263089 0.999
vt 0.686033 0.984755
vt 0.689897 0.984755
vt 0.689897 0.828743
vt 0.686033 0.828743
vt 0.684681 0.312811
vt 0.8325 0.164992
vt 0.806268 0.164
vt 0.683106 0.287162
vt 0.762229 0.516835
vt 0.790068 0.540087
vt 0.787971 0.320327
vt 0.760132 0.297074
vt 0.615771 0.661229
vt 0.615771 0.698652
vt 0.652423 0.701646
vt 0.652423 0.664223
vt 0.5927 0.303901
vt 0.557497 0.303901
vt 0.557498 0.311562
vt 0.5927 0.311562
vt 0.235034 0.891839
vt 0.235034 0.854417
vt 0.198382 0.857411
vt 0.198382 0.894833
vt 0.038128 0.223988
vt 0.002926 0.223988
vt 0.002926 0.23165
vt 0.038128 0.23165
vt 0.903209 0.572294
vt 0.903209 0.353855
vt 0.895554 0.353855
vt 0.895554 0.572294
vt 0.51706 0.80644
vt 0.552263 0.80644
vt 0.552263 0.798779
vt 0.51706 0.798779
vt 0.391896 0.45887
vt 0.427099 0.45887
vt 0.427099 0.451209
vt 0.391896 0.451209
vt 0.219338 0.085366
vt 0.001 0.085367
vt 0.001 0.093025
vt 0.219338 0.093024
vt 0.731378 0.999
vt 0.759216 0.975745
vt 0.761309 0.755976
vt 0.733471 0.779231
vt 0.327477 0.356642
vt 0.301849 0.382269
vt 0.521453 0.395076
vt 0.54708 0.369449
vt 0.61818 0.659293
vt 0.643807 0.633667
vt 0.630992 0.414069
vt 0.605365 0.439696
vt 0.684584 0.268862
vt 0.661329 0.241025
vt 0.441559 0.238932
vt 0.464814 0.266769
vt 0.962198 0.999
vt 0.962198 0.960272
vt 0.926782 0.960272
vt 0.926782 0.999
vt 0.278828 0.367445
vt 0.243625 0.367445
vt 0.243625 0.375107
vt 0.278828 0.375107
vt 0.341107 0.962348
vt 0.303685 0.962348
vt 0.300691 0.999
vt 0.338113 0.999
vt 0.281716 0.197993
vt 0.246514 0.197993
vt 0.246514 0.205654
vt 0.281716 0.205654
vt 0.912839 0.572199
vt 0.912839 0.353855
vt 0.905181 0.353855
vt 0.905181 0.572199
vt 0.842486 0.078565
vt 0.877688 0.078565
vt 0.877688 0.070903
vt 0.842486 0.070903
vt 0.300972 0.151778
vt 0.26577 0.151779
vt 0.26577 0.15944
vt 0.300972 0.15944
vt 0.90749 0.79261
vt 0.90749 0.574265
vt 0.899832 0.574265
vt 0.899832 0.79261
vt 0.460674 0.236112
vt 0.483924 0.208272
vt 0.264172 0.210372
vt 0.240922 0.238212
vt 0.645817 0.631669
vt 0.671442 0.606043
vt 0.658589 0.386472
vt 0.632964 0.412097
vt 0.635984 0.973374
vt 0.66161 0.999
vt 0.674449 0.779418
vt 0.648823 0.753792
vt 0.455091 0.206557
vt 0.480737 0.18091
vt 0.261716 0.163284
vt 0.236069 0.188931
vt 0.228772 0.845455
vt 0.256806 0.869255
vt 0.283268 0.842793
vt 0.255234 0.818994
vt 0.645653 0.070903
vt 0.610451 0.070903
vt 0.610451 0.078565
vt 0.645654 0.078565
vt 0.6534 0.703858
vt 0.616748 0.700864
vt 0.616748 0.738286
vt 0.6534 0.74128
vt 0.349112 0.15563
vt 0.313909 0.15563
vt 0.313909 0.163291
vt 0.349112 0.163291
vt 0.913096 0.349859
vt 0.913096 0.131514
vt 0.905438 0.131514
vt 0.905439 0.349859
vt 0.825155 0.036202
vt 0.860357 0.036202
vt 0.860357 0.02854
vt 0.825155 0.02854
vt 0.820883 0.02854
vt 0.785681 0.02854
vt 0.785681 0.036202
vt 0.820883 0.036202
vt 0.659849 0.083042
vt 0.441565 0.083042
vt 0.441565 0.090702
vt 0.659849 0.090702
vt 0.214154 0.255896
vt 0.239804 0.281545
vt 0.458894 0.264014
vt 0.433244 0.238365
vt 0.624769 0.415137
vt 0.621665 0.379027
vt 0.470457 0.538808
vt 0.473561 0.574918
vt 0.668939 0.769965
vt 0.696673 0.746638
vt 0.702749 0.526775
vt 0.675015 0.550102
vt 0.764896 0.774158
vt 0.790544 0.748509
vt 0.772987 0.529439
vt 0.747338 0.555087
vt 0.704674 0.038361
vt 0.741709 0.038361
vt 0.741709 0.00132602
vt 0.704674 0.00132602
vt 0.781408 0.02854
vt 0.746206 0.02854
vt 0.746206 0.036202
vt 0.781408 0.036202
vt 0.582913 0.327802
vt 0.609375 0.354264
vt 0.637409 0.330464
vt 0.610947 0.304002
vt 0.998038 0.147927
vt 0.962836 0.147927
vt 0.962836 0.155589
vt 0.998038 0.155589
vt 0.881058 0.040333
vt 0.704674 0.040333
vt 0.704674 0.049812
vt 0.881058 0.049812
vt 0.929138 0.94412
vt 0.96434 0.94412
vt 0.96434 0.936459
vt 0.929138 0.936459
vt 0.998038 0.159481
vt 0.962836 0.159481
vt 0.962836 0.167142
vt 0.998038 0.167142
vt 0.967521 0.70222
vt 0.967521 0.525836
vt 0.958042 0.525836
vt 0.958042 0.70222
vt 0.527789 0.17059
vt 0.502142 0.196237
vt 0.721166 0.21386
vt 0.746812 0.188214
vt 0.678848 0.301869
vt 0.655564 0.274113
vt 0.435843 0.267988
vt 0.459127 0.295744
vt 0.696015 0.97571
vt 0.723768 0.999
vt 0.71765 0.779258
vt 0.689897 0.755967
vt 0.024238 0.16211
vt 0.001 0.189956
vt 0.220714 0.187842
vt 0.243952 0.159996
vt 0.997964 0.099148
vt 0.96093 0.099139
vt 0.96093 0.136176
vt 0.997964 0.136185
vt 0.494494 0.144998
vt 0.494494 0.137337
vt 0.459292 0.137336
vt 0.459292 0.144998
vt 0.99797 0.023844
vt 0.960936 0.023847
vt 0.960936 0.060884
vt 0.99797 0.060881
vt 0.870948 0.10456
vt 0.870948 0.096899
vt 0.835746 0.096899
vt 0.835746 0.10456
vt 0.676421 0.986148
vt 0.684061 0.986148
vt 0.684061 0.767303
vt 0.676421 0.767303
vt 0.382268 0.43099
vt 0.382268 0.438651
vt 0.417471 0.438651
vt 0.417471 0.43099
vt 0.391896 0.462762
vt 0.391896 0.470424
vt 0.427099 0.470424
vt 0.427099 0.462762
vt 0.720507 0.312097
vt 0.727276 0.318866
vt 0.850773 0.19537
vt 0.844003 0.1886
vt 0.846815 0.69808
vt 0.818968 0.721318
vt 0.816854 0.941031
vt 0.844701 0.917793
vt 0.567423 0.973278
vt 0.593145 0.999
vt 0.603228 0.77753
vt 0.577506 0.751808
vt 0.372319 0.835265
vt 0.335943 0.835265
vt 0.18648 0.999
vt 0.222856 0.999
vt 0.821792 0.273968
vt 0.793947 0.297209
vt 0.791837 0.516934
vt 0.819682 0.493693
vt 0.926782 0.882364
vt 0.926782 0.921092
vt 0.962198 0.921092
vt 0.962198 0.882364
vt 0.963798 0.490683
vt 0.963798 0.498345
vt 0.999 0.498345
vt 0.999 0.490683
vt 0.587632 0.37611
vt 0.590626 0.339458
vt 0.553203 0.339458
vt 0.550209 0.37611
vt 0.963798 0.467576
vt 0.963798 0.475238
vt 0.999 0.475238
vt 0.999 0.467576
vt 0.880087 0.090702
vt 0.880087 0.083041
vt 0.661821 0.083041
vt 0.661821 0.090702
vt 0.999 0.521452
vt 0.999 0.51379
vt 0.963798 0.51379
vt 0.963798 0.521452
vt 0.963798 0.456023
vt 0.963798 0.463684
vt 0.999 0.463684
vt 0.999 0.456023
vt 0.89581 0.351883
vt 0.903467 0.351883
vt 0.903467 0.133486
vt 0.895811 0.133486
vt 0.849884 0.479078
vt 0.822036 0.45584
vt 0.824152 0.675551
vt 0.851999 0.698789
vt 0.578635 0.378082
vt 0.54239 0.378082
vt 0.396115 0.542412
vt 0.432359 0.542412
vt 0.606776 0.973373
vt 0.632403 0.999
vt 0.645211 0.779397
vt 0.619584 0.75377
vt 0.334455 0.287964
vt 0.308802 0.313617
vt 0.527971 0.331036
vt 0.553623 0.305383
vt 0.798877 0.129398
vt 0.826887 0.15323
vt 0.853344 0.126773
vt 0.825335 0.10294
vt 0.566704 0.078565
vt 0.566704 0.070903
vt 0.531502 0.070903
vt 0.531502 0.078565
vt 0.303832 0.328831
vt 0.306786 0.292174
vt 0.26937 0.292174
vt 0.266416 0.328831
vt 0.038128 0.342372
vt 0.038128 0.33471
vt 0.002926 0.33471
vt 0.002926 0.342372
vt 0.44861 0.537955
vt 0.454009 0.543354
vt 0.608852 0.388511
vt 0.603453 0.383112
vt 0.250365 0.378999
vt 0.250365 0.38666
vt 0.285567 0.38666
vt 0.285567 0.378999
vt 0.498767 0.137336
vt 0.498767 0.144998
vt 0.533969 0.144998
vt 0.533969 0.137337
vt 0.742617 0.565056
vt 0.733371 0.565056
vt 0.733371 0.745896
vt 0.742617 0.745896
vt 0.681764 0.302897
vt 0.656111 0.32855
vt 0.673542 0.54771
vt 0.699195 0.522057
vt 0.58835 0.758708
vt 0.615818 0.78255
vt 0.610356 0.560975
vt 0.582888 0.537134
vt 0.077519 0.325643
vt 0.100851 0.353375
vt 0.32073 0.359445
vt 0.297398 0.331713
vt 0.245726 0.246959
vt 0.220077 0.22131
vt 0.001 0.238859
vt 0.026649 0.264508
vt 0.923693 0.077742
vt 0.951038 0.105088
vt 0.976117 0.080008
vt 0.948772 0.052663
vt 0.963798 0.421362
vt 0.963798 0.429023
vt 0.999 0.429023
vt 0.999 0.421362
vt 0.921702 0.022948
vt 0.88303 0.022948
vt 0.88303 0.058415
vt 0.921702 0.058415
vt 0.999 0.509898
vt 0.999 0.502237
vt 0.963798 0.502237
vt 0.963798 0.509898
vt 0.890208 0.998601
vt 0.89786 0.998601
vt 0.89786 0.780094
vt 0.890208 0.780094
vt 0.963798 0.47913
vt 0.963798 0.486791
vt 0.999 0.486791
vt 0.999 0.47913
vt 0.963798 0.409808
vt 0.963798 0.41747
vt 0.999 0.41747
vt 0.999 0.409808
vt 0.166063 0.094996
vt 0.166062 0.102653
vt 0.38444 0.102653
vt 0.38444 0.094996
vt 0.693546 0.24148
vt 0.719194 0.215832
vt 0.500139 0.198253
vt 0.474491 0.223901
vt 0.549332 0.360739
vt 0.525999 0.333008
vt 0.306115 0.326939
vt 0.329448 0.35467
vt 0.222619 0.415226
vt 0.246473 0.387765
vt 0.024854 0.393212
vt 0.001 0.420673
vn -0.706843 -0.027329 0.706843
vn -0.706843 -0.027329 0.706843
vn -0.706843 -0.027329 0.706843
vn -0.706846 0.027329 0.70684
vn -0.706846 0.027329 0.70684
vn -0.706846 0.027329 0.70684
vn -0.706846 -0.027329 -0.70684
vn -0.706846 -0.027329 -0.70684
vn -0.706846 -0.027329 -0.70684
vn -0.706846 0.027329 -0.70684
vn -0.706846 0.027329 -0.70684
vn -0.706846 0.027329 -0.70684
vn 0.706843 -0.027329 0.706843
vn 0.706843 -0.027329 0.706843
vn 0.706843 -0.027329 0.706843
vn 0.706846 0.027329 0.70684
vn 0.706846 0.027329 0.70684
vn 0.706846 0.027329 0.70684
vn 0.706846 -0.027329 -0.70684
vn 0.706846 -0.027329 -0.70684
vn 0.706846 -0.027329 -0.70684
vn 0.706846 0.027329 -0.70684
vn 0.706846 0.027329 -0.70684
vn 0.706846 0.027329 -0.70684
vn -0 1 -3e-06
vn -0 1 -3e-06
vn -0 1 -3e-06
vn -0 1 -3e-06
vn 0 -1 0
vn 0 -1 0
vn 0 -1 0
vn 0 -1 0
vn -1 -0 0
vn -1 -0 0
vn -1 -0 0
vn -1 -0 0
vn -0 1 -0
vn -0 1 -0
vn -0 1 -0
vn -0 1 -0
vn -0 -0 -1
vn -0 -0 -1
vn -0 -0 -1
vn -0 -0 -1
vn -0.713731 -0 0.70042
vn -0.713731 -0 0.70042
vn -0.713731 -0 0.70042
vn -0.713731 -0 0.70042
vn 1 0 -0
vn 1 0 -0
vn 1 0 -0
vn 1 0 -0
vn 0 0 1
vn 0 0 1
vn 0 0 1
vn 0 0 1
vn 0.713731 0 -0.70042
vn 0.713731 0 -0.70042
vn 0.713731 0 -0.70042
vn 0.713731 0 -0.70042
vn 0 -1 -1e-06
vn 0 -1 -1e-06
vn 0 -1 -1e-06
vn 0 -1 -1e-06
vn 0 -1 0
vn 0 -1 0
vn -0 1 -0
vn -0 1 -0
vn 0 -1 -4e-06
vn 0 -1 -4e-06
vn 0 -1 -4e-06
vn 0 -1 -4e-06
vn -0 1 -0
vn -0 1 -0
vn -0 1 -0
vn -0 1 -0
vn -1 -0 0
vn -1 -0 0
vn -1 -0 0
vn -1 -0 0
vn 0 -1 0
vn 0 -1 0
vn 0 -1 0
vn 0 -1 0
vn -0 -0 -1
vn -0 -0 -1
vn -0 -0 -1
vn -0 -0 -1
vn -0.71373 -0 0.700421
vn -0.71373 -0 0.700421
vn -0.71373 -0 0.700421
vn -0.71373 -0 0.700421
vn 1 0 -0
vn 1 0 -0
vn 1 0 -0
vn 1 0 -0
vn 0 0 1
vn 0 0 1
vn 0 0 1
vn 0 0 1
vn 0.71373 0 -0.700421
vn 0.71373 0 -0.700421
vn 0.71373 0 -0.700421
vn 0.71373 0 -0.700421
vn -0 1 4e-06
vn -0 1 4e-06
vn -0 1 4e-06
vn -0 1 4e-06
vn -0 1 -0
vn -0 1 -0
vn 0 -1 0
vn 0 -1 0
vn 2e-06 1 -0
vn 2e-06 1 -0
vn 2e-06 1 -0
vn 2e-06 1 -0
vn 0 -1 0
vn 0 -1 0
vn 0 -1 0
vn 0 -1 0
vn 0 0 1
vn 0 0 1
vn 0 0 1
vn 0 0 1
vn -0 1 -0
vn -0 1 -0
vn -0 1 -0
vn -0 1 -0
vn -1 -0 0
vn -1 -0 0
vn -1 -0 0
vn -1 -0 0
vn 0.70042 0 0.713731
vn 0.70042 0 0.713731
vn 0.70042 0 0.713731
vn 0.70042 0 0.713731
vn -0 -0 -1
vn -0 -0 -1
vn -0 -0 -1
vn -0 -0 -1
vn 1 0 -0
vn 1 0 -0
vn 1 0 -0
vn 1 0 -0
vn -0.70042 -0 -0.713731
vn -0.70042 -0 -0.713731
vn -0.70042 -0 -0.713731
vn -0.70042 -0 -0.713731
vn -2e-06 -1 0
vn -2e-06 -1 0
vn -2e-06 -1 0
vn -2e-06 -1 0
vn 0 -1 -1e-06
vn 0 -1 -1e-06
vn 0 -1 -1e-06
vn 0 -1 -1e-06
vn -0 1 -3e-06
vn -0 1 -3e-06
vn -0 1 -3e-06
vn -0 1 -3e-06
vn -6e-06 -1 0
vn -6e-06 -1 0
vn -6e-06 -1 0
vn -6e-06 -1 0
vn -0 1 -0
vn -0 1 -0
vn -0 1 -0
vn -0 1 -0
vn 0 0 1
vn 0 0 1
vn 0 0 1
vn 0 0 1
vn 0 -1 0
vn 0 -1 0
vn 0 -1 0
vn 0 -1 0
vn -1 -0 0
vn -1 -0 0
vn -1 -0 0
vn -1 -0 0
vn 0.70042 0 0.713731
vn 0.70042 0 0.713731
vn 0.70042 0 0.713731
vn 0.70042 0 0.713731
vn -0 -0 -1
vn -0 -0 -1
vn -0 -0 -1
vn -0 -0 -1
vn 1 0 -0
vn 1 0 -0
vn 1 0 -0
vn 1 0 -0
vn -0.70042 -0 -0.713731
vn -0.70042 -0 -0.713731
vn -0.70042 -0 -0.713731
vn -0.70042 -0 -0.713731
vn 6e-06 1 -0
vn 6e-06 1 -0
vn 6e-06 1 -0
vn 6e-06 1 -0
vn -0 1 -0
vn -0 1 -0
vn 0 -1 0
vn 0 -1 0
vn -0 0 1
vn -0 0 1
vn -0 0 1
vn -0 0 1
vn 4e-06 1 -0
vn 4e-06 1 -0
vn 4e-06 1 -0
vn 4e-06 1 -0
vn -4e-06 -1 0
vn -4e-06 -1 0
vn -4e-06 -1 0
vn -4e-06 -1 0
vn -0 0 1
vn -0 0 1
vn -0 0 1
vn -0 0 1
vn -0 1 2e-06
vn -0 1 2e-06
vn -0 1 2e-06
vn -0 1 2e-06
vn 0 -1 1e-06
vn 0 -1 1e-06
vn 0 -1 1e-06
vn 0 -1 1e-06
vn 0 0 1
vn 0 0 1
vn 0 0 1
vn 0 0 1
vn 4e-06 1 -0
vn 4e-06 1 -0
vn 4e-06 1 -0
vn 4e-06 1 -0
vn 0 -0 -1
vn 0 -0 -1
vn 0 -0 -1
vn 0 -0 -1
vn 0 0 1
vn 0 0 1
vn 0 0 1
vn 0 0 1
vn -4e-06 -1 1.4e-05
vn -4e-06 -1 1.4e-05
vn -4e-06 -1 1.4e-05
vn -4e-06 -1 1.4e-05
vn -5e-06 -1 -1e-06
vn -5e-06 -1 -1e-06
vn -5e-06 -1 -1e-06
vn -5e-06 -1 -1e-06
vn 4e-06 1 -1.4e-05
vn 4e-06 1 -1.4e-05
vn 4e-06 1 -1.4e-05
vn 4e-06 1 -1.4e-05
vn 0 -0 -1
vn 0 -0 -1
vn 0 -0 -1
vn 0 -0 -1
vn 1 0 -0
vn 1 0 -0
vn 1 0 -0
vn 1 0 -0
vn 5e-06 1 1e-06
vn 5e-06 1 1e-06
vn 5e-06 1 1e-06
vn 5e-06 1 1e-06
vn -0 0 1
vn -0 0 1
vn -0 0 1
vn -0 0 1
vn 1 0 -0
vn 1 0 -0
vn 1 0 -0
vn 1 0 -0
vn -1e-06 -0 -1
vn -1e-06 -0 -1
vn -1e-06 -0 -1
vn -1e-06 -0 -1
vn -4e-06 -1 0
vn -4e-06 -1 0
vn -4e-06 -1 0
vn -4e-06 -1 0
vn -1 -0 -0
vn -1 -0 -0
vn -1 -0 -0
vn -1 -0 -0
vn -1 -0 0
vn -1 -0 0
vn -1 -0 0
vn -1 -0 0
vn 1 0 0
vn 1 0 0
vn 1 0 0
vn 1 0 0
vn 5e-06 1 1e-06
vn 5e-06 1 1e-06
vn 5e-06 1 1e-06
vn 5e-06 1 1e-06
vn -1 -0 0
vn -1 -0 0
vn -1 -0 0
vn -1 -0 0
vn 0 -0 -1
vn 0 -0 -1
vn 0 -0 -1
vn 0 -0 -1
vn -1 -0 -0
vn -1 -0 -0
vn -1 -0 -0
vn -1 -0 -0
vn -0 0 1
vn -0 0 1
vn -0 0 1
vn -0 0 1
vn 1 0 0
vn 1 0 0
vn 1 0 0
vn 1 0 0
vn -1 -0 -0
vn -1 -0 -0
vn -1 -0 -0
vn -1 -0 -0
vn -0 -0 -1
vn -0 -0 -1
vn -0 -0 -1
vn -0 -0 -1
vn 1 0 0
vn 1 0 0
vn 1 0 0
vn 1 0 0
vn 0 0 1
vn 0 0 1
vn 0 0 1
vn 0 0 1
vn -4e-06 -1 -3e-06
vn -4e-06 -1 -3e-06
vn -4e-06 -1 -3e-06
vn -4e-06 -1 -3e-06
vn 4e-06 1 3e-06
vn 4e-06 1 3e-06
vn 4e-06 1 3e-06
vn 4e-06 1 3e-06
vn 0 0 1
vn 0 0 1
vn 0 0 1
vn 0 0 1
vn 0 -1 -2e-06
vn 0 -1 -2e-06
vn 0 -1 -2e-06
vn 0 -1 -2e-06
vn 1 0 0
vn 1 0 0
vn 1 0 0
vn 1 0 0
vn -1 -0 0
vn -1 -0 0
vn -1 -0 0
vn -1 -0 0
vn -4e-06 -1 0
vn -4e-06 -1 0
vn -4e-06 -1 0
vn -4e-06 -1 0
vn -1 -0 -0
vn -1 -0 -0
vn -1 -0 -0
vn -1 -0 -0
vn -0 -0 -1
vn -0 -0 -1
vn -0 -0 -1
vn -0 -0 -1
vn -1 -0 -0
vn -1 -0 -0
vn -1 -0 -0
vn -1 -0 -0
vn 1 0 -0
vn 1 0 -0
vn 1 0 -0
vn 1 0 -0
vn 1 0 0
vn 1 0 0
vn 1 0 0
vn 1 0 0
vn -0 -0 -1
vn -0 -0 -1
vn -0 -0 -1
vn -0 -0 -1
vn 0 -0 -1
vn 0 -0 -1
vn 0 -0 -1
vn 0 -0 -1
vn -0 -0 -1
vn -0 -0 -1
vn -0 -0 -1
vn -0 -0 -1
vn 1 0 -0
vn 1 0 -0
vn 1 0 -0
vn 1 0 -0
vn -0 1 1e-06
vn -0 1 1e-06
vn -0 1 1e-06
vn -0 1 1e-06
vn 0 0 1
vn 0 0 1
vn 0 0 1
vn 0 0 1
vn 4e-06 1 -0
vn 4e-06 1 -0
vn 4e-06 1 -0
vn 4e-06 1 -0
vn -1 -0 0
vn -1 -0 0
vn -1 -0 0
vn -1 -0 0
vn -0.999253 -0.038635 0
vn -0.999253 -0.038635 0
vn -0.999253 -0.038635 0
vn -0.999253 -0.038635 0
vn -0.707108 -0 0.707106
vn -0.707108 -0 0.707106
vn -0.707108 -0 0.707106
vn -0.707108 -0 0.707106
vn -0.999253 0.038635 0
vn -0.999253 0.038635 0
vn -0.999253 0.038635 0
vn -0.999253 0.038635 0
vn -0.707106 -0 -0.707107
vn -0.707106 -0 -0.707107
vn -0.707106 -0 -0.707107
vn -0.707106 -0 -0.707107
vn -0 -0.038635 -0.999253
vn -0 -0.038635 -0.999253
vn -0 -0.038635 -0.999253
vn -0 -0.038635 -0.999253
vn 0 0.038635 -0.999253
vn 0 0.038635 -0.999253
vn 0 0.038635 -0.999253
vn 0 0.038635 -0.999253
vn 0.707106 0 -0.707107
vn 0.707106 0 -0.707107
vn 0.707106 0 -0.707107
vn 0.707106 0 -0.707107
vn 0.999253 -0.038635 -0
vn 0.999253 -0.038635 -0
vn 0.999253 -0.038635 -0
vn 0.999253 -0.038635 -0
vn 0.999253 0.038635 0
vn 0.999253 0.038635 0
vn 0.999253 0.038635 0
vn 0.999253 0.038635 0
vn 0.707106 0 0.707107
vn 0.707106 0 0.707107
vn 0.707106 0 0.707107
vn 0.707106 0 0.707107
vn -0 -0.038635 0.999253
vn -0 -0.038635 0.999253
vn -0 -0.038635 0.999253
vn -0 -0.038635 0.999253
vn 0 0.038635 0.999253
vn 0 0.038635 0.999253
vn 0 0.038635 0.999253
vn 0 0.038635 0.999253
vn -5e-06 -1 -0
vn -5e-06 -1 -0
vn -5e-06 -1 -0
vn -5e-06 -1 -0
vn -1 -0 0
vn -1 -0 0
vn -1 -0 0
vn -1 -0 0
vn 1 0 -0
vn 1 0 -0
vn 1 0 -0
vn 1 0 -0
vn 0 -1 -6e-06
vn 0 -1 -6e-06
vn 0 -1 -6e-06
vn 0 -1 -6e-06
vn -1 -0 0
vn -1 -0 0
vn -1 -0 0
vn -1 -0 0
vn -0 -0 -1
vn -0 -0 -1
vn -0 -0 -1
vn -0 -0 -1
vn 0 -0.039368 0.999225
vn 0 -0.039368 0.999225
vn 0 -0.039368 0.999225
vn 0 -0.039368 0.999225
vn -0 1 6e-06
vn -0 1 6e-06
vn -0 1 6e-06
vn -0 1 6e-06
vn 0 0 1
vn 0 0 1
vn 0 0 1
vn 0 0 1
vn -0 0.039368 -0.999225
vn -0 0.039368 -0.999225
vn -0 0.039368 -0.999225
vn -0 0.039368 -0.999225
vn 1 0 -0
vn 1 0 -0
vn 1 0 -0
vn 1 0 -0
vn 1 0 -0
vn 1 0 -0
vn 1 0 -0
vn 1 0 -0
vn -1 -0 0
vn -1 -0 0
vn -1 -0 0
vn -1 -0 0
vn 1 0 -0
vn 1 0 -0
vn 1 0 -0
vn 1 0 -0
vn -1 -0 0
vn -1 -0 0
vn -1 -0 0
vn -1 -0 0
vn 0 -1 -6e-06
vn 0 -1 -6e-06
vn 0 -1 -6e-06
vn 0 -1 -6e-06
vn 1 0 -0
vn 1 0 -0
vn 1 0 -0
vn 1 0 -0
vn -0 -0 -1
vn -0 -0 -1
vn -0 -0 -1
vn -0 -0 -1
vn 0 -0.039368 0.999225
vn 0 -0.039368 0.999225
vn 0 -0.039368 0.999225
vn 0 -0.039368 0.999225
vn -0 1 6e-06
vn -0 1 6e-06
vn -0 1 6e-06
vn -0 1 6e-06
vn 0 0 1
vn 0 0 1
vn 0 0 1
vn 0 0 1
vn -0 0.039368 -0.999225
vn -0 0.039368 -0.999225
vn -0 0.039368 -0.999225
vn -0 0.039368 -0.999225
vn -1 -0 0
vn -1 -0 0
vn -1 -0 0
vn -1 -0 0
vn -1 -0 0
vn -1 -0 0
vn -1 -0 0
vn -1 -0 0
vn 1 0 -0
vn 1 0 -0
vn 1 0 -0
vn 1 0 -0
vn -1 -0 0
vn -1 -0 0
vn -1 -0 0
vn -1 -0 0
vn 1 0 -0
vn 1 0 -0
vn 1 0 -0
vn 1 0 -0
vn 0 0 1
vn 0 0 1
vn 0 0 1
vn 0 0 1
vn -1 -0 0
vn -1 -0 0
vn -1 -0 0
vn -1 -0 0
vn 0 -1 -6e-06
vn 0 -1 -6e-06
vn 0 -1 -6e-06
vn 0 -1 -6e-06
vn 0 0.037916 0.999281
vn 0 0.037916 0.999281
vn 0 0.037916 0.999281
vn 0 0.037916 0.999281
vn -0 -0 -1
vn -0 -0 -1
vn -0 -0 -1
vn -0 -0 -1
vn -0 1 6e-06
vn -0 1 6e-06
vn -0 1 6e-06
vn -0 1 6e-06
vn -0 -0.037916 -0.999281
vn -0 -0.037916 -0.999281
vn -0 -0.037916 -0.999281
vn -0 -0.037916 -0.999281
vn 1 0 -0
vn 1 0 -0
vn 1 0 -0
vn 1 0 -0
vn 1 0 -0
vn 1 0 -0
vn 1 0 -0
vn 1 0 -0
vn -1 -0 0
vn -1 -0 0
vn -1 -0 0
vn -1 -0 0
vn 1 0 -0
vn 1 0 -0
vn 1 0 -0
vn 1 0 -0
vn -1 -0 0
vn -1 -0 0
vn -1 -0 0
vn -1 -0 0
vn 0 0 1
vn 0 0 1
vn 0 0 1
vn 0 0 1
vn 1 0 -0
vn 1 0 -0
vn 1 0 -0
vn 1 0 -0
vn 0 -1 -6e-06
vn 0 -1 -6e-06
vn 0 -1 -6e-06
vn 0 -1 -6e-06
vn 0 0.037916 0.999281
vn 0 0.037916 0.999281
vn 0 0.037916 0.999281
vn 0 0.037916 0.999281
vn -0 -0 -1
vn -0 -0 -1
vn -0 -0 -1
vn -0 -0 -1
vn -0 1 6e-06
vn -0 1 6e-06
vn -0 1 6e-06
vn -0 1 6e-06
vn -0 -0.037916 -0.999281
vn -0 -0.037916 -0.999281
vn -0 -0.037916 -0.999281
vn -0 -0.037916 -0.999281
vn -1 -0 0
vn -1 -0 0
vn -1 -0 0
vn -1 -0 0
vn -1 -0 -0
vn -1 -0 -0
vn -1 -0 -0
vn -1 -0 -0
vn 1 0 0
vn 1 0 0
vn 1 0 0
vn 1 0 0
vn -0 -0 -1
vn -0 -0 -1
vn -0 -0 -1
vn -0 -0 -1
vn 0 0 1
vn 0 0 1
vn 0 0 1
vn 0 0 1
vn 0 -1 0
vn 0 -1 0
vn 0 -1 0
vn 0 -1 0
vn -0 -0 -1
vn -0 -0 -1
vn -0 -0 -1
vn -0 -0 -1
vn 1 0 -0
vn 1 0 -0
vn 1 0 -0
vn 1 0 -0
vn -0.999225 -0.039368 0
vn -0.999225 -0.039368 0
vn -0.999225 -0.039368 0
vn -0.999225 -0.039368 0
vn -0 1 -0
vn -0 1 -0
vn -0 1 -0
vn -0 1 -0
vn -1 -0 0
vn -1 -0 0
vn -1 -0 0
vn -1 -0 0
vn 0.999225 0.039368 -0
vn 0.999225 0.039368 -0
vn 0.999225 0.039368 -0
vn 0.999225 0.039368 -0
vn 0 0 1
vn 0 0 1
vn 0 0 1
vn 0 0 1
vn 0 0 1
vn 0 0 1
vn 0 0 1
vn 0 0 1
vn -0 -0 -1
vn -0 -0 -1
vn -0 -0 -1
vn -0 -0 -1
vn -0 0 1
vn -0 0 1
vn -0 0 1
vn -0 0 1
vn -0 -0 -1
vn -0 -0 -1
vn -0 -0 -1
vn -0 -0 -1
vn 0 -1 0
vn 0 -1 0
vn 0 -1 0
vn 0 -1 0
vn 0 0 1
vn 0 0 1
vn 0 0 1
vn 0 0 1
vn 1 0 -0
vn 1 0 -0
vn 1 0 -0
vn 1 0 -0
vn -0.999225 -0.039368 0
vn -0.999225 -0.039368 0
vn -0.999225 -0.039368 0
vn -0.999225 -0.039368 0
vn -0 1 -0
vn -0 1 -0
vn -0 1 -0
vn -0 1 -0
vn -1 -0 0
vn -1 -0 0
vn -1 -0 0
vn -1 -0 0
vn 0.999225 0.039368 -0
vn 0.999225 0.039368 -0
vn 0.999225 0.039368 -0
vn 0.999225 0.039368 -0
vn 0 -0 -1
vn 0 -0 -1
vn 0 -0 -1
vn 0 -0 -1
vn -0 -0 -1
vn -0 -0 -1
vn -0 -0 -1
vn -0 -0 -1
vn 0 0 1
vn 0 0 1
vn 0 0 1
vn 0 0 1
vn -0 -0 -1
vn -0 -0 -1
vn -0 -0 -1
vn -0 -0 -1
vn 0 0 1
vn 0 0 1
vn 0 0 1
vn 0 0 1
vn -1 -0 0
vn -1 -0 0
vn -1 -0 0
vn -1 -0 0
vn -0 -0 -1
vn -0 -0 -1
vn -0 -0 -1
vn -0 -0 -1
vn 0 -1 0
vn 0 -1 0
vn 0 -1 0
vn 0 -1 0
vn -0.999281 0.037915 0
vn -0.999281 0.037915 0
vn -0.999281 0.037915 0
vn -0.999281 0.037915 0
vn 1 0 -1e-06
vn 1 0 -1e-06
vn 1 0 -1e-06
vn 1 0 -1e-06
vn -0 1 -0
vn -0 1 -0
vn -0 1 -0
vn -0 1 -0
vn 0.999281 -0.037915 -1e-06
vn 0.999281 -0.037915 -1e-06
vn 0.999281 -0.037915 -1e-06
vn 0.999281 -0.037915 -1e-06
vn -0 0 1
vn -0 0 1
vn -0 0 1
vn -0 0 1
vn 0 0 1
vn 0 0 1
vn 0 0 1
vn 0 0 1
vn -0 -0 -1
vn -0 -0 -1
vn -0 -0 -1
vn -0 -0 -1
vn 0 0 1
vn 0 0 1
vn 0 0 1
vn 0 0 1
vn -0 -0 -1
vn -0 -0 -1
vn -0 -0 -1
vn -0 -0 -1
vn -1 -0 0
vn -1 -0 0
vn -1 -0 0
vn -1 -0 0
vn 0 0 1
vn 0 0 1
vn 0 0 1
vn 0 0 1
vn 0 -1 0
vn 0 -1 0
vn 0 -1 0
vn 0 -1 0
vn -0.999281 0.037915 0
vn -0.999281 0.037915 0
vn -0.999281 0.037915 0
vn -0.999281 0.037915 0
vn 1 0 -0
vn 1 0 -0
vn 1 0 -0
vn 1 0 -0
vn -0 1 -0
vn -0 1 -0
vn -0 1 -0
vn -0 1 -0
vn 0.999281 -0.037915 -0
vn 0.999281 -0.037915 -0
vn 0.999281 -0.037915 -0
vn 0.999281 -0.037915 -0
vn -0 -0 -1
vn -0 -0 -1
vn -0 -0 -1
vn -0 -0 -1
vn -0 -0 -1
vn -0 -0 -1
vn -0 -0 -1
vn -0 -0 -1
vn 0 0 1
vn 0 0 1
vn 0 0 1
vn 0 0 1

g crate__woodobj:Cube_001_DefaultMaterial_0_0_0_0
usemtl crate__woodobj:DefaultMaterial
f 1/1/1 2/2/2 3/3/3
f 4/4/4 5/5/5 6/6/6
f 7/7/7 8/8/8 9/9/9
f 10/10/10 11/11/11 12/12/12
f 13/13/13 14/14/14 15/15/15
f 16/16/16 17/17/17 18/18/18
f 19/19/19 20/20/20 21/21/21
f 22/22/22 23/23/23 24/24/24
f 25/25/25 26/26/26 27/27/27
f 25/25/25 27/27/27 28/28/28
f 29/29/29 30/30/30 31/31/31
f 29/29/29 31/31/31 32/32/32
f 33/33/33 34/34/34 35/35/35
f 33/33/33 35/35/35 36/36/36
f 37/37/37 38/38/38 39/39/39
f 37/37/37 39/39/39 40/40/40
f 41/41/41 42/42/42 43/43/43
f 41/41/41 43/43/43 44/44/44
f 45/45/45 46/46/46 47/47/47
f 45/45/45 47/47/47 48/48/48
f 49/49/49 50/50/50 51/51/51
f 49/49/49 51/51/51 52/52/52
f 53/53/53 54/54/54 55/55/55
f 53/53/53 55/55/55 56/56/56
f 57/57/57 58/58/58 59/59/59
f 57/57/57 59/59/59 60/60/60
f 61/61/61 62/62/62 63/63/63
f 61/61/61 63/63/63 64/64/64
f 32/32/32 31/31/31 65/65/65
f 32/32/32 65/65/65 66/66/66
f 40/40/40 39/39/39 67/67/67
f 40/40/40 67/67/67 68/68/68
f 69/69/69 70/70/70 71/71/71
f 69/69/69 71/71/71 72/72/72
f 73/73/73 74/74/74 75/75/75
f 73/73/73 75/75/75 76/76/76
f 77/77/77 78/78/78 79/79/79
f 77/77/77 79/79/79 80/80/80
f 81/81/81 82/82/82 83/83/83
f 81/81/81 83/83/83 84/84/84
f 85/85/85 86/86/86 87/87/87
f 85/85/85 87/87/87 88/88/88
f 89/89/89 90/90/90 91/91/91
f 89/89/89 91/91/91 92/92/92
f 93/93/93 94/94/94 95/95/95
f 93/93/93 95/95/95 96/96/96
f 97/97/97 98/98/98 99/99/99
f 97/97/97 99/99/99 100/100/100
f 101/101/101 102/102/102 103/103/103
f 101/101/101 103/103/103 104/104/104
f 105/105/105 106/106/106 107/107/107
f 105/105/105 107/107/107 108/108/108
f 76/76/76 75/75/75 109/109/109
f 76/76/76 109/109/109 110/110/110
f 84/84/84 83/83/83 111/111/111
f 84/84/84 111/111/111 112/112/112
f 113/113/113 114/114/114 115/115/115
f 113/113/113 115/115/115 116/116/116
f 117/117/117 118/118/118 119/119/119
f 117/117/117 119/119/119 120/120/120
f 121/121/121 122/122/122 123/123/123
f 121/121/121 123/123/123 124/124/124
f 125/125/125 126/126/126 127/127/127
f 125/125/125 127/127/127 128/128/128
f 129/129/129 130/130/130 131/131/131
f 129/129/129 131/131/131 132/132/132
f 133/133/133 134/134/134 135/135/135
f 133/133/133 135/135/135 136/136/136
f 137/137/137 138/138/138 139/139/139
f 137/137/137 139/139/139 140/140/140
f 141/141/141 142/142/142 143/143/143
f 141/141/141 143/143/143 144/144/144
f 145/145/145 146/146/146 147/147/147
f 145/145/145 147/147/147 148/148/148
f 149/149/149 150/150/150 151/151/151
f 149/149/149 151/151/151 152/152/152
f 153/153/153 154/154/154 155/155/155
f 153/153/153 155/155/155 156/156/156
f 157/157/157 158/158/158 159/159/159
f 157/157/157 159/159/159 160/160/160
f 161/161/161 162/162/162 163/163/163
f 161/161/161 163/163/163 164/164/164
f 165/165/165 166/166/166 167/167/167
f 165/165/165 167/167/167 168/168/168
f 169/169/169 170/170/170 171/171/171
f 169/169/169 171/171/171 172/172/172
f 173/173/173 174/174/174 175/175/175
f 173/173/173 175/175/175 176/176/176
f 177/177/177 178/178/178 179/179/179
f 177/177/177 179/179/179 180/180/180
f 181/181/181 182/182/182 183/183/183
f 181/181/181 183/183/183 184/184/184
f 185/185/185 186/186/186 187/187/187
f 185/185/185 187/187/187 188/188/188
f 189/189/189 190/190/190 191/191/191
f 189/189/189 191/191/191 192/192/192
f 193/193/193 194/194/194 195/195/195
f 193/193/193 195/195/195 196/196/196
f 197/197/197 198/198/198 199/199/199
f 197/197/197 199/199/199 200/200/200
f 165/165/165 168/168/168 201/201/201
f 165/165/165 201/201/201 202/202/202
f 175/175/175 174/174/174 203/203/203
f 175/175/175 203/203/203 204/204/204
f 205/205/205 206/206/206 207/207/207
f 205/205/205 207/207/207 208/208/208
f 209/209/209 210/210/210 211/211/211
f 209/209/209 211/211/211 212/212/212
f 213/213/213 214/214/214 215/215/215
f 213/213/213 215/215/215 216/216/216
f 217/217/217 218/218/218 219/219/219
f 217/217/217 219/219/219 220/220/220
f 221/221/221 222/222/222 223/223/223
f 221/221/221 223/223/223 224/224/224
f 225/225/225 226/226/226 227/227/227
f 225/225/225 227/227/227 228/228/228
f 229/229/229 230/230/230 231/231/231
f 229/229/229 231/231/231 232/232/232
f 233/233/233 234/234/234 235/235/235
f 233/233/233 235/235/235 236/236/236
f 237/237/237 238/238/238 239/239/239
f 237/237/237 239/239/239 240/240/240
f 241/241/241 242/242/242 243/243/243
f 241/241/241 243/243/243 244/244/244
f 245/245/245 246/246/246 247/247/247
f 245/245/245 247/247/247 248/248/248
f 249/249/249 250/250/250 251/251/251
f 249/249/249 251/251/251 252/252/252
f 253/253/253 254/254/254 255/255/255
f 253/253/253 255/255/255 256/256/256
f 257/257/257 258/258/258 259/259/259
f 257/257/257 259/259/259 260/260/260
f 261/261/261 262/262/262 263/263/263
f 261/261/261 263/263/263 264/264/264
f 265/265/265 266/266/266 267/267/267
f 265/265/265 267/267/267 268/268/268
f 269/269/269 270/270/270 271/271/271
f 269/269/269 271/271/271 272/272/272
f 273/273/273 274/274/274 275/275/275
f 273/273/273 275/275/275 276/276/276
f 277/277/277 278/278/278 279/279/279
f 277/277/277 279/279/279 280/280/280
f 281/281/281 282/282/282 283/283/283
f 281/281/281 283/283/283 284/284/284
f 285/285/285 286/286/286 287/287/287
f 285/285/285 287/287/287 288/288/288
f 289/289/289 290/290/290 291/291/291
f 289/289/289 291/291/291 292/292/292
f 293/293/293 294/294/294 295/295/295
f 293/293/293 295/295/295 296/296/296
f 297/297/297 298/298/298 299/299/299
f 297/297/297 299/299/299 300/300/300
f 301/301/301 302/302/302 303/303/303
f 301/301/301 303/303/303 304/304/304
f 305/305/305 306/306/306 307/307/307
f 305/305/305 307/307/307 308/308/308
f 309/309/309 310/310/310 311/311/311
f 309/309/309 311/311/311 312/312/312
f 313/313/313 314/314/314 315/315/315
f 313/313/313 315/315/315 316/316/316
f 317/317/317 318/318/318 319/319/319
f 317/317/317 319/319/319 320/320/320
f 321/321/321 322/322/322 323/323/323
f 321/321/321 323/323/323 324/324/324
f 325/325/325 326/326/326 327/327/327
f 325/325/325 327/327/327 328/328/328
f 329/329/329 330/330/330 331/331/331
f 329/329/329 331/331/331 332/332/332
f 333/333/333 334/334/334 335/335/335
f 333/333/333 335/335/335 336/336/336
f 337/337/337 338/338/338 339/339/339
f 337/337/337 339/339/339 340/340/340
f 341/341/341 342/342/342 343/343/343
f 341/341/341 343/343/343 344/344/344
f 345/345/345 346/346/346 347/347/347
f 345/345/345 347/347/347 348/348/348
f 349/349/349 350/350/350 351/351/351
f 349/349/349 351/351/351 352/352/352
f 353/353/353 354/354/354 355/355/355
f 353/353/353 355/355/355 356/356/356
f 357/357/357 358/358/358 359/359/359
f 357/357/357 359/359/359 360/360/360
f 361/361/361 362/362/362 363/363/363
f 361/361/361 363/363/363 364/364/364
f 365/365/365 366/366/366 367/367/367
f 365/365/365 367/367/367 368/368/368
f 369/369/369 370/370/370 371/371/371
f 369/369/369 371/371/371 372/372/372
f 373/373/373 374/374/374 375/375/375
f 373/373/373 375/375/375 376/376/376
f 377/377/377 378/378/378 379/379/379
f 377/377/377 379/379/379 380/380/380
f 381/381/381 382/382/382 383/383/383
f 381/381/381 383/383/383 384/384/384
f 385/385/385 386/386/386 387/387/387
f 385/385/385 387/387/387 388/388/388
f 389/389/389 390/390/390 391/391/391
f 389/389/389 391/391/391 392/392/392
f 393/393/393 394/394/394 395/395/395
f 393/393/393 395/395/395 396/396/396
f 397/397/397 398/398/398 399/399/399
f 397/397/397 399/399/399 400/400/400
f 401/401/401 402/402/402 403/403/403
f 401/401/401 403/403/403 404/404/404
f 405/405/405 406/406/406 407/407/407
f 405/405/405 407/407/407 408/408/408
f 409/409/409 410/410/410 411/411/411
f 409/409/409 411/411/411 412/412/412
f 413/413/413 414/414/414 415/415/415
f 413/413/413 415/415/415 416/416/416
f 417/417/417 418/418/418 419/419/419
f 417/417/417 419/419/419 420/420/420
f 421/421/421 422/422/422 423/423/423
f 421/421/421 423/423/423 424/424/424
f 425/425/425 426/426/426 427/427/427
f 425/425/425 427/427/427 428/428/428
f 429/429/429 430/430/430 431/431/431
f 429/429/429 431/431/431 432/432/432
f 433/433/433 434/434/434 435/435/435
f 433/433/433 435/435/435 436/436/436
f 437/437/437 438/438/438 439/439/439
f 437/437/437 439/439/439 440/440/440
f 441/441/441 442/442/442 443/443/443
f 441/441/441 443/443/443 444/444/444
f 445/445/445 446/446/446 447/447/447
f 445/445/445 447/447/447 448/448/448
f 449/449/449 450/450/450 451/451/451
f 449/449/449 451/451/451 452/452/452
f 453/453/453 454/454/454 455/455/455
f 453/453/453 455/455/455 456/456/456
f 457/457/457 458/458/458 459/459/459
f 457/457/457 459/459/459 460/460/460
f 461/461/461 462/462/462 463/463/463
f 461/461/461 463/463/463 464/464/464
f 465/465/465 466/466/466 467/467/467
f 465/465/465 467/467/467 468/468/468
f 469/469/469 470/470/470 471/471/471
f 469/469/469 471/471/471 472/472/472
f 473/473/473 474/474/474 475/475/475
f 473/473/473 475/475/475 476/476/476
f 477/477/477 478/478/478 479/479/479
f 477/477/477 479/479/479 480/480/480
f 481/481/481 482/482/482 483/483/483
f 481/481/481 483/483/483 484/484/484
f 485/485/485 486/486/486 487/487/487
f 485/485/485 487/487/487 488/488/488
f 489/489/489 490/490/490 491/491/491
f 489/489/489 491/491/491 492/492/492
f 493/493/493 494/494/494 495/495/495
f 493/493/493 495/495/495 496/496/496
f 497/497/497 498/498/498 499/499/499
f 497/497/497 499/499/499 500/500/500
f 501/501/501 502/502/502 503/503/503
f 501/501/501 503/503/503 504/504/504
f 505/505/505 506/506/506 507/507/507
f 505/505/505 507/507/507 508/508/508
f 509/509/509 510/510/510 511/511/511
f 509/509/509 511/511/511 512/512/512
f 513/513/513 514/514/514 515/515/515
f 513/513/513 515/515/515 516/516/516
f 517/517/517 518/518/518 519/519/519
f 517/517/517 519/519/519 520/520/520
f 521/521/521 522/522/522 523/523/523
f 521/521/521 523/523/523 524/524/524
f 525/525/525 526/526/526 527/527/527
f 525/525/525 527/527/527 528/528/528
f 529/529/529 530/530/530 531/531/531
f 529/529/529 531/531/531 532/532/532
f 533/533/533 534/534/534 535/535/535
f 533/533/533 535/535/535 536/536/536
f 537/537/537 538/538/538 539/539/539
f 537/537/537 539/539/539 540/540/540
f 541/541/541 542/542/542 543/543/543
f 541/541/541 543/543/543 544/544/544
f 545/545/545 546/546/546 547/547/547
f 545/545/545 547/547/547 548/548/548
f 549/549/549 550/550/550 551/551/551
f 549/549/549 551/551/551 552/552/552
f 553/553/553 554/554/554 555/555/555
f 553/553/553 555/555/555 556/556/556
f 557/557/557 558/558/558 559/559/559
f 557/557/557 559/559/559 560/560/560
f 561/561/561 562/562/562 563/563/563
f 561/561/561 563/563/563 564/564/564
f 565/565/565 566/566/566 567/567/567
f 565/565/565 567/567/567 568/568/568
f 569/569/569 570/570/570 571/571/571
f 569/569/569 571/571/571 572/572/572
f 573/573/573 574/574/574 575/575/575
f 573/573/573 575/575/575 576/576/576
f 577/577/577 578/578/578 579/579/579
f 577/577/577 579/579/579 580/580/580
f 581/581/581 582/582/582 583/583/583
f 581/581/581 583/583/583 584/584/584
f 585/585/585 586/586/586 587/587/587
f 585/585/585 587/587/587 588/588/588
f 589/589/589 590/590/590 591/591/591
f 589/589/589 591/591/591 592/592/592
f 593/593/593 594/594/594 595/595/595
f 593/593/593 595/595/595 596/596/596
f 597/597/597 598/598/598 599/599/599
f 597/597/597 599/599/599 600/600/600
f 601/601/601 602/602/602 603/603/603
f 601/601/601 603/603/603 604/604/604
f 605/605/605 606/606/606 607/607/607
f 605/605/605 607/607/607 608/608/608
f 609/609/609 610/610/610 611/611/611
f 609/609/609 611/611/611 612/612/612
f 613/613/613 614/614/614 615/615/615
f 613/613/613 615/615/615 616/616/616
f 617/617/617 618/618/618 619/619/619
f 617/617/617 619/619/619 620/620/620
f 621/621/621 622/622/622 623/623/623
f 621/621/621 623/623/623 624/624/624
f 625/625/625 626/626/626 627/627/627
f 625/625/625 627/627/627 628/628/628
f 629/629/629 630/630/630 631/631/631
f 629/629/629 631/631/631 632/632/632
f 633/633/633 634/634/634 635/635/635
f 633/633/633 635/635/635 636/636/636
f 637/637/637 638/638/638 639/639/639
f 637/637/637 639/639/639 640/640/640
f 641/641/641 642/642/642 643/643/643
f 641/641/641 643/643/643 644/644/644
f 645/645/645 646/646/646 647/647/647
f 645/645/645 647/647/647 648/648/648
f 649/649/649 650/650/650 651/651/651
f 649/649/649 651/651/651 652/652/652
f 653/653/653 654/654/654 655/655/655
f 653/653/653 655/655/655 656/656/656
f 657/657/657 658/658/658 659/659/659
f 657/657/657 659/659/659 660/660/660
f 661/661/661 662/662/662 663/663/663
f 661/661/661 663/663/663 664/664/664
f 665/665/665 666/666/666 667/667/667
f 665/665/665 667/667/667 668/668/668
f 669/669/669 670/670/670 671/671/671
f 669/669/669 671/671/671 672/672/672
f 673/673/673 674/674/674 675/675/675
f 673/673/673 675/675/675 676/676/676
f 677/677/677 678/678/678 679/679/679
f 677/677/677 679/679/679 680/680/680
f 681/681/681 682/682/682 683/683/683
f 681/681/681 683/683/683 684/684/684
f 685/685/685 686/686/686 687/687/687
f 685/685/685 687/687/687 688/688/688
f 689/689/689 690/690/690 691/691/691
f 689/689/689 691/691/691 692/692/692
f 693/693/693 694/694/694 695/695/695
f 693/693/693 695/695/695 696/696/696
f 697/697/697 698/698/698 699/699/699
f 697/697/697 699/699/699 700/700/700
f 701/701/701 702/702/702 703/703/703
f 701/701/701 703/703/703 704/704/704
f 705/705/705 706/706/706 707/707/707
f 705/705/705 707/707/707 708/708/708
f 709/709/709 710/710/710 711/711/711
f 709/709/709 711/711/711 712/712/712
f 713/713/713 714/714/714 715/715/715
f 713/713/713 715/715/715 716/716/716
f 717/717/717 718/718/718 719/719/719
f 717/717/717 719/719/719 720/720/720
f 721/721/721 722/722/722 723/723/723
f 721/721/721 723/723/723 724/724/724
f 725/725/725 726/726/726 727/727/727
f 725/725/725 727/727/727 728/728/728
f 729/729/729 730/730/730 731/731/731
f 729/729/729 731/731/731 732/732/732
f 733/733/733 734/734/734 735/735/735
f 733/733/733 735/735/735 736/736/736
f 737/737/737 738/738/738 739/739/739
f 737/737/737 739/739/739 740/740/740
f 741/741/741 742/742/742 743/743/743
f 741/741/741 743/743/743 744/744/744
f 745/745/745 746/746/746 747/747/747
f 745/745/745 747/747/747 748/748/748
f 749/749/749 750/750/750 751/751/751
f 749/749/749 751/751/751 752/752/752
f 753/753/753 754/754/754 755/755/755
f 753/753/753 755/755/755 756/756/756
f 757/757/757 758/758/758 759/759/759
f 757/757/757 759/759/759 760/760/760
f 761/761/761 762/762/762 763/763/763
f 761/761/761 763/763/763 764/764/764
f 765/765/765 766/766/766 767/767/767
f 765/765/765 767/767/767 768/768/768
f 769/769/769 770/770/770 771/771/771
f 769/769/769 771/771/771 772/772/772
f 773/773/773 774/774/774 775/775/775
f 773/773/773 775/775/775 776/776/776
f 777/777/777 778/778/778 779/779/779
f 777/777/777 779/779/779 780/780/780
f 781/781/781 782/782/782 783/783/783
f 781/781/781 783/783/783 784/784/784
f 785/785/785 786/786/786 787/787/787
f 785/785/785 787/787/787 788/788/788
f 789/789/789 790/790/790 791/791/791
f 789/789/789 791/791/791 792/792/792
f 793/793/793 794/794/794 795/795/795
f 793/793/793 795/795/795 796/796/796
f 797/797/797 798/798/798 799/799/799
f 797/797/797 799/799/799 800/800/800
f 801/801/801 802/802/802 803/803/803
f 801/801/801 803/803/803 804/804/804
f 805/805/805 806/806/806 807/807/807
f 805/805/805 807/807/807 808/808/808
f 809/809/809 810/810/810 811/811/811
f 809/809/809 811/811/811 812/812/812
f 813/813/813 814/814/814 815/815/815
f 813/813/813 815/815/815 816/816/816
f 817/817/817 818/818/818 819/819/819
f 817/817/817 819/819/819 820/820/820
f 821/821/821 822/822/822 823/823/823
f 821/821/821 823/823/823 824/824/824
f 825/825/825 826/826/826 827/827/827
f 825/825/825 827/827/827 828/828/828
f 829/829/829 830/830/830 831/831/831
f 829/829/829 831/831/831 832/832/832
f 833/833/833 834/834/834 835/835/835
f 833/833/833 835/835/835 836/836/836
f 837/837/837 838/838/838 839/839/839
f 837/837/837 839/839/839 840/840/840
f 841/841/841 842/842/842 843/843/843
f 841/841/841 843/843/843 844/844/844
f 845/845/845 846/846/846 847/847/847
f 845/845/845 847/847/847 848/848/848
f 849/849/849 850/850/850 851/851/851
f 849/849/849 851/851/851 852/852/852
