# Exported by Gskelview
mtllib crate_wood.mtl

v 64.1376 -47.2986 -46.7805
v 48.2203 -47.3746 -46.7805
v 48.2203 -47.3746 46.958
v 64.1376 -47.2986 46.958
v 64.1376 -47.2986 46.958
v 48.2203 -47.3746 46.958
v 48.2926 -64.1821 46.958
v 64.21 -64.1061 46.958
v 64.21 -64.1061 46.958
v 48.2926 -64.1821 46.958
v 48.2926 -64.1821 -46.7805
v 64.21 -64.1061 -46.7805
v 64.21 -64.1061 -46.7805
v 48.2926 -64.1821 -46.7805
v 48.2203 -47.3746 -46.7805
v 64.1376 -47.2986 -46.7805
v 64.21 -64.1061 -46.7805
v 64.1376 -47.2986 -46.7805
v 64.1376 -47.2986 46.958
v 64.21 -64.1061 46.958
v 48.2203 -47.3746 -46.7805
v 48.2926 -64.1821 -46.7805
v 48.2926 -64.1821 46.958
v 48.2203 -47.3746 46.958
v 48.3999 46.8582 46.958
v 48.3999 46.8582 -46.7805
v 64.3177 46.8582 -46.7805
v 64.3177 46.8582 46.958
v 48.3999 63.6661 46.958
v 48.3999 46.8582 46.958
v 64.3177 46.8582 46.958
v 64.3177 63.6661 46.958
v 48.3999 63.6661 -46.7805
v 48.3999 63.6661 46.958
v 64.3177 63.6661 46.958
v 64.3177 63.6661 -46.7805
v 48.3999 46.8582 -46.7805
v 48.3999 63.6661 -46.7805
v 64.3177 63.6661 -46.7805
v 64.3177 46.8582 -46.7805
v 64.3177 46.8582 46.958
v 64.3177 46.8582 -46.7805
v 64.3177 63.6661 -46.7805
v 64.3177 63.6661 46.958
v 48.3999 63.6661 46.958
v 48.3999 63.6661 -46.7805
v 48.3999 46.8582 -46.7805
v 48.3999 46.8582 46.958
v 64.7878 46.6673 47.0381
v -64.3316 47.2178 47.0381
v -64.2668 64.0253 47.1141
v 64.8527 63.4744 47.1141
v 64.7872 46.5909 63.8456
v 64.7878 46.6673 47.0381
v 64.8527 63.4744 47.1141
v 64.852 63.3984 63.9216
v -64.3316 47.1414 63.8456
v 64.7872 46.5909 63.8456
v 64.852 63.3984 63.9216
v -64.2672 63.9489 63.9216
v -64.3316 47.2178 47.0381
v -64.3316 47.1414 63.8456
v -64.2672 63.9489 63.9216
v -64.2668 64.0253 47.1141
v 64.8527 63.4744 47.1141
v -64.2668 64.0253 47.1141
v -64.2672 63.9489 63.9216
v 64.852 63.3984 63.9216
v 64.7872 46.5909 63.8456
v -64.3316 47.1414 63.8456
v -64.3316 47.2178 47.0381
v 64.7878 46.6673 47.0381
v -48.8994 47.141 46.9962
v -48.8994 -46.809 46.9962
v -64.3677 -46.809 47.0721
v -64.3677 47.141 47.0721
v -48.8275 47.1406 63.8037
v -48.8994 47.141 46.9962
v -64.3677 47.141 47.0721
v -64.2958 47.1406 63.8796
v -48.8275 -46.809 63.8037
v -48.8275 47.1406 63.8037
v -64.2958 47.1406 63.8796
v -64.2958 -46.809 63.8796
v -48.8994 -46.809 46.9962
v -48.8275 -46.809 63.8037
v -64.2958 -46.809 63.8796
v -64.3677 -46.809 47.0721
v -64.3677 47.141 47.0721
v -64.3677 -46.809 47.0721
v -64.2958 -46.809 63.8796
v -64.2958 47.1406 63.8796
v -48.8275 47.1406 63.8037
v -48.8275 -46.809 63.8037
v -48.8994 -46.809 46.9962
v -48.8994 47.141 46.9962
v -64.266 64.2376 -46.8317
v -64.3308 47.4305 -46.8317
v 64.1384 46.8796 -46.8317
v 64.2028 63.6871 -46.8317
v 64.2028 63.6871 -46.8317
v 64.1384 46.8796 -46.8317
v 64.1384 46.8796 -63.6392
v 64.2028 63.6871 -63.6392
v 64.2028 63.6871 -63.6392
v 64.1384 46.8796 -63.6392
v -64.3308 47.4305 -63.6392
v -64.266 64.2376 -63.6392
v -64.266 64.2376 -63.6392
v -64.3308 47.4305 -63.6392
v -64.3308 47.4305 -46.8317
v -64.266 64.2376 -46.8317
v -64.266 64.2376 -63.6392
v -64.266 64.2376 -46.8317
v 64.2028 63.6871 -46.8317
v 64.2028 63.6871 -63.6392
v -64.3308 47.4305 -46.8317
v -64.3308 47.4305 -63.6392
v 64.1384 46.8796 -63.6392
v 64.1384 46.8796 -46.8317
v -60.0032 58.76 58.588
v -60.0032 -58.2527 58.5876
v 58.039 -58.2527 58.5876
v 58.039 58.76 58.588
v -60.0032 58.7604 -58.604
v -60.0032 58.76 58.588
v 58.039 58.76 58.588
v 58.039 58.7604 -58.604
v -60.0032 -58.2522 -58.6045
v -60.0032 58.7604 -58.604
v 58.039 58.7604 -58.604
v 58.039 -58.2522 -58.6045
v -60.0032 -58.2527 58.5876
v -60.0032 -58.2522 -58.6045
v 58.039 -58.2522 -58.6045
v 58.039 -58.2527 58.5876
v 58.039 58.76 58.588
v 58.039 -58.2527 58.5876
v 58.039 -58.2522 -58.6045
v 58.039 58.7604 -58.604
v -60.0032 58.7604 -58.604
v -60.0032 -58.2522 -58.6045
v -60.0032 -58.2527 58.5876
v -60.0032 58.76 58.588
v -64.2704 47.4037 -46.7805
v -48.353 47.4037 -46.7805
v -48.353 47.4037 47.0721
v -64.2704 47.4037 47.0721
v -64.2704 47.4037 47.0721
v -48.353 47.4037 47.0721
v -48.353 64.2116 47.0721
v -64.2704 64.2116 47.0721
v -64.2704 64.2116 47.0721
v -48.353 64.2116 47.0721
v -48.353 64.2116 -46.7805
v -64.2704 64.2116 -46.7805
v -64.2704 64.2116 -46.7805
v -48.353 64.2116 -46.7805
v -48.353 47.4037 -46.7805
v -64.2704 47.4037 -46.7805
v -64.2704 64.2116 -46.7805
v -64.2704 47.4037 -46.7805
v -64.2704 47.4037 47.0721
v -64.2704 64.2116 47.0721
v -48.353 47.4037 -46.7805
v -48.353 64.2116 -46.7805
v -48.353 64.2116 47.0721
v -48.353 47.4037 47.0721
v 64.1706 -47.3028 -46.7805
v -64.2982 -46.7519 -46.7805
v -64.363 -63.5594 -46.7805
v 64.1059 -64.1103 -46.7805
v 64.1706 -47.3024 -63.588
v 64.1706 -47.3028 -46.7805
v 64.1059 -64.1103 -46.7805
v 64.1059 -64.1099 -63.588
v -64.2982 -46.7519 -63.588
v 64.1706 -47.3024 -63.588
v 64.1059 -64.1099 -63.588
v -64.363 -63.5594 -63.588
v -64.2982 -46.7519 -46.7805
v -64.2982 -46.7519 -63.588
v -64.363 -63.5594 -63.588
v -64.363 -63.5594 -46.7805
v 64.1059 -64.1103 -46.7805
v -64.363 -63.5594 -46.7805
v -64.363 -63.5594 -63.588
v 64.1059 -64.1099 -63.588
v 64.1706 -47.3024 -63.588
v -64.2982 -46.7519 -63.588
v -64.2982 -46.7519 -46.7805
v 64.1706 -47.3028 -46.7805
v -48.4845 -46.6663 46.9198
v -48.4845 -46.6663 -46.7805
v -64.4019 -46.7427 -46.7805
v -64.4019 -46.7427 46.9198
v -48.4126 -63.4738 46.9198
v -48.4845 -46.6663 46.9198
v -64.4019 -46.7427 46.9198
v -64.3296 -63.5502 46.9198
v -48.4126 -63.4738 -46.7805
v -48.4126 -63.4738 46.9198
v -64.3296 -63.5502 46.9198
v -64.3296 -63.5502 -46.7805
v -48.4845 -46.6663 -46.7805
v -48.4126 -63.4738 -46.7805
v -64.3296 -63.5502 -46.7805
v -64.4019 -46.7427 -46.7805
v -64.4019 -46.7427 46.9198
v -64.4019 -46.7427 -46.7805
v -64.3296 -63.5502 -46.7805
v -64.3296 -63.5502 46.9198
v -48.4126 -63.4738 46.9198
v -48.4126 -63.4738 -46.7805
v -48.4845 -46.6663 -46.7805
v -48.4845 -46.6663 46.9198
v 48.3999 46.8527 -46.7805
v 48.3999 -47.2454 -46.7805
v 64.1384 -47.2454 -46.7805
v 64.1384 46.8527 -46.7805
v 48.3999 46.8527 -63.588
v 48.3999 46.8527 -46.7805
v 64.1384 46.8527 -46.7805
v 64.1384 46.8527 -63.588
v 48.3999 -47.2454 -63.588
v 48.3999 46.8527 -63.588
v 64.1384 46.8527 -63.588
v 64.1384 -47.2454 -63.588
v 48.3999 -47.2454 -46.7805
v 48.3999 -47.2454 -63.588
v 64.1384 -47.2454 -63.588
v 64.1384 -47.2454 -46.7805
v 64.1384 46.8527 -46.7805
v 64.1384 -47.2454 -46.7805
v 64.1384 -47.2454 -63.588
v 64.1384 46.8527 -63.588
v 48.3999 46.8527 -63.588
v 48.3999 -47.2454 -63.588
v 48.3999 -47.2454 -46.7805
v 48.3999 46.8527 -46.7805
v -64.3308 -46.809 -46.7805
v -49.1009 -46.809 -46.7805
v -49.1009 47.141 -46.7805
v -64.3308 47.141 -46.7805
v -64.3308 47.141 -46.7805
v -49.1009 47.141 -46.7805
v -49.1009 47.141 -63.588
v -64.3308 47.141 -63.588
v -64.3308 47.141 -63.588
v -49.1009 47.141 -63.588
v -49.1009 -46.809 -63.588
v -64.3308 -46.809 -63.588
v -64.3308 -46.809 -63.588
v -49.1009 -46.809 -63.588
v -49.1009 -46.809 -46.7805
v -64.3308 -46.809 -46.7805
v -64.3308 -46.809 -63.588
v -64.3308 -46.809 -46.7805
v -64.3308 47.141 -46.7805
v -64.3308 47.141 -63.588
v -49.1009 -46.809 -46.7805
v -49.1009 -46.809 -63.588
v -49.1009 47.141 -63.588
v -49.1009 47.141 -46.7805
v 64.5176 -47.3595 46.958
v 48.6002 -47.3595 47.0343
v 48.6002 46.5901 47.0343
v 64.5176 46.5901 46.958
v 64.5176 46.5901 46.958
v 48.6002 46.5901 47.0343
v 48.6725 46.5901 63.8796
v 64.59 46.5901 63.8037
v 64.59 46.5901 63.8037
v 48.6725 46.5901 63.8796
v 48.6725 -47.3595 63.8796
v 64.59 -47.3595 63.8037
v 64.59 -47.3595 63.8037
v 48.6725 -47.3595 63.8796
v 48.6002 -47.3595 47.0343
v 64.5176 -47.3595 46.958
v 64.59 -47.3595 63.8037
v 64.5176 -47.3595 46.958
v 64.5176 46.5901 46.958
v 64.59 46.5901 63.8037
v 48.6002 -47.3595 47.0343
v 48.6725 -47.3595 63.8796
v 48.6725 46.5901 63.8796
v 48.6002 46.5901 47.0343
v -64.328 -63.5401 46.9198
v -64.2632 -46.733 46.9962
v 64.392 -47.2835 46.9962
v 64.3276 -64.0906 46.9198
v 64.3276 -64.0906 46.9198
v 64.392 -47.2835 46.9962
v 64.392 -47.3595 63.8414
v 64.3272 -64.167 63.7655
v 64.3272 -64.167 63.7655
v 64.392 -47.3595 63.8414
v -64.2636 -46.809 63.8414
v -64.328 -63.6165 63.7655
v -64.328 -63.6165 63.7655
v -64.2636 -46.809 63.8414
v -64.2632 -46.733 46.9962
v -64.328 -63.5401 46.9198
v -64.328 -63.6165 63.7655
v -64.328 -63.5401 46.9198
v 64.3276 -64.0906 46.9198
v 64.3272 -64.167 63.7655
v -64.2632 -46.733 46.9962
v -64.2636 -46.809 63.8414
v 64.392 -47.3595 63.8414
v 64.392 -47.2835 46.9962
vt 0.115261 0.102249
vt 0.08147 0.102249
vt 0.08147 0.290706
vt 0.115261 0.290706
vt 0.697136 0.106669
vt 0.697289 0.140459
vt 0.731079 0.140306
vt 0.730926 0.106516
vt 0.076479 0.102249
vt 0.042688 0.102249
vt 0.042688 0.290706
vt 0.076479 0.290706
vt 0.512921 0.176853
vt 0.546712 0.177006
vt 0.546865 0.143215
vt 0.513074 0.143062
vt 0.886199 0.802789
vt 0.919989 0.802789
vt 0.919989 0.614332
vt 0.886199 0.614332
vt 0.919989 0.421027
vt 0.886198 0.421027
vt 0.886198 0.609484
vt 0.919989 0.609484
vt 0.120252 0.10225
vt 0.120252 0.290706
vt 0.154043 0.290706
vt 0.154043 0.10225
vt 0.551703 0.067904
vt 0.551703 0.101695
vt 0.585494 0.101695
vt 0.585494 0.067904
vt 0.886198 0.807637
vt 0.886198 0.996093
vt 0.919989 0.996093
vt 0.919989 0.807637
vt 0.624276 0.068437
vt 0.590485 0.068437
vt 0.590485 0.102228
vt 0.624276 0.102228
vt 0.159035 0.10225
vt 0.159035 0.290706
vt 0.192825 0.290706
vt 0.192825 0.10225
vt 0.231607 0.290706
vt 0.231607 0.10225
vt 0.197817 0.10225
vt 0.197817 0.290706
vt 0.522617 0.721989
vt 0.523723 0.996094
vt 0.557514 0.995957
vt 0.556407 0.721852
vt 0.551703 0.106696
vt 0.551856 0.140486
vt 0.585647 0.140333
vt 0.585493 0.106542
vt 0.480094 0.721851
vt 0.478987 0.995957
vt 0.512777 0.996094
vt 0.513884 0.721989
vt 0.736071 0.129433
vt 0.735918 0.163224
vt 0.769708 0.163377
vt 0.769861 0.129586
vt 0.692288 0.489046
vt 0.692288 0.763152
vt 0.726079 0.763153
vt 0.726079 0.489047
vt 0.532312 0.442898
vt 0.532312 0.717004
vt 0.566103 0.717004
vt 0.566103 0.442898
vt 0.880254 0.220877
vt 0.880254 0.031995
vt 0.847416 0.031995
vt 0.847416 0.220877
vt 0.192025 0.09725
vt 0.191872 0.063459
vt 0.159035 0.063612
vt 0.159188 0.097403
vt 0.957818 0.222381
vt 0.957818 0.033499
vt 0.924981 0.033499
vt 0.924981 0.222381
vt 0.091319 0.063459
vt 0.091166 0.097249
vt 0.124003 0.097402
vt 0.124156 0.063612
vt 0.319011 0.101825
vt 0.319011 0.290706
vt 0.352801 0.290706
vt 0.352801 0.101825
vt 0.847416 0.613185
vt 0.847416 0.802066
vt 0.881207 0.802066
vt 0.881207 0.613185
vt 0.610839 0.445383
vt 0.577049 0.445246
vt 0.575942 0.717969
vt 0.609732 0.718106
vt 0.50793 0.067072
vt 0.474139 0.067072
vt 0.474139 0.100863
vt 0.50793 0.100863
vt 0.649765 0.718499
vt 0.683556 0.718361
vt 0.682449 0.445638
vt 0.648658 0.445775
vt 0.730927 0.067877
vt 0.697136 0.067877
vt 0.697136 0.101668
vt 0.730927 0.101668
vt 0.721231 0.211474
vt 0.68744 0.211474
vt 0.68744 0.484198
vt 0.721231 0.484198
vt 0.803643 0.168225
vt 0.769852 0.168225
vt 0.769852 0.440949
vt 0.803643 0.440949
vt 0.241446 0.295554
vt 0.241446 0.525835
vt 0.471728 0.525835
vt 0.471728 0.295554
vt 0.003906 0.530683
vt 0.003906 0.760964
vt 0.234187 0.760964
vt 0.234187 0.530683
vt 0.241446 0.765812
vt 0.241446 0.996093
vt 0.471728 0.996093
vt 0.471728 0.765812
vt 0.471728 0.530683
vt 0.241446 0.530683
vt 0.241446 0.760964
vt 0.471728 0.760964
vt 0.003906 0.765812
vt 0.003906 0.996093
vt 0.234187 0.996093
vt 0.234187 0.765812
vt 0.234187 0.525835
vt 0.234187 0.295554
vt 0.003906 0.295554
vt 0.003906 0.525835
vt 0.391584 0.10202
vt 0.357793 0.10202
vt 0.357793 0.290706
vt 0.391584 0.290706
vt 0.842425 0.081112
vt 0.808634 0.081112
vt 0.808634 0.114902
vt 0.842425 0.114902
vt 0.396575 0.290706
vt 0.430366 0.290706
vt 0.430366 0.102021
vt 0.396575 0.102021
vt 0.735918 0.124586
vt 0.769709 0.124586
vt 0.769709 0.090795
vt 0.735918 0.090795
vt 0.037697 0.10202
vt 0.003906 0.10202
vt 0.003906 0.290706
vt 0.037697 0.290706
vt 0.435357 0.290706
vt 0.469148 0.290706
vt 0.469148 0.102021
vt 0.435357 0.102021
vt 0.522473 0.717121
vt 0.52358 0.444398
vt 0.489789 0.444261
vt 0.488682 0.716984
vt 0.50793 0.139501
vt 0.50793 0.10571
vt 0.474139 0.10571
vt 0.474139 0.139501
vt 0.688403 0.995957
vt 0.687297 0.723233
vt 0.653506 0.72337
vt 0.654613 0.996094
vt 0.512921 0.104424
vt 0.512921 0.138215
vt 0.546712 0.138215
vt 0.546712 0.104424
vt 0.803643 0.996093
vt 0.803643 0.723369
vt 0.769852 0.723369
vt 0.769852 0.996093
vt 0.803643 0.718521
vt 0.803643 0.445797
vt 0.769852 0.445797
vt 0.769852 0.718521
vt 0.958771 0.609637
vt 0.958771 0.421256
vt 0.924981 0.421256
vt 0.924981 0.609637
vt 0.595486 0.14102
vt 0.629277 0.140866
vt 0.629123 0.107076
vt 0.595333 0.107229
vt 0.958771 0.996093
vt 0.958771 0.807713
vt 0.924981 0.807713
vt 0.924981 0.996093
vt 0.7747 0.153409
vt 0.80849 0.153563
vt 0.808644 0.119772
vt 0.774853 0.119619
vt 0.958771 0.802865
vt 0.958771 0.614485
vt 0.924981 0.614485
vt 0.924981 0.802865
vt 0.886198 0.227799
vt 0.886198 0.41618
vt 0.919989 0.41618
vt 0.919989 0.227799
vt 0.924981 0.227229
vt 0.924981 0.416409
vt 0.958391 0.416409
vt 0.958391 0.227229
vt 0.512921 0.065785
vt 0.512921 0.099576
vt 0.546331 0.099576
vt 0.546331 0.065785
vt 0.886198 0.033772
vt 0.886198 0.222951
vt 0.919609 0.222951
vt 0.919609 0.033772
vt 0.197817 0.063612
vt 0.197817 0.097403
vt 0.231227 0.097403
vt 0.231227 0.063612
vt 0.808634 0.15841
vt 0.808634 0.34759
vt 0.842425 0.34759
vt 0.842425 0.15841
vt 0.847416 0.806914
vt 0.847416 0.996093
vt 0.881207 0.996093
vt 0.881207 0.806914
vt 0.963763 0.996093
vt 0.996094 0.996093
vt 0.996094 0.807212
vt 0.963763 0.807212
vt 0.435357 0.097173
vt 0.467688 0.097173
vt 0.467688 0.063382
vt 0.435357 0.063382
vt 0.658354 0.206626
vt 0.690685 0.206626
vt 0.690685 0.017745
vt 0.658354 0.017745
vt 0.042688 0.097402
vt 0.07502 0.097402
vt 0.075019 0.063611
vt 0.042688 0.063611
vt 0.241446 0.290706
vt 0.275237 0.290706
vt 0.275237 0.101825
vt 0.241446 0.101825
vt 0.280229 0.290706
vt 0.314019 0.290706
vt 0.314019 0.101825
vt 0.280229 0.101825
vt 0.881207 0.225725
vt 0.847416 0.225725
vt 0.847416 0.414607
vt 0.881207 0.414607
vt 0.474292 0.178369
vt 0.508083 0.178216
vt 0.507929 0.144349
vt 0.474139 0.144502
vt 0.881207 0.419455
vt 0.847416 0.419455
vt 0.847416 0.608337
vt 0.881207 0.608337
vt 0.609876 0.179691
vt 0.643667 0.179844
vt 0.64382 0.145977
vt 0.610029 0.145824
vt 0.808634 0.541319
vt 0.842502 0.541319
vt 0.842502 0.352437
vt 0.808634 0.352437
vt 0.808634 0.735049
vt 0.842502 0.735049
vt 0.842502 0.546167
vt 0.808634 0.546167
vt 0.643667 0.722836
vt 0.609876 0.722973
vt 0.610983 0.996094
vt 0.644773 0.995957
vt 0.730926 0.145199
vt 0.697136 0.145352
vt 0.697289 0.179219
vt 0.731079 0.179066
vt 0.601144 0.722973
vt 0.567353 0.722836
vt 0.566246 0.995956
vt 0.600037 0.996094
vt 0.556551 0.179201
vt 0.590341 0.179354
vt 0.590494 0.145487
vt 0.556704 0.145334
vt 0.764938 0.722971
vt 0.73107 0.722972
vt 0.73107 0.996093
vt 0.764938 0.996093
vt 0.764938 0.445002
vt 0.73107 0.445002
vt 0.73107 0.718123
vt 0.764938 0.718124
vn -0.004771 0.999989 0
vn -0.004771 0.999989 0
vn -0.004786 0.999989 0
vn -0.004786 0.999989 0
vn 0 -0 1
vn 0 -0 1
vn 0 -0 1
vn 0 -0 1
vn 0.004786 -0.999989 -0
vn 0.004786 -0.999989 -0
vn 0.004786 -0.999989 -0
vn 0.004786 -0.999989 -0
vn 0 0 -1
vn 0 0 -1
vn 0 0 -1
vn 0 0 -1
vn 0.999991 0.004293 0
vn 0.999991 0.004293 0
vn 0.999991 0.004293 0
vn 0.999991 0.004293 0
vn -0.999991 -0.004293 -0
vn -0.999991 -0.004293 -0
vn -0.999991 -0.004293 -0
vn -0.999991 -0.004293 -0
vn 0 -1 0
vn 0 -1 0
vn 0 -1 -0
vn 0 -1 -0
vn 0 -0 1
vn 0 -0 1
vn 0 -0 1
vn 0 -0 1
vn 0 1 0
vn 0 1 0
vn 0 1 0
vn 0 1 0
vn 0 0 -1
vn 0 0 -1
vn 0 0 -1
vn 0 0 -1
vn 1 0 0
vn 1 0 0
vn 1 0 0
vn 1 0 0
vn -1 0 0
vn -1 0 0
vn -1 0 0
vn -1 0 0
vn 1.9e-05 0.004519 -0.99999
vn 1.9e-05 0.004519 -0.99999
vn 1.9e-05 0.004533 -0.99999
vn 1.9e-05 0.004533 -0.99999
vn 0.999993 -0.003844 -0
vn 0.999993 -0.003844 -0
vn 0.999993 -0.003844 -0
vn 0.999993 -0.003844 -0
vn -1.9e-05 -0.004532 0.99999
vn -1.9e-05 -0.004532 0.99999
vn -1.9e-05 -0.004532 0.99999
vn -1.9e-05 -0.004532 0.99999
vn -0.999993 0.003843 0
vn -0.999993 0.003843 0
vn -0.999993 0.003843 0
vn -0.999993 0.003843 0
vn 0.004264 0.999981 0.004533
vn 0.004264 0.999981 0.004533
vn 0.004264 0.999981 0.004533
vn 0.004264 0.999981 0.004533
vn -0.004264 -0.999981 -0.004533
vn -0.004264 -0.999981 -0.004533
vn -0.004264 -0.999981 -0.004533
vn -0.004264 -0.999981 -0.004533
vn -0.00491 0 -0.999988
vn -0.00491 0 -0.999988
vn -0.004925 0 -0.999988
vn -0.004925 0 -0.999988
vn 0 1 0
vn 0 1 0
vn 0 1 0
vn 0 1 0
vn 0.004924 -0 0.999988
vn 0.004924 -0 0.999988
vn 0.004924 -0 0.999988
vn 0.004924 -0 0.999988
vn 0 -1 -0
vn 0 -1 -0
vn 0 -1 -0
vn 0 -1 -0
vn -0.999991 -0 0.004293
vn -0.999991 -0 0.004293
vn -0.999991 -0 0.004293
vn -0.999991 -0 0.004293
vn 0.999991 0 -0.004293
vn 0.999991 0 -0.004293
vn 0.999991 0 -0.004293
vn 0.999991 0 -0.004293
vn 0 0 1
vn 0 0 1
vn 0 -0 1
vn 0 -0 1
vn 0.999993 -0.003847 -0
vn 0.999993 -0.003847 -0
vn 0.999993 -0.003847 -0
vn 0.999993 -0.003847 -0
vn 0 0 -1
vn 0 0 -1
vn 0 0 -1
vn 0 0 -1
vn -0.999993 0.003843 0
vn -0.999993 0.003843 0
vn -0.999993 0.003843 0
vn -0.999993 0.003843 0
vn 0.004286 0.999991 0
vn 0.004286 0.999991 0
vn 0.004286 0.999991 0
vn 0.004286 0.999991 0
vn -0.004286 -0.999991 -0
vn -0.004286 -0.999991 -0
vn -0.004286 -0.999991 -0
vn -0.004286 -0.999991 -0
vn 0 -0 1
vn 0 -0 1
vn 0 -0 1
vn 0 -0 1
vn 0 1 0
vn 0 1 0
vn 0 1 0
vn 0 1 0
vn 0 0 -1
vn 0 0 -1
vn 0 0 -1
vn 0 0 -1
vn 0 -1 -0
vn 0 -1 -0
vn 0 -1 -0
vn 0 -1 -0
vn 1 0 0
vn 1 0 0
vn 1 0 0
vn 1 0 0
vn -1 0 0
vn -1 0 0
vn -1 0 0
vn -1 0 0
vn 0 -1 0
vn 0 -1 0
vn 0 -1 -0
vn 0 -1 -0
vn 0 -0 1
vn 0 -0 1
vn 0 -0 1
vn 0 -0 1
vn -1e-06 1 0
vn -1e-06 1 0
vn -1e-06 1 0
vn -1e-06 1 0
vn 1e-06 0 -1
vn 1e-06 0 -1
vn 1e-06 0 -1
vn 1e-06 0 -1
vn -1 0 0
vn -1 0 0
vn -1 0 0
vn -1 0 0
vn 1 0 0
vn 1 0 0
vn 1 0 0
vn 1 0 0
vn 0 0 1
vn 0 0 1
vn 0 -0 1
vn 0 -0 1
vn 0.999993 -0.003844 -0
vn 0.999993 -0.003844 -0
vn 0.999993 -0.003844 -0
vn 0.999993 -0.003844 -0
vn 0 0 -1
vn 0 0 -1
vn 0 0 -1
vn 0 0 -1
vn -0.999993 0.003844 0
vn -0.999993 0.003844 0
vn -0.999993 0.003844 0
vn -0.999993 0.003844 0
vn -0.004285 -0.999991 -0
vn -0.004285 -0.999991 -0
vn -0.004285 -0.999991 -0
vn -0.004285 -0.999991 -0
vn 0.004285 0.999991 0
vn 0.004285 0.999991 0
vn 0.004285 0.999991 0
vn 0.004285 0.999991 0
vn -0.004798 0.999989 0
vn -0.004798 0.999989 0
vn -0.004786 0.999989 0
vn -0.004786 0.999989 0
vn 0 -0 1
vn 0 -0 1
vn 0 -0 1
vn 0 -0 1
vn 0.004785 -0.999989 -0
vn 0.004785 -0.999989 -0
vn 0.004785 -0.999989 -0
vn 0.004785 -0.999989 -0
vn 0 0 -1
vn 0 0 -1
vn 0 0 -1
vn 0 0 -1
vn -0.999991 -0.004293 -0
vn -0.999991 -0.004293 -0
vn -0.999991 -0.004293 -0
vn -0.999991 -0.004293 -0
vn 0.999991 0.004293 0
vn 0.999991 0.004293 0
vn 0.999991 0.004293 0
vn 0.999991 0.004293 0
vn 0 0 1
vn 0 0 1
vn 0 -0 1
vn 0 -0 1
vn 0 1 0
vn 0 1 0
vn 0 1 0
vn 0 1 0
vn 0 0 -1
vn 0 0 -1
vn 0 0 -1
vn 0 0 -1
vn 0 -1 -0
vn 0 -1 -0
vn 0 -1 -0
vn 0 -1 -0
vn 1 0 0
vn 1 0 0
vn 1 0 0
vn 1 0 0
vn -1 0 0
vn -1 0 0
vn -1 0 0
vn -1 0 0
vn 0 0 1
vn 0 0 1
vn 0 -0 1
vn 0 -0 1
vn 0 1 0
vn 0 1 0
vn 0 1 0
vn 0 1 0
vn 0 0 -1
vn 0 0 -1
vn 0 0 -1
vn 0 0 -1
vn 0 -1 -0
vn 0 -1 -0
vn 0 -1 -0
vn 0 -1 -0
vn -1 0 0
vn -1 0 0
vn -1 0 0
vn -1 0 0
vn 1 0 0
vn 1 0 0
vn 1 0 0
vn 1 0 0
vn -0.004797 0 -0.999989
vn -0.004797 0 -0.999989
vn -0.004786 0 -0.999989
vn -0.004786 0 -0.999989
vn 0 1 0
vn 0 1 0
vn 0 1 0
vn 0 1 0
vn 0.004786 -0 0.999989
vn 0.004786 -0 0.999989
vn 0.004786 -0 0.999989
vn 0.004786 -0 0.999989
vn 0 -1 -0
vn 0 -1 -0
vn 0 -1 -0
vn 0 -1 -0
vn 0.999991 0 -0.004283
vn 0.999991 0 -0.004283
vn 0.999991 0 -0.004283
vn 0.999991 0 -0.004283
vn -0.999991 -0 0.004283
vn -0.999991 -0 0.004283
vn -0.999991 -0 0.004283
vn -0.999991 -0 0.004283
vn 1.9e-05 0.004544 -0.99999
vn 1.9e-05 0.004544 -0.99999
vn 1.9e-05 0.004533 -0.99999
vn 1.9e-05 0.004533 -0.99999
vn 0.999993 -0.003844 -0
vn 0.999993 -0.003844 -0
vn 0.999993 -0.003844 -0
vn 0.999993 -0.003844 -0
vn -1.9e-05 -0.004532 0.99999
vn -1.9e-05 -0.004532 0.99999
vn -1.9e-05 -0.004532 0.99999
vn -1.9e-05 -0.004532 0.99999
vn -0.999993 0.003843 0
vn -0.999993 0.003843 0
vn -0.999993 0.003843 0
vn -0.999993 0.003843 0
vn -0.00428 -0.999981 -0.004523
vn -0.00428 -0.999981 -0.004523
vn -0.00428 -0.999981 -0.004523
vn -0.00428 -0.999981 -0.004523
vn 0.00428 0.999981 0.004522
vn 0.00428 0.999981 0.004522
vn 0.00428 0.999981 0.004522
vn 0.00428 0.999981 0.004522

g polySurface29_0
usemtl crate:openPBR_shader1
f 1/1/1 2/2/2 3/3/3
f 1/1/1 3/3/3 4/4/4
f 5/5/5 6/6/6 7/7/7
f 5/5/5 7/7/7 8/8/8
f 9/9/9 10/10/10 11/11/11
f 9/9/9 11/11/11 12/12/12
f 13/13/13 14/14/14 15/15/15
f 13/13/13 15/15/15 16/16/16
f 17/17/17 18/18/18 19/19/19
f 17/17/17 19/19/19 20/20/20
f 21/21/21 22/22/22 23/23/23
f 21/21/21 23/23/23 24/24/24
f 25/25/25 26/26/26 27/27/27
f 25/25/25 27/27/27 28/28/28
f 29/29/29 30/30/30 31/31/31
f 29/29/29 31/31/31 32/32/32
f 33/33/33 34/34/34 35/35/35
f 33/33/33 35/35/35 36/36/36
f 37/37/37 38/38/38 39/39/39
f 37/37/37 39/39/39 40/40/40
f 41/41/41 42/42/42 43/43/43
f 41/41/41 43/43/43 44/44/44
f 45/45/45 46/46/46 47/47/47
f 45/45/45 47/47/47 48/48/48
f 49/49/49 50/50/50 51/51/51
f 49/49/49 51/51/51 52/52/52
f 53/53/53 54/54/54 55/55/55
f 53/53/53 55/55/55 56/56/56
f 57/57/57 58/58/58 59/59/59
f 57/57/57 59/59/59 60/60/60
f 61/61/61 62/62/62 63/63/63
f 61/61/61 63/63/63 64/64/64
f 65/65/65 66/66/66 67/67/67
f 65/65/65 67/67/67 68/68/68
f 69/69/69 70/70/70 71/71/71
f 69/69/69 71/71/71 72/72/72
f 73/73/73 74/74/74 75/75/75
f 73/73/73 75/75/75 76/76/76
f 77/77/77 78/78/78 79/79/79
f 77/77/77 79/79/79 80/80/80
f 81/81/81 82/82/82 83/83/83
f 81/81/81 83/83/83 84/84/84
f 85/85/85 86/86/86 87/87/87
f 85/85/85 87/87/87 88/88/88
f 89/89/89 90/90/90 91/91/91
f 89/89/89 91/91/91 92/92/92
f 93/93/93 94/94/94 95/95/95
f 93/93/93 95/95/95 96/96/96
f 97/97/97 98/98/98 99/99/99
f 97/97/97 99/99/99 100/100/100
f 101/101/101 102/102/102 103/103/103
f 101/101/101 103/103/103 104/104/104
f 105/105/105 106/106/106 107/107/107
f 105/105/105 107/107/107 108/108/108
f 109/109/109 110/110/110 111/111/111
f 109/109/109 111/111/111 112/112/112
f 113/113/113 114/114/114 115/115/115
f 113/113/113 115/115/115 116/116/116
f 117/117/117 118/118/118 119/119/119
f 117/117/117 119/119/119 120/120/120
f 121/121/121 122/122/122 123/123/123
f 121/121/121 123/123/123 124/124/124
f 125/125/125 126/126/126 127/127/127
f 125/125/125 127/127/127 128/128/128
f 129/129/129 130/130/130 131/131/131
f 129/129/129 131/131/131 132/132/132
f 133/133/133 134/134/134 135/135/135
f 133/133/133 135/135/135 136/136/136
f 137/137/137 138/138/138 139/139/139
f 137/137/137 139/139/139 140/140/140
f 141/141/141 142/142/142 143/143/143
f 141/141/141 143/143/143 144/144/144
f 145/145/145 146/146/146 147/147/147
f 145/145/145 147/147/147 148/148/148
f 149/149/149 150/150/150 151/151/151
f 149/149/149 151/151/151 152/152/152
f 153/153/153 154/154/154 155/155/155
f 153/153/153 155/155/155 156/156/156
f 157/157/157 158/158/158 159/159/159
f 157/157/157 159/159/159 160/160/160
f 161/161/161 162/162/162 163/163/163
f 161/161/161 163/163/163 164/164/164
f 165/165/165 166/166/166 167/167/167
f 165/165/165 167/167/167 168/168/168
f 169/169/169 170/170/170 171/171/171
f 169/169/169 171/171/171 172/172/172
f 173/173/173 174/174/174 175/175/175
f 173/173/173 175/175/175 176/176/176
f 177/177/177 178/178/178 179/179/179
f 177/177/177 179/179/179 180/180/180
f 181/181/181 182/182/182 183/183/183
f 181/181/181 183/183/183 184/184/184
f 185/185/185 186/186/186 187/187/187
f 185/185/185 187/187/187 188/188/188
f 189/189/189 190/190/190 191/191/191
f 189/189/189 191/191/191 192/192/192
f 193/193/193 194/194/194 195/195/195
f 193/193/193 195/195/195 196/196/196
f 197/197/197 198/198/198 199/199/199
f 197/197/197 199/199/199 200/200/200
f 201/201/201 202/202/202 203/203/203
f 201/201/201 203/203/203 204/204/204
f 205/205/205 206/206/206 207/207/207
f 205/205/205 207/207/207 208/208/208
f 209/209/209 210/210/210 211/211/211
f 209/209/209 211/211/211 212/212/212
f 213/213/213 214/214/214 215/215/215
f 213/213/213 215/215/215 216/216/216
f 217/217/217 218/218/218 219/219/219
f 217/217/217 219/219/219 220/220/220
f 221/221/221 222/222/222 223/223/223
f 221/221/221 223/223/223 224/224/224
f 225/225/225 226/226/226 227/227/227
f 225/225/225 227/227/227 228/228/228
f 229/229/229 230/230/230 231/231/231
f 229/229/229 231/231/231 232/232/232
f 233/233/233 234/234/234 235/235/235
f 233/233/233 235/235/235 236/236/236
f 237/237/237 238/238/238 239/239/239
f 237/237/237 239/239/239 240/240/240
f 241/241/241 242/242/242 243/243/243
f 241/241/241 243/243/243 244/244/244
f 245/245/245 246/246/246 247/247/247
f 245/245/245 247/247/247 248/248/248
f 249/249/249 250/250/250 251/251/251
f 249/249/249 251/251/251 252/252/252
f 253/253/253 254/254/254 255/255/255
f 253/253/253 255/255/255 256/256/256
f 257/257/257 258/258/258 259/259/259
f 257/257/257 259/259/259 260/260/260
f 261/261/261 262/262/262 263/263/263
f 261/261/261 263/263/263 264/264/264
f 265/265/265 266/266/266 267/267/267
f 265/265/265 267/267/267 268/268/268
f 269/269/269 270/270/270 271/271/271
f 269/269/269 271/271/271 272/272/272
f 273/273/273 274/274/274 275/275/275
f 273/273/273 275/275/275 276/276/276
f 277/277/277 278/278/278 279/279/279
f 277/277/277 279/279/279 280/280/280
f 281/281/281 282/282/282 283/283/283
f 281/281/281 283/283/283 284/284/284
f 285/285/285 286/286/286 287/287/287
f 285/285/285 287/287/287 288/288/288
f 289/289/289 290/290/290 291/291/291
f 289/289/289 291/291/291 292/292/292
f 293/293/293 294/294/294 295/295/295
f 293/293/293 295/295/295 296/296/296
f 297/297/297 298/298/298 299/299/299
f 297/297/297 299/299/299 300/300/300
f 301/301/301 302/302/302 303/303/303
f 301/301/301 303/303/303 304/304/304
f 305/305/305 306/306/306 307/307/307
f 305/305/305 307/307/307 308/308/308
f 309/309/309 310/310/310 311/311/311
f 309/309/309 311/311/311 312/312/312
