# This file uses centimeters as units for non-parametric coordinates.

mtllib teleporter_01_b.mtl
g default
v 57.543747 -1.783699 2.302900
v 59.498455 -5.299319 2.302900
v 45.267212 -5.299319 5.424775
v 36.365578 -1.783699 5.424775
v 36.365578 -1.769636 -12.350269
v 45.267212 -5.299319 -12.659599
v 59.498455 -5.299319 -9.551791
v 57.543747 -1.783699 -9.551791
v -36.365578 -1.769636 -12.350269
v -57.543747 -1.783699 -9.551791
v -59.498455 -5.299319 -9.551791
v -45.267212 -5.299319 -12.659599
v -45.267212 -5.299319 5.424775
v -57.543747 -1.783699 2.302900
v -36.365578 -1.783699 5.424775
v -59.498455 -5.299319 2.302900
v -45.267212 -10.235261 5.424775
v -59.498455 -5.299319 2.302900
v -45.267212 -5.299319 5.424775
v -59.498455 -10.235261 2.302900
v -59.498455 -5.299319 -9.551791
v -59.498455 -10.235261 -9.551791
v -45.267212 -10.235261 -12.659599
v -45.267212 -5.299319 -12.659599
v 45.267212 -10.235261 -12.659599
v 59.498455 -5.299319 -9.551791
v 45.267212 -5.299319 -12.659599
v 59.498455 -10.235261 -9.551791
v 59.498455 -5.299319 2.302900
v 59.498455 -10.235261 2.302900
v 45.267212 -10.235261 5.424775
v 45.267212 -5.299319 5.424775
v 36.801537 -1.811819 -3.842412
v 36.365578 -1.769636 -12.350269
v 57.543747 -1.783699 -9.551791
v 57.543747 -1.783699 2.302900
v 36.365578 -1.783699 5.424775
v -57.543747 -1.783699 2.302900
v -36.801537 -1.811819 -3.842412
v -36.365578 -1.783699 5.424775
v -57.543747 -1.783699 -9.551791
v -36.365578 -1.769636 -12.350269
v 36.365578 -1.783699 5.424775
v 35.831249 -1.783699 7.984150
v 34.692211 1.956931 5.424775
v 34.692211 8.397529 -6.162724
v 36.801537 -1.811819 -3.842412
v 34.692211 3.841297 -1.240849
v -34.692211 8.397529 -6.162724
v -34.692211 3.841297 -1.240849
v -36.801537 -1.811819 -3.842412
v -36.365578 -1.783699 5.424775
v -34.692211 1.956931 5.424775
v -35.831249 -1.783699 7.984150
v -8.043750 1.956931 33.057610
v 8.043750 1.956931 33.057610
v 0.000000 1.956931 33.985687
v -8.029692 134.116638 -8.595541
v 0.000000 135.044525 -8.595541
v 8.043750 134.116638 -8.595541
v -36.084419 106.483040 -12.350269
v -44.915581 106.483040 -15.865849
v -44.240578 112.755135 -15.865849
v -45.267212 -5.299319 -12.659599
v -45.267212 -1.769636 -15.865849
v -36.365578 -1.769636 -12.350269
v 45.267212 -5.299319 -12.659599
v 36.365578 -1.769636 -12.350269
v 45.267212 -1.769636 -15.865849
v 36.084419 106.483040 -12.350269
v 44.240578 112.755135 -15.865849
v 44.915581 106.483040 -15.865849
v -36.365578 8.116279 -12.350269
v -34.692211 8.397529 -6.162724
v -36.365578 -1.769636 -12.350269
v -36.365578 -1.769636 -12.350269
v -34.692211 8.397529 -6.162724
v -36.801537 -1.811819 -3.842412
v 36.365578 8.116279 -12.350269
v 36.365578 -1.769636 -12.350269
v 34.692211 8.397529 -6.162724
v 34.692211 8.397529 -6.162724
v 36.365578 -1.769636 -12.350269
v 36.801537 -1.811819 -3.842412
v 45.267212 16.483488 -15.865849
v 36.365578 8.116279 -12.350269
v 36.365578 16.483488 -12.350269
v 45.267212 8.116279 -15.865849
v 45.267212 8.116279 -15.865849
v 36.365578 -1.769636 -12.350269
v 36.365578 8.116279 -12.350269
v 45.267212 -1.769636 -15.865849
v 45.267212 16.483488 -15.865849
v 36.365578 97.483040 -12.350269
v 45.267212 97.483040 -15.865849
v 36.365578 16.483488 -12.350269
v 45.267212 97.483040 -15.865849
v 36.365578 97.483040 -12.350269
v 44.915581 106.483040 -15.865849
v 36.084419 106.483040 -12.350269
v 8.409375 136.436829 -12.350269
v 0.000000 137.407028 -12.350269
v 10.462500 145.380142 -15.865849
v 0.000000 146.575333 -15.865849
v 16.157789 133.666641 -12.350269
v 20.109419 141.921432 -15.865849
v 22.992208 129.321442 -12.350269
v 28.617208 136.422440 -15.865849
v 28.687500 123.625328 -12.350269
v 35.718750 129.419525 -15.865849
v 33.046917 116.791641 -12.350269
v 40.907787 121.249329 -15.865849
v 36.084419 106.483040 -12.350269
v 44.240578 112.755135 -15.865849
v 45.267212 -10.235261 -12.659599
v 45.267212 -5.299319 -12.659599
v 45.267212 -10.235261 -15.865849
v 45.267212 -10.235261 -15.865849
v 45.267212 -5.299319 -12.659599
v 45.267212 -1.769636 -15.865849
v 36.365578 -1.783699 5.424775
v 44.592209 -5.299319 10.023190
v 35.831249 -1.783699 7.984150
v 45.267212 -5.299319 5.424775
v 41.132786 -5.299319 19.684151
v 33.046917 -1.783699 15.732610
v 35.732788 -5.299319 28.191938
v 28.687500 -1.783699 22.566940
v 28.631248 -5.299319 35.279438
v 23.006248 -1.783699 28.262230
v 16.171919 -1.783699 32.607613
v 20.123459 -5.299319 40.693565
v 8.409375 -1.783699 35.377899
v 10.476540 -5.299319 44.152901
v 0.000000 -5.299319 45.348190
v 0.000000 -1.783699 36.348190
v 59.498455 -5.299319 -9.551791
v 59.498455 -10.235261 2.302900
v 59.498455 -5.299319 2.302900
v 59.498455 -10.235261 -9.551791
v -45.267212 -10.235261 -12.659599
v -45.267212 -10.235261 -15.865849
v -45.267212 -5.299319 -12.659599
v -45.267212 -5.299319 -12.659599
v -45.267212 -10.235261 -15.865849
v -45.267212 -1.769636 -15.865849
v -33.046917 116.791641 -12.350269
v -40.907787 121.249329 -15.865849
v -28.687500 123.625328 -12.350269
v -35.718750 129.419525 -15.865849
v -22.992208 129.321442 -12.350269
v -28.617208 136.422440 -15.865849
v -16.157789 133.666641 -12.350269
v -20.109419 141.921432 -15.865849
v -8.409375 136.436829 -12.350269
v -10.462500 145.380142 -15.865849
v 27.379709 121.882027 -8.595541
v -31.514038 115.357040 -8.595541
v -27.365580 121.882027 -8.595541
v 31.528080 115.357040 -8.595541
v 34.410961 106.483040 -8.595541
v -34.410961 106.483040 -8.595541
v 15.426539 131.472427 -8.595541
v -21.923460 127.324326 -8.595541
v -15.412499 131.472427 -8.595541
v 21.937500 127.324326 -8.595541
v -45.267212 97.483040 -15.865849
v -44.915581 106.483040 -15.865849
v -36.365578 97.483040 -12.350269
v -36.084419 106.483040 -12.350269
v -34.692211 97.483040 -8.595541
v 34.692211 97.483040 -8.595541
v -34.692211 16.483488 -8.595541
v 34.692211 16.483488 -8.595541
v -45.267212 16.483488 -15.865849
v -36.365578 97.483040 -12.350269
v -36.365578 16.483488 -12.350269
v -45.267212 97.483040 -15.865849
v -45.267212 8.116279 -15.865849
v -36.365578 -1.769636 -12.350269
v -45.267212 -1.769636 -15.865849
v -36.365578 8.116279 -12.350269
v -45.267212 16.483488 -15.865849
v -36.365578 8.116279 -12.350269
v -45.267212 8.116279 -15.865849
v -36.365578 16.483488 -12.350269
v -34.692211 8.397529 -6.162724
v 34.692211 8.397529 -6.162724
v -15.412499 1.956931 30.413860
v 15.426539 1.956931 30.413860
v -21.937500 1.956931 26.265400
v -27.365580 1.956931 20.823191
v 21.937500 1.956931 26.265400
v 27.379709 1.956931 20.823191
v -31.528080 1.956931 14.298190
v 34.692211 1.956931 5.424775
v 31.528080 1.956931 14.298190
v -34.692211 1.956931 5.424775
v -59.498455 -5.299319 -9.551791
v -59.498455 -10.235261 2.302900
v -59.498455 -10.235261 -9.551791
v -59.498455 -5.299319 2.302900
v -8.409375 -1.783699 35.377899
v 0.000000 -5.299319 45.348190
v -10.476540 -5.299319 44.152901
v 0.000000 -1.783699 36.348190
v -16.171919 -1.783699 32.607613
v -20.123459 -5.299319 40.693565
v -23.006248 -1.783699 28.262230
v -28.631248 -5.299319 35.279438
v -28.687500 -1.783699 22.566940
v -35.732788 -5.299319 28.191938
v -33.046917 -1.783699 15.732610
v -41.132786 -5.299319 19.684151
v -35.831249 -1.783699 7.984150
v -44.592209 -5.299319 10.023190
v -36.365578 -1.783699 5.424775
v -45.267212 -5.299319 5.424775
v 34.692211 3.841297 -1.240849
v -34.692211 8.397529 -6.162724
v 34.692211 8.397529 -6.162724
v -34.692211 3.841297 -1.240849
v -45.267212 -5.299319 5.424775
v -44.592209 -10.235261 10.023190
v -45.267212 -10.235261 5.424775
v -44.592209 -5.299319 10.023190
v -41.132786 -10.235261 19.684151
v -41.132786 -5.299319 19.684151
v -35.732788 -10.235261 28.191938
v -35.732788 -5.299319 28.191938
v -28.631248 -10.235261 35.279438
v -28.631248 -5.299319 35.279438
v -20.123459 -10.235261 40.693565
v -20.123459 -5.299319 40.693565
v -10.476540 -10.235261 44.152901
v -10.476540 -5.299319 44.152901
v 0.000000 -10.235261 45.348190
v 0.000000 -5.299319 45.348190
v -45.267212 16.483488 -21.420559
v -45.267212 8.116279 -15.865849
v -45.267212 8.116279 -21.420559
v -45.267212 16.483488 -15.865849
v -45.267212 8.116279 -21.420559
v -45.267212 -1.769636 -15.865849
v -45.267212 -1.769636 -21.420559
v -45.267212 8.116279 -15.865849
v -45.267212 -1.769636 -21.420559
v -45.267212 -10.235261 -15.865849
v -45.267212 -10.235261 -21.420559
v -45.267212 -1.769636 -21.420559
v -45.267212 -1.769636 -15.865849
v -45.267212 -10.235261 -15.865849
v -45.267212 16.483488 -21.420559
v -45.267212 97.483040 -15.865849
v -45.267212 16.483488 -15.865849
v -45.267212 97.483040 -21.420559
v -45.267212 97.483040 -21.420559
v -44.915581 106.483040 -15.865849
v -45.267212 97.483040 -15.865849
v -44.915581 106.483040 -21.420559
v -10.462500 145.380142 -15.865849
v 0.000000 146.575333 -21.420559
v 0.000000 146.575333 -15.865849
v -10.462500 145.380142 -21.420559
v -20.109419 141.921432 -15.865849
v -20.109419 141.921432 -21.420559
v -28.617208 136.422440 -15.865849
v -28.617208 136.422440 -21.420559
v -35.718750 129.419525 -15.865849
v -35.718750 129.419525 -21.420559
v -40.907787 121.249329 -15.865849
v -40.907787 121.249329 -21.420559
v -44.240578 112.755135 -15.865849
v -44.240578 112.755135 -21.420559
v -44.915581 106.483040 -15.865849
v -44.915581 106.483040 -21.420559
v -44.240578 112.755135 -15.865849
v -44.240578 112.755135 -21.420559
v -31.514038 115.357040 -8.595541
v -36.084419 106.483040 -12.350269
v -33.046917 116.791641 -12.350269
v -34.410961 106.483040 -8.595541
v -27.365580 121.882027 -8.595541
v -28.687500 123.625328 -12.350269
v -21.923460 127.324326 -8.595541
v -22.992208 129.321442 -12.350269
v -15.412499 131.472427 -8.595541
v -16.157789 133.666641 -12.350269
v -8.029692 134.116638 -8.595541
v -8.409375 136.436829 -12.350269
v 0.000000 135.044525 -8.595541
v 0.000000 137.407028 -12.350269
v -34.692211 97.483040 -8.595541
v -36.365578 97.483040 -12.350269
v -34.692211 16.483488 -8.595541
v -36.365578 97.483040 -12.350269
v -34.692211 97.483040 -8.595541
v -34.692211 16.483488 -8.595541
v -36.365578 16.483488 -12.350269
v -34.692211 8.397529 -6.162724
v -36.365578 8.116279 -12.350269
v -34.692211 16.483488 -8.595541
v -8.409375 -1.783699 35.377899
v 0.000000 1.956931 33.985687
v 0.000000 -1.783699 36.348190
v -8.043750 1.956931 33.057610
v -16.171919 -1.783699 32.607613
v -15.412499 1.956931 30.413860
v -23.006248 -1.783699 28.262230
v -21.937500 1.956931 26.265400
v -28.687500 -1.783699 22.566940
v -27.365580 1.956931 20.823191
v -33.046917 -1.783699 15.732610
v -31.528080 1.956931 14.298190
v -34.692211 3.841297 -1.240849
v -36.365578 -1.783699 5.424775
v -36.801537 -1.811819 -3.842412
v -34.692211 1.956931 5.424775
v 34.692211 3.841297 -1.240849
v 36.365578 -1.783699 5.424775
v 34.692211 1.956931 5.424775
v 36.801537 -1.811819 -3.842412
v 31.528080 1.956931 14.298190
v 33.046917 -1.783699 15.732610
v 27.365580 1.956931 20.823191
v 28.687500 -1.783699 22.566940
v 21.937500 1.956931 26.265400
v 23.006248 -1.783699 28.262230
v 15.412499 1.956931 30.413860
v 16.171919 -1.783699 32.607613
v 8.043750 1.956931 33.057610
v 8.409375 -1.783699 35.377899
v 0.000000 1.956931 33.985687
v 0.000000 -1.783699 36.348190
v 34.692211 8.397529 -6.162724
v 34.692211 16.483488 -8.595541
v 36.365578 8.116279 -12.350269
v 36.365578 16.483488 -12.350269
v 34.692211 16.483488 -8.595541
v 36.365578 97.483040 -12.350269
v 34.692211 16.483488 -8.595541
v 34.692211 97.483040 -8.595541
v 36.365578 97.483040 -12.350269
v 34.692211 97.483040 -8.595541
v 36.084419 106.483040 -12.350269
v 34.410961 106.483040 -8.595541
v 8.409375 136.436829 -12.350269
v 0.000000 135.044525 -8.595541
v 0.000000 137.407028 -12.350269
v 8.029692 134.116638 -8.595541
v 16.157789 133.666641 -12.350269
v 15.412499 131.472427 -8.595541
v 22.992208 129.321442 -12.350269
v 21.923460 127.324326 -8.595541
v 28.687500 123.625328 -12.350269
v 27.365580 121.882027 -8.595541
v 33.046917 116.791641 -12.350269
v 31.514038 115.357040 -8.595541
v 10.476540 -5.299319 44.152901
v 0.000000 -10.235261 45.348190
v 0.000000 -5.299319 45.348190
v 10.476540 -10.235261 44.152901
v 20.123459 -5.299319 40.693565
v 20.123459 -10.235261 40.693565
v 28.631248 -5.299319 35.279438
v 28.631248 -10.235261 35.279438
v 35.732788 -5.299319 28.191938
v 35.732788 -10.235261 28.191938
v 41.132786 -5.299319 19.684151
v 41.132786 -10.235261 19.684151
v 44.592209 -5.299319 10.023190
v 44.592209 -10.235261 10.023190
v 45.267212 -5.299319 5.424775
v 45.267212 -10.235261 5.424775
v 44.915581 106.483040 -15.865849
v 44.240578 112.755135 -15.865849
v 44.915581 106.483040 -21.420559
v 44.240578 112.755135 -21.420559
v 44.240578 112.755135 -15.865849
v 40.907787 121.249329 -21.420559
v 44.240578 112.755135 -21.420559
v 44.240578 112.755135 -15.865849
v 40.907787 121.249329 -15.865849
v 35.718750 129.419525 -21.420559
v 35.718750 129.419525 -15.865849
v 28.617208 136.422440 -15.865849
v 28.617208 136.422440 -21.420559
v 20.109419 141.921432 -15.865849
v 20.109419 141.921432 -21.420559
v 10.462500 145.380142 -15.865849
v 10.462500 145.380142 -21.420559
v 45.267212 97.483040 -21.420559
v 44.915581 106.483040 -15.865849
v 44.915581 106.483040 -21.420559
v 45.267212 97.483040 -15.865849
v 45.267212 16.483488 -21.420559
v 45.267212 97.483040 -15.865849
v 45.267212 97.483040 -21.420559
v 45.267212 16.483488 -15.865849
v 45.267212 -1.769636 -21.420559
v 45.267212 -10.235261 -15.865849
v 45.267212 -1.769636 -15.865849
v 45.267212 -1.769636 -21.420559
v 45.267212 -10.235261 -21.420559
v 45.267212 -10.235261 -15.865849
v 45.267212 8.116279 -21.420559
v 45.267212 -1.769636 -15.865849
v 45.267212 8.116279 -15.865849
v 45.267212 -1.769636 -21.420559
v 45.267212 16.483488 -21.420559
v 45.267212 8.116279 -15.865849
v 45.267212 16.483488 -15.865849
v 45.267212 8.116279 -21.420559
v -59.498455 -5.299319 -9.551791
v -57.543747 -1.783699 2.302900
v -59.498455 -5.299319 2.302900
v -57.543747 -1.783699 -9.551791
v 57.543747 -1.783699 2.302900
v 59.498455 -5.299319 -9.551791
v 59.498455 -5.299319 2.302900
v 57.543747 -1.783699 -9.551791
vt 0.867889 0.365235
vt 0.782953 0.346703
vt 0.884427 0.355357
vt 0.729318 0.346703
vt 0.729318 0.460915
vt 0.884427 0.452261
vt 0.782953 0.460915
vt 0.867889 0.442384
vt 0.290491 0.460915
vt 0.135382 0.452261
vt 0.151919 0.442384
vt 0.236856 0.460915
vt 0.236856 0.346703
vt 0.290491 0.346703
vt 0.151919 0.365235
vt 0.135382 0.355357
vt 0.211185 0.317253
vt 0.236856 0.346703
vt 0.135382 0.355357
vt 0.094904 0.340498
vt 0.135382 0.452261
vt 0.211185 0.490366
vt 0.094904 0.467121
vt 0.236856 0.460915
vt 0.808624 0.490366
vt 0.782953 0.460915
vt 0.884427 0.452261
vt 0.924904 0.467121
vt 0.884427 0.355357
vt 0.808624 0.317253
vt 0.924904 0.340498
vt 0.782953 0.346703
vt 0.729318 0.405205
vt 0.867889 0.442376
vt 0.729320 0.460373
vt 0.867889 0.365235
vt 0.729318 0.346703
vt 0.151919 0.365235
vt 0.290491 0.346703
vt 0.290491 0.405205
vt 0.151919 0.442376
vt 0.290489 0.460373
vt 0.982881 0.182953
vt 0.960420 0.233130
vt 0.982881 0.233211
vt 0.960557 0.187996
vt 0.960557 0.225043
vt 0.982839 0.182431
vt 0.047126 0.200579
vt 0.024844 0.200516
vt 0.047126 0.225043
vt 0.024802 0.182953
vt 0.024802 0.233211
vt 0.047263 0.233130
vt 0.462691 0.151913
vt 0.509772 0.146481
vt 0.556854 0.151913
vt 0.462691 0.877538
vt 0.556854 0.877538
vt 0.509772 0.882970
vt 0.296291 0.296482
vt 0.244059 0.284294
vt 0.237537 0.307045
vt 0.243634 0.603779
vt 0.287872 0.669774
vt 0.236224 0.663155
vt 0.773262 0.603779
vt 0.780672 0.663155
vt 0.729024 0.669774
vt 0.713772 0.263683
vt 0.777143 0.306572
vt 0.771276 0.275022
vt 0.024844 0.200516
vt 0.024925 0.214819
vt 0.047126 0.225043
vt 0.024925 0.214819
vt 0.025106 0.225061
vt 0.047126 0.225043
vt 0.982839 0.182431
vt 0.960557 0.225043
vt 0.982758 0.214819
vt 0.960557 0.225043
vt 0.982577 0.225061
vt 0.982758 0.214819
vt 0.780055 0.914034
vt 0.726420 0.914069
vt 0.726300 0.843928
vt 0.779971 0.843928
vt 0.780029 0.913966
vt 0.726394 0.914001
vt 0.726494 0.843909
vt 0.779945 0.843909
vt 0.779935 0.843928
vt 0.780055 0.914069
vt 0.726384 0.914069
vt 0.726300 0.843963
vt 0.780044 0.914045
vt 0.780164 0.843904
vt 0.726409 0.914010
vt 0.726493 0.843904
vt 0.560089 0.133200
vt 0.572277 0.080968
vt 0.509831 0.127401
vt 0.509831 0.073766
vt 0.606243 0.149714
vt 0.629818 0.101538
vt 0.646971 0.175622
vt 0.680528 0.133782
vt 0.680949 0.209601
vt 0.722790 0.176044
vt 0.706857 0.250328
vt 0.755033 0.226753
vt 0.725771 0.307682
vt 0.771603 0.274694
vt 0.806081 0.579207
vt 0.803953 0.621925
vt 0.771545 0.579388
vt 0.803953 0.621925
vt 0.781385 0.621925
vt 0.771545 0.579388
vt 0.729318 0.346738
vt 0.723519 0.296480
vt 0.775751 0.284292
vt 0.782953 0.346703
vt 0.707005 0.250326
vt 0.755181 0.226751
vt 0.681097 0.209599
vt 0.722938 0.176041
vt 0.647119 0.175620
vt 0.680676 0.133779
vt 0.606391 0.149712
vt 0.629966 0.101536
vt 0.560237 0.133198
vt 0.572425 0.080966
vt 0.509979 0.127399
vt 0.509979 0.073764
vt 0.884368 0.452385
vt 0.884427 0.355357
vt 0.924904 0.340498
vt 0.924957 0.467044
vt 0.210815 0.579207
vt 0.245351 0.579388
vt 0.212943 0.621925
vt 0.245351 0.579388
vt 0.235511 0.621925
vt 0.212943 0.621925
vt 0.312806 0.250328
vt 0.264629 0.226753
vt 0.338713 0.209601
vt 0.296873 0.176044
vt 0.372692 0.175622
vt 0.339135 0.133782
vt 0.413420 0.149714
vt 0.389845 0.101538
vt 0.459573 0.133200
vt 0.447385 0.080968
vt 0.670032 0.805927
vt 0.349513 0.805927
vt 0.325232 0.767735
vt 0.694313 0.767735
vt 0.308281 0.715797
vt 0.711264 0.715797
vt 0.600067 0.862063
vt 0.419478 0.862063
vt 0.381368 0.837782
vt 0.638177 0.837782
vt 0.236852 0.914045
vt 0.290487 0.914010
vt 0.236732 0.843904
vt 0.290403 0.843904
vt 0.306695 0.663118
vt 0.712850 0.663118
vt 0.306695 0.439008
vt 0.712850 0.439008
vt 0.236961 0.843928
vt 0.290596 0.843963
vt 0.290511 0.914069
vt 0.236841 0.914069
vt 0.236867 0.913966
vt 0.236951 0.843909
vt 0.290402 0.843909
vt 0.290502 0.914001
vt 0.236841 0.914034
vt 0.236925 0.843928
vt 0.290596 0.843928
vt 0.290476 0.914069
vt 0.306695 0.391682
vt 0.712850 0.391682
vt 0.600067 0.167388
vt 0.419477 0.167388
vt 0.381368 0.191669
vt 0.638177 0.191669
vt 0.349513 0.223524
vt 0.670032 0.223524
vt 0.325232 0.261716
vt 0.694313 0.261716
vt 0.712850 0.313654
vt 0.306695 0.313654
vt 0.135440 0.452385
vt 0.094852 0.467044
vt 0.094904 0.340498
vt 0.135382 0.355357
vt 0.459571 0.133198
vt 0.447383 0.080966
vt 0.509829 0.073764
vt 0.509829 0.127399
vt 0.413418 0.149712
vt 0.389843 0.101536
vt 0.372690 0.175620
vt 0.339133 0.133779
vt 0.338711 0.209599
vt 0.296871 0.176041
vt 0.312804 0.250326
vt 0.264627 0.226751
vt 0.296289 0.296480
vt 0.244057 0.284292
vt 0.290491 0.346738
vt 0.236856 0.346703
vt 0.712850 0.352669
vt 0.712850 0.391558
vt 0.306695 0.391558
vt 0.306695 0.352669
vt 0.236856 0.346703
vt 0.211185 0.317253
vt 0.218043 0.277419
vt 0.244057 0.284292
vt 0.242737 0.217129
vt 0.264627 0.226751
vt 0.276356 0.162295
vt 0.296871 0.176041
vt 0.323324 0.116701
vt 0.339133 0.133779
vt 0.380908 0.077584
vt 0.389843 0.101536
vt 0.441885 0.054265
vt 0.447383 0.080966
vt 0.509829 0.044314
vt 0.509829 0.073764
vt 0.210982 0.621925
vt 0.210982 0.661362
vt 0.237863 0.661362
vt 0.237082 0.621925
vt 0.210982 0.621925
vt 0.210982 0.661362
vt 0.237082 0.661362
vt 0.237082 0.621925
vt 0.211098 0.621925
vt 0.211098 0.661362
vt 0.214621 0.728945
vt 0.211098 0.621925
vt 0.214621 0.728945
vt 0.235511 0.621925
vt 0.210982 0.661362
vt 0.237082 0.661362
vt 0.237082 0.621925
vt 0.210982 0.621925
vt 0.210982 0.661362
vt 0.237082 0.661362
vt 0.237082 0.621925
vt 0.210982 0.621925
vt 0.447383 0.080966
vt 0.509829 0.073764
vt 0.509829 0.044314
vt 0.441885 0.054265
vt 0.389843 0.101536
vt 0.380908 0.077584
vt 0.339133 0.133779
vt 0.323324 0.116701
vt 0.296871 0.176041
vt 0.276356 0.162295
vt 0.264627 0.226751
vt 0.242737 0.217129
vt 0.244057 0.284292
vt 0.218043 0.277419
vt 0.237082 0.661362
vt 0.238852 0.621925
vt 0.210982 0.661362
vt 0.209212 0.621925
vt 0.047263 0.433891
vt 0.024802 0.433661
vt 0.024802 0.387507
vt 0.047263 0.387427
vt 0.047263 0.474338
vt 0.024802 0.474388
vt 0.047263 0.508188
vt 0.024803 0.508367
vt 0.047263 0.549476
vt 0.024803 0.549094
vt 0.047263 0.595127
vt 0.024803 0.595248
vt 0.047263 0.645506
vt 0.024803 0.645506
vt 0.047263 0.324522
vt 0.024802 0.320048
vt 0.047168 0.269325
vt 0.047263 0.324522
vt 0.024802 0.320048
vt 0.047168 0.269325
vt 0.024802 0.269325
vt 0.047168 0.221895
vt 0.047263 0.269325
vt 0.024802 0.221895
vt 0.024803 0.440952
vt 0.024803 0.491210
vt 0.047263 0.491210
vt 0.047263 0.440831
vt 0.024803 0.394798
vt 0.047263 0.395180
vt 0.024803 0.354070
vt 0.047263 0.353891
vt 0.024802 0.320092
vt 0.047263 0.320041
vt 0.024802 0.279364
vt 0.047263 0.279594
vt 0.047168 0.122783
vt 0.024802 0.107249
vt 0.024802 0.165751
vt 0.047065 0.170225
vt 0.960515 0.122783
vt 0.960618 0.170225
vt 0.982881 0.165751
vt 0.982881 0.107249
vt 0.960420 0.279594
vt 0.982881 0.279364
vt 0.960420 0.320041
vt 0.982881 0.320092
vt 0.960420 0.353891
vt 0.982880 0.354070
vt 0.960420 0.395180
vt 0.982880 0.394798
vt 0.960420 0.440831
vt 0.982880 0.440952
vt 0.960420 0.491210
vt 0.982880 0.491210
vt 0.960515 0.221895
vt 0.982881 0.221895
vt 0.960420 0.269325
vt 0.982881 0.269325
vt 0.960515 0.269325
vt 0.982881 0.320048
vt 0.960515 0.269325
vt 0.982881 0.320048
vt 0.960420 0.324522
vt 0.960420 0.324522
vt 0.982881 0.387507
vt 0.960420 0.387427
vt 0.982880 0.595248
vt 0.982880 0.645506
vt 0.960420 0.645506
vt 0.960420 0.595127
vt 0.982880 0.549094
vt 0.960420 0.549476
vt 0.982880 0.508367
vt 0.960420 0.508188
vt 0.982881 0.474388
vt 0.960420 0.474338
vt 0.982881 0.433661
vt 0.960420 0.433891
vt 0.572425 0.080966
vt 0.509979 0.073764
vt 0.509979 0.044314
vt 0.577924 0.054265
vt 0.629966 0.101536
vt 0.638901 0.077584
vt 0.680676 0.133779
vt 0.696484 0.116701
vt 0.722938 0.176041
vt 0.743453 0.162295
vt 0.755181 0.226751
vt 0.777071 0.217129
vt 0.775751 0.284292
vt 0.801765 0.277419
vt 0.782953 0.346703
vt 0.808624 0.317253
vt 0.780387 0.661362
vt 0.805980 0.678626
vt 0.780809 0.629605
vt 0.809732 0.621925
vt 0.770725 0.274692
vt 0.799219 0.276619
vt 0.776925 0.217129
vt 0.770725 0.274692
vt 0.755035 0.226751
vt 0.743307 0.162295
vt 0.722792 0.176041
vt 0.680530 0.133779
vt 0.696339 0.116701
vt 0.629820 0.101536
vt 0.638755 0.077584
vt 0.572279 0.080966
vt 0.577778 0.054265
vt 0.805914 0.661362
vt 0.805914 0.621925
vt 0.780797 0.621925
vt 0.779814 0.661362
vt 0.805914 0.661362
vt 0.805914 0.621925
vt 0.779814 0.621925
vt 0.779814 0.661362
vt 0.805798 0.621925
vt 0.781385 0.621925
vt 0.802275 0.728945
vt 0.805798 0.621925
vt 0.802275 0.728945
vt 0.805798 0.661362
vt 0.805914 0.621925
vt 0.779814 0.621925
vt 0.779814 0.661362
vt 0.805914 0.661362
vt 0.805914 0.621925
vt 0.779814 0.621925
vt 0.779033 0.661362
vt 0.805914 0.661362
vt 0.135440 0.452385
vt 0.135382 0.355357
vt 0.151919 0.365235
vt 0.151919 0.442376
vt 0.867889 0.365235
vt 0.884427 0.355357
vt 0.884368 0.452385
vt 0.867889 0.442376
vn 0.189746 0.242844 0.951327
vn 0.189746 0.242844 0.951327
vn 0.240861 0.146581 0.959427
vn 0.189746 0.242844 0.951327
vn 0.189746 0.242844 0.951327
vn 0.159991 0.359776 0.919219
vn 0.183560 0.336767 -0.923522
vn 0.183560 0.336767 -0.923522
vn 0.201931 0.555484 -0.806636
vn 0.183560 0.336767 -0.923522
vn 0.145877 0.097862 -0.984451
vn 0.183560 0.336767 -0.923522
vn -0.138330 0.336767 -0.931371
vn -0.138330 0.336767 -0.931371
vn -0.122001 0.097862 -0.987694
vn -0.138330 0.336767 -0.931371
vn -0.162376 0.555484 -0.815519
vn -0.138330 0.336767 -0.931371
vn -0.165383 0.242844 0.955864
vn -0.113763 0.359776 0.926077
vn -0.165383 0.242844 0.955864
vn -0.192518 0.146581 0.970284
vn -0.165383 0.242844 0.955864
vn -0.165383 0.242844 0.955864
vn -0.194563 0.024377 0.980587
vn -0.194563 0.024377 0.980587
vn -0.194563 0.024377 0.980587
vn -0.194563 0.024377 0.980587
vn -0.194563 0.024377 0.980587
vn -0.194563 0.024377 0.980587
vn -0.195216 0.024377 -0.980457
vn -0.195216 0.024377 -0.980457
vn -0.195216 0.024377 -0.980457
vn -0.195216 0.024377 -0.980457
vn -0.195216 0.024377 -0.980457
vn -0.195216 0.024377 -0.980457
vn 0.242772 0.024377 -0.969777
vn 0.242772 0.024377 -0.969777
vn 0.242772 0.024377 -0.969777
vn 0.242772 0.024377 -0.969777
vn 0.242772 0.024377 -0.969777
vn 0.242772 0.024377 -0.969777
vn 0.243418 0.024377 0.969615
vn 0.243418 0.024377 0.969615
vn 0.243418 0.024377 0.969615
vn 0.243418 0.024377 0.969615
vn 0.243418 0.024377 0.969615
vn 0.243418 0.024377 0.969615
vn 0.000000 1.000000 0.000000
vn 0.000000 1.000000 0.000000
vn 0.000000 1.000000 0.000000
vn 0.000000 1.000000 0.000000
vn 0.000000 1.000000 0.000000
vn 0.000000 1.000000 0.000000
vn 0.000000 1.000000 0.000000
vn 0.000000 1.000000 0.000000
vn 0.000000 1.000000 0.000000
vn 0.000000 1.000000 0.000000
vn 0.000000 1.000000 0.000000
vn 0.000000 1.000000 0.000000
vn 0.000000 1.000000 0.000000
vn 0.000000 1.000000 0.000000
vn 0.000000 1.000000 0.000000
vn 0.000000 1.000000 0.000000
vn 0.000000 1.000000 0.000000
vn 0.000000 1.000000 0.000000
vn 0.907457 0.405129 0.111322
vn 0.882201 0.427447 0.197509
vn 0.854977 0.449507 0.258761
vn 0.974745 0.146581 0.168483
vn 0.934582 0.336767 0.114650
vn 0.961248 0.266580 0.070269
vn -0.970123 0.146581 0.193327
vn -0.959139 0.266580 0.094800
vn -0.927669 0.336767 0.161302
vn -0.904317 0.405129 0.134465
vn -0.848089 0.449507 0.280516
vn -0.876869 0.427447 0.219979
vn 0.000000 1.000000 0.000000
vn 0.000000 1.000000 0.000000
vn 0.000000 1.000000 0.000000
vn 0.025036 0.024377 0.999389
vn 0.025036 0.024377 0.999389
vn 0.025036 0.024377 0.999389
vn -0.335546 0.073406 0.939160
vn -0.334838 0.097862 0.937180
vn -0.359035 0.048906 0.932042
vn -0.915056 0.266580 0.302667
vn -0.348704 0.242844 0.905225
vn -0.659586 0.290155 0.693366
vn 0.922489 0.266580 0.279194
vn 0.693476 0.290155 0.659470
vn 0.371714 0.242844 0.896022
vn 0.382150 0.073406 0.921180
vn 0.382725 0.048906 0.922567
vn 0.358668 0.097862 0.928321
vn -0.940293 0.048906 0.336835
vn -0.984992 0.122258 0.121834
vn -0.970123 0.146581 0.193327
vn -0.984992 0.122258 0.121834
vn -0.959139 0.266580 0.094800
vn -0.970123 0.146581 0.193327
vn 0.955979 0.048906 0.289330
vn 0.974745 0.146581 0.168483
vn 0.987783 0.122258 0.096633
vn 0.974745 0.146581 0.168483
vn 0.961248 0.266580 0.070269
vn 0.987783 0.122258 0.096633
vn 0.383070 0.024377 0.923398
vn 0.383070 0.024377 0.923398
vn 0.383070 0.024377 0.923398
vn 0.383070 0.024377 0.923398
vn 0.383070 0.024377 0.923398
vn 0.383070 0.024377 0.923398
vn 0.383070 0.024377 0.923398
vn 0.383070 0.024377 0.923398
vn 0.371714 0.242844 0.896022
vn 0.383070 0.024377 0.923398
vn 0.371714 0.242844 0.896022
vn 0.693476 0.290155 0.659470
vn 0.383070 0.024377 0.923398
vn 0.383070 0.024377 0.923398
vn 0.383070 0.024377 0.923398
vn 0.383070 0.024377 0.923398
vn 0.383070 0.024377 0.923398
vn 0.383070 0.024377 0.923398
vn 0.383070 0.024377 0.923398
vn 0.382725 0.048906 0.922567
vn 0.383070 0.024377 0.923398
vn 0.382725 0.048906 0.922567
vn 0.382150 0.073406 0.921180
vn 0.383070 0.024377 0.923398
vn 0.114689 0.359776 0.925963
vn 0.091928 0.359776 0.928499
vn 0.023139 0.382568 0.923638
vn 0.091928 0.359776 0.928499
vn 0.023139 0.382568 0.923638
vn 0.023139 0.382568 0.923638
vn 0.184176 0.336767 0.923400
vn 0.161457 0.336767 0.927642
vn 0.114689 0.359776 0.925963
vn 0.161457 0.336767 0.927642
vn 0.091928 0.359776 0.928499
vn 0.114689 0.359776 0.925963
vn 0.255726 0.290155 0.922179
vn 0.231211 0.313556 0.920991
vn 0.184176 0.336767 0.923400
vn 0.231211 0.313556 0.920991
vn 0.161457 0.336767 0.927642
vn 0.184176 0.336767 0.923400
vn 0.304784 0.242844 0.920942
vn 0.282089 0.242844 0.928145
vn 0.255726 0.290155 0.922179
vn 0.282089 0.242844 0.928145
vn 0.231211 0.313556 0.920991
vn 0.255726 0.290155 0.922179
vn 0.332436 0.170816 0.927528
vn 0.330922 0.194947 0.923302
vn 0.304784 0.242844 0.920942
vn 0.330922 0.194947 0.923302
vn 0.282089 0.242844 0.928145
vn 0.304784 0.242844 0.920942
vn 0.382150 0.073406 0.921180
vn 0.358668 0.097862 0.928321
vn 0.332436 0.170816 0.927528
vn 0.358668 0.097862 0.928321
vn 0.330922 0.194947 0.923302
vn 0.332436 0.170816 0.927528
vn 0.999703 0.024377 0.000000
vn 0.999703 0.024377 0.000000
vn 0.922489 0.266580 0.279194
vn 0.999703 0.024377 0.000000
vn 0.693476 0.290155 0.659470
vn 0.922489 0.266580 0.279194
vn 0.354672 0.932979 0.061304
vn 0.344499 0.932979 0.104264
vn 0.351237 0.932979 0.078635
vn 0.354672 0.932979 0.061304
vn 0.351237 0.932979 0.078635
vn 0.357253 0.932979 0.043826
vn 0.344499 0.932979 0.104264
vn 0.321599 0.932979 0.161631
vn 0.332619 0.932979 0.137532
vn 0.344499 0.932979 0.104264
vn 0.332619 0.932979 0.137532
vn 0.351237 0.932979 0.078635
vn 0.321599 0.932979 0.161631
vn 0.278366 0.932979 0.228173
vn 0.294399 0.932979 0.207074
vn 0.321599 0.932979 0.161631
vn 0.294399 0.932979 0.207074
vn 0.332619 0.932979 0.137532
vn 0.278366 0.932979 0.228173
vn 0.228498 0.932979 0.278100
vn 0.228498 0.932979 0.278100
vn 0.278366 0.932979 0.228173
vn 0.228498 0.932979 0.278100
vn 0.294399 0.932979 0.207074
vn 0.228498 0.932979 0.278100
vn 0.177583 0.932979 0.313073
vn 0.228498 0.932979 0.278100
vn 0.177583 0.932979 0.313073
vn 0.154068 0.932979 0.325290
vn 0.228498 0.932979 0.278100
vn 0.177583 0.932979 0.313073
vn 0.087640 0.932979 0.349099
vn 0.154068 0.932979 0.325290
vn 0.087640 0.932979 0.349099
vn 0.087640 0.932979 0.349099
vn 0.154068 0.932979 0.325290
vn 0.087640 0.932979 0.349099
vn 0.009014 0.932979 0.359819
vn 0.009014 0.932979 0.359819
vn 0.087640 0.932979 0.349099
vn 0.009014 0.932979 0.359819
vn 0.087640 0.932979 0.349099
vn 0.999703 0.024377 0.000000
vn 0.999703 0.024377 0.000000
vn 0.999703 0.024377 0.000000
vn 0.999703 0.024377 0.000000
vn 0.999703 0.024377 0.000000
vn 0.999703 0.024377 0.000000
vn -0.999410 0.024377 -0.024203
vn -0.915056 0.266580 0.302667
vn -0.999410 0.024377 -0.024203
vn -0.915056 0.266580 0.302667
vn -0.659586 0.290155 0.693366
vn -0.999410 0.024377 -0.024203
vn -0.335546 0.073406 0.939160
vn -0.308635 0.170816 0.935717
vn -0.334838 0.097862 0.937180
vn -0.308635 0.170816 0.935717
vn -0.307229 0.194947 0.931454
vn -0.334838 0.097862 0.937180
vn -0.308635 0.170816 0.935717
vn -0.258288 0.242844 0.935048
vn -0.307229 0.194947 0.931454
vn -0.258288 0.242844 0.935048
vn -0.258288 0.242844 0.935048
vn -0.307229 0.194947 0.931454
vn -0.258288 0.242844 0.935048
vn -0.209230 0.290155 0.933827
vn -0.258288 0.242844 0.935048
vn -0.209230 0.290155 0.933827
vn -0.184806 0.313556 0.931413
vn -0.258288 0.242844 0.935048
vn -0.209230 0.290155 0.933827
vn -0.160528 0.336767 0.927803
vn -0.184806 0.313556 0.931413
vn -0.160528 0.336767 0.927803
vn -0.137708 0.336767 0.931464
vn -0.184806 0.313556 0.931413
vn -0.160528 0.336767 0.927803
vn -0.068180 0.359776 0.930544
vn -0.137708 0.336767 0.931464
vn -0.068180 0.359776 0.930544
vn -0.045321 0.359776 0.931937
vn -0.137708 0.336767 0.931464
vn -0.068180 0.359776 0.930544
vn 0.023139 0.382568 0.923638
vn -0.045321 0.359776 0.931937
vn 0.023139 0.382568 0.923638
vn 0.023139 0.382568 0.923638
vn -0.045321 0.359776 0.931937
vn 0.025036 0.024377 0.999389
vn 0.025036 0.024377 0.999389
vn 0.025036 0.024377 0.999389
vn 0.025036 0.024377 0.999389
vn 0.025036 0.024377 0.999389
vn 0.025036 0.024377 0.999389
vn 0.025036 0.024377 0.999389
vn 0.025036 0.024377 0.999389
vn 0.025036 0.024377 0.999389
vn 0.025036 0.024377 0.999389
vn 0.025036 0.024377 0.999389
vn 0.025036 0.024377 0.999389
vn 0.025036 0.024377 0.999389
vn 0.025036 0.024377 0.999389
vn 0.025036 0.024377 0.999389
vn 0.025036 0.024377 0.999389
vn 0.025036 0.024377 0.999389
vn 0.025036 0.024377 0.999389
vn 0.025036 0.024377 0.999389
vn 0.025036 0.024377 0.999389
vn 0.025036 0.024377 0.999389
vn 0.025036 0.024377 0.999389
vn 0.025036 0.024377 0.999389
vn 0.025036 0.024377 0.999389
vn 0.025036 0.024377 0.999389
vn 0.025036 0.024377 0.999389
vn 0.025036 0.024377 0.999389
vn 0.025036 0.024377 0.999389
vn 0.025036 0.024377 0.999389
vn 0.025036 0.024377 0.999389
vn -0.359358 0.024377 0.932881
vn -0.359358 0.024377 0.932881
vn -0.359035 0.048906 0.932042
vn -0.359358 0.024377 0.932881
vn -0.335546 0.073406 0.939160
vn -0.359035 0.048906 0.932042
vn 0.025036 0.024377 0.999389
vn 0.025036 0.024377 0.999389
vn 0.025036 0.024377 0.999389
vn 0.025036 0.024377 0.999389
vn 0.025036 0.024377 0.999389
vn 0.025036 0.024377 0.999389
vn 0.024856 0.122258 0.992187
vn 0.024436 0.218961 0.975428
vn 0.025036 0.024377 0.999389
vn 0.024856 0.122258 0.992187
vn 0.025036 0.024377 0.999389
vn 0.025036 0.024377 0.999389
vn -0.359358 0.024377 0.932881
vn -0.359358 0.024377 0.932881
vn -0.359358 0.024377 0.932881
vn -0.359358 0.024377 0.932881
vn -0.359358 0.024377 0.932881
vn -0.359358 0.024377 0.932881
vn -0.359358 0.024377 0.932881
vn -0.659586 0.290155 0.693366
vn -0.348704 0.242844 0.905225
vn -0.359358 0.024377 0.932881
vn -0.348704 0.242844 0.905225
vn -0.359358 0.024377 0.932881
vn -0.359358 0.024377 0.932881
vn -0.359358 0.024377 0.932881
vn -0.359358 0.024377 0.932881
vn -0.359358 0.024377 0.932881
vn -0.359358 0.024377 0.932881
vn -0.359358 0.024377 0.932881
vn 0.021160 0.534907 0.844646
vn 0.021160 0.534907 0.844646
vn 0.024436 0.218961 0.975428
vn 0.021160 0.534907 0.844646
vn 0.024436 0.218961 0.975428
vn 0.024856 0.122258 0.992187
vn 0.000000 1.000000 0.000000
vn 0.000000 1.000000 0.000000
vn 0.000000 1.000000 0.000000
vn 0.000000 1.000000 0.000000
vn 0.000000 1.000000 0.000000
vn 0.000000 1.000000 0.000000
vn 0.000000 1.000000 0.000000
vn 0.000000 1.000000 0.000000
vn 0.000000 1.000000 0.000000
vn 0.000000 1.000000 0.000000
vn 0.000000 1.000000 0.000000
vn 0.000000 1.000000 0.000000
vn 0.000000 1.000000 0.000000
vn 0.000000 1.000000 0.000000
vn 0.000000 1.000000 0.000000
vn 0.000000 1.000000 0.000000
vn 0.000000 1.000000 0.000000
vn 0.000000 1.000000 0.000000
vn 0.000000 1.000000 0.000000
vn 0.000000 1.000000 0.000000
vn 0.003066 0.992478 0.122385
vn 0.000000 1.000000 0.000000
vn 0.003066 0.992478 0.122385
vn 0.003066 0.992478 0.122385
vn 0.000000 1.000000 0.000000
vn 0.000000 1.000000 0.000000
vn 0.000000 1.000000 0.000000
vn 0.000000 1.000000 0.000000
vn 0.000000 1.000000 0.000000
vn 0.000000 1.000000 0.000000
vn -0.999410 0.024377 -0.024203
vn -0.999410 0.024377 -0.024203
vn -0.999410 0.024377 -0.024203
vn -0.999410 0.024377 -0.024203
vn -0.999410 0.024377 -0.024203
vn -0.999410 0.024377 -0.024203
vn -0.078694 0.932979 0.351223
vn -0.078694 0.932979 0.351223
vn 0.009014 0.932979 0.359819
vn -0.078694 0.932979 0.351223
vn 0.009014 0.932979 0.359819
vn 0.009014 0.932979 0.359819
vn -0.161684 0.932979 0.321572
vn -0.137587 0.932979 0.332596
vn -0.078694 0.932979 0.351223
vn -0.137587 0.932979 0.332596
vn -0.078694 0.932979 0.351223
vn -0.078694 0.932979 0.351223
vn -0.221319 0.932979 0.283846
vn -0.221319 0.932979 0.283846
vn -0.161684 0.932979 0.321572
vn -0.221319 0.932979 0.283846
vn -0.137587 0.932979 0.332596
vn -0.161684 0.932979 0.321572
vn -0.266592 0.932979 0.241825
vn -0.283661 0.932979 0.221556
vn -0.221319 0.932979 0.283846
vn -0.266592 0.932979 0.241825
vn -0.221319 0.932979 0.283846
vn -0.221319 0.932979 0.283846
vn -0.313103 0.932979 0.177531
vn -0.325316 0.932979 0.154014
vn -0.283661 0.932979 0.221556
vn -0.313103 0.932979 0.177531
vn -0.283661 0.932979 0.221556
vn -0.266592 0.932979 0.241825
vn -0.341724 0.932979 0.113029
vn -0.349113 0.932979 0.087582
vn -0.325316 0.932979 0.154014
vn -0.341724 0.932979 0.113029
vn -0.325316 0.932979 0.154014
vn -0.313103 0.932979 0.177531
vn -0.352991 0.932979 0.070344
vn -0.354611 0.932979 0.061659
vn -0.349113 0.932979 0.087582
vn -0.352991 0.932979 0.070344
vn -0.349113 0.932979 0.087582
vn -0.341724 0.932979 0.113029
vn 0.013400 0.844822 0.534880
vn 0.021160 0.534907 0.844646
vn 0.021160 0.534907 0.844646
vn 0.013400 0.844822 0.534880
vn 0.021160 0.534907 0.844646
vn 0.010150 0.914192 0.405155
vn 0.010150 0.914192 0.405155
vn 0.003066 0.992478 0.122385
vn 0.003066 0.992478 0.122385
vn 0.010150 0.914192 0.405155
vn 0.003066 0.992478 0.122385
vn 0.013400 0.844822 0.534880
vn -0.984925 0.024377 0.171257
vn -0.984925 0.024377 0.171257
vn -0.969656 0.024377 0.243256
vn -0.984925 0.024377 0.171257
vn -0.969656 0.024377 0.243256
vn -0.956550 0.024377 0.290547
vn -0.956550 0.024377 0.290547
vn -0.969656 0.024377 0.243256
vn -0.903558 0.024377 0.427772
vn -0.956550 0.024377 0.290547
vn -0.903558 0.024377 0.427772
vn -0.869637 0.024377 0.493089
vn -0.869637 0.024377 0.493089
vn -0.903558 0.024377 0.427772
vn -0.787864 0.024377 0.615367
vn -0.869637 0.024377 0.493089
vn -0.787864 0.024377 0.615367
vn -0.740455 0.024377 0.671664
vn -0.740455 0.024377 0.671664
vn -0.787864 0.024377 0.615367
vn -0.633875 0.024377 0.773052
vn -0.740455 0.024377 0.671664
vn -0.633875 0.024377 0.773052
vn -0.575281 0.024377 0.817592
vn -0.575281 0.024377 0.817592
vn -0.633875 0.024377 0.773052
vn -0.449075 0.024377 0.893161
vn -0.575281 0.024377 0.817592
vn -0.449075 0.024377 0.893161
vn -0.382146 0.024377 0.923780
vn -0.382146 0.024377 0.923780
vn -0.449075 0.024377 0.893161
vn -0.242448 0.024377 0.969858
vn -0.382146 0.024377 0.923780
vn -0.242448 0.024377 0.969858
vn -0.170436 0.024377 0.985067
vn -0.170436 0.024377 0.985067
vn -0.242448 0.024377 0.969858
vn 0.025036 0.024377 0.999389
vn -0.170436 0.024377 0.985067
vn 0.025036 0.024377 0.999389
vn 0.025036 0.024377 0.999389
vn -0.999410 0.024377 -0.024203
vn -0.999410 0.024377 -0.024203
vn -0.999410 0.024377 -0.024203
vn -0.999410 0.024377 -0.024203
vn -0.999410 0.024377 -0.024203
vn -0.999410 0.024377 -0.024203
vn -0.999410 0.024377 -0.024203
vn -0.999410 0.024377 -0.024203
vn -0.999410 0.024377 -0.024203
vn -0.999410 0.024377 -0.024203
vn -0.999410 0.024377 -0.024203
vn -0.999410 0.024377 -0.024203
vn -0.999410 0.024377 -0.024203
vn -0.999410 0.024377 -0.024203
vn -0.999410 0.024377 -0.024203
vn -0.999410 0.024377 -0.024203
vn -0.999410 0.024377 -0.024203
vn -0.999410 0.024377 -0.024203
vn -0.999410 0.024377 -0.024203
vn -0.999410 0.024377 -0.024203
vn -0.999410 0.024377 -0.024203
vn -0.999410 0.024377 -0.024203
vn -0.999410 0.024377 -0.024203
vn -0.998511 0.048906 -0.024182
vn -0.998511 0.048906 -0.024182
vn -0.999410 0.024377 -0.024203
vn -0.997010 0.073406 -0.024145
vn -0.998511 0.048906 -0.024182
vn -0.997010 0.073406 -0.024145
vn -0.994908 0.097862 -0.024094
vn -0.219060 0.975697 -0.005305
vn 0.000000 1.000000 0.000000
vn 0.000000 1.000000 0.000000
vn -0.219060 0.975697 -0.005305
vn 0.000000 1.000000 0.000000
vn -0.219060 0.975697 -0.005305
vn -0.471304 0.881897 -0.011414
vn -0.219060 0.975697 -0.005305
vn -0.405163 0.914192 -0.009812
vn -0.219060 0.975697 -0.005305
vn -0.219060 0.975697 -0.005305
vn -0.405163 0.914192 -0.009812
vn -0.634264 0.772964 -0.015360
vn -0.471304 0.881897 -0.011414
vn -0.595579 0.803167 -0.014424
vn -0.471304 0.881897 -0.011414
vn -0.405163 0.914192 -0.009812
vn -0.595579 0.803167 -0.014424
vn -0.772843 0.634321 -0.018717
vn -0.634264 0.772964 -0.015360
vn -0.772843 0.634321 -0.018717
vn -0.634264 0.772964 -0.015360
vn -0.595579 0.803167 -0.014424
vn -0.772843 0.634321 -0.018717
vn -0.869887 0.492801 -0.021067
vn -0.772843 0.634321 -0.018717
vn -0.772843 0.634321 -0.018717
vn -0.869887 0.492801 -0.021067
vn -0.772843 0.634321 -0.018717
vn -0.893015 0.449507 -0.021627
vn -0.963530 0.266580 -0.023335
vn -0.869887 0.492801 -0.021067
vn -0.893015 0.449507 -0.021627
vn -0.963530 0.266580 -0.023335
vn -0.893015 0.449507 -0.021627
vn -0.963530 0.266580 -0.023335
vn -0.997010 0.073406 -0.024145
vn -0.963530 0.266580 -0.023335
vn -0.994908 0.097862 -0.024094
vn -0.963530 0.266580 -0.023335
vn -0.963530 0.266580 -0.023335
vn -0.994908 0.097862 -0.024094
vn -0.811646 0.359776 0.460208
vn -0.772223 0.405129 0.489430
vn -0.879927 0.170816 0.443340
vn -0.811646 0.359776 0.460208
vn -0.879927 0.170816 0.443340
vn -0.890543 0.170816 0.421610
vn -0.772223 0.405129 0.489430
vn -0.811646 0.359776 0.460208
vn -0.678437 0.534907 0.503585
vn -0.772223 0.405129 0.489430
vn -0.678437 0.534907 0.503585
vn -0.644383 0.575725 0.503300
vn -0.644383 0.575725 0.503300
vn -0.678437 0.534907 0.503585
vn -0.536463 0.671493 0.511179
vn -0.644383 0.575725 0.503300
vn -0.536463 0.671493 0.511179
vn -0.487405 0.707048 0.512367
vn -0.487405 0.707048 0.512367
vn -0.536463 0.671493 0.511179
vn -0.388902 0.757160 0.524848
vn -0.487405 0.707048 0.512367
vn -0.388902 0.757160 0.524848
vn -0.328948 0.788303 0.519972
vn -0.328948 0.788303 0.519972
vn -0.388902 0.757160 0.524848
vn -0.212392 0.831435 0.513426
vn -0.328948 0.788303 0.519972
vn -0.212392 0.831435 0.513426
vn -0.142461 0.844822 0.515734
vn -0.142461 0.844822 0.515734
vn -0.212392 0.831435 0.513426
vn 0.012876 0.857699 0.513991
vn -0.142461 0.844822 0.515734
vn 0.012876 0.857699 0.513991
vn 0.012876 0.857699 0.513991
vn -0.902745 0.048906 0.427387
vn -0.890543 0.170816 0.421610
vn -0.879927 0.170816 0.443340
vn -0.902745 0.048906 0.427387
vn -0.879927 0.170816 0.443340
vn -0.903558 0.024377 0.427772
vn -0.922631 0.048906 0.382572
vn -0.902745 0.048906 0.427387
vn -0.903558 0.024377 0.427772
vn -0.922631 0.048906 0.382572
vn -0.903558 0.024377 0.427772
vn -0.903558 0.024377 0.427772
vn -0.970123 0.146581 0.193327
vn -0.922631 0.048906 0.382572
vn -0.940293 0.048906 0.336835
vn -0.922631 0.048906 0.382572
vn -0.903558 0.024377 0.427772
vn -0.940293 0.048906 0.336835
vn -0.144046 0.534907 0.832541
vn 0.020825 0.555484 0.831267
vn 0.020825 0.555484 0.831267
vn -0.144046 0.534907 0.832541
vn 0.020825 0.555484 0.831267
vn -0.204908 0.534907 0.819687
vn -0.322975 0.534907 0.780744
vn -0.144046 0.534907 0.832541
vn -0.204908 0.534907 0.819687
vn -0.322975 0.534907 0.780744
vn -0.204908 0.534907 0.819687
vn -0.379541 0.534907 0.754866
vn -0.486206 0.534907 0.690998
vn -0.322975 0.534907 0.780744
vn -0.379541 0.534907 0.754866
vn -0.486206 0.534907 0.690998
vn -0.379541 0.534907 0.754866
vn -0.543890 0.514009 0.663309
vn -0.635339 0.514009 0.576315
vn -0.486206 0.534907 0.690998
vn -0.543890 0.514009 0.663309
vn -0.635339 0.514009 0.576315
vn -0.543890 0.514009 0.663309
vn -0.685757 0.492801 0.535616
vn -0.756933 0.492801 0.429185
vn -0.635339 0.514009 0.576315
vn -0.685757 0.492801 0.535616
vn -0.756933 0.492801 0.429185
vn -0.685757 0.492801 0.535616
vn -0.797153 0.471296 0.377396
vn -0.797153 0.471296 0.377396
vn -0.876869 0.427447 0.219979
vn -0.848089 0.449507 0.280516
vn -0.797153 0.471296 0.377396
vn -0.848089 0.449507 0.280516
vn -0.756933 0.492801 0.429185
vn -0.927669 0.336767 0.161302
vn -0.959139 0.266580 0.094800
vn -0.904317 0.405129 0.134465
vn -0.927669 0.336767 0.161302
vn -0.904317 0.405129 0.134465
vn -0.876869 0.427447 0.219979
vn 0.934582 0.336767 0.114650
vn 0.882201 0.427447 0.197509
vn 0.907457 0.405129 0.111322
vn 0.934582 0.336767 0.114650
vn 0.907457 0.405129 0.111322
vn 0.961248 0.266580 0.070269
vn 0.815050 0.471296 0.337008
vn 0.777474 0.492801 0.390746
vn 0.854977 0.449507 0.258761
vn 0.815050 0.471296 0.337008
vn 0.854977 0.449507 0.258761
vn 0.882201 0.427447 0.197509
vn 0.777474 0.492801 0.390746
vn 0.815050 0.471296 0.337008
vn 0.711716 0.492801 0.500607
vn 0.777474 0.492801 0.390746
vn 0.711716 0.492801 0.500607
vn 0.663400 0.514009 0.543779
vn 0.663400 0.514009 0.543779
vn 0.711716 0.492801 0.500607
vn 0.576420 0.514009 0.635244
vn 0.663400 0.514009 0.543779
vn 0.576420 0.514009 0.635244
vn 0.520195 0.534907 0.665786
vn 0.520195 0.534907 0.665786
vn 0.576420 0.514009 0.635244
vn 0.416863 0.534907 0.734915
vn 0.520195 0.534907 0.665786
vn 0.416863 0.534907 0.734915
vn 0.361663 0.534907 0.763593
vn 0.361663 0.534907 0.763593
vn 0.416863 0.534907 0.734915
vn 0.245694 0.534907 0.808399
vn 0.361663 0.534907 0.763593
vn 0.245694 0.534907 0.808399
vn 0.185553 0.534907 0.824284
vn 0.185553 0.534907 0.824284
vn 0.245694 0.534907 0.808399
vn 0.020825 0.555484 0.831267
vn 0.185553 0.534907 0.824284
vn 0.020825 0.555484 0.831267
vn 0.020825 0.555484 0.831267
vn 0.974745 0.146581 0.168483
vn 0.955979 0.048906 0.289330
vn 0.932102 0.048906 0.358879
vn 0.955979 0.048906 0.289330
vn 0.914190 0.024377 0.404552
vn 0.932102 0.048906 0.358879
vn 0.932102 0.048906 0.358879
vn 0.914190 0.024377 0.404552
vn 0.914190 0.024377 0.404552
vn 0.932102 0.048906 0.358879
vn 0.914190 0.024377 0.404552
vn 0.913368 0.048906 0.404188
vn 0.913368 0.048906 0.404188
vn 0.914190 0.024377 0.404552
vn 0.901022 0.170816 0.398725
vn 0.913368 0.048906 0.404188
vn 0.901022 0.170816 0.398725
vn 0.910537 0.170816 0.376490
vn 0.168106 0.844822 0.507954
vn 0.012876 0.857699 0.513991
vn 0.012876 0.857699 0.513991
vn 0.168106 0.844822 0.507954
vn 0.012876 0.857699 0.513991
vn 0.225438 0.831435 0.507833
vn 0.342123 0.788303 0.511400
vn 0.168106 0.844822 0.507954
vn 0.225438 0.831435 0.507833
vn 0.342123 0.788303 0.511400
vn 0.225438 0.831435 0.507833
vn 0.414694 0.757160 0.504716
vn 0.512448 0.707048 0.487319
vn 0.342123 0.788303 0.511400
vn 0.414694 0.757160 0.504716
vn 0.512448 0.707048 0.487319
vn 0.414694 0.757160 0.504716
vn 0.561386 0.671493 0.483676
vn 0.657029 0.575725 0.486676
vn 0.512448 0.707048 0.487319
vn 0.561386 0.671493 0.483676
vn 0.657029 0.575725 0.486676
vn 0.561386 0.671493 0.483676
vn 0.702801 0.534907 0.468983
vn 0.784473 0.405129 0.469545
vn 0.657029 0.575725 0.486676
vn 0.702801 0.534907 0.468983
vn 0.784473 0.405129 0.469545
vn 0.702801 0.534907 0.468983
vn 0.833672 0.359776 0.418990
vn 0.833672 0.359776 0.418990
vn 0.910537 0.170816 0.376490
vn 0.901022 0.170816 0.398725
vn 0.833672 0.359776 0.418990
vn 0.901022 0.170816 0.398725
vn 0.784473 0.405129 0.469545
vn 0.195543 0.024377 0.980392
vn 0.025036 0.024377 0.999389
vn 0.025036 0.024377 0.999389
vn 0.195543 0.024377 0.980392
vn 0.025036 0.024377 0.999389
vn 0.290707 0.024377 0.956502
vn 0.427922 0.024377 0.903487
vn 0.195543 0.024377 0.980392
vn 0.290707 0.024377 0.956502
vn 0.427922 0.024377 0.903487
vn 0.290707 0.024377 0.956502
vn 0.493234 0.024377 0.869555
vn 0.615498 0.024377 0.787761
vn 0.427922 0.024377 0.903487
vn 0.493234 0.024377 0.869555
vn 0.615498 0.024377 0.787761
vn 0.493234 0.024377 0.869555
vn 0.671788 0.024377 0.740343
vn 0.773157 0.024377 0.633746
vn 0.615498 0.024377 0.787761
vn 0.671788 0.024377 0.740343
vn 0.773157 0.024377 0.633746
vn 0.671788 0.024377 0.740343
vn 0.817688 0.024377 0.575145
vn 0.893236 0.024377 0.448926
vn 0.773157 0.024377 0.633746
vn 0.817688 0.024377 0.575145
vn 0.893236 0.024377 0.448926
vn 0.817688 0.024377 0.575145
vn 0.923844 0.024377 0.381992
vn 0.963660 0.024377 0.266018
vn 0.893236 0.024377 0.448926
vn 0.923844 0.024377 0.381992
vn 0.963660 0.024377 0.266018
vn 0.923844 0.024377 0.381992
vn 0.980620 0.024377 0.194399
vn 0.992264 0.024377 0.121726
vn 0.963660 0.024377 0.266018
vn 0.980620 0.024377 0.194399
vn 0.992264 0.024377 0.121726
vn 0.980620 0.024377 0.194399
vn 0.992264 0.024377 0.121726
vn 0.997302 0.073406 0.000000
vn 0.995200 0.097862 0.000000
vn 0.963813 0.266580 0.000000
vn 0.995200 0.097862 0.000000
vn 0.963813 0.266580 0.000000
vn 0.963813 0.266580 0.000000
vn 0.963813 0.266580 0.000000
vn 0.963813 0.266580 0.000000
vn 0.893277 0.449507 0.000000
vn 0.963813 0.266580 0.000000
vn 0.893277 0.449507 0.000000
vn 0.870142 0.492801 0.000000
vn 0.870142 0.492801 0.000000
vn 0.893277 0.449507 0.000000
vn 0.773070 0.634321 0.000000
vn 0.870142 0.492801 0.000000
vn 0.773070 0.634321 0.000000
vn 0.773070 0.634321 0.000000
vn 0.773070 0.634321 0.000000
vn 0.773070 0.634321 0.000000
vn 0.634450 0.772964 0.000000
vn 0.773070 0.634321 0.000000
vn 0.595754 0.803167 0.000000
vn 0.634450 0.772964 0.000000
vn 0.634450 0.772964 0.000000
vn 0.595754 0.803167 0.000000
vn 0.471443 0.881897 0.000000
vn 0.595754 0.803167 0.000000
vn 0.405282 0.914192 0.000000
vn 0.471443 0.881897 0.000000
vn 0.471443 0.881897 0.000000
vn 0.405282 0.914192 0.000000
vn 0.219124 0.975697 0.000000
vn 0.405282 0.914192 0.000000
vn 0.219124 0.975697 0.000000
vn 0.219124 0.975697 0.000000
vn 0.219124 0.975697 0.000000
vn 0.219124 0.975697 0.000000
vn 0.000000 1.000000 0.000000
vn 0.219124 0.975697 0.000000
vn 0.000000 1.000000 0.000000
vn 0.000000 1.000000 0.000000
vn 0.998803 0.048906 0.000000
vn 0.995200 0.097862 0.000000
vn 0.997302 0.073406 0.000000
vn 0.998803 0.048906 0.000000
vn 0.997302 0.073406 0.000000
vn 0.999703 0.024377 0.000000
vn 0.999703 0.024377 0.000000
vn 0.998803 0.048906 0.000000
vn 0.999703 0.024377 0.000000
vn 0.999703 0.024377 0.000000
vn 0.999703 0.024377 0.000000
vn 0.999703 0.024377 0.000000
vn 0.999703 0.024377 0.000000
vn 0.999703 0.024377 0.000000
vn 0.999703 0.024377 0.000000
vn 0.999703 0.024377 0.000000
vn 0.999703 0.024377 0.000000
vn 0.999703 0.024377 0.000000
vn 0.999703 0.024377 0.000000
vn 0.999703 0.024377 0.000000
vn 0.999703 0.024377 0.000000
vn 0.999703 0.024377 0.000000
vn 0.999703 0.024377 0.000000
vn 0.999703 0.024377 0.000000
vn 0.999703 0.024377 0.000000
vn 0.999703 0.024377 0.000000
vn 0.999703 0.024377 0.000000
vn 0.999703 0.024377 0.000000
vn 0.999703 0.024377 0.000000
vn 0.999703 0.024377 0.000000
vn -0.869887 0.492801 -0.021067
vn -0.869887 0.492801 -0.021067
vn -0.869887 0.492801 -0.021067
vn -0.869887 0.492801 -0.021067
vn -0.869887 0.492801 -0.021067
vn -0.869887 0.492801 -0.021067
vn 0.870142 0.492801 0.000000
vn 0.870142 0.492801 0.000000
vn 0.870142 0.492801 0.000000
vn 0.870142 0.492801 0.000000
vn 0.870142 0.492801 0.000000
vn 0.870142 0.492801 0.000000
s off
g teleporter_01_b:_1
usemtl teleporter_01_b:MD3__default__teleporter_01_002__0
f 1/1/1 3/2/2 2/3/3
f 3/2/4 1/1/5 4/4/6
f 5/5/7 7/6/8 6/7/9
f 5/5/10 8/8/11 7/6/12
f 9/9/13 11/10/14 10/11/15
f 9/9/16 12/12/17 11/10/18
f 13/13/19 15/14/20 14/15/21
f 16/16/22 13/13/23 14/15/24
f 17/17/25 19/18/26 18/19/27
f 18/19/28 20/20/29 17/17/30
f 21/21/31 23/22/32 22/23/33
f 23/22/34 21/21/35 24/24/36
f 25/25/37 27/26/38 26/27/39
f 26/27/40 28/28/41 25/25/42
f 29/29/43 31/30/44 30/31/45
f 29/29/46 32/32/47 31/30/48
f 33/33/49 35/34/50 34/35/51
f 33/33/52 36/36/53 35/34/54
f 36/36/55 33/33/56 37/37/57
f 38/38/58 40/39/59 39/40/60
f 39/40/61 41/41/62 38/38/63
f 39/40/64 42/42/65 41/41/66
f 43/43/67 45/44/68 44/45/69
f 46/46/70 48/47/71 47/48/72
f 49/49/73 51/50/74 50/51/75
f 52/52/76 54/53/77 53/54/78
f 55/55/79 57/56/80 56/57/81
f 58/58/82 60/59/83 59/60/84
f 61/61/85 63/62/86 62/63/87
f 64/64/88 66/65/89 65/66/90
f 67/67/91 69/68/92 68/69/93
f 70/70/94 72/71/95 71/72/96
f 73/73/97 75/74/98 74/75/99
f 76/76/100 78/77/101 77/78/102
f 79/79/103 81/80/104 80/81/105
f 82/82/106 84/83/107 83/84/108
f 85/85/109 87/86/110 86/87/111
f 85/85/112 86/87/113 88/88/114
f 89/89/115 91/90/116 90/91/117
f 89/89/118 90/91/119 92/92/120
f 93/93/121 95/94/122 94/95/123
f 93/93/124 94/95/125 96/96/126
f 97/97/127 99/98/128 98/99/129
f 99/98/130 100/100/131 98/99/132
f 101/101/133 103/102/134 102/103/135
f 103/102/136 104/104/137 102/103/138
f 105/105/139 106/106/140 101/101/141
f 106/106/142 103/102/143 101/101/144
f 107/107/145 108/108/146 105/105/147
f 108/108/148 106/106/149 105/105/150
f 109/109/151 110/110/152 107/107/153
f 110/110/154 108/108/155 107/107/156
f 111/111/157 112/112/158 109/109/159
f 112/112/160 110/110/161 109/109/162
f 113/113/163 114/114/164 111/111/165
f 114/114/166 112/112/167 111/111/168
f 115/115/169 117/116/170 116/117/171
f 118/118/172 120/119/173 119/120/174
f 121/121/175 123/122/176 122/123/177
f 121/121/178 122/123/179 124/124/180
f 123/122/181 126/125/182 125/126/183
f 123/122/184 125/126/185 122/123/186
f 126/125/187 128/127/188 127/128/189
f 126/125/190 127/128/191 125/126/192
f 128/127/193 130/129/194 129/130/195
f 128/127/196 129/130/197 127/128/198
f 130/129/199 131/131/200 129/130/201
f 131/131/202 132/132/203 129/130/204
f 131/131/205 133/133/206 132/132/207
f 133/133/208 134/134/209 132/132/210
f 133/133/211 136/135/212 135/136/213
f 133/133/214 135/136/215 134/134/216
f 137/137/217 139/138/218 138/139/219
f 137/137/220 138/139/221 140/140/222
f 141/141/223 143/142/224 142/143/225
f 144/144/226 146/145/227 145/146/228
f 61/61/229 147/147/230 63/62/231
f 147/147/232 148/148/233 63/62/234
f 147/147/235 149/149/236 148/148/237
f 149/149/238 150/150/239 148/148/240
f 149/149/241 151/151/242 150/150/243
f 151/151/244 152/152/245 150/150/246
f 151/151/247 153/153/248 152/152/249
f 153/153/250 154/154/251 152/152/252
f 153/153/253 155/155/254 154/154/255
f 155/155/256 156/156/257 154/154/258
f 155/155/259 102/103/260 156/156/261
f 102/103/262 104/104/263 156/156/264
f 157/157/265 159/158/266 158/159/267
f 157/157/268 158/159/269 160/160/270
f 158/159/271 162/161/272 161/162/273
f 158/159/274 161/162/275 160/160/276
f 163/163/277 165/164/278 164/165/279
f 163/163/280 164/165/281 166/166/282
f 164/165/283 159/158/284 157/157/285
f 164/165/286 157/157/287 166/166/288
f 60/59/289 58/58/290 165/164/291
f 60/59/292 165/164/293 163/163/294
f 167/167/295 169/168/296 168/169/297
f 169/168/298 170/170/299 168/169/300
f 171/171/301 172/172/302 161/162/303
f 171/171/304 161/162/305 162/161/306
f 173/173/307 174/174/308 172/172/309
f 173/173/310 172/172/311 171/171/312
f 175/175/313 177/176/314 176/177/315
f 175/175/316 176/177/317 178/178/318
f 179/179/319 181/180/320 180/181/321
f 179/179/322 180/181/323 182/182/324
f 183/183/325 185/184/326 184/185/327
f 183/183/328 184/185/329 186/186/330
f 187/187/331 188/188/332 174/174/333
f 187/187/334 174/174/335 173/173/336
f 56/57/337 190/189/338 189/190/339
f 56/57/340 189/190/341 55/55/342
f 191/191/343 193/192/344 192/193/345
f 193/192/346 194/194/347 192/193/348
f 190/189/349 193/192/350 189/190/351
f 193/192/352 191/191/353 189/190/354
f 195/195/355 197/196/356 196/197/357
f 195/195/358 196/197/359 198/198/360
f 194/194/361 197/196/362 192/193/363
f 197/196/364 195/195/365 192/193/366
f 199/199/367 201/200/368 200/201/369
f 199/199/370 200/201/371 202/202/372
f 203/203/373 205/204/374 204/205/375
f 203/203/376 204/205/377 206/206/378
f 207/207/379 208/208/380 203/203/381
f 208/208/382 205/204/383 203/203/384
f 209/209/385 210/210/386 207/207/387
f 210/210/388 208/208/389 207/207/390
f 211/211/391 212/212/392 210/210/393
f 211/211/394 210/210/395 209/209/396
f 213/213/397 214/214/398 212/212/399
f 213/213/400 212/212/401 211/211/402
f 215/215/403 216/216/404 214/214/405
f 215/215/406 214/214/407 213/213/408
f 217/217/409 218/218/410 216/216/411
f 217/217/412 216/216/413 215/215/414
f 219/219/415 221/220/416 220/221/417
f 219/219/418 220/221/419 222/222/420
f 222/222/421 198/198/422 196/197/423
f 222/222/424 196/197/425 219/219/426
f 223/223/427 225/224/428 224/225/429
f 223/223/430 224/225/431 226/226/432
f 226/226/433 224/225/434 227/227/435
f 226/226/436 227/227/437 228/228/438
f 228/228/439 227/227/440 229/229/441
f 228/228/442 229/229/443 230/230/444
f 230/230/445 229/229/446 231/231/447
f 230/230/448 231/231/449 232/232/450
f 232/232/451 231/231/452 233/233/453
f 232/232/454 233/233/455 234/234/456
f 234/234/457 233/233/458 235/235/459
f 234/234/460 235/235/461 236/236/462
f 236/236/463 235/235/464 237/237/465
f 236/236/466 237/237/467 238/238/468
f 239/239/469 241/240/470 240/241/471
f 239/239/472 240/241/473 242/242/474
f 243/243/475 245/244/476 244/245/477
f 243/243/478 244/245/479 246/246/480
f 247/247/481 249/248/482 248/249/483
f 250/250/484 252/251/485 251/252/486
f 253/253/487 255/254/488 254/255/489
f 253/253/490 254/255/491 256/256/492
f 257/257/493 259/258/494 258/259/495
f 257/257/496 258/259/497 260/260/498
f 261/261/499 263/262/500 262/263/501
f 261/261/502 262/263/503 264/264/504
f 265/265/505 261/261/506 266/266/507
f 261/261/508 264/264/509 266/266/510
f 267/267/511 265/265/512 268/268/513
f 265/265/514 266/266/515 268/268/516
f 269/269/517 267/267/518 270/270/519
f 267/267/520 268/268/521 270/270/522
f 271/271/523 269/269/524 270/270/525
f 271/271/526 270/270/527 272/272/528
f 273/273/529 271/271/530 272/272/531
f 273/273/532 272/272/533 274/274/534
f 275/275/535 277/276/536 276/277/537
f 277/276/538 278/278/539 276/277/540
f 279/279/541 281/280/542 280/281/543
f 279/279/544 280/281/545 282/282/546
f 281/280/547 279/279/548 283/283/549
f 281/280/550 283/283/551 284/284/552
f 284/284/553 283/283/554 285/285/555
f 284/284/556 285/285/557 286/286/558
f 286/286/559 285/285/560 287/287/561
f 286/286/562 287/287/563 288/288/564
f 288/288/565 287/287/566 289/289/567
f 288/288/568 289/289/569 290/290/570
f 290/290/571 289/289/572 291/291/573
f 290/290/574 291/291/575 292/292/576
f 293/293/577 282/282/578 280/281/579
f 293/293/580 280/281/581 294/294/582
f 295/295/583 297/296/584 296/297/585
f 298/298/586 294/294/587 299/299/588
f 300/300/589 302/301/590 301/302/591
f 302/301/592 299/299/593 301/302/594
f 303/303/595 305/304/596 304/305/597
f 303/303/598 304/305/599 306/306/600
f 307/307/601 303/303/602 306/306/603
f 307/307/604 306/306/605 308/308/606
f 309/309/607 307/307/608 308/308/609
f 309/309/610 308/308/611 310/310/612
f 311/311/613 309/309/614 310/310/615
f 311/311/616 310/310/617 312/312/618
f 313/313/619 311/311/620 312/312/621
f 313/313/622 312/312/623 314/314/624
f 314/314/625 53/54/626 54/53/627
f 314/314/628 54/53/629 313/313/630
f 315/315/631 317/316/632 316/317/633
f 315/315/634 316/317/635 318/318/636
f 319/319/637 321/320/638 320/321/639
f 319/319/640 320/321/641 322/322/642
f 323/323/643 324/324/644 44/45/645
f 323/323/646 44/45/647 45/44/648
f 324/324/649 323/323/650 325/325/651
f 324/324/652 325/325/653 326/326/654
f 326/326/655 325/325/656 327/327/657
f 326/326/658 327/327/659 328/328/660
f 328/328/661 327/327/662 329/329/663
f 328/328/664 329/329/665 330/330/666
f 330/330/667 329/329/668 331/331/669
f 330/330/670 331/331/671 332/332/672
f 332/332/673 331/331/674 333/333/675
f 332/332/676 333/333/677 334/334/678
f 335/335/679 337/336/680 336/337/681
f 337/336/682 338/338/683 336/337/684
f 339/339/685 338/338/686 340/340/687
f 341/341/688 343/342/689 342/343/690
f 344/344/691 340/340/692 345/345/693
f 344/344/694 345/345/695 346/346/696
f 347/347/697 349/348/698 348/349/699
f 347/347/700 348/349/701 350/350/702
f 351/351/703 347/347/704 350/350/705
f 351/351/706 350/350/707 352/352/708
f 353/353/709 351/351/710 352/352/711
f 353/353/712 352/352/713 354/354/714
f 355/355/715 353/353/716 354/354/717
f 355/355/718 354/354/719 356/356/720
f 357/357/721 355/355/722 356/356/723
f 357/357/724 356/356/725 358/358/726
f 358/358/727 346/346/728 345/345/729
f 358/358/730 345/345/731 357/357/732
f 359/359/733 361/360/734 360/361/735
f 359/359/736 360/361/737 362/362/738
f 363/363/739 359/359/740 362/362/741
f 363/363/742 362/362/743 364/364/744
f 365/365/745 363/363/746 364/364/747
f 365/365/748 364/364/749 366/366/750
f 367/367/751 365/365/752 366/366/753
f 367/367/754 366/366/755 368/368/756
f 369/369/757 367/367/758 368/368/759
f 369/369/760 368/368/761 370/370/762
f 371/371/763 369/369/764 370/370/765
f 371/371/766 370/370/767 372/372/768
f 373/373/769 371/371/770 372/372/771
f 373/373/772 372/372/773 374/374/774
f 375/375/775 377/376/776 376/377/777
f 377/376/778 378/378/779 376/377/780
f 379/379/781 381/380/782 380/381/783
f 382/382/784 380/381/785 383/383/786
f 383/383/787 380/381/788 384/384/789
f 383/383/790 384/384/791 385/385/792
f 385/385/793 384/384/794 386/386/795
f 384/384/796 387/387/797 386/386/798
f 386/386/799 387/387/800 388/388/801
f 387/387/802 389/389/803 388/388/804
f 388/388/805 389/389/806 390/390/807
f 389/389/808 391/391/809 390/390/810
f 390/390/811 391/391/812 262/263/813
f 390/390/814 262/263/815 263/262/816
f 392/392/817 394/393/818 393/394/819
f 392/392/820 393/394/821 395/395/822
f 396/396/823 398/397/824 397/398/825
f 396/396/826 397/398/827 399/399/828
f 400/400/829 402/401/830 401/402/831
f 403/403/832 405/404/833 404/405/834
f 406/406/835 408/407/836 407/408/837
f 406/406/838 407/408/839 409/409/840
f 410/410/841 412/411/842 411/412/843
f 410/410/844 411/412/845 413/413/846
f 414/414/847 416/415/848 415/416/849
f 414/414/850 415/416/851 417/417/852
f 418/418/853 420/419/854 419/420/855
f 418/418/856 419/420/857 421/421/858
