# Exported by Gskelview
mtllib teleporter_01_a.mtl

v 21.5781 2.84375 21.5781
v 11.6719 237.844 28.1875
v 21.5781 237.844 21.5781
v 11.6719 2.84375 28.1875
v 0 237.844 30.5156
v 0 2.84375 30.5156
v -11.6719 237.844 28.1875
v -11.6719 2.84375 28.1875
v -21.5781 237.844 21.5781
v -21.5781 2.84375 21.5781
v -28.1875 237.844 11.6719
v -28.1875 2.84375 11.6719
v -30.5156 237.844 0
v -30.5156 2.84375 0
v -28.1875 237.844 -11.6719
v -28.1875 2.84375 -11.6719
v -21.5781 237.844 -21.5781
v -21.5781 2.84375 -21.5781
v -11.6719 237.844 -28.1875
v -11.6719 2.84375 -28.1875
v 0 237.844 -30.5156
v 0 2.84375 -30.5156
v 11.6719 237.844 -28.1875
v 11.6719 2.84375 -28.1875
v 21.5781 237.844 -21.5781
v 21.5781 2.84375 -21.5781
v 28.1875 237.844 -11.6719
v 28.1875 2.84375 -11.6719
v 30.5156 237.844 0
v 30.5156 2.84375 0
v 28.1875 237.844 11.6719
v 30.5156 2.84375 0
v 28.1875 2.84375 11.6719
v 30.5156 237.844 0
v -0.015625 0 12.2812
v 1.9375 214 2.6875
v 7.1875 0 9.95312
v 0 214 3.32812
v -7.23438 0 9.90625
v 0 214 3.32812
v -0.015625 0 12.2812
v -1.95312 214 2.6875
v -11.6875 0 3.76562
v -3.15625 214 1.01562
v -11.6719 0 -3.8125
v -3.15625 214 -1.03125
v -7.1875 0 -9.95312
v -1.9375 214 -2.6875
v 0.015625 0 -12.2812
v 0 214 -3.32812
v 7.23438 0 -9.90625
v 1.95312 214 -2.6875
v 11.6875 0 -3.76562
v 3.15625 214 -1.01562
v 11.6719 0 3.8125
v 3.15625 214 1.03125
v -5.9375 -0.984375 63.9375
v 5.9375 -4.89062 66.1094
v -5.9375 -4.89062 66.1094
v 5.9375 -0.984375 63.9375
v 5.9375 -4.89062 -66.1094
v -5.9375 -0.984375 -63.9375
v -5.9375 -4.89062 -66.1094
v 5.9375 -0.984375 -63.9375
v -5.9375 -0.984375 -63.9375
v -9.40625 -4.89062 -50.2969
v -5.9375 -4.89062 -66.1094
v -9.40625 -0.984375 -40.4062
v 5.9375 -0.984375 -63.9375
v 5.9375 -4.89062 -66.1094
v 9.40625 -0.984375 -40.4062
v 9.40625 -4.89062 -50.2969
v 5.9375 -0.984375 63.9375
v 9.40625 -4.89062 50.2969
v 5.9375 -4.89062 66.1094
v 9.40625 -0.984375 40.4062
v -5.9375 -4.89062 66.1094
v -9.40625 -0.984375 40.4062
v -5.9375 -0.984375 63.9375
v -9.40625 -4.89062 50.2969
v 12.25 -0.984375 39.8125
v 9.40625 -4.89062 50.2969
v 9.40625 -0.984375 40.4062
v 14.5156 -4.89062 49.5469
v 20.8594 -0.984375 36.7344
v 25.25 -4.89062 45.7031
v 28.4531 -0.984375 31.8906
v 34.7031 -4.89062 39.7031
v 34.7812 -0.984375 25.5625
v 42.5781 -4.89062 31.8125
v 39.6094 -0.984375 17.9688
v 48.5938 -4.89062 22.3594
v 42.6875 -0.984375 9.35938
v 52.4375 -4.89062 11.6406
v 43.7656 -0.984375 0
v 53.7656 -4.89062 0
v 42.6875 -0.984375 -9.35938
v 52.4375 -4.89062 -11.6406
v 39.6094 -0.984375 -17.9688
v 48.5938 -4.89062 -22.3594
v 34.7812 -0.984375 -25.5625
v 42.5781 -4.89062 -31.8125
v 28.4531 -0.984375 -31.8906
v 34.7031 -4.89062 -39.7031
v 20.8594 -0.984375 -36.7344
v 25.25 -4.89062 -45.7031
v 12.25 -0.984375 -39.8125
v 14.5156 -4.89062 -49.5469
v 9.40625 -0.984375 -40.4062
v 9.40625 -4.89062 -50.2969
v -9.40625 -0.984375 -40.4062
v -14.5156 -4.89062 -49.5469
v -9.40625 -4.89062 -50.2969
v -12.25 -0.984375 -39.8125
v -25.25 -4.89062 -45.7031
v -20.8594 -0.984375 -36.7344
v -34.7031 -4.89062 -39.7031
v -28.4531 -0.984375 -31.8906
v -42.5781 -4.89062 -31.8125
v -34.7812 -0.984375 -25.5625
v -48.5938 -4.89062 -22.3594
v -39.6094 -0.984375 -17.9688
v -52.4375 -4.89062 -11.6406
v -42.6875 -0.984375 -9.35938
v -53.7656 -4.89062 0
v -43.7656 -0.984375 0
v -52.4375 -4.89062 11.6406
v -42.6875 -0.984375 9.35938
v -48.5938 -4.89062 22.3594
v -39.6094 -0.984375 17.9688
v -42.5781 -4.89062 31.8125
v -34.7812 -0.984375 25.5625
v -34.7031 -4.89062 39.7031
v -28.4531 -0.984375 31.8906
v -25.25 -4.89062 45.7031
v -20.8594 -0.984375 36.7344
v -14.5156 -4.89062 49.5469
v -12.25 -0.984375 39.8125
v -9.40625 -4.89062 50.2969
v -9.40625 -0.984375 40.4062
v 0 -0.984375 -41.3125
v 9.40625 3.17188 -38.5469
v 0 3.17188 -39.4062
v 9.40625 -0.984375 -40.4062
v 12.25 -0.984375 -39.8125
v 9.40625 3.17188 -38.5469
v 9.40625 -0.984375 -40.4062
v 20.8594 -0.984375 -36.7344
v 9.40625 3.17188 -38.5469
v 19.2656 3.17188 -35.0312
v 28.4531 -0.984375 -31.8906
v 26.5156 3.17188 -30.4219
v 34.7812 -0.984375 -25.5625
v 32.5625 3.17188 -24.375
v 39.6094 -0.984375 -17.9688
v 37.1719 3.17188 -17.1406
v 42.6875 -0.984375 -9.35938
v 40.1094 3.17188 -8.9375
v 43.7656 -0.984375 0
v 41.1406 3.17188 0
v 42.6875 -0.984375 9.35938
v 41.1406 3.17188 0
v 43.7656 -0.984375 0
v 40.1094 3.17188 8.9375
v 39.6094 -0.984375 17.9688
v 37.1719 3.17188 17.1406
v 34.7812 -0.984375 25.5625
v 32.5625 3.17188 24.375
v 28.4531 -0.984375 31.8906
v 26.5156 3.17188 30.4219
v 20.8594 -0.984375 36.7344
v 19.2656 3.17188 35.0312
v 12.25 -0.984375 39.8125
v 9.40625 3.17188 38.5469
v 9.40625 -0.984375 40.4062
v 0 3.17188 39.4062
v 9.40625 -0.984375 40.4062
v 0 -0.984375 41.3125
v 9.40625 3.17188 38.5469
v 14.5156 -4.89062 49.5469
v 9.40625 -10.375 50.2969
v 9.40625 -4.89062 50.2969
v 14.5156 -10.375 49.5469
v 25.25 -4.89062 45.7031
v 25.25 -10.375 45.7031
v 34.7031 -4.89062 39.7031
v 34.7031 -10.375 39.7031
v 42.5781 -4.89062 31.8125
v 42.5781 -10.375 31.8125
v 48.5938 -4.89062 22.3594
v 48.5938 -10.375 22.3594
v 52.4375 -4.89062 11.6406
v 52.4375 -10.375 11.6406
v 53.7656 -4.89062 0
v 53.7656 -10.375 0
v 52.4375 -4.89062 -11.6406
v 52.4375 -10.375 -11.6406
v 48.5938 -4.89062 -22.3594
v 48.5938 -10.375 -22.3594
v 42.5781 -4.89062 -31.8125
v 42.5781 -10.375 -31.8125
v 34.7031 -4.89062 -39.7031
v 34.7031 -10.375 -39.7031
v 25.25 -4.89062 -45.7031
v 25.25 -10.375 -45.7031
v 14.5156 -4.89062 -49.5469
v 14.5156 -10.375 -49.5469
v 9.40625 -4.89062 -50.2969
v 9.40625 -10.375 -50.2969
v 5.9375 -4.89062 -66.1094
v -5.9375 -10.375 -66.1094
v 5.9375 -10.375 -66.1094
v -5.9375 -4.89062 -66.1094
v -9.40625 -4.89062 -50.2969
v -14.5156 -10.375 -49.5469
v -9.40625 -10.375 -50.2969
v -14.5156 -4.89062 -49.5469
v -25.25 -10.375 -45.7031
v -25.25 -4.89062 -45.7031
v -34.7031 -10.375 -39.7031
v -34.7031 -4.89062 -39.7031
v -42.5781 -10.375 -31.8125
v -42.5781 -4.89062 -31.8125
v -48.5938 -10.375 -22.3594
v -48.5938 -4.89062 -22.3594
v -52.4375 -10.375 -11.6406
v -52.4375 -4.89062 -11.6406
v -53.7656 -10.375 0
v -53.7656 -4.89062 0
v -52.4375 -10.375 11.6406
v -52.4375 -4.89062 11.6406
v -48.5938 -10.375 22.3594
v -48.5938 -4.89062 22.3594
v -42.5781 -10.375 31.8125
v -42.5781 -4.89062 31.8125
v -34.7031 -10.375 39.7031
v -34.7031 -4.89062 39.7031
v -25.25 -10.375 45.7031
v -25.25 -4.89062 45.7031
v -14.5156 -10.375 49.5469
v -14.5156 -4.89062 49.5469
v -9.40625 -10.375 50.2969
v -9.40625 -4.89062 50.2969
v -5.9375 -4.89062 66.1094
v 5.9375 -10.375 66.1094
v -5.9375 -10.375 66.1094
v 5.9375 -4.89062 66.1094
v 0 3.17188 39.4062
v -9.40625 -0.984375 40.4062
v -9.40625 3.17188 38.5469
v 0 -0.984375 41.3125
v -9.40625 -0.984375 40.4062
v -12.25 -0.984375 39.8125
v -9.40625 3.17188 38.5469
v -19.2656 3.17188 35.0312
v -20.8594 -0.984375 36.7344
v -26.5156 3.17188 30.4219
v -28.4531 -0.984375 31.8906
v -32.5625 3.17188 24.375
v -34.7812 -0.984375 25.5625
v -37.1719 3.17188 17.1406
v -39.6094 -0.984375 17.9688
v -40.1094 3.17188 8.9375
v -42.6875 -0.984375 9.35938
v -41.1406 3.17188 0
v -43.7656 -0.984375 0
v -43.7656 -0.984375 0
v -40.1094 3.17188 -8.9375
v -41.1406 3.17188 0
v -42.6875 -0.984375 -9.35938
v -37.1719 3.17188 -17.1406
v -39.6094 -0.984375 -17.9688
v -32.5625 3.17188 -24.375
v -34.7812 -0.984375 -25.5625
v -26.5156 3.17188 -30.4219
v -28.4531 -0.984375 -31.8906
v -19.2656 3.17188 -35.0312
v -20.8594 -0.984375 -36.7344
v -9.40625 3.17188 -38.5469
v -12.25 -0.984375 -39.8125
v -9.40625 -0.984375 -40.4062
v -9.40625 3.17188 -38.5469
v -9.40625 3.17188 -38.5469
v 0 -0.984375 -41.3125
v 0 3.17188 -39.4062
v -9.40625 -0.984375 -40.4062
v -40.1094 3.17188 -8.9375
v -40.1094 3.17188 8.9375
v -41.1406 3.17188 0
v 9.40625 -0.984375 40.4062
v 5.9375 -0.984375 63.9375
v 0 -0.984375 41.3125
v -9.40625 -4.89062 50.2969
v -5.9375 -10.375 66.1094
v -9.40625 -10.375 50.2969
v -5.9375 -4.89062 66.1094
v 9.40625 -10.375 50.2969
v 5.9375 -4.89062 66.1094
v 9.40625 -4.89062 50.2969
v 5.9375 -10.375 66.1094
v 0 -0.984375 -41.3125
v 5.9375 -0.984375 -63.9375
v 9.40625 -0.984375 -40.4062
v 9.40625 -4.89062 -50.2969
v 5.9375 -10.375 -66.1094
v 9.40625 -10.375 -50.2969
v 5.9375 -4.89062 -66.1094
v -9.40625 -10.375 -50.2969
v -5.9375 -4.89062 -66.1094
v -9.40625 -4.89062 -50.2969
v -5.9375 -10.375 -66.1094
v -5.9375 -0.984375 -63.9375
v -9.40625 -0.984375 -40.4062
v -5.9375 -0.984375 63.9375
v -9.40625 -0.984375 40.4062
v 0 3.17188 -39.4062
v -9.40625 3.17188 38.5469
v -9.40625 3.17188 -38.5469
v 0 3.17188 39.4062
v -26.5156 3.17188 30.4219
v -19.2656 3.17188 -35.0312
v -19.2656 3.17188 35.0312
v -26.5156 3.17188 -30.4219
v -37.1719 3.17188 17.1406
v -32.5625 3.17188 -24.375
v -32.5625 3.17188 24.375
v -37.1719 3.17188 -17.1406
v 40.1094 3.17188 8.9375
v 37.1719 3.17188 -17.1406
v 40.1094 3.17188 -8.9375
v 37.1719 3.17188 17.1406
v 32.5625 3.17188 -24.375
v 26.5156 3.17188 30.4219
v 26.5156 3.17188 -30.4219
v 32.5625 3.17188 24.375
v 19.2656 3.17188 -35.0312
v 9.40625 3.17188 38.5469
v 9.40625 3.17188 -38.5469
v 19.2656 3.17188 35.0312
v 41.1406 3.17188 0
vt 0.383851 0.0289884
vt 0.359542 0.943076
vt 0.383851 0.943076
vt 0.359542 0.0289884
vt 0.335233 0.943076
vt 0.335233 0.0289884
vt 0.310924 0.943076
vt 0.310924 0.0289884
vt 0.286615 0.943076
vt 0.286615 0.0289884
vt 0.262306 0.943076
vt 0.262306 0.0289884
vt 0.237997 0.943076
vt 0.237997 0.0289884
vt 0.213688 0.943076
vt 0.213688 0.0289884
vt 0.189379 0.943076
vt 0.189379 0.0289884
vt 0.165069 0.943076
vt 0.16507 0.0289884
vt 0.14076 0.943076
vt 0.140761 0.0289884
vt 0.116451 0.943076
vt 0.116452 0.0289884
vt 0.0921422 0.943076
vt 0.0921431 0.0289884
vt 0.0678332 0.943076
vt 0.067834 0.0289884
vt 0.0457641 0.943076
vt 0.045765 0.0289884
vt 0.40816 0.943076
vt 0.432469 0.0289884
vt 0.40816 0.0289884
vt 0.432469 0.943076
vt 0.581831 0.0299999
vt 0.620247 0.923768
vt 0.620097 0.0300329
vt 0.581982 0.923734
vt 0.926224 0.0302976
vt 0.96464 0.924066
vt 0.96449 0.0303308
vt 0.926374 0.924033
vt 0.887958 0.0302646
vt 0.888109 0.923999
vt 0.849692 0.0302315
vt 0.849843 0.923966
vt 0.811426 0.0301983
vt 0.811577 0.923933
vt 0.773161 0.0301653
vt 0.773311 0.9239
vt 0.734895 0.0301322
vt 0.735045 0.923867
vt 0.696629 0.0300991
vt 0.696779 0.923834
vt 0.658363 0.030066
vt 0.658513 0.923801
vt 0.789615 0.578765
vt 0.806233 0.665598
vt 0.805691 0.567838
vt 0.789615 0.655906
vt 0.0573158 0.665915
vt 0.0737947 0.578765
vt 0.0572576 0.568887
vt 0.0737947 0.655906
vt 0.0737947 0.578765
vt 0.158731 0.560234
vt 0.0572576 0.568887
vt 0.212366 0.560234
vt 0.0737947 0.655906
vt 0.0573158 0.665915
vt 0.212364 0.673903
vt 0.158729 0.673903
vt 0.789615 0.655906
vt 0.70468 0.673903
vt 0.806233 0.665598
vt 0.651045 0.673903
vt 0.805691 0.567838
vt 0.651043 0.560234
vt 0.789615 0.578765
vt 0.704678 0.560234
vt 0.645245 0.724661
vt 0.704678 0.674437
vt 0.651043 0.674403
vt 0.697477 0.736848
vt 0.62873 0.770814
vt 0.676907 0.794389
vt 0.602823 0.811542
vt 0.644663 0.845099
vt 0.568844 0.84552
vt 0.602401 0.887361
vt 0.528116 0.871428
vt 0.551691 0.919604
vt 0.481963 0.887943
vt 0.494151 0.940175
vt 0.431705 0.893741
vt 0.431705 0.947376
vt 0.381447 0.887943
vt 0.369259 0.940174
vt 0.335293 0.871428
vt 0.311718 0.919604
vt 0.294566 0.845521
vt 0.261008 0.887361
vt 0.260587 0.811542
vt 0.218746 0.845099
vt 0.234679 0.770814
vt 0.186503 0.794389
vt 0.218165 0.724661
vt 0.165933 0.736848
vt 0.212366 0.674403
vt 0.158731 0.674437
vt 0.212366 0.560268
vt 0.165933 0.497822
vt 0.158731 0.560234
vt 0.218165 0.51001
vt 0.186503 0.440281
vt 0.234679 0.463856
vt 0.218746 0.389572
vt 0.260587 0.423129
vt 0.261008 0.34731
vt 0.294566 0.38915
vt 0.311718 0.315066
vt 0.335293 0.363242
vt 0.369259 0.294496
vt 0.381447 0.346728
vt 0.431705 0.287294
vt 0.431705 0.340929
vt 0.494151 0.294496
vt 0.481963 0.346728
vt 0.551691 0.315066
vt 0.528116 0.363242
vt 0.602401 0.34731
vt 0.568844 0.38915
vt 0.644663 0.389572
vt 0.602823 0.423129
vt 0.676907 0.440282
vt 0.62873 0.463856
vt 0.697477 0.497822
vt 0.645245 0.51001
vt 0.704678 0.560234
vt 0.651043 0.560268
vt 0.982941 0.107249
vt 0.96048 0.170225
vt 0.960575 0.122783
vt 0.982941 0.165751
vt 0.982941 0.23321
vt 0.96048 0.182877
vt 0.982941 0.182953
vt 0.982941 0.279364
vt 0.96048 0.233565
vt 0.96048 0.279651
vt 0.982941 0.320092
vt 0.96048 0.319874
vt 0.982941 0.35407
vt 0.96048 0.354134
vt 0.982941 0.394798
vt 0.96048 0.395017
vt 0.982941 0.440952
vt 0.96048 0.441156
vt 0.982941 0.49121
vt 0.96048 0.49121
vt 0.0248026 0.440952
vt 0.0472634 0.49121
vt 0.0248026 0.49121
vt 0.0472634 0.440831
vt 0.0248026 0.394798
vt 0.0472634 0.39518
vt 0.0248026 0.35407
vt 0.0472634 0.353891
vt 0.0248024 0.320092
vt 0.0472633 0.320041
vt 0.0248024 0.279364
vt 0.0472633 0.279594
vt 0.0248024 0.233211
vt 0.0472631 0.23313
vt 0.0248024 0.182953
vt 0.0471684 0.122783
vt 0.0248023 0.165751
vt 0.0248024 0.107249
vt 0.0472631 0.170225
vt 0.697477 0.736848
vt 0.73244 0.703888
vt 0.704678 0.674437
vt 0.723491 0.745096
vt 0.676907 0.794389
vt 0.701546 0.805386
vt 0.644663 0.845099
vt 0.663221 0.862178
vt 0.602401 0.887361
vt 0.616148 0.907189
vt 0.551691 0.919604
vt 0.562001 0.943556
vt 0.494151 0.940175
vt 0.500337 0.96825
vt 0.431705 0.947376
vt 0.431705 0.976827
vt 0.369259 0.940174
vt 0.36376 0.966876
vt 0.311718 0.919604
vt 0.302783 0.943556
vt 0.261008 0.887361
vt 0.2452 0.90444
vt 0.218746 0.845099
vt 0.198231 0.858846
vt 0.186503 0.794389
vt 0.164613 0.804012
vt 0.165933 0.736848
vt 0.139919 0.743722
vt 0.158731 0.674437
vt 0.13306 0.703888
vt 0.0573158 0.665915
vt 0.0167799 0.554028
vt 0.0167276 0.680574
vt 0.0572576 0.568887
vt 0.158731 0.560234
vt 0.139919 0.490949
vt 0.13306 0.530783
vt 0.165933 0.497822
vt 0.164613 0.430659
vt 0.186503 0.440281
vt 0.198231 0.375825
vt 0.218746 0.389572
vt 0.2452 0.330231
vt 0.261008 0.34731
vt 0.302783 0.291114
vt 0.311718 0.315066
vt 0.36376 0.267795
vt 0.369259 0.294496
vt 0.431705 0.257844
vt 0.431705 0.287294
vt 0.500337 0.26642
vt 0.494151 0.294496
vt 0.562001 0.291114
vt 0.551691 0.315066
vt 0.616148 0.327482
vt 0.602401 0.34731
vt 0.663221 0.372493
vt 0.644663 0.389572
vt 0.701546 0.429284
vt 0.676907 0.440282
vt 0.723491 0.489574
vt 0.697477 0.497822
vt 0.73244 0.530783
vt 0.704678 0.560234
vt 0.805691 0.567838
vt 0.844899 0.680126
vt 0.845007 0.554723
vt 0.806233 0.665598
vt 0.0471684 0.122783
vt 0.0248023 0.165751
vt 0.0472631 0.170225
vt 0.0248024 0.107249
vt 0.0248024 0.182953
vt 0.0248024 0.233211
vt 0.0472631 0.23313
vt 0.0472633 0.279594
vt 0.0248024 0.279364
vt 0.0472633 0.320041
vt 0.0248024 0.320092
vt 0.0472634 0.353891
vt 0.0248026 0.35407
vt 0.0472634 0.39518
vt 0.0248026 0.394798
vt 0.0472634 0.440831
vt 0.0248026 0.440952
vt 0.0472634 0.49121
vt 0.0248026 0.49121
vt 0.982941 0.49121
vt 0.96048 0.441156
vt 0.96048 0.49121
vt 0.982941 0.440952
vt 0.96048 0.395017
vt 0.982941 0.394798
vt 0.96048 0.354134
vt 0.982941 0.35407
vt 0.96048 0.319874
vt 0.982941 0.320092
vt 0.96048 0.279651
vt 0.982941 0.279364
vt 0.96048 0.233565
vt 0.982941 0.23321
vt 0.982941 0.182953
vt 0.96048 0.182877
vt 0.96048 0.170225
vt 0.982941 0.107249
vt 0.960575 0.122783
vt 0.982941 0.165751
vt 0.384024 0.406404
vt 0.479218 0.406404
vt 0.431621 0.400912
vt 0.651045 0.673903
vt 0.789615 0.655906
vt 0.651043 0.618735
vt 0.704678 0.560234
vt 0.845007 0.554723
vt 0.73244 0.530783
vt 0.805691 0.567838
vt 0.732442 0.703354
vt 0.806233 0.665598
vt 0.70468 0.673903
vt 0.844899 0.680126
vt 0.212366 0.618735
vt 0.0737947 0.655906
vt 0.212364 0.673903
vt 0.158729 0.673903
vt 0.0167276 0.680574
vt 0.133058 0.703354
vt 0.0573158 0.665915
vt 0.13306 0.530783
vt 0.0572576 0.568887
vt 0.158731 0.560234
vt 0.0167799 0.554028
vt 0.0737947 0.578765
vt 0.212366 0.560234
vt 0.789615 0.578765
vt 0.651043 0.560234
vt 0.221763 0.620007
vt 0.636919 0.569914
vt 0.226323 0.569914
vt 0.641479 0.620007
vt 0.593633 0.478797
vt 0.245062 0.517407
vt 0.61818 0.517407
vt 0.269609 0.478797
vt 0.522904 0.422047
vt 0.301812 0.446595
vt 0.56143 0.446595
vt 0.340339 0.422047
vt 0.479218 0.833609
vt 0.340339 0.817966
vt 0.384024 0.833609
vt 0.522904 0.817966
vt 0.301812 0.793418
vt 0.593633 0.761216
vt 0.269609 0.761216
vt 0.56143 0.793418
vt 0.245062 0.722606
vt 0.636919 0.6701
vt 0.226323 0.6701
vt 0.61818 0.722606
vt 0.431621 0.839101
vn 0.689394 0.0243772 0.723976
vn 0.359825 0.0243772 0.932701
vn 0.689394 0.0243772 0.723976
vn 0.359825 0.0243772 0.932701
vn 0 0.0243772 0.999703
vn 0 0.0243772 0.999703
vn -0.359203 0.0243772 0.932941
vn -0.359203 0.0243772 0.932941
vn -0.688911 0.0243772 0.724436
vn -0.688911 0.0243772 0.724436
vn -0.913717 0.0243772 0.405618
vn -0.913717 0.0243772 0.405618
vn -0.999389 0.0243772 0.0250363
vn -0.999389 0.0243772 0.0250363
vn -0.932881 0.0243772 -0.359358
vn -0.932881 0.0243772 -0.359358
vn -0.724321 0.0243772 -0.689032
vn -0.724321 0.0243772 -0.689032
vn -0.405466 0.0243772 -0.913785
vn -0.405466 0.0243772 -0.913785
vn 0.0242034 0.0243772 -0.99941
vn 0.0242034 0.0243772 -0.99941
vn 0.404857 0.0243772 -0.914055
vn 0.404857 0.0243772 -0.914055
vn 0.723861 0.0243772 -0.689515
vn 0.723861 0.0243772 -0.689515
vn 0.932642 0.0243772 -0.35998
vn 0.932642 0.0243772 -0.35998
vn 0.999406 0.0243772 0.0243699
vn 0.999406 0.0243772 0.0243699
vn 0.913988 0.0243772 0.405009
vn 0.999406 0.0243772 0.0243699
vn 0.913988 0.0243772 0.405009
vn 0.999406 0.0243772 0.0243699
vn 0 0.0489064 0.998803
vn 0.575172 0.0489064 0.816569
vn 0.575172 0.0489064 0.816569
vn 0 0.0489064 0.998803
vn -0.574628 0.0489064 0.816952
vn 0 0.0489064 0.998803
vn 0 0.0489064 0.998803
vn -0.574628 0.0489064 0.816952
vn -0.948225 0.0489064 0.313813
vn -0.948225 0.0489064 0.313813
vn -0.955931 0.0489064 -0.289489
vn -0.955931 0.0489064 -0.289489
vn -0.595308 0.0489064 -0.802008
vn -0.595308 0.0489064 -0.802008
vn 0.0241817 0.0489064 -0.998511
vn 0.0241817 0.0489064 -0.998511
vn 0.614288 0.0489064 -0.787565
vn 0.614288 0.0489064 -0.787565
vn 0.955738 0.0489064 -0.290127
vn 0.955738 0.0489064 -0.290127
vn 0.940461 0.0489064 0.336364
vn 0.940461 0.0489064 0.336364
vn 0 0.492801 0.870142
vn 0 0.492801 0.870142
vn 0 0.492801 0.870142
vn 0 0.492801 0.870142
vn 0.0210667 0.492801 -0.869887
vn 0.0210667 0.492801 -0.869887
vn 0.0210667 0.492801 -0.869887
vn 0.0210667 0.492801 -0.869887
vn -0.955864 0.242844 -0.165383
vn -0.955864 0.242844 -0.165383
vn -0.970284 0.146581 -0.192518
vn -0.926077 0.359776 -0.113763
vn 0.987694 0.0978616 -0.122001
vn 0.94286 0.290155 -0.163781
vn 0.94286 0.290155 -0.163781
vn 0.853391 0.492801 -0.169916
vn 0.951454 0.242844 0.189112
vn 0.951454 0.242844 0.189112
vn 0.959587 0.146581 0.240221
vn 0.919326 0.359776 0.159378
vn -0.938494 0.290155 0.187186
vn -0.938494 0.290155 0.187186
vn -0.98046 0.0978616 0.17065
vn -0.843954 0.492801 0.211871
vn 0.0874653 0.932979 0.349143
vn 0.0528185 0.932979 0.356035
vn 0.0528185 0.932979 0.356035
vn 0.0874653 0.932979 0.349143
vn 0.153906 0.932979 0.325367
vn 0.153906 0.932979 0.325367
vn 0.221461 0.932979 0.283735
vn 0.221461 0.932979 0.283735
vn 0.278252 0.932979 0.228312
vn 0.278252 0.932979 0.228312
vn 0.321519 0.932979 0.161792
vn 0.321519 0.932979 0.161792
vn 0.349157 0.932979 0.0874071
vn 0.349157 0.932979 0.0874071
vn 0.359825 0.932979 0.0087741
vn 0.359825 0.932979 0.0087741
vn 0.351171 0.932979 -0.0789282
vn 0.351171 0.932979 -0.0789282
vn 0.325341 0.932979 -0.15396
vn 0.325341 0.932979 -0.15396
vn 0.283698 0.932979 -0.221509
vn 0.283698 0.932979 -0.221509
vn 0.228266 0.932979 -0.27829
vn 0.228266 0.932979 -0.27829
vn 0.161738 0.932979 -0.321545
vn 0.161738 0.932979 -0.321545
vn 0.0958926 0.932979 -0.346923
vn 0.0958926 0.932979 -0.346923
vn 0.0701088 0.932979 -0.353037
vn 0.0701088 0.932979 -0.353037
vn -0.0703442 0.932979 -0.352991
vn -0.0961239 0.932979 -0.346859
vn -0.0703442 0.932979 -0.352991
vn -0.0961239 0.932979 -0.346859
vn -0.161952 0.932979 -0.321438
vn -0.161952 0.932979 -0.321438
vn -0.228451 0.932979 -0.278138
vn -0.228451 0.932979 -0.278138
vn -0.283846 0.932979 -0.221319
vn -0.283846 0.932979 -0.221319
vn -0.325444 0.932979 -0.153743
vn -0.325444 0.932979 -0.153743
vn -0.351223 0.932979 -0.078694
vn -0.351223 0.932979 -0.078694
vn -0.359819 0.932979 0.00901403
vn -0.359819 0.932979 0.00901403
vn -0.349099 0.932979 0.0876399
vn -0.349099 0.932979 0.0876399
vn -0.321411 0.932979 0.162006
vn -0.321411 0.932979 0.162006
vn -0.2781 0.932979 0.228498
vn -0.2781 0.932979 0.228498
vn -0.221272 0.932979 0.283883
vn -0.221272 0.932979 0.283883
vn -0.153689 0.932979 0.32547
vn -0.153689 0.932979 0.32547
vn -0.0872325 0.932979 0.349201
vn -0.0872325 0.932979 0.349201
vn -0.0525811 0.932979 0.35607
vn -0.0525811 0.932979 0.35607
vn 0.0218874 0.427447 -0.903776
vn 0.216782 0.449507 -0.866573
vn 0.0218874 0.427447 -0.903776
vn 0.154276 0.427447 -0.89078
vn 0.259046 0.449507 -0.854891
vn 0.216782 0.449507 -0.866573
vn 0.154276 0.427447 -0.89078
vn 0.391005 0.492801 -0.777343
vn 0.216782 0.449507 -0.866573
vn 0.391005 0.492801 -0.777343
vn 0.544 0.514009 -0.663218
vn 0.544 0.514009 -0.663218
vn 0.676106 0.514009 -0.527897
vn 0.676106 0.514009 -0.527897
vn 0.763713 0.534907 -0.361409
vn 0.763713 0.534907 -0.361409
vn 0.824346 0.534907 -0.185278
vn 0.824346 0.534907 -0.185278
vn 0.83128 0.555484 0.0202703
vn 0.83128 0.555484 0.0202703
vn 0.819619 0.534907 0.205181
vn 0.83128 0.555484 0.0202703
vn 0.83128 0.555484 0.0202703
vn 0.819619 0.534907 0.205181
vn 0.754739 0.534907 0.379793
vn 0.754739 0.534907 0.379793
vn 0.663128 0.514009 0.544111
vn 0.663128 0.514009 0.544111
vn 0.527784 0.514009 0.676195
vn 0.527784 0.514009 0.676195
vn 0.372071 0.492801 0.786582
vn 0.372071 0.492801 0.786582
vn 0.238273 0.449507 0.860912
vn 0.174288 0.449507 0.876109
vn 0.132664 0.427447 0.894254
vn 0 0.427447 0.904041
vn 0.132664 0.427447 0.894254
vn 0 0.427447 0.904041
vn 0.174288 0.449507 0.876109
vn 0.219059 0.0243772 0.975407
vn 0.122387 0.0243772 0.992183
vn 0.122387 0.0243772 0.992183
vn 0.219059 0.0243772 0.975407
vn 0.42747 0.0243772 0.903701
vn 0.42747 0.0243772 0.903701
vn 0.615104 0.0243772 0.788069
vn 0.615104 0.0243772 0.788069
vn 0.77284 0.0243772 0.634132
vn 0.77284 0.0243772 0.634132
vn 0.893012 0.0243772 0.449373
vn 0.893012 0.0243772 0.449373
vn 0.969777 0.0243772 0.242772
vn 0.969777 0.0243772 0.242772
vn 0.999406 0.0243772 0.0243699
vn 0.999406 0.0243772 0.0243699
vn 0.975371 0.0243772 -0.219222
vn 0.975371 0.0243772 -0.219222
vn 0.903629 0.0243772 -0.427621
vn 0.903629 0.0243772 -0.427621
vn 0.787966 0.0243772 -0.615236
vn 0.787966 0.0243772 -0.615236
vn 0.634004 0.0243772 -0.772946
vn 0.634004 0.0243772 -0.772946
vn 0.449224 0.0243772 -0.893086
vn 0.449224 0.0243772 -0.893086
vn 0.26634 0.0243772 -0.963571
vn 0.26634 0.0243772 -0.963571
vn 0.170601 0.0243772 -0.985039
vn 0.170601 0.0243772 -0.985039
vn 0.0242034 0.0243772 -0.99941
vn 0.0242034 0.0243772 -0.99941
vn 0.0242034 0.0243772 -0.99941
vn 0.0242034 0.0243772 -0.99941
vn -0.171257 0.0243772 -0.984925
vn -0.266982 0.0243772 -0.963393
vn -0.171257 0.0243772 -0.984925
vn -0.266982 0.0243772 -0.963393
vn -0.44982 0.0243772 -0.892787
vn -0.44982 0.0243772 -0.892787
vn -0.634519 0.0243772 -0.772523
vn -0.634519 0.0243772 -0.772523
vn -0.788376 0.0243772 -0.61471
vn -0.788376 0.0243772 -0.61471
vn -0.903914 0.0243772 -0.427018
vn -0.903914 0.0243772 -0.427018
vn -0.975516 0.0243772 -0.218571
vn -0.975516 0.0243772 -0.218571
vn -0.999389 0.0243772 0.0250363
vn -0.999389 0.0243772 0.0250363
vn -0.969615 0.0243772 0.243418
vn -0.969615 0.0243772 0.243418
vn -0.892712 0.0243772 0.449969
vn -0.892712 0.0243772 0.449969
vn -0.772417 0.0243772 0.634648
vn -0.772417 0.0243772 0.634648
vn -0.614579 0.0243772 0.788479
vn -0.614579 0.0243772 0.788479
vn -0.426868 0.0243772 0.903985
vn -0.426868 0.0243772 0.903985
vn -0.218409 0.0243772 0.975553
vn -0.218409 0.0243772 0.975553
vn -0.121726 0.0243772 0.992264
vn -0.121726 0.0243772 0.992264
vn 0 0.0243772 0.999703
vn 0 0.0243772 0.999703
vn 0 0.0243772 0.999703
vn 0 0.0243772 0.999703
vn 0 0.427447 0.904041
vn -0.132068 0.427447 0.894342
vn -0.173704 0.449507 0.876225
vn 0 0.427447 0.904041
vn -0.132068 0.427447 0.894342
vn -0.237699 0.449507 0.861071
vn -0.173704 0.449507 0.876225
vn -0.371546 0.492801 0.78683
vn -0.371546 0.492801 0.78683
vn -0.527333 0.514009 0.676546
vn -0.527333 0.514009 0.676546
vn -0.662765 0.514009 0.544553
vn -0.662765 0.514009 0.544553
vn -0.754486 0.534907 0.380296
vn -0.754486 0.534907 0.380296
vn -0.819482 0.534907 0.205728
vn -0.819482 0.534907 0.205728
vn -0.831267 0.555484 0.0208246
vn -0.831267 0.555484 0.0208246
vn -0.831267 0.555484 0.0208246
vn -0.824469 0.534907 -0.184728
vn -0.831267 0.555484 0.0208246
vn -0.824469 0.534907 -0.184728
vn -0.763954 0.534907 -0.3609
vn -0.763954 0.534907 -0.3609
vn -0.676458 0.514009 -0.527446
vn -0.676458 0.514009 -0.527446
vn -0.544442 0.514009 -0.662855
vn -0.544442 0.514009 -0.662855
vn -0.391523 0.492801 -0.777082
vn -0.391523 0.492801 -0.777082
vn -0.21736 0.449507 -0.866429
vn -0.259616 0.449507 -0.854718
vn -0.15487 0.427447 -0.890677
vn -0.21736 0.449507 -0.866429
vn -0.21736 0.449507 -0.866429
vn 0.0218874 0.427447 -0.903776
vn 0.0218874 0.427447 -0.903776
vn -0.15487 0.427447 -0.890677
vn 0 1 0
vn 0 1 0
vn 0 1 0
vn 0 1 0
vn 0 1 0
vn 0 1 0
vn -0.969615 0.0243772 0.243418
vn -0.969615 0.0243772 0.243418
vn -0.969615 0.0243772 0.243418
vn -0.969615 0.0243772 0.243418
vn 0.969777 0.0243772 0.242772
vn 0.969777 0.0243772 0.242772
vn 0.969777 0.0243772 0.242772
vn 0.969777 0.0243772 0.242772
vn 0 1 0
vn 0 1 0
vn 0 1 0
vn 0.980457 0.0243772 -0.195216
vn 0.980457 0.0243772 -0.195216
vn 0.980457 0.0243772 -0.195216
vn 0.980457 0.0243772 -0.195216
vn -0.980587 0.0243772 -0.194563
vn -0.980587 0.0243772 -0.194563
vn -0.980587 0.0243772 -0.194563
vn -0.980587 0.0243772 -0.194563
vn 0 1 0
vn 0 1 0
vn 0 1 0
vn 0 1 0
vn 0 1 0
vn 0 1 0
vn 0 1 0
vn 0 1 0
vn 0 1 0
vn 0 1 0
vn 0 1 0
vn 0 1 0
vn 0 1 0
vn 0 1 0
vn 0 1 0
vn 0 1 0
vn 0 1 0
vn 0 1 0
vn 0 1 0
vn 0 1 0
vn 0 1 0
vn 0 1 0
vn 0 1 0
vn 0 1 0
vn 0 1 0
vn 0 1 0
vn 0 1 0
vn 0 1 0
vn 0 1 0

g _0
usemtl MD3_[default][teleporter_01_glo]
f 1/1/1 3/3/3 2/2/2
f 1/1/1 2/2/2 4/4/4
f 5/5/5 6/6/6 4/4/4
f 5/5/5 4/4/4 2/2/2
f 7/7/7 8/8/8 6/6/6
f 7/7/7 6/6/6 5/5/5
f 9/9/9 10/10/10 8/8/8
f 9/9/9 8/8/8 7/7/7
f 11/11/11 12/12/12 10/10/10
f 11/11/11 10/10/10 9/9/9
f 13/13/13 14/14/14 12/12/12
f 13/13/13 12/12/12 11/11/11
f 15/15/15 16/16/16 14/14/14
f 15/15/15 14/14/14 13/13/13
f 17/17/17 18/18/18 16/16/16
f 17/17/17 16/16/16 15/15/15
f 19/19/19 20/20/20 18/18/18
f 19/19/19 18/18/18 17/17/17
f 21/21/21 22/22/22 20/20/20
f 21/21/21 20/20/20 19/19/19
f 23/23/23 24/24/24 22/22/22
f 23/23/23 22/22/22 21/21/21
f 25/25/25 26/26/26 24/24/24
f 25/25/25 24/24/24 23/23/23
f 27/27/27 28/28/28 26/26/26
f 27/27/27 26/26/26 25/25/25
f 29/29/29 30/30/30 28/28/28
f 29/29/29 28/28/28 27/27/27
f 31/31/31 33/33/33 32/32/32
f 31/31/31 32/32/32 34/34/34
f 3/3/3 1/1/1 33/33/33
f 3/3/3 33/33/33 31/31/31
f 35/35/35 37/37/37 36/36/36
f 35/35/35 36/36/36 38/38/38
f 39/39/39 41/41/41 40/40/40
f 39/39/39 40/40/40 42/42/42
f 43/43/43 39/39/39 42/42/42
f 43/43/43 42/42/42 44/44/44
f 45/45/45 43/43/43 44/44/44
f 45/45/45 44/44/44 46/46/46
f 47/47/47 45/45/45 46/46/46
f 47/47/47 46/46/46 48/48/48
f 49/49/49 47/47/47 48/48/48
f 49/49/49 48/48/48 50/50/50
f 51/51/51 49/49/49 50/50/50
f 51/51/51 50/50/50 52/52/52
f 53/53/53 51/51/51 52/52/52
f 53/53/53 52/52/52 54/54/54
f 55/55/55 53/53/53 54/54/54
f 55/55/55 54/54/54 56/56/56
f 37/37/37 55/55/55 56/56/56
f 37/37/37 56/56/56 36/36/36

g _1
usemtl MD3_[default][teleporter_01.001]
f 57/57/57 59/59/59 58/58/58
f 57/57/57 58/58/58 60/60/60
f 61/61/61 63/63/63 62/62/62
f 61/61/61 62/62/62 64/64/64
f 65/65/65 67/67/67 66/66/66
f 66/66/66 68/68/68 65/65/65
f 69/69/69 71/71/71 70/70/70
f 71/71/71 72/72/72 70/70/70
f 73/73/73 75/75/75 74/74/74
f 74/74/74 76/76/76 73/73/73
f 77/77/77 79/79/79 78/78/78
f 78/78/78 80/80/80 77/77/77
f 81/81/81 83/83/83 82/82/82
f 81/81/81 82/82/82 84/84/84
f 85/85/85 81/81/81 84/84/84
f 85/85/85 84/84/84 86/86/86
f 87/87/87 85/85/85 86/86/86
f 87/87/87 86/86/86 88/88/88
f 89/89/89 87/87/87 88/88/88
f 89/89/89 88/88/88 90/90/90
f 91/91/91 89/89/89 90/90/90
f 91/91/91 90/90/90 92/92/92
f 93/93/93 91/91/91 92/92/92
f 93/93/93 92/92/92 94/94/94
f 95/95/95 93/93/93 94/94/94
f 95/95/95 94/94/94 96/96/96
f 97/97/97 95/95/95 96/96/96
f 97/97/97 96/96/96 98/98/98
f 99/99/99 97/97/97 98/98/98
f 99/99/99 98/98/98 100/100/100
f 101/101/101 99/99/99 100/100/100
f 101/101/101 100/100/100 102/102/102
f 103/103/103 101/101/101 102/102/102
f 103/103/103 102/102/102 104/104/104
f 105/105/105 103/103/103 104/104/104
f 105/105/105 104/104/104 106/106/106
f 107/107/107 105/105/105 106/106/106
f 107/107/107 106/106/106 108/108/108
f 109/109/109 107/107/107 108/108/108
f 109/109/109 108/108/108 110/110/110
f 111/111/111 113/113/113 112/112/112
f 111/111/111 112/112/112 114/114/114
f 114/114/114 112/112/112 115/115/115
f 114/114/114 115/115/115 116/116/116
f 116/116/116 115/115/115 117/117/117
f 116/116/116 117/117/117 118/118/118
f 118/118/118 117/117/117 119/119/119
f 118/118/118 119/119/119 120/120/120
f 120/120/120 119/119/119 121/121/121
f 120/120/120 121/121/121 122/122/122
f 122/122/122 121/121/121 123/123/123
f 122/122/122 123/123/123 124/124/124
f 124/124/124 123/123/123 125/125/125
f 124/124/124 125/125/125 126/126/126
f 126/126/126 125/125/125 127/127/127
f 126/126/126 127/127/127 128/128/128
f 128/128/128 127/127/127 129/129/129
f 128/128/128 129/129/129 130/130/130
f 130/130/130 129/129/129 131/131/131
f 130/130/130 131/131/131 132/132/132
f 132/132/132 131/131/131 133/133/133
f 132/132/132 133/133/133 134/134/134
f 134/134/134 133/133/133 135/135/135
f 134/134/134 135/135/135 136/136/136
f 136/136/136 135/135/135 137/137/137
f 136/136/136 137/137/137 138/138/138
f 138/138/138 137/137/137 139/139/139
f 138/138/138 139/139/139 140/140/140
f 141/141/141 143/143/143 142/142/142
f 141/141/141 142/142/142 144/144/144
f 145/145/145 147/147/147 146/146/146
f 148/148/148 145/145/145 149/149/149
f 148/148/148 149/149/149 150/150/150
f 151/151/151 148/148/148 150/150/150
f 151/151/151 150/150/150 152/152/152
f 153/153/153 151/151/151 152/152/152
f 153/153/153 152/152/152 154/154/154
f 155/155/155 153/153/153 154/154/154
f 155/155/155 154/154/154 156/156/156
f 156/156/156 158/158/158 157/157/157
f 156/156/156 157/157/157 155/155/155
f 158/158/158 160/160/160 159/159/159
f 158/158/158 159/159/159 157/157/157
f 161/161/161 163/163/163 162/162/162
f 161/161/161 162/162/162 164/164/164
f 165/165/165 161/161/161 164/164/164
f 165/165/165 164/164/164 166/166/166
f 167/167/167 165/165/165 166/166/166
f 167/167/167 166/166/166 168/168/168
f 169/169/169 167/167/167 168/168/168
f 169/169/169 168/168/168 170/170/170
f 171/171/171 169/169/169 170/170/170
f 171/171/171 170/170/170 172/172/172
f 172/172/172 174/174/174 173/173/173
f 172/172/172 173/173/173 171/171/171
f 175/175/175 173/173/173 174/174/174
f 176/176/176 178/178/178 177/177/177
f 176/176/176 177/177/177 179/179/179
f 180/180/180 182/182/182 181/181/181
f 180/180/180 181/181/181 183/183/183
f 184/184/184 180/180/180 183/183/183
f 184/184/184 183/183/183 185/185/185
f 186/186/186 184/184/184 185/185/185
f 186/186/186 185/185/185 187/187/187
f 188/188/188 186/186/186 187/187/187
f 188/188/188 187/187/187 189/189/189
f 190/190/190 188/188/188 189/189/189
f 190/190/190 189/189/189 191/191/191
f 192/192/192 190/190/190 191/191/191
f 192/192/192 191/191/191 193/193/193
f 194/194/194 192/192/192 193/193/193
f 194/194/194 193/193/193 195/195/195
f 196/196/196 194/194/194 195/195/195
f 196/196/196 195/195/195 197/197/197
f 198/198/198 196/196/196 197/197/197
f 198/198/198 197/197/197 199/199/199
f 200/200/200 198/198/198 199/199/199
f 200/200/200 199/199/199 201/201/201
f 202/202/202 200/200/200 201/201/201
f 202/202/202 201/201/201 203/203/203
f 204/204/204 202/202/202 203/203/203
f 204/204/204 203/203/203 205/205/205
f 206/206/206 204/204/204 205/205/205
f 206/206/206 205/205/205 207/207/207
f 208/208/208 206/206/206 207/207/207
f 208/208/208 207/207/207 209/209/209
f 210/210/210 212/212/212 211/211/211
f 210/210/210 211/211/211 213/213/213
f 214/214/214 216/216/216 215/215/215
f 214/214/214 215/215/215 217/217/217
f 217/217/217 215/215/215 218/218/218
f 217/217/217 218/218/218 219/219/219
f 219/219/219 218/218/218 220/220/220
f 219/219/219 220/220/220 221/221/221
f 221/221/221 220/220/220 222/222/222
f 221/221/221 222/222/222 223/223/223
f 223/223/223 222/222/222 224/224/224
f 223/223/223 224/224/224 225/225/225
f 225/225/225 224/224/224 226/226/226
f 225/225/225 226/226/226 227/227/227
f 227/227/227 226/226/226 228/228/228
f 227/227/227 228/228/228 229/229/229
f 229/229/229 228/228/228 230/230/230
f 229/229/229 230/230/230 231/231/231
f 231/231/231 230/230/230 232/232/232
f 231/231/231 232/232/232 233/233/233
f 233/233/233 232/232/232 234/234/234
f 233/233/233 234/234/234 235/235/235
f 235/235/235 234/234/234 236/236/236
f 235/235/235 236/236/236 237/237/237
f 237/237/237 236/236/236 238/238/238
f 237/237/237 238/238/238 239/239/239
f 239/239/239 238/238/238 240/240/240
f 239/239/239 240/240/240 241/241/241
f 241/241/241 240/240/240 242/242/242
f 241/241/241 242/242/242 243/243/243
f 244/244/244 246/246/246 245/245/245
f 244/244/244 245/245/245 247/247/247
f 248/248/248 250/250/250 249/249/249
f 248/248/248 249/249/249 251/251/251
f 252/252/252 254/254/254 253/253/253
f 255/255/255 256/256/256 253/253/253
f 255/255/255 253/253/253 254/254/254
f 256/256/256 255/255/255 257/257/257
f 256/256/256 257/257/257 258/258/258
f 258/258/258 257/257/257 259/259/259
f 258/258/258 259/259/259 260/260/260
f 260/260/260 259/259/259 261/261/261
f 260/260/260 261/261/261 262/262/262
f 262/262/262 261/261/261 263/263/263
f 262/262/262 263/263/263 264/264/264
f 264/264/264 263/263/263 265/265/265
f 264/264/264 265/265/265 266/266/266
f 267/267/267 269/269/269 268/268/268
f 267/267/267 268/268/268 270/270/270
f 270/270/270 268/268/268 271/271/271
f 270/270/270 271/271/271 272/272/272
f 272/272/272 271/271/271 273/273/273
f 272/272/272 273/273/273 274/274/274
f 274/274/274 273/273/273 275/275/275
f 274/274/274 275/275/275 276/276/276
f 276/276/276 275/275/275 277/277/277
f 276/276/276 277/277/277 278/278/278
f 278/278/278 277/277/277 279/279/279
f 278/278/278 279/279/279 280/280/280
f 280/280/280 282/282/282 281/281/281
f 283/283/283 285/285/285 284/284/284
f 283/283/283 284/284/284 286/286/286
f 287/287/287 289/289/289 288/288/288
f 290/290/290 292/292/292 291/291/291
f 293/293/293 295/295/295 294/294/294
f 294/294/294 296/296/296 293/293/293
f 297/297/297 299/299/299 298/298/298
f 298/298/298 300/300/300 297/297/297
f 301/301/301 303/303/303 302/302/302
f 304/304/304 306/306/306 305/305/305
f 305/305/305 307/307/307 304/304/304
f 308/308/308 310/310/310 309/309/309
f 309/309/309 311/311/311 308/308/308
f 301/301/301 302/302/302 312/312/312
f 312/312/312 313/313/313 301/301/301
f 292/292/292 315/315/315 314/314/314
f 292/292/292 314/314/314 291/291/291
f 316/316/316 318/318/318 317/317/317
f 316/316/316 317/317/317 319/319/319
f 320/320/320 322/322/322 321/321/321
f 320/320/320 321/321/321 323/323/323
f 321/321/321 322/322/322 317/317/317
f 321/321/321 317/317/317 318/318/318
f 324/324/324 326/326/326 325/325/325
f 324/324/324 325/325/325 327/327/327
f 325/325/325 326/326/326 320/320/320
f 325/325/325 320/320/320 323/323/323
f 288/288/288 324/324/324 327/327/327
f 288/288/288 327/327/327 287/287/287
f 328/328/328 330/330/330 329/329/329
f 328/328/328 329/329/329 331/331/331
f 332/332/332 334/334/334 333/333/333
f 332/332/332 333/333/333 335/335/335
f 331/331/331 329/329/329 332/332/332
f 331/331/331 332/332/332 335/335/335
f 336/336/336 338/338/338 337/337/337
f 336/336/336 337/337/337 339/339/339
f 333/333/333 334/334/334 336/336/336
f 333/333/333 336/336/336 339/339/339
f 316/316/316 319/319/319 337/337/337
f 316/316/316 337/337/337 338/338/338
f 330/330/330 328/328/328 340/340/340
