# Exported by Gskelview
mtllib barrel_2.mtl

v 5.74509 26.1609 -25.6081
v 15.0984 26.1609 -21.4659
v 15.7345 24.8311 -22.3703
v 5.987 24.8311 -26.687
v -4.49277 26.1609 -25.8583
v -4.68178 24.8311 -26.9477
v -14.047 26.1609 -22.1716
v -14.6388 24.8311 -23.1056
v -22.3743 24.8311 -15.7355
v -21.4698 26.1609 -15.0994
v 5.75212 19.9876 -25.7594
v 5.98 21.3173 -26.7801
v 15.7859 21.3173 -22.4436
v 15.1843 19.9876 -21.5881
v -14.1464 19.9876 -22.2827
v -21.5892 19.9876 -15.1832
v -22.4445 21.3173 -15.7849
v -14.7069 21.3173 -23.1658
v -4.54298 19.9876 -26
v -4.72282 21.3173 -27.0304
v -22.1583 26.1609 14.0661
v -23.092 24.8311 14.6585
v -15.7339 24.8311 22.3722
v -15.0978 26.1609 21.4679
v -25.8552 26.1609 4.51573
v -26.9443 24.8311 4.70581
v -25.616 26.1609 -5.7224
v -26.6949 24.8311 -5.96351
v -22.2987 19.9876 14.1236
v -15.1837 19.9876 21.5901
v -15.7858 21.3173 22.4456
v -23.1822 21.3173 14.6832
v -25.7542 19.9876 -5.77835
v -26.7748 21.3173 -6.00736
v -26.0058 19.9876 4.51627
v -27.0361 21.3173 4.69522
v 22.159 26.1609 -14.0641
v 23.0926 24.8311 -14.6565
v 15.7345 24.8311 -22.3703
v 15.0984 26.1609 -21.4659
v 25.8558 26.1609 -4.51377
v 26.945 24.8311 -4.70385
v 25.6165 26.1609 5.72436
v 26.6954 24.8311 5.96547
v 22.3749 24.8311 15.7375
v 21.4704 26.1609 15.1013
v 22.2988 19.9876 -14.1216
v 15.1843 19.9876 -21.5881
v 15.7859 21.3173 -22.4436
v 23.1822 21.3173 -14.6812
v 25.7543 19.9876 5.7803
v 26.7749 21.3173 6.00931
v 22.4451 21.3173 15.7868
v 21.5898 19.9876 15.1852
v 26.0059 19.9876 -4.51431
v 27.0368 21.3173 -4.69327
v -5.74504 26.1609 25.6101
v -5.98695 24.8311 26.6889
v 4.49283 26.1609 25.8603
v 4.68236 24.8311 26.9496
v 14.047 26.1609 22.1735
v 14.6389 24.8311 23.1076
v -5.75149 19.9876 25.7614
v -5.97938 21.3173 26.7821
v 14.1469 19.9876 22.2846
v 14.7075 21.3173 23.1677
v 4.54306 19.9876 26.002
v 4.7234 21.3173 27.0323
v 5.77696 -5.22199 -25.7502
v 15.1821 -5.22199 -21.5851
v 15.7837 -6.55174 -22.4405
v 6.00591 -6.55174 -26.7707
v -4.51762 -5.22199 -26.0018
v -4.69688 -6.55174 -27.0323
v -14.1248 -5.22199 -22.2946
v -14.6847 -6.55174 -23.1781
v -22.4445 -6.55174 -15.7849
v -21.5892 -5.22199 -15.1832
v 5.72026 -11.3952 -25.6172
v 5.96109 -10.0655 -26.6963
v 15.7367 -10.0655 -22.3734
v 15.1006 -11.3952 -21.469
v -14.0681 -11.3952 -22.1597
v -21.4698 -11.3952 -15.0994
v -22.3743 -10.0655 -15.7355
v -14.661 -10.0655 -23.0932
v -4.51762 -11.3952 -25.8565
v -4.70822 -10.0655 -26.9458
v -22.2815 -5.22199 14.1441
v -23.1644 -6.55174 14.7045
v -15.7831 -6.55174 22.4425
v -15.1815 -5.22199 21.587
v -25.9988 -5.22199 4.54078
v -27.0291 -6.55174 4.7206
v -25.758 -5.22199 -5.75416
v -26.7786 -6.55174 -5.98225
v -22.1756 -11.3952 14.0456
v -15.1 -11.3952 21.4709
v -15.7361 -10.0655 22.3754
v -23.1093 -10.0655 14.6373
v -25.6122 -11.3952 -5.74649
v -26.6911 -10.0655 -5.98851
v -25.8622 -11.3952 4.49137
v -26.9514 -10.0655 4.68054
v 22.2815 -5.22199 -14.1422
v 23.1649 -6.55174 -14.7026
v 15.7837 -6.55174 -22.4405
v 15.1821 -5.22199 -21.5851
v 25.9989 -5.22199 -4.53883
v 27.0297 -6.55174 -4.7186
v 25.7586 -5.22199 5.75611
v 26.7792 -6.55174 5.9842
v 22.4451 -6.55174 15.7868
v 21.5898 -5.22199 15.1852
v 22.1757 -11.3952 -14.0436
v 15.1006 -11.3952 -21.469
v 15.7367 -10.0655 -22.3734
v 23.1098 -10.0655 -14.6353
v 25.6122 -11.3952 5.74844
v 26.6911 -10.0655 5.99052
v 22.3749 -10.0655 15.7375
v 21.4704 -11.3952 15.1013
v 25.8628 -11.3952 -4.48942
v 26.952 -10.0655 -4.67858
v -5.77689 -5.22199 25.7521
v -6.00531 -6.55174 26.7727
v 4.51767 -5.22199 26.0037
v 4.69695 -6.55174 27.0342
v 14.1254 -5.22199 22.2966
v 14.6848 -6.55174 23.1801
v -5.71965 -11.3952 25.6192
v -5.96101 -10.0655 26.6983
v 14.0686 -11.3952 22.1617
v 14.661 -10.0655 23.0952
v 4.51822 -11.3952 25.8585
v 4.7083 -10.0655 26.9478
v 13.6253 50.7606 -19.3715
v 5.18457 50.7606 -23.1097
v 4.53224 50.7606 -20.2023
v 11.9113 50.7606 -16.9342
v 0.564865 50.7606 -23.2226
v 0.493591 50.7606 -20.3009
v -4.05429 50.7606 -23.3355
v -12.6765 50.7606 -20.0084
v -11.0824 50.7606 -17.4911
v -3.54454 50.7606 -20.3997
v -19.3757 50.7606 -13.6263
v -16.9381 50.7606 -11.9121
v -13.6247 50.7606 19.3735
v -11.9108 50.7606 16.9362
v -17.4809 50.7606 11.0965
v -19.9967 50.7606 12.6937
v -21.6648 50.7606 8.3844
v -18.9394 50.7606 7.3294
v -20.3974 50.7606 3.56214
v -23.3328 50.7606 4.07503
v -20.2089 50.7606 -4.51475
v -23.1168 50.7606 -5.1642
v 17.4815 50.7606 -11.0946
v 19.9973 50.7606 -12.6917
v 21.6654 50.7606 -8.3824
v 18.94 50.7606 -7.32739
v 20.398 50.7606 -3.56019
v 23.3335 50.7606 -4.07308
v 20.209 50.7606 4.5167
v 23.1174 50.7606 5.16621
v 16.9388 50.7606 11.9141
v 19.3757 50.7606 13.6283
v -5.18396 50.7606 23.1117
v -4.53166 50.7606 20.2042
v -0.564804 50.7606 23.2246
v -0.492996 50.7606 20.303
v 4.05489 50.7606 23.3375
v 12.6771 50.7606 20.0104
v 11.0825 50.7606 17.4931
v 3.54512 50.7606 20.4016
v -12.6765 48.1076 -20.0084
v -5.85573 48.1076 -22.6404
v -5.11972 48.1076 -19.792
v -11.0824 48.1076 -17.4911
v -19.3757 48.1076 -13.6263
v -16.9381 48.1076 -11.9121
v -4.90803 46.9083 -23.0062
v -4.90803 46.0059 -23.0062
v -4.2908 46.0059 -20.1118
v -4.2908 46.9083 -20.1118
v -5.11972 48.1076 -19.792
v -23.1168 48.1076 -5.1642
v -20.2089 48.1076 -4.51475
v -20.358 48.1076 1.8747
v -23.288 48.1076 2.14475
v -23.3118 46.9083 3.16071
v -20.379 46.9083 2.76289
v -20.379 46.0059 2.76289
v -23.3118 46.0059 3.16071
v -20.358 48.1076 1.8747
v -11.0824 41.2518 -17.4911
v -3.54454 41.2518 -20.3997
v -5.11972 43.9042 -19.792
v -11.0824 43.9042 -17.4911
v -16.9381 41.2518 -11.9121
v -16.9381 43.9042 -11.9121
v -3.54454 50.7606 -20.3997
v -11.0824 50.7606 -17.4911
v -11.0824 48.1076 -17.4911
v -5.11972 48.1076 -19.792
v -16.9381 50.7606 -11.9121
v -16.9381 48.1076 -11.9121
v -3.54454 46.0059 -20.3997
v -4.2908 46.9083 -20.1118
v -4.2908 46.0059 -20.1118
v -4.2908 45.1041 -20.1118
v 11.9113 50.7606 -16.9342
v 4.53224 50.7606 -20.2023
v 4.53224 41.2518 -20.2023
v 11.9113 41.2518 -16.9342
v 4.53224 50.7606 -20.2023
v 0.493591 50.7606 -20.3009
v -3.54454 50.7606 -20.3997
v -20.2089 41.2518 -4.51475
v -20.2089 43.9042 -4.51475
v -20.358 43.9042 1.8747
v -20.3974 41.2518 3.56214
v -20.3974 50.7606 3.56214
v -20.358 48.1076 1.8747
v -20.2089 48.1076 -4.51475
v -20.2089 50.7606 -4.51475
v -20.3974 46.0059 3.56214
v -20.379 45.1041 2.76289
v -20.379 46.0059 2.76289
v -20.379 46.9083 2.76289
v -11.9108 50.7606 16.9362
v -11.9108 41.2518 16.9362
v -17.4809 41.2518 11.0965
v -17.4809 50.7606 11.0965
v -17.4809 50.7606 11.0965
v -20.3974 50.7606 3.56214
v -18.9394 50.7606 7.3294
v 20.209 41.2518 4.5167
v 20.209 43.9042 4.5167
v 20.3586 43.9042 -1.87274
v 20.398 41.2518 -3.56019
v 16.9388 41.2518 11.9141
v 16.9388 43.9042 11.9141
v 20.398 50.7606 -3.56019
v 20.3586 48.1076 -1.87274
v 20.209 48.1076 4.5167
v 20.209 50.7606 4.5167
v 16.9388 48.1076 11.9141
v 16.9388 50.7606 11.9141
v 20.398 46.0059 -3.56019
v 20.3791 45.1041 -2.76093
v 20.3791 46.0059 -2.76093
v 20.3791 46.9083 -2.76093
v 11.9113 50.7606 -16.9342
v 11.9113 41.2518 -16.9342
v 17.4815 41.2518 -11.0946
v 17.4815 50.7606 -11.0946
v 17.4815 50.7606 -11.0946
v 18.94 50.7606 -7.32739
v 11.0825 41.2518 17.4931
v 3.54512 41.2518 20.4016
v 5.11977 43.9042 19.7939
v 11.0825 43.9042 17.4931
v 3.54512 50.7606 20.4016
v 11.0825 50.7606 17.4931
v 11.0825 48.1076 17.4931
v 5.11977 48.1076 19.7939
v 3.54512 46.0059 20.4016
v 4.29088 46.9083 20.1138
v 4.29088 46.0059 20.1138
v 4.29088 45.1041 20.1138
v -4.53166 50.7606 20.2042
v -4.53166 41.2518 20.2042
v -4.53166 50.7606 20.2042
v -0.492996 50.7606 20.303
v 3.54512 50.7606 20.4016
v 3.54512 46.0059 20.4016
v 5.11977 48.1076 19.7939
v 4.29088 46.9083 20.1138
v 5.52153 39.3056 -24.6099
v 14.5098 39.3056 -20.6292
v 15.0984 26.1609 -21.4659
v 5.74509 26.1609 -25.6081
v -4.31726 39.3056 -24.8504
v -4.49277 26.1609 -25.8583
v -13.4994 39.3056 -21.3073
v -14.047 26.1609 -22.1716
v -20.6334 39.3056 -14.5109
v -21.4698 26.1609 -15.0994
v 5.18457 41.2518 -23.1097
v 13.6253 41.2518 -19.3715
v -4.05429 41.2518 -23.3355
v -12.6765 41.2518 -20.0084
v -19.3757 41.2518 -13.6263
v -21.2949 39.3056 13.5178
v -22.1583 26.1609 14.0661
v -15.0978 26.1609 21.4679
v -14.5092 39.3056 20.6312
v -24.8475 39.3056 4.33969
v -25.8552 26.1609 4.51573
v -24.6175 39.3056 -5.49933
v -25.616 26.1609 -5.7224
v -13.6247 41.2518 19.3735
v -19.9967 41.2518 12.6937
v -23.3328 41.2518 4.07503
v -23.1168 41.2518 -5.1642
v 21.2949 39.3056 -13.5158
v 22.159 26.1609 -14.0641
v 15.0984 26.1609 -21.4659
v 14.5098 39.3056 -20.6292
v 24.8481 39.3056 -4.33773
v 25.8558 26.1609 -4.51377
v 24.6181 39.3056 5.50128
v 25.6165 26.1609 5.72436
v 20.6334 39.3056 14.5129
v 21.4704 26.1609 15.1013
v 13.6253 41.2518 -19.3715
v 19.9973 41.2518 -12.6917
v 23.3335 41.2518 -4.07308
v 23.1174 41.2518 5.16621
v 19.3757 41.2518 13.6283
v -5.52094 39.3056 24.6119
v -5.74504 26.1609 25.6101
v 4.31786 39.3056 24.8523
v 4.49283 26.1609 25.8603
v 13.5 39.3056 21.3093
v 14.047 26.1609 22.1735
v -5.18396 41.2518 23.1117
v 4.05489 41.2518 23.3375
v 12.6771 41.2518 20.0104
v -12.6765 50.7606 -20.0084
v -4.05429 50.7606 -23.3355
v -5.85573 48.1076 -22.6404
v -12.6765 48.1076 -20.0084
v -19.3757 50.7606 -13.6263
v -19.3757 48.1076 -13.6263
v -4.05429 41.2518 -23.3355
v -12.6765 41.2518 -20.0084
v -12.6765 43.9042 -20.0084
v -5.85573 43.9042 -22.6404
v -19.3757 41.2518 -13.6263
v -19.3757 43.9042 -13.6263
v -4.05429 46.0059 -23.3355
v -4.90803 45.1041 -23.0062
v -4.90803 46.0059 -23.0062
v -4.90803 46.9083 -23.0062
v 5.18457 50.7606 -23.1097
v 5.18457 41.2518 -23.1097
v 5.18457 50.7606 -23.1097
v -4.05429 50.7606 -23.3355
v 0.564865 50.7606 -23.2226
v 13.6253 41.2518 -19.3715
v 13.6253 50.7606 -19.3715
v -23.1168 50.7606 -5.1642
v -23.1168 48.1076 -5.1642
v -23.288 48.1076 2.14475
v -23.3328 50.7606 4.07503
v -23.3328 41.2518 4.07503
v -23.288 43.9042 2.14475
v -23.1168 43.9042 -5.1642
v -23.1168 41.2518 -5.1642
v -23.3328 46.0059 4.07503
v -23.3118 46.9083 3.16071
v -23.3118 46.0059 3.16071
v -23.3118 45.1041 3.16071
v -19.9967 50.7606 12.6937
v -21.6648 50.7606 8.3844
v -13.6247 41.2518 19.3735
v -13.6247 50.7606 19.3735
v -19.9967 41.2518 12.6937
v 23.1174 50.7606 5.16621
v 23.1174 48.1076 5.16621
v 23.2881 48.1076 -2.1428
v 23.3335 50.7606 -4.07308
v 19.3757 50.7606 13.6283
v 19.3757 48.1076 13.6283
v 23.3335 41.2518 -4.07308
v 23.2881 43.9042 -2.1428
v 23.1174 43.9042 5.16621
v 23.1174 41.2518 5.16621
v 19.3757 43.9042 13.6283
v 19.3757 41.2518 13.6283
v 23.3335 46.0059 -4.07308
v 23.3118 46.9083 -3.15875
v 23.3118 46.0059 -3.15875
v 23.3118 45.1041 -3.15875
v 19.9973 50.7606 -12.6917
v 21.6654 50.7606 -8.3824
v 23.3335 50.7606 -4.07308
v 19.9973 50.7606 -12.6917
v 19.9973 41.2518 -12.6917
v 13.6253 41.2518 -19.3715
v 13.6253 50.7606 -19.3715
v 12.6771 50.7606 20.0104
v 4.05489 50.7606 23.3375
v 5.85632 48.1076 22.6423
v 12.6771 48.1076 20.0104
v 4.05489 41.2518 23.3375
v 12.6771 41.2518 20.0104
v 12.6771 43.9042 20.0104
v 5.85632 43.9042 22.6423
v 4.05489 46.0059 23.3375
v 4.90808 45.1041 23.0082
v 4.90808 46.0059 23.0082
v 4.90808 46.9083 23.0082
v -5.18396 50.7606 23.1117
v -5.18396 41.2518 23.1117
v -5.18396 50.7606 23.1117
v 4.05489 50.7606 23.3375
v -0.564804 50.7606 23.2246
v 23.2881 43.9042 -2.1428
v 20.3586 43.9042 -1.87274
v 20.209 43.9042 4.5167
v 23.1174 43.9042 5.16621
v 16.9388 43.9042 11.9141
v 19.3757 43.9042 13.6283
v 20.3586 43.9042 -1.87274
v 23.3118 45.1041 -3.15875
v 20.3791 45.1041 -2.76093
v 20.3791 46.0059 -2.76093
v 23.3118 46.0059 -3.15875
v 5.85632 43.9042 22.6423
v 12.6771 43.9042 20.0104
v 11.0825 43.9042 17.4931
v 5.11977 43.9042 19.7939
v 5.11977 43.9042 19.7939
v 4.29088 45.1041 20.1138
v 4.90808 45.1041 23.0082
v 4.29088 46.0059 20.1138
v 4.90808 46.0059 23.0082
v -0.001602 51.5382 -0.000184
v 0.066452 50.9183 4.41151
v 2.64658 50.9183 3.52909
v 4.21527 50.9183 1.29857
v 4.17314 50.9183 -1.428
v 2.53694 50.9183 -3.60922
v -0.069092 50.9183 -4.41198
v -2.64975 50.9183 -3.52952
v -4.21844 50.9183 -1.29905
v -4.17635 50.9183 1.42758
v -2.5396 50.9183 3.6088
v 14.512 -24.5398 -20.6321
v 5.49722 -24.5398 -24.6187
v 5.72026 -11.3952 -25.6172
v 15.1006 -11.3952 -21.469
v -13.52 -24.5398 -21.2959
v -20.6334 -24.5398 -14.5109
v -21.4698 -11.3952 -15.0994
v -14.0681 -11.3952 -22.1597
v -4.34157 -24.5398 -24.8487
v -4.51762 -11.3952 -25.8565
v 12.6366 -28 -17.9657
v 4.78659 -28 -21.4373
v -11.7725 -28 -18.5439
v -17.9668 -28 -12.6355
v -3.7805 -28 -21.6376
v -14.5114 -24.5398 20.6341
v -15.1 -11.3952 21.4709
v -22.1756 -11.3952 14.0456
v -21.3111 -24.5398 13.4981
v -24.6137 -24.5398 -5.52249
v -25.6122 -11.3952 -5.74649
v -24.854 -24.5398 4.31625
v -25.8622 -11.3952 4.49137
v -18.5571 -28 11.7538
v -12.636 -28 17.9677
v -21.4331 -28 -4.80861
v -21.6426 -28 3.75859
v 14.512 -24.5398 -20.6321
v 15.1006 -11.3952 -21.469
v 22.1757 -11.3952 -14.0436
v 21.3117 -24.5398 -13.4962
v 24.6143 -24.5398 5.52445
v 25.6122 -11.3952 5.74844
v 21.4704 -11.3952 15.1013
v 20.6334 -24.5398 14.5129
v 24.8546 -24.5398 -4.3143
v 25.8628 -11.3952 -4.48942
v 18.5577 -28 -11.7518
v 12.6366 -28 -17.9657
v 17.9669 -28 12.6375
v 21.4332 -28 4.81057
v 21.6427 -28 -3.75664
v -5.49663 -24.5398 24.6207
v -5.71965 -11.3952 25.6192
v 13.5206 -24.5398 21.298
v 14.0686 -11.3952 22.1617
v 4.34216 -24.5398 24.8507
v 4.51822 -11.3952 25.8585
v -4.78651 -28 21.4392
v 11.7731 -28 18.5459
v 3.78111 -28 21.6395
v 8.00824 43.1995 -11.3849
v 3.04619 43.1995 -13.5826
v 0.695557 43.8519 -3.10972
v 1.83334 43.8519 -2.60541
v -2.38406 43.1995 -13.7153
v -0.548065 43.8519 -3.14007
v -7.45198 43.1995 -11.7597
v -1.70854 43.8519 -2.69225
v -11.3886 43.1995 -8.00916
v -2.60924 43.8519 -1.8344
v 11.9113 41.2518 -16.9342
v 4.53224 41.2518 -20.2023
v -3.54454 41.2518 -20.3997
v -11.0824 41.2518 -17.4911
v -16.9381 41.2518 -11.9121
v -8.00761 43.1995 11.3868
v -1.83272 43.8519 2.60742
v -2.69241 43.8519 1.70719
v -11.7536 43.1995 7.46013
v -3.14114 43.8519 0.547106
v -13.7143 43.1995 2.39439
v -3.112 43.8519 -0.696568
v -13.5874 43.1995 -3.03617
v -11.9108 41.2518 16.9362
v -17.4809 41.2518 11.0965
v -20.3974 41.2518 3.56214
v -20.2089 41.2518 -4.51475
v 2.69246 43.8519 -1.70524
v 11.7542 43.1995 -7.45818
v 3.14177 43.8519 -0.545152
v 13.715 43.1995 -2.39238
v 3.1126 43.8519 0.698523
v 13.5881 43.1995 3.03813
v 2.60986 43.8519 1.83636
v 11.3892 43.1995 8.01115
v 17.4815 41.2518 -11.0946
v 20.398 41.2518 -3.56019
v 20.209 41.2518 4.5167
v 16.9388 41.2518 11.9141
v -3.04556 43.1995 13.5845
v -0.69548 43.8519 3.11167
v 2.38466 43.1995 13.7172
v 0.548126 43.8519 3.14208
v 7.45256 43.1995 11.7617
v 1.70912 43.8519 2.6942
v -4.53166 41.2518 20.2042
v 3.54512 41.2518 20.4016
v 11.0825 41.2518 17.4931
v 0.060516 45.0453 4.04744
v 2.42787 45.0453 3.23782
v 1.99966 45.0453 2.6666
v 0.049728 45.0453 3.3334
v 3.86696 45.0453 1.19138
v 3.18495 45.0453 0.981212
v 3.82863 45.0453 -1.31023
v 3.15309 45.0453 -1.0791
v 2.32742 45.0453 -3.31136
v 1.91649 45.0453 -2.72729
v -0.063675 45.0453 -4.04786
v -0.052887 45.0453 -3.33387
v -2.43106 45.0453 -3.23824
v -2.00229 45.0453 -2.66708
v -3.87016 45.0453 -1.19186
v -3.18759 45.0453 -0.981688
v -3.83182 45.0453 1.30975
v -3.15627 45.0453 1.07863
v -2.33008 45.0453 3.31099
v -1.91968 45.0453 2.72692
v 0.049728 49.0099 3.3334
v 1.99966 49.0099 2.6666
v 2.64658 49.0099 3.52909
v 0.066452 49.0099 4.41151
v 3.18495 49.0099 0.981212
v 4.21527 49.0099 1.29857
v 3.15309 49.0099 -1.0791
v 4.17314 49.0099 -1.428
v 1.91649 49.0099 -2.72729
v 2.53694 49.0099 -3.60922
v -0.052887 49.0099 -3.33387
v -0.069092 49.0099 -4.41198
v -2.00229 49.0099 -2.66708
v -2.64975 49.0099 -3.52952
v -3.18759 49.0099 -0.981688
v -4.21844 49.0099 -1.29905
v -3.15627 49.0099 1.07863
v -4.17635 49.0099 1.42758
v -1.91968 49.0099 2.72692
v -2.5396 49.0099 3.6088
v 4.78659 -28 -21.4373
v 12.6366 -28 -17.9657
v 9.46298 -28 -13.4532
v 3.584 -28 -16.053
v -17.9668 -28 -12.6355
v -11.7725 -28 -18.5439
v -8.81548 -28 -13.8864
v -13.4541 -28 -9.46172
v -3.7805 -28 -21.6376
v -2.83118 -28 -16.203
v 7.54977 -25.3482 -10.7333
v 2.85931 -25.3482 -12.8077
v -7.03348 -25.3482 -11.0791
v -10.7341 -25.3482 -7.54874
v -2.2588 -25.3482 -12.9273
v -18.5571 -28 11.7538
v -13.8969 -28 8.80176
v -9.4624 -28 13.4552
v -12.636 -28 17.9677
v -16.0498 -28 -3.60047
v -21.4331 -28 -4.80861
v -16.207 -28 2.81484
v -21.6426 -28 3.75859
v -11.0872 -25.3482 7.02252
v -7.54918 -25.3482 10.7353
v -12.8055 -25.3482 -2.87228
v -12.9308 -25.3482 2.24594
v 18.5577 -28 -11.7518
v 13.8969 -28 -8.7998
v 17.9669 -28 12.6375
v 13.4547 -28 9.46369
v 16.0505 -28 3.60248
v 21.4332 -28 4.81057
v 16.207 -28 -2.81288
v 21.6427 -28 -3.75664
v 11.0878 -25.3482 -7.02051
v 10.7347 -25.3482 7.55069
v 12.8061 -25.3482 2.87423
v 12.9309 -25.3482 -2.24399
v -4.78651 -28 21.4392
v -3.58395 -28 16.055
v 11.7731 -28 18.5459
v 8.81607 -28 13.8884
v 3.78111 -28 21.6395
v 2.8318 -28 16.2049
v -2.85927 -25.3482 12.8096
v 7.03407 -25.3482 11.0811
v 2.25938 -25.3482 12.9293
v 3.1e-05 -25.3482 0.001004
v 0.066452 49.0099 4.41151
v 2.64658 49.0099 3.52909
v 2.64658 50.9183 3.52909
v 0.066452 50.9183 4.41151
v 4.21527 49.0099 1.29857
v 4.21527 50.9183 1.29857
v 4.17314 49.0099 -1.428
v 4.17314 50.9183 -1.428
v 2.53694 49.0099 -3.60922
v 2.53694 50.9183 -3.60922
v 2.53694 49.0099 -3.60922
v -0.069092 49.0099 -4.41198
v -0.069092 50.9183 -4.41198
v 2.53694 50.9183 -3.60922
v -2.64975 49.0099 -3.52952
v -2.64975 50.9183 -3.52952
v -4.21844 49.0099 -1.29905
v -4.21844 50.9183 -1.29905
v -4.17635 49.0099 1.42758
v -4.17635 50.9183 1.42758
v -2.5396 49.0099 3.6088
v -2.5396 50.9183 3.6088
v 23.1174 48.1076 5.16621
v 20.209 48.1076 4.5167
v 20.3586 48.1076 -1.87274
v 23.2881 48.1076 -2.1428
v 19.3757 48.1076 13.6283
v 16.9388 48.1076 11.9141
v 23.3118 46.9083 -3.15875
v 20.3791 46.9083 -2.76093
v 20.3791 46.0059 -2.76093
v 23.3118 46.0059 -3.15875
v 23.2881 48.1076 -2.1428
v 12.6771 48.1076 20.0104
v 5.85632 48.1076 22.6423
v 5.11977 48.1076 19.7939
v 11.0825 48.1076 17.4931
v 4.90808 46.9083 23.0082
v 4.90808 46.0059 23.0082
v 4.29088 46.0059 20.1138
v 4.29088 46.9083 20.1138
v 5.11977 48.1076 19.7939
v 0.060516 43.7628 4.04744
v 2.42787 43.7628 3.23782
v 2.42787 45.0453 3.23782
v 0.060516 45.0453 4.04744
v 3.86696 43.7628 1.19138
v 3.86696 45.0453 1.19138
v 3.82863 43.7628 -1.31023
v 3.82863 45.0453 -1.31023
v 2.32742 43.7628 -3.31136
v 2.32742 45.0453 -3.31136
v 2.32742 43.7628 -3.31136
v -0.063675 43.7628 -4.04786
v -0.063675 45.0453 -4.04786
v 2.32742 45.0453 -3.31136
v -2.43106 43.7628 -3.23824
v -2.43106 45.0453 -3.23824
v -3.87016 43.7628 -1.19186
v -3.87016 45.0453 -1.19186
v -3.83182 43.7628 1.30975
v -3.83182 45.0453 1.30975
v -2.33008 43.7628 3.31099
v -2.33008 45.0453 3.31099
v 0.049728 45.0453 3.3334
v 1.99966 45.0453 2.6666
v 1.99966 49.0099 2.6666
v 0.049728 49.0099 3.3334
v 3.18495 45.0453 0.981212
v 3.18495 49.0099 0.981212
v 3.15309 45.0453 -1.0791
v 3.15309 49.0099 -1.0791
v 1.91649 45.0453 -2.72729
v 1.91649 49.0099 -2.72729
v 1.91649 45.0453 -2.72729
v -0.052887 45.0453 -3.33387
v -0.052887 49.0099 -3.33387
v 1.91649 49.0099 -2.72729
v -2.00229 45.0453 -2.66708
v -2.00229 49.0099 -2.66708
v -3.18759 45.0453 -0.981688
v -3.18759 49.0099 -0.981688
v -3.15627 45.0453 1.07863
v -3.15627 49.0099 1.07863
v -1.91968 45.0453 2.72692
v -1.91968 49.0099 2.72692
v -5.85573 43.9042 -22.6404
v -12.6765 43.9042 -20.0084
v -11.0824 43.9042 -17.4911
v -5.11972 43.9042 -19.792
v -19.3757 43.9042 -13.6263
v -16.9381 43.9042 -11.9121
v -5.11972 43.9042 -19.792
v -4.2908 45.1041 -20.1118
v -4.90803 45.1041 -23.0062
v -4.2908 46.0059 -20.1118
v -4.90803 46.0059 -23.0062
v -23.288 43.9042 2.14475
v -20.358 43.9042 1.8747
v -20.2089 43.9042 -4.51475
v -23.1168 43.9042 -5.1642
v -20.358 43.9042 1.8747
v -23.3118 45.1041 3.16071
v -20.379 45.1041 2.76289
v -20.379 46.0059 2.76289
v -23.3118 46.0059 3.16071
v -14.1939 7.3828 -22.3804
v -21.6777 7.3828 -15.2457
v -21.5892 19.9876 -15.1832
v -14.1464 19.9876 -22.2827
v -4.54893 7.3828 -26.1079
v -4.54298 19.9876 -26
v 5.7883 7.3828 -25.8608
v 5.75212 19.9876 -25.7594
v 15.1843 19.9876 -21.5881
v 15.2458 7.3828 -21.6754
v 15.1821 -5.22199 -21.5851
v 5.77696 -5.22199 -25.7502
v -4.51762 -5.22199 -26.0018
v -14.1248 -5.22199 -22.2946
v -21.5892 -5.22199 -15.1832
v -25.8622 7.3828 -5.78996
v -25.7542 19.9876 -5.77835
v -26.109 7.3828 4.54715
v -26.0058 19.9876 4.51627
v -22.3819 7.3828 14.192
v -22.2987 19.9876 14.1236
v -15.1837 19.9876 21.5901
v -15.2453 7.3828 21.6774
v -22.2815 -5.22199 14.1441
v -15.1815 -5.22199 21.587
v -25.9988 -5.22199 4.54078
v -25.758 -5.22199 -5.75416
v 25.8623 7.3828 5.79191
v 25.7543 19.9876 5.7803
v 21.5898 19.9876 15.1852
v 21.6783 7.3828 15.2476
v 26.1096 7.3828 -4.5452
v 26.0059 19.9876 -4.51431
v 22.3819 7.3828 -14.1901
v 22.2988 19.9876 -14.1216
v 15.1843 19.9876 -21.5881
v 15.2458 7.3828 -21.6754
v 22.2815 -5.22199 -14.1422
v 15.1821 -5.22199 -21.5851
v 25.9989 -5.22199 -4.53883
v 25.7586 -5.22199 5.75611
v 21.5898 -5.22199 15.1852
v 14.1939 7.3828 22.3823
v 14.1469 19.9876 22.2846
v 4.54953 7.3828 26.11
v 4.54306 19.9876 26.002
v -5.7877 7.3828 25.8627
v -5.75149 19.9876 25.7614
v -5.77689 -5.22199 25.7521
v 4.51767 -5.22199 26.0037
v 14.1254 -5.22199 22.2966
vt 0.047117 0.144871
vt 0.001953 0.144871
vt 0.001953 0.152264
vt 0.047117 0.152264
vt 0.09232 0.144871
vt 0.09232 0.152264
vt 0.137524 0.144871
vt 0.137524 0.152264
vt 0.182728 0.152264
vt 0.182728 0.144871
vt 0.047117 0.174596
vt 0.047117 0.167351
vt 0.001953 0.167351
vt 0.001953 0.174596
vt 0.137524 0.174596
vt 0.182728 0.174596
vt 0.182728 0.167351
vt 0.137524 0.167351
vt 0.09232 0.174596
vt 0.09232 0.167351
vt 0.318339 0.144871
vt 0.318339 0.152264
vt 0.36355 0.152264
vt 0.36355 0.144871
vt 0.273135 0.144871
vt 0.273135 0.152264
vt 0.227931 0.144871
vt 0.227931 0.152264
vt 0.318339 0.174596
vt 0.36355 0.174596
vt 0.36355 0.167351
vt 0.318339 0.167351
vt 0.227931 0.174596
vt 0.227931 0.167351
vt 0.273135 0.174596
vt 0.273135 0.167351
vt 0.679982 0.144871
vt 0.679982 0.152264
vt 0.725149 0.152264
vt 0.725149 0.144871
vt 0.63478 0.144871
vt 0.634779 0.152264
vt 0.589576 0.144871
vt 0.589575 0.152264
vt 0.544372 0.152264
vt 0.544372 0.144871
vt 0.679982 0.174596
vt 0.725149 0.174596
vt 0.725149 0.167351
vt 0.679982 0.167351
vt 0.589575 0.174596
vt 0.589575 0.167351
vt 0.544372 0.167351
vt 0.544372 0.174596
vt 0.634779 0.174596
vt 0.63478 0.167351
vt 0.408763 0.144871
vt 0.408763 0.152264
vt 0.453966 0.144871
vt 0.453966 0.152264
vt 0.499169 0.144871
vt 0.499169 0.152264
vt 0.408763 0.174596
vt 0.408763 0.167351
vt 0.499169 0.174596
vt 0.499169 0.167351
vt 0.453966 0.174596
vt 0.453966 0.167351
vt 0.679975 0.14287
vt 0.725141 0.14287
vt 0.725141 0.135625
vt 0.679975 0.135625
vt 0.634773 0.14287
vt 0.634773 0.135625
vt 0.58957 0.14287
vt 0.58957 0.135625
vt 0.544367 0.135625
vt 0.544367 0.14287
vt 0.679975 0.113146
vt 0.679975 0.120539
vt 0.725141 0.120539
vt 0.725141 0.113146
vt 0.58957 0.113146
vt 0.544367 0.113146
vt 0.544367 0.120539
vt 0.58957 0.120539
vt 0.634773 0.113146
vt 0.634773 0.120539
vt 0.408759 0.14287
vt 0.408759 0.135625
vt 0.363547 0.135625
vt 0.363547 0.14287
vt 0.453961 0.14287
vt 0.453961 0.135625
vt 0.499164 0.14287
vt 0.499164 0.135625
vt 0.408759 0.113146
vt 0.363547 0.113146
vt 0.363547 0.120539
vt 0.408759 0.120539
vt 0.499164 0.113146
vt 0.499164 0.120539
vt 0.453961 0.113146
vt 0.453961 0.120539
vt 0.047117 0.14287
vt 0.047117 0.135625
vt 0.001953 0.135625
vt 0.001953 0.14287
vt 0.09232 0.14287
vt 0.09232 0.135625
vt 0.137523 0.14287
vt 0.137523 0.135625
vt 0.182726 0.135625
vt 0.182726 0.14287
vt 0.047117 0.113146
vt 0.001953 0.113146
vt 0.001953 0.120539
vt 0.047117 0.120539
vt 0.137523 0.113146
vt 0.137523 0.120539
vt 0.182726 0.120539
vt 0.182726 0.113146
vt 0.09232 0.113146
vt 0.09232 0.120539
vt 0.318336 0.14287
vt 0.318336 0.135625
vt 0.273132 0.14287
vt 0.273132 0.135625
vt 0.227929 0.14287
vt 0.227929 0.135625
vt 0.318336 0.113146
vt 0.318336 0.120539
vt 0.227929 0.113146
vt 0.227929 0.120539
vt 0.273132 0.113146
vt 0.273132 0.120539
vt 0.382178 0.723846
vt 0.38216 0.763409
vt 0.394686 0.760926
vt 0.394703 0.72634
vt 0.389726 0.78171
vt 0.4013 0.776925
vt 0.397292 0.800011
vt 0.425279 0.828036
vt 0.432381 0.817423
vt 0.407915 0.792924
vt 0.461906 0.843227
vt 0.464399 0.830703
vt 0.581274 0.763481
vt 0.568749 0.760987
vt 0.555519 0.792943
vt 0.566139 0.800034
vt 0.552142 0.814042
vt 0.543282 0.805189
vt 0.531045 0.817436
vt 0.538144 0.828051
vt 0.499061 0.830697
vt 0.501558 0.843221
vt 0.407933 0.694384
vt 0.397312 0.687293
vt 0.41131 0.673285
vt 0.42017 0.682138
vt 0.432407 0.669891
vt 0.425308 0.659276
vt 0.46439 0.65663
vt 0.461894 0.644106
vt 0.499053 0.656624
vt 0.501546 0.6441
vt 0.581292 0.723918
vt 0.568765 0.726401
vt 0.573726 0.705617
vt 0.562151 0.710402
vt 0.56616 0.687316
vt 0.538173 0.65929
vt 0.531071 0.669904
vt 0.555537 0.694403
vt 0.925929 0.936771
vt 0.932021 0.90546
vt 0.919423 0.90546
vt 0.914097 0.931886
vt 0.903877 0.969839
vt 0.89482 0.960793
vt 0.932021 0.898953
vt 0.932021 0.895083
vt 0.919423 0.895083
vt 0.919423 0.898953
vt 0.919423 0.90546
vt 0.870836 0.99193
vt 0.865936 0.980105
vt 0.839515 0.98545
vt 0.839515 0.998047
vt 0.833009 0.998047
vt 0.833009 0.98545
vt 0.82914 0.98545
vt 0.82914 0.998047
vt 0.839515 0.98545
vt 0.42384 0.354872
vt 0.456423 0.354872
vt 0.449395 0.34298
vt 0.42384 0.34298
vt 0.391391 0.354872
vt 0.391391 0.34298
vt 0.456423 0.309972
vt 0.42384 0.309972
vt 0.42384 0.323063
vt 0.449395 0.323063
vt 0.391391 0.309972
vt 0.391391 0.323063
vt 0.456423 0.333228
vt 0.45297 0.328984
vt 0.45297 0.333228
vt 0.45297 0.33745
vt 0.521206 0.309972
vt 0.487149 0.309972
vt 0.487149 0.354872
vt 0.521206 0.354872
vt 0.487149 0.309972
vt 0.471503 0.309972
vt 0.456423 0.309972
vt 0.358953 0.354872
vt 0.358953 0.34298
vt 0.333396 0.34298
vt 0.326364 0.354872
vt 0.326364 0.309972
vt 0.333396 0.323063
vt 0.358953 0.323063
vt 0.358953 0.309972
vt 0.326364 0.333228
vt 0.32982 0.33745
vt 0.32982 0.333228
vt 0.32982 0.328984
vt 0.261579 0.309972
vt 0.261579 0.354872
vt 0.292186 0.354872
vt 0.292185 0.309972
vt 0.292185 0.309972
vt 0.326364 0.309972
vt 0.309279 0.309972
vt 0.099334 0.354872
vt 0.099334 0.34298
vt 0.073554 0.34298
vt 0.066742 0.354872
vt 0.131764 0.354872
vt 0.131764 0.34298
vt 0.066742 0.309972
vt 0.073554 0.323063
vt 0.099334 0.323063
vt 0.099334 0.309972
vt 0.131764 0.323063
vt 0.131764 0.309972
vt 0.066742 0.333228
vt 0.070198 0.33745
vt 0.070198 0.333228
vt 0.070198 0.328984
vt 0.001953 0.309972
vt 0.001953 0.354872
vt 0.03439 0.354872
vt 0.03439 0.309972
vt 0.03439 0.309972
vt 0.050632 0.309972
vt 0.164196 0.354872
vt 0.196015 0.354872
vt 0.189764 0.34298
vt 0.164196 0.34298
vt 0.196015 0.309972
vt 0.164196 0.309972
vt 0.164196 0.323063
vt 0.189764 0.323063
vt 0.196015 0.333228
vt 0.193857 0.328984
vt 0.193857 0.333228
vt 0.193857 0.33745
vt 0.228886 0.309972
vt 0.228886 0.354872
vt 0.228886 0.309972
vt 0.212757 0.309972
vt 0.196015 0.309972
vt 0.196015 0.333228
vt 0.189764 0.323063
vt 0.193857 0.328984
vt 0.044235 0.367436
vt 0.001953 0.367436
vt 0.001953 0.424045
vt 0.044235 0.424045
vt 0.0869 0.367436
vt 0.0869 0.424045
vt 0.129562 0.367436
vt 0.129562 0.424045
vt 0.172265 0.367436
vt 0.172265 0.424045
vt 0.044235 0.356873
vt 0.001953 0.356873
vt 0.0869 0.356873
vt 0.129563 0.356873
vt 0.172265 0.356873
vt 0.300282 0.367436
vt 0.300282 0.424045
vt 0.34289 0.424045
vt 0.34289 0.367436
vt 0.257626 0.367436
vt 0.257626 0.424045
vt 0.21497 0.367436
vt 0.21497 0.424045
vt 0.34289 0.356873
vt 0.300282 0.356873
vt 0.257626 0.356873
vt 0.21497 0.356873
vt 0.641545 0.367436
vt 0.641545 0.424045
vt 0.683827 0.424045
vt 0.683827 0.367436
vt 0.598881 0.367436
vt 0.598881 0.424045
vt 0.556219 0.367436
vt 0.556219 0.424045
vt 0.513513 0.367436
vt 0.513513 0.424045
vt 0.683827 0.356873
vt 0.641545 0.356873
vt 0.598881 0.356873
vt 0.556219 0.356873
vt 0.513513 0.356873
vt 0.385498 0.367436
vt 0.385498 0.424045
vt 0.428154 0.367436
vt 0.428154 0.424045
vt 0.47081 0.367436
vt 0.47081 0.424045
vt 0.385498 0.356873
vt 0.428153 0.356873
vt 0.47081 0.356873
vt 0.496583 0.220783
vt 0.534775 0.220783
vt 0.526654 0.208005
vt 0.496406 0.208005
vt 0.458568 0.220783
vt 0.458549 0.208005
vt 0.534775 0.176597
vt 0.496583 0.176597
vt 0.496406 0.188855
vt 0.526654 0.188855
vt 0.458568 0.176597
vt 0.458549 0.188855
vt 0.534775 0.198179
vt 0.530403 0.194169
vt 0.530403 0.198179
vt 0.530403 0.202316
vt 0.572726 0.220783
vt 0.572726 0.176597
vt 0.572726 0.220783
vt 0.534775 0.220783
vt 0.553796 0.220783
vt 0.610769 0.176597
vt 0.610769 0.220783
vt 0.420551 0.220783
vt 0.420689 0.208005
vt 0.382985 0.208005
vt 0.373242 0.220783
vt 0.373242 0.176597
vt 0.382985 0.188855
vt 0.420689 0.188855
vt 0.420551 0.176597
vt 0.373242 0.198179
vt 0.378018 0.202316
vt 0.378018 0.198179
vt 0.378018 0.194169
vt 0.344406 0.220783
vt 0.35874 0.220783
vt 0.306365 0.176597
vt 0.306365 0.220783
vt 0.344406 0.176597
vt 0.116137 0.220783
vt 0.116256 0.208005
vt 0.086018 0.208005
vt 0.078058 0.220783
vt 0.15416 0.220783
vt 0.15416 0.208005
vt 0.078058 0.176597
vt 0.086018 0.188855
vt 0.116256 0.188856
vt 0.116137 0.176597
vt 0.15416 0.188855
vt 0.15416 0.176597
vt 0.078058 0.198179
vt 0.082224 0.20245
vt 0.082224 0.198179
vt 0.082224 0.194169
vt 0.039992 0.220783
vt 0.058593 0.220783
vt 0.078058 0.220783
vt 0.039992 0.220783
vt 0.039992 0.176597
vt 0.001953 0.176597
vt 0.001953 0.220783
vt 0.192182 0.220783
vt 0.230255 0.220783
vt 0.222292 0.208005
vt 0.192062 0.208005
vt 0.230255 0.176597
vt 0.192182 0.176597
vt 0.192062 0.188855
vt 0.222292 0.188855
vt 0.230255 0.198179
vt 0.226093 0.194169
vt 0.226093 0.198179
vt 0.226093 0.20245
vt 0.268324 0.220783
vt 0.268324 0.176597
vt 0.268324 0.220783
vt 0.230255 0.220783
vt 0.248861 0.220783
vt 0.875216 0.905459
vt 0.862618 0.905459
vt 0.857292 0.931888
vt 0.869123 0.936775
vt 0.838009 0.960792
vt 0.847064 0.96984
vt 0.862618 0.905459
vt 0.875216 0.898952
vt 0.862617 0.898952
vt 0.862618 0.895082
vt 0.875216 0.895082
vt 0.782709 0.998047
vt 0.814018 0.991925
vt 0.809121 0.980098
vt 0.782709 0.985449
vt 0.782709 0.985449
vt 0.776203 0.98545
vt 0.776203 0.998047
vt 0.772333 0.985449
vt 0.772333 0.998047
vt 0.691684 0.946719
vt 0.710695 0.946723
vt 0.707066 0.935547
vt 0.697562 0.928639
vt 0.685812 0.928637
vt 0.676305 0.935542
vt 0.672672 0.946716
vt 0.676301 0.957891
vt 0.685805 0.964799
vt 0.697555 0.964801
vt 0.707062 0.957897
vt 0.673876 0.446031
vt 0.632605 0.446031
vt 0.632605 0.502914
vt 0.673876 0.502914
vt 0.548468 0.446031
vt 0.5064 0.446031
vt 0.5064 0.502914
vt 0.548468 0.502914
vt 0.590574 0.446031
vt 0.590574 0.502914
vt 0.673876 0.426046
vt 0.632605 0.426046
vt 0.548468 0.426046
vt 0.5064 0.426046
vt 0.590574 0.426046
vt 0.337913 0.446031
vt 0.337913 0.502914
vt 0.380122 0.502914
vt 0.380122 0.446031
vt 0.464362 0.446031
vt 0.464362 0.502914
vt 0.422249 0.446031
vt 0.422249 0.502914
vt 0.380122 0.426046
vt 0.337913 0.426046
vt 0.464362 0.426046
vt 0.422249 0.426046
vt 0.001953 0.446031
vt 0.001953 0.502914
vt 0.043223 0.502914
vt 0.043223 0.446031
vt 0.127359 0.446031
vt 0.127359 0.502914
vt 0.169427 0.502914
vt 0.169427 0.446031
vt 0.085253 0.446031
vt 0.085253 0.502914
vt 0.043223 0.426046
vt 0.001953 0.426046
vt 0.169427 0.426046
vt 0.127359 0.426046
vt 0.085253 0.426046
vt 0.295704 0.446031
vt 0.295704 0.502914
vt 0.211465 0.446031
vt 0.211465 0.502914
vt 0.253576 0.446031
vt 0.253576 0.502914
vt 0.295704 0.426046
vt 0.211465 0.426046
vt 0.253577 0.426046
vt 0.640196 0.299981
vt 0.656673 0.31649
vt 0.682358 0.278178
vt 0.678586 0.274395
vt 0.678221 0.325462
vt 0.687288 0.28023
vt 0.70156 0.325505
vt 0.692627 0.280239
vt 0.723142 0.316582
vt 0.697563 0.278204
vt 0.615294 0.316578
vt 0.639959 0.341356
vt 0.672281 0.354837
vt 0.707325 0.354924
vt 0.739798 0.341573
vt 0.73974 0.233636
vt 0.701351 0.259222
vt 0.703391 0.26416
vt 0.748637 0.255197
vt 0.703388 0.269499
vt 0.748626 0.278539
vt 0.701341 0.274431
vt 0.739684 0.300096
vt 0.764643 0.217039
vt 0.77802 0.24934
vt 0.778024 0.28436
vt 0.764618 0.31674
vt 0.676546 0.269458
vt 0.6313 0.27842
vt 0.676549 0.264118
vt 0.631311 0.255078
vt 0.678596 0.259186
vt 0.640253 0.233521
vt 0.682374 0.255413
vt 0.656795 0.217035
vt 0.601917 0.284277
vt 0.601913 0.249257
vt 0.615319 0.216877
vt 0.640139 0.192044
vt 0.723264 0.217127
vt 0.697579 0.255439
vt 0.701716 0.208155
vt 0.692649 0.253387
vt 0.678377 0.208112
vt 0.68731 0.253378
vt 0.739978 0.192261
vt 0.707656 0.17878
vt 0.672612 0.178693
vt 0.848065 0.919606
vt 0.83939 0.913305
vt 0.838445 0.916216
vt 0.845589 0.921405
vt 0.828668 0.913306
vt 0.829614 0.916217
vt 0.819994 0.91961
vt 0.82247 0.921408
vt 0.816682 0.929807
vt 0.819742 0.929807
vt 0.819997 0.940004
vt 0.822472 0.938205
vt 0.828672 0.946306
vt 0.829617 0.943395
vt 0.839394 0.946304
vt 0.838448 0.943394
vt 0.848067 0.940001
vt 0.845591 0.938203
vt 0.851379 0.929803
vt 0.848319 0.929804
vt 0.901864 0.912731
vt 0.907055 0.919875
vt 0.91145 0.918447
vt 0.904579 0.908993
vt 0.907056 0.928706
vt 0.911451 0.930133
vt 0.901866 0.935851
vt 0.904583 0.939589
vt 0.893468 0.93858
vt 0.893469 0.943201
vt 0.885069 0.935853
vt 0.882354 0.939591
vt 0.879878 0.928709
vt 0.875484 0.930137
vt 0.879877 0.919878
vt 0.875482 0.918451
vt 0.885067 0.912733
vt 0.88235 0.908995
vt 0.893465 0.910003
vt 0.893465 0.905383
vt 0.778084 0.76942
vt 0.778093 0.731495
vt 0.754771 0.73617
vt 0.754746 0.764772
vt 0.702051 0.84545
vt 0.736862 0.831033
vt 0.723652 0.811247
vt 0.697373 0.822114
vt 0.763582 0.804351
vt 0.743813 0.791114
vt 0.737896 0.739553
vt 0.737995 0.761404
vt 0.714206 0.797058
vt 0.694041 0.805496
vt 0.729653 0.781589
vt 0.602587 0.804604
vt 0.62233 0.791319
vt 0.611281 0.764937
vt 0.58796 0.769613
vt 0.668935 0.822217
vt 0.664373 0.845566
vt 0.642572 0.811411
vt 0.629433 0.831245
vt 0.636488 0.781754
vt 0.628156 0.761554
vt 0.672182 0.805483
vt 0.651966 0.797164
vt 0.763466 0.696504
vt 0.743723 0.709789
vt 0.664001 0.655658
vt 0.66868 0.678994
vt 0.697117 0.678891
vt 0.70168 0.655542
vt 0.723481 0.689697
vt 0.73662 0.669863
vt 0.729565 0.719354
vt 0.672011 0.695611
vt 0.693871 0.695625
vt 0.714087 0.703944
vt 0.587968 0.731688
vt 0.611306 0.736336
vt 0.62919 0.670075
vt 0.6424 0.689861
vt 0.60247 0.696757
vt 0.622239 0.709994
vt 0.628058 0.739704
vt 0.651846 0.70405
vt 0.636399 0.719519
vt 0.683026 0.750554
vt 0.757854 0.64712
vt 0.74503 0.647121
vt 0.74503 0.654573
vt 0.757855 0.654572
vt 0.732205 0.647123
vt 0.732206 0.654575
vt 0.719381 0.647124
vt 0.719382 0.654576
vt 0.706557 0.647126
vt 0.706558 0.654578
vt 0.8348 0.64711
vt 0.821975 0.647112
vt 0.821976 0.654564
vt 0.834801 0.654562
vt 0.809151 0.647113
vt 0.809152 0.654565
vt 0.796327 0.647115
vt 0.796328 0.654567
vt 0.783502 0.647116
vt 0.783503 0.654568
vt 0.770678 0.647118
vt 0.770679 0.65457
vt 0.75721 0.991924
vt 0.752313 0.980097
vt 0.725902 0.985449
vt 0.725902 0.998047
vt 0.790257 0.969839
vt 0.781202 0.960791
vt 0.719396 0.998047
vt 0.719396 0.985449
vt 0.715526 0.985449
vt 0.715526 0.998047
vt 0.725902 0.998047
vt 0.812317 0.936776
vt 0.81841 0.905458
vt 0.805811 0.905458
vt 0.800486 0.931888
vt 0.81841 0.898951
vt 0.81841 0.895081
vt 0.805811 0.895081
vt 0.805812 0.898951
vt 0.805811 0.905458
vt 0.816021 0.345391
vt 0.827786 0.345393
vt 0.827787 0.340384
vt 0.816021 0.340382
vt 0.839552 0.345395
vt 0.839553 0.340386
vt 0.851318 0.345397
vt 0.851319 0.340388
vt 0.863084 0.345399
vt 0.863085 0.340389
vt 0.745424 0.34538
vt 0.757191 0.345382
vt 0.757191 0.340372
vt 0.745425 0.340371
vt 0.768956 0.345384
vt 0.768957 0.340374
vt 0.780722 0.345386
vt 0.780723 0.340376
vt 0.792488 0.345387
vt 0.792489 0.340378
vt 0.804254 0.345389
vt 0.804255 0.34038
vt 0.838948 0.536594
vt 0.848638 0.536594
vt 0.848638 0.52111
vt 0.838947 0.52111
vt 0.858329 0.536594
vt 0.858328 0.52111
vt 0.868019 0.536594
vt 0.868019 0.52111
vt 0.87771 0.536594
vt 0.87771 0.52111
vt 0.780804 0.536594
vt 0.790495 0.536594
vt 0.790495 0.52111
vt 0.780804 0.52111
vt 0.800186 0.536594
vt 0.800185 0.52111
vt 0.809876 0.536594
vt 0.809876 0.52111
vt 0.819567 0.536594
vt 0.819566 0.52111
vt 0.829257 0.536594
vt 0.829257 0.52111
vt 0.669095 0.998047
vt 0.700403 0.991924
vt 0.695506 0.980097
vt 0.669095 0.985449
vt 0.73345 0.969839
vt 0.724396 0.960791
vt 0.669095 0.985449
vt 0.662589 0.985449
vt 0.662589 0.998047
vt 0.658719 0.985449
vt 0.658719 0.998047
vt 0.761603 0.905458
vt 0.749005 0.905458
vt 0.743679 0.931888
vt 0.75551 0.936776
vt 0.749005 0.905458
vt 0.761603 0.898951
vt 0.749005 0.898951
vt 0.749005 0.895081
vt 0.761603 0.895081
vt 0.632731 0.554138
vt 0.58421 0.554138
vt 0.584213 0.603391
vt 0.632669 0.603391
vt 0.681257 0.554138
vt 0.681181 0.603391
vt 0.729799 0.554138
vt 0.729688 0.603391
vt 0.778236 0.603391
vt 0.778394 0.554138
vt 0.778179 0.504915
vt 0.729798 0.504915
vt 0.681304 0.504915
vt 0.632788 0.504915
vt 0.584204 0.504915
vt 0.53569 0.554138
vt 0.535757 0.603391
vt 0.487168 0.554138
vt 0.487241 0.603391
vt 0.438646 0.554138
vt 0.438718 0.603391
vt 0.390113 0.603391
vt 0.390118 0.554138
vt 0.438579 0.504915
vt 0.390122 0.504915
vt 0.487095 0.504915
vt 0.535617 0.504915
vt 0.147504 0.554138
vt 0.147557 0.603391
vt 0.196013 0.603391
vt 0.196025 0.554138
vt 0.098993 0.554138
vt 0.098993 0.603391
vt 0.050487 0.554138
vt 0.050487 0.603391
vt 0.001953 0.603391
vt 0.001953 0.554138
vt 0.050487 0.504915
vt 0.001953 0.504915
vt 0.098993 0.504915
vt 0.147456 0.504915
vt 0.196041 0.504915
vt 0.244545 0.554138
vt 0.244469 0.603391
vt 0.293067 0.554138
vt 0.292985 0.603391
vt 0.341589 0.554138
vt 0.341508 0.603391
vt 0.341666 0.504915
vt 0.293149 0.504915
vt 0.244627 0.504915
vn 0.216179 0.153613 -0.964194
vn 0.568457 0.153602 -0.808247
vn 0.56076 0.223281 -0.797304
vn 0.213729 0.223591 -0.950961
vn -0.16904 0.15362 -0.973564
vn -0.166455 0.223809 -0.960314
vn -0.528931 0.153624 -0.834644
vn -0.521333 0.223892 -0.823459
vn -0.797155 0.224074 -0.560656
vn -0.808243 0.153633 -0.568454
vn 0.217666 -0.07362 -0.973243
vn 0.214188 -0.17993 -0.960077
vn 0.565862 -0.180245 -0.804557
vn 0.573723 -0.073604 -0.815735
vn -0.534317 -0.073593 -0.842074
vn -0.815736 -0.073583 -0.573724
vn -0.804677 -0.17944 -0.565947
vn -0.527451 -0.179631 -0.830378
vn -0.171525 -0.073615 -0.982426
vn -0.1696 -0.179722 -0.968987
vn -0.834325 0.153612 0.529439
vn -0.822698 0.223593 0.52266
vn -0.56076 0.223283 0.797304
vn -0.568457 0.153602 0.808247
vn -0.973384 0.15362 0.170073
vn -0.96004 0.22381 0.168026
vn -0.964323 0.153625 -0.215592
vn -0.951227 0.223894 -0.212224
vn -0.842338 -0.073619 0.533898
vn -0.573723 -0.073604 0.815735
vn -0.565862 -0.180242 0.804558
vn -0.831124 -0.179926 0.526174
vn -0.973137 -0.073591 -0.21815
vn -0.959808 -0.179633 -0.21564
vn -0.982564 -0.073614 0.170731
vn -0.969266 -0.179723 0.168
vn 0.834325 0.153613 -0.529439
vn 0.822698 0.223594 -0.52266
vn 0.56076 0.223281 -0.797304
vn 0.568457 0.153602 -0.808247
vn 0.973384 0.153619 -0.170073
vn 0.960039 0.223812 -0.168026
vn 0.964323 0.153625 0.215593
vn 0.951227 0.223894 0.212224
vn 0.797155 0.224075 0.560655
vn 0.808243 0.153633 0.568454
vn 0.842337 -0.07362 -0.533899
vn 0.573723 -0.073604 -0.815735
vn 0.565862 -0.180245 -0.804557
vn 0.831124 -0.179931 -0.526173
vn 0.973137 -0.073591 0.218149
vn 0.959808 -0.179632 0.215641
vn 0.804677 -0.17944 0.565947
vn 0.815737 -0.073583 0.573724
vn 0.982564 -0.073615 -0.170732
vn 0.969266 -0.179723 -0.168
vn -0.216178 0.153613 0.964194
vn -0.21373 0.223592 0.950961
vn 0.169041 0.15362 0.973564
vn 0.166455 0.22381 0.960313
vn 0.528931 0.153625 0.834644
vn 0.521333 0.223894 0.823458
vn -0.217666 -0.073619 0.973243
vn -0.214187 -0.179929 0.960078
vn 0.534317 -0.073591 0.842074
vn 0.527449 -0.179632 0.830379
vn 0.171525 -0.073614 0.982426
vn 0.1696 -0.179723 0.968987
vn 0.218182 0.073414 -0.973143
vn 0.573731 0.073421 -0.815746
vn 0.565864 0.180221 -0.804561
vn 0.215679 0.180542 -0.959629
vn -0.170731 0.073424 -0.982578
vn -0.167972 0.180763 -0.969077
vn -0.533862 0.07345 -0.842375
vn -0.526094 0.180848 -0.830975
vn -0.804438 0.181036 -0.565778
vn -0.815744 0.073456 -0.57373
vn 0.215664 -0.153633 -0.964306
vn 0.21226 -0.222996 -0.95143
vn 0.560758 -0.223303 -0.7973
vn 0.568454 -0.153632 -0.808243
vn -0.529432 -0.153623 -0.834327
vn -0.808246 -0.153614 -0.568456
vn -0.797446 -0.222522 -0.56086
vn -0.522703 -0.22271 -0.822911
vn -0.170072 -0.153629 -0.973383
vn -0.16807 -0.222796 -0.960268
vn -0.842069 0.073414 0.53435
vn -0.830197 0.180547 0.527424
vn -0.565863 0.180226 0.804561
vn -0.573731 0.073421 0.815746
vn -0.982439 0.073423 0.171531
vn -0.9688 0.180765 0.169561
vn -0.973267 0.073448 -0.217618
vn -0.959912 0.180845 -0.214161
vn -0.834603 -0.153634 0.528993
vn -0.568454 -0.153633 0.808243
vn -0.560758 -0.223302 0.7973
vn -0.823637 -0.222996 0.521435
vn -0.964194 -0.153623 -0.21617
vn -0.951174 -0.222712 -0.213698
vn -0.973562 -0.153629 0.169041
vn -0.960543 -0.222798 0.166491
vn 0.842069 0.073413 -0.53435
vn 0.830197 0.180542 -0.527426
vn 0.565864 0.180221 -0.804561
vn 0.573731 0.073421 -0.815746
vn 0.982439 0.073423 -0.171531
vn 0.9688 0.180765 -0.169561
vn 0.973267 0.073448 0.217618
vn 0.959911 0.180847 0.214162
vn 0.804439 0.181033 0.565779
vn 0.815744 0.073456 0.57373
vn 0.834604 -0.153633 -0.528993
vn 0.568454 -0.153632 -0.808243
vn 0.560758 -0.223303 -0.7973
vn 0.823638 -0.222991 -0.521436
vn 0.964194 -0.153624 0.216171
vn 0.951175 -0.222708 0.213698
vn 0.797446 -0.222522 0.56086
vn 0.808245 -0.153615 0.568456
vn 0.973562 -0.153629 -0.169041
vn 0.960545 -0.222789 -0.166491
vn -0.218182 0.073413 0.973143
vn -0.215678 0.180545 0.959628
vn 0.17073 0.073423 0.982578
vn 0.167973 0.180764 0.969077
vn 0.533861 0.073448 0.842376
vn 0.526093 0.180845 0.830976
vn -0.215665 -0.153633 0.964306
vn -0.212259 -0.222993 0.951431
vn 0.529432 -0.153623 0.834327
vn 0.522703 -0.222711 0.82291
vn 0.170072 -0.153629 0.973383
vn 0.16807 -0.222796 0.960268
vn 0.557176 0.248917 -0.792209
vn 0.259712 0.234105 -0.93688
vn -0.254077 0.337111 0.906533
vn -0.538154 0.353438 0.765162
vn 0.021171 0.499139 -0.866263
vn -0.020401 0.550206 0.83478
vn -0.099069 0.674908 -0.731221
vn -0.390539 0.696844 -0.601571
vn 0.312169 0.819344 0.48086
vn 0.083614 0.797281 0.597789
vn -0.601718 0.677374 -0.423201
vn 0.485744 0.804574 0.341634
vn -0.557177 0.248916 0.792209
vn 0.538154 0.353436 -0.765162
vn 0.767245 0.33711 -0.545611
vn -0.793901 0.234104 0.561175
vn -0.808095 0.499134 0.312807
vn 0.778723 0.550206 -0.301436
vn 0.590855 0.797282 -0.123421
vn -0.721653 0.674911 0.153989
vn 0.558086 0.819344 0.131207
vn -0.698184 0.696845 -0.16415
vn -0.767245 0.337112 0.54561
vn 0.7939 0.234105 -0.561175
vn 0.808092 0.49914 -0.312805
vn -0.778722 0.550208 0.301436
vn -0.590856 0.797281 0.123421
vn 0.721658 0.674906 -0.153988
vn -0.558086 0.819344 -0.131208
vn 0.698188 0.696841 0.164152
vn -0.485746 0.804572 -0.341635
vn 0.601719 0.677373 0.423202
vn -0.259712 0.234105 0.93688
vn 0.254078 0.337111 -0.906532
vn -0.021173 0.499134 0.866266
vn 0.020401 0.550208 -0.834778
vn 0.099069 0.674905 0.731224
vn 0.39054 0.696842 0.601573
vn -0.312169 0.819343 -0.480861
vn -0.083613 0.797281 -0.59779
vn -0.410778 -0.656426 -0.632746
vn -0.389823 -0.503583 -0.771001
vn 0.202135 -0.616037 0.761341
vn 0.33523 -0.788016 0.516384
vn -0.601719 -0.677374 -0.423202
vn 0.485745 -0.804573 0.341634
vn -0.756859 -0.212803 -0.617963
vn -0.99733 0 -0.073024
vn -0.886161 -0 0.463378
vn -0.322751 -0.290423 0.900825
vn 0.202135 -0.616037 0.761341
vn -0.734369 -0.656423 -0.172658
vn 0.599313 -0.788017 0.1409
vn 0.784842 -0.616044 -0.067175
vn -0.857396 -0.503583 -0.106192
vn -0.83746 -0.212812 -0.503361
vn 0.738661 -0.290419 -0.608307
vn 0.136486 0 -0.990642
vn -0.405915 0 -0.913911
vn 0.784842 -0.616044 -0.067175
vn 0.117913 0.977308 0.175968
vn -0.003721 0.854686 0.519131
vn 0.202136 0.616037 0.761341
vn 0.33523 0.788015 0.516384
vn 0.19427 0.971386 0.136634
vn 0.485745 0.804573 0.341635
vn 0.083614 0.797281 0.597789
vn 0.312169 0.819344 0.48086
vn 0.33523 -0.788016 0.516384
vn 0.202135 -0.616037 0.761341
vn 0.485744 0.804574 0.341634
vn 0.485745 -0.804573 0.341634
vn -0.005903 -0 0.999983
vn -0.322751 -0.290423 0.900825
vn -0.886161 -0 0.463378
vn -0.322752 0.290423 0.900825
vn -0.538154 0.353438 0.765162
vn -0.254077 0.337111 0.906533
vn -0.204159 0.586708 0.783641
vn -0.489309 0.52589 0.695713
vn -0.254077 0.337111 0.906533
vn -0.020401 0.550206 0.83478
vn 0.083614 0.797281 0.597789
vn 0.20547 0.977309 0.051473
vn 0.599314 0.788016 0.1409
vn 0.784843 0.616043 -0.067175
vn 0.4873 0.854688 -0.179018
vn 0.590855 0.797282 -0.123421
vn 0.784842 -0.616044 -0.067175
vn 0.599313 -0.788017 0.1409
vn 0.558086 0.819344 0.131207
vn 0.939099 -1e-06 -0.343646
vn 0.73866 0.290419 -0.608308
vn 0.136486 0 -0.990642
vn 0.738661 -0.290419 -0.608307
vn 0.538154 0.353436 -0.765162
vn 0.489309 0.52589 -0.695713
vn 0.668467 0.586708 -0.457083
vn 0.767245 0.33711 -0.545611
vn 0.767245 0.33711 -0.545611
vn 0.590855 0.797282 -0.123421
vn 0.778723 0.550206 -0.301436
vn -0.205472 0.977308 -0.051475
vn -0.599318 0.788013 -0.140902
vn -0.784852 0.616031 0.067176
vn -0.487301 0.854687 0.179018
vn -0.19427 0.971386 -0.136634
vn -0.485747 0.804572 -0.341635
vn -0.590856 0.797281 0.123421
vn -0.784851 -0.616032 0.067177
vn -0.599317 -0.788014 -0.140901
vn -0.558086 0.819344 -0.131208
vn -0.485746 -0.804573 -0.341634
vn -0.485746 0.804572 -0.341635
vn -0.939099 -0 0.343646
vn -0.738656 0.290431 0.608307
vn -0.136485 -0 0.990642
vn -0.738655 -0.290435 0.608307
vn -0.538154 0.353438 0.765162
vn -0.489309 0.52589 0.695713
vn -0.668468 0.586707 0.457084
vn -0.767245 0.337112 0.54561
vn -0.767245 0.337112 0.54561
vn -0.778722 0.550208 0.301436
vn -0.117912 0.977309 -0.175967
vn 0.003721 0.854687 -0.51913
vn -0.202136 0.616036 -0.761342
vn -0.335231 0.788014 -0.516386
vn -0.083613 0.797281 -0.59779
vn -0.312169 0.819343 -0.480861
vn -0.335231 -0.788015 -0.516385
vn -0.202134 -0.616036 -0.761342
vn 0.005903 -0 -0.999983
vn 0.322746 -0.290429 -0.900825
vn 0.88616 0 -0.46338
vn 0.322743 0.29043 -0.900826
vn 0.254078 0.337111 -0.906532
vn 0.204161 0.586706 -0.783642
vn 0.254078 0.337111 -0.906532
vn 0.020401 0.550208 -0.834778
vn -0.083613 0.797281 -0.59779
vn 0.005903 -0 -0.999983
vn -0.202134 -0.616036 -0.761342
vn 0.322746 -0.290429 -0.900825
vn 0.216061 0.157009 -0.963673
vn 0.568148 0.157013 -0.807808
vn 0.568457 0.153602 -0.808247
vn 0.216179 0.153613 -0.964194
vn -0.168949 0.157006 -0.973039
vn -0.16904 0.15362 -0.973564
vn -0.528646 0.157004 -0.834196
vn -0.528931 0.153624 -0.834644
vn -0.80781 0.157 -0.56815
vn -0.808243 0.153633 -0.568454
vn 0.237569 0.160927 -0.957948
vn 0.56921 0.14492 -0.809319
vn -0.085481 0.251994 -0.963946
vn -0.507431 0.343261 -0.790371
vn -0.770827 0.334531 -0.542139
vn -0.833874 0.15701 0.529153
vn -0.834325 0.153612 0.529439
vn -0.568457 0.153602 0.808247
vn -0.568148 0.157014 0.807808
vn -0.97286 0.157005 0.169981
vn -0.973384 0.15362 0.170073
vn -0.963805 0.157002 -0.215475
vn -0.964323 0.153625 -0.215592
vn -0.569211 0.144921 0.809319
vn -0.821214 0.160928 0.547458
vn -0.936082 0.251991 0.24546
vn -0.915391 0.343253 -0.210326
vn 0.833874 0.157009 -0.529153
vn 0.834325 0.153613 -0.529439
vn 0.568457 0.153602 -0.808247
vn 0.568148 0.157013 -0.807808
vn 0.97286 0.157005 -0.169981
vn 0.973384 0.153619 -0.170073
vn 0.963805 0.157002 0.215476
vn 0.964323 0.153625 0.215593
vn 0.80781 0.157 0.56815
vn 0.808243 0.153633 0.568454
vn 0.56921 0.14492 -0.809319
vn 0.821213 0.160927 -0.547459
vn 0.936082 0.251994 -0.245459
vn 0.915388 0.343259 0.210328
vn 0.770826 0.334533 0.542139
vn -0.216061 0.15701 0.963673
vn -0.216178 0.153613 0.964194
vn 0.16895 0.157006 0.973039
vn 0.169041 0.15362 0.973564
vn 0.528646 0.157003 0.834196
vn 0.528931 0.153625 0.834644
vn -0.237569 0.160927 0.957947
vn 0.085481 0.251993 0.963946
vn 0.507431 0.343258 0.790372
vn -0.390539 0.696844 -0.601571
vn -0.099069 0.674908 -0.731221
vn -0.389823 -0.503583 -0.771001
vn -0.410778 -0.656426 -0.632746
vn -0.601718 0.677374 -0.423201
vn -0.601719 -0.677374 -0.423202
vn -0.085481 0.251994 -0.963946
vn -0.507431 0.343261 -0.790371
vn -0.410777 0.656425 -0.632746
vn -0.389823 0.503583 -0.771001
vn -0.770827 0.334531 -0.542139
vn -0.601718 0.677374 -0.423202
vn 0.004495 1e-06 -0.99999
vn -0.75686 0.212804 -0.617962
vn -0.99733 0 -0.073024
vn -0.756859 -0.212803 -0.617963
vn 0.259712 0.234105 -0.93688
vn 0.237569 0.160927 -0.957948
vn 0.259712 0.234105 -0.93688
vn -0.099069 0.674908 -0.731221
vn 0.021171 0.499139 -0.866263
vn 0.56921 0.14492 -0.809319
vn 0.557176 0.248917 -0.792209
vn -0.698184 0.696845 -0.16415
vn -0.734369 -0.656423 -0.172658
vn -0.857396 -0.503583 -0.106192
vn -0.721653 0.674911 0.153989
vn -0.936082 0.251991 0.24546
vn -0.857396 0.503583 -0.106192
vn -0.734369 0.656423 -0.172657
vn -0.915391 0.343253 -0.210326
vn -0.939582 -0 0.342324
vn -0.83746 -0.212812 -0.503361
vn -0.405915 0 -0.913911
vn -0.837459 0.212809 -0.503364
vn -0.793901 0.234104 0.561175
vn -0.808095 0.499134 0.312807
vn -0.569211 0.144921 0.809319
vn -0.557177 0.248916 0.792209
vn -0.821214 0.160928 0.547458
vn 0.698188 0.696841 0.164152
vn 0.734367 -0.656425 0.172658
vn 0.857394 -0.503586 0.106194
vn 0.721658 0.674906 -0.153988
vn 0.601719 0.677373 0.423202
vn 0.601719 -0.677373 0.423202
vn 0.936082 0.251994 -0.245459
vn 0.857394 0.503586 0.106193
vn 0.734368 0.656425 0.172658
vn 0.915388 0.343259 0.210328
vn 0.601719 0.677373 0.423202
vn 0.770826 0.334533 0.542139
vn 0.939582 1e-06 -0.342323
vn 0.837457 -0.212809 0.503366
vn 0.405914 -0 0.913911
vn 0.837457 0.212808 0.503367
vn 0.7939 0.234105 -0.561175
vn 0.808092 0.49914 -0.312805
vn 0.721658 0.674906 -0.153988
vn 0.7939 0.234105 -0.561175
vn 0.821213 0.160927 -0.547459
vn 0.56921 0.14492 -0.809319
vn 0.557176 0.248917 -0.792209
vn 0.39054 0.696842 0.601573
vn 0.099069 0.674905 0.731224
vn 0.389824 -0.503583 0.771
vn 0.410778 -0.656424 0.632747
vn 0.085481 0.251993 0.963946
vn 0.507431 0.343258 0.790372
vn 0.410778 0.656424 0.632748
vn 0.389823 0.503584 0.771
vn -0.004496 -0 0.99999
vn 0.756866 0.212811 0.617953
vn 0.997331 -0 0.073016
vn 0.756866 -0.212812 0.617953
vn -0.259712 0.234105 0.93688
vn -0.237569 0.160927 0.957947
vn -0.259712 0.234105 0.93688
vn 0.099069 0.674905 0.731224
vn -0.021173 0.499134 0.866266
vn 0.857394 0.503586 0.106193
vn -0.784852 0.616031 0.067176
vn -0.599318 0.788013 -0.140902
vn 0.734368 0.656425 0.172658
vn -0.485747 0.804572 -0.341635
vn 0.601719 0.677373 0.423202
vn -0.784852 0.616031 0.067176
vn 0.837457 0.212808 0.503367
vn -0.738656 0.290431 0.608307
vn -0.136485 -0 0.990642
vn 0.405914 -0 0.913911
vn 0.389823 0.503584 0.771
vn 0.410778 0.656424 0.632748
vn -0.335231 0.788014 -0.516386
vn -0.202136 0.616036 -0.761342
vn -0.202136 0.616036 -0.761342
vn 0.322743 0.29043 -0.900826
vn 0.756866 0.212811 0.617953
vn 0.88616 0 -0.46338
vn 0.997331 -0 0.073016
vn -0 1 -0
vn 0.008403 0.837311 0.546662
vn 0.337861 0.826484 0.450305
vn 0.5225 0.837313 0.160937
vn 0.532675 0.826481 -0.182171
vn 0.314521 0.837313 -0.447195
vn -0.00865 0.826486 -0.562891
vn -0.328113 0.837316 -0.437314
vn -0.538021 0.826482 -0.165714
vn -0.517311 0.83731 0.17692
vn -0.323864 0.826481 0.460479
vn 0.560293 -0.226797 -0.79664
vn 0.212567 -0.226803 -0.950461
vn 0.215664 -0.153633 -0.964306
vn 0.568454 -0.153632 -0.808243
vn -0.52183 -0.226817 -0.822343
vn -0.796634 -0.226826 -0.560289
vn -0.808246 -0.153614 -0.568456
vn -0.529432 -0.153623 -0.834327
vn -0.167631 -0.226809 -0.959405
vn -0.170072 -0.153629 -0.973383
vn 0.258506 -0.893354 -0.36755
vn 0.098078 -0.893361 -0.438506
vn -0.240719 -0.89339 -0.379352
vn -0.367459 -0.89341 -0.258442
vn -0.077334 -0.893375 -0.442608
vn -0.560293 -0.226798 0.79664
vn -0.568454 -0.153633 0.808243
vn -0.834603 -0.153634 0.528993
vn -0.822621 -0.226804 0.521397
vn -0.950346 -0.226816 -0.213067
vn -0.964194 -0.153623 -0.21617
vn -0.959582 -0.22681 0.166612
vn -0.973562 -0.153629 0.169041
vn -0.379522 -0.893361 0.24056
vn -0.258505 -0.893354 0.36755
vn -0.4384 -0.89339 -0.098286
vn -0.44269 -0.893374 0.076865
vn 0.560293 -0.226797 -0.79664
vn 0.568454 -0.153632 -0.808243
vn 0.834604 -0.153633 -0.528993
vn 0.822621 -0.226802 -0.521398
vn 0.950345 -0.226817 0.213068
vn 0.964194 -0.153624 0.216171
vn 0.808245 -0.153615 0.568456
vn 0.796634 -0.226827 0.560289
vn 0.959582 -0.226809 -0.166613
vn 0.973562 -0.153629 -0.169041
vn 0.379523 -0.89336 -0.240561
vn 0.258506 -0.893354 -0.36755
vn 0.367458 -0.893411 0.258441
vn 0.4384 -0.89339 0.098286
vn 0.442691 -0.893374 -0.076865
vn -0.212567 -0.226804 0.950461
vn -0.215665 -0.153633 0.964306
vn 0.521829 -0.226817 0.822343
vn 0.529432 -0.153623 0.834327
vn 0.167631 -0.226809 0.959405
vn 0.170072 -0.153629 0.973383
vn -0.098079 -0.893361 0.438505
vn 0.24072 -0.89339 0.379353
vn 0.077334 -0.893374 0.442608
vn 0.113494 0.980346 -0.161369
vn 0.043168 0.980343 -0.192523
vn 0.013278 0.998158 -0.059198
vn 0.034903 0.998158 -0.049626
vn -0.033757 0.980339 -0.194411
vn -0.010379 0.998158 -0.059775
vn -0.105629 0.980336 -0.166684
vn -0.032472 0.998158 -0.051248
vn -0.161424 0.980333 -0.113533
vn -0.049624 0.998158 -0.034901
vn -0.489309 0.52589 0.695713
vn -0.204159 0.586708 0.783641
vn -0.003721 0.854686 0.519131
vn 0.117913 0.977308 0.175968
vn 0.19427 0.971386 0.136634
vn -0.113494 0.980346 0.161369
vn -0.034903 0.998158 0.049625
vn -0.051223 0.998158 0.032511
vn -0.166591 0.980342 0.105718
vn -0.059764 0.998158 0.010442
vn -0.194375 0.980339 0.033961
vn -0.059209 0.998158 -0.013233
vn -0.192581 0.980336 -0.043053
vn 0.489309 0.52589 -0.695713
vn 0.668467 0.586708 -0.457083
vn 0.4873 0.854688 -0.179018
vn 0.20547 0.977309 0.051473
vn 0.051223 0.998158 -0.03251
vn 0.166591 0.980342 -0.105718
vn 0.059764 0.998158 -0.010441
vn 0.194375 0.980339 -0.033961
vn 0.059209 0.998158 0.013233
vn 0.19258 0.980336 0.043053
vn 0.049624 0.998158 0.034901
vn 0.161425 0.980333 0.113533
vn -0.668468 0.586707 0.457084
vn -0.487301 0.854687 0.179018
vn -0.205472 0.977308 -0.051475
vn -0.19427 0.971386 -0.136634
vn -0.043168 0.980342 0.192524
vn -0.013278 0.998158 0.059198
vn 0.033756 0.980339 0.194411
vn 0.010379 0.998158 0.059776
vn 0.105629 0.980336 0.166684
vn 0.032473 0.998158 0.051249
vn 0.204161 0.586706 -0.783642
vn 0.003721 0.854687 -0.51913
vn -0.117912 0.977309 -0.175967
vn 0.014243 0.37625 0.926409
vn 0.55606 0.376248 0.741104
vn 0.58367 0.232698 0.777934
vn 0.014955 0.232701 0.972433
vn 0.885478 0.376227 0.272731
vn 0.929462 0.232688 0.286282
vn 0.876679 0.376223 -0.299817
vn 0.920227 0.232681 -0.314709
vn 0.533018 0.376229 -0.757855
vn 0.559494 0.232685 -0.795502
vn -0.014235 0.376239 -0.926413
vn -0.014943 0.232692 -0.972436
vn -0.556046 0.376235 -0.741121
vn -0.58367 0.232695 -0.777935
vn -0.885474 0.376236 -0.27273
vn -0.92946 0.232694 -0.286282
vn -0.876672 0.376237 0.29982
vn -0.920225 0.23269 0.314709
vn -0.533014 0.376239 0.757853
vn -0.559493 0.232699 0.7955
vn 0.014379 -0.354482 0.934952
vn 0.56117 -0.354488 0.747948
vn 0.557836 -0.368841 0.743489
vn 0.014286 -0.368836 0.929385
vn 0.893634 -0.354482 0.275247
vn 0.888312 -0.368834 0.273612
vn 0.884757 -0.354475 -0.302578
vn 0.879487 -0.368828 -0.300779
vn 0.537927 -0.354482 -0.764838
vn 0.534725 -0.368831 -0.760285
vn -0.014367 -0.354484 -0.934952
vn -0.014282 -0.368836 -0.929385
vn -0.561172 -0.354482 -0.74795
vn -0.557836 -0.368835 -0.743492
vn -0.893634 -0.354482 -0.275247
vn -0.888315 -0.368831 -0.273607
vn -0.884757 -0.354473 0.30258
vn -0.879485 -0.368828 0.300786
vn -0.537928 -0.354479 0.764839
vn -0.534723 -0.368829 0.760287
vn 0.098078 -0.893361 -0.438506
vn 0.258506 -0.893354 -0.36755
vn -0.121624 -0.977396 0.172928
vn -0.046143 -0.977397 0.206314
vn -0.367459 -0.89341 -0.258442
vn -0.240719 -0.89339 -0.379352
vn 0.113302 -0.977388 0.178536
vn 0.172996 -0.977378 0.121671
vn -0.077334 -0.893375 -0.442608
vn 0.036392 -0.977392 0.208279
vn -0.118392 -0.978595 0.168333
vn -0.044923 -0.978596 0.200826
vn 0.11024 -0.978606 0.173717
vn 0.168257 -0.978614 0.118338
vn 0.035415 -0.978603 0.202689
vn -0.379522 -0.893361 0.24056
vn 0.178565 -0.977397 -0.11318
vn 0.121624 -0.977396 -0.172929
vn -0.258505 -0.893354 0.36755
vn 0.20633 -0.977388 0.046267
vn -0.4384 -0.89339 -0.098286
vn 0.208319 -0.977392 -0.03617
vn -0.44269 -0.893374 0.076865
vn 0.173811 -0.978596 -0.110176
vn 0.118393 -0.978594 -0.168334
vn 0.200759 -0.978606 0.045015
vn 0.202727 -0.978603 -0.035199
vn 0.379523 -0.89336 -0.240561
vn -0.178563 -0.977397 0.11318
vn 0.367458 -0.893411 0.258441
vn -0.172996 -0.977378 -0.121672
vn -0.20633 -0.977388 -0.046268
vn 0.4384 -0.89339 0.098286
vn -0.208316 -0.977393 0.03617
vn 0.442691 -0.893374 -0.076865
vn -0.17381 -0.978597 0.110176
vn -0.168257 -0.978614 -0.118338
vn -0.200758 -0.978606 -0.045015
vn -0.202726 -0.978603 0.035199
vn -0.098079 -0.893361 0.438505
vn 0.046143 -0.977397 -0.206315
vn 0.24072 -0.89339 0.379353
vn -0.113302 -0.977388 -0.178537
vn 0.077334 -0.893374 0.442608
vn -0.036392 -0.977392 -0.208279
vn 0.044923 -0.978596 -0.200826
vn -0.110239 -0.978606 -0.173716
vn -0.035415 -0.978603 -0.202689
vn 0 -1 -0
vn 0.014286 -0.368836 0.929385
vn 0.557836 -0.368841 0.743489
vn 0.337861 0.826484 0.450305
vn 0.008403 0.837311 0.546662
vn 0.888312 -0.368834 0.273612
vn 0.5225 0.837313 0.160937
vn 0.879487 -0.368828 -0.300779
vn 0.532675 0.826481 -0.182171
vn 0.534725 -0.368831 -0.760285
vn 0.314521 0.837313 -0.447195
vn 0.534725 -0.368831 -0.760285
vn -0.014282 -0.368836 -0.929385
vn -0.00865 0.826486 -0.562891
vn 0.314521 0.837313 -0.447195
vn -0.557836 -0.368835 -0.743492
vn -0.328113 0.837316 -0.437314
vn -0.888315 -0.368831 -0.273607
vn -0.538021 0.826482 -0.165714
vn -0.879485 -0.368828 0.300786
vn -0.517311 0.83731 0.17692
vn -0.534723 -0.368829 0.760287
vn -0.323864 0.826481 0.460479
vn 0.734367 -0.656425 0.172658
vn -0.599317 -0.788014 -0.140901
vn -0.784851 -0.616032 0.067177
vn 0.857394 -0.503586 0.106194
vn 0.601719 -0.677373 0.423202
vn -0.485746 -0.804573 -0.341634
vn 0.837457 -0.212809 0.503366
vn -0.738655 -0.290435 0.608307
vn -0.136485 -0 0.990642
vn 0.405914 -0 0.913911
vn 0.857394 -0.503586 0.106194
vn 0.410778 -0.656424 0.632747
vn 0.389824 -0.503583 0.771
vn -0.202134 -0.616036 -0.761342
vn -0.335231 -0.788015 -0.516385
vn 0.756866 -0.212812 0.617953
vn 0.997331 -0 0.073016
vn 0.88616 0 -0.46338
vn 0.322746 -0.290429 -0.900825
vn -0.202134 -0.616036 -0.761342
vn 0.015373 -0 0.999882
vn 0.60016 -0 0.79988
vn 0.55606 0.376248 0.741104
vn 0.014243 0.37625 0.926409
vn 0.955695 -0 0.294358
vn 0.885478 0.376227 0.272731
vn 0.946197 0 -0.323591
vn 0.876679 0.376223 -0.299817
vn 0.575286 0 -0.817952
vn 0.533018 0.376229 -0.757855
vn 0.575286 0 -0.817952
vn -0.015364 0 -0.999882
vn -0.014235 0.376239 -0.926413
vn 0.533018 0.376229 -0.757855
vn -0.600142 0 -0.799893
vn -0.556046 0.376235 -0.741121
vn -0.955695 0 -0.294358
vn -0.885474 0.376236 -0.27273
vn -0.946195 -0 0.323597
vn -0.876672 0.376237 0.29982
vn -0.575284 -0 0.817954
vn -0.533014 0.376239 0.757853
vn 0.014955 0.232701 0.972433
vn 0.58367 0.232698 0.777934
vn 0.56117 -0.354488 0.747948
vn 0.014379 -0.354482 0.934952
vn 0.929462 0.232688 0.286282
vn 0.893634 -0.354482 0.275247
vn 0.920227 0.232681 -0.314709
vn 0.884757 -0.354475 -0.302578
vn 0.559494 0.232685 -0.795502
vn 0.537927 -0.354482 -0.764838
vn 0.559494 0.232685 -0.795502
vn -0.014943 0.232692 -0.972436
vn -0.014367 -0.354484 -0.934952
vn 0.537927 -0.354482 -0.764838
vn -0.58367 0.232695 -0.777935
vn -0.561172 -0.354482 -0.74795
vn -0.92946 0.232694 -0.286282
vn -0.893634 -0.354482 -0.275247
vn -0.920225 0.23269 0.314709
vn -0.884757 -0.354473 0.30258
vn -0.559493 0.232699 0.7955
vn -0.537928 -0.354479 0.764839
vn -0.389823 0.503583 -0.771001
vn -0.410777 0.656425 -0.632746
vn 0.33523 0.788015 0.516384
vn 0.202136 0.616037 0.761341
vn -0.601718 0.677374 -0.423202
vn 0.485745 0.804573 0.341635
vn 0.202136 0.616037 0.761341
vn -0.322752 0.290423 0.900825
vn -0.75686 0.212804 -0.617962
vn -0.886161 -0 0.463378
vn -0.99733 0 -0.073024
vn -0.857396 0.503583 -0.106192
vn 0.784843 0.616043 -0.067175
vn 0.599314 0.788016 0.1409
vn -0.734369 0.656423 -0.172657
vn 0.784843 0.616043 -0.067175
vn -0.837459 0.212809 -0.503364
vn 0.73866 0.290419 -0.608308
vn 0.136486 0 -0.990642
vn -0.405915 0 -0.913911
vn -0.535539 -0.000107 -0.844511
vn -0.817954 -0.000129 -0.575284
vn -0.815736 -0.073583 -0.573724
vn -0.534317 -0.073593 -0.842074
vn -0.171594 -0.000105 -0.985168
vn -0.171525 -0.073615 -0.982426
vn 0.218515 -7.9e-05 -0.975834
vn 0.217666 -0.07362 -0.973243
vn 0.573723 -0.073604 -0.815735
vn 0.575284 -3.3e-05 -0.817954
vn 0.573731 0.073421 -0.815746
vn 0.218182 0.073414 -0.973143
vn -0.170731 0.073424 -0.982578
vn -0.533862 0.07345 -0.842375
vn -0.815744 0.073456 -0.57373
vn -0.975843 -0.000107 -0.218475
vn -0.973137 -0.073591 -0.21815
vn -0.985168 -0.000105 0.171594
vn -0.982564 -0.073614 0.170731
vn -0.844489 -8e-05 0.535573
vn -0.842338 -0.073619 0.533898
vn -0.573723 -0.073604 0.815735
vn -0.575284 -3.3e-05 0.817954
vn -0.842069 0.073414 0.53435
vn -0.573731 0.073421 0.815746
vn -0.982439 0.073423 0.171531
vn -0.973267 0.073448 -0.217618
vn 0.975843 -0.000107 0.218474
vn 0.973137 -0.073591 0.218149
vn 0.815737 -0.073583 0.573724
vn 0.817954 -0.000129 0.575284
vn 0.985168 -0.000105 -0.171594
vn 0.982564 -0.073615 -0.170732
vn 0.844489 -7.9e-05 -0.535573
vn 0.842337 -0.07362 -0.533899
vn 0.573723 -0.073604 -0.815735
vn 0.575284 -3.3e-05 -0.817954
vn 0.842069 0.073413 -0.53435
vn 0.573731 0.073421 -0.815746
vn 0.982439 0.073423 -0.171531
vn 0.973267 0.073448 0.217618
vn 0.815744 0.073456 0.57373
vn 0.535538 -0.000106 0.844511
vn 0.534317 -0.073591 0.842074
vn 0.171593 -0.000105 0.985168
vn 0.171525 -0.073614 0.982426
vn -0.218515 -8e-05 0.975834
vn -0.217666 -0.073619 0.973243
vn -0.218182 0.073413 0.973143
vn 0.17073 0.073423 0.982578
vn 0.533861 0.073448 0.842376

g polySurface442_0
usemtl lowpoly_scifi_containers_pack1:Drum_S
f 1/1/1 2/2/2 3/3/3
f 1/1/1 3/3/3 4/4/4
f 5/5/5 1/1/1 4/4/4
f 5/5/5 4/4/4 6/6/6
f 7/7/7 5/5/5 6/6/6
f 7/7/7 6/6/6 8/8/8
f 9/9/9 10/10/10 7/7/7
f 9/9/9 7/7/7 8/8/8
f 11/11/11 12/12/12 13/13/13
f 11/11/11 13/13/13 14/14/14
f 15/15/15 16/16/16 17/17/17
f 15/15/15 17/17/17 18/18/18
f 19/19/19 15/15/15 18/18/18
f 19/19/19 18/18/18 20/20/20
f 11/11/11 19/19/19 20/20/20
f 11/11/11 20/20/20 12/12/12
f 3/3/3 13/13/13 12/12/12
f 3/3/3 12/12/12 4/4/4
f 8/8/8 18/18/18 17/17/17
f 8/8/8 17/17/17 9/9/9
f 6/6/6 20/20/20 18/18/18
f 6/6/6 18/18/18 8/8/8
f 4/4/4 12/12/12 20/20/20
f 4/4/4 20/20/20 6/6/6
f 21/21/21 22/22/22 23/23/23
f 21/21/21 23/23/23 24/24/24
f 25/25/25 26/26/26 22/22/22
f 25/25/25 22/22/22 21/21/21
f 27/27/27 28/28/28 26/26/26
f 27/27/27 26/26/26 25/25/25
f 9/9/9 28/28/28 27/27/27
f 9/9/9 27/27/27 10/10/10
f 29/29/29 30/30/30 31/31/31
f 29/29/29 31/31/31 32/32/32
f 33/33/33 34/34/34 17/17/17
f 33/33/33 17/17/17 16/16/16
f 35/35/35 36/36/36 34/34/34
f 35/35/35 34/34/34 33/33/33
f 29/29/29 32/32/32 36/36/36
f 29/29/29 36/36/36 35/35/35
f 23/23/23 22/22/22 32/32/32
f 23/23/23 32/32/32 31/31/31
f 28/28/28 9/9/9 17/17/17
f 28/28/28 17/17/17 34/34/34
f 26/26/26 28/28/28 34/34/34
f 26/26/26 34/34/34 36/36/36
f 22/22/22 26/26/26 36/36/36
f 22/22/22 36/36/36 32/32/32
f 37/37/37 38/38/38 39/39/39
f 37/37/37 39/39/39 40/40/40
f 41/41/41 42/42/42 38/38/38
f 41/41/41 38/38/38 37/37/37
f 43/43/43 44/44/44 42/42/42
f 43/43/43 42/42/42 41/41/41
f 45/45/45 44/44/44 43/43/43
f 45/45/45 43/43/43 46/46/46
f 47/47/47 48/48/48 49/49/49
f 47/47/47 49/49/49 50/50/50
f 51/51/51 52/52/52 53/53/53
f 51/51/51 53/53/53 54/54/54
f 55/55/55 56/56/56 52/52/52
f 55/55/55 52/52/52 51/51/51
f 47/47/47 50/50/50 56/56/56
f 47/47/47 56/56/56 55/55/55
f 39/39/39 38/38/38 50/50/50
f 39/39/39 50/50/50 49/49/49
f 44/44/44 45/45/45 53/53/53
f 44/44/44 53/53/53 52/52/52
f 42/42/42 44/44/44 52/52/52
f 42/42/42 52/52/52 56/56/56
f 38/38/38 42/42/42 56/56/56
f 38/38/38 56/56/56 50/50/50
f 57/57/57 24/24/24 23/23/23
f 57/57/57 23/23/23 58/58/58
f 59/59/59 57/57/57 58/58/58
f 59/59/59 58/58/58 60/60/60
f 61/61/61 59/59/59 60/60/60
f 61/61/61 60/60/60 62/62/62
f 45/45/45 46/46/46 61/61/61
f 45/45/45 61/61/61 62/62/62
f 63/63/63 64/64/64 31/31/31
f 63/63/63 31/31/31 30/30/30
f 65/65/65 54/54/54 53/53/53
f 65/65/65 53/53/53 66/66/66
f 67/67/67 65/65/65 66/66/66
f 67/67/67 66/66/66 68/68/68
f 63/63/63 67/67/67 68/68/68
f 63/63/63 68/68/68 64/64/64
f 23/23/23 31/31/31 64/64/64
f 23/23/23 64/64/64 58/58/58
f 62/62/62 66/66/66 53/53/53
f 62/62/62 53/53/53 45/45/45
f 60/60/60 68/68/68 66/66/66
f 60/60/60 66/66/66 62/62/62
f 58/58/58 64/64/64 68/68/68
f 58/58/58 68/68/68 60/60/60
f 69/69/69 70/70/70 71/71/71
f 69/69/69 71/71/71 72/72/72
f 73/73/73 69/69/69 72/72/72
f 73/73/73 72/72/72 74/74/74
f 75/75/75 73/73/73 74/74/74
f 75/75/75 74/74/74 76/76/76
f 77/77/77 78/78/78 75/75/75
f 77/77/77 75/75/75 76/76/76
f 79/79/79 80/80/80 81/81/81
f 79/79/79 81/81/81 82/82/82
f 83/83/83 84/84/84 85/85/85
f 83/83/83 85/85/85 86/86/86
f 87/87/87 83/83/83 86/86/86
f 87/87/87 86/86/86 88/88/88
f 79/79/79 87/87/87 88/88/88
f 79/79/79 88/88/88 80/80/80
f 71/71/71 81/81/81 80/80/80
f 71/71/71 80/80/80 72/72/72
f 76/76/76 86/86/86 85/85/85
f 76/76/76 85/85/85 77/77/77
f 74/74/74 88/88/88 86/86/86
f 74/74/74 86/86/86 76/76/76
f 72/72/72 80/80/80 88/88/88
f 72/72/72 88/88/88 74/74/74
f 89/89/89 90/90/90 91/91/91
f 89/89/89 91/91/91 92/92/92
f 93/93/93 94/94/94 90/90/90
f 93/93/93 90/90/90 89/89/89
f 95/95/95 96/96/96 94/94/94
f 95/95/95 94/94/94 93/93/93
f 77/77/77 96/96/96 95/95/95
f 77/77/77 95/95/95 78/78/78
f 97/97/97 98/98/98 99/99/99
f 97/97/97 99/99/99 100/100/100
f 101/101/101 102/102/102 85/85/85
f 101/101/101 85/85/85 84/84/84
f 103/103/103 104/104/104 102/102/102
f 103/103/103 102/102/102 101/101/101
f 97/97/97 100/100/100 104/104/104
f 97/97/97 104/104/104 103/103/103
f 91/91/91 90/90/90 100/100/100
f 91/91/91 100/100/100 99/99/99
f 96/96/96 77/77/77 85/85/85
f 96/96/96 85/85/85 102/102/102
f 94/94/94 96/96/96 102/102/102
f 94/94/94 102/102/102 104/104/104
f 90/90/90 94/94/94 104/104/104
f 90/90/90 104/104/104 100/100/100
f 105/105/105 106/106/106 107/107/107
f 105/105/105 107/107/107 108/108/108
f 109/109/109 110/110/110 106/106/106
f 109/109/109 106/106/106 105/105/105
f 111/111/111 112/112/112 110/110/110
f 111/111/111 110/110/110 109/109/109
f 113/113/113 112/112/112 111/111/111
f 113/113/113 111/111/111 114/114/114
f 115/115/115 116/116/116 117/117/117
f 115/115/115 117/117/117 118/118/118
f 119/119/119 120/120/120 121/121/121
f 119/119/119 121/121/121 122/122/122
f 123/123/123 124/124/124 120/120/120
f 123/123/123 120/120/120 119/119/119
f 115/115/115 118/118/118 124/124/124
f 115/115/115 124/124/124 123/123/123
f 107/107/107 106/106/106 118/118/118
f 107/107/107 118/118/118 117/117/117
f 112/112/112 113/113/113 121/121/121
f 112/112/112 121/121/121 120/120/120
f 110/110/110 112/112/112 120/120/120
f 110/110/110 120/120/120 124/124/124
f 106/106/106 110/110/110 124/124/124
f 106/106/106 124/124/124 118/118/118
f 125/125/125 92/92/92 91/91/91
f 125/125/125 91/91/91 126/126/126
f 127/127/127 125/125/125 126/126/126
f 127/127/127 126/126/126 128/128/128
f 129/129/129 127/127/127 128/128/128
f 129/129/129 128/128/128 130/130/130
f 113/113/113 114/114/114 129/129/129
f 113/113/113 129/129/129 130/130/130
f 131/131/131 132/132/132 99/99/99
f 131/131/131 99/99/99 98/98/98
f 133/133/133 122/122/122 121/121/121
f 133/133/133 121/121/121 134/134/134
f 135/135/135 133/133/133 134/134/134
f 135/135/135 134/134/134 136/136/136
f 131/131/131 135/135/135 136/136/136
f 131/131/131 136/136/136 132/132/132
f 91/91/91 99/99/99 132/132/132
f 91/91/91 132/132/132 126/126/126
f 130/130/130 134/134/134 121/121/121
f 130/130/130 121/121/121 113/113/113
f 128/128/128 136/136/136 134/134/134
f 128/128/128 134/134/134 130/130/130
f 126/126/126 132/132/132 136/136/136
f 126/126/126 136/136/136 128/128/128
f 137/137/137 138/138/138 139/139/139
f 137/137/137 139/139/139 140/140/140
f 138/138/138 141/141/141 142/142/142
f 138/138/138 142/142/142 139/139/139
f 143/143/143 144/144/144 145/145/145
f 143/143/143 145/145/145 146/146/146
f 144/144/144 147/147/147 148/148/148
f 144/144/144 148/148/148 145/145/145
f 149/149/149 150/150/150 151/151/151
f 149/149/149 151/151/151 152/152/152
f 153/153/153 154/154/154 155/155/155
f 153/153/153 155/155/155 156/156/156
f 156/156/156 155/155/155 157/157/157
f 156/156/156 157/157/157 158/158/158
f 158/158/158 157/157/157 148/148/148
f 158/158/158 148/148/148 147/147/147
f 137/137/137 140/140/140 159/159/159
f 137/137/137 159/159/159 160/160/160
f 161/161/161 162/162/162 163/163/163
f 161/161/161 163/163/163 164/164/164
f 164/164/164 163/163/163 165/165/165
f 164/164/164 165/165/165 166/166/166
f 166/166/166 165/165/165 167/167/167
f 166/166/166 167/167/167 168/168/168
f 149/149/149 169/169/169 170/170/170
f 149/149/149 170/170/170 150/150/150
f 169/169/169 171/171/171 172/172/172
f 169/169/169 172/172/172 170/170/170
f 173/173/173 174/174/174 175/175/175
f 173/173/173 175/175/175 176/176/176
f 174/174/174 168/168/168 167/167/167
f 174/174/174 167/167/167 175/175/175
f 172/172/172 171/171/171 173/173/173
f 172/172/172 173/173/173 176/176/176
f 152/152/152 151/151/151 154/154/154
f 152/152/152 154/154/154 153/153/153
f 142/142/142 141/141/141 143/143/143
f 142/142/142 143/143/143 146/146/146
f 160/160/160 159/159/159 162/162/162
f 160/160/160 162/162/162 161/161/161
f 177/177/177 178/178/178 179/179/179
f 177/177/177 179/179/179 180/180/180
f 181/181/181 177/177/177 180/180/180
f 181/181/181 180/180/180 182/182/182
f 183/183/183 184/184/184 185/185/185
f 183/183/183 185/185/185 186/186/186
f 186/186/186 187/187/187 178/178/178
f 186/186/186 178/178/178 183/183/183
f 188/188/188 189/189/189 190/190/190
f 188/188/188 190/190/190 191/191/191
f 181/181/181 182/182/182 189/189/189
f 181/181/181 189/189/189 188/188/188
f 192/192/192 193/193/193 194/194/194
f 192/192/192 194/194/194 195/195/195
f 193/193/193 192/192/192 191/191/191
f 193/193/193 191/191/191 196/196/196
f 197/197/197 198/198/198 199/199/199
f 197/197/197 199/199/199 200/200/200
f 201/201/201 197/197/197 200/200/200
f 201/201/201 200/200/200 202/202/202
f 203/203/203 204/204/204 205/205/205
f 203/203/203 205/205/205 206/206/206
f 204/204/204 207/207/207 208/208/208
f 204/204/204 208/208/208 205/205/205
f 209/209/209 210/210/210 211/211/211
f 209/209/209 211/211/211 212/212/212
f 213/213/213 214/214/214 215/215/215
f 213/213/213 215/215/215 216/216/216
f 217/217/217 218/218/218 219/219/219
f 214/214/214 203/203/203 209/209/209
f 214/214/214 209/209/209 198/198/198
f 198/198/198 209/209/209 212/212/212
f 198/198/198 212/212/212 199/199/199
f 209/209/209 203/203/203 206/206/206
f 209/209/209 206/206/206 210/210/210
f 214/214/214 198/198/198 215/215/215
f 220/220/220 221/221/221 222/222/222
f 220/220/220 222/222/222 223/223/223
f 201/201/201 202/202/202 221/221/221
f 201/201/201 221/221/221 220/220/220
f 224/224/224 225/225/225 226/226/226
f 224/224/224 226/226/226 227/227/227
f 227/227/227 226/226/226 208/208/208
f 227/227/227 208/208/208 207/207/207
f 228/228/228 229/229/229 230/230/230
f 228/228/228 230/230/230 231/231/231
f 232/232/232 233/233/233 234/234/234
f 232/232/232 234/234/234 235/235/235
f 228/228/228 224/224/224 235/235/235
f 228/228/228 235/235/235 223/223/223
f 236/236/236 237/237/237 238/238/238
f 223/223/223 222/222/222 229/229/229
f 223/223/223 229/229/229 228/228/228
f 228/228/228 231/231/231 225/225/225
f 228/228/228 225/225/225 224/224/224
f 235/235/235 234/234/234 223/223/223
f 239/239/239 240/240/240 241/241/241
f 239/239/239 241/241/241 242/242/242
f 243/243/243 244/244/244 240/240/240
f 243/243/243 240/240/240 239/239/239
f 245/245/245 246/246/246 247/247/247
f 245/245/245 247/247/247 248/248/248
f 248/248/248 247/247/247 249/249/249
f 248/248/248 249/249/249 250/250/250
f 251/251/251 252/252/252 253/253/253
f 251/251/251 253/253/253 254/254/254
f 255/255/255 256/256/256 257/257/257
f 255/255/255 257/257/257 258/258/258
f 251/251/251 245/245/245 258/258/258
f 251/251/251 258/258/258 242/242/242
f 259/259/259 245/245/245 260/260/260
f 242/242/242 241/241/241 252/252/252
f 242/242/242 252/252/252 251/251/251
f 251/251/251 254/254/254 246/246/246
f 251/251/251 246/246/246 245/245/245
f 258/258/258 257/257/257 242/242/242
f 261/261/261 262/262/262 263/263/263
f 261/261/261 263/263/263 264/264/264
f 243/243/243 261/261/261 264/264/264
f 243/243/243 264/264/264 244/244/244
f 265/265/265 266/266/266 267/267/267
f 265/265/265 267/267/267 268/268/268
f 266/266/266 250/250/250 249/249/249
f 266/266/266 249/249/249 267/267/267
f 269/269/269 270/270/270 271/271/271
f 269/269/269 271/271/271 272/272/272
f 232/232/232 273/273/273 274/274/274
f 232/232/232 274/274/274 233/233/233
f 275/275/275 276/276/276 277/277/277
f 273/273/273 265/265/265 269/269/269
f 273/273/273 269/269/269 262/262/262
f 262/262/262 269/269/269 272/272/272
f 262/262/262 272/272/272 263/263/263
f 278/278/278 265/265/265 279/279/279
f 278/278/278 279/279/279 280/280/280
f 273/273/273 262/262/262 274/274/274
f 281/281/281 282/282/282 283/283/283
f 281/281/281 283/283/283 284/284/284
f 285/285/285 281/281/281 284/284/284
f 285/285/285 284/284/284 286/286/286
f 287/287/287 285/285/285 286/286/286
f 287/287/287 286/286/286 288/288/288
f 289/289/289 287/287/287 288/288/288
f 289/289/289 288/288/288 290/290/290
f 282/282/282 281/281/281 291/291/291
f 282/282/282 291/291/291 292/292/292
f 281/281/281 285/285/285 293/293/293
f 281/281/281 293/293/293 291/291/291
f 285/285/285 287/287/287 294/294/294
f 285/285/285 294/294/294 293/293/293
f 287/287/287 289/289/289 295/295/295
f 287/287/287 295/295/295 294/294/294
f 296/296/296 297/297/297 298/298/298
f 296/296/296 298/298/298 299/299/299
f 300/300/300 301/301/301 297/297/297
f 300/300/300 297/297/297 296/296/296
f 302/302/302 303/303/303 301/301/301
f 302/302/302 301/301/301 300/300/300
f 289/289/289 290/290/290 303/303/303
f 289/289/289 303/303/303 302/302/302
f 299/299/299 304/304/304 305/305/305
f 299/299/299 305/305/305 296/296/296
f 296/296/296 305/305/305 306/306/306
f 296/296/296 306/306/306 300/300/300
f 300/300/300 306/306/306 307/307/307
f 300/300/300 307/307/307 302/302/302
f 302/302/302 307/307/307 295/295/295
f 302/302/302 295/295/295 289/289/289
f 308/308/308 309/309/309 310/310/310
f 308/308/308 310/310/310 311/311/311
f 312/312/312 313/313/313 309/309/309
f 312/312/312 309/309/309 308/308/308
f 314/314/314 315/315/315 313/313/313
f 314/314/314 313/313/313 312/312/312
f 316/316/316 317/317/317 315/315/315
f 316/316/316 315/315/315 314/314/314
f 311/311/311 318/318/318 319/319/319
f 311/311/311 319/319/319 308/308/308
f 308/308/308 319/319/319 320/320/320
f 308/308/308 320/320/320 312/312/312
f 312/312/312 320/320/320 321/321/321
f 312/312/312 321/321/321 314/314/314
f 314/314/314 321/321/321 322/322/322
f 314/314/314 322/322/322 316/316/316
f 323/323/323 299/299/299 298/298/298
f 323/323/323 298/298/298 324/324/324
f 325/325/325 323/323/323 324/324/324
f 325/325/325 324/324/324 326/326/326
f 327/327/327 325/325/325 326/326/326
f 327/327/327 326/326/326 328/328/328
f 316/316/316 327/327/327 328/328/328
f 316/316/316 328/328/328 317/317/317
f 299/299/299 323/323/323 329/329/329
f 299/299/299 329/329/329 304/304/304
f 323/323/323 325/325/325 330/330/330
f 323/323/323 330/330/330 329/329/329
f 325/325/325 327/327/327 331/331/331
f 325/325/325 331/331/331 330/330/330
f 327/327/327 316/316/316 322/322/322
f 327/327/327 322/322/322 331/331/331
f 332/332/332 333/333/333 334/334/334
f 332/332/332 334/334/334 335/335/335
f 336/336/336 332/332/332 335/335/335
f 336/336/336 335/335/335 337/337/337
f 338/338/338 339/339/339 340/340/340
f 338/338/338 340/340/340 341/341/341
f 339/339/339 342/342/342 343/343/343
f 339/339/339 343/343/343 340/340/340
f 344/344/344 345/345/345 346/346/346
f 344/344/344 346/346/346 347/347/347
f 344/344/344 333/333/333 348/348/348
f 344/344/344 348/348/348 349/349/349
f 350/350/350 351/351/351 352/352/352
f 333/333/333 344/344/344 347/347/347
f 333/333/333 347/347/347 334/334/334
f 344/344/344 338/338/338 341/341/341
f 344/344/344 341/341/341 345/345/345
f 353/353/353 349/349/349 348/348/348
f 353/353/353 348/348/348 354/354/354
f 344/344/344 349/349/349 338/338/338
f 355/355/355 356/356/356 357/357/357
f 355/355/355 357/357/357 358/358/358
f 336/336/336 337/337/337 356/356/356
f 336/336/336 356/356/356 355/355/355
f 359/359/359 360/360/360 361/361/361
f 359/359/359 361/361/361 362/362/362
f 362/362/362 361/361/361 343/343/343
f 362/362/362 343/343/343 342/342/342
f 363/363/363 364/364/364 365/365/365
f 363/363/363 365/365/365 366/366/366
f 367/367/367 368/368/368 358/358/358
f 367/367/367 358/358/358 363/363/363
f 358/358/358 357/357/357 364/364/364
f 358/358/358 364/364/364 363/363/363
f 363/363/363 366/366/366 360/360/360
f 363/363/363 360/360/360 359/359/359
f 369/369/369 370/370/370 367/367/367
f 369/369/369 367/367/367 371/371/371
f 363/363/363 359/359/359 371/371/371
f 363/363/363 371/371/371 367/367/367
f 372/372/372 373/373/373 374/374/374
f 372/372/372 374/374/374 375/375/375
f 376/376/376 377/377/377 373/373/373
f 376/376/376 373/373/373 372/372/372
f 378/378/378 379/379/379 380/380/380
f 378/378/378 380/380/380 381/381/381
f 381/381/381 380/380/380 382/382/382
f 381/381/381 382/382/382 383/383/383
f 384/384/384 385/385/385 386/386/386
f 384/384/384 386/386/386 387/387/387
f 388/388/388 389/389/389 390/390/390
f 391/391/391 375/375/375 384/384/384
f 391/391/391 384/384/384 392/392/392
f 375/375/375 374/374/374 385/385/385
f 375/375/375 385/385/385 384/384/384
f 384/384/384 387/387/387 379/379/379
f 384/384/384 379/379/379 378/378/378
f 393/393/393 394/394/394 391/391/391
f 393/393/393 391/391/391 392/392/392
f 384/384/384 378/378/378 392/392/392
f 395/395/395 396/396/396 397/397/397
f 395/395/395 397/397/397 398/398/398
f 376/376/376 395/395/395 398/398/398
f 376/376/376 398/398/398 377/377/377
f 399/399/399 400/400/400 401/401/401
f 399/399/399 401/401/401 402/402/402
f 400/400/400 383/383/383 382/382/382
f 400/400/400 382/382/382 401/401/401
f 403/403/403 404/404/404 405/405/405
f 403/403/403 405/405/405 406/406/406
f 403/403/403 396/396/396 407/407/407
f 403/403/403 407/407/407 408/408/408
f 409/409/409 410/410/410 411/411/411
f 396/396/396 403/403/403 406/406/406
f 396/396/396 406/406/406 397/397/397
f 403/403/403 399/399/399 402/402/402
f 403/403/403 402/402/402 404/404/404
f 369/369/369 408/408/408 407/407/407
f 369/369/369 407/407/407 370/370/370
f 403/403/403 408/408/408 399/399/399
f 412/412/412 413/413/413 414/414/414
f 412/412/412 414/414/414 415/415/415
f 415/415/415 414/414/414 416/416/416
f 415/415/415 416/416/416 417/417/417
f 418/418/418 412/412/412 419/419/419
f 418/418/418 419/419/419 420/420/420
f 421/421/421 420/420/420 419/419/419
f 421/421/421 419/419/419 422/422/422
f 423/423/423 424/424/424 425/425/425
f 423/423/423 425/425/425 426/426/426
f 424/424/424 417/417/417 416/416/416
f 424/424/424 416/416/416 425/425/425
f 427/427/427 428/428/428 429/429/429
f 427/427/427 429/429/429 423/423/423
f 430/430/430 431/431/431 429/429/429
f 430/430/430 429/429/429 428/428/428
f 432/432/432 433/433/433 434/434/434
f 432/432/432 434/434/434 435/435/435
f 432/432/432 435/435/435 436/436/436
f 432/432/432 436/436/436 437/437/437
f 432/432/432 437/437/437 438/438/438
f 432/432/432 438/438/438 439/439/439
f 432/432/432 439/439/439 440/440/440
f 432/432/432 440/440/440 441/441/441
f 432/432/432 441/441/441 442/442/442
f 432/432/432 442/442/442 433/433/433
f 443/443/443 444/444/444 445/445/445
f 443/443/443 445/445/445 446/446/446
f 447/447/447 448/448/448 449/449/449
f 447/447/447 449/449/449 450/450/450
f 451/451/451 447/447/447 450/450/450
f 451/451/451 450/450/450 452/452/452
f 444/444/444 451/451/451 452/452/452
f 444/444/444 452/452/452 445/445/445
f 444/444/444 443/443/443 453/453/453
f 444/444/444 453/453/453 454/454/454
f 448/448/448 447/447/447 455/455/455
f 448/448/448 455/455/455 456/456/456
f 447/447/447 451/451/451 457/457/457
f 447/447/447 457/457/457 455/455/455
f 451/451/451 444/444/444 454/454/454
f 451/451/451 454/454/454 457/457/457
f 458/458/458 459/459/459 460/460/460
f 458/458/458 460/460/460 461/461/461
f 462/462/462 463/463/463 449/449/449
f 462/462/462 449/449/449 448/448/448
f 464/464/464 465/465/465 463/463/463
f 464/464/464 463/463/463 462/462/462
f 461/461/461 460/460/460 465/465/465
f 461/461/461 465/465/465 464/464/464
f 461/461/461 466/466/466 467/467/467
f 461/461/461 467/467/467 458/458/458
f 448/448/448 456/456/456 468/468/468
f 448/448/448 468/468/468 462/462/462
f 462/462/462 468/468/468 469/469/469
f 462/462/462 469/469/469 464/464/464
f 464/464/464 469/469/469 466/466/466
f 464/464/464 466/466/466 461/461/461
f 470/470/470 471/471/471 472/472/472
f 470/470/470 472/472/472 473/473/473
f 474/474/474 475/475/475 476/476/476
f 474/474/474 476/476/476 477/477/477
f 478/478/478 479/479/479 475/475/475
f 478/478/478 475/475/475 474/474/474
f 473/473/473 472/472/472 479/479/479
f 473/473/473 479/479/479 478/478/478
f 473/473/473 480/480/480 481/481/481
f 473/473/473 481/481/481 470/470/470
f 477/477/477 482/482/482 483/483/483
f 477/477/477 483/483/483 474/474/474
f 474/474/474 483/483/483 484/484/484
f 474/474/474 484/484/484 478/478/478
f 478/478/478 484/484/484 480/480/480
f 478/478/478 480/480/480 473/473/473
f 458/458/458 485/485/485 486/486/486
f 458/458/458 486/486/486 459/459/459
f 487/487/487 477/477/477 476/476/476
f 487/487/487 476/476/476 488/488/488
f 489/489/489 487/487/487 488/488/488
f 489/489/489 488/488/488 490/490/490
f 485/485/485 489/489/489 490/490/490
f 485/485/485 490/490/490 486/486/486
f 485/485/485 458/458/458 467/467/467
f 485/485/485 467/467/467 491/491/491
f 477/477/477 487/487/487 492/492/492
f 477/477/477 492/492/492 482/482/482
f 487/487/487 489/489/489 493/493/493
f 487/487/487 493/493/493 492/492/492
f 489/489/489 485/485/485 491/491/491
f 489/489/489 491/491/491 493/493/493
f 494/494/494 495/495/495 496/496/496
f 494/494/494 496/496/496 497/497/497
f 495/495/495 498/498/498 499/499/499
f 495/495/495 499/499/499 496/496/496
f 498/498/498 500/500/500 501/501/501
f 498/498/498 501/501/501 499/499/499
f 500/500/500 502/502/502 503/503/503
f 500/500/500 503/503/503 501/501/501
f 504/504/504 505/505/505 495/495/495
f 504/504/504 495/495/495 494/494/494
f 505/505/505 506/506/506 498/498/498
f 505/505/505 498/498/498 495/495/495
f 506/506/506 507/507/507 500/500/500
f 506/506/506 500/500/500 498/498/498
f 507/507/507 508/508/508 502/502/502
f 507/507/507 502/502/502 500/500/500
f 509/509/509 510/510/510 511/511/511
f 509/509/509 511/511/511 512/512/512
f 512/512/512 511/511/511 513/513/513
f 512/512/512 513/513/513 514/514/514
f 514/514/514 513/513/513 515/515/515
f 514/514/514 515/515/515 516/516/516
f 516/516/516 515/515/515 503/503/503
f 516/516/516 503/503/503 502/502/502
f 517/517/517 509/509/509 512/512/512
f 517/517/517 512/512/512 518/518/518
f 518/518/518 512/512/512 514/514/514
f 518/518/518 514/514/514 519/519/519
f 519/519/519 514/514/514 516/516/516
f 519/519/519 516/516/516 520/520/520
f 520/520/520 516/516/516 502/502/502
f 520/520/520 502/502/502 508/508/508
f 494/494/494 497/497/497 521/521/521
f 494/494/494 521/521/521 522/522/522
f 522/522/522 521/521/521 523/523/523
f 522/522/522 523/523/523 524/524/524
f 524/524/524 523/523/523 525/525/525
f 524/524/524 525/525/525 526/526/526
f 526/526/526 525/525/525 527/527/527
f 526/526/526 527/527/527 528/528/528
f 504/504/504 494/494/494 522/522/522
f 504/504/504 522/522/522 529/529/529
f 529/529/529 522/522/522 524/524/524
f 529/529/529 524/524/524 530/530/530
f 530/530/530 524/524/524 526/526/526
f 530/530/530 526/526/526 531/531/531
f 531/531/531 526/526/526 528/528/528
f 531/531/531 528/528/528 532/532/532
f 509/509/509 533/533/533 534/534/534
f 509/509/509 534/534/534 510/510/510
f 533/533/533 535/535/535 536/536/536
f 533/533/533 536/536/536 534/534/534
f 535/535/535 537/537/537 538/538/538
f 535/535/535 538/538/538 536/536/536
f 537/537/537 528/528/528 527/527/527
f 537/537/537 527/527/527 538/538/538
f 517/517/517 539/539/539 533/533/533
f 517/517/517 533/533/533 509/509/509
f 539/539/539 540/540/540 535/535/535
f 539/539/539 535/535/535 533/533/533
f 540/540/540 541/541/541 537/537/537
f 540/540/540 537/537/537 535/535/535
f 541/541/541 532/532/532 528/528/528
f 541/541/541 528/528/528 537/537/537
f 542/542/542 543/543/543 544/544/544
f 542/542/542 544/544/544 545/545/545
f 543/543/543 546/546/546 547/547/547
f 543/543/543 547/547/547 544/544/544
f 546/546/546 548/548/548 549/549/549
f 546/546/546 549/549/549 547/547/547
f 548/548/548 550/550/550 551/551/551
f 548/548/548 551/551/551 549/549/549
f 550/550/550 552/552/552 553/553/553
f 550/550/550 553/553/553 551/551/551
f 552/552/552 554/554/554 555/555/555
f 552/552/552 555/555/555 553/553/553
f 554/554/554 556/556/556 557/557/557
f 554/554/554 557/557/557 555/555/555
f 556/556/556 558/558/558 559/559/559
f 556/556/556 559/559/559 557/557/557
f 558/558/558 560/560/560 561/561/561
f 558/558/558 561/561/561 559/559/559
f 560/560/560 542/542/542 545/545/545
f 560/560/560 545/545/545 561/561/561
f 562/562/562 563/563/563 564/564/564
f 562/562/562 564/564/564 565/565/565
f 563/563/563 566/566/566 567/567/567
f 563/563/563 567/567/567 564/564/564
f 566/566/566 568/568/568 569/569/569
f 566/566/566 569/569/569 567/567/567
f 568/568/568 570/570/570 571/571/571
f 568/568/568 571/571/571 569/569/569
f 570/570/570 572/572/572 573/573/573
f 570/570/570 573/573/573 571/571/571
f 572/572/572 574/574/574 575/575/575
f 572/572/572 575/575/575 573/573/573
f 574/574/574 576/576/576 577/577/577
f 574/574/574 577/577/577 575/575/575
f 576/576/576 578/578/578 579/579/579
f 576/576/576 579/579/579 577/577/577
f 578/578/578 580/580/580 581/581/581
f 578/578/578 581/581/581 579/579/579
f 580/580/580 562/562/562 565/565/565
f 580/580/580 565/565/565 581/581/581
f 582/582/582 583/583/583 584/584/584
f 582/582/582 584/584/584 585/585/585
f 586/586/586 587/587/587 588/588/588
f 586/586/586 588/588/588 589/589/589
f 587/587/587 590/590/590 591/591/591
f 587/587/587 591/591/591 588/588/588
f 590/590/590 582/582/582 585/585/585
f 590/590/590 585/585/585 591/591/591
f 585/585/585 584/584/584 592/592/592
f 585/585/585 592/592/592 593/593/593
f 589/589/589 588/588/588 594/594/594
f 589/589/589 594/594/594 595/595/595
f 588/588/588 591/591/591 596/596/596
f 588/588/588 596/596/596 594/594/594
f 591/591/591 585/585/585 593/593/593
f 591/591/591 593/593/593 596/596/596
f 597/597/597 598/598/598 599/599/599
f 597/597/597 599/599/599 600/600/600
f 586/586/586 589/589/589 601/601/601
f 586/586/586 601/601/601 602/602/602
f 602/602/602 601/601/601 603/603/603
f 602/602/602 603/603/603 604/604/604
f 604/604/604 603/603/603 598/598/598
f 604/604/604 598/598/598 597/597/597
f 598/598/598 605/605/605 606/606/606
f 598/598/598 606/606/606 599/599/599
f 589/589/589 595/595/595 607/607/607
f 589/589/589 607/607/607 601/601/601
f 601/601/601 607/607/607 608/608/608
f 601/601/601 608/608/608 603/603/603
f 603/603/603 608/608/608 605/605/605
f 603/603/603 605/605/605 598/598/598
f 609/609/609 610/610/610 584/584/584
f 609/609/609 584/584/584 583/583/583
f 611/611/611 612/612/612 613/613/613
f 611/611/611 613/613/613 614/614/614
f 614/614/614 613/613/613 615/615/615
f 614/614/614 615/615/615 616/616/616
f 616/616/616 615/615/615 610/610/610
f 616/616/616 610/610/610 609/609/609
f 610/610/610 617/617/617 592/592/592
f 610/610/610 592/592/592 584/584/584
f 612/612/612 618/618/618 619/619/619
f 612/612/612 619/619/619 613/613/613
f 613/613/613 619/619/619 620/620/620
f 613/613/613 620/620/620 615/615/615
f 615/615/615 620/620/620 617/617/617
f 615/615/615 617/617/617 610/610/610
f 621/621/621 600/600/600 599/599/599
f 621/621/621 599/599/599 622/622/622
f 611/611/611 623/623/623 624/624/624
f 611/611/611 624/624/624 612/612/612
f 623/623/623 625/625/625 626/626/626
f 623/623/623 626/626/626 624/624/624
f 625/625/625 621/621/621 622/622/622
f 625/625/625 622/622/622 626/626/626
f 622/622/622 599/599/599 606/606/606
f 622/622/622 606/606/606 627/627/627
f 612/612/612 624/624/624 628/628/628
f 612/612/612 628/628/628 618/618/618
f 624/624/624 626/626/626 629/629/629
f 624/624/624 629/629/629 628/628/628
f 626/626/626 622/622/622 627/627/627
f 626/626/626 627/627/627 629/629/629
f 630/630/630 593/593/593 592/592/592
f 630/630/630 592/592/592 617/617/617
f 630/630/630 594/594/594 596/596/596
f 630/630/630 596/596/596 593/593/593
f 630/630/630 607/607/607 595/595/595
f 630/630/630 595/595/595 594/594/594
f 630/630/630 605/605/605 608/608/608
f 630/630/630 608/608/608 607/607/607
f 630/630/630 619/619/619 618/618/618
f 630/630/630 618/618/618 628/628/628
f 630/630/630 617/617/617 620/620/620
f 630/630/630 620/620/620 619/619/619
f 630/630/630 627/627/627 606/606/606
f 630/630/630 606/606/606 605/605/605
f 630/630/630 628/628/628 629/629/629
f 630/630/630 629/629/629 627/627/627
f 631/631/631 632/632/632 633/633/633
f 631/631/631 633/633/633 634/634/634
f 632/632/632 635/635/635 636/636/636
f 632/632/632 636/636/636 633/633/633
f 635/635/635 637/637/637 638/638/638
f 635/635/635 638/638/638 636/636/636
f 637/637/637 639/639/639 640/640/640
f 637/637/637 640/640/640 638/638/638
f 641/641/641 642/642/642 643/643/643
f 641/641/641 643/643/643 644/644/644
f 642/642/642 645/645/645 646/646/646
f 642/642/642 646/646/646 643/643/643
f 645/645/645 647/647/647 648/648/648
f 645/645/645 648/648/648 646/646/646
f 647/647/647 649/649/649 650/650/650
f 647/647/647 650/650/650 648/648/648
f 649/649/649 651/651/651 652/652/652
f 649/649/649 652/652/652 650/650/650
f 651/651/651 631/631/631 634/634/634
f 651/651/651 634/634/634 652/652/652
f 653/653/653 654/654/654 655/655/655
f 653/653/653 655/655/655 656/656/656
f 657/657/657 658/658/658 654/654/654
f 657/657/657 654/654/654 653/653/653
f 659/659/659 660/660/660 661/661/661
f 659/659/659 661/661/661 662/662/662
f 660/660/660 659/659/659 663/663/663
f 660/660/660 663/663/663 655/655/655
f 664/664/664 665/665/665 666/666/666
f 664/664/664 666/666/666 667/667/667
f 657/657/657 664/664/664 667/667/667
f 657/657/657 667/667/667 658/658/658
f 668/668/668 669/669/669 670/670/670
f 668/668/668 670/670/670 671/671/671
f 671/671/671 672/672/672 665/665/665
f 671/671/671 665/665/665 668/668/668
f 673/673/673 674/674/674 675/675/675
f 673/673/673 675/675/675 676/676/676
f 674/674/674 677/677/677 678/678/678
f 674/674/674 678/678/678 675/675/675
f 677/677/677 679/679/679 680/680/680
f 677/677/677 680/680/680 678/678/678
f 679/679/679 681/681/681 682/682/682
f 679/679/679 682/682/682 680/680/680
f 683/683/683 684/684/684 685/685/685
f 683/683/683 685/685/685 686/686/686
f 684/684/684 687/687/687 688/688/688
f 684/684/684 688/688/688 685/685/685
f 687/687/687 689/689/689 690/690/690
f 687/687/687 690/690/690 688/688/688
f 689/689/689 691/691/691 692/692/692
f 689/689/689 692/692/692 690/690/690
f 691/691/691 693/693/693 694/694/694
f 691/691/691 694/694/694 692/692/692
f 693/693/693 673/673/673 676/676/676
f 693/693/693 676/676/676 694/694/694
f 695/695/695 696/696/696 697/697/697
f 695/695/695 697/697/697 698/698/698
f 696/696/696 699/699/699 700/700/700
f 696/696/696 700/700/700 697/697/697
f 699/699/699 701/701/701 702/702/702
f 699/699/699 702/702/702 700/700/700
f 701/701/701 703/703/703 704/704/704
f 701/701/701 704/704/704 702/702/702
f 705/705/705 706/706/706 707/707/707
f 705/705/705 707/707/707 708/708/708
f 706/706/706 709/709/709 710/710/710
f 706/706/706 710/710/710 707/707/707
f 709/709/709 711/711/711 712/712/712
f 709/709/709 712/712/712 710/710/710
f 711/711/711 713/713/713 714/714/714
f 711/711/711 714/714/714 712/712/712
f 713/713/713 715/715/715 716/716/716
f 713/713/713 716/716/716 714/714/714
f 715/715/715 695/695/695 698/698/698
f 715/715/715 698/698/698 716/716/716
f 717/717/717 718/718/718 719/719/719
f 717/717/717 719/719/719 720/720/720
f 718/718/718 721/721/721 722/722/722
f 718/718/718 722/722/722 719/719/719
f 723/723/723 724/724/724 725/725/725
f 723/723/723 725/725/725 717/717/717
f 726/726/726 727/727/727 725/725/725
f 726/726/726 725/725/725 724/724/724
f 728/728/728 729/729/729 730/730/730
f 728/728/728 730/730/730 731/731/731
f 731/731/731 730/730/730 722/722/722
f 731/731/731 722/722/722 721/721/721
f 732/732/732 728/728/728 733/733/733
f 732/732/732 733/733/733 734/734/734
f 735/735/735 734/734/734 733/733/733
f 735/735/735 733/733/733 736/736/736
f 737/737/737 738/738/738 739/739/739
f 737/737/737 739/739/739 740/740/740
f 741/741/741 737/737/737 740/740/740
f 741/741/741 740/740/740 742/742/742
f 743/743/743 741/741/741 742/742/742
f 743/743/743 742/742/742 744/744/744
f 745/745/745 746/746/746 743/743/743
f 745/745/745 743/743/743 744/744/744
f 743/743/743 746/746/746 747/747/747
f 743/743/743 747/747/747 748/748/748
f 741/741/741 743/743/743 748/748/748
f 741/741/741 748/748/748 749/749/749
f 737/737/737 741/741/741 749/749/749
f 737/737/737 749/749/749 750/750/750
f 738/738/738 737/737/737 750/750/750
f 738/738/738 750/750/750 751/751/751
f 752/752/752 753/753/753 739/739/739
f 752/752/752 739/739/739 738/738/738
f 754/754/754 755/755/755 753/753/753
f 754/754/754 753/753/753 752/752/752
f 756/756/756 757/757/757 755/755/755
f 756/756/756 755/755/755 754/754/754
f 758/758/758 757/757/757 756/756/756
f 758/758/758 756/756/756 759/759/759
f 756/756/756 760/760/760 761/761/761
f 756/756/756 761/761/761 759/759/759
f 754/754/754 762/762/762 760/760/760
f 754/754/754 760/760/760 756/756/756
f 752/752/752 763/763/763 762/762/762
f 752/752/752 762/762/762 754/754/754
f 738/738/738 751/751/751 763/763/763
f 738/738/738 763/763/763 752/752/752
f 764/764/764 765/765/765 766/766/766
f 764/764/764 766/766/766 767/767/767
f 768/768/768 769/769/769 765/765/765
f 768/768/768 765/765/765 764/764/764
f 770/770/770 771/771/771 769/769/769
f 770/770/770 769/769/769 768/768/768
f 772/772/772 771/771/771 770/770/770
f 772/772/772 770/770/770 773/773/773
f 770/770/770 774/774/774 775/775/775
f 770/770/770 775/775/775 773/773/773
f 768/768/768 776/776/776 774/774/774
f 768/768/768 774/774/774 770/770/770
f 764/764/764 777/777/777 776/776/776
f 764/764/764 776/776/776 768/768/768
f 767/767/767 778/778/778 777/777/777
f 767/767/767 777/777/777 764/764/764
f 779/779/779 767/767/767 766/766/766
f 779/779/779 766/766/766 780/780/780
f 781/781/781 779/779/779 780/780/780
f 781/781/781 780/780/780 782/782/782
f 783/783/783 781/781/781 782/782/782
f 783/783/783 782/782/782 784/784/784
f 758/758/758 759/759/759 783/783/783
f 758/758/758 783/783/783 784/784/784
f 783/783/783 759/759/759 761/761/761
f 783/783/783 761/761/761 785/785/785
f 781/781/781 783/783/783 785/785/785
f 781/781/781 785/785/785 786/786/786
f 779/779/779 781/781/781 786/786/786
f 779/779/779 786/786/786 787/787/787
f 767/767/767 779/779/779 787/787/787
f 767/767/767 787/787/787 778/778/778
