# Exported by Gskelview
mtllib canister_1.mtl

v 3.5857 3.29972 -9.65325
v 7.93323 3.29972 -6.56726
v 7.55147 1.54509 -6.25082
v 3.4129 1.54509 -9.18815
v 10.1553 3.29972 -1.72097
v 9.66611 1.54509 -1.63792
v 10.1553 3.29972 -1.72097
v 9.65691 3.29972 3.58717
v 9.19144 1.54509 3.41448
v 9.66611 1.54509 -1.63792
v 6.57082 3.29972 7.93477
v 6.25438 1.54509 7.55266
v 1.72432 3.29972 10.1569
v 1.6417 1.54509 9.66779
v -3.58387 3.29972 9.65818
v -3.41108 1.54509 9.19307
v -7.93142 3.29972 6.57224
v -7.5491 1.54509 6.2558
v -10.1535 3.29972 1.7259
v -9.66427 1.54509 1.6429
v -9.65457 3.29972 -3.58219
v -9.18963 1.54509 -3.40955
v -6.56846 3.29972 -7.92979
v -6.25201 1.54509 -7.54773
v -1.7225 3.29972 -10.1519
v -1.63934 1.54509 -9.66286
v 6.66262 0 -5.5149
v 3.01168 0 -8.10658
v 8.52886 0 -1.44487
v 8.11037 0 3.01299
v 8.52886 0 -1.44487
v 5.51836 0 6.66415
v 1.44838 0 8.53039
v -3.00932 0 8.11156
v -6.66079 0 5.51989
v -8.52704 0 1.44985
v -8.108 0 -3.00801
v -5.51654 0 -6.65922
v -1.44656 0 -8.52541
v -4.34852 46.1821 -5.24939
v -6.39189 46.1821 -2.37092
v -6.39189 45.0654 -2.37092
v -4.34852 45.0654 -5.24939
v -6.72183 46.1821 1.14351
v -6.72183 45.0654 1.14351
v -5.25087 46.1821 4.35224
v -5.25087 45.0654 4.35224
v -2.37213 46.1821 6.39539
v -2.37213 45.0654 6.39539
v 1.1422 46.1821 6.7256
v 1.1422 45.0654 6.7256
v 4.35088 46.1821 5.25431
v 4.35088 45.0654 5.25431
v 6.39371 46.1821 2.37585
v 6.39371 45.0654 2.37585
v 6.72418 46.1821 -1.13858
v 6.72418 45.0654 -1.13858
v 6.72418 46.1821 -1.13858
v 5.25267 46.1821 -4.34726
v 5.25267 45.0654 -4.34726
v 6.72418 45.0654 -1.13858
v 2.37448 46.1821 -6.39046
v 2.37448 45.0654 -6.39046
v -1.13984 46.1821 -6.72062
v -1.13984 45.0654 -6.72062
v -4.34852 45.0654 -5.24939
v -6.39189 45.0654 -2.37092
v -2.24252 45.0654 -0.830407
v -1.5254 45.0654 -1.84053
v -6.72183 45.0654 1.14351
v -2.35807 45.0654 0.4029
v -5.25087 45.0654 4.35224
v -1.84184 45.0654 1.52891
v -2.37213 45.0654 6.39539
v -0.832044 45.0654 2.24592
v 1.1422 45.0654 6.7256
v 0.401324 45.0654 2.3618
v 4.35088 45.0654 5.25431
v 1.52776 45.0654 1.84551
v 6.39371 45.0654 2.37585
v 2.24434 45.0654 0.83533
v 6.72418 45.0654 -1.13858
v 2.36045 45.0654 -0.397977
v 5.25267 45.0654 -4.34726
v 1.84421 45.0654 -1.52398
v 2.37448 45.0654 -6.39046
v 0.833865 45.0654 -2.24094
v -1.13984 45.0654 -6.72062
v -0.399503 45.0654 -2.35682
v -5.51654 42.2532 -6.65922
v -8.108 42.2532 -3.00801
v -7.42004 42.2532 -2.75264
v -5.04835 42.2532 -6.09416
v -8.52704 42.2532 1.44985
v -7.80345 42.2532 1.32711
v -6.66079 42.2532 5.51989
v -6.09543 42.2532 5.05192
v -3.00932 42.2532 8.11156
v -2.75389 42.2532 7.42371
v 1.44838 42.2532 8.53039
v 1.32579 42.2532 7.80706
v 5.51836 42.2532 6.66415
v 5.05072 42.2532 6.09914
v 8.11037 42.2532 3.01299
v 7.4224 42.2532 2.75763
v 8.52886 42.2532 -1.44487
v 7.8058 42.2532 -1.32213
v 6.66262 42.2532 -5.5149
v 6.09778 42.2532 -5.04694
v 3.01168 42.2532 -8.10658
v 2.75626 42.2532 -7.41878
v -1.44656 42.2532 -8.52541
v -1.32344 42.2532 -7.80207
v -5.04835 45.3233 -6.09416
v -7.42004 45.3233 -2.75264
v -7.42004 46.1821 -2.75264
v -5.04835 46.1821 -6.09416
v -7.80345 45.3233 1.32711
v -7.80345 46.1821 1.32711
v -6.09543 45.3233 5.05192
v -6.09543 46.1821 5.05192
v -2.75389 45.3233 7.42371
v -2.75389 46.1821 7.42371
v 1.32579 45.3233 7.80706
v 1.32579 46.1821 7.80706
v 5.05072 45.3233 6.09914
v 5.05072 46.1821 6.09914
v 7.4224 45.3233 2.75763
v 7.4224 46.1821 2.75763
v 7.8058 45.3233 -1.32213
v 7.8058 46.1821 -1.32213
v 7.8058 45.3233 -1.32213
v 6.09778 45.3233 -5.04694
v 6.09778 46.1821 -5.04694
v 7.8058 46.1821 -1.32213
v 2.75626 45.3233 -7.41878
v 2.75626 46.1821 -7.41878
v -1.32344 45.3233 -7.80207
v -1.32344 46.1821 -7.80207
v -5.04835 46.1821 -6.09416
v -7.42004 46.1821 -2.75264
v -6.39189 46.1821 -2.37092
v -4.34852 46.1821 -5.24939
v -7.80345 46.1821 1.32711
v -6.72183 46.1821 1.14351
v -6.09543 46.1821 5.05192
v -5.25087 46.1821 4.35224
v -2.75389 46.1821 7.42371
v -2.37213 46.1821 6.39539
v 1.32579 46.1821 7.80706
v 1.1422 46.1821 6.7256
v 5.05072 46.1821 6.09914
v 4.35088 46.1821 5.25431
v 7.4224 46.1821 2.75763
v 6.39371 46.1821 2.37585
v 7.8058 46.1821 -1.32213
v 6.72418 46.1821 -1.13858
v 6.09778 46.1821 -5.04694
v 5.25267 46.1821 -4.34726
v 2.75626 46.1821 -7.41878
v 2.37448 46.1821 -6.39046
v -1.32344 46.1821 -7.80207
v -1.13984 46.1821 -6.72062
v 3.76714 0.867953 -3.1165
v 4.82175 0.867953 -0.815716
v 0.001178 0.867953 0.00249
v 1.70272 0.867953 -4.58157
v 4.58524 0.867953 1.7043
v 3.12023 0.867953 3.76834
v 0.819278 0.867953 4.82328
v -1.7009 0.867953 4.58655
v -3.76478 0.867953 3.12147
v -4.81993 0.867953 0.820697
v -4.58287 0.867953 -1.69937
v -3.11786 0.867953 -3.76336
v -0.816922 0.867953 -4.81836
v 6.66262 0 -5.5149
v 8.52886 0 -1.44487
v 6.72957 -0 -1.1395
v 5.25701 -0 -4.35067
v 8.11037 0 3.01299
v 6.3991 -0 2.37768
v 5.51836 0 6.66415
v 4.35413 -0 5.25847
v 1.44838 0 8.53039
v 1.14275 -0 6.73084
v -3.00932 0 8.11156
v -2.37428 -0 6.40041
v -6.66079 0 5.51989
v -5.25519 -0 4.35565
v -8.52704 0 1.44985
v -6.72722 -0 1.14443
v -8.108 0 -3.00801
v -6.39674 -0 -2.37275
v -5.51654 0 -6.65922
v -4.35231 -0 -5.2535
v -1.44656 0 -8.52541
v -1.14093 -0 -6.72591
v 3.01168 0 -8.10658
v 2.3761 -0 -6.39543
v 7.93323 3.29972 -6.56726
v 3.5857 3.29972 -9.65325
v 3.5857 38.9534 -9.65325
v 7.93323 38.9534 -6.56726
v 10.1553 3.29972 -1.72097
v 10.1553 38.9534 -1.72097
v 9.65691 3.29972 3.58717
v 10.1553 3.29972 -1.72097
v 10.1553 38.9534 -1.72097
v 9.65691 38.9534 3.58717
v 6.57082 3.29972 7.93477
v 6.57082 38.9534 7.93477
v 1.72432 3.29972 10.1569
v 1.72432 38.9534 10.1569
v -3.58387 3.29972 9.65818
v -3.58387 38.9534 9.65818
v -7.93142 3.29972 6.57224
v -7.93142 38.9534 6.57224
v -10.1535 3.29972 1.7259
v -10.1535 38.9534 1.7259
v -9.65457 3.29972 -3.58219
v -9.65457 38.9534 -3.58219
v -6.56846 3.29972 -7.92979
v -6.56846 38.9534 -7.92979
v -1.7225 3.29972 -10.1519
v -1.7225 38.9534 -10.1519
v -5.37561 44.064 -6.48917
v -5.37561 44.8654 -6.48917
v -1.4093 44.8654 -8.30773
v -1.4093 44.064 -8.30773
v -7.90118 44.064 -2.93117
v -7.90118 44.8654 -2.93117
v -8.30941 44.064 1.41291
v -8.30941 44.8654 1.41291
v -6.49069 44.064 5.37905
v -6.49069 44.8654 5.37905
v -2.93265 44.064 7.90458
v -2.93265 44.8654 7.90458
v 1.41165 44.064 8.31271
v 1.41165 44.8654 8.31271
v 5.37741 44.064 6.49415
v 5.37741 44.8654 6.49415
v 7.90299 44.064 2.93615
v 7.90299 44.8654 2.93615
v 8.31124 44.064 -1.40794
v 8.31124 44.8654 -1.40794
v 8.31124 44.8654 -1.40794
v 8.31124 44.064 -1.40794
v 6.49251 44.064 -5.37413
v 6.49251 44.8654 -5.37413
v 2.93447 44.064 -7.8996
v 2.93447 44.8654 -7.8996
v -5.04835 45.3233 -6.09416
v -1.32344 45.3233 -7.80207
v -1.32344 43.606 -7.80207
v -5.04835 43.606 -6.09416
v -7.42004 43.606 -2.75264
v -7.42004 45.3233 -2.75264
v -7.80345 43.606 1.32711
v -7.80345 45.3233 1.32711
v -6.09543 43.606 5.05192
v -6.09543 45.3233 5.05192
v -2.75389 43.606 7.42371
v -2.75389 45.3233 7.42371
v 1.32579 43.606 7.80706
v 1.32579 45.3233 7.80706
v 5.05072 43.606 6.09914
v 5.05072 45.3233 6.09914
v 7.4224 43.606 2.75763
v 7.4224 45.3233 2.75763
v 7.8058 43.606 -1.32213
v 7.8058 45.3233 -1.32213
v 7.8058 43.606 -1.32213
v 6.09778 43.606 -5.04694
v 6.09778 45.3233 -5.04694
v 7.8058 45.3233 -1.32213
v 2.75626 43.606 -7.41878
v 2.75626 45.3233 -7.41878
v -5.04835 42.2532 -6.09416
v -7.42004 42.2532 -2.75264
v -7.42004 43.606 -2.75264
v -5.04835 43.606 -6.09416
v -7.80345 42.2532 1.32711
v -7.80345 43.606 1.32711
v -6.09543 42.2532 5.05192
v -6.09543 43.606 5.05192
v -2.75389 42.2532 7.42371
v -2.75389 43.606 7.42371
v 1.32579 42.2532 7.80706
v 1.32579 43.606 7.80706
v 5.05072 42.2532 6.09914
v 5.05072 43.606 6.09914
v 7.4224 42.2532 2.75763
v 7.4224 43.606 2.75763
v 7.8058 42.2532 -1.32213
v 7.8058 43.606 -1.32213
v 7.8058 42.2532 -1.32213
v 6.09778 42.2532 -5.04694
v 6.09778 43.606 -5.04694
v 7.8058 43.606 -1.32213
v 2.75626 42.2532 -7.41878
v 2.75626 43.606 -7.41878
v -1.32344 42.2532 -7.80207
v -1.32344 43.606 -7.80207
v -1.5254 45.0654 -1.84053
v -2.24252 45.0654 -0.830407
v -2.24252 45.8434 -0.830407
v -1.5254 45.8434 -1.84053
v -2.35807 45.0654 0.4029
v -2.35807 45.8434 0.4029
v -1.84184 45.0654 1.52891
v -1.84184 45.8434 1.52891
v -0.832044 45.0654 2.24592
v -0.832044 45.8434 2.24592
v 0.401324 45.0654 2.3618
v 0.401324 45.8434 2.3618
v 1.52776 45.0654 1.84551
v 1.52776 45.8434 1.84551
v 2.24434 45.0654 0.83533
v 2.24434 45.8434 0.83533
v 2.36045 45.0654 -0.397977
v 2.36045 45.8434 -0.397977
v 2.36045 45.0654 -0.397977
v 1.84421 45.0654 -1.52398
v 1.84421 45.8434 -1.52398
v 2.36045 45.8434 -0.397977
v 0.833865 45.0654 -2.24094
v 0.833865 45.8434 -2.24094
v -0.399503 45.0654 -2.35682
v -0.399503 45.8434 -2.35682
v 0.001178 45.8434 0.00249
v -1.5254 45.8434 -1.84053
v -2.24252 45.8434 -0.830407
v -2.35807 45.8434 0.4029
v -1.84184 45.8434 1.52891
v -0.832044 45.8434 2.24592
v 0.401324 45.8434 2.3618
v 1.52776 45.8434 1.84551
v 2.24434 45.8434 0.83533
v 2.36045 45.8434 -0.397977
v 1.84421 45.8434 -1.52398
v 0.833865 45.8434 -2.24094
v -0.399503 45.8434 -2.35682
v -6.56846 38.9534 -7.92979
v -9.65457 38.9534 -3.58219
v -9.18963 40.7081 -3.40955
v -6.25201 40.7081 -7.54773
v -10.1535 38.9534 1.7259
v -9.66427 40.7081 1.6429
v -7.93142 38.9534 6.57224
v -7.5491 40.7081 6.2558
v -3.58387 38.9534 9.65818
v -3.41108 40.7081 9.19307
v 1.72432 38.9534 10.1569
v 1.6417 40.7081 9.66779
v 6.57082 38.9534 7.93477
v 6.25438 40.7081 7.55266
v 9.65691 38.9534 3.58717
v 9.19144 40.7081 3.41448
v 10.1553 38.9534 -1.72097
v 9.66611 40.7081 -1.63792
v 10.1553 38.9534 -1.72097
v 7.93323 38.9534 -6.56726
v 7.55147 40.7081 -6.25082
v 9.66611 40.7081 -1.63792
v 3.5857 38.9534 -9.65325
v 3.4129 40.7081 -9.18815
v -1.7225 38.9534 -10.1519
v -1.63934 40.7081 -9.66286
v -8.108 42.2532 -3.00801
v -5.51654 42.2532 -6.65922
v -8.52704 42.2532 1.44985
v -6.66079 42.2532 5.51989
v -3.00932 42.2532 8.11156
v 1.44838 42.2532 8.53039
v 5.51836 42.2532 6.66415
v 8.11037 42.2532 3.01299
v 8.52886 42.2532 -1.44487
v 6.66262 42.2532 -5.5149
v 8.52886 42.2532 -1.44487
v 3.01168 42.2532 -8.10658
v -1.44656 42.2532 -8.52541
v -5.51654 42.2532 -6.65922
vt 0.898258 0.380578
vt 0.91947 0.380578
vt 0.91947 0.372723
vt 0.898258 0.372723
vt 0.94071 0.380578
vt 0.94071 0.372723
vt 0.686126 0.380578
vt 0.707328 0.380578
vt 0.70735 0.372723
vt 0.686126 0.372723
vt 0.728578 0.380578
vt 0.728578 0.372723
vt 0.749788 0.380578
vt 0.749788 0.372723
vt 0.770998 0.380578
vt 0.770998 0.372723
vt 0.792208 0.380578
vt 0.792208 0.372723
vt 0.813418 0.380578
vt 0.813418 0.372723
vt 0.834628 0.380578
vt 0.834628 0.372723
vt 0.855838 0.380578
vt 0.855838 0.372723
vt 0.877048 0.380578
vt 0.877048 0.372723
vt 0.91947 0.364508
vt 0.898258 0.364508
vt 0.94071 0.364508
vt 0.707405 0.364508
vt 0.686126 0.364508
vt 0.728578 0.364508
vt 0.749788 0.364508
vt 0.770998 0.364508
vt 0.792208 0.364508
vt 0.813418 0.364508
vt 0.834628 0.364508
vt 0.855838 0.364508
vt 0.877048 0.364508
vt 0.901328 0.506509
vt 0.8862 0.506511
vt 0.886201 0.511296
vt 0.901329 0.511294
vt 0.871073 0.506513
vt 0.871073 0.511298
vt 0.855945 0.506515
vt 0.855945 0.5113
vt 0.840817 0.506517
vt 0.840818 0.511302
vt 0.825689 0.506519
vt 0.82569 0.511304
vt 0.810561 0.506521
vt 0.810562 0.511306
vt 0.795434 0.506523
vt 0.795434 0.511308
vt 0.780306 0.506525
vt 0.780306 0.51131
vt 0.961839 0.506501
vt 0.946712 0.506503
vt 0.946712 0.511288
vt 0.96184 0.511286
vt 0.931584 0.506505
vt 0.931584 0.51129
vt 0.916456 0.506507
vt 0.916457 0.511292
vt 0.958848 0.764204
vt 0.95885 0.749076
vt 0.940527 0.753984
vt 0.940526 0.759292
vt 0.951288 0.735974
vt 0.937873 0.749386
vt 0.938188 0.728409
vt 0.933276 0.746731
vt 0.92306 0.728407
vt 0.927967 0.74673
vt 0.909958 0.735969
vt 0.923369 0.749384
vt 0.902392 0.749069
vt 0.920714 0.753981
vt 0.902391 0.764197
vt 0.920714 0.75929
vt 0.909953 0.777299
vt 0.923368 0.763888
vt 0.923053 0.784865
vt 0.927965 0.766543
vt 0.938181 0.784867
vt 0.933274 0.766543
vt 0.951283 0.777304
vt 0.937871 0.763889
vt 0.977865 0.848087
vt 0.987459 0.831468
vt 0.984422 0.830655
vt 0.975642 0.845863
vt 0.987458 0.81228
vt 0.984421 0.813093
vt 0.977864 0.795662
vt 0.97564 0.797885
vt 0.961245 0.786068
vt 0.960432 0.789105
vt 0.942057 0.786068
vt 0.94287 0.789106
vt 0.925439 0.795663
vt 0.927662 0.797886
vt 0.915845 0.812281
vt 0.918882 0.813095
vt 0.915845 0.83147
vt 0.918882 0.830656
vt 0.92544 0.848088
vt 0.927664 0.845865
vt 0.942058 0.857682
vt 0.942872 0.854645
vt 0.961247 0.857681
vt 0.960433 0.854644
vt 0.803212 0.351079
vt 0.820773 0.351079
vt 0.820773 0.347399
vt 0.803212 0.347398
vt 0.838334 0.35108
vt 0.838334 0.347399
vt 0.855895 0.35108
vt 0.855895 0.3474
vt 0.873456 0.351081
vt 0.873456 0.3474
vt 0.891018 0.351081
vt 0.891018 0.347401
vt 0.908579 0.351082
vt 0.908579 0.347401
vt 0.92614 0.351082
vt 0.92614 0.347402
vt 0.943701 0.351083
vt 0.943701 0.347402
vt 0.732967 0.351077
vt 0.750528 0.351077
vt 0.750528 0.347397
vt 0.732967 0.347396
vt 0.768089 0.351078
vt 0.768089 0.347397
vt 0.78565 0.351078
vt 0.785651 0.347398
vt 0.715481 0.963126
vt 0.72426 0.947917
vt 0.719719 0.946701
vt 0.712156 0.959803
vt 0.724259 0.930356
vt 0.719718 0.931573
vt 0.715477 0.915148
vt 0.712153 0.918473
vt 0.700268 0.906369
vt 0.699051 0.91091
vt 0.682707 0.90637
vt 0.683924 0.910911
vt 0.667499 0.915152
vt 0.670823 0.918476
vt 0.658719 0.930361
vt 0.66326 0.931577
vt 0.658721 0.947922
vt 0.663261 0.946705
vt 0.667502 0.96313
vt 0.670826 0.959806
vt 0.682712 0.971909
vt 0.683928 0.967369
vt 0.700273 0.971908
vt 0.699056 0.967368
vt 0.942521 0.976408
vt 0.951847 0.98177
vt 0.957188 0.961687
vt 0.937125 0.967102
vt 0.962604 0.98175
vt 0.97191 0.976354
vt 0.977271 0.967028
vt 0.977252 0.956271
vt 0.971856 0.946965
vt 0.96253 0.941603
vt 0.951773 0.941623
vt 0.942466 0.947019
vt 0.937105 0.956345
vt 0.930576 0.988307
vt 0.947451 0.998047
vt 0.949473 0.990494
vt 0.936103 0.982777
vt 0.966936 0.998044
vt 0.964911 0.990492
vt 0.983809 0.988299
vt 0.978279 0.982772
vt 0.993548 0.971424
vt 0.985996 0.969401
vt 0.993546 0.951939
vt 0.985994 0.953964
vt 0.983801 0.935066
vt 0.978273 0.940596
vt 0.966925 0.925326
vt 0.964903 0.932879
vt 0.947441 0.925329
vt 0.949466 0.932881
vt 0.930568 0.935074
vt 0.936098 0.940601
vt 0.920828 0.951949
vt 0.928381 0.953972
vt 0.920831 0.971434
vt 0.928382 0.969409
vt 0.405009 0.998021
vt 0.427857 0.998023
vt 0.427873 0.845225
vt 0.405024 0.845223
vt 0.38216 0.998019
vt 0.382176 0.84522
vt 0.633496 0.998044
vt 0.656345 0.998047
vt 0.65636 0.845249
vt 0.633512 0.845246
vt 0.610647 0.998042
vt 0.610663 0.845244
vt 0.587798 0.99804
vt 0.587814 0.845242
vt 0.56495 0.998037
vt 0.564965 0.845239
vt 0.542101 0.998035
vt 0.542117 0.845237
vt 0.519252 0.998033
vt 0.519268 0.845235
vt 0.496404 0.99803
vt 0.496419 0.845232
vt 0.473555 0.998028
vt 0.473571 0.84523
vt 0.450706 0.998026
vt 0.450722 0.845227
vt 0.791694 0.359527
vt 0.791699 0.356062
vt 0.773492 0.356062
vt 0.773487 0.359526
vt 0.8099 0.359527
vt 0.809905 0.356063
vt 0.828107 0.359527
vt 0.828112 0.356063
vt 0.846314 0.359528
vt 0.846318 0.356063
vt 0.86452 0.359528
vt 0.864525 0.356064
vt 0.882727 0.359529
vt 0.882732 0.356064
vt 0.900934 0.359528
vt 0.900938 0.356065
vt 0.91916 0.359503
vt 0.919153 0.356067
vt 0.937694 0.359522
vt 0.937703 0.355999
vt 0.718525 0.356069
vt 0.718516 0.359591
vt 0.737066 0.359524
vt 0.737059 0.356087
vt 0.75528 0.359525
vt 0.755285 0.356062
vt 0.791687 0.353159
vt 0.773481 0.353159
vt 0.773498 0.362429
vt 0.791705 0.362429
vt 0.809912 0.36243
vt 0.809894 0.35316
vt 0.828118 0.36243
vt 0.828101 0.35316
vt 0.846325 0.362431
vt 0.846307 0.353161
vt 0.864531 0.362431
vt 0.864514 0.353161
vt 0.882738 0.362431
vt 0.882721 0.353162
vt 0.900945 0.36243
vt 0.900926 0.353164
vt 0.919148 0.362406
vt 0.919122 0.353186
vt 0.937082 0.362483
vt 0.93708 0.353084
vt 0.719138 0.362507
vt 0.737097 0.362404
vt 0.737071 0.353184
vt 0.719137 0.353108
vt 0.755292 0.362427
vt 0.755274 0.35316
vt 0.850551 0.519105
vt 0.868112 0.519104
vt 0.868112 0.513306
vt 0.850551 0.513307
vt 0.885673 0.519103
vt 0.885673 0.513305
vt 0.903235 0.519102
vt 0.903234 0.513304
vt 0.920796 0.519101
vt 0.920796 0.513303
vt 0.938357 0.519099
vt 0.938357 0.513302
vt 0.955918 0.519098
vt 0.955918 0.5133
vt 0.97348 0.519097
vt 0.973479 0.513299
vt 0.991041 0.519096
vt 0.99104 0.513298
vt 0.780306 0.519109
vt 0.797867 0.519108
vt 0.797867 0.51331
vt 0.780306 0.513311
vt 0.815429 0.519107
vt 0.815428 0.513309
vt 0.83299 0.519106
vt 0.83299 0.513308
vt 0.701189 0.901034
vt 0.695881 0.901034
vt 0.695881 0.904368
vt 0.70119 0.904368
vt 0.690572 0.901034
vt 0.690572 0.904368
vt 0.685263 0.901034
vt 0.685263 0.904368
vt 0.679954 0.901035
vt 0.679955 0.904369
vt 0.674646 0.901035
vt 0.674646 0.904369
vt 0.669337 0.901035
vt 0.669337 0.904369
vt 0.664028 0.901035
vt 0.664028 0.904369
vt 0.658719 0.901036
vt 0.65872 0.90437
vt 0.722424 0.901033
vt 0.717116 0.901033
vt 0.717116 0.904367
vt 0.722425 0.904367
vt 0.711807 0.901033
vt 0.711807 0.904367
vt 0.706498 0.901033
vt 0.706498 0.904367
vt 0.900338 0.98814
vt 0.910244 0.990794
vt 0.910244 0.985485
vt 0.907589 0.980888
vt 0.902991 0.978234
vt 0.897682 0.978234
vt 0.893085 0.980889
vt 0.890431 0.985487
vt 0.890432 0.990796
vt 0.893087 0.995393
vt 0.897684 0.998047
vt 0.902993 0.998046
vt 0.90759 0.995392
vt 0.828301 0.672645
vt 0.849511 0.672645
vt 0.849511 0.66479
vt 0.828301 0.66479
vt 0.87072 0.672645
vt 0.87072 0.66479
vt 0.89193 0.672645
vt 0.89193 0.66479
vt 0.91314 0.672645
vt 0.91314 0.66479
vt 0.934349 0.672645
vt 0.934349 0.66479
vt 0.955559 0.672645
vt 0.955559 0.66479
vt 0.97677 0.672645
vt 0.97677 0.66479
vt 0.99801 0.672645
vt 0.99801 0.66479
vt 0.743431 0.672645
vt 0.764671 0.672645
vt 0.764671 0.66479
vt 0.743431 0.66479
vt 0.785882 0.672645
vt 0.785882 0.66479
vt 0.807092 0.672645
vt 0.807092 0.66479
vt 0.849511 0.656575
vt 0.828301 0.656575
vt 0.87072 0.656575
vt 0.89193 0.656575
vt 0.91314 0.656575
vt 0.934349 0.656575
vt 0.955559 0.656575
vt 0.97677 0.656575
vt 0.99801 0.656575
vt 0.764671 0.656575
vt 0.743431 0.656575
vt 0.785882 0.656575
vt 0.807092 0.656575
vt 0.828301 0.656575
vn 0.348012 -0.012401 -0.937408
vn 0.770092 -0.012401 -0.637813
vn 0.696118 -0.427803 -0.576546
vn 0.314582 -0.427802 -0.847363
vn 0.985825 -0.012401 -0.167316
vn 0.891127 -0.427806 -0.151244
vn 0.985825 -0.012401 -0.167316
vn 0.937408 -0.012401 0.348013
vn 0.84736 -0.427807 0.314583
vn 0.891127 -0.427806 -0.151244
vn 0.637812 -0.012401 0.770092
vn 0.576546 -0.427803 0.696118
vn 0.167316 -0.012401 0.985825
vn 0.151244 -0.427801 0.891129
vn -0.348012 -0.012401 0.937408
vn -0.314583 -0.427802 0.847362
vn -0.770092 -0.012401 0.637813
vn -0.696118 -0.427803 0.576546
vn -0.985825 -0.012401 0.167316
vn -0.891128 -0.427804 0.151244
vn -0.937408 -0.012401 -0.348013
vn -0.847361 -0.427806 -0.314583
vn -0.637813 -0.012401 -0.770092
vn -0.576545 -0.427804 -0.696117
vn -0.167316 -0.012401 -0.985825
vn -0.151244 -0.427802 -0.891129
vn 0.427629 -0.831681 -0.354174
vn 0.193249 -0.831683 -0.520537
vn 0.547424 -0.831682 -0.09291
vn 0.520536 -0.831683 0.193249
vn 0.547424 -0.831682 -0.09291
vn 0.354175 -0.831682 0.427627
vn 0.09291 -0.831682 0.547423
vn -0.19325 -0.831683 0.520537
vn -0.427628 -0.831683 0.354173
vn -0.547423 -0.831683 0.09291
vn -0.520537 -0.831683 -0.193249
vn -0.354174 -0.831683 -0.427627
vn -0.09291 -0.831683 -0.547422
vn 0.400768 0.777972 0.483884
vn 0.589021 0.777969 0.218673
vn 0.383427 0.912535 0.142347
vn 0.260884 0.912536 0.31499
vn 0.619443 0.77797 -0.105134
vn 0.403232 0.912535 -0.068438
vn 0.483884 0.777972 -0.400769
vn 0.314989 0.912536 -0.260884
vn 0.218673 0.777971 -0.589019
vn 0.142348 0.912535 -0.383429
vn -0.105133 0.777969 -0.619445
vn -0.068437 0.912535 -0.403232
vn -0.400769 0.777972 -0.483884
vn -0.260884 0.912536 -0.314989
vn -0.589019 0.777971 -0.218673
vn -0.383427 0.912536 -0.142347
vn -0.619445 0.777968 0.105133
vn -0.403231 0.912536 0.068437
vn -0.619445 0.777968 0.105133
vn -0.48389 0.777966 0.400773
vn -0.314989 0.912536 0.260883
vn -0.403231 0.912536 0.068437
vn -0.218675 0.777967 0.589024
vn -0.142347 0.912535 0.383428
vn 0.105134 0.777969 0.619445
vn 0.068437 0.912535 0.403232
vn 0.260884 0.912536 0.31499
vn 0.383427 0.912535 0.142347
vn -0.07315 0.996951 -0.027157
vn -0.049771 0.996951 -0.060094
vn 0.403232 0.912535 -0.068438
vn -0.076928 0.996951 0.013056
vn 0.314989 0.912536 -0.260884
vn -0.060094 0.996951 0.049771
vn 0.142348 0.912535 -0.383429
vn -0.027157 0.996951 0.07315
vn -0.068437 0.912535 -0.403232
vn 0.013056 0.996951 0.076928
vn -0.260884 0.912536 -0.314989
vn 0.049771 0.996951 0.060094
vn -0.383427 0.912536 -0.142347
vn 0.07315 0.996951 0.027157
vn -0.403231 0.912536 0.068437
vn 0.076928 0.996951 -0.013056
vn -0.314989 0.912536 0.260883
vn 0.060093 0.996951 -0.049772
vn -0.142347 0.912535 0.383428
vn 0.027157 0.996951 -0.07315
vn 0.068437 0.912535 0.403232
vn -0.013056 0.996951 -0.076928
vn -0.435553 0.730575 -0.525883
vn -0.640144 0.730573 -0.237653
vn -0.781702 0.552017 -0.290206
vn -0.531872 0.552014 -0.642179
vn -0.673208 0.730573 0.114258
vn -0.822075 0.55202 0.139524
vn -0.525885 0.730574 0.435553
vn -0.642177 0.552017 0.53187
vn -0.237653 0.730575 0.640141
vn -0.290207 0.552017 0.781701
vn 0.114258 0.730575 0.673205
vn 0.139525 0.552019 0.822076
vn 0.435553 0.730576 0.525883
vn 0.531871 0.552016 0.642177
vn 0.640141 0.730576 0.237652
vn 0.781702 0.552017 0.290206
vn 0.673205 0.730575 -0.114257
vn 0.822073 0.552023 -0.139524
vn 0.525884 0.730575 -0.435552
vn 0.642174 0.552023 -0.531868
vn 0.237653 0.730576 -0.640141
vn 0.290206 0.552022 -0.781698
vn -0.114258 0.730576 -0.673204
vn -0.139525 0.552018 -0.822076
vn -0.586398 0.393514 -0.708014
vn -0.86184 0.393519 -0.319959
vn -0.666004 0.703779 -0.247254
vn -0.453148 0.703781 -0.547128
vn -0.906354 0.393522 0.153827
vn -0.700404 0.703778 0.118873
vn -0.708014 0.393515 0.586398
vn -0.547127 0.703783 0.453146
vn -0.319959 0.393515 0.861842
vn -0.247254 0.703781 0.666002
vn 0.153829 0.393515 0.906357
vn 0.118874 0.703778 0.700404
vn 0.586397 0.393515 0.708014
vn 0.453148 0.703781 0.547128
vn 0.861839 0.393522 0.319959
vn 0.666002 0.703781 0.247253
vn 0.906353 0.393524 -0.153827
vn 0.700406 0.703776 -0.118874
vn 0.906353 0.393524 -0.153827
vn 0.708012 0.39352 -0.586397
vn 0.547133 0.703775 -0.453151
vn 0.700406 0.703776 -0.118874
vn 0.319959 0.393518 -0.861841
vn 0.247255 0.703777 -0.666005
vn -0.153828 0.393516 -0.906356
vn -0.118874 0.703778 -0.700404
vn -0.453148 0.703781 -0.547128
vn -0.666004 0.703779 -0.247254
vn 0.589021 0.777969 0.218673
vn 0.400768 0.777972 0.483884
vn -0.700404 0.703778 0.118873
vn 0.619443 0.77797 -0.105134
vn -0.547127 0.703783 0.453146
vn 0.483884 0.777972 -0.400769
vn -0.247254 0.703781 0.666002
vn 0.218673 0.777971 -0.589019
vn 0.118874 0.703778 0.700404
vn -0.105133 0.777969 -0.619445
vn 0.453148 0.703781 0.547128
vn -0.400769 0.777972 -0.483884
vn 0.666002 0.703781 0.247253
vn -0.589019 0.777971 -0.218673
vn 0.700406 0.703776 -0.118874
vn -0.619445 0.777968 0.105133
vn 0.547133 0.703775 -0.453151
vn -0.48389 0.777966 0.400773
vn 0.247255 0.703777 -0.666005
vn -0.218675 0.777967 0.589024
vn -0.118874 0.703778 -0.700404
vn 0.105134 0.777969 0.619445
vn -0.134638 -0.9846 0.111511
vn -0.172356 -0.9846 0.029253
vn 0 -1 0
vn -0.060845 -0.9846 0.163891
vn -0.16389 -0.9846 -0.060844
vn -0.111511 -0.984601 -0.134637
vn -0.029253 -0.9846 -0.172355
vn 0.060845 -0.9846 -0.163891
vn 0.134639 -0.9846 -0.111512
vn 0.172356 -0.9846 -0.029253
vn 0.163891 -0.9846 0.060845
vn 0.111511 -0.9846 0.134638
vn 0.029253 -0.9846 0.172356
vn 0.427629 -0.831681 -0.354174
vn 0.547424 -0.831682 -0.09291
vn -0.160777 -0.986614 0.027287
vn -0.125593 -0.986614 0.10402
vn 0.520536 -0.831683 0.193249
vn -0.15288 -0.986614 -0.056757
vn 0.354175 -0.831682 0.427627
vn -0.10402 -0.986614 -0.125593
vn 0.09291 -0.831682 0.547423
vn -0.027287 -0.986614 -0.160776
vn -0.19325 -0.831683 0.520537
vn 0.056757 -0.986614 -0.15288
vn -0.427628 -0.831683 0.354173
vn 0.125593 -0.986614 -0.10402
vn -0.547423 -0.831683 0.09291
vn 0.160776 -0.986614 -0.027287
vn -0.520537 -0.831683 -0.193249
vn 0.15288 -0.986614 0.056757
vn -0.354174 -0.831683 -0.427627
vn 0.10402 -0.986614 0.125593
vn -0.09291 -0.831683 -0.547422
vn 0.027287 -0.986614 0.160776
vn 0.193249 -0.831683 -0.520537
vn -0.056757 -0.986614 0.15288
vn 0.770092 -0.012401 -0.637813
vn 0.348012 -0.012401 -0.937408
vn 0.348012 0.012401 -0.937408
vn 0.770092 0.012401 -0.637813
vn 0.985825 -0.012401 -0.167316
vn 0.985825 0.012401 -0.167316
vn 0.937408 -0.012401 0.348013
vn 0.985825 -0.012401 -0.167316
vn 0.985825 0.012401 -0.167316
vn 0.937408 0.012401 0.348013
vn 0.637812 -0.012401 0.770092
vn 0.637812 0.012401 0.770092
vn 0.167316 -0.012401 0.985825
vn 0.167316 0.012401 0.985825
vn -0.348012 -0.012401 0.937408
vn -0.348012 0.012401 0.937408
vn -0.770092 -0.012401 0.637813
vn -0.770092 0.012401 0.637813
vn -0.985825 -0.012401 0.167316
vn -0.985825 0.012401 0.167316
vn -0.937408 -0.012401 -0.348013
vn -0.937408 0.012401 -0.348013
vn -0.637813 -0.012401 -0.770092
vn -0.637813 0.012401 -0.770092
vn -0.167316 -0.012401 -0.985825
vn -0.167316 0.012401 -0.985825
vn -0.59899 -0.343757 -0.723216
vn -0.59899 0.343755 -0.723217
vn -0.157131 0.343757 -0.925819
vn -0.157132 -0.343758 -0.925819
vn -0.880347 -0.343763 -0.326828
vn -0.880347 0.343761 -0.326829
vn -0.925817 -0.343763 0.157131
vn -0.925817 0.343762 0.15713
vn -0.723217 -0.343757 0.59899
vn -0.723217 0.343757 0.59899
vn -0.326829 -0.343758 0.880349
vn -0.326829 0.343756 0.880349
vn 0.157132 -0.343758 0.925819
vn 0.157131 0.343756 0.92582
vn 0.59899 -0.343758 0.723216
vn 0.598989 0.343756 0.723217
vn 0.880346 -0.343765 0.326828
vn 0.880346 0.343763 0.326829
vn 0.925816 -0.343766 -0.157131
vn 0.925816 0.343765 -0.15713
vn 0.925816 0.343765 -0.15713
vn 0.925816 -0.343766 -0.157131
vn 0.723215 -0.343761 -0.598989
vn 0.723216 0.343761 -0.598989
vn 0.326829 -0.343759 -0.880348
vn 0.326829 0.343759 -0.880348
vn -0.586398 0.393514 -0.708014
vn -0.153828 0.393516 -0.906356
vn -0.159562 -0.301146 -0.940134
vn -0.608251 -0.301145 -0.734399
vn -0.893959 -0.30115 -0.331882
vn -0.86184 0.393519 -0.319959
vn -0.940132 -0.30115 0.159562
vn -0.906354 0.393522 0.153827
vn -0.734399 -0.301145 0.608252
vn -0.708014 0.393515 0.586398
vn -0.331883 -0.301145 0.893961
vn -0.319959 0.393515 0.861842
vn 0.159562 -0.301145 0.940134
vn 0.153829 0.393515 0.906357
vn 0.608252 -0.301146 0.734399
vn 0.586397 0.393515 0.708014
vn 0.893959 -0.301152 0.331882
vn 0.861839 0.393522 0.319959
vn 0.940132 -0.301153 -0.159561
vn 0.906353 0.393524 -0.153827
vn 0.940132 -0.301153 -0.159561
vn 0.734398 -0.301148 -0.608252
vn 0.708012 0.39352 -0.586397
vn 0.906353 0.393524 -0.153827
vn 0.331883 -0.301147 -0.89396
vn 0.319959 0.393518 -0.861841
vn -0.531872 0.552014 -0.642179
vn -0.781702 0.552017 -0.290206
vn -0.893959 -0.30115 -0.331882
vn -0.608251 -0.301145 -0.734399
vn -0.822075 0.55202 0.139524
vn -0.940132 -0.30115 0.159562
vn -0.642177 0.552017 0.53187
vn -0.734399 -0.301145 0.608252
vn -0.290207 0.552017 0.781701
vn -0.331883 -0.301145 0.893961
vn 0.139525 0.552019 0.822076
vn 0.159562 -0.301145 0.940134
vn 0.531871 0.552016 0.642177
vn 0.608252 -0.301146 0.734399
vn 0.781702 0.552017 0.290206
vn 0.893959 -0.301152 0.331882
vn 0.822073 0.552023 -0.139524
vn 0.940132 -0.301153 -0.159561
vn 0.822073 0.552023 -0.139524
vn 0.642174 0.552023 -0.531868
vn 0.734398 -0.301148 -0.608252
vn 0.940132 -0.301153 -0.159561
vn 0.290206 0.552022 -0.781698
vn 0.331883 -0.301147 -0.89396
vn -0.139525 0.552018 -0.822076
vn -0.159562 -0.301146 -0.940134
vn -0.049771 0.996951 -0.060094
vn -0.07315 0.996951 -0.027157
vn -0.3407 0.931625 -0.126484
vn -0.231813 0.931625 -0.279889
vn -0.076928 0.996951 0.013056
vn -0.358294 0.931626 0.06081
vn -0.060094 0.996951 0.049771
vn -0.279886 0.931627 0.231809
vn -0.027157 0.996951 0.07315
vn -0.126485 0.931625 0.3407
vn 0.013056 0.996951 0.076928
vn 0.060812 0.931623 0.358303
vn 0.049771 0.996951 0.060094
vn 0.231816 0.931623 0.279893
vn 0.07315 0.996951 0.027157
vn 0.340703 0.931624 0.126485
vn 0.076928 0.996951 -0.013056
vn 0.358298 0.931625 -0.06081
vn 0.076928 0.996951 -0.013056
vn 0.060093 0.996951 -0.049772
vn 0.27989 0.931624 -0.231813
vn 0.358298 0.931625 -0.06081
vn 0.027157 0.996951 -0.07315
vn 0.126485 0.931625 -0.3407
vn -0.013056 0.996951 -0.076928
vn -0.060811 0.931625 -0.358296
vn 0 1 -0
vn -0.231813 0.931625 -0.279889
vn -0.3407 0.931625 -0.126484
vn -0.358294 0.931626 0.06081
vn -0.279886 0.931627 0.231809
vn -0.126485 0.931625 0.3407
vn 0.060812 0.931623 0.358303
vn 0.231816 0.931623 0.279893
vn 0.340703 0.931624 0.126485
vn 0.358298 0.931625 -0.06081
vn 0.27989 0.931624 -0.231813
vn 0.126485 0.931625 -0.3407
vn -0.060811 0.931625 -0.358296
vn -0.637813 0.012401 -0.770092
vn -0.937408 0.012401 -0.348013
vn -0.84736 0.427808 -0.314583
vn -0.576544 0.427805 -0.696117
vn -0.985825 0.012401 0.167316
vn -0.891127 0.427805 0.151244
vn -0.770092 0.012401 0.637813
vn -0.696117 0.427804 0.576545
vn -0.348012 0.012401 0.937408
vn -0.314583 0.427803 0.847362
vn 0.167316 0.012401 0.985825
vn 0.151244 0.427801 0.891129
vn 0.637812 0.012401 0.770092
vn 0.576545 0.427803 0.696118
vn 0.937408 0.012401 0.348013
vn 0.847361 0.427806 0.314583
vn 0.985825 0.012401 -0.167316
vn 0.891128 0.427804 -0.151244
vn 0.985825 0.012401 -0.167316
vn 0.770092 0.012401 -0.637813
vn 0.696118 0.427801 -0.576546
vn 0.891128 0.427804 -0.151244
vn 0.348012 0.012401 -0.937408
vn 0.314583 0.427802 -0.847363
vn -0.167316 0.012401 -0.985825
vn -0.151244 0.427802 -0.891129
vn -0.640144 0.730573 -0.237653
vn -0.435553 0.730575 -0.525883
vn -0.673208 0.730573 0.114258
vn -0.525885 0.730574 0.435553
vn -0.237653 0.730575 0.640141
vn 0.114258 0.730575 0.673205
vn 0.435553 0.730576 0.525883
vn 0.640141 0.730576 0.237652
vn 0.673205 0.730575 -0.114257
vn 0.525884 0.730575 -0.435552
vn 0.673205 0.730575 -0.114257
vn 0.237653 0.730576 -0.640141
vn -0.114258 0.730576 -0.673204
vn -0.435553 0.730575 -0.525883

g polySurface307_0
usemtl lowpoly_scifi_containers_pack1:Drum_S
f 1/1/1 2/2/2 3/3/3
f 1/1/1 3/3/3 4/4/4
f 2/2/2 5/5/5 6/6/6
f 2/2/2 6/6/6 3/3/3
f 7/7/7 8/8/8 9/9/9
f 7/7/7 9/9/9 10/10/10
f 8/8/8 11/11/11 12/12/12
f 8/8/8 12/12/12 9/9/9
f 11/11/11 13/13/13 14/14/14
f 11/11/11 14/14/14 12/12/12
f 13/13/13 15/15/15 16/16/16
f 13/13/13 16/16/16 14/14/14
f 15/15/15 17/17/17 18/18/18
f 15/15/15 18/18/18 16/16/16
f 17/17/17 19/19/19 20/20/20
f 17/17/17 20/20/20 18/18/18
f 19/19/19 21/21/21 22/22/22
f 19/19/19 22/22/22 20/20/20
f 21/21/21 23/23/23 24/24/24
f 21/21/21 24/24/24 22/22/22
f 23/23/23 25/25/25 26/26/26
f 23/23/23 26/26/26 24/24/24
f 25/25/25 1/1/1 4/4/4
f 25/25/25 4/4/4 26/26/26
f 4/4/4 3/3/3 27/27/27
f 4/4/4 27/27/27 28/28/28
f 3/3/3 6/6/6 29/29/29
f 3/3/3 29/29/29 27/27/27
f 10/10/10 9/9/9 30/30/30
f 10/10/10 30/30/30 31/31/31
f 9/9/9 12/12/12 32/32/32
f 9/9/9 32/32/32 30/30/30
f 12/12/12 14/14/14 33/33/33
f 12/12/12 33/33/33 32/32/32
f 14/14/14 16/16/16 34/34/34
f 14/14/14 34/34/34 33/33/33
f 16/16/16 18/18/18 35/35/35
f 16/16/16 35/35/35 34/34/34
f 18/18/18 20/20/20 36/36/36
f 18/18/18 36/36/36 35/35/35
f 20/20/20 22/22/22 37/37/37
f 20/20/20 37/37/37 36/36/36
f 22/22/22 24/24/24 38/38/38
f 22/22/22 38/38/38 37/37/37
f 24/24/24 26/26/26 39/39/39
f 24/24/24 39/39/39 38/38/38
f 26/26/26 4/4/4 28/28/28
f 26/26/26 28/28/28 39/39/39
f 40/40/40 41/41/41 42/42/42
f 40/40/40 42/42/42 43/43/43
f 41/41/41 44/44/44 45/45/45
f 41/41/41 45/45/45 42/42/42
f 44/44/44 46/46/46 47/47/47
f 44/44/44 47/47/47 45/45/45
f 46/46/46 48/48/48 49/49/49
f 46/46/46 49/49/49 47/47/47
f 48/48/48 50/50/50 51/51/51
f 48/48/48 51/51/51 49/49/49
f 50/50/50 52/52/52 53/53/53
f 50/50/50 53/53/53 51/51/51
f 52/52/52 54/54/54 55/55/55
f 52/52/52 55/55/55 53/53/53
f 54/54/54 56/56/56 57/57/57
f 54/54/54 57/57/57 55/55/55
f 58/58/58 59/59/59 60/60/60
f 58/58/58 60/60/60 61/61/61
f 59/59/59 62/62/62 63/63/63
f 59/59/59 63/63/63 60/60/60
f 62/62/62 64/64/64 65/65/65
f 62/62/62 65/65/65 63/63/63
f 64/64/64 40/40/40 43/43/43
f 64/64/64 43/43/43 65/65/65
f 66/66/66 67/67/67 68/68/68
f 66/66/66 68/68/68 69/69/69
f 67/67/67 70/70/70 71/71/71
f 67/67/67 71/71/71 68/68/68
f 70/70/70 72/72/72 73/73/73
f 70/70/70 73/73/73 71/71/71
f 72/72/72 74/74/74 75/75/75
f 72/72/72 75/75/75 73/73/73
f 74/74/74 76/76/76 77/77/77
f 74/74/74 77/77/77 75/75/75
f 76/76/76 78/78/78 79/79/79
f 76/76/76 79/79/79 77/77/77
f 78/78/78 80/80/80 81/81/81
f 78/78/78 81/81/81 79/79/79
f 80/80/80 82/82/82 83/83/83
f 80/80/80 83/83/83 81/81/81
f 82/82/82 84/84/84 85/85/85
f 82/82/82 85/85/85 83/83/83
f 84/84/84 86/86/86 87/87/87
f 84/84/84 87/87/87 85/85/85
f 86/86/86 88/88/88 89/89/89
f 86/86/86 89/89/89 87/87/87
f 88/88/88 66/66/66 69/69/69
f 88/88/88 69/69/69 89/89/89
f 90/90/90 91/91/91 92/92/92
f 90/90/90 92/92/92 93/93/93
f 91/91/91 94/94/94 95/95/95
f 91/91/91 95/95/95 92/92/92
f 94/94/94 96/96/96 97/97/97
f 94/94/94 97/97/97 95/95/95
f 96/96/96 98/98/98 99/99/99
f 96/96/96 99/99/99 97/97/97
f 98/98/98 100/100/100 101/101/101
f 98/98/98 101/101/101 99/99/99
f 100/100/100 102/102/102 103/103/103
f 100/100/100 103/103/103 101/101/101
f 102/102/102 104/104/104 105/105/105
f 102/102/102 105/105/105 103/103/103
f 104/104/104 106/106/106 107/107/107
f 104/104/104 107/107/107 105/105/105
f 106/106/106 108/108/108 109/109/109
f 106/106/106 109/109/109 107/107/107
f 108/108/108 110/110/110 111/111/111
f 108/108/108 111/111/111 109/109/109
f 110/110/110 112/112/112 113/113/113
f 110/110/110 113/113/113 111/111/111
f 112/112/112 90/90/90 93/93/93
f 112/112/112 93/93/93 113/113/113
f 114/114/114 115/115/115 116/116/116
f 114/114/114 116/116/116 117/117/117
f 115/115/115 118/118/118 119/119/119
f 115/115/115 119/119/119 116/116/116
f 118/118/118 120/120/120 121/121/121
f 118/118/118 121/121/121 119/119/119
f 120/120/120 122/122/122 123/123/123
f 120/120/120 123/123/123 121/121/121
f 122/122/122 124/124/124 125/125/125
f 122/122/122 125/125/125 123/123/123
f 124/124/124 126/126/126 127/127/127
f 124/124/124 127/127/127 125/125/125
f 126/126/126 128/128/128 129/129/129
f 126/126/126 129/129/129 127/127/127
f 128/128/128 130/130/130 131/131/131
f 128/128/128 131/131/131 129/129/129
f 132/132/132 133/133/133 134/134/134
f 132/132/132 134/134/134 135/135/135
f 133/133/133 136/136/136 137/137/137
f 133/133/133 137/137/137 134/134/134
f 136/136/136 138/138/138 139/139/139
f 136/136/136 139/139/139 137/137/137
f 138/138/138 114/114/114 117/117/117
f 138/138/138 117/117/117 139/139/139
f 140/140/140 141/141/141 142/142/142
f 140/140/140 142/142/142 143/143/143
f 141/141/141 144/144/144 145/145/145
f 141/141/141 145/145/145 142/142/142
f 144/144/144 146/146/146 147/147/147
f 144/144/144 147/147/147 145/145/145
f 146/146/146 148/148/148 149/149/149
f 146/146/146 149/149/149 147/147/147
f 148/148/148 150/150/150 151/151/151
f 148/148/148 151/151/151 149/149/149
f 150/150/150 152/152/152 153/153/153
f 150/150/150 153/153/153 151/151/151
f 152/152/152 154/154/154 155/155/155
f 152/152/152 155/155/155 153/153/153
f 154/154/154 156/156/156 157/157/157
f 154/154/154 157/157/157 155/155/155
f 156/156/156 158/158/158 159/159/159
f 156/156/156 159/159/159 157/157/157
f 158/158/158 160/160/160 161/161/161
f 158/158/158 161/161/161 159/159/159
f 160/160/160 162/162/162 163/163/163
f 160/160/160 163/163/163 161/161/161
f 162/162/162 140/140/140 143/143/143
f 162/162/162 143/143/143 163/163/163
f 164/164/164 165/165/165 166/166/166
f 164/164/164 166/166/166 167/167/167
f 166/166/166 165/165/165 168/168/168
f 166/166/166 168/168/168 169/169/169
f 166/166/166 169/169/169 170/170/170
f 166/166/166 170/170/170 171/171/171
f 166/166/166 171/171/171 172/172/172
f 166/166/166 172/172/172 173/173/173
f 166/166/166 173/173/173 174/174/174
f 166/166/166 174/174/174 175/175/175
f 166/166/166 175/175/175 176/176/176
f 166/166/166 176/176/176 167/167/167
f 177/177/177 178/178/178 179/179/179
f 177/177/177 179/179/179 180/180/180
f 178/178/178 181/181/181 182/182/182
f 178/178/178 182/182/182 179/179/179
f 181/181/181 183/183/183 184/184/184
f 181/181/181 184/184/184 182/182/182
f 183/183/183 185/185/185 186/186/186
f 183/183/183 186/186/186 184/184/184
f 185/185/185 187/187/187 188/188/188
f 185/185/185 188/188/188 186/186/186
f 187/187/187 189/189/189 190/190/190
f 187/187/187 190/190/190 188/188/188
f 189/189/189 191/191/191 192/192/192
f 189/189/189 192/192/192 190/190/190
f 191/191/191 193/193/193 194/194/194
f 191/191/191 194/194/194 192/192/192
f 193/193/193 195/195/195 196/196/196
f 193/193/193 196/196/196 194/194/194
f 195/195/195 197/197/197 198/198/198
f 195/195/195 198/198/198 196/196/196
f 197/197/197 199/199/199 200/200/200
f 197/197/197 200/200/200 198/198/198
f 199/199/199 177/177/177 180/180/180
f 199/199/199 180/180/180 200/200/200
f 180/180/180 179/179/179 165/165/165
f 180/180/180 165/165/165 164/164/164
f 179/179/179 182/182/182 168/168/168
f 179/179/179 168/168/168 165/165/165
f 182/182/182 184/184/184 169/169/169
f 182/182/182 169/169/169 168/168/168
f 184/184/184 186/186/186 170/170/170
f 184/184/184 170/170/170 169/169/169
f 186/186/186 188/188/188 171/171/171
f 186/186/186 171/171/171 170/170/170
f 188/188/188 190/190/190 172/172/172
f 188/188/188 172/172/172 171/171/171
f 190/190/190 192/192/192 173/173/173
f 190/190/190 173/173/173 172/172/172
f 192/192/192 194/194/194 174/174/174
f 192/192/192 174/174/174 173/173/173
f 194/194/194 196/196/196 175/175/175
f 194/194/194 175/175/175 174/174/174
f 196/196/196 198/198/198 176/176/176
f 196/196/196 176/176/176 175/175/175
f 198/198/198 200/200/200 167/167/167
f 198/198/198 167/167/167 176/176/176
f 200/200/200 180/180/180 164/164/164
f 200/200/200 164/164/164 167/167/167
f 201/201/201 202/202/202 203/203/203
f 201/201/201 203/203/203 204/204/204
f 205/205/205 201/201/201 204/204/204
f 205/205/205 204/204/204 206/206/206
f 207/207/207 208/208/208 209/209/209
f 207/207/207 209/209/209 210/210/210
f 211/211/211 207/207/207 210/210/210
f 211/211/211 210/210/210 212/212/212
f 213/213/213 211/211/211 212/212/212
f 213/213/213 212/212/212 214/214/214
f 215/215/215 213/213/213 214/214/214
f 215/215/215 214/214/214 216/216/216
f 217/217/217 215/215/215 216/216/216
f 217/217/217 216/216/216 218/218/218
f 219/219/219 217/217/217 218/218/218
f 219/219/219 218/218/218 220/220/220
f 221/221/221 219/219/219 220/220/220
f 221/221/221 220/220/220 222/222/222
f 223/223/223 221/221/221 222/222/222
f 223/223/223 222/222/222 224/224/224
f 225/225/225 223/223/223 224/224/224
f 225/225/225 224/224/224 226/226/226
f 202/202/202 225/225/225 226/226/226
f 202/202/202 226/226/226 203/203/203
f 227/227/227 228/228/228 229/229/229
f 227/227/227 229/229/229 230/230/230
f 228/228/228 227/227/227 231/231/231
f 228/228/228 231/231/231 232/232/232
f 232/232/232 231/231/231 233/233/233
f 232/232/232 233/233/233 234/234/234
f 234/234/234 233/233/233 235/235/235
f 234/234/234 235/235/235 236/236/236
f 236/236/236 235/235/235 237/237/237
f 236/236/236 237/237/237 238/238/238
f 238/238/238 237/237/237 239/239/239
f 238/238/238 239/239/239 240/240/240
f 240/240/240 239/239/239 241/241/241
f 240/240/240 241/241/241 242/242/242
f 242/242/242 241/241/241 243/243/243
f 242/242/242 243/243/243 244/244/244
f 244/244/244 243/243/243 245/245/245
f 244/244/244 245/245/245 246/246/246
f 247/247/247 248/248/248 249/249/249
f 247/247/247 249/249/249 250/250/250
f 250/250/250 249/249/249 251/251/251
f 250/250/250 251/251/251 252/252/252
f 252/252/252 251/251/251 230/230/230
f 252/252/252 230/230/230 229/229/229
f 253/253/253 254/254/254 229/229/229
f 253/253/253 229/229/229 228/228/228
f 255/255/255 256/256/256 227/227/227
f 255/255/255 227/227/227 230/230/230
f 256/256/256 257/257/257 231/231/231
f 256/256/256 231/231/231 227/227/227
f 258/258/258 253/253/253 228/228/228
f 258/258/258 228/228/228 232/232/232
f 257/257/257 259/259/259 233/233/233
f 257/257/257 233/233/233 231/231/231
f 260/260/260 258/258/258 232/232/232
f 260/260/260 232/232/232 234/234/234
f 259/259/259 261/261/261 235/235/235
f 259/259/259 235/235/235 233/233/233
f 262/262/262 260/260/260 234/234/234
f 262/262/262 234/234/234 236/236/236
f 261/261/261 263/263/263 237/237/237
f 261/261/261 237/237/237 235/235/235
f 264/264/264 262/262/262 236/236/236
f 264/264/264 236/236/236 238/238/238
f 263/263/263 265/265/265 239/239/239
f 263/263/263 239/239/239 237/237/237
f 266/266/266 264/264/264 238/238/238
f 266/266/266 238/238/238 240/240/240
f 265/265/265 267/267/267 241/241/241
f 265/265/265 241/241/241 239/239/239
f 268/268/268 266/266/266 240/240/240
f 268/268/268 240/240/240 242/242/242
f 267/267/267 269/269/269 243/243/243
f 267/267/267 243/243/243 241/241/241
f 270/270/270 268/268/268 242/242/242
f 270/270/270 242/242/242 244/244/244
f 269/269/269 271/271/271 245/245/245
f 269/269/269 245/245/245 243/243/243
f 272/272/272 270/270/270 244/244/244
f 272/272/272 244/244/244 246/246/246
f 273/273/273 274/274/274 249/249/249
f 273/273/273 249/249/249 248/248/248
f 275/275/275 276/276/276 247/247/247
f 275/275/275 247/247/247 250/250/250
f 274/274/274 277/277/277 251/251/251
f 274/274/274 251/251/251 249/249/249
f 278/278/278 275/275/275 250/250/250
f 278/278/278 250/250/250 252/252/252
f 277/277/277 255/255/255 230/230/230
f 277/277/277 230/230/230 251/251/251
f 254/254/254 278/278/278 252/252/252
f 254/254/254 252/252/252 229/229/229
f 279/279/279 280/280/280 281/281/281
f 279/279/279 281/281/281 282/282/282
f 280/280/280 283/283/283 284/284/284
f 280/280/280 284/284/284 281/281/281
f 283/283/283 285/285/285 286/286/286
f 283/283/283 286/286/286 284/284/284
f 285/285/285 287/287/287 288/288/288
f 285/285/285 288/288/288 286/286/286
f 287/287/287 289/289/289 290/290/290
f 287/287/287 290/290/290 288/288/288
f 289/289/289 291/291/291 292/292/292
f 289/289/289 292/292/292 290/290/290
f 291/291/291 293/293/293 294/294/294
f 291/291/291 294/294/294 292/292/292
f 293/293/293 295/295/295 296/296/296
f 293/293/293 296/296/296 294/294/294
f 297/297/297 298/298/298 299/299/299
f 297/297/297 299/299/299 300/300/300
f 298/298/298 301/301/301 302/302/302
f 298/298/298 302/302/302 299/299/299
f 301/301/301 303/303/303 304/304/304
f 301/301/301 304/304/304 302/302/302
f 303/303/303 279/279/279 282/282/282
f 303/303/303 282/282/282 304/304/304
f 305/305/305 306/306/306 307/307/307
f 305/305/305 307/307/307 308/308/308
f 306/306/306 309/309/309 310/310/310
f 306/306/306 310/310/310 307/307/307
f 309/309/309 311/311/311 312/312/312
f 309/309/309 312/312/312 310/310/310
f 311/311/311 313/313/313 314/314/314
f 311/311/311 314/314/314 312/312/312
f 313/313/313 315/315/315 316/316/316
f 313/313/313 316/316/316 314/314/314
f 315/315/315 317/317/317 318/318/318
f 315/315/315 318/318/318 316/316/316
f 317/317/317 319/319/319 320/320/320
f 317/317/317 320/320/320 318/318/318
f 319/319/319 321/321/321 322/322/322
f 319/319/319 322/322/322 320/320/320
f 323/323/323 324/324/324 325/325/325
f 323/323/323 325/325/325 326/326/326
f 324/324/324 327/327/327 328/328/328
f 324/324/324 328/328/328 325/325/325
f 327/327/327 329/329/329 330/330/330
f 327/327/327 330/330/330 328/328/328
f 329/329/329 305/305/305 308/308/308
f 329/329/329 308/308/308 330/330/330
f 331/331/331 332/332/332 333/333/333
f 331/331/331 333/333/333 334/334/334
f 331/331/331 334/334/334 335/335/335
f 331/331/331 335/335/335 336/336/336
f 331/331/331 336/336/336 337/337/337
f 331/331/331 337/337/337 338/338/338
f 331/331/331 338/338/338 339/339/339
f 331/331/331 339/339/339 340/340/340
f 331/331/331 340/340/340 341/341/341
f 331/331/331 341/341/341 342/342/342
f 331/331/331 342/342/342 343/343/343
f 331/331/331 343/343/343 332/332/332
f 344/344/344 345/345/345 346/346/346
f 344/344/344 346/346/346 347/347/347
f 345/345/345 348/348/348 349/349/349
f 345/345/345 349/349/349 346/346/346
f 348/348/348 350/350/350 351/351/351
f 348/348/348 351/351/351 349/349/349
f 350/350/350 352/352/352 353/353/353
f 350/350/350 353/353/353 351/351/351
f 352/352/352 354/354/354 355/355/355
f 352/352/352 355/355/355 353/353/353
f 354/354/354 356/356/356 357/357/357
f 354/354/354 357/357/357 355/355/355
f 356/356/356 358/358/358 359/359/359
f 356/356/356 359/359/359 357/357/357
f 358/358/358 360/360/360 361/361/361
f 358/358/358 361/361/361 359/359/359
f 362/362/362 363/363/363 364/364/364
f 362/362/362 364/364/364 365/365/365
f 363/363/363 366/366/366 367/367/367
f 363/363/363 367/367/367 364/364/364
f 366/366/366 368/368/368 369/369/369
f 366/366/366 369/369/369 367/367/367
f 368/368/368 344/344/344 347/347/347
f 368/368/368 347/347/347 369/369/369
f 347/347/347 346/346/346 370/370/370
f 347/347/347 370/370/370 371/371/371
f 346/346/346 349/349/349 372/372/372
f 346/346/346 372/372/372 370/370/370
f 349/349/349 351/351/351 373/373/373
f 349/349/349 373/373/373 372/372/372
f 351/351/351 353/353/353 374/374/374
f 351/351/351 374/374/374 373/373/373
f 353/353/353 355/355/355 375/375/375
f 353/353/353 375/375/375 374/374/374
f 355/355/355 357/357/357 376/376/376
f 355/355/355 376/376/376 375/375/375
f 357/357/357 359/359/359 377/377/377
f 357/357/357 377/377/377 376/376/376
f 359/359/359 361/361/361 378/378/378
f 359/359/359 378/378/378 377/377/377
f 365/365/365 364/364/364 379/379/379
f 365/365/365 379/379/379 380/380/380
f 364/364/364 367/367/367 381/381/381
f 364/364/364 381/381/381 379/379/379
f 367/367/367 369/369/369 382/382/382
f 367/367/367 382/382/382 381/381/381
f 369/369/369 347/347/347 383/383/383
f 369/369/369 383/383/383 382/382/382
