# Exported by Gskelview
mtllib crate_color.mtl

v -19.3374 -22.3177 27.5914
v 19.4489 -22.3177 27.486
v 19.4342 -22.3176 22.107
v -19.352 -22.3176 22.2124
v -19.352 22.5978 22.2124
v 19.4342 22.5978 22.107
v 19.4489 22.5978 27.486
v -19.3374 22.5978 27.5914
v 27.6129 -15.6175 27.4635
v 27.5982 -15.6175 22.0846
v 27.5982 15.8979 22.0846
v 27.6129 15.8979 27.4635
v 27.6129 -22.3177 27.4635
v 27.5982 -22.3177 22.0846
v 27.5982 22.5978 22.0846
v 27.6129 22.5978 27.4635
v 25.4017 23.3273 -16.8773
v 25.4138 23.3273 -12.396
v 25.4138 -22.4967 -12.396
v 25.4017 -22.4967 -16.8773
v 19.2989 -27.6965 -27.6285
v -19.4873 -27.6965 -27.5231
v -19.4873 -22.3177 -27.5231
v 19.2989 -22.3177 -27.6285
v 25.4809 23.3273 12.2201
v 25.493 23.3273 16.7015
v 25.493 -22.4967 16.7015
v 25.4809 -22.4967 12.2201
v 26.8397 -22.4967 -3.72884
v 26.8397 23.3273 -3.72884
v 25.4412 23.3273 -2.32882
v 25.4412 -22.4967 -2.32882
v 3.54468 23.3273 -26.8977
v 3.54468 -22.4967 -26.8977
v 2.15219 -22.4967 -25.4915
v 2.15219 23.3273 -25.4915
v 19.4342 22.5978 22.107
v -19.352 22.5978 22.2124
v -19.352 27.977 22.2124
v 19.4342 27.977 22.107
v 22.2193 27.977 22.0992
v 22.2193 22.5978 22.0992
v 22.2193 15.8979 22.0992
v -22.1373 22.5978 22.2199
v -22.1373 27.977 22.2199
v -19.352 20.3436 22.2124
v 19.4342 20.3436 22.107
v -22.1373 15.8979 22.2199
v 26.8594 23.3273 3.54518
v 26.8594 -22.4967 3.54518
v 25.4535 -22.4967 2.15299
v 25.4535 23.3273 2.15299
v 13.5471 -26.1607 22.1227
v 13.4263 -26.1607 -22.2338
v 20.1604 -26.1607 -22.2521
v 20.2811 -26.1607 22.1044
v -22.2505 22.5978 -19.3514
v -27.6295 22.5978 -19.3368
v -27.6295 20.3436 -19.3368
v -22.2505 20.3436 -19.3514
v 19.4342 -20.0629 22.107
v 19.4489 -20.0629 27.486
v 22.234 -15.6175 27.4781
v 22.2193 -15.6175 22.0992
v 19.4342 27.977 22.107
v -19.352 27.977 22.2124
v -19.3374 27.977 27.5914
v 19.4489 27.977 27.486
v 22.234 27.977 27.4781
v 22.2193 27.977 22.0992
v -22.1373 27.977 22.2199
v -22.1227 27.977 27.5989
v -18.2783 -22.4967 -26.8379
v -18.2783 23.3273 -26.8379
v -16.8778 23.3273 -25.4396
v -16.8778 -22.4967 -25.4396
v -22.2505 -22.3176 -19.3514
v -22.1447 -22.3176 19.4346
v -22.1447 -27.6965 19.4346
v -22.2505 -27.6965 -19.3514
v -22.258 -27.6965 -22.1367
v -22.258 -22.3177 -22.1367
v -22.258 -15.6175 -22.1367
v -22.1373 -22.3177 22.2199
v -22.1373 -27.6965 22.2199
v -22.1447 -20.0629 19.4346
v -22.2505 -20.0629 -19.3514
v -22.1373 -15.6175 22.2199
v -22.1373 15.8979 22.2199
v -22.1373 -15.6175 22.2199
v -27.5162 -15.6175 22.2345
v -27.5162 15.8979 22.2345
v -26.8389 23.3273 18.2403
v -26.8389 -22.4967 18.2403
v -26.8278 -22.4967 22.2326
v -26.8278 23.3273 22.2326
v 22.0987 15.8979 -22.2575
v 27.4776 15.8979 -22.272
v 27.4851 20.3436 -19.4868
v 22.1062 20.3436 -19.4722
v 10.9653 23.3273 26.8206
v 3.69079 23.3273 26.8404
v 3.69079 -22.4967 26.8404
v 10.9653 -22.4967 26.8206
v 27.6129 -22.3177 27.4635
v 22.234 -22.3177 27.4781
v 22.234 -27.6965 27.4781
v 27.6129 -27.6965 27.4635
v 19.4489 -22.3177 27.486
v 19.4489 -27.6965 27.486
v 22.234 -15.6175 27.4781
v 19.4489 -20.0629 27.486
v 22.1062 -22.3176 -19.4722
v 27.4851 -22.3177 -19.4868
v 27.4851 -20.0629 -19.4868
v 22.1062 -20.0629 -19.4722
v -26.9485 -22.4967 -22.124
v -26.9377 -22.4967 -18.1312
v -26.9377 23.3273 -18.1312
v -26.9485 23.3273 -22.124
v -13.384 -26.1607 22.1964
v -13.5049 -26.1607 -22.1606
v -10.9856 -27.0997 -22.1674
v -10.8649 -27.0997 22.1892
v 19.4489 27.977 27.486
v -19.3374 27.977 27.5914
v -19.3374 22.5978 27.5914
v 19.4489 22.5978 27.486
v 26.8991 23.3273 18.0941
v 26.8991 -22.4967 18.0941
v 25.493 -22.4967 16.7015
v 25.493 23.3273 16.7015
v -26.8587 23.3273 10.9658
v -26.8784 23.3273 3.69178
v -26.8784 -22.4967 3.69178
v -26.8587 -22.4967 10.9658
v -20.1181 -26.1607 22.2147
v -20.239 -26.1607 -22.1423
v -13.5049 -26.1607 -22.1606
v -13.384 -26.1607 22.1964
v -27.6295 -20.0629 -19.3368
v -22.2505 -20.0629 -19.3514
v -22.258 -15.6175 -22.1367
v -27.6369 -15.6175 -22.1221
v -22.2726 -15.6175 -27.5156
v -27.6516 -15.6175 -27.501
v -27.6516 15.8979 -27.501
v -22.2726 15.8979 -27.5156
v -22.2726 -22.3177 -27.5156
v -27.6516 -22.3177 -27.501
v -27.6516 22.5978 -27.501
v -22.2726 22.5978 -27.5156
v 27.4629 22.5978 -27.651
v 22.084 22.5978 -27.6364
v 22.084 27.977 -27.6364
v 27.4629 27.977 -27.651
v 19.2989 22.5978 -27.6285
v 19.2989 27.977 -27.6285
v 22.084 15.8979 -27.6364
v 19.2989 20.3436 -27.6285
v -26.8982 23.3273 -3.5827
v -26.918 23.3273 -10.8572
v -26.918 -22.4967 -10.8572
v -26.8982 -22.4967 -3.5827
v -27.6295 -27.6965 -19.3368
v -27.5237 -27.6965 19.4492
v -27.5237 -22.3177 19.4492
v -27.6295 -22.3177 -19.3368
v -18.2783 23.3273 -26.8379
v -18.2783 -22.4967 -26.8379
v -22.2707 -22.4967 -26.8272
v -22.2707 23.3273 -26.8272
v -27.5162 -27.6965 22.2345
v -27.5016 -27.6965 27.6135
v -27.5016 -22.3177 27.6135
v -27.5162 -22.3177 22.2345
v -27.5237 -22.3177 19.4492
v -27.5162 -15.6175 22.2345
v -27.5237 -27.6965 19.4492
v -27.5237 -20.0629 19.4492
v -27.5162 -15.6175 22.2345
v -22.1373 -15.6175 22.2199
v -22.1447 -20.0629 19.4346
v -27.5237 -20.0629 19.4492
v -27.6369 15.8979 -22.1221
v -22.258 15.8979 -22.1367
v -22.2505 20.3436 -19.3514
v -27.6295 20.3436 -19.3368
v -26.918 -22.4967 -10.8572
v -26.918 23.3273 -10.8572
v -25.5195 23.3273 -12.2572
v -25.5195 -22.4967 -12.2572
v -27.6369 -27.6965 -22.1221
v -27.6369 -22.3177 -22.1221
v -27.6516 -22.3177 -27.501
v -27.6516 -27.6965 -27.501
v -27.6295 -27.6965 -19.3368
v -27.6295 -22.3177 -19.3368
v -27.6295 -20.0629 -19.3368
v -27.6369 -15.6175 -22.1221
v -27.5237 20.3436 19.4492
v -22.1447 20.3436 19.4346
v -22.1373 15.8979 22.2199
v -27.5162 15.8979 22.2345
v -12.2578 23.3273 25.4814
v -16.7395 23.3273 25.4939
v -16.7395 -22.4967 25.4939
v -12.2578 -22.4967 25.4814
v 10.9653 23.3273 26.8206
v 10.9653 -22.4967 26.8206
v 12.3578 -22.4967 25.4144
v 12.3578 23.3273 25.4144
v 19.3136 -27.6965 -22.2495
v -19.4727 -27.6965 -22.1442
v -19.4873 -27.6965 -27.5231
v 19.2989 -27.6965 -27.6285
v 22.084 -27.6965 -27.6364
v 22.0986 -27.6965 -22.2574
v -22.258 -27.6965 -22.1367
v -22.2726 -27.6965 -27.5156
v 19.3134 20.3436 -22.25
v 19.2989 20.3436 -27.6285
v 22.084 15.8979 -27.6364
v 22.0987 15.8979 -22.2575
v 22.1062 -22.3176 -19.4722
v 22.2118 -22.3176 19.3144
v 27.5906 -22.3177 19.2993
v 27.4851 -22.3177 -19.4868
v 27.4851 22.5978 -19.4868
v 22.1062 22.5978 -19.4722
v 22.1062 20.3436 -19.4722
v 27.4851 20.3436 -19.4868
v -3.72934 -22.4967 -26.8775
v -3.72934 23.3273 -26.8775
v -2.32942 23.3273 -25.4795
v -2.32942 -22.4967 -25.4795
v 13.3859 26.4291 -22.2339
v 13.5065 26.4291 22.1232
v 20.2407 26.4291 22.1048
v 20.1201 26.4291 -22.2518
v -25.48 23.3273 2.29133
v -25.492 23.3273 -2.19011
v -25.492 -22.4967 -2.19011
v -25.48 -22.4967 2.29133
v 19.2989 -22.3177 -27.6285
v 19.3136 -22.3176 -22.2495
v 19.3136 -20.0629 -22.2495
v 19.2989 -20.0629 -27.6285
v 26.8792 -22.4967 10.8197
v 26.8792 23.3273 10.8197
v 25.4809 23.3273 12.2201
v 25.4809 -22.4967 12.2201
v 3.54468 23.3273 -26.8977
v 10.8191 23.3273 -26.9174
v 10.8191 -22.4967 -26.9174
v 3.54468 -22.4967 -26.8977
v 26.8001 23.3273 -18.2778
v 26.8001 -22.4967 -18.2778
v 26.7892 -22.4967 -22.2701
v 26.7892 23.3273 -22.2701
v -19.4727 -22.3176 -22.1442
v -19.4873 -22.3177 -27.5231
v -19.4873 -20.0629 -27.5231
v -19.4727 -20.0629 -22.1442
v 19.4489 22.5978 27.486
v 19.4342 22.5978 22.107
v 19.4342 20.3436 22.107
v 19.4489 20.3436 27.486
v -19.3374 -22.3177 27.5914
v -19.352 -22.3176 22.2124
v -19.352 -20.0629 22.2124
v -19.3374 -20.0629 27.5914
v -26.8784 -22.4967 3.69178
v -26.8784 23.3273 3.69178
v -25.48 23.3273 2.29133
v -25.48 -22.4967 2.29133
v 27.6129 -15.6175 27.4635
v 27.6129 15.8979 27.4635
v 22.234 15.8979 27.4781
v 27.6129 22.5978 27.4635
v 22.234 22.5978 27.4781
v -19.352 -27.6965 22.2124
v 19.4342 -27.6965 22.107
v 19.4489 -27.6965 27.486
v -19.3374 -27.6965 27.5914
v -22.1227 -27.6965 27.5989
v -22.1373 -27.6965 22.2199
v 22.2193 -27.6965 22.0992
v 22.234 -27.6965 27.4781
v -19.3374 -27.6965 27.5914
v 19.4489 -27.6965 27.486
v 19.4489 -22.3177 27.486
v -19.3374 -22.3177 27.5914
v -22.1233 -26.4403 22.2201
v -22.2441 -26.4403 -22.1365
v -20.239 -26.1607 -22.1423
v -20.1181 -26.1607 22.2147
v -27.5016 -15.6175 27.6135
v -22.1227 -15.6175 27.5989
v -22.1227 15.8979 27.5989
v -27.5016 15.8979 27.6135
v -27.5016 -22.3177 27.6135
v -22.1227 -22.3177 27.5989
v -22.1227 22.5978 27.5989
v -27.5016 22.5978 27.6135
v -18.1322 23.3273 26.8997
v -18.1322 -22.4967 26.8997
v -16.7395 -22.4967 25.4939
v -16.7395 23.3273 25.4939
v 19.3136 -22.3176 -22.2495
v -19.4727 -22.3176 -22.1442
v -19.4727 -27.6965 -22.1442
v 19.3136 -27.6965 -22.2495
v 22.0986 -27.6965 -22.2574
v 22.0986 -22.3177 -22.2574
v 22.0986 -15.6175 -22.2574
v -22.258 -22.3177 -22.1367
v -22.258 -27.6965 -22.1367
v -19.4727 -20.0629 -22.1442
v 19.3136 -20.0629 -22.2495
v -22.258 -15.6175 -22.1367
v -25.5195 23.3273 -12.2572
v -25.5316 23.3273 -16.7391
v -25.5316 -22.4967 -16.7391
v -25.5195 -22.4967 -12.2572
v -22.1447 -22.3176 19.4346
v -27.5237 -22.3177 19.4492
v -27.5237 -20.0629 19.4492
v -22.1447 -20.0629 19.4346
v 22.2117 22.5978 19.3139
v 27.5906 22.5978 19.2993
v 27.5906 20.3436 19.2993
v 22.2117 20.3436 19.3139
v -10.8577 -22.4967 26.8799
v -10.8577 23.3273 26.8799
v -12.2578 23.3273 25.4814
v -12.2578 -22.4967 25.4814
v 27.6129 -27.6965 27.4635
v 27.5982 -27.6965 22.0846
v 27.5906 -27.6965 19.2993
v 27.5906 -22.3177 19.2993
v 27.5906 -20.0629 19.2993
v -27.6516 -27.6965 -27.501
v -22.2726 -27.6965 -27.5156
v -19.4873 -22.3177 -27.5231
v -19.4873 -27.6965 -27.5231
v -19.4873 -20.0629 -27.5231
v -19.4873 22.5978 -27.5231
v 19.2989 22.5978 -27.6285
v 19.3134 22.5978 -22.25
v -19.4727 22.5978 -22.1442
v 27.4775 -15.6175 -22.272
v 27.4629 -15.6175 -27.651
v 27.4629 15.8979 -27.651
v 27.4776 15.8979 -22.272
v 27.4775 -22.3177 -22.272
v 27.4629 -22.3177 -27.651
v 27.4629 22.5978 -27.651
v 27.4776 22.5978 -22.272
v -27.5016 -15.6175 27.6135
v -27.5016 15.8979 27.6135
v -27.5162 15.8979 22.2345
v -27.5016 22.5978 27.6135
v -27.5162 22.5978 22.2345
v -3.58326 23.3273 26.8601
v -10.8577 23.3273 26.8799
v -10.8577 -22.4967 26.8799
v -3.58326 -22.4967 26.8601
v -26.8982 23.3273 -3.5827
v -26.8982 -22.4967 -3.5827
v -25.492 -22.4967 -2.19011
v -25.492 23.3273 -2.19011
v -22.2726 -15.6175 -27.5156
v -22.258 -15.6175 -22.1367
v -19.4727 -20.0629 -22.1442
v -19.4873 -20.0629 -27.5231
v -22.2844 26.7087 -22.1366
v -22.164 26.7087 22.2201
v -20.1588 26.4291 22.2147
v -20.2792 26.4291 -22.142
v 19.2989 -20.0629 -27.6285
v 19.3136 -20.0629 -22.2495
v 22.0986 -15.6175 -22.2574
v 22.084 -15.6175 -27.6364
v 10.8191 -22.4967 -26.9174
v 10.8191 23.3273 -26.9174
v 12.2193 23.3273 -25.519
v 12.2193 -22.4967 -25.519
v 26.8001 -22.4967 -18.2778
v 26.8001 23.3273 -18.2778
v 25.4017 23.3273 -16.8773
v 25.4017 -22.4967 -16.8773
v -27.6369 27.977 -22.1221
v -27.6516 27.977 -27.501
v -27.6516 22.5978 -27.501
v -27.6369 22.5978 -22.1221
v -27.6295 22.5978 -19.3368
v -27.6369 15.8979 -22.1221
v -27.6295 27.977 -19.3368
v -27.6295 20.3436 -19.3368
v 19.3134 22.5978 -22.25
v 19.2989 22.5978 -27.6285
v 19.2989 20.3436 -27.6285
v 19.3134 20.3436 -22.25
v 22.2193 -15.6175 22.0992
v 22.234 -15.6175 27.4781
v 22.234 15.8979 27.4781
v 22.2193 15.8979 22.0992
v 27.4629 -15.6175 -27.651
v 22.084 -15.6175 -27.6364
v 27.4629 15.8979 -27.651
v 27.4629 -22.3177 -27.651
v 22.084 -22.3177 -27.6364
v 27.5982 27.977 22.0846
v 27.6129 27.977 27.4635
v 27.5906 22.5978 19.2993
v 27.5906 27.977 19.2993
v 27.5906 20.3436 19.2993
v 19.4342 -22.3176 22.107
v 19.4489 -22.3177 27.486
v 19.4489 -20.0629 27.486
v 19.4342 -20.0629 22.107
v -26.8389 -22.4967 18.2403
v -26.8389 23.3273 18.2403
v -25.4404 23.3273 16.8403
v -25.4404 -22.4967 16.8403
v -19.4727 27.977 -22.1442
v 19.3134 27.977 -22.25
v 19.2989 27.977 -27.6285
v -19.4873 27.977 -27.5231
v -22.2726 27.977 -27.5156
v -22.258 27.977 -22.1367
v 22.0987 27.977 -22.2575
v 22.084 27.977 -27.6364
v 27.4776 27.977 -22.272
v 27.4629 27.977 -27.651
v 22.084 27.977 -27.6364
v 22.0987 27.977 -22.2575
v 27.5982 27.977 22.0846
v 22.2193 27.977 22.0992
v 22.234 27.977 27.4781
v 27.6129 27.977 27.4635
v 27.5906 27.977 19.2993
v 27.4851 27.977 -19.4868
v 22.1062 27.977 -19.4722
v 22.2117 27.977 19.3139
v 3.69079 -22.4967 26.8404
v 3.69079 23.3273 26.8404
v 2.29076 23.3273 25.4419
v 2.29076 -22.4967 25.4419
v -27.5237 27.977 19.4492
v -27.6295 27.977 -19.3368
v -27.6295 22.5978 -19.3368
v -27.5237 22.5978 19.4492
v -22.1227 -15.6175 27.5989
v -22.1373 -15.6175 22.2199
v -22.1373 15.8979 22.2199
v -22.1227 15.8979 27.5989
v 22.0986 -15.6175 -22.2574
v 27.4775 -15.6175 -22.272
v 27.4776 15.8979 -22.272
v 22.0987 15.8979 -22.2575
v -22.1246 -22.4967 26.9104
v -18.1322 -22.4967 26.8997
v -18.1322 23.3273 26.8997
v -22.1246 23.3273 26.9104
v 11.028 -27.0997 22.1299
v -10.8649 -27.0997 22.1892
v -10.9856 -27.0997 -22.1674
v 10.9072 -27.0997 -22.2271
v -27.6295 -22.3177 -19.3368
v -22.2505 -22.3176 -19.3514
v -22.2505 -20.0629 -19.3514
v -27.6295 -20.0629 -19.3368
v -27.5016 27.977 27.6135
v -22.1227 27.977 27.5989
v -19.3374 22.5978 27.5914
v -19.3374 27.977 27.5914
v -19.3374 20.3436 27.5914
v 22.0859 -22.4967 -26.9479
v 18.0934 -22.4967 -26.9372
v 18.0934 23.3273 -26.9372
v 22.0859 23.3273 -26.9479
v -27.6369 -15.6175 -22.1221
v -22.258 -15.6175 -22.1367
v -22.258 15.8979 -22.1367
v -27.6369 15.8979 -22.1221
v -22.258 15.8979 -22.1367
v -22.2726 15.8979 -27.5156
v -19.4873 20.3436 -27.5231
v -19.4727 20.3436 -22.1442
v -3.58326 23.3273 26.8601
v -3.58326 -22.4967 26.8601
v -2.19069 -22.4967 25.4539
v -2.19069 23.3273 25.4539
v -27.6516 27.977 -27.501
v -27.6369 27.977 -22.1221
v -22.258 27.977 -22.1367
v -22.2726 27.977 -27.5156
v -22.1373 27.977 22.2199
v -27.5162 27.977 22.2345
v -27.5016 27.977 27.6135
v -22.1227 27.977 27.5989
v -27.6295 27.977 -19.3368
v -27.5237 27.977 19.4492
v -22.1447 27.977 19.4346
v -22.2505 27.977 -19.3514
v -27.6516 -15.6175 -27.501
v -27.6516 15.8979 -27.501
v 10.8668 27.3683 -22.2267
v -11.026 27.3683 -22.1675
v -10.9055 27.3683 22.1896
v 10.9873 27.3683 22.13
v 20.1201 26.4291 -22.2518
v 20.2407 26.4291 22.1048
v 22.2055 26.7029 22.0994
v 22.0848 26.7029 -22.2572
v -26.9377 23.3273 -18.1312
v -26.9377 -22.4967 -18.1312
v -25.5316 -22.4967 -16.7391
v -25.5316 23.3273 -16.7391
v 20.2811 -26.1607 22.1044
v 20.1604 -26.1607 -22.2521
v 22.1252 -26.4347 -22.2576
v 22.2459 -26.4347 22.0994
v 22.2117 22.5978 19.3139
v 22.1062 22.5978 -19.4722
v 27.4851 22.5978 -19.4868
v 27.5906 22.5978 19.2993
v 27.4775 -27.6965 -22.272
v 27.4629 -27.6965 -27.651
v 27.4851 -22.3177 -19.4868
v 27.4851 -27.6965 -19.4868
v 27.4851 -20.0629 -19.4868
v 22.2118 -22.3176 19.3144
v 22.1062 -22.3176 -19.4722
v 22.1062 -27.6965 -19.4722
v 22.2118 -27.6965 19.3144
v 22.0986 -22.3177 -22.2574
v 22.1062 -20.0629 -19.4722
v 22.0986 -27.6965 -22.2574
v 22.2193 -27.6965 22.0992
v 22.2193 -22.3177 22.0992
v 22.2193 -15.6175 22.0992
v 22.0986 -15.6175 -22.2574
v 22.2118 -20.0629 19.3144
v 22.1062 -20.0629 -19.4722
v 27.4851 -20.0629 -19.4868
v 27.4775 -15.6175 -22.272
v 22.0986 -15.6175 -22.2574
v -27.5237 22.5978 19.4492
v -22.1447 22.5978 19.4346
v -22.1447 20.3436 19.4346
v -27.5237 20.3436 19.4492
v -11.0038 23.3273 -26.8577
v -3.72934 23.3273 -26.8775
v -3.72934 -22.4967 -26.8775
v -11.0038 -22.4967 -26.8577
v -22.1447 22.5978 19.4346
v -22.2505 22.5978 -19.3514
v -22.2505 27.977 -19.3514
v -22.1447 27.977 19.4346
v -22.1373 27.977 22.2199
v -22.1373 22.5978 22.2199
v -22.1373 15.8979 22.2199
v -22.258 22.5978 -22.1367
v -22.258 27.977 -22.1367
v -22.2505 20.3436 -19.3514
v -22.1447 20.3436 19.4346
v -22.258 15.8979 -22.1367
v -27.5016 -27.6965 27.6135
v -22.1227 -27.6965 27.5989
v -19.3374 -27.6965 27.5914
v -19.3374 -22.3177 27.5914
v -19.3374 -20.0629 27.5914
v -19.352 22.5978 22.2124
v -19.3374 22.5978 27.5914
v -19.3374 20.3436 27.5914
v -19.352 20.3436 22.2124
v -27.5016 -27.6965 27.6135
v -27.5162 -27.6965 22.2345
v -22.1373 -27.6965 22.2199
v -22.1227 -27.6965 27.5989
v -22.258 -27.6965 -22.1367
v -27.6369 -27.6965 -22.1221
v -27.6516 -27.6965 -27.501
v -22.2726 -27.6965 -27.5156
v -27.5237 -27.6965 19.4492
v -27.6295 -27.6965 -19.3368
v -22.2505 -27.6965 -19.3514
v -22.1447 -27.6965 19.4346
v 19.4342 -27.6965 22.107
v -19.352 -27.6965 22.2124
v -19.352 -22.3176 22.2124
v 19.4342 -22.3176 22.107
v -22.1373 -27.6965 22.2199
v -22.1373 -22.3177 22.2199
v -22.1373 -15.6175 22.2199
v 22.2193 -22.3177 22.0992
v 19.4342 -20.0629 22.107
v 22.2193 -27.6965 22.0992
v -19.352 -20.0629 22.2124
v 22.2193 -15.6175 22.0992
v 25.4412 23.3273 -2.32882
v 25.4535 23.3273 2.15299
v 25.4535 -22.4967 2.15299
v 25.4412 -22.4967 -2.32882
v 22.234 27.977 27.4781
v 27.6129 27.977 27.4635
v 19.4489 27.977 27.486
v 19.4489 22.5978 27.486
v 19.4489 20.3436 27.486
v -19.4873 27.977 -27.5231
v 19.2989 27.977 -27.6285
v 19.2989 22.5978 -27.6285
v -19.4873 22.5978 -27.5231
v 18.2397 -22.4967 26.8009
v 18.2397 23.3273 26.8009
v 16.8395 23.3273 25.4024
v 16.8395 -22.4967 25.4024
v 26.9099 -22.4967 22.0865
v 26.8991 -22.4967 18.0941
v 26.8991 23.3273 18.0941
v 26.9099 23.3273 22.0865
v 16.8395 23.3273 25.4024
v 12.3578 23.3273 25.4144
v 12.3578 -22.4967 25.4144
v 16.8395 -22.4967 25.4024
v -27.5237 22.5978 19.4492
v -27.6295 22.5978 -19.3368
v -22.2505 22.5978 -19.3514
v -22.1447 22.5978 19.4346
v -20.2792 26.4291 -22.142
v -20.1588 26.4291 22.2147
v -13.4243 26.4291 22.1963
v -13.5451 26.4291 -22.1603
v 12.2193 23.3273 -25.519
v 16.7009 23.3273 -25.531
v 16.7009 -22.4967 -25.531
v 12.2193 -22.4967 -25.519
v -27.6295 -22.3177 -19.3368
v -27.5237 -22.3177 19.4492
v -22.1447 -22.3176 19.4346
v -22.2505 -22.3176 -19.3514
v 13.5065 26.4291 22.1232
v 13.3859 26.4291 -22.2339
v 10.8668 27.3683 -22.2267
v 10.9873 27.3683 22.13
v 27.4851 -22.3177 -19.4868
v 27.5906 -22.3177 19.2993
v 27.5906 -27.6965 19.2993
v 27.4851 -27.6965 -19.4868
v 26.8199 23.3273 -11.0033
v 26.8397 23.3273 -3.72884
v 26.8397 -22.4967 -3.72884
v 26.8199 -22.4967 -11.0033
v 22.1062 22.5978 -19.4722
v 22.2117 22.5978 19.3139
v 22.2117 27.977 19.3139
v 22.1062 27.977 -19.4722
v 22.2193 22.5978 22.0992
v 22.2117 20.3436 19.3139
v 22.2193 27.977 22.0992
v 22.0987 27.977 -22.2575
v 22.0987 22.5978 -22.2575
v 22.0987 15.8979 -22.2575
v 22.2193 15.8979 22.0992
v 22.1062 20.3436 -19.4722
v 22.084 -27.6965 -27.6364
v 27.4629 -27.6965 -27.651
v 19.2989 -27.6965 -27.6285
v 19.2989 -22.3177 -27.6285
v 19.2989 -20.0629 -27.6285
v -11.0038 23.3273 -26.8577
v -11.0038 -22.4967 -26.8577
v -12.3965 -22.4967 -25.4519
v -12.3965 23.3273 -25.4519
v 18.2397 23.3273 26.8009
v 18.2397 -22.4967 26.8009
v 22.2322 -22.4967 26.7901
v 22.2322 23.3273 26.7901
v 26.8199 23.3273 -11.0033
v 26.8199 -22.4967 -11.0033
v 25.4138 -22.4967 -12.396
v 25.4138 23.3273 -12.396
v -19.4873 22.5978 -27.5231
v -19.4727 22.5978 -22.1442
v -19.4727 20.3436 -22.1442
v -19.4873 20.3436 -27.5231
v -25.4404 23.3273 16.8403
v -25.4525 23.3273 12.3584
v -25.4525 -22.4967 12.3584
v -25.4404 -22.4967 16.8403
v 13.4263 -26.1607 -22.2338
v 13.5471 -26.1607 22.1227
v 11.028 -27.0997 22.1299
v 10.9072 -27.0997 -22.2271
v 27.4629 27.977 -27.651
v 27.4776 27.977 -22.272
v 27.4851 27.977 -19.4868
v 27.4851 22.5978 -19.4868
v 27.4851 20.3436 -19.4868
v 19.3134 27.977 -22.25
v -19.4727 27.977 -22.1442
v -19.4727 22.5978 -22.1442
v 19.3134 22.5978 -22.25
v -22.258 27.977 -22.1367
v -22.258 22.5978 -22.1367
v -22.258 15.8979 -22.1367
v 22.0987 22.5978 -22.2575
v 19.3134 20.3436 -22.25
v 22.0987 27.977 -22.2575
v -19.4727 20.3436 -22.1442
v 22.0987 15.8979 -22.2575
v 22.084 -15.6175 -27.6364
v 22.0986 -15.6175 -22.2574
v 22.0987 15.8979 -22.2575
v 22.084 15.8979 -27.6364
v 19.4489 20.3436 27.486
v 19.4342 20.3436 22.107
v 22.2193 15.8979 22.0992
v 22.234 15.8979 27.4781
v -22.1373 -15.6175 22.2199
v -22.1227 -15.6175 27.5989
v -19.3374 -20.0629 27.5914
v -19.352 -20.0629 22.2124
v -13.5451 26.4291 -22.1603
v -13.4243 26.4291 22.1963
v -10.9055 27.3683 22.1896
v -11.026 27.3683 -22.1675
v 27.5982 -15.6175 22.0846
v 22.2193 -15.6175 22.0992
v 22.2193 15.8979 22.0992
v 27.5982 15.8979 22.0846
v -19.4727 -22.3176 -22.1442
v 19.3136 -22.3176 -22.2495
v 19.2989 -22.3177 -27.6285
v -19.4873 -22.3177 -27.5231
v -27.6516 27.977 -27.501
v -22.2726 27.977 -27.5156
v -19.4873 27.977 -27.5231
v -19.4873 22.5978 -27.5231
v -19.4873 20.3436 -27.5231
v 2.29076 23.3273 25.4419
v -2.19069 23.3273 25.4539
v -2.19069 -22.4967 25.4539
v 2.29076 -22.4967 25.4419
v 26.8594 23.3273 3.54518
v 26.8792 23.3273 10.8197
v 26.8792 -22.4967 10.8197
v 26.8594 -22.4967 3.54518
v -26.8587 23.3273 10.9658
v -26.8587 -22.4967 10.9658
v -25.4525 -22.4967 12.3584
v -25.4525 23.3273 12.3584
v -27.5162 27.977 22.2345
v -27.5016 27.977 27.6135
v -27.5237 27.977 19.4492
v -27.5237 22.5978 19.4492
v -27.5237 20.3436 19.4492
v 18.0934 23.3273 -26.9372
v 18.0934 -22.4967 -26.9372
v 16.7009 -22.4967 -25.531
v 16.7009 23.3273 -25.531
v 22.2117 20.3436 19.3139
v 27.5906 20.3436 19.2993
v 27.5982 15.8979 22.0846
v 22.2193 15.8979 22.0992
v -2.32942 23.3273 -25.4795
v 2.15219 23.3273 -25.4915
v 2.15219 -22.4967 -25.4915
v -2.32942 -22.4967 -25.4795
v 27.5906 22.5978 19.2993
v 27.4851 22.5978 -19.4868
v 27.4851 27.977 -19.4868
v 27.5906 27.977 19.2993
v 27.5982 -27.6965 22.0846
v 27.6129 -27.6965 27.4635
v 22.234 -27.6965 27.4781
v 22.2193 -27.6965 22.0992
v 27.4775 -27.6965 -22.272
v 22.0986 -27.6965 -22.2574
v 22.084 -27.6965 -27.6364
v 27.4629 -27.6965 -27.651
v 27.4851 -27.6965 -19.4868
v 27.5906 -27.6965 19.2993
v 22.2118 -27.6965 19.3144
v 22.1062 -27.6965 -19.4722
v -22.258 -15.6175 -22.1367
v -22.2726 -15.6175 -27.5156
v -22.2726 15.8979 -27.5156
v -22.258 15.8979 -22.1367
v -22.1227 15.8979 27.5989
v -22.1373 15.8979 22.2199
v -19.352 20.3436 22.2124
v -19.3374 20.3436 27.5914
v -16.8778 23.3273 -25.4396
v -12.3965 23.3273 -25.4519
v -12.3965 -22.4967 -25.4519
v -16.8778 -22.4967 -25.4396
v 22.2193 -15.6175 22.0992
v 27.5982 -15.6175 22.0846
v 27.5906 -20.0629 19.2993
v 22.2118 -20.0629 19.3144
v 27.5906 -22.3177 19.2993
v 22.2118 -22.3176 19.3144
v 22.2118 -20.0629 19.3144
v 27.5906 -20.0629 19.2993
vt 0.858923 0.759717
vt 0.858882 0.998041
vt 0.891933 0.998047
vt 0.891974 0.759722
vt 0.929595 0.473899
vt 0.929618 0.712224
vt 0.962669 0.712221
vt 0.962646 0.473896
vt 0.927776 0.397811
vt 0.960826 0.397806
vt 0.960797 0.204159
vt 0.927746 0.204164
vt 0.927782 0.43898
vt 0.960833 0.438975
vt 0.96079 0.162989
vt 0.927739 0.162994
vt 0.283548 0.961326
vt 0.283545 0.933789
vt 0.001977 0.933818
vt 0.00198 0.961355
vt 0.961829 0.037234
vt 0.723504 0.037231
vt 0.723504 0.070282
vt 0.961828 0.070285
vt 0.283528 0.768218
vt 0.283525 0.740681
vt 0.001957 0.740711
vt 0.00196 0.768248
vt 0.001971 0.876961
vt 0.283539 0.876932
vt 0.283538 0.864772
vt 0.00197 0.864801
vt 0.285737 0.876961
vt 0.567305 0.876957
vt 0.567305 0.864798
vt 0.285737 0.864801
vt 0.475911 0.350044
vt 0.714236 0.350054
vt 0.714237 0.317003
vt 0.475913 0.316993
vt 0.458799 0.316993
vt 0.458798 0.350043
vt 0.458796 0.391213
vt 0.73135 0.350055
vt 0.731351 0.317004
vt 0.714235 0.363908
vt 0.475911 0.363898
vt 0.731348 0.391223
vt 0.283534 0.825076
vt 0.001966 0.825105
vt 0.001967 0.837264
vt 0.283535 0.837235
vt 0.414082 0.648582
vt 0.14153 0.648523
vt 0.141521 0.689901
vt 0.414073 0.68996
vt 0.823617 0.998047
vt 0.856668 0.998041
vt 0.856665 0.984187
vt 0.823615 0.984193
vt 0.929644 0.984193
vt 0.962695 0.98419
vt 0.962692 0.951956
vt 0.929641 0.951959
vt 0.475913 0.316993
vt 0.714237 0.317003
vt 0.714238 0.283952
vt 0.475914 0.283942
vt 0.4588 0.283942
vt 0.458799 0.316993
vt 0.731351 0.317004
vt 0.731353 0.283953
vt 0.567303 0.728548
vt 0.285736 0.728551
vt 0.285736 0.74071
vt 0.567303 0.740707
vt 0.646048 0.402085
vt 0.646043 0.64041
vt 0.679094 0.64041
vt 0.679098 0.402086
vt 0.679099 0.384972
vt 0.646048 0.384971
vt 0.604879 0.384971
vt 0.646043 0.657524
vt 0.679094 0.657525
vt 0.632189 0.64041
vt 0.632194 0.402085
vt 0.604874 0.657523
vt 0.241689 0.249025
vt 0.048041 0.249026
vt 0.048041 0.282077
vt 0.241689 0.282075
vt 0.283549 0.973485
vt 0.001981 0.973515
vt 0.001984 0.998047
vt 0.283551 0.998018
vt 0.998023 0.713632
vt 0.964972 0.713635
vt 0.964975 0.745868
vt 0.998025 0.745866
vt 0.285736 0.780407
vt 0.285737 0.825104
vt 0.567304 0.825101
vt 0.567304 0.780404
vt 0.873697 0.438977
vt 0.840646 0.438971
vt 0.84064 0.472021
vt 0.87369 0.472028
vt 0.823532 0.438968
vt 0.823525 0.472018
vt 0.840654 0.397802
vt 0.823534 0.425113
vt 0.998002 0.473897
vt 0.964951 0.4739
vt 0.964953 0.487754
vt 0.998003 0.487751
vt 0.001953 0.704019
vt 0.001956 0.728551
vt 0.283524 0.728522
vt 0.283521 0.703989
vt 0.414118 0.481022
vt 0.141566 0.480963
vt 0.141562 0.497482
vt 0.414115 0.497541
vt 0.484403 0.702148
vt 0.484448 0.463824
vt 0.451397 0.463817
vt 0.451352 0.702142
vt 0.283524 0.728522
vt 0.001956 0.728551
vt 0.001957 0.740711
vt 0.283525 0.740681
vt 0.283544 0.921629
vt 0.283539 0.876932
vt 0.001971 0.876961
vt 0.001976 0.921659
vt 0.414127 0.439644
vt 0.141575 0.439585
vt 0.141566 0.480963
vt 0.414118 0.481022
vt 0.85662 0.726072
vt 0.823569 0.726078
vt 0.823575 0.758312
vt 0.856626 0.758306
vt 0.614081 0.108151
vt 0.614082 0.0751
vt 0.420434 0.075098
vt 0.420434 0.108148
vt 0.65525 0.108152
vt 0.655251 0.075101
vt 0.379265 0.075097
vt 0.379265 0.108148
vt 0.31099 0.075081
vt 0.310989 0.108132
vt 0.34404 0.108133
vt 0.344041 0.075082
vt 0.310989 0.125246
vt 0.34404 0.125247
vt 0.26982 0.108131
vt 0.297135 0.125246
vt 0.283534 0.825076
vt 0.283529 0.780378
vt 0.001961 0.780407
vt 0.001966 0.825105
vt 0.24247 0.073201
vt 0.480793 0.073229
vt 0.480797 0.040178
vt 0.242474 0.040151
vt 0.285736 0.728551
vt 0.567303 0.728548
vt 0.567303 0.704015
vt 0.285735 0.704019
vt 0.344043 0.1602
vt 0.344047 0.12715
vt 0.310996 0.127146
vt 0.310992 0.160196
vt 0.31099 0.177311
vt 0.269823 0.160191
vt 0.344041 0.177315
vt 0.297136 0.177309
vt 0.048041 0.282077
vt 0.048041 0.249026
vt 0.015807 0.249027
vt 0.015808 0.282077
vt 0.85666 0.951954
vt 0.823609 0.951959
vt 0.823615 0.984193
vt 0.856665 0.984187
vt 0.001961 0.780407
vt 0.283529 0.780378
vt 0.283528 0.768218
vt 0.00196 0.768248
vt 0.688305 0.144284
vt 0.655254 0.14428
vt 0.65525 0.177331
vt 0.688301 0.177335
vt 0.688307 0.12717
vt 0.655256 0.127166
vt 0.641402 0.127164
vt 0.614085 0.144275
vt 0.273922 0.282075
vt 0.273922 0.249024
vt 0.241689 0.249025
vt 0.241689 0.282075
vt 0.285738 0.933818
vt 0.285738 0.961355
vt 0.567306 0.961352
vt 0.567306 0.933815
vt 0.285736 0.780407
vt 0.567304 0.780404
vt 0.567304 0.768244
vt 0.285736 0.768248
vt 0.747252 0.706497
vt 0.747271 0.468173
vt 0.71422 0.46817
vt 0.714201 0.706495
vt 0.7142 0.723609
vt 0.74725 0.723611
vt 0.747272 0.451059
vt 0.714221 0.451056
vt 0.927357 0.487754
vt 0.894307 0.48775
vt 0.894302 0.519983
vt 0.927353 0.519988
vt 0.001953 0.212231
vt 0.240277 0.212233
vt 0.240278 0.179182
vt 0.001954 0.17918
vt 0.964976 0.759723
vt 0.998027 0.75972
vt 0.998025 0.745866
vt 0.964975 0.745868
vt 0.567304 0.825101
vt 0.285737 0.825104
vt 0.285737 0.837264
vt 0.567304 0.837261
vt 0.414082 0.648582
vt 0.14153 0.648523
vt 0.141521 0.689901
vt 0.414073 0.68996
vt 0.283538 0.864772
vt 0.283535 0.837235
vt 0.001967 0.837264
vt 0.00197 0.864801
vt 0.89427 0.759718
vt 0.927321 0.759723
vt 0.927323 0.745869
vt 0.894272 0.745864
vt 0.001961 0.780407
vt 0.283529 0.780378
vt 0.283528 0.768218
vt 0.00196 0.768248
vt 0.285737 0.876961
vt 0.285738 0.921658
vt 0.567305 0.921655
vt 0.567305 0.876957
vt 0.283549 0.973485
vt 0.001981 0.973515
vt 0.001984 0.998047
vt 0.283551 0.998018
vt 0.5261 0.247154
vt 0.5261 0.214103
vt 0.512246 0.214103
vt 0.512245 0.247154
vt 0.962669 0.712221
vt 0.929618 0.712224
vt 0.929619 0.726078
vt 0.96267 0.726075
vt 0.858923 0.759717
vt 0.891974 0.759722
vt 0.891976 0.745868
vt 0.858926 0.745862
vt 0.001971 0.876961
vt 0.283539 0.876932
vt 0.283538 0.864772
vt 0.00197 0.864801
vt 0.873704 0.397808
vt 0.873741 0.20416
vt 0.84069 0.204154
vt 0.873749 0.162991
vt 0.840698 0.162985
vt 0.747272 0.98093
vt 0.747252 0.742606
vt 0.714201 0.742609
vt 0.714221 0.980933
vt 0.714222 0.998047
vt 0.747273 0.998044
vt 0.74725 0.725492
vt 0.7142 0.725495
vt 0.416041 0.463817
vt 0.415996 0.702142
vt 0.449047 0.702148
vt 0.449092 0.463823
vt 0.41413 0.427203
vt 0.141577 0.427145
vt 0.141575 0.439585
vt 0.414127 0.439644
vt 0.875644 0.397802
vt 0.908695 0.397808
vt 0.908731 0.20416
vt 0.875681 0.204154
vt 0.875636 0.438971
vt 0.908687 0.438977
vt 0.908739 0.16299
vt 0.875688 0.162984
vt 0.285738 0.973515
vt 0.567306 0.973511
vt 0.567306 0.961352
vt 0.285738 0.961355
vt 0.780303 0.7065
vt 0.780322 0.468176
vt 0.747271 0.468173
vt 0.747252 0.706497
vt 0.74725 0.723611
vt 0.780301 0.723614
vt 0.82147 0.723617
vt 0.780323 0.451061
vt 0.747272 0.451059
vt 0.794176 0.468177
vt 0.794156 0.706501
vt 0.821492 0.451065
vt 0.283528 0.768218
vt 0.283525 0.740681
vt 0.001957 0.740711
vt 0.00196 0.768248
vt 0.001953 0.249027
vt 0.001953 0.282078
vt 0.015808 0.282077
vt 0.015807 0.249027
vt 0.5261 0.212235
vt 0.526101 0.179184
vt 0.512247 0.179184
vt 0.512246 0.212235
vt 0.567305 0.921655
vt 0.285738 0.921658
vt 0.285738 0.933818
vt 0.567306 0.933815
vt 0.927787 0.472031
vt 0.960838 0.472026
vt 0.977952 0.472023
vt 0.977947 0.438972
vt 0.977945 0.425118
vt 0.688302 0.075102
vt 0.688301 0.108152
vt 0.65525 0.125266
vt 0.688301 0.125266
vt 0.641396 0.125266
vt 0.240277 0.214101
vt 0.001953 0.214099
vt 0.001953 0.24715
vt 0.240277 0.247152
vt 0.750429 0.374967
vt 0.78348 0.374962
vt 0.78345 0.181315
vt 0.750399 0.18132
vt 0.750435 0.416136
vt 0.783486 0.416131
vt 0.783443 0.140146
vt 0.750393 0.140151
vt 0.269827 0.127141
vt 0.076179 0.127117
vt 0.076176 0.160168
vt 0.03501 0.127113
vt 0.035006 0.160164
vt 0.285737 0.876961
vt 0.285738 0.921658
vt 0.567305 0.921655
vt 0.567305 0.876957
vt 0.283534 0.825076
vt 0.001966 0.825105
vt 0.001967 0.837264
vt 0.283535 0.837235
vt 0.480012 0.214103
vt 0.480012 0.247154
vt 0.512245 0.247154
vt 0.512246 0.214103
vt 0.41413 0.427203
vt 0.141577 0.427145
vt 0.141575 0.439585
vt 0.414127 0.439644
vt 0.894272 0.745864
vt 0.927323 0.745869
vt 0.927327 0.713635
vt 0.894276 0.713631
vt 0.567305 0.921655
vt 0.285738 0.921658
vt 0.285738 0.933818
vt 0.567306 0.933815
vt 0.001981 0.973515
vt 0.283549 0.973485
vt 0.283548 0.961326
vt 0.00198 0.961355
vt 0.346217 0.144243
vt 0.346213 0.177294
vt 0.379264 0.177298
vt 0.379268 0.144247
vt 0.37927 0.127133
vt 0.420437 0.144252
vt 0.346219 0.127129
vt 0.393124 0.127135
vt 0.927359 0.4739
vt 0.894308 0.473896
vt 0.894307 0.48775
vt 0.927357 0.487754
vt 0.929641 0.951959
vt 0.962692 0.951956
vt 0.962673 0.758308
vt 0.929622 0.758312
vt 0.076174 0.075077
vt 0.076173 0.108128
vt 0.269821 0.07508
vt 0.035005 0.075076
vt 0.035004 0.108127
vt 0.960785 0.129938
vt 0.927734 0.129944
vt 0.977904 0.162987
vt 0.977899 0.129936
vt 0.977906 0.176841
vt 0.929645 0.998047
vt 0.962696 0.998044
vt 0.962695 0.98419
vt 0.929644 0.984193
vt 0.001981 0.973515
vt 0.283549 0.973485
vt 0.283548 0.961326
vt 0.00198 0.961355
vt 0.36672 0.392243
vt 0.128396 0.392225
vt 0.128393 0.425275
vt 0.366717 0.425294
vt 0.383832 0.425295
vt 0.383834 0.392244
vt 0.111281 0.392223
vt 0.111279 0.425274
vt 0.602835 0.429597
vt 0.602837 0.396546
vt 0.569786 0.396544
vt 0.569784 0.429595
vt 0.602819 0.702149
vt 0.569768 0.702147
vt 0.569766 0.735198
vt 0.602817 0.7352
vt 0.60282 0.685035
vt 0.602834 0.446711
vt 0.569783 0.446709
vt 0.569769 0.685033
vt 0.567304 0.825101
vt 0.285737 0.825104
vt 0.285737 0.837264
vt 0.567304 0.837261
vt 0.240282 0.040161
vt 0.001957 0.040132
vt 0.001953 0.073183
vt 0.240278 0.073212
vt 0.858931 0.713629
vt 0.891982 0.713635
vt 0.892015 0.519987
vt 0.858965 0.519981
vt 0.998006 0.519984
vt 0.964955 0.519987
vt 0.964972 0.713635
vt 0.998023 0.713632
vt 0.567306 0.998044
vt 0.567306 0.973511
vt 0.285738 0.973515
vt 0.285739 0.998047
vt 0.414086 0.632063
vt 0.414115 0.497541
vt 0.141562 0.497482
vt 0.141533 0.632004
vt 0.856618 0.712218
vt 0.823567 0.712224
vt 0.823569 0.726078
vt 0.85662 0.726072
vt 0.875695 0.129934
vt 0.908745 0.12994
vt 0.925853 0.162994
vt 0.925859 0.129943
vt 0.925851 0.176848
vt 0.567306 0.998044
vt 0.567306 0.973511
vt 0.285738 0.973515
vt 0.285739 0.998047
vt 0.856626 0.758306
vt 0.823575 0.758312
vt 0.823609 0.951959
vt 0.85666 0.951954
vt 0.286365 0.247152
vt 0.286365 0.214101
vt 0.254131 0.214101
vt 0.254131 0.247152
vt 0.285737 0.876961
vt 0.567305 0.876957
vt 0.567305 0.864798
vt 0.285737 0.864801
vt 0.001953 0.363496
vt 0.001957 0.396547
vt 0.035007 0.396544
vt 0.035004 0.363493
vt 0.035036 0.669096
vt 0.001985 0.669099
vt 0.001989 0.70215
vt 0.035039 0.702147
vt 0.001958 0.413661
vt 0.001983 0.651985
vt 0.035034 0.651982
vt 0.035009 0.413658
vt 0.614081 0.177326
vt 0.420433 0.177303
vt 0.414086 0.632063
vt 0.414115 0.497541
vt 0.141562 0.497482
vt 0.141533 0.632004
vt 0.414073 0.68996
vt 0.141521 0.689901
vt 0.141518 0.70209
vt 0.41407 0.702149
vt 0.283524 0.728522
vt 0.001956 0.728551
vt 0.001957 0.740711
vt 0.283525 0.740681
vt 0.414073 0.68996
vt 0.141521 0.689901
vt 0.141518 0.70209
vt 0.41407 0.702149
vt 0.998047 0.998044
vt 0.998027 0.75972
vt 0.964976 0.759723
vt 0.964996 0.998047
vt 0.750441 0.449187
vt 0.783491 0.449182
vt 0.733321 0.416139
vt 0.733327 0.449189
vt 0.733319 0.402285
vt 0.670977 0.947883
vt 0.670987 0.709559
vt 0.637937 0.709558
vt 0.637926 0.947882
vt 0.670988 0.692445
vt 0.684842 0.70956
vt 0.637938 0.692444
vt 0.637926 0.964996
vt 0.670977 0.964997
vt 0.712146 0.964999
vt 0.712157 0.692447
vt 0.684831 0.947884
vt 0.998003 0.487751
vt 0.964953 0.487754
vt 0.964955 0.519987
vt 0.998006 0.519984
vt 0.287776 0.282075
vt 0.287776 0.249024
vt 0.273922 0.249024
vt 0.273922 0.282075
vt 0.285736 0.780407
vt 0.285737 0.825104
vt 0.567304 0.825101
vt 0.567304 0.780404
vt 0.068085 0.651978
vt 0.06806 0.413654
vt 0.035009 0.413658
vt 0.035034 0.651982
vt 0.035036 0.669096
vt 0.068087 0.669092
vt 0.109256 0.669088
vt 0.068058 0.39654
vt 0.035007 0.396544
vt 0.081914 0.413653
vt 0.081939 0.651977
vt 0.109227 0.396536
vt 0.87563 0.472022
vt 0.908681 0.472028
vt 0.925795 0.472031
vt 0.925801 0.438981
vt 0.925803 0.425126
vt 0.892023 0.473899
vt 0.858973 0.473894
vt 0.85897 0.487748
vt 0.892021 0.487753
vt 0.712144 0.690576
vt 0.712145 0.657525
vt 0.679094 0.657525
vt 0.679093 0.690575
vt 0.679099 0.384972
vt 0.71215 0.384973
vt 0.71215 0.351922
vt 0.679099 0.351921
vt 0.712145 0.640411
vt 0.71215 0.402087
vt 0.679098 0.402086
vt 0.679094 0.64041
vt 0.747252 0.742606
vt 0.747272 0.98093
vt 0.780323 0.980927
vt 0.780303 0.742603
vt 0.747273 0.998044
vt 0.780324 0.998041
vt 0.821493 0.998038
vt 0.780301 0.725489
vt 0.794157 0.742602
vt 0.74725 0.725492
vt 0.794177 0.980926
vt 0.82147 0.725486
vt 0.283538 0.864772
vt 0.283535 0.837235
vt 0.001967 0.837264
vt 0.00197 0.864801
vt 0.840705 0.129934
vt 0.873756 0.129941
vt 0.82359 0.129931
vt 0.823584 0.162982
vt 0.823581 0.176836
vt 0.482987 0.070313
vt 0.721311 0.070316
vt 0.721312 0.037265
vt 0.482988 0.037262
vt 0.567303 0.728548
vt 0.285736 0.728551
vt 0.285736 0.74071
vt 0.567303 0.740707
vt 0.001953 0.704019
vt 0.001956 0.728551
vt 0.283524 0.728522
vt 0.283521 0.703989
vt 0.285736 0.74071
vt 0.285736 0.768248
vt 0.567304 0.768244
vt 0.567303 0.740707
vt 0.287776 0.282075
vt 0.526101 0.282073
vt 0.526101 0.249022
vt 0.287776 0.249024
vt 0.414127 0.439644
vt 0.141575 0.439585
vt 0.141566 0.480963
vt 0.414118 0.481022
vt 0.285738 0.933818
vt 0.285738 0.961355
vt 0.567306 0.961352
vt 0.567306 0.933815
vt 0.856618 0.712218
vt 0.856576 0.473894
vt 0.823525 0.4739
vt 0.823567 0.712224
vt 0.14153 0.648523
vt 0.414082 0.648582
vt 0.414086 0.632063
vt 0.141533 0.632004
vt 0.36635 0.306801
vt 0.128027 0.306838
vt 0.128032 0.339889
vt 0.366355 0.339852
vt 0.283544 0.921629
vt 0.283539 0.876932
vt 0.001971 0.876961
vt 0.001976 0.921659
vt 0.536732 0.446707
vt 0.536718 0.685031
vt 0.569769 0.685033
vt 0.569783 0.446709
vt 0.536717 0.702145
vt 0.522864 0.68503
vt 0.569768 0.702147
vt 0.569784 0.429595
vt 0.536734 0.429593
vt 0.495564 0.42959
vt 0.495548 0.702143
vt 0.522878 0.446706
vt 0.001953 0.108127
vt 0.001954 0.075076
vt 0.001953 0.12524
vt 0.035004 0.125241
vt 0.048858 0.125241
vt 0.285736 0.780407
vt 0.567304 0.780404
vt 0.567304 0.768244
vt 0.285736 0.768248
vt 0.285736 0.728551
vt 0.567303 0.728548
vt 0.567303 0.704015
vt 0.285735 0.704019
vt 0.283544 0.921629
vt 0.001976 0.921659
vt 0.001977 0.933818
vt 0.283545 0.933789
vt 0.240277 0.214101
vt 0.240277 0.247152
vt 0.254131 0.247152
vt 0.254131 0.214101
vt 0.283548 0.961326
vt 0.283545 0.933789
vt 0.001977 0.933818
vt 0.00198 0.961355
vt 0.14153 0.648523
vt 0.414082 0.648582
vt 0.414086 0.632063
vt 0.141533 0.632004
vt 0.783438 0.107095
vt 0.750388 0.1071
vt 0.733274 0.107102
vt 0.733279 0.140153
vt 0.733281 0.154007
vt 0.128396 0.392225
vt 0.36672 0.392243
vt 0.366723 0.359192
vt 0.128398 0.359174
vt 0.383834 0.392244
vt 0.383837 0.359194
vt 0.38384 0.318024
vt 0.111284 0.359172
vt 0.128399 0.34532
vt 0.111281 0.392223
vt 0.366724 0.345338
vt 0.111287 0.318003
vt 0.894276 0.713631
vt 0.927327 0.713635
vt 0.927353 0.519988
vt 0.894302 0.519983
vt 0.96267 0.726075
vt 0.929619 0.726078
vt 0.929622 0.758312
vt 0.962673 0.758308
vt 0.891982 0.713635
vt 0.858931 0.713629
vt 0.858926 0.745862
vt 0.891976 0.745868
vt 0.414118 0.481022
vt 0.141566 0.480963
vt 0.141562 0.497482
vt 0.414115 0.497541
vt 0.286365 0.179182
vt 0.286365 0.212233
vt 0.480013 0.212234
vt 0.480013 0.179184
vt 0.927289 0.998047
vt 0.927321 0.759723
vt 0.89427 0.759718
vt 0.894238 0.998043
vt 0.346214 0.075096
vt 0.346214 0.108147
vt 0.346213 0.125261
vt 0.379264 0.125262
vt 0.393118 0.125262
vt 0.285737 0.837264
vt 0.285737 0.864801
vt 0.567305 0.864798
vt 0.567304 0.837261
vt 0.283534 0.825076
vt 0.283529 0.780378
vt 0.001961 0.780407
vt 0.001966 0.825105
vt 0.283544 0.921629
vt 0.001976 0.921659
vt 0.001977 0.933818
vt 0.283545 0.933789
vt 0.001956 0.160159
vt 0.001959 0.127109
vt 0.001953 0.177274
vt 0.035004 0.177278
vt 0.048858 0.177279
vt 0.285738 0.973515
vt 0.567306 0.973511
vt 0.567306 0.961352
vt 0.285738 0.961355
vt 0.512246 0.212235
vt 0.512247 0.179184
vt 0.480013 0.179184
vt 0.480013 0.212234
vt 0.285737 0.837264
vt 0.285737 0.864801
vt 0.567305 0.864798
vt 0.567304 0.837261
vt 0.690479 0.10524
vt 0.928803 0.105204
vt 0.928798 0.072153
vt 0.690474 0.07219
vt 0.604875 0.964995
vt 0.604874 0.998045
vt 0.637924 0.998047
vt 0.637926 0.964996
vt 0.604887 0.692442
vt 0.637938 0.692444
vt 0.637939 0.659393
vt 0.604888 0.659391
vt 0.604886 0.709556
vt 0.604876 0.947881
vt 0.637926 0.947882
vt 0.637937 0.709558
vt 0.480012 0.247154
vt 0.480012 0.214103
vt 0.286365 0.214101
vt 0.286365 0.247152
vt 0.858965 0.519981
vt 0.892015 0.519987
vt 0.892021 0.487753
vt 0.85897 0.487748
vt 0.285736 0.74071
vt 0.285736 0.768248
vt 0.567304 0.768244
vt 0.567303 0.740707
vt 0.286365 0.212233
vt 0.286365 0.179182
vt 0.254132 0.179182
vt 0.254132 0.212233
vt 0.240278 0.179182
vt 0.240277 0.212233
vt 0.254132 0.212233
vt 0.254132 0.179182
vn -0 1 -0
vn -0 1 -0
vn -0 1 -0
vn -0 1 -0
vn 0 -1 0
vn 0 -1 0
vn 0 -1 0
vn 0 -1 0
vn 0.999996 -0 -0.002723
vn 0.999996 -0 -0.002723
vn 0.999996 -0 -0.002723
vn 0.999996 -0 -0.002723
vn 0.999996 -0 -0.002723
vn 0.999996 -0 -0.002723
vn 0.999996 -0 -0.002722
vn 0.999996 -0 -0.002722
vn 0.999996 -0 -0.002721
vn 0.999996 -0 -0.002721
vn 0.999996 -0 -0.002721
vn 0.999996 -0 -0.002721
vn -0.002721 0 -0.999996
vn -0.002721 0 -0.999996
vn -0.002722 0 -0.999996
vn -0.002722 0 -0.999996
vn 0.999996 -0 -0.002722
vn 0.999996 -0 -0.002722
vn 0.999996 -0 -0.002722
vn 0.999996 -0 -0.002722
vn 0.70755 -0 0.706663
vn 0.70755 -0 0.706663
vn 0.70755 -0 0.706663
vn 0.70755 -0 0.706663
vn -0.710505 0 -0.703692
vn -0.710505 0 -0.703692
vn -0.710505 0 -0.703692
vn -0.710505 0 -0.703692
vn -0.002723 -0 -0.999996
vn -0.002721 0 -0.999996
vn -0.002722 0 -0.999996
vn -0.002722 0 -0.999996
vn -0.002724 0 -0.999996
vn -0.002728 -1e-06 -0.999996
vn -0.002732 -2e-06 -0.999996
vn -0.002716 0 -0.999996
vn -0.002716 0 -0.999996
vn -0.002716 0 -0.999996
vn -0.002732 -2e-06 -0.999996
vn -0.002716 0 -0.999996
vn 0.703695 0 -0.710502
vn 0.703695 0 -0.710502
vn 0.703695 0 -0.710502
vn 0.703695 0 -0.710502
vn 0 -1 0
vn 0 -1 0
vn 0 -1 0
vn 0 -1 0
vn 0.002723 -0 0.999996
vn 0.002723 -0 0.999996
vn 0.002723 -0 0.999996
vn 0.002723 -0 0.999996
vn -0.847411 0.530932 0.002306
vn -0.847411 0.530932 0.002306
vn -0.847411 0.530932 0.002306
vn -0.847411 0.530932 0.002306
vn -0 1 -0
vn -0 1 -0
vn -0 1 -0
vn -0 1 -0
vn -0 1 -0
vn -0 1 -0
vn -0 1 -0
vn -0 1 -0
vn 0.706666 0 -0.707547
vn 0.706666 0 -0.707547
vn 0.706666 0 -0.707547
vn 0.706666 0 -0.707547
vn 0.999996 -0 -0.002722
vn 0.999996 -0 -0.002721
vn 0.999996 -0 -0.002721
vn 0.999996 -0 -0.002722
vn 0.999996 -0 -0.002723
vn 0.999996 -0 -0.002723
vn 0.999996 -0 -0.002722
vn 0.999996 -0 -0.002719
vn 0.999996 -0 -0.002719
vn 0.999996 -0 -0.002719
vn 0.999996 -0 -0.002722
vn 0.999996 -0 -0.002719
vn -0.002721 -1e-06 -0.999996
vn -0.002721 -1e-06 -0.999996
vn -0.002721 -1e-06 -0.999996
vn -0.002721 -1e-06 -0.999996
vn -0.999996 0 0.002719
vn -0.999996 0 0.002719
vn -0.999996 0 0.002719
vn -0.999996 0 0.002719
vn 0.002307 -0.530929 0.847413
vn 0.002307 -0.530929 0.847413
vn 0.002307 -0.530929 0.847413
vn 0.002307 -0.530929 0.847413
vn 0.002719 -0 0.999996
vn 0.002719 -0 0.999996
vn 0.002719 -0 0.999996
vn 0.002719 -0 0.999996
vn 0.002719 -0 0.999996
vn 0.00272 -0 0.999996
vn 0.002719 -0 0.999996
vn 0.002719 -0 0.999996
vn 0.002722 -0 0.999996
vn 0.002722 -0 0.999996
vn 0.002723 -0 0.999996
vn 0.002723 -0 0.999996
vn 0.002719 -0 0.999996
vn 0.002719 -0 0.999996
vn 0.002719 -0 0.999996
vn 0.002719 -0 0.999996
vn -0.999996 0 0.00272
vn -0.999996 0 0.00272
vn -0.999996 0 0.00272
vn -0.999996 0 0.00272
vn -0.349253 -0.937028 0.00095
vn -0.349253 -0.937028 0.00095
vn -0.349253 -0.937028 0.00095
vn -0.349253 -0.937028 0.00095
vn 0.002722 -0 0.999996
vn 0.002722 -0 0.999996
vn 0.002722 -0 0.999996
vn 0.002722 -0 0.999996
vn 0.703692 0 -0.710505
vn 0.703692 0 -0.710505
vn 0.703692 0 -0.710505
vn 0.703692 0 -0.710505
vn -0.999996 0 0.002721
vn -0.999996 0 0.002721
vn -0.999996 0 0.002721
vn -0.999996 0 0.002721
vn 0 -1 0
vn 0 -1 0
vn 0 -1 0
vn 0 -1 0
vn 0.002309 0.53093 0.847413
vn 0.002309 0.53093 0.847413
vn 0.002309 0.53093 0.847413
vn 0.002309 0.53093 0.847413
vn -0.002723 0 -0.999996
vn -0.002723 0 -0.999996
vn -0.002723 0 -0.999996
vn -0.002723 0 -0.999996
vn -0.002721 -0 -0.999996
vn -0.00272 -0 -0.999996
vn -0.002723 0 -0.999996
vn -0.002723 0 -0.999996
vn -0.002721 0 -0.999996
vn -0.002723 0 -0.999996
vn -0.002723 0 -0.999996
vn -0.002721 0 -0.999996
vn -0.002722 0 -0.999996
vn -0.002722 0 -0.999996
vn -0.002723 0 -0.999996
vn -0.002723 0 -0.999996
vn -0.999996 0 0.002722
vn -0.999996 0 0.002722
vn -0.999996 0 0.002722
vn -0.999996 0 0.002722
vn -0.999996 0 0.002722
vn -0.999996 0 0.002722
vn -0.999996 0 0.002722
vn -0.999996 0 0.002722
vn -0.002723 0 -0.999996
vn -0.002723 0 -0.999996
vn -0.002723 0 -0.999996
vn -0.002723 0 -0.999996
vn -0.999996 0 0.002722
vn -0.999996 0 0.002722
vn -0.999996 0 0.002722
vn -0.999996 0 0.002722
vn -0.999996 0 0.002722
vn -0.999996 0 0.002721
vn -0.999996 0 0.002722
vn -0.999996 0 0.002721
vn -0.002307 0.530933 -0.847411
vn -0.002307 0.530933 -0.847411
vn -0.002307 0.530933 -0.847411
vn -0.002307 0.530933 -0.847411
vn 0.002307 -0.530931 0.847412
vn 0.002307 -0.530931 0.847412
vn 0.002307 -0.530931 0.847412
vn 0.002307 -0.530931 0.847412
vn -0.70755 0 -0.706663
vn -0.70755 0 -0.706663
vn -0.70755 0 -0.706663
vn -0.70755 0 -0.706663
vn -0.999996 0 0.002722
vn -0.999996 0 0.002722
vn -0.999996 0 0.002722
vn -0.999996 0 0.002722
vn -0.999996 0 0.002722
vn -0.999996 0 0.002722
vn -0.999996 0 0.002723
vn -0.999996 0 0.002723
vn -0.002309 -0.530933 -0.847411
vn -0.002309 -0.530933 -0.847411
vn -0.002309 -0.530933 -0.847411
vn -0.002309 -0.530933 -0.847411
vn 0.002723 -0 0.999996
vn 0.002723 -0 0.999996
vn 0.002723 -0 0.999996
vn 0.002723 -0 0.999996
vn 0.710496 -0 0.703701
vn 0.710496 -0 0.703701
vn 0.710496 -0 0.703701
vn 0.710496 -0 0.703701
vn -0 -1 -0
vn -0 -1 -0
vn -0 -1 -0
vn -0 -1 -0
vn -0 -1 -0
vn -0 -1 -0
vn -0 -1 -0
vn -0 -1 -0
vn -0.847412 -0.530931 0.002307
vn -0.847412 -0.530931 0.002307
vn -0.847412 -0.530931 0.002307
vn -0.847412 -0.530931 0.002307
vn 0 1 0
vn 0 1 0
vn 0 1 0
vn 0 1 0
vn 0.002719 -0 0.999996
vn 0.002719 -0 0.999996
vn 0.002719 -0 0.999996
vn 0.002719 -0 0.999996
vn 0.706664 0 -0.707549
vn 0.706664 0 -0.707549
vn 0.706664 0 -0.707549
vn 0.706664 0 -0.707549
vn 0 1 0
vn 0 1 0
vn 0 1 0
vn 0 1 0
vn -0.999996 0 0.002722
vn -0.999996 0 0.002722
vn -0.999996 0 0.002722
vn -0.999996 0 0.002722
vn -0.999996 0 0.002722
vn -0.999996 0 0.002722
vn -0.999996 0 0.002722
vn -0.999996 0 0.002722
vn 0.707547 -0 0.706666
vn 0.707547 -0 0.706666
vn 0.707547 -0 0.706666
vn 0.707547 -0 0.706666
vn -0.002721 0 -0.999996
vn -0.002721 0 -0.999996
vn -0.002721 0 -0.999996
vn -0.002721 0 -0.999996
vn 0.999996 -0 -0.002722
vn 0.999996 -0 -0.002722
vn 0.999996 -0 -0.002722
vn 0.999996 -0 -0.002722
vn 0.999996 -0 -0.002722
vn 0.999996 -0 -0.002722
vn 0.999996 -0 -0.002722
vn 0.999996 -0 -0.002722
vn -0.999996 0 0.002721
vn -0.999996 0 0.002721
vn -0.999996 0 0.002721
vn -0.999996 0 0.002721
vn 0.999996 -0 -0.002723
vn 0.999996 -0 -0.002723
vn 0.999996 -0 -0.002723
vn 0.999996 -0 -0.002723
vn -0.707549 0 -0.706664
vn -0.707549 0 -0.706664
vn -0.707549 0 -0.706664
vn -0.707549 0 -0.706664
vn 0.002718 -0 0.999996
vn 0.002718 -0 0.999996
vn 0.002718 -0 0.999996
vn 0.002719 -0 0.999996
vn 0.002719 -0 0.999996
vn -0 -1 -0
vn -0 -1 -0
vn -0 -1 -0
vn -0 -1 -0
vn -0 -1 -0
vn -0 -1 -0
vn -0 -1 -0
vn -0 -1 -0
vn 0.002722 -0 0.999996
vn 0.002722 -0 0.999996
vn 0.002722 -0 0.999996
vn 0.002722 -0 0.999996
vn 0.138096 -0.990419 -0.000376
vn 0.138096 -0.990419 -0.000376
vn 0.138096 -0.990419 -0.000376
vn 0.138096 -0.990419 -0.000376
vn 0.002723 -0 0.999996
vn 0.002723 -0 0.999996
vn 0.002723 -0 0.999996
vn 0.002723 -0 0.999996
vn 0.002722 -0 0.999996
vn 0.002722 -0 0.999996
vn 0.002723 -0 0.999996
vn 0.002723 -0 0.999996
vn 0.710504 -0 0.703693
vn 0.710504 -0 0.703693
vn 0.710504 -0 0.703693
vn 0.710504 -0 0.703693
vn 0.002722 0 0.999996
vn 0.002721 -0 0.999996
vn 0.002721 -0 0.999996
vn 0.002721 -0 0.999996
vn 0.002721 -0 0.999996
vn 0.002722 0 0.999996
vn 0.002723 0 0.999996
vn 0.002718 -1e-06 0.999996
vn 0.002717 -0 0.999996
vn 0.002721 -1e-06 0.999996
vn 0.002723 0 0.999996
vn 0.002721 -1e-06 0.999996
vn -0.999996 0 0.002719
vn -0.999996 0 0.002719
vn -0.999996 0 0.002719
vn -0.999996 0 0.002719
vn -0.002723 0 -0.999996
vn -0.002723 0 -0.999996
vn -0.002723 0 -0.999996
vn -0.002723 0 -0.999996
vn -0.002721 0 -0.999996
vn -0.002721 0 -0.999996
vn -0.002721 0 -0.999996
vn -0.002721 0 -0.999996
vn -0.706666 -0 0.707547
vn -0.706666 -0 0.707547
vn -0.706666 -0 0.707547
vn -0.706666 -0 0.707547
vn 0.999996 -0 -0.002723
vn 0.999996 -0 -0.002722
vn 0.999996 -0 -0.002722
vn 0.999996 -0 -0.002721
vn 0.999996 -0 -0.002718
vn -0.002719 0 -0.999996
vn -0.002721 0 -0.999996
vn -0.002722 0 -0.999996
vn -0.002721 0 -0.999996
vn -0.002723 0 -0.999996
vn -0 -1 -0
vn -0 -1 -0
vn -0 -1 -0
vn -0 -1 -0
vn 0.999996 0 -0.002722
vn 0.999996 0 -0.002722
vn 0.999996 0 -0.002722
vn 0.999996 0 -0.002722
vn 0.999996 -0 -0.002722
vn 0.999996 -0 -0.002722
vn 0.999996 -0 -0.002721
vn 0.999996 -0 -0.002721
vn -0.999996 -0 0.002722
vn -0.999996 -0 0.002722
vn -0.999996 -0 0.002722
vn -0.999996 0 0.002722
vn -0.999996 0 0.002722
vn 0.002719 -0 0.999996
vn 0.002719 -0 0.999996
vn 0.002719 -0 0.999996
vn 0.002719 -0 0.999996
vn -0.703694 -0 0.710503
vn -0.703694 -0 0.710503
vn -0.703694 -0 0.710503
vn -0.703694 -0 0.710503
vn 0.847412 0.530931 -0.002306
vn 0.847412 0.530931 -0.002306
vn 0.847412 0.530931 -0.002306
vn 0.847412 0.530931 -0.002306
vn 0.138095 0.990419 -0.000376
vn 0.138095 0.990419 -0.000376
vn 0.138095 0.990419 -0.000376
vn 0.138095 0.990419 -0.000376
vn -0.847412 0.530931 0.002306
vn -0.847412 0.530931 0.002306
vn -0.847412 0.530931 0.002306
vn -0.847411 0.530932 0.002306
vn 0.706663 0 -0.70755
vn 0.706663 0 -0.70755
vn 0.706663 0 -0.70755
vn 0.706663 0 -0.70755
vn 0.70755 -0 0.706663
vn 0.70755 -0 0.706663
vn 0.70755 -0 0.706663
vn 0.70755 -0 0.706663
vn -0.999996 0 0.002721
vn -0.999996 0 0.00272
vn -0.999996 0 0.00272
vn -0.999996 0 0.002721
vn -0.999996 0 0.002722
vn -0.999996 0 0.002722
vn -0.999996 0 0.002722
vn -0.999996 0 0.002722
vn -0.999996 0 0.002722
vn -0.999996 0 0.002722
vn -0.999996 0 0.002722
vn -0.999996 0 0.002722
vn -0.999996 0 0.002718
vn -0.999996 0 0.002719
vn -0.999996 0 0.002718
vn -0.999996 0 0.002719
vn -0.002721 0 -0.999996
vn -0.002721 0 -0.999996
vn -0.002722 0 -0.999996
vn -0.002721 0 -0.999996
vn -0.002721 0 -0.999996
vn 0.999996 -0 -0.002722
vn 0.999996 -0 -0.002722
vn 0.999996 -0 -0.002721
vn 0.999996 -0 -0.002722
vn 0.999996 -0 -0.002721
vn -0.999996 0 0.002721
vn -0.999996 0 0.002721
vn -0.999996 0 0.002721
vn -0.999996 0 0.002721
vn -0.70755 0 -0.706663
vn -0.70755 0 -0.706663
vn -0.70755 0 -0.706663
vn -0.70755 0 -0.706663
vn -0 1 -0
vn -0 1 -0
vn -0 1 -0
vn -0 1 -0
vn 0 1 0
vn -0 1 -0
vn -0 1 -0
vn 0 1 0
vn -0 1 -0
vn 0 1 0
vn 0 1 0
vn -0 1 -0
vn -0 1 -0
vn -0 1 -0
vn -0 1 -0
vn -0 1 -0
vn -0 1 -0
vn -0 1 -0
vn -0 1 -0
vn -0 1 -0
vn -0.706662 -0 0.707551
vn -0.706662 -0 0.707551
vn -0.706662 -0 0.707551
vn -0.706662 -0 0.707551
vn -0.999996 0 0.002722
vn -0.999996 0 0.002722
vn -0.999996 0 0.002722
vn -0.999996 0 0.002722
vn 0.999996 -0 -0.002722
vn 0.999996 -0 -0.002722
vn 0.999996 -0 -0.002722
vn 0.999996 -0 -0.002722
vn 0.002721 1e-06 0.999996
vn 0.002721 1e-06 0.999996
vn 0.002721 1e-06 0.999996
vn 0.002721 1e-06 0.999996
vn 0.002715 -0 0.999996
vn 0.002715 -0 0.999996
vn 0.002715 -0 0.999996
vn 0.002715 -0 0.999996
vn 0 -1 0
vn 0 -1 0
vn 0 -1 0
vn 0 -1 0
vn 0.002722 -0 0.999996
vn 0.002722 -0 0.999996
vn 0.002722 -0 0.999996
vn 0.002722 -0 0.999996
vn 0.002721 -0 0.999996
vn 0.002721 -0 0.999996
vn 0.002722 -0 0.999996
vn 0.002722 -0 0.999996
vn 0.002726 -0 0.999996
vn -0.002718 0 -0.999996
vn -0.002718 0 -0.999996
vn -0.002718 0 -0.999996
vn -0.002718 0 -0.999996
vn 0.002719 1e-06 0.999996
vn 0.002719 1e-06 0.999996
vn 0.002719 1e-06 0.999996
vn 0.002719 1e-06 0.999996
vn 0.847412 -0.530931 -0.002307
vn 0.847412 -0.530931 -0.002307
vn 0.847412 -0.530931 -0.002307
vn 0.847412 -0.530931 -0.002307
vn 0.710511 -0 0.703686
vn 0.710511 -0 0.703686
vn 0.710511 -0 0.703686
vn 0.710511 -0 0.703686
vn 0 1 0
vn -0 1 -0
vn -0 1 -0
vn 0 1 0
vn -0 1 -0
vn -0 1 -0
vn -0 1 -0
vn -0 1 -0
vn -0 1 -0
vn -0 1 -0
vn -0 1 -0
vn -0 1 -0
vn -0.999996 0 0.002721
vn -0.999996 0 0.00272
vn 0 1 0
vn 0 1 0
vn 0 1 0
vn 0 1 0
vn -0.138094 0.990419 0.000376
vn -0.138094 0.990419 0.000376
vn -0.138094 0.990419 0.000376
vn -0.138094 0.990419 0.000376
vn -0.703692 -0 0.710505
vn -0.703692 -0 0.710505
vn -0.703692 -0 0.710505
vn -0.703692 -0 0.710505
vn -0.138095 -0.990419 0.000376
vn -0.138095 -0.990419 0.000376
vn -0.138095 -0.990419 0.000376
vn -0.138095 -0.990419 0.000376
vn -0 -1 -0
vn -0 -1 -0
vn -0 -1 -0
vn -0 -1 -0
vn 0.999996 -0 -0.002721
vn 0.999996 -0 -0.002721
vn 0.999996 -0 -0.002722
vn 0.999996 -0 -0.002722
vn 0.999996 -0 -0.00272
vn -0.999996 0 0.002722
vn -0.999996 0 0.002722
vn -0.999996 0 0.002722
vn -0.999996 0 0.002722
vn -0.999996 0 0.002722
vn -0.999996 0 0.002722
vn -0.999996 0 0.002721
vn -0.999996 0 0.002722
vn -0.999996 0 0.002721
vn -0.999996 0 0.002719
vn -0.999996 0 0.002722
vn -0.999996 0 0.002719
vn 0.002309 0.53093 0.847413
vn 0.002309 0.53093 0.847413
vn 0.002309 0.53093 0.847413
vn 0.002309 0.53093 0.847413
vn -0.002723 0 -0.999996
vn -0.002723 0 -0.999996
vn -0.002723 0 -0.999996
vn -0.002723 0 -0.999996
vn -0.002723 0 -0.999996
vn -0.002723 0 -0.999996
vn -0.002723 0 -0.999996
vn -0.002723 0 -0.999996
vn 0.999996 -0 -0.002722
vn 0.999996 -0 -0.002721
vn 0.999996 -0 -0.002721
vn 0.999996 -0 -0.002722
vn 0.999996 -0 -0.002722
vn 0.999996 -0 -0.002722
vn 0.999996 -0 -0.002723
vn 0.999996 -0 -0.002718
vn 0.999996 -0 -0.002719
vn 0.999996 -0 -0.002718
vn 0.999996 -0 -0.002723
vn 0.999996 -0 -0.002718
vn 0.002721 -0 0.999996
vn 0.002722 -0 0.999996
vn 0.002722 -0 0.999996
vn 0.002722 -0 0.999996
vn 0.002726 -0 0.999996
vn 0.999996 -0 -0.002722
vn 0.999996 -0 -0.002722
vn 0.999996 -0 -0.002722
vn 0.999996 -0 -0.002722
vn -0 -1 -0
vn -0 -1 -0
vn -0 -1 -0
vn -0 -1 -0
vn -0 -1 -0
vn -0 -1 -0
vn -0 -1 -0
vn -0 -1 -0
vn -0 -1 -0
vn -0 -1 -0
vn -0 -1 -0
vn -0 -1 -0
vn -0.002721 0 -0.999996
vn -0.002721 0 -0.999996
vn -0.002721 0 -0.999996
vn -0.002722 0 -0.999996
vn -0.002721 0 -0.999996
vn -0.002719 0 -0.999996
vn -0.002718 0 -0.999996
vn -0.002723 0 -0.999996
vn -0.002726 0 -0.999996
vn -0.002721 0 -0.999996
vn -0.002718 0 -0.999996
vn -0.002726 0 -0.999996
vn 0.999996 -0 -0.002721
vn 0.999996 -0 -0.002721
vn 0.999996 -0 -0.002721
vn 0.999996 -0 -0.002721
vn 0.002719 -0 0.999996
vn 0.002719 -0 0.999996
vn 0.002722 -0 0.999996
vn 0.002722 -0 0.999996
vn 0.002726 -0 0.999996
vn -0.002721 0 -0.999996
vn -0.002722 0 -0.999996
vn -0.002722 0 -0.999996
vn -0.002721 0 -0.999996
vn -0.706666 -0 0.707547
vn -0.706666 -0 0.707547
vn -0.706666 -0 0.707547
vn -0.706666 -0 0.707547
vn 0.999996 -0 -0.002721
vn 0.999996 -0 -0.002721
vn 0.999996 -0 -0.002721
vn 0.999996 -0 -0.002721
vn 0.002723 -0 0.999996
vn 0.002723 -0 0.999996
vn 0.002723 -0 0.999996
vn 0.002723 -0 0.999996
vn 0 -1 0
vn 0 -1 0
vn 0 -1 0
vn 0 -1 0
vn 0 1 0
vn 0 1 0
vn 0 1 0
vn 0 1 0
vn -0.002723 0 -0.999996
vn -0.002723 0 -0.999996
vn -0.002723 0 -0.999996
vn -0.002723 0 -0.999996
vn 0 1 0
vn 0 1 0
vn 0 1 0
vn 0 1 0
vn 0.349251 0.937029 -0.000951
vn 0.349251 0.937029 -0.000951
vn 0.349251 0.937029 -0.000951
vn 0.349251 0.937029 -0.000951
vn 0.999996 -0 -0.002722
vn 0.999996 -0 -0.002721
vn 0.999996 -0 -0.002722
vn 0.999996 -0 -0.002722
vn 0.999996 -0 -0.002722
vn 0.999996 -0 -0.002722
vn 0.999996 -0 -0.002722
vn 0.999996 -0 -0.002722
vn -0.999996 0 0.002722
vn -0.999996 -0 0.002722
vn -0.999996 0 0.002722
vn -0.999996 0 0.002722
vn -0.999996 -0 0.002719
vn -0.999996 -0 0.002719
vn -0.999996 0 0.00272
vn -0.999996 0 0.002719
vn -0.999996 0 0.002719
vn -0.999996 0 0.002719
vn -0.999996 -0 0.002719
vn -0.999996 0 0.002719
vn -0.002723 0 -0.999996
vn -0.002722 0 -0.999996
vn -0.002721 0 -0.999996
vn -0.002722 0 -0.999996
vn -0.002725 0 -0.999996
vn -0.710494 0 -0.703703
vn -0.710494 0 -0.703703
vn -0.710494 0 -0.703703
vn -0.710494 0 -0.703703
vn 0.002721 -0 0.999996
vn 0.002721 -0 0.999996
vn 0.002721 -0 0.999996
vn 0.002721 -0 0.999996
vn 0.703691 0 -0.710506
vn 0.703691 0 -0.710506
vn 0.703691 0 -0.710506
vn 0.703691 0 -0.710506
vn 0.999996 -0 -0.002721
vn 0.999996 -0 -0.002721
vn 0.999996 -0 -0.002721
vn 0.999996 -0 -0.002721
vn -0.999996 0 0.002722
vn -0.999996 0 0.002722
vn -0.999996 0 0.002722
vn -0.999996 0 0.002722
vn 0.349254 -0.937028 -0.00095
vn 0.349254 -0.937028 -0.00095
vn 0.349254 -0.937027 -0.00095
vn 0.349254 -0.937027 -0.00095
vn 0.999996 -0 -0.002721
vn 0.999996 -0 -0.002721
vn 0.999996 -0 -0.002722
vn 0.999996 -0 -0.002722
vn 0.999996 -0 -0.002722
vn 0.002721 -0 0.999996
vn 0.002722 -0 0.999996
vn 0.002722 -0 0.999996
vn 0.002721 -0 0.999996
vn 0.002725 -0 0.999996
vn 0.002723 -0 0.999996
vn 0.002722 -0 0.999996
vn 0.002721 -0 0.999996
vn 0.002722 -0 0.999996
vn 0.002721 -0 0.999996
vn 0.002722 -0 0.999996
vn 0.002722 -0 0.999996
vn -0.999996 0 0.002722
vn -0.999996 0 0.002722
vn -0.999996 0 0.002722
vn -0.999996 0 0.002722
vn -0.847411 -0.530932 0.002305
vn -0.847411 -0.530932 0.002306
vn -0.847411 -0.530932 0.002305
vn -0.847411 -0.530932 0.002305
vn 0.847411 0.530932 -0.002307
vn 0.847411 0.530932 -0.002307
vn 0.847411 0.530932 -0.002307
vn 0.847411 0.530932 -0.002307
vn -0.349251 0.937029 0.00095
vn -0.349251 0.937029 0.00095
vn -0.349251 0.937029 0.00095
vn -0.349251 0.937029 0.00095
vn -0.002729 -1e-06 -0.999996
vn -0.002729 -1e-06 -0.999996
vn -0.002729 -1e-06 -0.999996
vn -0.002729 -1e-06 -0.999996
vn -0 1 -0
vn -0 1 -0
vn -0 1 -0
vn -0 1 -0
vn -0.002723 0 -0.999996
vn -0.002722 0 -0.999996
vn -0.002721 0 -0.999996
vn -0.002721 0 -0.999996
vn -0.002722 0 -0.999996
vn 0.002719 -0 0.999996
vn 0.002719 -0 0.999996
vn 0.002719 -0 0.999996
vn 0.002719 -0 0.999996
vn 0.999996 -0 -0.002722
vn 0.999996 -0 -0.002722
vn 0.999996 -0 -0.002722
vn 0.999996 -0 -0.002722
vn -0.703694 -0 0.710503
vn -0.703694 -0 0.710503
vn -0.703694 -0 0.710503
vn -0.703694 -0 0.710503
vn -0.999996 0 0.002722
vn -0.999996 0 0.002722
vn -0.999996 0 0.002722
vn -0.999996 0 0.002722
vn -0.999996 0 0.002722
vn -0.710501 0 -0.703696
vn -0.710501 0 -0.703696
vn -0.710501 0 -0.703696
vn -0.710501 0 -0.703696
vn -0.002307 -0.530932 -0.847411
vn -0.002307 -0.530932 -0.847411
vn -0.002307 -0.530932 -0.847411
vn -0.002307 -0.530932 -0.847411
vn -0.002723 0 -0.999996
vn -0.002723 0 -0.999996
vn -0.002723 0 -0.999996
vn -0.002723 0 -0.999996
vn 0.999996 -0 -0.002721
vn 0.999996 -0 -0.002722
vn 0.999996 -0 -0.002722
vn 0.999996 -0 -0.002722
vn -0 -1 -0
vn -0 -1 -0
vn -0 -1 -0
vn -0 -1 -0
vn -0 -1 -0
vn -0 -1 -0
vn -0 -1 -0
vn -0 -1 -0
vn -0 -1 -0
vn -0 -1 -0
vn -0 -1 -0
vn -0 -1 -0
vn 0.999996 0 -0.002722
vn 0.999996 0 -0.002722
vn 0.999996 0 -0.002722
vn 0.999996 0 -0.002722
vn 0.847412 -0.530931 -0.002306
vn 0.847412 -0.530931 -0.002306
vn 0.847412 -0.530931 -0.002306
vn 0.847412 -0.530931 -0.002306
vn -0.002723 0 -0.999996
vn -0.002723 0 -0.999996
vn -0.002723 0 -0.999996
vn -0.002723 0 -0.999996
vn -0.002309 0.530932 -0.847411
vn -0.002309 0.530932 -0.847411
vn -0.002309 0.530932 -0.847411
vn -0.002309 0.530932 -0.847411
vn -0.002723 0 -0.999996
vn -0.002723 0 -0.999996
vn -0.002723 0 -0.999996
vn -0.002723 0 -0.999996

g pasted__polySurface210 group1_0
usemtl lowpoly_scifi_containers_pack2:Box_1_1
f 1/1/1 2/2/2 3/3/3
f 1/1/1 3/3/3 4/4/4
f 5/5/5 6/6/6 7/7/7
f 5/5/5 7/7/7 8/8/8
f 9/9/9 10/10/10 11/11/11
f 9/9/9 11/11/11 12/12/12
f 10/10/10 9/9/9 13/13/13
f 10/10/10 13/13/13 14/14/14
f 12/12/12 11/11/11 15/15/15
f 12/12/12 15/15/15 16/16/16
f 17/17/17 18/18/18 19/19/19
f 17/17/17 19/19/19 20/20/20
f 21/21/21 22/22/22 23/23/23
f 21/21/21 23/23/23 24/24/24
f 25/25/25 26/26/26 27/27/27
f 25/25/25 27/27/27 28/28/28
f 29/29/29 30/30/30 31/31/31
f 29/29/29 31/31/31 32/32/32
f 33/33/33 34/34/34 35/35/35
f 33/33/33 35/35/35 36/36/36
f 37/37/37 38/38/38 39/39/39
f 37/37/37 39/39/39 40/40/40
f 37/37/37 40/40/40 41/41/41
f 37/37/37 41/41/41 42/42/42
f 37/37/37 42/42/42 43/43/43
f 44/44/44 45/45/45 39/39/39
f 38/38/38 46/46/46 44/44/44
f 38/38/38 44/44/44 39/39/39
f 37/37/37 43/43/43 47/47/47
f 44/44/44 46/46/46 48/48/48
f 49/49/49 50/50/50 51/51/51
f 49/49/49 51/51/51 52/52/52
f 53/53/53 54/54/54 55/55/55
f 53/53/53 55/55/55 56/56/56
f 57/57/57 58/58/58 59/59/59
f 57/57/57 59/59/59 60/60/60
f 61/61/61 62/62/62 63/63/63
f 61/61/61 63/63/63 64/64/64
f 65/65/65 66/66/66 67/67/67
f 65/65/65 67/67/67 68/68/68
f 65/65/65 68/68/68 69/69/69
f 65/65/65 69/69/69 70/70/70
f 71/71/71 72/72/72 67/67/67
f 71/71/71 67/67/67 66/66/66
f 73/73/73 74/74/74 75/75/75
f 73/73/73 75/75/75 76/76/76
f 77/77/77 78/78/78 79/79/79
f 77/77/77 79/79/79 80/80/80
f 77/77/77 80/80/80 81/81/81
f 77/77/77 81/81/81 82/82/82
f 77/77/77 82/82/82 83/83/83
f 84/84/84 85/85/85 79/79/79
f 84/84/84 79/79/79 78/78/78
f 84/84/84 78/78/78 86/86/86
f 77/77/77 83/83/83 87/87/87
f 84/84/84 86/86/86 88/88/88
f 89/89/89 90/90/90 91/91/91
f 89/89/89 91/91/91 92/92/92
f 93/93/93 94/94/94 95/95/95
f 93/93/93 95/95/95 96/96/96
f 97/97/97 98/98/98 99/99/99
f 97/97/97 99/99/99 100/100/100
f 101/101/101 102/102/102 103/103/103
f 101/101/101 103/103/103 104/104/104
f 105/105/105 106/106/106 107/107/107
f 105/105/105 107/107/107 108/108/108
f 109/109/109 110/110/110 107/107/107
f 109/109/109 107/107/107 106/106/106
f 109/109/109 106/106/106 111/111/111
f 109/109/109 111/111/111 112/112/112
f 113/113/113 114/114/114 115/115/115
f 113/113/113 115/115/115 116/116/116
f 117/117/117 118/118/118 119/119/119
f 117/117/117 119/119/119 120/120/120
f 121/121/121 122/122/122 123/123/123
f 121/121/121 123/123/123 124/124/124
f 125/125/125 126/126/126 127/127/127
f 125/125/125 127/127/127 128/128/128
f 129/129/129 130/130/130 131/131/131
f 129/129/129 131/131/131 132/132/132
f 133/133/133 134/134/134 135/135/135
f 133/133/133 135/135/135 136/136/136
f 137/137/137 138/138/138 139/139/139
f 137/137/137 139/139/139 140/140/140
f 141/141/141 142/142/142 143/143/143
f 141/141/141 143/143/143 144/144/144
f 145/145/145 146/146/146 147/147/147
f 145/145/145 147/147/147 148/148/148
f 146/146/146 145/145/145 149/149/149
f 146/146/146 149/149/149 150/150/150
f 148/148/148 147/147/147 151/151/151
f 148/148/148 151/151/151 152/152/152
f 153/153/153 154/154/154 155/155/155
f 153/153/153 155/155/155 156/156/156
f 157/157/157 158/158/158 155/155/155
f 157/157/157 155/155/155 154/154/154
f 157/157/157 154/154/154 159/159/159
f 157/157/157 159/159/159 160/160/160
f 161/161/161 162/162/162 163/163/163
f 161/161/161 163/163/163 164/164/164
f 165/165/165 166/166/166 167/167/167
f 165/165/165 167/167/167 168/168/168
f 169/169/169 170/170/170 171/171/171
f 169/169/169 171/171/171 172/172/172
f 173/173/173 174/174/174 175/175/175
f 173/173/173 175/175/175 176/176/176
f 177/177/177 173/173/173 176/176/176
f 177/177/177 176/176/176 178/178/178
f 173/173/173 177/177/177 179/179/179
f 177/177/177 178/178/178 180/180/180
f 181/181/181 182/182/182 183/183/183
f 181/181/181 183/183/183 184/184/184
f 185/185/185 186/186/186 187/187/187
f 185/185/185 187/187/187 188/188/188
f 189/189/189 190/190/190 191/191/191
f 189/189/189 191/191/191 192/192/192
f 193/193/193 194/194/194 195/195/195
f 193/193/193 195/195/195 196/196/196
f 194/194/194 197/197/197 198/198/198
f 194/194/194 198/198/198 199/199/199
f 197/197/197 194/194/194 193/193/193
f 194/194/194 199/199/199 200/200/200
f 201/201/201 202/202/202 203/203/203
f 201/201/201 203/203/203 204/204/204
f 205/205/205 206/206/206 207/207/207
f 205/205/205 207/207/207 208/208/208
f 209/209/209 210/210/210 211/211/211
f 209/209/209 211/211/211 212/212/212
f 213/213/213 214/214/214 215/215/215
f 213/213/213 215/215/215 216/216/216
f 213/213/213 216/216/216 217/217/217
f 213/213/213 217/217/217 218/218/218
f 219/219/219 220/220/220 215/215/215
f 219/219/219 215/215/215 214/214/214
f 221/221/221 222/222/222 223/223/223
f 221/221/221 223/223/223 224/224/224
f 225/225/225 226/226/226 227/227/227
f 225/225/225 227/227/227 228/228/228
f 229/229/229 230/230/230 231/231/231
f 229/229/229 231/231/231 232/232/232
f 233/233/233 234/234/234 235/235/235
f 233/233/233 235/235/235 236/236/236
f 237/237/237 238/238/238 239/239/239
f 237/237/237 239/239/239 240/240/240
f 241/241/241 242/242/242 243/243/243
f 241/241/241 243/243/243 244/244/244
f 245/245/245 246/246/246 247/247/247
f 245/245/245 247/247/247 248/248/248
f 249/249/249 250/250/250 251/251/251
f 249/249/249 251/251/251 252/252/252
f 253/253/253 254/254/254 255/255/255
f 253/253/253 255/255/255 256/256/256
f 257/257/257 258/258/258 259/259/259
f 257/257/257 259/259/259 260/260/260
f 261/261/261 262/262/262 263/263/263
f 261/261/261 263/263/263 264/264/264
f 265/265/265 266/266/266 267/267/267
f 265/265/265 267/267/267 268/268/268
f 269/269/269 270/270/270 271/271/271
f 269/269/269 271/271/271 272/272/272
f 273/273/273 274/274/274 275/275/275
f 273/273/273 275/275/275 276/276/276
f 111/111/111 277/277/277 278/278/278
f 111/111/111 278/278/278 279/279/279
f 277/277/277 111/111/111 106/106/106
f 277/277/277 106/106/106 105/105/105
f 279/279/279 278/278/278 280/280/280
f 279/279/279 280/280/280 281/281/281
f 282/282/282 283/283/283 284/284/284
f 282/282/282 284/284/284 285/285/285
f 286/286/286 287/287/287 282/282/282
f 286/286/286 282/282/282 285/285/285
f 284/284/284 283/283/283 288/288/288
f 284/284/284 288/288/288 289/289/289
f 290/290/290 291/291/291 292/292/292
f 290/290/290 292/292/292 293/293/293
f 294/294/294 295/295/295 296/296/296
f 294/294/294 296/296/296 297/297/297
f 298/298/298 299/299/299 300/300/300
f 298/298/298 300/300/300 301/301/301
f 299/299/299 298/298/298 302/302/302
f 299/299/299 302/302/302 303/303/303
f 301/301/301 300/300/300 304/304/304
f 301/301/301 304/304/304 305/305/305
f 306/306/306 307/307/307 308/308/308
f 306/306/306 308/308/308 309/309/309
f 310/310/310 311/311/311 312/312/312
f 310/310/310 312/312/312 313/313/313
f 310/310/310 313/313/313 314/314/314
f 310/310/310 314/314/314 315/315/315
f 310/310/310 315/315/315 316/316/316
f 317/317/317 318/318/318 312/312/312
f 317/317/317 312/312/312 311/311/311
f 317/317/317 311/311/311 319/319/319
f 310/310/310 316/316/316 320/320/320
f 317/317/317 319/319/319 321/321/321
f 322/322/322 323/323/323 324/324/324
f 322/322/322 324/324/324 325/325/325
f 326/326/326 327/327/327 328/328/328
f 326/326/326 328/328/328 329/329/329
f 330/330/330 331/331/331 332/332/332
f 330/330/330 332/332/332 333/333/333
f 334/334/334 335/335/335 336/336/336
f 334/334/334 336/336/336 337/337/337
f 14/14/14 13/13/13 338/338/338
f 14/14/14 338/338/338 339/339/339
f 14/14/14 339/339/339 340/340/340
f 14/14/14 340/340/340 341/341/341
f 14/14/14 341/341/341 342/342/342
f 14/14/14 342/342/342 10/10/10
f 343/343/343 150/150/150 149/149/149
f 343/343/343 149/149/149 344/344/344
f 149/149/149 145/145/145 345/345/345
f 149/149/149 345/345/345 344/344/344
f 344/344/344 345/345/345 346/346/346
f 345/345/345 145/145/145 347/347/347
f 348/348/348 349/349/349 350/350/350
f 348/348/348 350/350/350 351/351/351
f 352/352/352 353/353/353 354/354/354
f 352/352/352 354/354/354 355/355/355
f 353/353/353 352/352/352 356/356/356
f 353/353/353 356/356/356 357/357/357
f 355/355/355 354/354/354 358/358/358
f 355/355/355 358/358/358 359/359/359
f 178/178/178 360/360/360 361/361/361
f 178/178/178 361/361/361 362/362/362
f 360/360/360 178/178/178 176/176/176
f 360/360/360 176/176/176 175/175/175
f 362/362/362 361/361/361 363/363/363
f 362/362/362 363/363/363 364/364/364
f 365/365/365 366/366/366 367/367/367
f 365/365/365 367/367/367 368/368/368
f 369/369/369 370/370/370 371/371/371
f 369/369/369 371/371/371 372/372/372
f 373/373/373 374/374/374 375/375/375
f 373/373/373 375/375/375 376/376/376
f 377/377/377 378/378/378 379/379/379
f 377/377/377 379/379/379 380/380/380
f 381/381/381 382/382/382 383/383/383
f 381/381/381 383/383/383 384/384/384
f 385/385/385 386/386/386 387/387/387
f 385/385/385 387/387/387 388/388/388
f 389/389/389 390/390/390 391/391/391
f 389/389/389 391/391/391 392/392/392
f 393/393/393 394/394/394 395/395/395
f 393/393/393 395/395/395 396/396/396
f 397/397/397 393/393/393 396/396/396
f 397/397/397 396/396/396 398/398/398
f 393/393/393 397/397/397 399/399/399
f 397/397/397 398/398/398 400/400/400
f 401/401/401 402/402/402 403/403/403
f 401/401/401 403/403/403 404/404/404
f 405/405/405 406/406/406 407/407/407
f 405/405/405 407/407/407 408/408/408
f 409/409/409 410/410/410 159/159/159
f 409/409/409 159/159/159 411/411/411
f 410/410/410 409/409/409 412/412/412
f 410/410/410 412/412/412 413/413/413
f 411/411/411 159/159/159 154/154/154
f 411/411/411 154/154/154 153/153/153
f 15/15/15 414/414/414 415/415/415
f 15/15/15 415/415/415 16/16/16
f 416/416/416 417/417/417 414/414/414
f 416/416/416 414/414/414 15/15/15
f 416/416/416 15/15/15 11/11/11
f 416/416/416 11/11/11 418/418/418
f 419/419/419 420/420/420 421/421/421
f 419/419/419 421/421/421 422/422/422
f 423/423/423 424/424/424 425/425/425
f 423/423/423 425/425/425 426/426/426
f 427/427/427 428/428/428 429/429/429
f 427/427/427 429/429/429 430/430/430
f 431/431/431 432/432/432 427/427/427
f 431/431/431 427/427/427 430/430/430
f 429/429/429 428/428/428 433/433/433
f 429/429/429 433/433/433 434/434/434
f 435/435/435 436/436/436 437/437/437
f 435/435/435 437/437/437 438/438/438
f 439/439/439 440/440/440 441/441/441
f 439/439/439 441/441/441 442/442/442
f 443/443/443 444/444/444 445/445/445
f 443/443/443 445/445/445 446/446/446
f 443/443/443 446/446/446 440/440/440
f 443/443/443 440/440/440 439/439/439
f 435/435/435 438/438/438 445/445/445
f 435/435/435 445/445/445 444/444/444
f 447/447/447 448/448/448 449/449/449
f 447/447/447 449/449/449 450/450/450
f 451/451/451 452/452/452 453/453/453
f 451/451/451 453/453/453 454/454/454
f 455/455/455 456/456/456 457/457/457
f 455/455/455 457/457/457 458/458/458
f 459/459/459 460/460/460 461/461/461
f 459/459/459 461/461/461 462/462/462
f 463/463/463 464/464/464 465/465/465
f 463/463/463 465/465/465 466/466/466
f 467/467/467 468/468/468 469/469/469
f 467/467/467 469/469/469 470/470/470
f 471/471/471 472/472/472 473/473/473
f 471/471/471 473/473/473 474/474/474
f 475/475/475 305/305/305 304/304/304
f 475/475/475 304/304/304 476/476/476
f 477/477/477 476/476/476 304/304/304
f 477/477/477 304/304/304 300/300/300
f 476/476/476 477/477/477 478/478/478
f 477/477/477 300/300/300 479/479/479
f 480/480/480 481/481/481 482/482/482
f 480/480/480 482/482/482 483/483/483
f 484/484/484 485/485/485 486/486/486
f 484/484/484 486/486/486 487/487/487
f 488/488/488 489/489/489 490/490/490
f 488/488/488 490/490/490 491/491/491
f 492/492/492 493/493/493 494/494/494
f 492/492/492 494/494/494 495/495/495
f 496/496/496 497/497/497 498/498/498
f 496/496/496 498/498/498 499/499/499
f 500/500/500 501/501/501 502/502/502
f 500/500/500 502/502/502 503/503/503
f 504/504/504 505/505/505 506/506/506
f 504/504/504 506/506/506 507/507/507
f 506/506/506 505/505/505 501/501/501
f 506/506/506 501/501/501 500/500/500
f 498/498/498 497/497/497 504/504/504
f 498/498/498 504/504/504 507/507/507
f 508/508/508 200/200/200 398/398/398
f 508/508/508 398/398/398 509/509/509
f 200/200/200 508/508/508 195/195/195
f 200/200/200 195/195/195 194/194/194
f 509/509/509 398/398/398 396/396/396
f 509/509/509 396/396/396 395/395/395
f 510/510/510 511/511/511 512/512/512
f 510/510/510 512/512/512 513/513/513
f 514/514/514 515/515/515 516/516/516
f 514/514/514 516/516/516 517/517/517
f 518/518/518 519/519/519 520/520/520
f 518/518/518 520/520/520 521/521/521
f 522/522/522 523/523/523 524/524/524
f 522/522/522 524/524/524 525/525/525
f 526/526/526 527/527/527 528/528/528
f 526/526/526 528/528/528 529/529/529
f 356/356/356 530/530/530 531/531/531
f 356/356/356 531/531/531 357/357/357
f 532/532/532 533/533/533 530/530/530
f 532/532/532 530/530/530 356/356/356
f 532/532/532 356/356/356 352/352/352
f 532/532/532 352/352/352 534/534/534
f 535/535/535 536/536/536 537/537/537
f 535/535/535 537/537/537 538/538/538
f 539/539/539 537/537/537 536/536/536
f 539/539/539 536/536/536 540/540/540
f 537/537/537 539/539/539 541/541/541
f 535/535/535 542/542/542 543/543/543
f 535/535/535 543/543/543 544/544/544
f 542/542/542 535/535/535 538/538/538
f 539/539/539 540/540/540 545/545/545
f 535/535/535 544/544/544 546/546/546
f 547/547/547 548/548/548 549/549/549
f 547/547/547 549/549/549 550/550/550
f 551/551/551 552/552/552 553/553/553
f 551/551/551 553/553/553 554/554/554
f 555/555/555 556/556/556 557/557/557
f 555/555/555 557/557/557 558/558/558
f 559/559/559 560/560/560 561/561/561
f 559/559/559 561/561/561 562/562/562
f 559/559/559 562/562/562 563/563/563
f 559/559/559 563/563/563 564/564/564
f 559/559/559 564/564/564 565/565/565
f 566/566/566 567/567/567 561/561/561
f 566/566/566 561/561/561 560/560/560
f 566/566/566 560/560/560 568/568/568
f 559/559/559 565/565/565 569/569/569
f 566/566/566 568/568/568 570/570/570
f 302/302/302 571/571/571 572/572/572
f 302/302/302 572/572/572 303/303/303
f 303/303/303 572/572/572 573/573/573
f 303/303/303 573/573/573 574/574/574
f 303/303/303 574/574/574 575/575/575
f 303/303/303 575/575/575 299/299/299
f 576/576/576 577/577/577 578/578/578
f 576/576/576 578/578/578 579/579/579
f 580/580/580 581/581/581 582/582/582
f 580/580/580 582/582/582 583/583/583
f 584/584/584 585/585/585 586/586/586
f 584/584/584 586/586/586 587/587/587
f 588/588/588 589/589/589 590/590/590
f 588/588/588 590/590/590 591/591/591
f 590/590/590 589/589/589 585/585/585
f 590/590/590 585/585/585 584/584/584
f 582/582/582 581/581/581 588/588/588
f 582/582/582 588/588/588 591/591/591
f 592/592/592 593/593/593 594/594/594
f 592/592/592 594/594/594 595/595/595
f 594/594/594 596/596/596 597/597/597
f 594/594/594 597/597/597 598/598/598
f 596/596/596 594/594/594 593/593/593
f 599/599/599 592/592/592 595/595/595
f 599/599/599 595/595/595 600/600/600
f 592/592/592 599/599/599 601/601/601
f 594/594/594 598/598/598 602/602/602
f 599/599/599 600/600/600 603/603/603
f 604/604/604 605/605/605 606/606/606
f 604/604/604 606/606/606 607/607/607
f 608/608/608 281/281/281 280/280/280
f 608/608/608 280/280/280 609/609/609
f 281/281/281 610/610/610 611/611/611
f 281/281/281 611/611/611 612/612/612
f 610/610/610 281/281/281 608/608/608
f 281/281/281 612/612/612 279/279/279
f 613/613/613 614/614/614 615/615/615
f 613/613/613 615/615/615 616/616/616
f 617/617/617 618/618/618 619/619/619
f 617/617/617 619/619/619 620/620/620
f 621/621/621 622/622/622 623/623/623
f 621/621/621 623/623/623 624/624/624
f 625/625/625 626/626/626 627/627/627
f 625/625/625 627/627/627 628/628/628
f 629/629/629 630/630/630 631/631/631
f 629/629/629 631/631/631 632/632/632
f 633/633/633 634/634/634 635/635/635
f 633/633/633 635/635/635 636/636/636
f 637/637/637 638/638/638 639/639/639
f 637/637/637 639/639/639 640/640/640
f 641/641/641 642/642/642 643/643/643
f 641/641/641 643/643/643 644/644/644
f 645/645/645 646/646/646 647/647/647
f 645/645/645 647/647/647 648/648/648
f 649/649/649 650/650/650 651/651/651
f 649/649/649 651/651/651 652/652/652
f 653/653/653 654/654/654 655/655/655
f 653/653/653 655/655/655 656/656/656
f 657/657/657 658/658/658 659/659/659
f 657/657/657 659/659/659 660/660/660
f 661/661/661 659/659/659 658/658/658
f 661/661/661 658/658/658 662/662/662
f 659/659/659 661/661/661 663/663/663
f 657/657/657 664/664/664 665/665/665
f 657/657/657 665/665/665 666/666/666
f 664/664/664 657/657/657 660/660/660
f 661/661/661 662/662/662 667/667/667
f 657/657/657 666/666/666 668/668/668
f 669/669/669 413/413/413 412/412/412
f 669/669/669 412/412/412 670/670/670
f 413/413/413 671/671/671 672/672/672
f 413/413/413 672/672/672 673/673/673
f 671/671/671 413/413/413 669/669/669
f 413/413/413 673/673/673 410/410/410
f 674/674/674 675/675/675 676/676/676
f 674/674/674 676/676/676 677/677/677
f 678/678/678 679/679/679 680/680/680
f 678/678/678 680/680/680 681/681/681
f 682/682/682 683/683/683 684/684/684
f 682/682/682 684/684/684 685/685/685
f 686/686/686 687/687/687 688/688/688
f 686/686/686 688/688/688 689/689/689
f 690/690/690 691/691/691 692/692/692
f 690/690/690 692/692/692 693/693/693
f 694/694/694 695/695/695 696/696/696
f 694/694/694 696/696/696 697/697/697
f 359/359/359 358/358/358 698/698/698
f 359/359/359 698/698/698 699/699/699
f 359/359/359 699/699/699 700/700/700
f 359/359/359 700/700/700 701/701/701
f 359/359/359 701/701/701 702/702/702
f 359/359/359 702/702/702 355/355/355
f 703/703/703 704/704/704 705/705/705
f 703/703/703 705/705/705 706/706/706
f 705/705/705 707/707/707 708/708/708
f 705/705/705 708/708/708 709/709/709
f 707/707/707 705/705/705 704/704/704
f 710/710/710 703/703/703 706/706/706
f 710/710/710 706/706/706 711/711/711
f 703/703/703 710/710/710 712/712/712
f 705/705/705 709/709/709 713/713/713
f 710/710/710 711/711/711 714/714/714
f 715/715/715 716/716/716 717/717/717
f 715/715/715 717/717/717 718/718/718
f 719/719/719 720/720/720 721/721/721
f 719/719/719 721/721/721 722/722/722
f 723/723/723 724/724/724 725/725/725
f 723/723/723 725/725/725 726/726/726
f 727/727/727 728/728/728 729/729/729
f 727/727/727 729/729/729 730/730/730
f 731/731/731 732/732/732 733/733/733
f 731/731/731 733/733/733 734/734/734
f 735/735/735 736/736/736 737/737/737
f 735/735/735 737/737/737 738/738/738
f 151/151/151 739/739/739 740/740/740
f 151/151/151 740/740/740 152/152/152
f 152/152/152 740/740/740 741/741/741
f 152/152/152 741/741/741 742/742/742
f 152/152/152 742/742/742 743/743/743
f 152/152/152 743/743/743 148/148/148
f 744/744/744 745/745/745 746/746/746
f 744/744/744 746/746/746 747/747/747
f 748/748/748 749/749/749 750/750/750
f 748/748/748 750/750/750 751/751/751
f 752/752/752 753/753/753 754/754/754
f 752/752/752 754/754/754 755/755/755
f 756/756/756 364/364/364 363/363/363
f 756/756/756 363/363/363 757/757/757
f 364/364/364 758/758/758 759/759/759
f 364/364/364 759/759/759 760/760/760
f 758/758/758 364/364/364 756/756/756
f 364/364/364 760/760/760 362/362/362
f 761/761/761 762/762/762 763/763/763
f 761/761/761 763/763/763 764/764/764
f 765/765/765 766/766/766 767/767/767
f 765/765/765 767/767/767 768/768/768
f 769/769/769 770/770/770 771/771/771
f 769/769/769 771/771/771 772/772/772
f 773/773/773 774/774/774 775/775/775
f 773/773/773 775/775/775 776/776/776
f 777/777/777 778/778/778 779/779/779
f 777/777/777 779/779/779 780/780/780
f 781/781/781 782/782/782 783/783/783
f 781/781/781 783/783/783 784/784/784
f 785/785/785 786/786/786 787/787/787
f 785/785/785 787/787/787 788/788/788
f 785/785/785 788/788/788 782/782/782
f 785/785/785 782/782/782 781/781/781
f 777/777/777 780/780/780 787/787/787
f 777/777/777 787/787/787 786/786/786
f 789/789/789 790/790/790 791/791/791
f 789/789/789 791/791/791 792/792/792
f 793/793/793 794/794/794 795/795/795
f 793/793/793 795/795/795 796/796/796
f 797/797/797 798/798/798 799/799/799
f 797/797/797 799/799/799 800/800/800
f 801/801/801 802/802/802 803/803/803
f 801/801/801 803/803/803 804/804/804
f 805/805/805 806/806/806 807/807/807
f 805/805/805 807/807/807 808/808/808
