# Exported by Gskelview
mtllib crate_dark.mtl

v -12.3853 60.1617 -30.4453
v -4.10044 60.1617 -30.4181
v -4.10044 7.97292 -30.4181
v -12.3853 7.97292 -30.4453
v -31.3406 2.05081 -31.2918
v -31.3406 8.17681 -31.2918
v -25.2146 8.17681 -31.2716
v -25.2146 2.05081 -31.2716
v -22.0424 8.17681 -31.2611
v -25.2146 15.8076 -31.2716
v -22.0424 2.05081 -31.2611
v -22.0424 10.7447 -31.2611
v -31.5466 8.17681 31.4779
v -31.5466 2.05081 31.4779
v -25.4206 2.05081 31.498
v -25.4206 8.17681 31.498
v -22.2484 2.05081 31.5085
v -22.2484 8.17681 31.5085
v -22.2484 10.7447 31.5085
v -25.4206 15.8076 31.498
v 31.3985 59.3309 -21.7876
v 25.2725 59.3309 -21.8078
v 25.2725 56.7635 -21.8078
v 31.3985 56.7635 -21.7876
v 30.5828 60.1617 -12.1305
v 30.5828 7.97292 -12.1305
v 28.991 7.97292 -13.7262
v 28.991 60.1617 -13.7262
v -31.516 65.4573 22.1797
v -31.3713 65.4573 -21.9936
v -31.3713 59.3309 -21.9936
v -31.516 59.3309 22.1797
v -20.6702 7.97292 -30.4725
v -20.6702 60.1617 -30.4725
v -19.0848 60.1617 -28.8703
v -19.0848 7.97292 -28.8703
v -25.2647 64.0128 -25.1456
v -25.4309 64.0128 25.372
v -23.1472 63.6943 25.3796
v -22.981 63.6943 -25.1381
v -31.516 59.3309 22.1797
v -25.3899 59.3309 22.1998
v -25.3899 56.7635 22.1998
v -31.516 56.7635 22.1797
v -25.4206 51.7004 31.498
v -25.4004 51.7004 25.3719
v -22.2283 56.7635 25.3825
v -22.2484 56.7635 31.5085
v -31.516 59.3309 22.1797
v -31.3713 59.3309 -21.9936
v -25.2452 59.3309 -21.9734
v -25.3899 59.3309 22.1998
v -29.1256 60.1617 19.2226
v -29.1087 60.1617 14.1183
v -29.1087 7.97292 14.1183
v -29.1256 7.97292 19.2226
v 21.9451 2.05081 25.5276
v -22.2283 2.05081 25.3825
v -22.2283 8.17681 25.3825
v 21.9451 8.17681 25.5276
v -25.4004 2.05081 25.3719
v -25.4004 8.17681 25.3719
v -25.4004 15.8076 25.3719
v 25.1171 8.17681 25.5377
v 21.9451 10.7447 25.5276
v 25.1171 2.05081 25.5377
v -22.2283 10.7447 25.3825
v 25.1171 15.8076 25.5377
v 30.5012 7.97292 12.7236
v 30.5012 60.1617 12.7236
v 28.8991 60.1617 14.3089
v 28.8991 7.97292 14.3089
v -22.0424 59.3309 -31.2611
v -22.0626 59.3309 -25.135
v -22.0626 56.7635 -25.135
v -22.0424 56.7635 -31.2611
v 15.1941 63.6943 25.5055
v 15.3599 63.6943 -25.0126
v 12.491 64.764 -25.0216
v 12.325 64.764 25.496
v 25.1274 59.3309 22.3656
v 25.2725 59.3309 -21.8078
v 31.3985 59.3309 -21.7876
v 31.2535 59.3309 22.3857
v 25.2725 8.17681 -21.8078
v 25.1276 8.17681 22.3661
v 31.2535 8.17681 22.3857
v 31.3985 8.17681 -21.7876
v 22.1108 59.3309 -24.9904
v 22.131 59.3309 -31.116
v 22.131 56.7635 -31.116
v 22.1108 56.7635 -24.9904
v -31.5265 15.8076 25.3518
v -31.5466 15.8076 31.4779
v -31.5466 51.7004 31.4779
v -31.5265 51.7004 25.3518
v -31.5265 8.17681 25.3518
v -31.5466 8.17681 31.4779
v -31.5466 59.3309 31.4779
v -31.5265 59.3309 25.3518
v -31.5466 15.8076 31.4779
v -25.4206 51.7004 31.498
v -31.5466 51.7004 31.4779
v -25.4206 59.3309 31.498
v -31.5466 59.3309 31.4779
v 22.1109 2.05081 -24.9899
v -22.0626 2.05081 -25.135
v -22.0424 2.05081 -31.2611
v 22.131 2.05081 -31.116
v 25.3029 2.05081 -31.1059
v 25.2828 2.05081 -24.9799
v -25.2347 2.05081 -25.1455
v -25.2146 2.05081 -31.2716
v 14.0538 60.1617 -28.7619
v 19.1579 60.1617 -28.7449
v 19.1579 7.97292 -28.7449
v 14.0538 7.97292 -28.7619
v 22.131 8.17681 -31.116
v 22.1109 8.17681 -24.9899
v 22.1109 10.7447 -24.9899
v 22.131 10.7447 -31.116
v -22.0424 65.4573 -31.2611
v 22.131 65.4573 -31.116
v 22.131 59.3309 -31.116
v -22.0424 59.3309 -31.2611
v -4.30145 60.1617 30.7834
v -12.5863 60.1617 30.7562
v -12.5863 7.97292 30.7562
v -4.30145 7.97292 30.7834
v 22.131 10.7447 -31.116
v 22.1109 10.7447 -24.9899
v 25.2828 15.8076 -24.9799
v 25.3029 15.8076 -31.1059
v 25.2829 51.7004 -24.9799
v 31.4089 51.7004 -24.9597
v 31.3985 56.7635 -21.7876
v 25.2725 56.7635 -21.8078
v 25.1274 56.7635 22.3656
v 31.2535 56.7635 22.3857
v 31.2431 51.7004 25.5578
v 25.1171 51.7004 25.5377
v 12.2678 60.1617 30.8379
v 12.2678 7.97292 30.8379
v 13.8634 7.97292 29.2459
v 13.8634 60.1617 29.2459
v -31.5466 2.05081 31.4779
v -31.5265 2.05081 25.3518
v -25.4004 2.05081 25.3719
v -25.4206 2.05081 31.498
v -25.2347 2.05081 -25.1455
v -31.3608 2.05081 -25.1657
v -31.3406 2.05081 -31.2918
v -25.2146 2.05081 -31.2716
v -31.516 2.05081 22.1797
v -31.3713 2.05081 -21.9936
v -25.2452 2.05081 -21.9734
v -25.3899 2.05081 22.1998
v -22.2283 59.3309 25.3825
v 21.9451 59.3309 25.5276
v 21.925 59.3309 31.6537
v -22.2484 59.3309 31.5085
v -22.0424 59.3309 -31.2611
v 22.131 59.3309 -31.116
v 22.1108 59.3309 -24.9904
v -22.0626 59.3309 -25.135
v -2.51567 60.1617 -28.8163
v 2.58841 60.1617 -28.7994
v 2.58841 7.97292 -28.7994
v -2.51567 7.97292 -28.8163
v 25.097 65.4573 31.6637
v 25.097 59.3309 31.6637
v 31.223 59.3309 31.6839
v 31.223 65.4573 31.6839
v 21.925 65.4573 31.6537
v 21.925 59.3309 31.6537
v 21.925 56.7635 31.6537
v 25.097 51.7004 31.6637
v 31.4289 15.8076 -31.0858
v 25.3029 15.8076 -31.1059
v 25.3029 51.7004 -31.1059
v 31.4289 51.7004 -31.0858
v 31.4289 8.17681 -31.0858
v 25.3029 8.17681 -31.1059
v 25.3029 59.3309 -31.1059
v 31.4289 59.3309 -31.0858
v -31.3608 15.8076 -25.1657
v -25.2347 15.8076 -25.1455
v -25.2347 51.7004 -25.1455
v -31.3608 51.7004 -25.1657
v -22.0626 8.17681 -25.135
v -22.0424 8.17681 -31.2611
v -22.0424 10.7447 -31.2611
v -22.0626 10.7447 -25.135
v -12.5863 7.97292 30.7562
v -12.5863 60.1617 30.7562
v -14.1712 60.1617 29.1539
v -14.1712 7.97292 29.1539
v 21.925 56.7635 31.6537
v 21.9451 56.7635 25.5276
v 25.1171 51.7004 25.5377
v 25.097 51.7004 31.6637
v 25.1171 15.8076 25.5377
v 31.2431 15.8076 25.5578
v 31.2535 10.7447 22.3857
v 25.1276 10.7447 22.3661
v -25.4181 7.97292 30.714
v -20.8712 7.97292 30.729
v -20.8712 60.1617 30.729
v -25.4181 60.1617 30.714
v -25.3899 59.3309 22.1998
v -25.2452 59.3309 -21.9734
v -25.2452 65.4573 -21.9734
v -25.3899 65.4573 22.1998
v -25.4004 65.4573 25.3719
v -25.4004 59.3309 25.3719
v -25.4004 51.7004 25.3719
v -25.2347 59.3309 -25.1455
v -25.2347 65.4573 -25.1455
v -25.2452 56.7635 -21.9734
v -25.3899 56.7635 22.1998
v -25.2347 51.7004 -25.1455
v -30.619 7.97292 -12.3314
v -30.619 60.1617 -12.3314
v -29.0167 60.1617 -13.9163
v -29.0167 7.97292 -13.9163
v 15.3599 63.6943 -25.0126
v 15.1941 63.6943 25.5055
v 22.8637 63.6943 25.5306
v 23.0295 63.6943 -24.9869
v -30.7007 60.1617 12.5227
v -30.7007 7.97292 12.5227
v -29.1087 7.97292 14.1183
v -29.1087 60.1617 14.1183
v 31.2431 59.3309 25.5578
v 31.2431 65.4573 25.5578
v 31.223 65.4573 31.6839
v 31.223 59.3309 31.6839
v 31.2535 59.3309 22.3857
v 31.2535 65.4573 22.3857
v 31.2431 51.7004 25.5578
v 31.2535 56.7635 22.3857
v 31.2431 8.17681 25.5578
v 31.223 8.17681 31.6839
v 31.223 2.05081 31.6839
v 31.2431 2.05081 25.5578
v 31.2535 2.05081 22.3857
v 31.2535 8.17681 22.3857
v 31.2535 10.7447 22.3857
v 31.2431 15.8076 25.5578
v 25.3029 15.8076 -31.1059
v 25.2828 15.8076 -24.9799
v 25.2829 51.7004 -24.9799
v 25.3029 51.7004 -31.1059
v -20.6702 60.1617 -30.4725
v -20.6702 7.97292 -30.4725
v -25.2171 7.97292 -30.4876
v -25.2171 60.1617 -30.4876
v 21.9451 65.4573 25.5276
v -22.2283 65.4573 25.3825
v -22.2484 65.4573 31.5085
v 21.925 65.4573 31.6537
v 25.097 65.4573 31.6637
v 25.1171 65.4573 25.5377
v -25.4004 65.4573 25.3719
v -25.4206 65.4573 31.498
v 12.491 64.764 -25.0216
v -12.4426 64.764 -25.1039
v -12.6087 64.764 25.4143
v 12.325 64.764 25.496
v 30.5557 7.97292 -3.84565
v 30.5557 60.1617 -3.84565
v 28.9534 60.1617 -2.26076
v 28.9534 7.97292 -2.26076
v -4.10044 7.97292 -30.4181
v -4.10044 60.1617 -30.4181
v -2.51567 60.1617 -28.8163
v -2.51567 7.97292 -28.8163
v 31.223 8.17681 31.6839
v 25.097 8.17681 31.6637
v 25.097 2.05081 31.6637
v 31.223 2.05081 31.6839
v 21.925 8.17681 31.6537
v 21.925 2.05081 31.6537
v 25.097 15.8076 31.6637
v 21.925 10.7447 31.6537
v 15.2404 3.79995 25.5052
v 15.406 3.79995 -25.0122
v 23.0754 3.79995 -24.9871
v 22.9097 3.79995 25.5304
v -30.7279 60.1617 20.8075
v -30.7279 7.97292 20.8075
v -30.7424 7.97292 25.3543
v -30.7424 60.1617 25.3543
v 30.4741 60.1617 21.0084
v 30.4741 7.97292 21.0084
v 28.8823 7.97292 19.4128
v 28.8823 60.1617 19.4128
v -19.0848 60.1617 -28.8703
v -13.981 60.1617 -28.8538
v -13.981 7.97292 -28.8538
v -19.0848 7.97292 -28.8703
v 25.1276 8.17681 22.3661
v 25.2725 8.17681 -21.8078
v 25.2725 2.05081 -21.8078
v 25.1276 2.05081 22.3661
v 25.2828 8.17681 -24.9799
v 25.2725 10.7447 -21.8078
v 25.2828 2.05081 -24.9799
v 25.1171 2.05081 25.5377
v 25.1171 8.17681 25.5377
v 25.1171 15.8076 25.5377
v 25.2828 15.8076 -24.9799
v 25.1276 10.7447 22.3661
v -31.3608 65.4573 -25.1657
v -31.3406 65.4573 -31.2918
v -31.3406 59.3309 -31.2918
v -31.3608 59.3309 -25.1657
v -31.3713 59.3309 -21.9936
v -31.3608 51.7004 -25.1657
v -31.3713 65.4573 -21.9936
v -31.3713 56.7635 -21.9936
v 30.61 7.97292 -20.4154
v 30.61 60.1617 -20.4154
v 29.0079 60.1617 -18.83
v 29.0079 7.97292 -18.83
v 30.5284 60.1617 4.43869
v 30.5012 60.1617 12.7236
v 30.5012 7.97292 12.7236
v 30.5284 7.97292 4.43869
v 4.1839 60.1617 -30.3913
v 12.4687 60.1617 -30.3641
v 12.4687 7.97292 -30.3641
v 4.1839 7.97292 -30.3913
v -25.4206 15.8076 31.498
v -25.4004 15.8076 25.3719
v -25.4004 51.7004 25.3719
v -25.4206 51.7004 31.498
v 31.223 15.8076 31.6839
v 31.223 51.7004 31.6839
v -25.4004 15.8076 25.3719
v -25.4206 15.8076 31.498
v -22.2484 10.7447 31.5085
v -22.2283 10.7447 25.3825
v -25.3845 3.48152 25.3723
v -25.2188 3.48152 -25.1452
v -22.9352 3.79995 -25.1382
v -23.1008 3.79995 25.3798
v -31.3608 51.7004 -25.1657
v -25.2347 51.7004 -25.1455
v -25.2452 56.7635 -21.9734
v -31.3713 56.7635 -21.9936
v 28.9534 60.1617 -2.26076
v 28.9368 60.1617 2.84354
v 28.9368 7.97292 2.84354
v 28.9534 7.97292 -2.26076
v -31.3406 15.8076 -31.2918
v -31.3608 15.8076 -25.1657
v -31.3406 51.7004 -31.2918
v -31.3406 8.17681 -31.2918
v -31.3608 8.17681 -25.1657
v 12.2678 60.1617 30.8379
v 3.98294 60.1617 30.8107
v 3.98294 7.97292 30.8107
v 12.2678 7.97292 30.8379
v -25.2452 59.3309 -21.9734
v -31.3713 59.3309 -21.9936
v -31.3713 56.7635 -21.9936
v -25.2452 56.7635 -21.9734
v 18.9675 60.1617 29.2629
v 13.8634 60.1617 29.2459
v 13.8634 7.97292 29.2459
v 18.9675 7.97292 29.2629
v 22.1109 8.17681 -24.9899
v -22.0626 8.17681 -25.135
v -22.0626 2.05081 -25.135
v 22.1109 2.05081 -24.9899
v 25.2828 2.05081 -24.9799
v 25.2828 8.17681 -24.9799
v 25.2828 15.8076 -24.9799
v -25.2347 8.17681 -25.1455
v -25.2347 2.05081 -25.1455
v -22.0626 10.7447 -25.135
v 22.1109 10.7447 -24.9899
v -25.2347 15.8076 -25.1455
v 25.2725 8.17681 -21.8078
v 31.3985 8.17681 -21.7876
v 31.3985 10.7447 -21.7876
v 25.2725 10.7447 -21.8078
v 31.2535 59.3309 22.3857
v 31.3985 59.3309 -21.7876
v 31.3985 65.4573 -21.7876
v 31.2535 65.4573 22.3857
v 31.3985 8.17681 -21.7876
v 31.2535 8.17681 22.3857
v 31.2535 2.05081 22.3857
v 31.3985 2.05081 -21.7876
v 22.1108 65.4573 -24.9904
v -22.0626 65.4573 -25.135
v -22.0626 59.3309 -25.135
v 22.1108 59.3309 -24.9904
v -25.2347 65.4573 -25.1455
v -25.2347 59.3309 -25.1455
v -25.2347 51.7004 -25.1455
v 25.2829 59.3309 -24.9799
v 22.1108 56.7635 -24.9904
v 25.2829 65.4573 -24.9799
v -22.0626 56.7635 -25.135
v 25.2829 51.7004 -24.9799
v 20.7533 60.1617 -30.3369
v 20.7533 7.97292 -30.3369
v 19.1579 7.97292 -28.7449
v 19.1579 60.1617 -28.7449
v -4.30145 60.1617 30.7834
v -4.30145 7.97292 30.7834
v -2.70586 7.97292 29.1914
v -2.70586 60.1617 29.1914
v -31.3406 15.8076 -31.2918
v -31.3406 51.7004 -31.2918
v -25.2146 51.7004 -31.2716
v -31.3406 59.3309 -31.2918
v -25.2146 59.3309 -31.2716
v 21.9451 59.3309 25.5276
v -22.2283 59.3309 25.3825
v -22.2283 65.4573 25.3825
v 21.9451 65.4573 25.5276
v 25.1171 65.4573 25.5377
v 25.1171 59.3309 25.5377
v 25.1171 51.7004 25.5377
v -25.4004 59.3309 25.3719
v -25.4004 65.4573 25.3719
v -22.2283 56.7635 25.3825
v 21.9451 56.7635 25.5276
v -25.4004 51.7004 25.3719
v -30.7007 60.1617 12.5227
v -30.6733 60.1617 4.23831
v -30.6733 7.97292 4.23831
v -30.7007 7.97292 12.5227
v 25.2725 10.7447 -21.8078
v 31.3985 10.7447 -21.7876
v 31.4088 15.8076 -24.9597
v 25.2828 15.8076 -24.9799
v -25.3899 8.17681 22.1998
v -31.516 8.17681 22.1797
v -31.516 10.7447 22.1797
v -25.3899 10.7447 22.1998
v -15.4314 3.79995 25.405
v -15.2658 3.79995 -25.113
v -12.3967 2.73058 -25.1035
v -12.5624 2.73058 25.414
v 28.8991 60.1617 14.3089
v 28.8823 60.1617 19.4128
v 28.8823 7.97292 19.4128
v 28.8991 7.97292 14.3089
v -30.6462 60.1617 -4.04658
v -30.619 60.1617 -12.3314
v -30.619 7.97292 -12.3314
v -30.6462 7.97292 -4.04658
v -30.5767 7.97292 -25.1632
v -30.5917 7.97292 -20.6158
v -30.5917 60.1617 -20.6158
v -30.5767 60.1617 -25.1632
v -31.3713 2.05081 -21.9936
v -31.516 2.05081 22.1797
v -31.516 8.17681 22.1797
v -31.3713 8.17681 -21.9936
v -31.3713 8.17681 -21.9936
v -31.516 8.17681 22.1797
v -25.3899 8.17681 22.1998
v -25.2452 8.17681 -21.9734
v 31.2431 2.05081 25.5578
v 31.223 2.05081 31.6839
v 25.097 2.05081 31.6637
v 25.1171 2.05081 25.5377
v 31.4088 2.05081 -24.9597
v 25.2828 2.05081 -24.9799
v 25.3029 2.05081 -31.1059
v 31.4289 2.05081 -31.0858
v 31.3985 2.05081 -21.7876
v 31.2535 2.05081 22.3857
v 25.1276 2.05081 22.3661
v 25.2725 2.05081 -21.8078
v 31.4088 15.8076 -24.9597
v 31.4289 15.8076 -31.0858
v 31.4289 51.7004 -31.0858
v 31.4089 51.7004 -24.9597
v 31.4088 8.17681 -24.9597
v 31.4289 8.17681 -31.0858
v 31.4289 59.3309 -31.0858
v 31.4089 59.3309 -24.9597
v 22.9097 3.79995 25.5304
v 23.0754 3.79995 -24.9871
v 25.3131 3.48795 -24.9798
v 25.1474 3.48795 25.5382
v 30.5284 60.1617 4.43869
v 30.5284 7.97292 4.43869
v 28.9368 7.97292 2.84354
v 28.9368 60.1617 2.84354
v 20.5526 60.1617 30.8651
v 20.5526 7.97292 30.8651
v 25.0997 7.97292 30.8801
v 25.0997 60.1617 30.8801
v 25.3004 7.97292 -30.3218
v 20.7533 7.97292 -30.3369
v 20.7533 60.1617 -30.3369
v 25.3004 60.1617 -30.3218
v -22.2283 2.05081 25.3825
v 21.9451 2.05081 25.5276
v 21.925 2.05081 31.6537
v -22.2484 2.05081 31.5085
v -25.4206 2.05081 31.498
v -25.4004 2.05081 25.3719
v 25.1171 2.05081 25.5377
v 25.097 2.05081 31.6637
v 21.925 59.3309 31.6537
v 21.9451 59.3309 25.5276
v 21.9451 56.7635 25.5276
v 21.925 56.7635 31.6537
v 25.3029 65.4573 -31.1059
v 31.4289 65.4573 -31.0858
v 22.131 59.3309 -31.116
v 22.131 65.4573 -31.116
v 22.131 56.7635 -31.116
v 22.131 2.05081 -31.116
v -22.0424 2.05081 -31.2611
v -22.0424 8.17681 -31.2611
v 22.131 8.17681 -31.116
v 3.98294 7.97292 30.8107
v 3.98294 60.1617 30.8107
v 2.39804 60.1617 29.2084
v 2.39804 7.97292 29.2084
v -31.3406 65.4573 -31.2918
v -25.2146 65.4573 -31.2716
v -22.0424 65.4573 -31.2611
v -22.0424 59.3309 -31.2611
v -22.0424 56.7635 -31.2611
v -31.3713 8.17681 -21.9936
v -25.2452 8.17681 -21.9734
v -25.2452 10.7447 -21.9734
v -31.3713 10.7447 -21.9936
v -25.2347 15.8076 -25.1455
v -25.2146 15.8076 -31.2716
v -25.2146 51.7004 -31.2716
v -25.2347 51.7004 -25.1455
v -30.6462 60.1617 -4.04658
v -30.6462 7.97292 -4.04658
v -29.0542 7.97292 -2.45099
v -29.0542 60.1617 -2.45099
v -25.2347 51.7004 -25.1455
v -25.2146 51.7004 -31.2716
v -22.0424 56.7635 -31.2611
v -22.0626 56.7635 -25.135
v -31.516 56.7635 22.1797
v -25.3899 56.7635 22.1998
v -25.4004 51.7004 25.3719
v -31.5265 51.7004 25.3518
v -30.5917 60.1617 -20.6158
v -30.5917 7.97292 -20.6158
v -28.9998 7.97292 -19.0207
v -28.9998 60.1617 -19.0207
v -31.5265 65.4573 25.3518
v -31.5466 65.4573 31.4779
v -31.516 65.4573 22.1797
v -31.516 59.3309 22.1797
v -31.516 56.7635 22.1797
v -22.981 63.6943 -25.1381
v -23.1472 63.6943 25.3796
v -15.4773 63.6943 25.4046
v -15.3116 63.6943 -25.1129
v 20.5526 7.97292 30.8651
v 20.5526 60.1617 30.8651
v 18.9675 60.1617 29.2629
v 18.9675 7.97292 29.2629
v -31.5265 2.05081 25.3518
v -31.5466 2.05081 31.4779
v -31.516 8.17681 22.1797
v -31.516 2.05081 22.1797
v -31.516 10.7447 22.1797
v -20.8712 60.1617 30.729
v -20.8712 7.97292 30.729
v -19.2755 7.97292 29.1375
v -19.2755 60.1617 29.1375
v -23.1008 3.79995 25.3798
v -22.9352 3.79995 -25.1382
v -15.2658 3.79995 -25.113
v -15.4314 3.79995 25.405
v 12.4687 7.97292 -30.3641
v 12.4687 60.1617 -30.3641
v 14.0538 60.1617 -28.7619
v 14.0538 7.97292 -28.7619
v 25.3029 2.05081 -31.1059
v 31.4289 2.05081 -31.0858
v 22.131 2.05081 -31.116
v 22.131 8.17681 -31.116
v 22.131 10.7447 -31.116
v 30.61 60.1617 -20.4154
v 30.61 7.97292 -20.4154
v 30.6249 7.97292 -24.9622
v 30.6249 60.1617 -24.9622
v 25.1274 59.3309 22.3656
v 31.2535 59.3309 22.3857
v 31.2535 56.7635 22.3857
v 25.1274 56.7635 22.3656
v -31.5265 15.8076 25.3518
v -25.4004 15.8076 25.3719
v -25.3899 10.7447 22.1998
v -31.516 10.7447 22.1797
v 31.2431 15.8076 25.5578
v 25.1171 15.8076 25.5377
v 25.1171 51.7004 25.5377
v 31.2431 51.7004 25.5578
v -30.6733 7.97292 4.23831
v -30.6733 60.1617 4.23831
v -29.0712 60.1617 2.6529
v -29.0712 7.97292 2.6529
v -25.2452 8.17681 -21.9734
v -25.3899 8.17681 22.1998
v -25.3899 2.05081 22.1998
v -25.2452 2.05081 -21.9734
v -25.2347 2.05081 -25.1455
v -25.2347 8.17681 -25.1455
v -25.2347 15.8076 -25.1455
v -25.4004 8.17681 25.3719
v -25.4004 2.05081 25.3719
v -25.3899 10.7447 22.1998
v -25.2452 10.7447 -21.9734
v -25.4004 15.8076 25.3719
v -31.3406 65.4573 -31.2918
v -31.3608 65.4573 -25.1657
v -25.2347 65.4573 -25.1455
v -25.2146 65.4573 -31.2716
v -25.4004 65.4573 25.3719
v -31.5265 65.4573 25.3518
v -31.5466 65.4573 31.4779
v -25.4206 65.4573 31.498
v -31.3713 65.4573 -21.9936
v -31.516 65.4573 22.1797
v -25.3899 65.4573 22.1998
v -25.2452 65.4573 -21.9734
v 21.9451 8.17681 25.5276
v 21.925 8.17681 31.6537
v 21.925 10.7447 31.6537
v 21.9451 10.7447 25.5276
v -31.3713 10.7447 -21.9936
v -25.2452 10.7447 -21.9734
v -25.2347 15.8076 -25.1455
v -31.3608 15.8076 -25.1657
v 21.925 65.4573 31.6537
v -22.2484 65.4573 31.5085
v -22.2484 59.3309 31.5085
v 21.925 59.3309 31.6537
v 22.1108 56.7635 -24.9904
v 22.131 56.7635 -31.116
v 25.3029 51.7004 -31.1059
v 25.2829 51.7004 -24.9799
v 15.406 3.79995 -25.0122
v 15.2404 3.79995 25.5052
v 12.3713 2.73058 25.4962
v 12.5369 2.73058 -25.0218
v -22.2484 2.05081 31.5085
v 21.925 2.05081 31.6537
v 21.925 8.17681 31.6537
v -22.2484 8.17681 31.5085
v 25.2725 59.3309 -21.8078
v 25.1274 59.3309 22.3656
v 25.1274 65.4573 22.3656
v 25.2725 65.4573 -21.8078
v 25.1171 59.3309 25.5377
v 25.1274 56.7635 22.3656
v 25.1171 65.4573 25.5377
v 25.2829 65.4573 -24.9799
v 25.2829 59.3309 -24.9799
v 25.2829 51.7004 -24.9799
v 25.1171 51.7004 25.5377
v 25.2725 56.7635 -21.8078
v -31.5466 65.4573 31.4779
v -25.4206 65.4573 31.498
v -22.2484 59.3309 31.5085
v -22.2484 65.4573 31.5085
v -22.2484 56.7635 31.5085
v -30.7279 7.97292 20.8075
v -30.7279 60.1617 20.8075
v -29.1256 60.1617 19.2226
v -29.1256 7.97292 19.2226
v -22.0626 65.4573 -25.135
v 22.1108 65.4573 -24.9904
v 22.131 65.4573 -31.116
v -22.0424 65.4573 -31.2611
v -25.2146 65.4573 -31.2716
v -25.2347 65.4573 -25.1455
v 25.2829 65.4573 -24.9799
v 25.3029 65.4573 -31.1059
v 21.9451 10.7447 25.5276
v 21.925 10.7447 31.6537
v 25.097 15.8076 31.6637
v 25.1171 15.8076 25.5377
v 2.39804 60.1617 29.2084
v -2.70586 60.1617 29.1914
v -2.70586 7.97292 29.1914
v 2.39804 7.97292 29.2084
v 29.0079 60.1617 -18.83
v 28.991 60.1617 -13.7262
v 28.991 7.97292 -13.7262
v 29.0079 7.97292 -18.83
v -31.3608 2.05081 -25.1657
v -31.3406 2.05081 -31.2918
v -31.3713 2.05081 -21.9936
v -31.3713 8.17681 -21.9936
v -31.3713 10.7447 -21.9936
v -12.3853 60.1617 -30.4453
v -12.3853 7.97292 -30.4453
v -13.981 7.97292 -28.8538
v -13.981 60.1617 -28.8538
v -22.0626 8.17681 -25.135
v 22.1109 8.17681 -24.9899
v 22.131 8.17681 -31.116
v -22.0424 8.17681 -31.2611
v 25.1171 15.8076 25.5377
v 25.097 15.8076 31.6637
v 25.097 51.7004 31.6637
v 25.1171 51.7004 25.5377
v 25.2828 15.8076 -24.9799
v 31.4088 15.8076 -24.9597
v 31.4089 51.7004 -24.9597
v 25.2829 51.7004 -24.9799
v 31.4088 2.05081 -24.9597
v 31.4289 2.05081 -31.0858
v 31.3985 8.17681 -21.7876
v 31.3985 2.05081 -21.7876
v 31.3985 10.7447 -21.7876
v -14.1712 60.1617 29.1539
v -19.2755 60.1617 29.1375
v -19.2755 7.97292 29.1375
v -14.1712 7.97292 29.1539
v -29.0167 60.1617 -13.9163
v -28.9998 60.1617 -19.0207
v -28.9998 7.97292 -19.0207
v -29.0167 7.97292 -13.9163
v -22.2484 8.17681 31.5085
v -22.2283 8.17681 25.3825
v -22.2283 10.7447 25.3825
v -22.2484 10.7447 31.5085
v 31.4089 65.4573 -24.9597
v 31.4289 65.4573 -31.0858
v 25.3029 65.4573 -31.1059
v 25.2829 65.4573 -24.9799
v 31.2431 65.4573 25.5578
v 25.1171 65.4573 25.5377
v 25.097 65.4573 31.6637
v 31.223 65.4573 31.6839
v 31.2535 65.4573 22.3857
v 31.3985 65.4573 -21.7876
v 25.2725 65.4573 -21.8078
v 25.1274 65.4573 22.3656
v -22.2484 8.17681 31.5085
v 21.925 8.17681 31.6537
v 21.9451 8.17681 25.5276
v -22.2283 8.17681 25.3825
v -29.0712 60.1617 2.6529
v -29.0542 60.1617 -2.45099
v -29.0542 7.97292 -2.45099
v -29.0712 7.97292 2.6529
v -15.3116 63.6943 -25.1129
v -15.4773 63.6943 25.4046
v -12.6087 64.764 25.4143
v -12.4426 64.764 -25.1039
v 12.3713 2.73058 25.4962
v -12.5624 2.73058 25.414
v -12.3967 2.73058 -25.1035
v 12.5369 2.73058 -25.0218
v 4.1839 60.1617 -30.3913
v 4.1839 7.97292 -30.3913
v 2.58841 7.97292 -28.7994
v 2.58841 60.1617 -28.7994
v 30.5828 60.1617 -12.1305
v 30.5557 60.1617 -3.84565
v 30.5557 7.97292 -3.84565
v 30.5828 7.97292 -12.1305
v 30.4591 7.97292 25.5553
v 30.4741 7.97292 21.0084
v 30.4741 60.1617 21.0084
v 30.4591 60.1617 25.5553
v 23.0295 63.6943 -24.9869
v 22.8637 63.6943 25.5306
v 25.1013 64.0062 25.5378
v 25.2671 64.0062 -24.9797
v 31.2535 8.17681 22.3857
v 25.1276 8.17681 22.3661
v 25.1276 10.7447 22.3661
v 31.2535 10.7447 22.3857
v 31.223 15.8076 31.6839
v 31.223 51.7004 31.6839
v 31.4289 65.4573 -31.0858
v 31.4089 65.4573 -24.9597
v 31.3985 65.4573 -21.7876
v 31.3985 59.3309 -21.7876
v 31.3985 56.7635 -21.7876
v -22.2283 59.3309 25.3825
v -22.2484 59.3309 31.5085
v -22.2484 56.7635 31.5085
v -22.2283 56.7635 25.3825
v -25.4004 51.7004 25.3719
v -25.4004 15.8076 25.3719
v -31.5265 15.8076 25.3518
v -31.5265 51.7004 25.3518
v -25.2146 15.8076 -31.2716
v -25.2347 15.8076 -25.1455
v -22.0626 10.7447 -25.135
v -22.0424 10.7447 -31.2611
vt 0.285736 0.780407
vt 0.285737 0.825104
vt 0.567304 0.825101
vt 0.567304 0.780404
vt 0.688302 0.075102
vt 0.655251 0.075101
vt 0.65525 0.108152
vt 0.688301 0.108152
vt 0.65525 0.125266
vt 0.614081 0.108151
vt 0.688301 0.125266
vt 0.641396 0.125266
vt 0.875636 0.438971
vt 0.87563 0.472022
vt 0.908681 0.472028
vt 0.908687 0.438977
vt 0.925795 0.472031
vt 0.925801 0.438981
vt 0.925803 0.425126
vt 0.908695 0.397808
vt 0.964976 0.759723
vt 0.998027 0.75972
vt 0.998025 0.745866
vt 0.964975 0.745868
vt 0.283544 0.921629
vt 0.001976 0.921659
vt 0.001977 0.933818
vt 0.283545 0.933789
vt 0.240282 0.040161
vt 0.001957 0.040132
vt 0.001953 0.073183
vt 0.240278 0.073212
vt 0.567303 0.728548
vt 0.285736 0.728551
vt 0.285736 0.74071
vt 0.567303 0.740707
vt 0.41413 0.427203
vt 0.141577 0.427145
vt 0.141575 0.439585
vt 0.414127 0.439644
vt 0.287776 0.282075
vt 0.287776 0.249024
vt 0.273922 0.249024
vt 0.273922 0.282075
vt 0.858965 0.519981
vt 0.892015 0.519987
vt 0.892021 0.487753
vt 0.85897 0.487748
vt 0.287776 0.282075
vt 0.526101 0.282073
vt 0.526101 0.249022
vt 0.287776 0.249024
vt 0.283548 0.961326
vt 0.283545 0.933789
vt 0.001977 0.933818
vt 0.00198 0.961355
vt 0.747252 0.742606
vt 0.747272 0.98093
vt 0.780323 0.980927
vt 0.780303 0.742603
vt 0.747273 0.998044
vt 0.780324 0.998041
vt 0.821493 0.998038
vt 0.780301 0.725489
vt 0.794157 0.742602
vt 0.74725 0.725492
vt 0.794177 0.980926
vt 0.82147 0.725486
vt 0.001961 0.780407
vt 0.283529 0.780378
vt 0.283528 0.768218
vt 0.00196 0.768248
vt 0.240277 0.214101
vt 0.240277 0.247152
vt 0.254131 0.247152
vt 0.254131 0.214101
vt 0.14153 0.648523
vt 0.414082 0.648582
vt 0.414086 0.632063
vt 0.141533 0.632004
vt 0.998047 0.998044
vt 0.998027 0.75972
vt 0.964976 0.759723
vt 0.964996 0.998047
vt 0.001953 0.212231
vt 0.240277 0.212233
vt 0.240278 0.179182
vt 0.001954 0.17918
vt 0.927359 0.4739
vt 0.894308 0.473896
vt 0.894307 0.48775
vt 0.927357 0.487754
vt 0.269823 0.160191
vt 0.269827 0.127141
vt 0.076179 0.127117
vt 0.076176 0.160168
vt 0.310992 0.160196
vt 0.310996 0.127146
vt 0.03501 0.127113
vt 0.035006 0.160164
vt 0.875644 0.397802
vt 0.908731 0.20416
vt 0.875681 0.204154
vt 0.908739 0.16299
vt 0.875688 0.162984
vt 0.747252 0.706497
vt 0.747271 0.468173
vt 0.71422 0.46817
vt 0.714201 0.706495
vt 0.7142 0.723609
vt 0.74725 0.723611
vt 0.747272 0.451059
vt 0.714221 0.451056
vt 0.285738 0.933818
vt 0.285738 0.961355
vt 0.567306 0.961352
vt 0.567306 0.933815
vt 0.89427 0.759718
vt 0.927321 0.759723
vt 0.927323 0.745869
vt 0.894272 0.745864
vt 0.482987 0.070313
vt 0.721311 0.070316
vt 0.721312 0.037265
vt 0.482988 0.037262
vt 0.285737 0.876961
vt 0.285738 0.921658
vt 0.567305 0.921655
vt 0.567305 0.876957
vt 0.894272 0.745864
vt 0.927323 0.745869
vt 0.927327 0.713635
vt 0.894276 0.713631
vt 0.998023 0.713632
vt 0.964972 0.713635
vt 0.964975 0.745868
vt 0.998025 0.745866
vt 0.512246 0.212235
vt 0.512247 0.179184
vt 0.480013 0.179184
vt 0.480013 0.212234
vt 0.285736 0.780407
vt 0.567304 0.780404
vt 0.567304 0.768244
vt 0.285736 0.768248
vt 0.712144 0.690576
vt 0.712145 0.657525
vt 0.679094 0.657525
vt 0.679093 0.690575
vt 0.679099 0.384972
vt 0.71215 0.384973
vt 0.71215 0.351922
vt 0.679099 0.351921
vt 0.712145 0.640411
vt 0.71215 0.402087
vt 0.679098 0.402086
vt 0.679094 0.64041
vt 0.929595 0.473899
vt 0.929618 0.712224
vt 0.962669 0.712221
vt 0.962646 0.473896
vt 0.240277 0.214101
vt 0.001953 0.214099
vt 0.001953 0.24715
vt 0.240277 0.247152
vt 0.285737 0.837264
vt 0.285737 0.864801
vt 0.567305 0.864798
vt 0.567304 0.837261
vt 0.840705 0.129934
vt 0.840698 0.162985
vt 0.873749 0.162991
vt 0.873756 0.129941
vt 0.82359 0.129931
vt 0.823584 0.162982
vt 0.823581 0.176836
vt 0.84069 0.204154
vt 0.076174 0.075077
vt 0.076173 0.108128
vt 0.26982 0.108131
vt 0.269821 0.07508
vt 0.035005 0.075076
vt 0.035004 0.108127
vt 0.310989 0.108132
vt 0.31099 0.075081
vt 0.856626 0.758306
vt 0.823575 0.758312
vt 0.823609 0.951959
vt 0.85666 0.951954
vt 0.5261 0.247154
vt 0.5261 0.214103
vt 0.512246 0.214103
vt 0.512245 0.247154
vt 0.567305 0.921655
vt 0.285738 0.921658
vt 0.285738 0.933818
vt 0.567306 0.933815
vt 0.96267 0.726075
vt 0.929619 0.726078
vt 0.929622 0.758312
vt 0.962673 0.758308
vt 0.286365 0.212233
vt 0.286365 0.179182
vt 0.254132 0.179182
vt 0.254132 0.212233
vt 0.567306 0.998044
vt 0.567306 0.973511
vt 0.285738 0.973515
vt 0.285739 0.998047
vt 0.068085 0.651978
vt 0.06806 0.413654
vt 0.035009 0.413658
vt 0.035034 0.651982
vt 0.035036 0.669096
vt 0.068087 0.669092
vt 0.109256 0.669088
vt 0.068058 0.39654
vt 0.035007 0.396544
vt 0.081914 0.413653
vt 0.081939 0.651977
vt 0.109227 0.396536
vt 0.001961 0.780407
vt 0.283529 0.780378
vt 0.283528 0.768218
vt 0.00196 0.768248
vt 0.414082 0.648582
vt 0.14153 0.648523
vt 0.141521 0.689901
vt 0.414073 0.68996
vt 0.283544 0.921629
vt 0.001976 0.921659
vt 0.001977 0.933818
vt 0.283545 0.933789
vt 0.96079 0.162989
vt 0.960785 0.129938
vt 0.927734 0.129944
vt 0.927739 0.162994
vt 0.977904 0.162987
vt 0.977899 0.129936
vt 0.960797 0.204159
vt 0.977906 0.176841
vt 0.960833 0.438975
vt 0.927782 0.43898
vt 0.927787 0.472031
vt 0.960838 0.472026
vt 0.977952 0.472023
vt 0.977947 0.438972
vt 0.977945 0.425118
vt 0.960826 0.397806
vt 0.894276 0.713631
vt 0.927327 0.713635
vt 0.927353 0.519988
vt 0.894302 0.519983
vt 0.285736 0.728551
vt 0.567303 0.728548
vt 0.567303 0.704015
vt 0.285735 0.704019
vt 0.475913 0.316993
vt 0.714237 0.317003
vt 0.714238 0.283952
vt 0.475914 0.283942
vt 0.4588 0.283942
vt 0.458799 0.316993
vt 0.731351 0.317004
vt 0.731353 0.283953
vt 0.414086 0.632063
vt 0.414115 0.497541
vt 0.141562 0.497482
vt 0.141533 0.632004
vt 0.001971 0.876961
vt 0.283539 0.876932
vt 0.283538 0.864772
vt 0.00197 0.864801
vt 0.567304 0.825101
vt 0.285737 0.825104
vt 0.285737 0.837264
vt 0.567304 0.837261
vt 0.873697 0.438977
vt 0.840646 0.438971
vt 0.84064 0.472021
vt 0.87369 0.472028
vt 0.823532 0.438968
vt 0.823525 0.472018
vt 0.840654 0.397802
vt 0.823534 0.425113
vt 0.414082 0.648582
vt 0.14153 0.648523
vt 0.141521 0.689901
vt 0.414073 0.68996
vt 0.283549 0.973485
vt 0.001981 0.973515
vt 0.001984 0.998047
vt 0.283551 0.998018
vt 0.283524 0.728522
vt 0.001956 0.728551
vt 0.001957 0.740711
vt 0.283525 0.740681
vt 0.285736 0.74071
vt 0.285736 0.768248
vt 0.567304 0.768244
vt 0.567303 0.740707
vt 0.670977 0.947883
vt 0.670987 0.709559
vt 0.637937 0.709558
vt 0.637926 0.947882
vt 0.670988 0.692445
vt 0.684842 0.70956
vt 0.637938 0.692444
vt 0.637926 0.964996
vt 0.670977 0.964997
vt 0.712146 0.964999
vt 0.712157 0.692447
vt 0.684831 0.947884
vt 0.346217 0.144243
vt 0.346213 0.177294
vt 0.379264 0.177298
vt 0.379268 0.144247
vt 0.37927 0.127133
vt 0.420437 0.144252
vt 0.346219 0.127129
vt 0.393124 0.127135
vt 0.001981 0.973515
vt 0.283549 0.973485
vt 0.283548 0.961326
vt 0.00198 0.961355
vt 0.283534 0.825076
vt 0.283529 0.780378
vt 0.001961 0.780407
vt 0.001966 0.825105
vt 0.285737 0.876961
vt 0.285738 0.921658
vt 0.567305 0.921655
vt 0.567305 0.876957
vt 0.858931 0.713629
vt 0.891982 0.713635
vt 0.892015 0.519987
vt 0.858965 0.519981
vt 0.873704 0.397808
vt 0.873741 0.20416
vt 0.891982 0.713635
vt 0.858931 0.713629
vt 0.858926 0.745862
vt 0.891976 0.745868
vt 0.41413 0.427203
vt 0.141577 0.427145
vt 0.141575 0.439585
vt 0.414127 0.439644
vt 0.85666 0.951954
vt 0.823609 0.951959
vt 0.823615 0.984193
vt 0.856665 0.984187
vt 0.283538 0.864772
vt 0.283535 0.837235
vt 0.001967 0.837264
vt 0.00197 0.864801
vt 0.614081 0.177326
vt 0.614085 0.144275
vt 0.420433 0.177303
vt 0.65525 0.177331
vt 0.655254 0.14428
vt 0.285736 0.780407
vt 0.285737 0.825104
vt 0.567304 0.825101
vt 0.567304 0.780404
vt 0.823617 0.998047
vt 0.856668 0.998041
vt 0.856665 0.984187
vt 0.823615 0.984193
vt 0.285736 0.74071
vt 0.285736 0.768248
vt 0.567304 0.768244
vt 0.567303 0.740707
vt 0.780303 0.7065
vt 0.780322 0.468176
vt 0.747271 0.468173
vt 0.747252 0.706497
vt 0.74725 0.723611
vt 0.780301 0.723614
vt 0.82147 0.723617
vt 0.780323 0.451061
vt 0.747272 0.451059
vt 0.794176 0.468177
vt 0.794156 0.706501
vt 0.821492 0.451065
vt 0.998002 0.473897
vt 0.964951 0.4739
vt 0.964953 0.487754
vt 0.998003 0.487751
vt 0.690479 0.10524
vt 0.928803 0.105204
vt 0.928798 0.072153
vt 0.690474 0.07219
vt 0.36635 0.306801
vt 0.128027 0.306838
vt 0.128032 0.339889
vt 0.366355 0.339852
vt 0.128396 0.392225
vt 0.36672 0.392243
vt 0.366723 0.359192
vt 0.128398 0.359174
vt 0.383834 0.392244
vt 0.383837 0.359194
vt 0.38384 0.318024
vt 0.111284 0.359172
vt 0.128399 0.34532
vt 0.111281 0.392223
vt 0.366724 0.345338
vt 0.111287 0.318003
vt 0.285738 0.973515
vt 0.567306 0.973511
vt 0.567306 0.961352
vt 0.285738 0.961355
vt 0.285737 0.876961
vt 0.567305 0.876957
vt 0.567305 0.864798
vt 0.285737 0.864801
vt 0.614082 0.0751
vt 0.420434 0.075098
vt 0.420434 0.108148
vt 0.379265 0.075097
vt 0.379265 0.108148
vt 0.475911 0.350044
vt 0.714236 0.350054
vt 0.714237 0.317003
vt 0.475913 0.316993
vt 0.458799 0.316993
vt 0.458798 0.350043
vt 0.458796 0.391213
vt 0.73135 0.350055
vt 0.731351 0.317004
vt 0.714235 0.363908
vt 0.475911 0.363898
vt 0.731348 0.391223
vt 0.283544 0.921629
vt 0.283539 0.876932
vt 0.001971 0.876961
vt 0.001976 0.921659
vt 0.998003 0.487751
vt 0.964953 0.487754
vt 0.964955 0.519987
vt 0.998006 0.519984
vt 0.001953 0.249027
vt 0.001953 0.282078
vt 0.015808 0.282077
vt 0.015807 0.249027
vt 0.414118 0.481022
vt 0.141566 0.480963
vt 0.141562 0.497482
vt 0.414115 0.497541
vt 0.283528 0.768218
vt 0.283525 0.740681
vt 0.001957 0.740711
vt 0.00196 0.768248
vt 0.283534 0.825076
vt 0.283529 0.780378
vt 0.001961 0.780407
vt 0.001966 0.825105
vt 0.001953 0.704019
vt 0.001956 0.728551
vt 0.283524 0.728522
vt 0.283521 0.703989
vt 0.24247 0.073201
vt 0.480793 0.073229
vt 0.480797 0.040178
vt 0.242474 0.040151
vt 0.856618 0.712218
vt 0.856576 0.473894
vt 0.823525 0.4739
vt 0.823567 0.712224
vt 0.604875 0.964995
vt 0.604874 0.998045
vt 0.637924 0.998047
vt 0.637926 0.964996
vt 0.604887 0.692442
vt 0.637938 0.692444
vt 0.637939 0.659393
vt 0.604888 0.659391
vt 0.604886 0.709556
vt 0.604876 0.947881
vt 0.637926 0.947882
vt 0.637937 0.709558
vt 0.750429 0.374967
vt 0.78348 0.374962
vt 0.78345 0.181315
vt 0.750399 0.18132
vt 0.750435 0.416136
vt 0.783486 0.416131
vt 0.783443 0.140146
vt 0.750393 0.140151
vt 0.414073 0.68996
vt 0.141521 0.689901
vt 0.141518 0.70209
vt 0.41407 0.702149
vt 0.283534 0.825076
vt 0.001966 0.825105
vt 0.001967 0.837264
vt 0.283535 0.837235
vt 0.285736 0.728551
vt 0.567303 0.728548
vt 0.567303 0.704015
vt 0.285735 0.704019
vt 0.567306 0.998044
vt 0.567306 0.973511
vt 0.285738 0.973515
vt 0.285739 0.998047
vt 0.747272 0.98093
vt 0.747252 0.742606
vt 0.714201 0.742609
vt 0.714221 0.980933
vt 0.714222 0.998047
vt 0.747273 0.998044
vt 0.74725 0.725492
vt 0.7142 0.725495
vt 0.962669 0.712221
vt 0.929618 0.712224
vt 0.929619 0.726078
vt 0.96267 0.726075
vt 0.34404 0.108133
vt 0.344041 0.075082
vt 0.310989 0.125246
vt 0.34404 0.125247
vt 0.297135 0.125246
vt 0.961829 0.037234
vt 0.723504 0.037231
vt 0.723504 0.070282
vt 0.961828 0.070285
vt 0.567304 0.825101
vt 0.285737 0.825104
vt 0.285737 0.837264
vt 0.567304 0.837261
vt 0.346214 0.075096
vt 0.346214 0.108147
vt 0.346213 0.125261
vt 0.379264 0.125262
vt 0.393118 0.125262
vt 0.856618 0.712218
vt 0.823567 0.712224
vt 0.823569 0.726078
vt 0.85662 0.726072
vt 0.480012 0.247154
vt 0.480012 0.214103
vt 0.286365 0.214101
vt 0.286365 0.247152
vt 0.283534 0.825076
vt 0.001966 0.825105
vt 0.001967 0.837264
vt 0.283535 0.837235
vt 0.286365 0.247152
vt 0.286365 0.214101
vt 0.254131 0.214101
vt 0.254131 0.247152
vt 0.273922 0.282075
vt 0.273922 0.249024
vt 0.241689 0.249025
vt 0.241689 0.282075
vt 0.283524 0.728522
vt 0.001956 0.728551
vt 0.001957 0.740711
vt 0.283525 0.740681
vt 0.001956 0.160159
vt 0.001959 0.127109
vt 0.001953 0.177274
vt 0.035004 0.177278
vt 0.048858 0.177279
vt 0.414127 0.439644
vt 0.141575 0.439585
vt 0.141566 0.480963
vt 0.414118 0.481022
vt 0.567303 0.728548
vt 0.285736 0.728551
vt 0.285736 0.74071
vt 0.567303 0.740707
vt 0.344043 0.1602
vt 0.344047 0.12715
vt 0.31099 0.177311
vt 0.344041 0.177315
vt 0.297136 0.177309
vt 0.285738 0.973515
vt 0.567306 0.973511
vt 0.567306 0.961352
vt 0.285738 0.961355
vt 0.414127 0.439644
vt 0.141575 0.439585
vt 0.141566 0.480963
vt 0.414118 0.481022
vt 0.567305 0.921655
vt 0.285738 0.921658
vt 0.285738 0.933818
vt 0.567306 0.933815
vt 0.001953 0.108127
vt 0.001954 0.075076
vt 0.001953 0.12524
vt 0.035004 0.125241
vt 0.048858 0.125241
vt 0.283549 0.973485
vt 0.001981 0.973515
vt 0.001984 0.998047
vt 0.283551 0.998018
vt 0.5261 0.212235
vt 0.526101 0.179184
vt 0.512247 0.179184
vt 0.512246 0.212235
vt 0.048041 0.282077
vt 0.048041 0.249026
vt 0.015807 0.249027
vt 0.015808 0.282077
vt 0.286365 0.179182
vt 0.286365 0.212233
vt 0.480013 0.212234
vt 0.480013 0.179184
vt 0.001971 0.876961
vt 0.283539 0.876932
vt 0.283538 0.864772
vt 0.00197 0.864801
vt 0.646048 0.402085
vt 0.646043 0.64041
vt 0.679094 0.64041
vt 0.679098 0.402086
vt 0.679099 0.384972
vt 0.646048 0.384971
vt 0.604879 0.384971
vt 0.646043 0.657524
vt 0.679094 0.657525
vt 0.632189 0.64041
vt 0.632194 0.402085
vt 0.604874 0.657523
vt 0.001953 0.363496
vt 0.001957 0.396547
vt 0.035007 0.396544
vt 0.035004 0.363493
vt 0.035036 0.669096
vt 0.001985 0.669099
vt 0.001989 0.70215
vt 0.035039 0.702147
vt 0.001958 0.413661
vt 0.001983 0.651985
vt 0.035034 0.651982
vt 0.035009 0.413658
vt 0.929645 0.998047
vt 0.962696 0.998044
vt 0.962695 0.98419
vt 0.929644 0.984193
vt 0.85662 0.726072
vt 0.823569 0.726078
vt 0.823575 0.758312
vt 0.856626 0.758306
vt 0.484403 0.702148
vt 0.484448 0.463824
vt 0.451397 0.463817
vt 0.451352 0.702142
vt 0.927357 0.487754
vt 0.894307 0.48775
vt 0.894302 0.519983
vt 0.927353 0.519988
vt 0.14153 0.648523
vt 0.414082 0.648582
vt 0.414086 0.632063
vt 0.141533 0.632004
vt 0.416041 0.463817
vt 0.415996 0.702142
vt 0.449047 0.702148
vt 0.449092 0.463823
vt 0.536732 0.446707
vt 0.536718 0.685031
vt 0.569769 0.685033
vt 0.569783 0.446709
vt 0.536717 0.702145
vt 0.522864 0.68503
vt 0.569768 0.702147
vt 0.569784 0.429595
vt 0.536734 0.429593
vt 0.495564 0.42959
vt 0.495548 0.702143
vt 0.522878 0.446706
vt 0.875695 0.129934
vt 0.908745 0.12994
vt 0.925853 0.162994
vt 0.925859 0.129943
vt 0.925851 0.176848
vt 0.001981 0.973515
vt 0.283549 0.973485
vt 0.283548 0.961326
vt 0.00198 0.961355
vt 0.36672 0.392243
vt 0.128396 0.392225
vt 0.128393 0.425275
vt 0.366717 0.425294
vt 0.383832 0.425295
vt 0.383834 0.392244
vt 0.111281 0.392223
vt 0.111279 0.425274
vt 0.929644 0.984193
vt 0.962695 0.98419
vt 0.962692 0.951956
vt 0.929641 0.951959
vt 0.285737 0.837264
vt 0.285737 0.864801
vt 0.567305 0.864798
vt 0.567304 0.837261
vt 0.283548 0.961326
vt 0.283545 0.933789
vt 0.001977 0.933818
vt 0.00198 0.961355
vt 0.688305 0.144284
vt 0.688301 0.177335
vt 0.688307 0.12717
vt 0.655256 0.127166
vt 0.641402 0.127164
vt 0.285736 0.780407
vt 0.567304 0.780404
vt 0.567304 0.768244
vt 0.285736 0.768248
vt 0.927289 0.998047
vt 0.927321 0.759723
vt 0.89427 0.759718
vt 0.894238 0.998043
vt 0.929641 0.951959
vt 0.962692 0.951956
vt 0.962673 0.758308
vt 0.929622 0.758312
vt 0.998006 0.519984
vt 0.964955 0.519987
vt 0.964972 0.713635
vt 0.998023 0.713632
vt 0.750441 0.449187
vt 0.783491 0.449182
vt 0.733321 0.416139
vt 0.733327 0.449189
vt 0.733319 0.402285
vt 0.285738 0.933818
vt 0.285738 0.961355
vt 0.567306 0.961352
vt 0.567306 0.933815
vt 0.283528 0.768218
vt 0.283525 0.740681
vt 0.001957 0.740711
vt 0.00196 0.768248
vt 0.858923 0.759717
vt 0.891974 0.759722
vt 0.891976 0.745868
vt 0.858926 0.745862
vt 0.602835 0.429597
vt 0.602837 0.396546
vt 0.569786 0.396544
vt 0.569784 0.429595
vt 0.602819 0.702149
vt 0.569768 0.702147
vt 0.569766 0.735198
vt 0.602817 0.7352
vt 0.60282 0.685035
vt 0.602834 0.446711
vt 0.569783 0.446709
vt 0.569769 0.685033
vt 0.858923 0.759717
vt 0.858882 0.998041
vt 0.891933 0.998047
vt 0.891974 0.759722
vt 0.283538 0.864772
vt 0.283535 0.837235
vt 0.001967 0.837264
vt 0.00197 0.864801
vt 0.414118 0.481022
vt 0.141566 0.480963
vt 0.141562 0.497482
vt 0.414115 0.497541
vt 0.414086 0.632063
vt 0.414115 0.497541
vt 0.141562 0.497482
vt 0.141533 0.632004
vt 0.285737 0.876961
vt 0.567305 0.876957
vt 0.567305 0.864798
vt 0.285737 0.864801
vt 0.283544 0.921629
vt 0.283539 0.876932
vt 0.001971 0.876961
vt 0.001976 0.921659
vt 0.001953 0.704019
vt 0.001956 0.728551
vt 0.283524 0.728522
vt 0.283521 0.703989
vt 0.414073 0.68996
vt 0.141521 0.689901
vt 0.141518 0.70209
vt 0.41407 0.702149
vt 0.240278 0.179182
vt 0.240277 0.212233
vt 0.254132 0.212233
vt 0.254132 0.179182
vt 0.927776 0.397811
vt 0.927746 0.204164
vt 0.783438 0.107095
vt 0.750388 0.1071
vt 0.733274 0.107102
vt 0.733279 0.140153
vt 0.733281 0.154007
vt 0.892023 0.473899
vt 0.858973 0.473894
vt 0.85897 0.487748
vt 0.892021 0.487753
vt 0.241689 0.249025
vt 0.048041 0.249026
vt 0.048041 0.282077
vt 0.241689 0.282075
vt 0.480012 0.214103
vt 0.480012 0.247154
vt 0.512245 0.247154
vt 0.512246 0.214103
vn 0.00328 0 -0.999995
vn 0.00328 0 -0.999995
vn 0.00328 0 -0.999995
vn 0.00328 0 -0.999995
vn 0.003283 0 -0.999995
vn 0.003283 0 -0.999995
vn 0.003281 0 -0.999995
vn 0.003282 0 -0.999995
vn 0.003281 0 -0.999995
vn 0.00328 0 -0.999995
vn 0.003282 0 -0.999995
vn 0.00328 0 -0.999995
vn -0.003282 -0 0.999995
vn -0.003282 -0 0.999995
vn -0.003281 -0 0.999995
vn -0.00328 -0 0.999995
vn -0.003281 -0 0.999995
vn -0.003281 -0 0.999995
vn -0.003277 -0 0.999995
vn -0.003277 -0 0.999995
vn -0.003283 -0 0.999995
vn -0.003283 -0 0.999995
vn -0.003283 -0 0.999995
vn -0.003283 -0 0.999995
vn 0.707943 0 -0.706269
vn 0.707943 0 -0.706269
vn 0.707943 0 -0.706269
vn 0.707943 0 -0.706269
vn -0.999995 0 -0.003281
vn -0.999995 0 -0.003281
vn -0.999995 0 -0.003281
vn -0.999995 0 -0.003281
vn 0.7109 0 -0.703293
vn 0.7109 0 -0.703293
vn 0.7109 0 -0.703293
vn 0.7109 0 -0.703293
vn 0.138095 0.990419 0.000453
vn 0.138095 0.990419 0.000453
vn 0.138095 0.990419 0.000453
vn 0.138095 0.990419 0.000453
vn 0.00328 0 -0.999995
vn 0.00328 0 -0.999995
vn 0.00328 0 -0.999995
vn 0.00328 0 -0.999995
vn 0.84741 -0.530931 0.002781
vn 0.84741 -0.530931 0.002781
vn 0.84741 -0.530931 0.002781
vn 0.84741 -0.530931 0.002781
vn 0 -1 0
vn 0 -1 0
vn 0 -1 0
vn 0 -1 0
vn -0.999995 0 -0.003281
vn -0.999995 0 -0.003281
vn -0.999995 0 -0.003281
vn -0.999995 0 -0.003281
vn 0.003282 0 -0.999995
vn 0.003282 0 -0.999995
vn 0.003282 0 -0.999995
vn 0.003281 0 -0.999995
vn 0.003282 0 -0.999995
vn 0.003283 0 -0.999995
vn 0.003284 0 -0.999995
vn 0.00328 0 -0.999995
vn 0.003277 0 -0.999995
vn 0.003282 0 -0.999995
vn 0.003284 0 -0.999995
vn 0.003277 0 -0.999995
vn 0.703292 -0 0.710901
vn 0.703292 -0 0.710901
vn 0.703292 -0 0.710901
vn 0.703292 -0 0.710901
vn 0.999995 -0 0.003282
vn 0.999995 -0 0.003282
vn 0.999995 -0 0.003282
vn 0.999995 -0 0.003282
vn 0.349251 0.937029 0.001146
vn 0.349251 0.937029 0.001146
vn 0.349251 0.937029 0.001146
vn 0.349251 0.937029 0.001146
vn -0 -1 -0
vn -0 -1 -0
vn -0 -1 -0
vn -0 -1 -0
vn 0 1 0
vn 0 1 0
vn 0 1 0
vn 0 1 0
vn -0.999995 0 -0.003281
vn -0.999995 0 -0.003281
vn -0.999995 0 -0.003281
vn -0.999995 0 -0.003281
vn -0.999995 -0 -0.003281
vn -0.999995 -0 -0.003281
vn -0.999995 -0 -0.003281
vn -0.999995 -0 -0.003281
vn -0.999995 0 -0.00328
vn -0.999995 0 -0.00328
vn -0.999995 0 -0.003281
vn -0.999995 0 -0.003281
vn -0.003279 -0 0.999995
vn -0.003279 -0 0.999995
vn -0.003279 -0 0.999995
vn -0.00328 -0 0.999995
vn -0.00328 -0 0.999995
vn -0 -1 -0
vn -0 -1 -0
vn -0 -1 -0
vn -0 -1 -0
vn -0 -1 -0
vn -0 -1 -0
vn -0 -1 -0
vn -0 -1 -0
vn 0.00328 0 -0.999995
vn 0.00328 0 -0.999995
vn 0.00328 0 -0.999995
vn 0.00328 0 -0.999995
vn -0.999995 0 -0.003281
vn -0.999995 0 -0.003281
vn -0.999995 0 -0.003281
vn -0.999995 0 -0.003281
vn 0.003282 0 -0.999995
vn 0.003281 0 -0.999995
vn 0.003281 0 -0.999995
vn 0.003282 0 -0.999995
vn -0.003283 -0 0.999995
vn -0.003283 -0 0.999995
vn -0.003283 -0 0.999995
vn -0.003283 -0 0.999995
vn -0.84741 0.530931 -0.002781
vn -0.84741 0.530931 -0.002781
vn -0.84741 0.530931 -0.002781
vn -0.84741 0.530932 -0.002781
vn -0.002779 -0.530929 0.847412
vn -0.002779 -0.530929 0.847412
vn -0.002779 -0.530929 0.847412
vn -0.002779 -0.530929 0.847412
vn 0.00278 -0.530932 -0.84741
vn 0.00278 -0.530932 -0.84741
vn 0.00278 -0.530932 -0.84741
vn 0.00278 -0.530932 -0.84741
vn 0.70626 -0 0.707953
vn 0.70626 -0 0.707953
vn 0.70626 -0 0.707953
vn 0.70626 -0 0.707953
vn -0 -1 -0
vn -0 -1 -0
vn -0 -1 -0
vn -0 -1 -0
vn -0 -1 -0
vn -0 -1 -0
vn -0 -1 -0
vn -0 -1 -0
vn -0 -1 -0
vn -0 -1 -0
vn -0 -1 -0
vn -0 -1 -0
vn 0 -1 0
vn 0 -1 0
vn 0 -1 0
vn 0 -1 0
vn -0 -1 -0
vn -0 -1 -0
vn -0 -1 -0
vn -0 -1 -0
vn 0.003279 0 -0.999995
vn 0.003279 0 -0.999995
vn 0.003279 0 -0.999995
vn 0.003279 0 -0.999995
vn -0.003283 -0 0.999995
vn -0.003282 -0 0.999995
vn -0.003283 -0 0.999995
vn -0.003283 -0 0.999995
vn -0.003281 -0 0.999995
vn -0.003281 -0 0.999995
vn -0.003277 -0 0.999995
vn -0.003277 -0 0.999995
vn 0.003282 0 -0.999995
vn 0.003282 0 -0.999995
vn 0.003282 0 -0.999995
vn 0.003281 0 -0.999995
vn 0.003282 0 -0.999995
vn 0.003282 0 -0.999995
vn 0.003282 0 -0.999995
vn 0.003282 0 -0.999995
vn -0.003283 1e-06 0.999995
vn -0.003283 1e-06 0.999995
vn -0.003283 1e-06 0.999995
vn -0.003283 1e-06 0.999995
vn 0.999995 -0 0.003281
vn 0.999995 -0 0.003281
vn 0.999995 -0 0.003281
vn 0.999995 -0 0.003281
vn -0.7109 -0 0.703293
vn -0.7109 -0 0.703293
vn -0.7109 -0 0.703293
vn -0.7109 -0 0.703293
vn -0.84741 -0.530932 -0.002781
vn -0.84741 -0.530932 -0.002781
vn -0.84741 -0.530932 -0.002781
vn -0.84741 -0.530932 -0.002781
vn 0.002778 0.530932 -0.84741
vn 0.002778 0.530932 -0.84741
vn 0.002778 0.530932 -0.84741
vn 0.002778 0.530932 -0.84741
vn -0.003287 -0 0.999995
vn -0.003287 -0 0.999995
vn -0.003287 -0 0.999995
vn -0.003287 -0 0.999995
vn 0.999995 -0 0.003281
vn 0.999995 -0 0.003282
vn 0.999995 -0 0.003282
vn 0.999995 -0 0.003281
vn 0.999995 -0 0.003281
vn 0.999995 -0 0.003281
vn 0.999995 -0 0.00328
vn 0.999995 -0 0.003284
vn 0.999995 -0 0.003283
vn 0.999995 -0 0.003284
vn 0.999995 -0 0.00328
vn 0.999995 -0 0.003284
vn -0.703296 0 -0.710897
vn -0.703296 0 -0.710897
vn -0.703296 0 -0.710897
vn -0.703296 0 -0.710897
vn 0 1 0
vn 0 1 0
vn 0 1 0
vn 0 1 0
vn -0.707946 -0 0.706266
vn -0.707946 -0 0.706266
vn -0.707946 -0 0.706266
vn -0.707946 -0 0.706266
vn 0.999995 -0 0.003281
vn 0.999995 -0 0.003281
vn 0.999995 -0 0.003281
vn 0.999995 -0 0.003281
vn 0.999995 -0 0.003282
vn 0.999995 -0 0.003281
vn 0.999995 -0 0.003282
vn 0.999995 -0 0.003282
vn 0.999995 -0 0.003282
vn 0.999995 -0 0.00328
vn 0.999995 -0 0.00328
vn 0.999995 -0 0.003281
vn 0.999995 -0 0.003281
vn 0.999995 -0 0.003282
vn 0.999995 -0 0.003284
vn 0.999995 -0 0.003284
vn -0.999995 0 -0.003281
vn -0.999995 0 -0.003281
vn -0.999995 0 -0.003281
vn -0.999995 0 -0.003281
vn 0.003279 0 -0.999995
vn 0.003279 0 -0.999995
vn 0.003279 0 -0.999995
vn 0.003279 0 -0.999995
vn -0 1 -0
vn -0 1 -0
vn -0 1 -0
vn -0 1 -0
vn -0 1 -0
vn -0 1 -0
vn -0 1 -0
vn -0 1 -0
vn 0 1 0
vn 0 1 0
vn 0 1 0
vn 0 1 0
vn 0.703295 -0 0.710898
vn 0.703295 -0 0.710898
vn 0.703295 -0 0.710898
vn 0.703295 -0 0.710898
vn 0.710899 0 -0.703295
vn 0.710899 0 -0.703295
vn 0.710899 0 -0.703295
vn 0.710899 0 -0.703295
vn -0.003283 -0 0.999995
vn -0.003282 -0 0.999995
vn -0.003283 -0 0.999995
vn -0.003283 -0 0.999995
vn -0.003281 -0 0.999995
vn -0.003281 -0 0.999995
vn -0.00328 -0 0.999995
vn -0.00328 -0 0.999995
vn 0 -1 0
vn 0 -1 0
vn 0 -1 0
vn 0 -1 0
vn -0.999995 0 -0.003283
vn -0.999995 0 -0.003283
vn -0.999995 0 -0.003283
vn -0.999995 0 -0.003283
vn 0.707944 0 -0.706269
vn 0.707944 0 -0.706269
vn 0.707944 0 -0.706269
vn 0.707944 0 -0.706269
vn 0.00328 0 -0.999995
vn 0.00328 0 -0.999995
vn 0.00328 0 -0.999995
vn 0.00328 0 -0.999995
vn -0.999995 0 -0.003281
vn -0.999995 0 -0.003281
vn -0.999995 0 -0.003281
vn -0.999995 0 -0.003281
vn -0.999995 0 -0.003281
vn -0.999995 0 -0.003281
vn -0.999995 0 -0.003282
vn -0.999995 0 -0.003281
vn -0.999995 0 -0.003282
vn -0.999995 0 -0.003283
vn -0.999995 0 -0.003281
vn -0.999995 0 -0.003283
vn -0.999995 0 -0.003282
vn -0.999995 0 -0.003282
vn -0.999995 0 -0.003282
vn -0.999995 0 -0.003282
vn -0.999995 0 -0.003281
vn -0.999995 0 -0.003281
vn -0.999995 0 -0.003281
vn -0.999995 0 -0.003281
vn 0.703295 -0 0.710898
vn 0.703295 -0 0.710898
vn 0.703295 -0 0.710898
vn 0.703295 -0 0.710898
vn 0.999995 -0 0.003281
vn 0.999995 -0 0.003281
vn 0.999995 -0 0.003281
vn 0.999995 -0 0.003281
vn 0.003282 0 -0.999995
vn 0.003282 0 -0.999995
vn 0.003282 0 -0.999995
vn 0.003282 0 -0.999995
vn 0.999995 -0 0.003281
vn 0.999995 -0 0.003281
vn 0.999995 -0 0.003281
vn 0.999995 -0 0.003281
vn -0.003284 -0 0.999995
vn -0.003284 -0 0.999995
vn 0.84741 0.530932 0.00278
vn 0.84741 0.530932 0.00278
vn 0.84741 0.530932 0.00278
vn 0.84741 0.530932 0.00278
vn 0.138096 -0.990419 0.000453
vn 0.138096 -0.990419 0.000453
vn 0.138096 -0.990419 0.000453
vn 0.138096 -0.990419 0.000453
vn -0.00278 -0.530931 0.847411
vn -0.00278 -0.530931 0.847411
vn -0.00278 -0.530931 0.847411
vn -0.00278 -0.530931 0.847411
vn 0.999995 -0 0.003282
vn 0.999995 -0 0.003282
vn 0.999995 -0 0.003282
vn 0.999995 -0 0.003282
vn -0.999995 0 -0.003282
vn -0.999995 0 -0.003282
vn -0.999995 0 -0.003282
vn -0.999995 0 -0.003281
vn -0.999995 0 -0.003281
vn -0.003283 -0 0.999995
vn -0.003283 -0 0.999995
vn -0.003283 -0 0.999995
vn -0.003283 -0 0.999995
vn -0.00328 -0 0.999995
vn -0.00328 -0 0.999995
vn -0.00328 -0 0.999995
vn -0.00328 -0 0.999995
vn -0.00328 -0 0.999995
vn -0.00328 -0 0.999995
vn -0.00328 -0 0.999995
vn -0.00328 -0 0.999995
vn -0.003281 0 0.999995
vn -0.003282 -0 0.999995
vn -0.003282 -0 0.999995
vn -0.003282 -0 0.999995
vn -0.003282 -0 0.999995
vn -0.003281 0 0.999995
vn -0.00328 0 0.999995
vn -0.003284 -1e-06 0.999995
vn -0.003285 -0 0.999995
vn -0.003282 -1e-06 0.999995
vn -0.00328 0 0.999995
vn -0.003282 -1e-06 0.999995
vn -0.003283 -0 0.999995
vn -0.003283 -0 0.999995
vn -0.003283 -0 0.999995
vn -0.003283 -0 0.999995
vn 0.999995 -0 0.003282
vn 0.999995 -0 0.003281
vn 0.999995 -0 0.003281
vn 0.999995 -0 0.003281
vn 0.999995 -0 0.003281
vn 0.999995 -0 0.003282
vn 0.999995 -0 0.003281
vn 0.999995 -0 0.003281
vn -0.003282 -0 0.999995
vn -0.003281 -0 0.999995
vn -0.003281 -0 0.999995
vn -0.003282 -0 0.999995
vn -0.003278 -0 0.999995
vn -0.00328 -0 0.999995
vn -0.003281 -0 0.999995
vn -0.003282 -0 0.999995
vn -0.003281 -0 0.999995
vn -0.003282 -0 0.999995
vn -0.003281 -0 0.999995
vn -0.003281 -0 0.999995
vn -0.706265 0 -0.707948
vn -0.706265 0 -0.707948
vn -0.706265 0 -0.707948
vn -0.706265 0 -0.707948
vn 0.706274 -0 0.707938
vn 0.706274 -0 0.707938
vn 0.706274 -0 0.707938
vn 0.706274 -0 0.707938
vn 0.00328 0 -0.999995
vn 0.003279 0 -0.999995
vn 0.003279 0 -0.999995
vn 0.00328 0 -0.999995
vn 0.00328 0 -0.999995
vn 0.00328 -0 -0.999995
vn 0.003282 0 -0.999995
vn 0.003281 0 -0.999995
vn 0.003281 0 -0.999995
vn 0.003279 0 -0.999995
vn 0.003275 -1e-06 -0.999995
vn 0.00327 -2e-06 -0.999995
vn 0.003286 0 -0.999995
vn 0.003286 0 -0.999995
vn 0.003286 0 -0.999995
vn 0.00327 -2e-06 -0.999995
vn 0.003286 0 -0.999995
vn -0.999995 0 -0.003282
vn -0.999995 0 -0.003282
vn -0.999995 0 -0.003282
vn -0.999995 0 -0.003282
vn -0.002777 0.53093 0.847411
vn -0.002777 0.53093 0.847411
vn -0.002777 0.53093 0.847411
vn -0.002777 0.53093 0.847411
vn 0.00328 0 -0.999995
vn 0.00328 0 -0.999995
vn 0.00328 0 -0.999995
vn 0.00328 0 -0.999995
vn -0.349252 -0.937028 -0.001146
vn -0.349252 -0.937028 -0.001146
vn -0.349252 -0.937028 -0.001146
vn -0.349252 -0.937028 -0.001146
vn 0.999995 -0 0.003281
vn 0.999995 -0 0.003281
vn 0.999995 -0 0.003281
vn 0.999995 -0 0.003281
vn -0.999995 0 -0.003281
vn -0.999995 0 -0.003281
vn -0.999995 0 -0.003281
vn -0.999995 0 -0.003281
vn -0.999995 0 -0.003282
vn -0.999995 0 -0.003282
vn -0.999995 0 -0.003282
vn -0.999995 0 -0.003282
vn -0.999995 0 -0.003281
vn -0.999995 0 -0.003281
vn -0.999995 0 -0.003281
vn -0.999995 0 -0.003281
vn 0 1 0
vn 0 1 0
vn 0 1 0
vn 0 1 0
vn -0 -1 -0
vn -0 -1 -0
vn -0 -1 -0
vn -0 -1 -0
vn -0 -1 -0
vn -0 -1 -0
vn -0 -1 -0
vn -0 -1 -0
vn -0 -1 -0
vn -0 -1 -0
vn -0 -1 -0
vn -0 -1 -0
vn 0.999995 0 0.003281
vn 0.999995 0 0.003281
vn 0.999995 0 0.003281
vn 0.999995 0 0.003281
vn 0.999995 -0 0.003281
vn 0.999995 -0 0.003281
vn 0.999995 -0 0.003282
vn 0.999995 -0 0.003282
vn -0.138095 -0.990419 -0.000453
vn -0.138095 -0.990419 -0.000453
vn -0.138095 -0.990419 -0.000453
vn -0.138095 -0.990419 -0.000453
vn 0.707947 0 -0.706266
vn 0.707947 0 -0.706266
vn 0.707947 0 -0.706266
vn 0.707947 0 -0.706266
vn -0.003282 -0 0.999995
vn -0.003282 -0 0.999995
vn -0.003282 -0 0.999995
vn -0.003282 -0 0.999995
vn 0.003284 0 -0.999995
vn 0.003284 0 -0.999995
vn 0.003284 0 -0.999995
vn 0.003284 0 -0.999995
vn -0 -1 -0
vn -0 -1 -0
vn -0 -1 -0
vn -0 -1 -0
vn -0 -1 -0
vn -0 -1 -0
vn -0 -1 -0
vn -0 -1 -0
vn -0.999995 0 -0.003282
vn -0.999995 0 -0.003282
vn -0.999995 0 -0.003282
vn -0.999995 0 -0.003282
vn 0.00328 0 -0.999995
vn 0.003282 0 -0.999995
vn 0.003281 0 -0.999995
vn 0.003281 0 -0.999995
vn 0.003279 0 -0.999995
vn 0.003282 0 -0.999995
vn 0.003282 0 -0.999995
vn 0.003281 0 -0.999995
vn 0.003281 0 -0.999995
vn -0.710897 -0 0.703296
vn -0.710897 -0 0.703296
vn -0.710897 -0 0.703296
vn -0.710897 -0 0.703296
vn 0.00328 0 -0.999995
vn 0.003281 0 -0.999995
vn 0.003282 0 -0.999995
vn 0.003282 0 -0.999995
vn 0.003281 0 -0.999995
vn -0.003281 -0 0.999995
vn -0.003281 -0 0.999995
vn -0.003281 -0 0.999995
vn -0.003281 -0 0.999995
vn 0.999995 0 0.003281
vn 0.999995 0 0.003281
vn 0.999995 0 0.003281
vn 0.999995 0 0.003281
vn -0.707946 -0 0.706266
vn -0.707946 -0 0.706266
vn -0.707946 -0 0.706266
vn -0.707946 -0 0.706266
vn 0.847411 -0.530931 0.00278
vn 0.847411 -0.530931 0.00278
vn 0.847411 -0.530931 0.00278
vn 0.847411 -0.530931 0.00278
vn 0.002778 -0.530933 -0.847409
vn 0.002778 -0.530933 -0.847409
vn 0.002778 -0.530933 -0.847409
vn 0.002778 -0.530933 -0.847409
vn -0.707945 -0 0.706268
vn -0.707945 -0 0.706268
vn -0.707945 -0 0.706268
vn -0.707945 -0 0.706268
vn -0.999995 0 -0.003281
vn -0.999995 0 -0.003281
vn -0.999995 0 -0.003281
vn -0.999995 0 -0.003281
vn -0.999995 0 -0.003281
vn 0 1 0
vn 0 1 0
vn 0 1 0
vn 0 1 0
vn -0.710901 -0 0.703292
vn -0.710901 -0 0.703292
vn -0.710901 -0 0.703292
vn -0.710901 -0 0.703292
vn -0.999995 0 -0.003281
vn -0.999995 0 -0.003281
vn -0.999995 0 -0.003281
vn -0.999995 0 -0.003281
vn -0.999995 0 -0.003282
vn 0.706267 -0 0.707945
vn 0.706267 -0 0.707945
vn 0.706267 -0 0.707945
vn 0.706267 -0 0.707945
vn 0 -1 0
vn 0 -1 0
vn 0 -1 0
vn 0 -1 0
vn 0.710898 0 -0.703295
vn 0.710898 0 -0.703295
vn 0.710898 0 -0.703295
vn 0.710898 0 -0.703295
vn 0.00328 0 -0.999995
vn 0.003281 0 -0.999995
vn 0.003282 0 -0.999995
vn 0.003281 0 -0.999995
vn 0.003278 0 -0.999995
vn 0.999995 -0 0.003281
vn 0.999995 -0 0.003281
vn 0.999995 -0 0.003281
vn 0.999995 -0 0.003281
vn 0.003282 0 -0.999995
vn 0.003282 0 -0.999995
vn 0.003282 0 -0.999995
vn 0.003282 0 -0.999995
vn 0.00278 0.530933 -0.847409
vn 0.00278 0.530933 -0.847409
vn 0.00278 0.530933 -0.847409
vn 0.00278 0.530933 -0.847409
vn 0.003274 -1e-06 -0.999995
vn 0.003274 -1e-06 -0.999995
vn 0.003274 -1e-06 -0.999995
vn 0.003274 -1e-06 -0.999995
vn -0.703295 0 -0.710898
vn -0.703295 0 -0.710898
vn -0.703295 0 -0.710898
vn -0.703295 0 -0.710898
vn 0.999995 -0 0.003281
vn 0.999995 -0 0.003282
vn 0.999995 -0 0.003282
vn 0.999995 -0 0.003281
vn 0.999995 -0 0.00328
vn 0.999995 -0 0.00328
vn 0.999995 -0 0.003281
vn 0.999995 -0 0.003283
vn 0.999995 -0 0.003283
vn 0.999995 -0 0.003283
vn 0.999995 -0 0.003281
vn 0.999995 -0 0.003283
vn 0 1 0
vn -0 1 -0
vn -0 1 -0
vn 0 1 0
vn -0 1 -0
vn -0 1 -0
vn -0 1 -0
vn -0 1 -0
vn -0 1 -0
vn -0 1 -0
vn -0 1 -0
vn -0 1 -0
vn -0.999995 0 -0.003282
vn -0.999995 0 -0.003282
vn -0.999995 0 -0.003282
vn -0.999995 0 -0.003282
vn -0.002777 0.53093 0.847411
vn -0.002777 0.53093 0.847411
vn -0.002777 0.53093 0.847411
vn -0.002777 0.53093 0.847411
vn -0.003281 -0 0.999995
vn -0.003281 -0 0.999995
vn -0.003281 -0 0.999995
vn -0.003281 -0 0.999995
vn -0.847411 -0.530931 -0.00278
vn -0.847411 -0.530931 -0.00278
vn -0.847411 -0.530931 -0.00278
vn -0.847411 -0.530931 -0.00278
vn 0.349253 -0.937028 0.001146
vn 0.349253 -0.937028 0.001146
vn 0.349254 -0.937028 0.001146
vn 0.349254 -0.937028 0.001146
vn -0.003281 -0 0.999995
vn -0.003281 -0 0.999995
vn -0.003281 -0 0.999995
vn -0.003281 -0 0.999995
vn -0.999995 0 -0.003281
vn -0.999995 -0 -0.003281
vn -0.999995 0 -0.003281
vn -0.999995 0 -0.003281
vn -0.999995 -0 -0.003283
vn -0.999995 -0 -0.003283
vn -0.999995 0 -0.003282
vn -0.999995 0 -0.003283
vn -0.999995 0 -0.003283
vn -0.999995 0 -0.003283
vn -0.999995 -0 -0.003283
vn -0.999995 0 -0.003283
vn -0.003282 -0 0.999995
vn -0.003282 -0 0.999995
vn -0.003281 -0 0.999995
vn -0.003281 -0 0.999995
vn -0.003277 -0 0.999995
vn -0.703296 0 -0.710897
vn -0.703296 0 -0.710897
vn -0.703296 0 -0.710897
vn -0.703296 0 -0.710897
vn -0 1 -0
vn -0 1 -0
vn -0 1 -0
vn -0 1 -0
vn 0 1 0
vn -0 1 -0
vn -0 1 -0
vn 0 1 0
vn -0.84741 0.530932 -0.002781
vn -0.84741 0.530932 -0.002781
vn -0.84741 0.530932 -0.002781
vn -0.84741 0.530932 -0.002781
vn -0.003283 -0 0.999995
vn -0.003283 -0 0.999995
vn -0.003283 -0 0.999995
vn -0.003283 -0 0.999995
vn 0.999995 -0 0.003282
vn 0.999995 -0 0.003282
vn 0.999995 -0 0.003282
vn 0.999995 -0 0.003282
vn -0.999995 0 -0.003281
vn -0.999995 0 -0.003281
vn -0.999995 0 -0.003281
vn -0.999995 0 -0.003281
vn -0.999995 0 -0.003279
vn -0.706257 0 -0.707955
vn -0.706257 0 -0.707955
vn -0.706257 0 -0.707955
vn -0.706257 0 -0.707955
vn -0 1 -0
vn -0 1 -0
vn -0 1 -0
vn -0 1 -0
vn -0.999995 0 -0.003284
vn -0.999995 0 -0.003283
vn -0.999995 0 -0.003284
vn -0.999995 0 -0.003283
vn -0.003282 1e-06 0.999995
vn -0.003282 1e-06 0.999995
vn -0.003282 1e-06 0.999995
vn -0.003282 1e-06 0.999995
vn 0.999995 -0 0.003282
vn 0.999995 -0 0.003282
vn 0.999995 -0 0.003281
vn 0.999995 -0 0.003281
vn 0.999995 -0 0.003282
vn -0.00328 -0 0.999995
vn -0.00328 -0 0.999995
vn -0.00328 -0 0.999995
vn -0.00328 -0 0.999995
vn -0.999995 0 -0.003283
vn -0.999995 0 -0.003283
vn -0.999995 0 -0.003283
vn -0.999995 0 -0.003283
vn 0.999995 -0 0.00328
vn 0.999995 -0 0.00328
vn 0.999995 -0 0.00328
vn 0.999995 -0 0.00328
vn -0 1 -0
vn 0 1 0
vn 0 1 0
vn -0 1 -0
vn -0 1 -0
vn -0 1 -0
vn -0 1 -0
vn -0 1 -0
vn -0 1 -0
vn -0 1 -0
vn -0 1 -0
vn -0 1 -0
vn -0 1 -0
vn -0 1 -0
vn -0 1 -0
vn -0 1 -0
vn -0.999995 0 -0.003281
vn -0.999995 0 -0.003281
vn -0.999995 0 -0.003281
vn -0.999995 0 -0.003281
vn -0.349251 0.937029 -0.001146
vn -0.349251 0.937029 -0.001146
vn -0.349251 0.937029 -0.001146
vn -0.349251 0.937029 -0.001146
vn 0 -1 0
vn 0 -1 0
vn 0 -1 0
vn 0 -1 0
vn -0.706269 0 -0.707944
vn -0.706269 0 -0.707944
vn -0.706269 0 -0.707944
vn -0.706269 0 -0.707944
vn 0.999995 -0 0.003281
vn 0.999995 -0 0.003281
vn 0.999995 -0 0.003281
vn 0.999995 -0 0.003281
vn 0.999995 -0 0.003282
vn 0.999995 -0 0.003282
vn 0.999995 -0 0.003282
vn 0.999995 -0 0.003282
vn -0.138094 0.990419 -0.000453
vn -0.138094 0.990419 -0.000453
vn -0.138094 0.990419 -0.000453
vn -0.138094 0.990419 -0.000453
vn 0.00328 0 -0.999995
vn 0.00328 0 -0.999995
vn 0.00328 0 -0.999995
vn 0.00328 0 -0.999995
vn 0.999995 -0 0.00328
vn 0.999995 -0 0.00328
vn 0.999995 -0 0.003282
vn 0.999995 -0 0.003282
vn 0.999995 -0 0.003281
vn 0.999995 -0 0.003281
vn 0.999995 -0 0.003281
vn 0.999995 -0 0.003281
vn 0.999995 -0 0.003281
vn 0.999995 -0 0.003281
vn 0.999995 -0 0.003281
vn 0.003282 -1e-06 -0.999995
vn 0.003282 -1e-06 -0.999995
vn 0.003282 -1e-06 -0.999995
vn 0.003282 -1e-06 -0.999995
vn 0.84741 0.530931 0.002781
vn 0.84741 0.530931 0.002781
vn 0.847411 0.530931 0.002781
vn 0.84741 0.530931 0.002781

g polySurface280_0
usemtl lowpoly_scifi_containers_pack:Box_1_1
f 1/1/1 2/2/2 3/3/3
f 1/1/1 3/3/3 4/4/4
f 5/5/5 6/6/6 7/7/7
f 5/5/5 7/7/7 8/8/8
f 9/9/9 8/8/8 7/7/7
f 9/9/9 7/7/7 10/10/10
f 8/8/8 9/9/9 11/11/11
f 9/9/9 10/10/10 12/12/12
f 13/13/13 14/14/14 15/15/15
f 13/13/13 15/15/15 16/16/16
f 16/16/16 15/15/15 17/17/17
f 16/16/16 17/17/17 18/18/18
f 16/16/16 18/18/18 19/19/19
f 16/16/16 19/19/19 20/20/20
f 21/21/21 22/22/22 23/23/23
f 21/21/21 23/23/23 24/24/24
f 25/25/25 26/26/26 27/27/27
f 25/25/25 27/27/27 28/28/28
f 29/29/29 30/30/30 31/31/31
f 29/29/29 31/31/31 32/32/32
f 33/33/33 34/34/34 35/35/35
f 33/33/33 35/35/35 36/36/36
f 37/37/37 38/38/38 39/39/39
f 37/37/37 39/39/39 40/40/40
f 41/41/41 42/42/42 43/43/43
f 41/41/41 43/43/43 44/44/44
f 45/45/45 46/46/46 47/47/47
f 45/45/45 47/47/47 48/48/48
f 49/49/49 50/50/50 51/51/51
f 49/49/49 51/51/51 52/52/52
f 53/53/53 54/54/54 55/55/55
f 53/53/53 55/55/55 56/56/56
f 57/57/57 58/58/58 59/59/59
f 57/57/57 59/59/59 60/60/60
f 59/59/59 61/61/61 62/62/62
f 59/59/59 62/62/62 63/63/63
f 61/61/61 59/59/59 58/58/58
f 64/64/64 57/57/57 60/60/60
f 64/64/64 60/60/60 65/65/65
f 57/57/57 64/64/64 66/66/66
f 59/59/59 63/63/63 67/67/67
f 64/64/64 65/65/65 68/68/68
f 69/69/69 70/70/70 71/71/71
f 69/69/69 71/71/71 72/72/72
f 73/73/73 74/74/74 75/75/75
f 73/73/73 75/75/75 76/76/76
f 77/77/77 78/78/78 79/79/79
f 77/77/77 79/79/79 80/80/80
f 81/81/81 82/82/82 83/83/83
f 81/81/81 83/83/83 84/84/84
f 85/85/85 86/86/86 87/87/87
f 85/85/85 87/87/87 88/88/88
f 89/89/89 90/90/90 91/91/91
f 89/89/89 91/91/91 92/92/92
f 93/93/93 94/94/94 95/95/95
f 93/93/93 95/95/95 96/96/96
f 94/94/94 93/93/93 97/97/97
f 94/94/94 97/97/97 98/98/98
f 96/96/96 95/95/95 99/99/99
f 96/96/96 99/99/99 100/100/100
f 101/101/101 20/20/20 102/102/102
f 101/101/101 102/102/102 103/103/103
f 20/20/20 101/101/101 13/13/13
f 20/20/20 13/13/13 16/16/16
f 103/103/103 102/102/102 104/104/104
f 103/103/103 104/104/104 105/105/105
f 106/106/106 107/107/107 108/108/108
f 106/106/106 108/108/108 109/109/109
f 106/106/106 109/109/109 110/110/110
f 106/106/106 110/110/110 111/111/111
f 112/112/112 113/113/113 108/108/108
f 112/112/112 108/108/108 107/107/107
f 114/114/114 115/115/115 116/116/116
f 114/114/114 116/116/116 117/117/117
f 118/118/118 119/119/119 120/120/120
f 118/118/118 120/120/120 121/121/121
f 122/122/122 123/123/123 124/124/124
f 122/122/122 124/124/124 125/125/125
f 126/126/126 127/127/127 128/128/128
f 126/126/126 128/128/128 129/129/129
f 130/130/130 131/131/131 132/132/132
f 130/130/130 132/132/132 133/133/133
f 134/134/134 135/135/135 136/136/136
f 134/134/134 136/136/136 137/137/137
f 138/138/138 139/139/139 140/140/140
f 138/138/138 140/140/140 141/141/141
f 142/142/142 143/143/143 144/144/144
f 142/142/142 144/144/144 145/145/145
f 146/146/146 147/147/147 148/148/148
f 146/146/146 148/148/148 149/149/149
f 150/150/150 151/151/151 152/152/152
f 150/150/150 152/152/152 153/153/153
f 154/154/154 155/155/155 156/156/156
f 154/154/154 156/156/156 157/157/157
f 156/156/156 155/155/155 151/151/151
f 156/156/156 151/151/151 150/150/150
f 148/148/148 147/147/147 154/154/154
f 148/148/148 154/154/154 157/157/157
f 158/158/158 159/159/159 160/160/160
f 158/158/158 160/160/160 161/161/161
f 162/162/162 163/163/163 164/164/164
f 162/162/162 164/164/164 165/165/165
f 166/166/166 167/167/167 168/168/168
f 166/166/166 168/168/168 169/169/169
f 170/170/170 171/171/171 172/172/172
f 170/170/170 172/172/172 173/173/173
f 171/171/171 174/174/174 175/175/175
f 171/171/171 175/175/175 176/176/176
f 174/174/174 171/171/171 170/170/170
f 171/171/171 176/176/176 177/177/177
f 178/178/178 179/179/179 180/180/180
f 178/178/178 180/180/180 181/181/181
f 179/179/179 178/178/178 182/182/182
f 179/179/179 182/182/182 183/183/183
f 181/181/181 180/180/180 184/184/184
f 181/181/181 184/184/184 185/185/185
f 186/186/186 187/187/187 188/188/188
f 186/186/186 188/188/188 189/189/189
f 190/190/190 191/191/191 192/192/192
f 190/190/190 192/192/192 193/193/193
f 194/194/194 195/195/195 196/196/196
f 194/194/194 196/196/196 197/197/197
f 198/198/198 199/199/199 200/200/200
f 198/198/198 200/200/200 201/201/201
f 202/202/202 203/203/203 204/204/204
f 202/202/202 204/204/204 205/205/205
f 206/206/206 207/207/207 208/208/208
f 206/206/206 208/208/208 209/209/209
f 210/210/210 211/211/211 212/212/212
f 210/210/210 212/212/212 213/213/213
f 210/210/210 213/213/213 214/214/214
f 210/210/210 214/214/214 215/215/215
f 210/210/210 215/215/215 216/216/216
f 217/217/217 218/218/218 212/212/212
f 217/217/217 212/212/212 211/211/211
f 217/217/217 211/211/211 219/219/219
f 210/210/210 216/216/216 220/220/220
f 217/217/217 219/219/219 221/221/221
f 222/222/222 223/223/223 224/224/224
f 222/222/222 224/224/224 225/225/225
f 226/226/226 227/227/227 228/228/228
f 226/226/226 228/228/228 229/229/229
f 230/230/230 231/231/231 232/232/232
f 230/230/230 232/232/232 233/233/233
f 234/234/234 235/235/235 236/236/236
f 234/234/234 236/236/236 237/237/237
f 238/238/238 239/239/239 235/235/235
f 238/238/238 235/235/235 234/234/234
f 238/238/238 234/234/234 240/240/240
f 238/238/238 240/240/240 241/241/241
f 242/242/242 243/243/243 244/244/244
f 242/242/242 244/244/244 245/245/245
f 242/242/242 245/245/245 246/246/246
f 242/242/242 246/246/246 247/247/247
f 242/242/242 247/247/247 248/248/248
f 242/242/242 248/248/248 249/249/249
f 250/250/250 251/251/251 252/252/252
f 250/250/250 252/252/252 253/253/253
f 254/254/254 255/255/255 256/256/256
f 254/254/254 256/256/256 257/257/257
f 258/258/258 259/259/259 260/260/260
f 258/258/258 260/260/260 261/261/261
f 258/258/258 261/261/261 262/262/262
f 258/258/258 262/262/262 263/263/263
f 264/264/264 265/265/265 260/260/260
f 264/264/264 260/260/260 259/259/259
f 266/266/266 267/267/267 268/268/268
f 266/266/266 268/268/268 269/269/269
f 270/270/270 271/271/271 272/272/272
f 270/270/270 272/272/272 273/273/273
f 274/274/274 275/275/275 276/276/276
f 274/274/274 276/276/276 277/277/277
f 278/278/278 279/279/279 280/280/280
f 278/278/278 280/280/280 281/281/281
f 282/282/282 283/283/283 280/280/280
f 279/279/279 284/284/284 282/282/282
f 279/279/279 282/282/282 280/280/280
f 282/282/282 284/284/284 285/285/285
f 286/286/286 287/287/287 288/288/288
f 286/286/286 288/288/288 289/289/289
f 290/290/290 291/291/291 292/292/292
f 290/290/290 292/292/292 293/293/293
f 294/294/294 295/295/295 296/296/296
f 294/294/294 296/296/296 297/297/297
f 298/298/298 299/299/299 300/300/300
f 298/298/298 300/300/300 301/301/301
f 302/302/302 303/303/303 304/304/304
f 302/302/302 304/304/304 305/305/305
f 306/306/306 304/304/304 303/303/303
f 306/306/306 303/303/303 307/307/307
f 304/304/304 306/306/306 308/308/308
f 302/302/302 309/309/309 310/310/310
f 302/302/302 310/310/310 311/311/311
f 309/309/309 302/302/302 305/305/305
f 306/306/306 307/307/307 312/312/312
f 302/302/302 311/311/311 313/313/313
f 314/314/314 315/315/315 316/316/316
f 314/314/314 316/316/316 317/317/317
f 318/318/318 314/314/314 317/317/317
f 318/318/318 317/317/317 319/319/319
f 314/314/314 318/318/318 320/320/320
f 318/318/318 319/319/319 321/321/321
f 322/322/322 323/323/323 324/324/324
f 322/322/322 324/324/324 325/325/325
f 326/326/326 327/327/327 328/328/328
f 326/326/326 328/328/328 329/329/329
f 330/330/330 331/331/331 332/332/332
f 330/330/330 332/332/332 333/333/333
f 334/334/334 335/335/335 336/336/336
f 334/334/334 336/336/336 337/337/337
f 284/284/284 338/338/338 339/339/339
f 284/284/284 339/339/339 177/177/177
f 338/338/338 284/284/284 279/279/279
f 338/338/338 279/279/279 278/278/278
f 177/177/177 339/339/339 172/172/172
f 177/177/177 172/172/172 171/171/171
f 340/340/340 341/341/341 342/342/342
f 340/340/340 342/342/342 343/343/343
f 344/344/344 345/345/345 346/346/346
f 344/344/344 346/346/346 347/347/347
f 348/348/348 349/349/349 350/350/350
f 348/348/348 350/350/350 351/351/351
f 352/352/352 353/353/353 354/354/354
f 352/352/352 354/354/354 355/355/355
f 356/356/356 357/357/357 319/319/319
f 356/356/356 319/319/319 358/358/358
f 357/357/357 356/356/356 359/359/359
f 357/357/357 359/359/359 360/360/360
f 358/358/358 319/319/319 317/317/317
f 358/358/358 317/317/317 316/316/316
f 361/361/361 362/362/362 363/363/363
f 361/361/361 363/363/363 364/364/364
f 365/365/365 366/366/366 367/367/367
f 365/365/365 367/367/367 368/368/368
f 369/369/369 370/370/370 371/371/371
f 369/369/369 371/371/371 372/372/372
f 373/373/373 374/374/374 375/375/375
f 373/373/373 375/375/375 376/376/376
f 373/373/373 376/376/376 377/377/377
f 378/378/378 379/379/379 373/373/373
f 378/378/378 373/373/373 377/377/377
f 380/380/380 381/381/381 375/375/375
f 380/380/380 375/375/375 374/374/374
f 380/380/380 374/374/374 382/382/382
f 373/373/373 379/379/379 383/383/383
f 380/380/380 382/382/382 384/384/384
f 385/385/385 386/386/386 387/387/387
f 385/385/385 387/387/387 388/388/388
f 389/389/389 390/390/390 391/391/391
f 389/389/389 391/391/391 392/392/392
f 393/393/393 394/394/394 395/395/395
f 393/393/393 395/395/395 396/396/396
f 397/397/397 398/398/398 399/399/399
f 397/397/397 399/399/399 400/400/400
f 399/399/399 401/401/401 402/402/402
f 399/399/399 402/402/402 403/403/403
f 401/401/401 399/399/399 398/398/398
f 404/404/404 397/397/397 400/400/400
f 404/404/404 400/400/400 405/405/405
f 397/397/397 404/404/404 406/406/406
f 399/399/399 403/403/403 407/407/407
f 404/404/404 405/405/405 408/408/408
f 409/409/409 410/410/410 411/411/411
f 409/409/409 411/411/411 412/412/412
f 413/413/413 414/414/414 415/415/415
f 413/413/413 415/415/415 416/416/416
f 10/10/10 417/417/417 418/418/418
f 10/10/10 418/418/418 419/419/419
f 417/417/417 10/10/10 7/7/7
f 417/417/417 7/7/7 6/6/6
f 419/419/419 418/418/418 420/420/420
f 419/419/419 420/420/420 421/421/421
f 422/422/422 423/423/423 424/424/424
f 422/422/422 424/424/424 425/425/425
f 422/422/422 425/425/425 426/426/426
f 422/422/422 426/426/426 427/427/427
f 422/422/422 427/427/427 428/428/428
f 429/429/429 430/430/430 424/424/424
f 429/429/429 424/424/424 423/423/423
f 429/429/429 423/423/423 431/431/431
f 422/422/422 428/428/428 432/432/432
f 429/429/429 431/431/431 433/433/433
f 434/434/434 435/435/435 436/436/436
f 434/434/434 436/436/436 437/437/437
f 438/438/438 439/439/439 440/440/440
f 438/438/438 440/440/440 441/441/441
f 442/442/442 443/443/443 444/444/444
f 442/442/442 444/444/444 445/445/445
f 446/446/446 447/447/447 448/448/448
f 446/446/446 448/448/448 449/449/449
f 450/450/450 451/451/451 452/452/452
f 450/450/450 452/452/452 453/453/453
f 454/454/454 455/455/455 456/456/456
f 454/454/454 456/456/456 457/457/457
f 458/458/458 459/459/459 460/460/460
f 458/458/458 460/460/460 461/461/461
f 462/462/462 463/463/463 464/464/464
f 462/462/462 464/464/464 465/465/465
f 466/466/466 467/467/467 468/468/468
f 466/466/466 468/468/468 469/469/469
f 470/470/470 471/471/471 472/472/472
f 470/470/470 472/472/472 473/473/473
f 474/474/474 475/475/475 476/476/476
f 474/474/474 476/476/476 477/477/477
f 478/478/478 479/479/479 480/480/480
f 478/478/478 480/480/480 481/481/481
f 478/478/478 481/481/481 475/475/475
f 478/478/478 475/475/475 474/474/474
f 470/470/470 473/473/473 480/480/480
f 470/470/470 480/480/480 479/479/479
f 482/482/482 483/483/483 484/484/484
f 482/482/482 484/484/484 485/485/485
f 483/483/483 482/482/482 486/486/486
f 483/483/483 486/486/486 487/487/487
f 485/485/485 484/484/484 488/488/488
f 485/485/485 488/488/488 489/489/489
f 490/490/490 491/491/491 492/492/492
f 490/490/490 492/492/492 493/493/493
f 494/494/494 495/495/495 496/496/496
f 494/494/494 496/496/496 497/497/497
f 498/498/498 499/499/499 500/500/500
f 498/498/498 500/500/500 501/501/501
f 502/502/502 503/503/503 504/504/504
f 502/502/502 504/504/504 505/505/505
f 506/506/506 507/507/507 508/508/508
f 506/506/506 508/508/508 509/509/509
f 510/510/510 511/511/511 506/506/506
f 510/510/510 506/506/506 509/509/509
f 508/508/508 507/507/507 512/512/512
f 508/508/508 512/512/512 513/513/513
f 514/514/514 515/515/515 516/516/516
f 514/514/514 516/516/516 517/517/517
f 185/185/185 184/184/184 518/518/518
f 185/185/185 518/518/518 519/519/519
f 520/520/520 521/521/521 518/518/518
f 520/520/520 518/518/518 184/184/184
f 520/520/520 184/184/184 180/180/180
f 520/520/520 180/180/180 522/522/522
f 523/523/523 524/524/524 525/525/525
f 523/523/523 525/525/525 526/526/526
f 527/527/527 528/528/528 529/529/529
f 527/527/527 529/529/529 530/530/530
f 420/420/420 531/531/531 532/532/532
f 420/420/420 532/532/532 421/421/421
f 421/421/421 532/532/532 533/533/533
f 421/421/421 533/533/533 534/534/534
f 421/421/421 534/534/534 535/535/535
f 421/421/421 535/535/535 419/419/419
f 536/536/536 537/537/537 538/538/538
f 536/536/536 538/538/538 539/539/539
f 540/540/540 541/541/541 542/542/542
f 540/540/540 542/542/542 543/543/543
f 544/544/544 545/545/545 546/546/546
f 544/544/544 546/546/546 547/547/547
f 548/548/548 549/549/549 550/550/550
f 548/548/548 550/550/550 551/551/551
f 552/552/552 553/553/553 554/554/554
f 552/552/552 554/554/554 555/555/555
f 556/556/556 557/557/557 558/558/558
f 556/556/556 558/558/558 559/559/559
f 560/560/560 100/100/100 99/99/99
f 560/560/560 99/99/99 561/561/561
f 100/100/100 562/562/562 563/563/563
f 100/100/100 563/563/563 564/564/564
f 562/562/562 100/100/100 560/560/560
f 100/100/100 564/564/564 96/96/96
f 565/565/565 566/566/566 567/567/567
f 565/565/565 567/567/567 568/568/568
f 569/569/569 570/570/570 571/571/571
f 569/569/569 571/571/571 572/572/572
f 573/573/573 574/574/574 98/98/98
f 573/573/573 98/98/98 97/97/97
f 575/575/575 573/573/573 97/97/97
f 575/575/575 97/97/97 93/93/93
f 573/573/573 575/575/575 576/576/576
f 575/575/575 93/93/93 577/577/577
f 578/578/578 579/579/579 580/580/580
f 578/578/578 580/580/580 581/581/581
f 582/582/582 583/583/583 584/584/584
f 582/582/582 584/584/584 585/585/585
f 586/586/586 587/587/587 588/588/588
f 586/586/586 588/588/588 589/589/589
f 590/590/590 183/183/183 182/182/182
f 590/590/590 182/182/182 591/591/591
f 183/183/183 592/592/592 593/593/593
f 183/183/183 593/593/593 594/594/594
f 592/592/592 183/183/183 590/590/590
f 183/183/183 594/594/594 179/179/179
f 595/595/595 596/596/596 597/597/597
f 595/595/595 597/597/597 598/598/598
f 599/599/599 600/600/600 601/601/601
f 599/599/599 601/601/601 602/602/602
f 603/603/603 604/604/604 605/605/605
f 603/603/603 605/605/605 606/606/606
f 607/607/607 608/608/608 609/609/609
f 607/607/607 609/609/609 610/610/610
f 611/611/611 612/612/612 613/613/613
f 611/611/611 613/613/613 614/614/614
f 615/615/615 616/616/616 617/617/617
f 615/615/615 617/617/617 618/618/618
f 615/615/615 618/618/618 619/619/619
f 615/615/615 619/619/619 620/620/620
f 615/615/615 620/620/620 621/621/621
f 622/622/622 623/623/623 617/617/617
f 622/622/622 617/617/617 616/616/616
f 622/622/622 616/616/616 624/624/624
f 615/615/615 621/621/621 625/625/625
f 622/622/622 624/624/624 626/626/626
f 627/627/627 628/628/628 629/629/629
f 627/627/627 629/629/629 630/630/630
f 631/631/631 632/632/632 633/633/633
f 631/631/631 633/633/633 634/634/634
f 635/635/635 636/636/636 637/637/637
f 635/635/635 637/637/637 638/638/638
f 637/637/637 636/636/636 632/632/632
f 637/637/637 632/632/632 631/631/631
f 629/629/629 628/628/628 635/635/635
f 629/629/629 635/635/635 638/638/638
f 639/639/639 640/640/640 641/641/641
f 639/639/639 641/641/641 642/642/642
f 643/643/643 644/644/644 645/645/645
f 643/643/643 645/645/645 646/646/646
f 647/647/647 648/648/648 649/649/649
f 647/647/647 649/649/649 650/650/650
f 651/651/651 652/652/652 653/653/653
f 651/651/651 653/653/653 654/654/654
f 655/655/655 656/656/656 657/657/657
f 655/655/655 657/657/657 658/658/658
f 659/659/659 660/660/660 661/661/661
f 659/659/659 661/661/661 662/662/662
f 663/663/663 664/664/664 665/665/665
f 663/663/663 665/665/665 666/666/666
f 667/667/667 665/665/665 664/664/664
f 667/667/667 664/664/664 668/668/668
f 665/665/665 667/667/667 669/669/669
f 663/663/663 670/670/670 671/671/671
f 663/663/663 671/671/671 672/672/672
f 670/670/670 663/663/663 666/666/666
f 667/667/667 668/668/668 673/673/673
f 663/663/663 672/672/672 674/674/674
f 675/675/675 105/105/105 104/104/104
f 675/675/675 104/104/104 676/676/676
f 677/677/677 676/676/676 104/104/104
f 677/677/677 104/104/104 102/102/102
f 676/676/676 677/677/677 678/678/678
f 677/677/677 102/102/102 679/679/679
f 680/680/680 681/681/681 682/682/682
f 680/680/680 682/682/682 683/683/683
f 684/684/684 685/685/685 686/686/686
f 684/684/684 686/686/686 687/687/687
f 688/688/688 689/689/689 684/684/684
f 688/688/688 684/684/684 687/687/687
f 686/686/686 685/685/685 690/690/690
f 686/686/686 690/690/690 691/691/691
f 692/692/692 693/693/693 694/694/694
f 692/692/692 694/694/694 695/695/695
f 696/696/696 697/697/697 698/698/698
f 696/696/696 698/698/698 699/699/699
f 700/700/700 701/701/701 702/702/702
f 700/700/700 702/702/702 703/703/703
f 704/704/704 360/360/360 359/359/359
f 704/704/704 359/359/359 705/705/705
f 360/360/360 706/706/706 707/707/707
f 360/360/360 707/707/707 708/708/708
f 706/706/706 360/360/360 704/704/704
f 360/360/360 708/708/708 357/357/357
f 709/709/709 710/710/710 711/711/711
f 709/709/709 711/711/711 712/712/712
f 713/713/713 714/714/714 715/715/715
f 713/713/713 715/715/715 716/716/716
f 717/717/717 718/718/718 719/719/719
f 717/717/717 719/719/719 720/720/720
f 721/721/721 722/722/722 723/723/723
f 721/721/721 723/723/723 724/724/724
f 486/486/486 725/725/725 726/726/726
f 486/486/486 726/726/726 487/487/487
f 727/727/727 728/728/728 725/725/725
f 727/727/727 725/725/725 486/486/486
f 727/727/727 486/486/486 482/482/482
f 727/727/727 482/482/482 729/729/729
f 730/730/730 731/731/731 732/732/732
f 730/730/730 732/732/732 733/733/733
f 734/734/734 735/735/735 736/736/736
f 734/734/734 736/736/736 737/737/737
f 738/738/738 739/739/739 740/740/740
f 738/738/738 740/740/740 741/741/741
f 742/742/742 743/743/743 744/744/744
f 742/742/742 744/744/744 745/745/745
f 746/746/746 747/747/747 748/748/748
f 746/746/746 748/748/748 749/749/749
f 750/750/750 751/751/751 752/752/752
f 750/750/750 752/752/752 753/753/753
f 750/750/750 753/753/753 747/747/747
f 750/750/750 747/747/747 746/746/746
f 742/742/742 745/745/745 752/752/752
f 742/742/742 752/752/752 751/751/751
f 754/754/754 755/755/755 756/756/756
f 754/754/754 756/756/756 757/757/757
f 758/758/758 759/759/759 760/760/760
f 758/758/758 760/760/760 761/761/761
f 762/762/762 763/763/763 764/764/764
f 762/762/762 764/764/764 765/765/765
f 766/766/766 767/767/767 768/768/768
f 766/766/766 768/768/768 769/769/769
f 770/770/770 771/771/771 772/772/772
f 770/770/770 772/772/772 773/773/773
f 774/774/774 775/775/775 776/776/776
f 774/774/774 776/776/776 777/777/777
f 778/778/778 779/779/779 780/780/780
f 778/778/778 780/780/780 781/781/781
f 782/782/782 783/783/783 784/784/784
f 782/782/782 784/784/784 785/785/785
f 786/786/786 787/787/787 788/788/788
f 786/786/786 788/788/788 789/789/789
f 790/790/790 249/249/249 240/240/240
f 790/790/790 240/240/240 791/791/791
f 249/249/249 790/790/790 243/243/243
f 249/249/249 243/243/243 242/242/242
f 791/791/791 240/240/240 234/234/234
f 791/791/791 234/234/234 237/237/237
f 489/489/489 488/488/488 792/792/792
f 489/489/489 792/792/792 793/793/793
f 489/489/489 793/793/793 794/794/794
f 489/489/489 794/794/794 795/795/795
f 489/489/489 795/795/795 796/796/796
f 489/489/489 796/796/796 485/485/485
f 797/797/797 798/798/798 799/799/799
f 797/797/797 799/799/799 800/800/800
f 801/801/801 802/802/802 803/803/803
f 801/801/801 803/803/803 804/804/804
f 805/805/805 806/806/806 807/807/807
f 805/805/805 807/807/807 808/808/808
