# Generated by makebsp -bsp2obj
# Source: C:/Users/German/Documents/My Games/Warfork 2.1/basewf/models/mapobjects/industrial/electricbox_wires
# Axis swap: Q3 Z-up -> OBJ Y-up (X=X, Y=Z, Z=-Y)
o electricbox_wires
mtllib electricbox_wires.mtl
g mat0m0s8
usemtl textures/boqu/fusebox
v -8.000000 -18.000000 8.125000
vt 0.322000 0.214500
vn 0.000000 -1.000000 -0.000000
v 8.000000 -18.000000 8.125000
vt 0.703700 0.214000
vn 0.000000 -1.000000 -0.000000
v 8.000000 -18.000000 7.725040
vt 0.703700 0.204486
vn 0.000000 -1.000000 -0.000000
v -8.000000 -18.000000 7.725040
vt 0.322000 0.204961
vn 0.000000 -1.000000 -0.000000
v 8.000000 -18.000000 0.125000
vt 0.703700 0.023700
vn 0.000000 -1.000000 -0.000000
v -8.000000 -18.000000 0.125000
vt 0.322000 0.023700
vn 0.000000 -1.000000 -0.000000
v -8.000000 -18.000000 8.125000
vt 0.322000 0.214500
vn 0.000001 -0.000000 1.000000
v -7.600040 -17.600000 8.125000
vt 0.331542 0.224030
vn 0.000000 -0.000000 1.000000
v 8.000000 -18.000000 8.125000
vt 0.703700 0.214000
vn 0.000000 -0.000000 1.000000
v 7.600040 -17.600000 8.125000
vt 0.694158 0.223555
vn 0.000000 -0.000000 1.000000
v 8.000000 6.000000 8.125000
vt 0.703700 0.786500
vn 0.000000 -0.000000 1.000000
v 7.600040 5.600000 8.125000
vt 0.694158 0.776974
vn 0.000000 -0.000000 1.000000
v -8.000000 6.000000 8.125000
vt 0.322000 0.787100
vn 0.000001 -0.000000 1.000000
v -7.600040 5.600000 8.125000
vt 0.331542 0.777544
vn 0.000000 -0.000000 1.000000
v 8.000000 6.000000 7.725040
vt 0.713319 0.786500
vn 1.000000 0.000000 -0.000000
v 8.000000 -18.000000 7.725040
vt 0.713319 0.214000
vn 1.000000 0.000000 -0.000000
v 8.000000 -18.000000 8.125000
vt 0.703700 0.214000
vn 1.000000 0.000000 -0.000000
v 8.000000 6.000000 8.125000
vt 0.703700 0.786500
vn 1.000000 0.000000 -0.000000
v 8.000000 6.000000 0.125000
vt 0.896100 0.786500
vn 1.000000 0.000000 -0.000000
v 8.000000 -18.000000 0.125000
vt 0.896100 0.214000
vn 1.000000 0.000000 -0.000000
v -8.000000 6.000000 8.125000
vt 0.322000 0.787100
vn -1.000000 0.000000 -0.000000
v -8.000000 -18.000000 8.125000
vt 0.322000 0.214500
vn -1.000000 0.000000 -0.000000
v -8.000000 -18.000000 7.725040
vt 0.312461 0.214500
vn -1.000000 0.000000 -0.000000
v -8.000000 6.000000 7.725040
vt 0.312461 0.787100
vn -1.000000 0.000000 -0.000000
v -8.000000 -18.000000 0.125000
vt 0.131200 0.214500
vn -1.000000 0.000000 -0.000000
v -8.000000 6.000000 0.125000
vt 0.131200 0.787100
vn -1.000000 0.000000 -0.000000
v -8.000000 6.000000 7.725040
vt 0.322000 0.796639
vn 0.000000 1.000000 -0.000000
v -8.000000 6.000000 0.125000
vt 0.322000 0.977900
vn 0.000000 1.000000 -0.000000
v 8.000000 6.000000 0.125000
vt 0.703700 0.977900
vn 0.000000 1.000000 -0.000000
v 8.000000 6.000000 7.725040
vt 0.703700 0.796069
vn 0.000000 1.000000 -0.000000
v 8.000000 6.000000 8.125000
vt 0.703700 0.786500
vn 0.000000 1.000000 -0.000000
v -8.000000 6.000000 8.125000
vt 0.322000 0.787100
vn 0.000000 1.000000 -0.000000
f 1/1/1 3/3/3 2/2/2
f 4/4/4 3/3/3 1/1/1
f 8/8/8 9/9/9 10/10/10
f 7/7/7 9/9/9 8/8/8
f 31/31/31 27/27/27 32/32/32
f 30/30/30 27/27/27 31/31/31
f 12/12/12 13/13/13 14/14/14
f 11/11/11 13/13/13 12/12/12
f 4/4/4 5/5/5 3/3/3
f 6/6/6 5/5/5 4/4/4
f 27/27/27 29/29/29 28/28/28
f 30/30/30 29/29/29 27/27/27
f 24/24/24 25/25/25 23/23/23
f 26/26/26 25/25/25 24/24/24
f 12/12/12 8/8/8 10/10/10
f 14/14/14 8/8/8 12/12/12
f 19/19/19 16/16/16 20/20/20
f 15/15/15 16/16/16 19/19/19
f 21/21/21 23/23/23 22/22/22
f 24/24/24 23/23/23 21/21/21
f 14/14/14 7/7/7 8/8/8
f 13/13/13 7/7/7 14/14/14
f 11/11/11 10/10/10 9/9/9
f 12/12/12 10/10/10 11/11/11
f 15/15/15 17/17/17 16/16/16
f 18/18/18 17/17/17 15/15/15
g mat1m0s9
usemtl textures/plastic/grey50
v 1.671875 44.203125 1.250000
vt 0.047150 1.049806
vn -0.923880 0.382683 -0.000000
v 1.250000 41.250000 1.250000
vt 0.047150 1.066410
vn -1.000000 0.000000 -0.000000
v 1.562500 41.250000 0.312500
vt 0.057930 1.066410
vn -0.707107 0.000000 -0.707107
v 1.964844 44.066406 0.312500
vt 0.057930 1.049806
vn -0.626943 0.259688 -0.734510
v 1.250000 41.250000 1.250000
vt 0.000000 1.000000
vn -1.000000 0.000000 -0.000000
v 1.562500 5.250000 0.312500
vt 0.009768 1.179690
vn -0.707107 0.000000 -0.707107
v 1.562500 41.250000 0.312500
vt 0.009768 1.000000
vn -0.707107 0.000000 -0.707107
v 1.250000 5.250000 1.250000
vt 0.000000 1.179690
vn -1.000000 0.000000 -0.000000
v 2.937500 46.312500 1.250000
vt 0.047150 1.033203
vn -0.707107 0.707107 -0.000000
v 3.171875 46.078125 0.312500
vt 0.057930 1.033203
vn -0.500000 0.500000 -0.707107
v 8.000000 47.687500 0.312500
vt 0.057930 1.000000
vn 0.000000 0.707107 -0.707107
v 5.593750 46.406250 -0.000000
vt 0.070730 1.016601
vn 0.000000 0.000000 -1.000000
v 8.000000 46.750000 -0.000000
vt 0.070730 1.000000
vn 0.000000 0.000000 -1.000000
v 5.183594 47.285156 0.312500
vt 0.057930 1.016601
vn -0.259688 0.626943 -0.734510
v 143.000000 47.687500 0.312500
vt 0.048827 1.000000
vn 0.000000 0.707107 -0.707107
v 8.000000 47.687500 0.312500
vt 0.048827 2.054690
vn 0.000000 0.707107 -0.707107
v 8.000000 46.750000 -0.000000
vt 0.058590 2.054690
vn 0.000000 0.000000 -1.000000
v 143.000000 46.750000 -0.000000
vt 0.058590 1.000000
vn 0.000000 0.000000 -1.000000
v 3.875000 45.375000 -0.000000
vt 0.070730 1.033203
vn 0.000000 0.000000 -1.000000
v 2.843750 43.656250 -0.000000
vt 0.070730 1.049806
vn 0.000000 0.000000 -1.000000
v 2.500000 41.250000 -0.000000
vt 0.070730 1.066410
vn 0.000000 0.000000 -1.000000
v 3.722656 43.246094 0.312500
vt 0.083530 1.049806
vn 0.626943 -0.259688 -0.734510
v 4.578125 44.671875 0.312500
vt 0.083530 1.033203
vn 0.500000 -0.500000 -0.707107
v 3.437500 41.250000 0.312500
vt 0.083530 1.066410
vn 0.707107 0.000000 -0.707107
v 6.003906 45.527344 0.312500
vt 0.083530 1.016601
vn 0.259688 -0.626943 -0.734510
v 8.000000 45.812500 0.312500
vt 0.083530 1.000000
vn 0.000000 -0.707107 -0.707107
v 8.000000 45.812500 0.312500
vt 0.068357 2.054690
vn 0.000000 -0.707107 -0.707107
v 143.000000 45.812500 0.312500
vt 0.068357 1.000000
vn 0.000000 -0.707107 -0.707107
v 2.500000 5.250000 -0.000000
vt 0.019530 1.179690
vn 0.000000 0.000000 -1.000000
v 2.500000 41.250000 -0.000000
vt 0.019530 1.000000
vn 0.000000 0.000000 -1.000000
v 3.437500 5.250000 0.312500
vt 0.029298 1.179690
vn 0.707107 0.000000 -0.707107
v 3.437500 41.250000 0.312500
vt 0.029298 1.000000
vn 0.707107 0.000000 -0.707107
v 4.812500 44.437500 1.250000
vt 0.094310 1.033203
vn 0.707107 -0.707107 -0.000000
v 6.140625 45.234375 1.250000
vt 0.094310 1.016601
vn 0.382683 -0.923880 -0.000000
v 8.000000 45.500000 1.250000
vt 0.094310 1.000000
vn 0.000000 -1.000000 -0.000000
v 8.000000 45.500000 1.250000
vt 0.078120 2.054690
vn 0.000000 -1.000000 -0.000000
v 143.000000 45.500000 1.250000
vt 0.078120 1.000000
vn 0.000000 -1.000000 -0.000000
v 8.000000 48.000000 1.250000
vt 0.047150 1.000000
vn 0.000000 1.000000 -0.000000
v 5.046875 47.578125 1.250000
vt 0.047150 1.016601
vn -0.382683 0.923880 -0.000000
v 143.000000 48.000000 1.250000
vt 0.039060 1.000000
vn 0.000000 1.000000 -0.000000
v 8.000000 48.000000 1.250000
vt 0.039060 2.054690
vn 0.000000 1.000000 -0.000000
v 4.015625 43.109375 1.250000
vt 0.000000 1.049806
vn 0.923880 -0.382683 -0.000000
v 3.750000 41.250000 1.250000
vt 0.000000 1.066410
vn 1.000000 0.000000 -0.000000
v 3.437500 41.250000 2.187500
vt 0.010780 1.066410
vn 0.707107 0.000000 0.707107
v 3.722656 43.246094 2.187500
vt 0.010780 1.049806
vn 0.626943 -0.259688 0.734510
v 3.750000 41.250000 1.250000
vt 0.039060 1.000000
vn 1.000000 0.000000 -0.000000
v 3.437500 5.750000 2.187500
vt 0.048827 1.179690
vn 0.707107 0.000000 0.707107
v 3.437500 41.250000 2.187500
vt 0.048827 1.000000
vn 0.707107 0.000000 0.707107
v 3.750000 5.250000 1.250000
vt 0.039060 1.179690
vn 1.000000 0.000000 -0.000000
v 4.812500 44.437500 1.250000
vt 0.000000 1.033203
vn 0.707107 -0.707107 -0.000000
v 4.578125 44.671875 2.187500
vt 0.010780 1.033203
vn 0.500000 -0.500000 0.707107
v 3.437500 41.250000 0.312500
vt 0.029298 1.000000
vn 0.707107 0.000000 -0.707107
v 3.437500 5.250000 0.312500
vt 0.029298 1.179690
vn 0.707107 0.000000 -0.707107
v 3.722656 43.246094 0.312500
vt 0.083530 1.049806
vn 0.626943 -0.259688 -0.734510
v 3.437500 41.250000 0.312500
vt 0.083530 1.066410
vn 0.707107 0.000000 -0.707107
v 3.750000 41.250000 1.250000
vt 0.094310 1.066410
vn 1.000000 0.000000 -0.000000
v 4.015625 43.109375 1.250000
vt 0.094310 1.049806
vn 0.923880 -0.382683 -0.000000
v 4.578125 44.671875 0.312500
vt 0.083530 1.033203
vn 0.500000 -0.500000 -0.707107
v 4.812500 44.437500 1.250000
vt 0.094310 1.033203
vn 0.707107 -0.707107 -0.000000
v 6.140625 45.234375 1.250000
vt 0.000000 1.016601
vn 0.382683 -0.923880 -0.000000
v 6.003906 45.527344 2.187500
vt 0.010780 1.016601
vn 0.259688 -0.626943 0.734510
v 1.964844 44.066406 2.187500
vt 0.036378 1.049806
vn -0.626943 0.259688 0.734510
v 1.562500 41.250000 2.187500
vt 0.036378 1.066410
vn -0.707107 0.000000 0.707107
v 1.250000 41.250000 1.250000
vt 0.047150 1.066410
vn -1.000000 0.000000 -0.000000
v 1.671875 44.203125 1.250000
vt 0.047150 1.049806
vn -0.923880 0.382683 -0.000000
v 1.562500 41.250000 2.187500
vt 0.068357 1.000000
vn -0.707107 0.000000 0.707107
v 1.250000 5.250000 1.250000
vt 0.078120 1.179690
vn -1.000000 0.000000 -0.000000
v 1.250000 41.250000 1.250000
vt 0.078120 1.000000
vn -1.000000 0.000000 -0.000000
v 1.562500 5.750000 2.187500
vt 0.068357 1.179690
vn -0.707107 0.000000 0.707107
v 3.171875 46.078125 2.187500
vt 0.036378 1.033203
vn -0.500000 0.500000 0.707107
v 2.937500 46.312500 1.250000
vt 0.047150 1.033203
vn -0.707107 0.707107 -0.000000
v 8.000000 46.750000 2.500000
vt 0.023580 1.000000
vn 0.000000 0.000000 1.000000
v 5.183594 47.285156 2.187500
vt 0.036378 1.016601
vn -0.259688 0.626943 0.734510
v 8.000000 47.687500 2.187500
vt 0.036378 1.000000
vn 0.000000 0.707107 0.707107
v 5.593750 46.406250 2.500000
vt 0.023580 1.016601
vn 0.000000 0.000000 1.000000
v 143.000000 46.750000 2.500000
vt 0.019530 1.000000
vn 0.000000 0.000000 1.000000
v 8.000000 46.750000 2.500000
vt 0.019530 2.054690
vn 0.000000 0.000000 1.000000
v 8.000000 47.687500 2.187500
vt 0.029298 2.054690
vn 0.000000 0.707107 0.707107
v 143.000000 47.687500 2.187500
vt 0.029298 1.000000
vn 0.000000 0.707107 0.707107
v 3.875000 45.375000 2.500000
vt 0.023580 1.033203
vn 0.000000 0.000000 1.000000
v 2.843750 43.656250 2.500000
vt 0.023580 1.049806
vn 0.000000 0.000000 1.000000
v 2.500000 41.250000 2.500000
vt 0.023580 1.066410
vn 0.000000 0.000000 1.000000
v 143.000000 45.812500 2.187500
vt 0.009768 1.000000
vn 0.000000 -0.707107 0.707107
v 8.000000 45.812500 2.187500
vt 0.009768 2.054690
vn 0.000000 -0.707107 0.707107
v 8.000000 45.812500 2.187500
vt 0.010780 1.000000
vn 0.000000 -0.707107 0.707107
v 6.003906 45.527344 2.187500
vt 0.010780 1.016601
vn 0.259688 -0.626943 0.734510
v 4.578125 44.671875 2.187500
vt 0.010780 1.033203
vn 0.500000 -0.500000 0.707107
v 3.722656 43.246094 2.187500
vt 0.010780 1.049806
vn 0.626943 -0.259688 0.734510
v 3.437500 41.250000 2.187500
vt 0.010780 1.066410
vn 0.707107 0.000000 0.707107
v 3.437500 41.250000 2.187500
vt 0.048827 1.000000
vn 0.707107 0.000000 0.707107
v 2.500000 5.250000 2.500000
vt 0.058590 1.179690
vn 0.000000 0.000000 1.000000
v 2.500000 41.250000 2.500000
vt 0.058590 1.000000
vn 0.000000 0.000000 1.000000
v 3.437500 5.750000 2.187500
vt 0.048827 1.179690
vn 0.707107 0.000000 0.707107
v 143.000000 45.500000 1.250000
vt 0.000000 1.000000
vn 0.000000 -1.000000 -0.000000
v 8.000000 45.500000 1.250000
vt 0.000000 2.054690
vn 0.000000 -1.000000 -0.000000
v 8.000000 45.500000 1.250000
vt 0.000000 1.000000
vn 0.000000 -1.000000 -0.000000
v 6.140625 45.234375 1.250000
vt 0.000000 1.016601
vn 0.382683 -0.923880 -0.000000
v 5.046875 47.578125 1.250000
vt 0.047150 1.016601
vn -0.382683 0.923880 -0.000000
v 8.000000 48.000000 1.250000
vt 0.047150 1.000000
vn 0.000000 1.000000 -0.000000
v 8.000000 48.000000 1.250000
vt 0.039060 2.054690
vn 0.000000 1.000000 -0.000000
v 143.000000 48.000000 1.250000
vt 0.039060 1.000000
vn 0.000000 1.000000 -0.000000
f 126/126/126 116/116/116 127/127/127
f 126/126/126 115/115/115 116/116/116
f 115/115/115 109/109/109 116/116/116
f 115/115/115 108/108/108 109/109/109
f 108/108/108 110/110/110 109/109/109
f 108/108/108 111/111/111 110/110/110
f 111/111/111 132/132/132 110/110/110
f 111/111/111 133/133/133 132/132/132
f 72/72/72 48/48/48 73/73/73
f 72/72/72 47/47/47 48/48/48
f 47/47/47 49/49/49 48/48/48
f 47/47/47 50/50/50 49/49/49
f 50/50/50 59/59/59 49/49/49
f 50/50/50 60/60/60 59/59/59
f 60/60/60 68/68/68 59/59/59
f 60/60/60 69/69/69 68/68/68
f 128/128/128 118/118/118 129/129/129
f 128/128/128 117/117/117 118/118/118
f 117/117/117 107/107/107 118/118/118
f 117/117/117 104/104/104 107/107/107
f 104/104/104 105/105/105 107/107/107
f 104/104/104 106/106/106 105/105/105
f 106/106/106 130/130/130 105/105/105
f 106/106/106 131/131/131 130/130/130
f 70/70/70 46/46/46 71/71/71
f 70/70/70 43/43/43 46/46/46
f 43/43/43 44/44/44 46/46/46
f 43/43/43 45/45/45 44/44/44
f 45/45/45 57/57/57 44/44/44
f 45/45/45 58/58/58 57/57/57
f 58/58/58 66/66/66 57/57/57
f 58/58/58 67/67/67 66/66/66
f 92/92/92 83/83/83 82/82/82
f 92/92/92 93/93/93 83/83/83
f 118/118/118 112/112/112 119/119/119
f 118/118/118 107/107/107 112/112/112
f 107/107/107 102/102/102 112/112/112
f 107/107/107 105/105/105 102/102/102
f 105/105/105 103/103/103 102/102/102
f 105/105/105 130/130/130 103/103/103
f 71/71/71 42/42/42 41/41/41
f 71/71/71 46/46/46 42/42/42
f 46/46/46 51/51/51 42/42/42
f 46/46/46 44/44/44 51/51/51
f 44/44/44 55/55/55 51/51/51
f 44/44/44 57/57/57 55/55/55
f 57/57/57 65/65/65 55/55/55
f 57/57/57 66/66/66 65/65/65
f 82/82/82 77/77/77 74/74/74
f 82/82/82 83/83/83 77/77/77
f 119/119/119 113/113/113 120/120/120
f 119/119/119 112/112/112 113/113/113
f 112/112/112 94/94/94 113/113/113
f 112/112/112 102/102/102 94/94/94
f 102/102/102 97/97/97 94/94/94
f 102/102/102 103/103/103 97/97/97
f 41/41/41 36/36/36 33/33/33
f 41/41/41 42/42/42 36/36/36
f 42/42/42 52/52/52 36/36/36
f 42/42/42 51/51/51 52/52/52
f 51/51/51 54/54/54 52/52/52
f 51/51/51 55/55/55 54/54/54
f 90/90/90 89/89/89 86/86/86
f 90/90/90 91/91/91 89/89/89
f 74/74/74 76/76/76 75/75/75
f 74/74/74 77/77/77 76/76/76
f 120/120/120 114/114/114 121/121/121
f 120/120/120 113/113/113 114/114/114
f 113/113/113 95/95/95 114/114/114
f 113/113/113 94/94/94 95/95/95
f 94/94/94 96/96/96 95/95/95
f 94/94/94 97/97/97 96/96/96
f 33/33/33 35/35/35 34/34/34
f 33/33/33 36/36/36 35/35/35
f 36/36/36 53/53/53 35/35/35
f 36/36/36 52/52/52 53/53/53
f 52/52/52 56/56/56 53/53/53
f 52/52/52 54/54/54 56/56/56
f 86/86/86 88/88/88 87/87/87
f 86/86/86 89/89/89 88/88/88
f 37/37/37 38/38/38 40/40/40
f 37/37/37 39/39/39 38/38/38
f 39/39/39 61/61/61 38/38/38
f 39/39/39 62/62/62 61/61/61
f 62/62/62 63/63/63 61/61/61
f 62/62/62 64/64/64 63/63/63
f 84/84/84 81/81/81 85/85/85
f 84/84/84 78/78/78 81/81/81
f 78/78/78 79/79/79 81/81/81
f 78/78/78 80/80/80 79/79/79
f 122/122/122 123/123/123 125/125/125
f 122/122/122 124/124/124 123/123/123
f 124/124/124 101/101/101 123/123/123
f 124/124/124 98/98/98 101/101/101
f 98/98/98 99/99/99 101/101/101
f 98/98/98 100/100/100 99/99/99
g mat1m0s10
usemtl textures/plastic/grey50
v -2.078125 45.953125 1.250000
vt 0.047150 1.096681
vn -0.923880 0.382683 -0.000000
v -2.750000 41.250000 1.250000
vt 0.047150 1.128910
vn -1.000000 0.000000 -0.000000
v -2.437500 41.250000 0.312500
vt 0.057930 1.128910
vn -0.707107 0.000000 -0.707107
v -1.785156 45.816406 0.312500
vt 0.057930 1.096681
vn -0.626943 0.259688 -0.734510
v -2.750000 41.250000 1.250000
vt 0.000000 1.000000
vn -1.000000 0.000000 -0.000000
v -2.437500 5.750000 0.312500
vt 0.009768 1.179690
vn -0.707107 0.000000 -0.707107
v -2.437500 41.250000 0.312500
vt 0.009768 1.000000
vn -0.707107 0.000000 -0.707107
v -2.750000 5.750000 1.250000
vt 0.000000 1.179690
vn -1.000000 0.000000 -0.000000
v -0.062500 49.312500 1.250000
vt 0.047150 1.064453
vn -0.707107 0.707107 -0.000000
v 0.171875 49.078125 0.312500
vt 0.057930 1.064453
vn -0.500000 0.500000 -0.707107
v 3.296875 51.328125 1.250000
vt 0.047150 1.032226
vn -0.382683 0.923880 -0.000000
v 3.433594 51.035156 0.312500
vt 0.057930 1.032226
vn -0.259688 0.626943 -0.734510
v 8.000000 52.000000 1.250000
vt 0.047150 1.000000
vn 0.000000 1.000000 -0.000000
v 8.000000 51.687500 0.312500
vt 0.057930 1.000000
vn 0.000000 0.707107 -0.707107
v -0.027344 44.996094 0.312500
vt 0.083530 1.096681
vn 0.626943 -0.259688 -0.734510
v -0.562500 41.250000 0.312500
vt 0.083530 1.128910
vn 0.707107 0.000000 -0.707107
v -0.250000 41.250000 1.250000
vt 0.094310 1.128910
vn 1.000000 0.000000 -0.000000
v 0.265625 44.859375 1.250000
vt 0.094310 1.096681
vn 0.923880 -0.382683 -0.000000
v -0.562500 41.250000 0.312500
vt 0.029298 1.000000
vn 0.707107 0.000000 -0.707107
v -0.250000 5.750000 1.250000
vt 0.039060 1.179690
vn 1.000000 0.000000 -0.000000
v -0.250000 41.250000 1.250000
vt 0.039060 1.000000
vn 1.000000 0.000000 -0.000000
v -0.562500 6.000000 0.312500
vt 0.029298 1.179690
vn 0.707107 0.000000 -0.707107
v 1.578125 47.671875 0.312500
vt 0.083530 1.064453
vn 0.500000 -0.500000 -0.707107
v 1.812500 47.437500 1.250000
vt 0.094310 1.064453
vn 0.707107 -0.707107 -0.000000
v 3.843750 50.156250 -0.000000
vt 0.070730 1.032226
vn 0.000000 0.000000 -1.000000
v 8.000000 50.750000 -0.000000
vt 0.070730 1.000000
vn 0.000000 0.000000 -1.000000
v 143.000000 51.687500 0.312500
vt 0.048827 1.000000
vn 0.000000 0.707107 -0.707107
v 8.000000 51.687500 0.312500
vt 0.048827 2.054690
vn 0.000000 0.707107 -0.707107
v 8.000000 50.750000 -0.000000
vt 0.058590 2.054690
vn 0.000000 0.000000 -1.000000
v 143.000000 50.750000 -0.000000
vt 0.058590 1.000000
vn 0.000000 0.000000 -1.000000
v 0.875000 48.375000 -0.000000
vt 0.070730 1.064453
vn 0.000000 0.000000 -1.000000
v -0.906250 45.406250 -0.000000
vt 0.070730 1.096681
vn 0.000000 0.000000 -1.000000
v -1.500000 41.250000 -0.000000
vt 0.070730 1.128910
vn 0.000000 0.000000 -1.000000
v 8.000000 49.812500 0.312500
vt 0.068357 2.054690
vn 0.000000 -0.707107 -0.707107
v 143.000000 49.812500 0.312500
vt 0.068357 1.000000
vn 0.000000 -0.707107 -0.707107
v 4.253906 49.277344 0.312500
vt 0.083530 1.032226
vn 0.259688 -0.626943 -0.734510
v 8.000000 49.812500 0.312500
vt 0.083530 1.000000
vn 0.000000 -0.707107 -0.707107
v -1.500000 5.750000 -0.000000
vt 0.019530 1.179690
vn 0.000000 0.000000 -1.000000
v -1.500000 41.250000 -0.000000
vt 0.019530 1.000000
vn 0.000000 0.000000 -1.000000
v 143.000000 52.000000 1.250000
vt 0.039060 1.000000
vn 0.000000 1.000000 -0.000000
v 8.000000 52.000000 1.250000
vt 0.039060 2.054690
vn 0.000000 1.000000 -0.000000
v 4.390625 48.984375 1.250000
vt 0.094310 1.032226
vn 0.382683 -0.923880 -0.000000
v 8.000000 49.500000 1.250000
vt 0.094310 1.000000
vn 0.000000 -1.000000 -0.000000
v 8.000000 49.500000 1.250000
vt 0.078120 2.054690
vn 0.000000 -1.000000 -0.000000
v 143.000000 49.500000 1.250000
vt 0.078120 1.000000
vn 0.000000 -1.000000 -0.000000
v 0.265625 44.859375 1.250000
vt 0.000000 1.096681
vn 0.923880 -0.382683 -0.000000
v -0.250000 41.250000 1.250000
vt 0.000000 1.128910
vn 1.000000 0.000000 -0.000000
v -0.562500 41.250000 2.187500
vt 0.010780 1.128910
vn 0.707107 0.000000 0.707107
v -0.027344 44.996094 2.187500
vt 0.010780 1.096681
vn 0.626943 -0.259688 0.734510
v -0.250000 41.250000 1.250000
vt 0.039060 1.000000
vn 1.000000 0.000000 -0.000000
v -0.562500 5.750000 2.187500
vt 0.048827 1.179690
vn 0.707107 0.000000 0.707107
v -0.562500 41.250000 2.187500
vt 0.048827 1.000000
vn 0.707107 0.000000 0.707107
v -0.250000 5.750000 1.250000
vt 0.039060 1.179690
vn 1.000000 0.000000 -0.000000
v 1.812500 47.437500 1.250000
vt 0.000000 1.064453
vn 0.707107 -0.707107 -0.000000
v 1.578125 47.671875 2.187500
vt 0.010780 1.064453
vn 0.500000 -0.500000 0.707107
v -1.785156 45.816406 2.187500
vt 0.036378 1.096681
vn -0.626943 0.259688 0.734510
v -2.437500 41.250000 2.187500
vt 0.036378 1.128910
vn -0.707107 0.000000 0.707107
v -2.750000 41.250000 1.250000
vt 0.047150 1.128910
vn -1.000000 0.000000 -0.000000
v -2.078125 45.953125 1.250000
vt 0.047150 1.096681
vn -0.923880 0.382683 -0.000000
v -2.437500 41.250000 2.187500
vt 0.068357 1.000000
vn -0.707107 0.000000 0.707107
v -2.750000 5.750000 1.250000
vt 0.078120 1.179690
vn -1.000000 0.000000 -0.000000
v -2.750000 41.250000 1.250000
vt 0.078120 1.000000
vn -1.000000 0.000000 -0.000000
v -2.437500 6.000000 2.187500
vt 0.068357 1.179690
vn -0.707107 0.000000 0.707107
v 0.171875 49.078125 2.187500
vt 0.036378 1.064453
vn -0.500000 0.500000 0.707107
v -0.062500 49.312500 1.250000
vt 0.047150 1.064453
vn -0.707107 0.707107 -0.000000
v 3.433594 51.035156 2.187500
vt 0.036378 1.032226
vn -0.259688 0.626943 0.734510
v 3.296875 51.328125 1.250000
vt 0.047150 1.032226
vn -0.382683 0.923880 -0.000000
v 8.000000 51.687500 2.187500
vt 0.036378 1.000000
vn 0.000000 0.707107 0.707107
v 8.000000 52.000000 1.250000
vt 0.047150 1.000000
vn 0.000000 1.000000 -0.000000
v 8.000000 50.750000 2.500000
vt 0.023580 1.000000
vn 0.000000 0.000000 1.000000
v 3.843750 50.156250 2.500000
vt 0.023580 1.032226
vn 0.000000 0.000000 1.000000
v 143.000000 50.750000 2.500000
vt 0.019530 1.000000
vn 0.000000 0.000000 1.000000
v 8.000000 50.750000 2.500000
vt 0.019530 2.054690
vn 0.000000 0.000000 1.000000
v 8.000000 51.687500 2.187500
vt 0.029298 2.054690
vn 0.000000 0.707107 0.707107
v 143.000000 51.687500 2.187500
vt 0.029298 1.000000
vn 0.000000 0.707107 0.707107
v 0.875000 48.375000 2.500000
vt 0.023580 1.064453
vn 0.000000 0.000000 1.000000
v -0.906250 45.406250 2.500000
vt 0.023580 1.096681
vn 0.000000 0.000000 1.000000
v 4.253906 49.277344 2.187500
vt 0.010780 1.032226
vn 0.259688 -0.626943 0.734510
v 8.000000 49.812500 2.187500
vt 0.010780 1.000000
vn 0.000000 -0.707107 0.707107
v 143.000000 49.812500 2.187500
vt 0.009768 1.000000
vn 0.000000 -0.707107 0.707107
v 8.000000 49.812500 2.187500
vt 0.009768 2.054690
vn 0.000000 -0.707107 0.707107
v -1.500000 41.250000 2.500000
vt 0.023580 1.128910
vn 0.000000 0.000000 1.000000
v -1.500000 5.750000 2.500000
vt 0.058590 1.179690
vn 0.000000 0.000000 1.000000
v -1.500000 41.250000 2.500000
vt 0.058590 1.000000
vn 0.000000 0.000000 1.000000
v 8.000000 52.000000 1.250000
vt 0.039060 2.054690
vn 0.000000 1.000000 -0.000000
v 143.000000 52.000000 1.250000
vt 0.039060 1.000000
vn 0.000000 1.000000 -0.000000
v 8.000000 49.500000 1.250000
vt 0.000000 1.000000
vn 0.000000 -1.000000 -0.000000
v 4.390625 48.984375 1.250000
vt 0.000000 1.032226
vn 0.382683 -0.923880 -0.000000
v 143.000000 49.500000 1.250000
vt 0.000000 1.000000
vn 0.000000 -1.000000 -0.000000
v 8.000000 49.500000 1.250000
vt 0.000000 2.054690
vn 0.000000 -1.000000 -0.000000
f 138/138/138 139/139/139 141/141/141
f 138/138/138 140/140/140 139/139/139
f 140/140/140 171/171/171 139/139/139
f 140/140/140 172/172/172 171/171/171
f 172/172/172 155/155/155 171/171/171
f 172/172/172 152/152/152 155/155/155
f 152/152/152 153/153/153 155/155/155
f 152/152/152 154/154/154 153/153/153
f 183/183/183 184/184/184 186/186/186
f 183/183/183 185/185/185 184/184/184
f 185/185/185 216/216/216 184/184/184
f 185/185/185 217/217/217 216/216/216
f 217/217/217 196/196/196 216/216/216
f 217/217/217 193/193/193 196/196/196
f 193/193/193 194/194/194 196/196/196
f 193/193/193 195/195/195 194/194/194
f 220/220/220 211/211/211 221/221/221
f 220/220/220 212/212/212 211/211/211
f 212/212/212 204/204/204 211/211/211
f 212/212/212 203/203/203 204/204/204
f 203/203/203 199/199/199 204/204/204
f 203/203/203 201/201/201 199/199/199
f 201/201/201 200/200/200 199/199/199
f 201/201/201 202/202/202 200/200/200
f 146/146/146 145/145/145 144/144/144
f 146/146/146 147/147/147 145/145/145
f 147/147/147 158/158/158 145/145/145
f 147/147/147 159/159/159 158/158/158
f 159/159/159 169/169/169 158/158/158
f 159/159/159 170/170/170 169/169/169
f 170/170/170 175/175/175 169/169/169
f 170/170/170 176/176/176 175/175/175
f 221/221/221 188/188/188 187/187/187
f 221/221/221 211/211/211 188/188/188
f 211/211/211 209/209/209 188/188/188
f 211/211/211 204/204/204 209/209/209
f 204/204/204 197/197/197 209/209/209
f 204/204/204 199/199/199 197/197/197
f 199/199/199 198/198/198 197/197/197
f 199/199/199 200/200/200 198/198/198
f 144/144/144 143/143/143 142/142/142
f 144/144/144 145/145/145 143/143/143
f 145/145/145 164/164/164 143/143/143
f 145/145/145 158/158/158 164/164/164
f 158/158/158 156/156/156 164/164/164
f 158/158/158 169/169/169 156/156/156
f 169/169/169 157/157/157 156/156/156
f 169/169/169 175/175/175 157/157/157
f 187/187/187 182/182/182 179/179/179
f 187/187/187 188/188/188 182/182/182
f 188/188/188 210/210/210 182/182/182
f 188/188/188 209/209/209 210/210/210
f 209/209/209 189/189/189 210/210/210
f 209/209/209 197/197/197 189/189/189
f 197/197/197 192/192/192 189/189/189
f 197/197/197 198/198/198 192/192/192
f 142/142/142 137/137/137 134/134/134
f 142/142/142 143/143/143 137/137/137
f 143/143/143 165/165/165 137/137/137
f 143/143/143 164/164/164 165/165/165
f 164/164/164 148/148/148 165/165/165
f 164/164/164 156/156/156 148/148/148
f 156/156/156 151/151/151 148/148/148
f 156/156/156 157/157/157 151/151/151
f 179/179/179 181/181/181 180/180/180
f 179/179/179 182/182/182 181/181/181
f 182/182/182 215/215/215 181/181/181
f 182/182/182 210/210/210 215/215/215
f 210/210/210 190/190/190 215/215/215
f 210/210/210 189/189/189 190/190/190
f 189/189/189 191/191/191 190/190/190
f 189/189/189 192/192/192 191/191/191
f 134/134/134 136/136/136 135/135/135
f 134/134/134 137/137/137 136/136/136
f 137/137/137 166/166/166 136/136/136
f 137/137/137 165/165/165 166/166/166
f 165/165/165 149/149/149 166/166/166
f 165/165/165 148/148/148 149/149/149
f 148/148/148 150/150/150 149/149/149
f 148/148/148 151/151/151 150/150/150
f 222/222/222 214/214/214 223/223/223
f 222/222/222 213/213/213 214/214/214
f 213/213/213 206/206/206 214/214/214
f 213/213/213 205/205/205 206/206/206
f 205/205/205 207/207/207 206/206/206
f 205/205/205 208/208/208 207/207/207
f 208/208/208 218/218/218 207/207/207
f 208/208/208 219/219/219 218/218/218
f 173/173/173 161/161/161 174/174/174
f 173/173/173 160/160/160 161/161/161
f 160/160/160 162/162/162 161/161/161
f 160/160/160 163/163/163 162/162/162
f 163/163/163 167/167/167 162/162/162
f 163/163/163 168/168/168 167/167/167
f 168/168/168 177/177/177 167/167/167
f 168/168/168 178/178/178 177/177/177
g mat1m0s11
usemtl textures/plastic/grey50
v -2.437500 -17.750000 0.312500
vt 0.009768 1.000000
vn -0.707107 0.000000 -0.707107
v -2.437500 -59.000000 0.312500
vt 0.009768 1.322260
vn -0.707107 0.000000 -0.707107
v -1.500000 -59.000000 -0.000000
vt 0.019530 1.322260
vn 0.000000 0.000000 -1.000000
v -1.500000 -17.750000 -0.000000
vt 0.019530 1.000000
vn 0.000000 0.000000 -1.000000
v -0.562500 -59.000000 0.312500
vt 0.029298 1.322260
vn 0.707107 0.000000 -0.707107
v -0.562500 -17.750000 0.312500
vt 0.029298 1.000000
vn 0.707107 0.000000 -0.707107
v -2.437500 -17.750000 2.187500
vt 0.068357 1.000000
vn -0.707107 0.000000 0.707107
v -2.437500 -59.000000 2.187500
vt 0.068357 1.322260
vn -0.707107 0.000000 0.707107
v -2.750000 -59.000000 1.250000
vt 0.078120 1.322260
vn -1.000000 0.000000 -0.000000
v -2.750000 -17.750000 1.250000
vt 0.078120 1.000000
vn -1.000000 0.000000 -0.000000
v -2.750000 -17.750000 1.250000
vt 0.000000 1.000000
vn -1.000000 0.000000 -0.000000
v -2.750000 -59.000000 1.250000
vt 0.000000 1.322260
vn -1.000000 0.000000 -0.000000
v -2.437500 -59.000000 0.312500
vt 0.009768 1.322260
vn -0.707107 0.000000 -0.707107
v -2.437500 -17.750000 0.312500
vt 0.009768 1.000000
vn -0.707107 0.000000 -0.707107
v -0.562500 -17.750000 0.312500
vt 0.029298 1.000000
vn 0.707107 0.000000 -0.707107
v -0.250000 -59.000000 1.250000
vt 0.039060 1.322260
vn 1.000000 0.000000 -0.000000
v -0.250000 -17.750000 1.250000
vt 0.039060 1.000000
vn 1.000000 0.000000 -0.000000
v -0.562500 -59.000000 0.312500
vt 0.029298 1.322260
vn 0.707107 0.000000 -0.707107
v -0.562500 -59.000000 2.187500
vt 0.048827 1.322260
vn 0.707107 0.000000 0.707107
v -0.562500 -17.750000 2.187500
vt 0.048827 1.000000
vn 0.707107 0.000000 0.707107
v -0.562500 -17.750000 2.187500
vt 0.048827 1.000000
vn 0.707107 0.000000 0.707107
v -0.562500 -59.000000 2.187500
vt 0.048827 1.322260
vn 0.707107 0.000000 0.707107
v -1.500000 -59.000000 2.500000
vt 0.058590 1.322260
vn 0.000000 0.000000 1.000000
v -1.500000 -17.750000 2.500000
vt 0.058590 1.000000
vn 0.000000 0.000000 1.000000
v -2.437500 -59.000000 2.187500
vt 0.068357 1.322260
vn -0.707107 0.000000 0.707107
v -2.437500 -17.750000 2.187500
vt 0.068357 1.000000
vn -0.707107 0.000000 0.707107
f 234/234/234 236/236/236 235/235/235
f 234/234/234 237/237/237 236/236/236
f 224/224/224 226/226/226 225/225/225
f 224/224/224 227/227/227 226/226/226
f 227/227/227 228/228/228 226/226/226
f 227/227/227 229/229/229 228/228/228
f 238/238/238 239/239/239 241/241/241
f 238/238/238 240/240/240 239/239/239
f 240/240/240 242/242/242 239/239/239
f 240/240/240 243/243/243 242/242/242
f 244/244/244 246/246/246 245/245/245
f 244/244/244 247/247/247 246/246/246
f 247/247/247 248/248/248 246/246/246
f 247/247/247 249/249/249 248/248/248
f 230/230/230 232/232/232 231/231/231
f 230/230/230 233/233/233 232/232/232
g mat1m0s12
usemtl textures/plastic/grey50
v 1.562500 -17.750000 0.312500
vt 0.009768 1.000000
vn -0.707107 0.000000 -0.707107
v 1.562500 -59.000000 0.312500
vt 0.009768 1.322260
vn -0.707107 0.000000 -0.707107
v 2.500000 -59.000000 -0.000000
vt 0.019530 1.322260
vn 0.000000 0.000000 -1.000000
v 2.500000 -17.750000 -0.000000
vt 0.019530 1.000000
vn 0.000000 0.000000 -1.000000
v 3.437500 -59.000000 0.312500
vt 0.029298 1.322260
vn 0.707107 0.000000 -0.707107
v 3.437500 -17.750000 0.312500
vt 0.029298 1.000000
vn 0.707107 0.000000 -0.707107
v 1.562500 -17.750000 2.187500
vt 0.068357 1.000000
vn -0.707107 0.000000 0.707107
v 1.562500 -59.000000 2.187500
vt 0.068357 1.322260
vn -0.707107 0.000000 0.707107
v 1.250000 -59.000000 1.250000
vt 0.078120 1.322260
vn -1.000000 0.000000 -0.000000
v 1.250000 -17.750000 1.250000
vt 0.078120 1.000000
vn -1.000000 0.000000 -0.000000
v 1.250000 -17.750000 1.250000
vt 0.000000 1.000000
vn -1.000000 0.000000 -0.000000
v 1.250000 -59.000000 1.250000
vt 0.000000 1.322260
vn -1.000000 0.000000 -0.000000
v 1.562500 -59.000000 0.312500
vt 0.009768 1.322260
vn -0.707107 0.000000 -0.707107
v 1.562500 -17.750000 0.312500
vt 0.009768 1.000000
vn -0.707107 0.000000 -0.707107
v 3.437500 -17.750000 0.312500
vt 0.029298 1.000000
vn 0.707107 0.000000 -0.707107
v 3.750000 -59.000000 1.250000
vt 0.039060 1.322260
vn 1.000000 0.000000 -0.000000
v 3.750000 -17.750000 1.250000
vt 0.039060 1.000000
vn 1.000000 0.000000 -0.000000
v 3.437500 -59.000000 0.312500
vt 0.029298 1.322260
vn 0.707107 0.000000 -0.707107
v 3.437500 -59.000000 2.187500
vt 0.048827 1.322260
vn 0.707107 0.000000 0.707107
v 3.437500 -17.750000 2.187500
vt 0.048827 1.000000
vn 0.707107 0.000000 0.707107
v 3.437500 -17.750000 2.187500
vt 0.048827 1.000000
vn 0.707107 0.000000 0.707107
v 3.437500 -59.000000 2.187500
vt 0.048827 1.322260
vn 0.707107 0.000000 0.707107
v 2.500000 -59.000000 2.500000
vt 0.058590 1.322260
vn 0.000000 0.000000 1.000000
v 2.500000 -17.750000 2.500000
vt 0.058590 1.000000
vn 0.000000 0.000000 1.000000
v 1.562500 -59.000000 2.187500
vt 0.068357 1.322260
vn -0.707107 0.000000 0.707107
v 1.562500 -17.750000 2.187500
vt 0.068357 1.000000
vn -0.707107 0.000000 0.707107
f 260/260/260 262/262/262 261/261/261
f 260/260/260 263/263/263 262/262/262
f 250/250/250 252/252/252 251/251/251
f 250/250/250 253/253/253 252/252/252
f 253/253/253 254/254/254 252/252/252
f 253/253/253 255/255/255 254/254/254
f 264/264/264 265/265/265 267/267/267
f 264/264/264 266/266/266 265/265/265
f 266/266/266 268/268/268 265/265/265
f 266/266/266 269/269/269 268/268/268
f 270/270/270 272/272/272 271/271/271
f 270/270/270 273/273/273 272/272/272
f 273/273/273 274/274/274 272/272/272
f 273/273/273 275/275/275 274/274/274
f 256/256/256 258/258/258 257/257/257
f 256/256/256 259/259/259 258/258/258
g mat2m0s13
usemtl textures/plastic/grey75
v 36.750000 52.083332 2.333333
vt 0.231772 0.219375
vn -1.000000 0.000000 -0.000000
v 36.750000 45.416668 2.333333
vt 0.231772 0.167295
vn -1.000000 0.000000 -0.000000
v 36.750000 45.416668 -0.000000
vt 0.250000 0.167295
vn -1.000000 0.000000 -0.000000
v 36.750000 52.083332 -0.000000
vt 0.250000 0.219375
vn -1.000000 0.000000 -0.000000
v 36.750000 53.250000 -0.000000
vt 0.250000 0.228489
vn -0.707107 0.707107 -0.000000
v 36.750000 53.250000 3.500000
vt 0.222658 0.228489
vn -0.577350 0.577350 0.577350
v 36.750000 44.250000 3.500000
vt 0.222658 0.158181
vn -0.577350 -0.577350 0.577350
v 36.750000 44.250000 -0.000000
vt 0.250000 0.158181
vn -0.707107 -0.707107 -0.000000
v 36.750000 53.250000 3.500000
vt 0.912091 0.222658
vn -0.577350 0.577350 0.577350
v 36.750000 53.250000 -0.000000
vt 0.912091 0.250000
vn -0.707107 0.707107 -0.000000
v 37.416668 53.250000 -0.000000
vt 0.917299 0.250000
vn 0.000000 1.000000 -0.000000
v 37.416668 53.250000 2.833333
vt 0.917299 0.227866
vn 0.000000 1.000000 -0.000000
v 38.750000 53.250000 3.500000
vt 0.927715 0.222658
vn 0.577350 0.577350 0.577350
v 38.083332 53.250000 2.833333
vt 0.922507 0.227866
vn 0.000000 1.000000 -0.000000
v 38.750000 53.250000 -0.000000
vt 0.927715 0.250000
vn 0.707107 0.707107 -0.000000
v 38.083332 53.250000 -0.000000
vt 0.922507 0.250000
vn 0.000000 1.000000 -0.000000
v 36.750000 53.250000 3.500000
vt 0.912091 0.228489
vn -0.577350 0.577350 0.577350
v 38.750000 53.250000 3.500000
vt 0.927715 0.228489
vn 0.577350 0.577350 0.577350
v 38.083332 52.583332 3.500000
vt 0.922507 0.223281
vn 0.000000 0.000000 1.000000
v 37.416668 52.583332 3.500000
vt 0.917299 0.223281
vn 0.000000 0.000000 1.000000
v 36.750000 44.250000 3.500000
vt 0.912091 0.158181
vn -0.577350 -0.577350 0.577350
v 37.416668 44.916668 3.500000
vt 0.917299 0.163389
vn 0.000000 0.000000 1.000000
v 38.750000 44.250000 3.500000
vt 0.927715 0.158181
vn 0.577350 -0.577350 0.577350
v 38.083332 44.916668 3.500000
vt 0.922507 0.163389
vn 0.000000 0.000000 1.000000
v 38.750000 53.250000 3.500000
vt 0.222658 0.228489
vn 0.577350 0.577350 0.577350
v 38.750000 53.250000 -0.000000
vt 0.250000 0.228489
vn 0.707107 0.707107 -0.000000
v 38.750000 52.083332 -0.000000
vt 0.250000 0.219375
vn 1.000000 0.000000 -0.000000
v 38.750000 52.083332 2.333333
vt 0.231772 0.219375
vn 1.000000 0.000000 -0.000000
v 38.750000 44.250000 3.500000
vt 0.222658 0.158181
vn 0.577350 -0.577350 0.577350
v 38.750000 45.416668 2.333333
vt 0.231772 0.167295
vn 1.000000 0.000000 -0.000000
v 38.750000 44.250000 -0.000000
vt 0.250000 0.158181
vn 0.707107 -0.707107 -0.000000
v 38.750000 45.416668 -0.000000
vt 0.250000 0.167295
vn 1.000000 0.000000 -0.000000
v 38.750000 44.250000 3.500000
vt 0.927715 0.222658
vn 0.577350 -0.577350 0.577350
v 38.750000 44.250000 -0.000000
vt 0.927715 0.250000
vn 0.707107 -0.707107 -0.000000
v 38.083332 44.250000 -0.000000
vt 0.922507 0.250000
vn 0.000000 -1.000000 -0.000000
v 38.083332 44.250000 2.833333
vt 0.922507 0.227866
vn 0.000000 -1.000000 -0.000000
v 36.750000 44.250000 3.500000
vt 0.912091 0.222658
vn -0.577350 -0.577350 0.577350
v 37.416668 44.250000 2.833333
vt 0.917299 0.227866
vn 0.000000 -1.000000 -0.000000
v 36.750000 44.250000 -0.000000
vt 0.912091 0.250000
vn -0.707107 -0.707107 -0.000000
v 37.416668 44.250000 -0.000000
vt 0.917299 0.250000
vn 0.000000 -1.000000 -0.000000
f 276/276/276 278/278/278 277/277/277
f 276/276/276 279/279/279 278/278/278
f 280/280/280 276/276/276 281/281/281
f 280/280/280 279/279/279 276/276/276
f 282/282/282 278/278/278 283/283/283
f 282/282/282 277/277/277 278/278/278
f 281/281/281 277/277/277 282/282/282
f 281/281/281 276/276/276 277/277/277
f 294/294/294 297/297/297 299/299/299
f 294/294/294 295/295/295 297/297/297
f 292/292/292 294/294/294 293/293/293
f 292/292/292 295/295/295 294/294/294
f 298/298/298 297/297/297 296/296/296
f 298/298/298 299/299/299 297/297/297
f 293/293/293 299/299/299 298/298/298
f 293/293/293 294/294/294 299/299/299
f 296/296/296 295/295/295 292/292/292
f 296/296/296 297/297/297 295/295/295
f 315/315/315 311/311/311 313/313/313
f 315/315/315 310/310/310 311/311/311
f 312/312/312 311/311/311 308/308/308
f 312/312/312 313/313/313 311/311/311
f 308/308/308 310/310/310 309/309/309
f 308/308/308 311/311/311 310/310/310
f 314/314/314 313/313/313 312/312/312
f 314/314/314 315/315/315 313/313/313
f 287/287/287 291/291/291 286/286/286
f 287/287/287 289/289/289 291/291/291
f 288/288/288 287/287/287 284/284/284
f 288/288/288 289/289/289 287/287/287
f 290/290/290 289/289/289 288/288/288
f 290/290/290 291/291/291 289/289/289
f 284/284/284 286/286/286 285/285/285
f 284/284/284 287/287/287 286/286/286
f 302/302/302 305/305/305 307/307/307
f 302/302/302 303/303/303 305/305/305
f 300/300/300 302/302/302 301/301/301
f 300/300/300 303/303/303 302/302/302
f 306/306/306 305/305/305 304/304/304
f 306/306/306 307/307/307 305/305/305
f 304/304/304 303/303/303 300/300/300
f 304/304/304 305/305/305 303/303/303
g mat2m0s14
usemtl textures/plastic/grey75
v 103.250000 52.083332 2.333333
vt 0.231772 0.219375
vn -1.000000 0.000000 -0.000000
v 103.250000 45.416668 2.333333
vt 0.231772 0.167295
vn -1.000000 0.000000 -0.000000
v 103.250000 45.416668 -0.000000
vt 0.250000 0.167295
vn -1.000000 0.000000 -0.000000
v 103.250000 52.083332 -0.000000
vt 0.250000 0.219375
vn -1.000000 0.000000 -0.000000
v 103.250000 53.250000 -0.000000
vt 0.250000 0.228489
vn -0.707107 0.707107 -0.000000
v 103.250000 53.250000 3.500000
vt 0.222658 0.228489
vn -0.577350 0.577350 0.577350
v 103.250000 44.250000 3.500000
vt 0.222658 0.158181
vn -0.577350 -0.577350 0.577350
v 103.250000 44.250000 -0.000000
vt 0.250000 0.158181
vn -0.707107 -0.707107 -0.000000
v 103.250000 53.250000 3.500000
vt 0.912058 0.222658
vn -0.577350 0.577350 0.577350
v 103.250000 53.250000 -0.000000
vt 0.912058 0.250000
vn -0.707107 0.707107 -0.000000
v 103.916664 53.250000 -0.000000
vt 0.917266 0.250000
vn 0.000000 1.000000 -0.000000
v 103.916664 53.250000 2.833333
vt 0.917266 0.227866
vn 0.000000 1.000000 -0.000000
v 105.250000 53.250000 3.500000
vt 0.927682 0.222658
vn 0.577350 0.577350 0.577350
v 104.583336 53.250000 2.833333
vt 0.922474 0.227866
vn 0.000000 1.000000 -0.000000
v 105.250000 53.250000 -0.000000
vt 0.927682 0.250000
vn 0.707107 0.707107 -0.000000
v 104.583336 53.250000 -0.000000
vt 0.922474 0.250000
vn 0.000000 1.000000 -0.000000
v 103.250000 53.250000 3.500000
vt 0.912058 0.228489
vn -0.577350 0.577350 0.577350
v 105.250000 53.250000 3.500000
vt 0.927682 0.228489
vn 0.577350 0.577350 0.577350
v 104.583336 52.583332 3.500000
vt 0.922474 0.223281
vn 0.000000 0.000000 1.000000
v 103.916664 52.583332 3.500000
vt 0.917266 0.223281
vn 0.000000 0.000000 1.000000
v 103.250000 44.250000 3.500000
vt 0.912058 0.158181
vn -0.577350 -0.577350 0.577350
v 103.916664 44.916668 3.500000
vt 0.917266 0.163389
vn 0.000000 0.000000 1.000000
v 105.250000 44.250000 3.500000
vt 0.927682 0.158181
vn 0.577350 -0.577350 0.577350
v 104.583336 44.916668 3.500000
vt 0.922474 0.163389
vn 0.000000 0.000000 1.000000
v 105.250000 53.250000 3.500000
vt 0.222658 0.228489
vn 0.577350 0.577350 0.577350
v 105.250000 53.250000 -0.000000
vt 0.250000 0.228489
vn 0.707107 0.707107 -0.000000
v 105.250000 52.083332 -0.000000
vt 0.250000 0.219375
vn 1.000000 0.000000 -0.000000
v 105.250000 52.083332 2.333333
vt 0.231772 0.219375
vn 1.000000 0.000000 -0.000000
v 105.250000 44.250000 3.500000
vt 0.222658 0.158181
vn 0.577350 -0.577350 0.577350
v 105.250000 45.416668 2.333333
vt 0.231772 0.167295
vn 1.000000 0.000000 -0.000000
v 105.250000 44.250000 -0.000000
vt 0.250000 0.158181
vn 0.707107 -0.707107 -0.000000
v 105.250000 45.416668 -0.000000
vt 0.250000 0.167295
vn 1.000000 0.000000 -0.000000
v 105.250000 44.250000 3.500000
vt 0.927682 0.222658
vn 0.577350 -0.577350 0.577350
v 105.250000 44.250000 -0.000000
vt 0.927682 0.250000
vn 0.707107 -0.707107 -0.000000
v 104.583336 44.250000 -0.000000
vt 0.922474 0.250000
vn 0.000000 -1.000000 -0.000000
v 104.583336 44.250000 2.833333
vt 0.922474 0.227866
vn 0.000000 -1.000000 -0.000000
v 103.250000 44.250000 3.500000
vt 0.912058 0.222658
vn -0.577350 -0.577350 0.577350
v 103.916664 44.250000 2.833333
vt 0.917266 0.227866
vn 0.000000 -1.000000 -0.000000
v 103.250000 44.250000 -0.000000
vt 0.912058 0.250000
vn -0.707107 -0.707107 -0.000000
v 103.916664 44.250000 -0.000000
vt 0.917266 0.250000
vn 0.000000 -1.000000 -0.000000
f 316/316/316 318/318/318 317/317/317
f 316/316/316 319/319/319 318/318/318
f 320/320/320 316/316/316 321/321/321
f 320/320/320 319/319/319 316/316/316
f 322/322/322 318/318/318 323/323/323
f 322/322/322 317/317/317 318/318/318
f 321/321/321 317/317/317 322/322/322
f 321/321/321 316/316/316 317/317/317
f 334/334/334 337/337/337 339/339/339
f 334/334/334 335/335/335 337/337/337
f 332/332/332 334/334/334 333/333/333
f 332/332/332 335/335/335 334/334/334
f 338/338/338 337/337/337 336/336/336
f 338/338/338 339/339/339 337/337/337
f 333/333/333 339/339/339 338/338/338
f 333/333/333 334/334/334 339/339/339
f 336/336/336 335/335/335 332/332/332
f 336/336/336 337/337/337 335/335/335
f 355/355/355 351/351/351 353/353/353
f 355/355/355 350/350/350 351/351/351
f 352/352/352 351/351/351 348/348/348
f 352/352/352 353/353/353 351/351/351
f 348/348/348 350/350/350 349/349/349
f 348/348/348 351/351/351 350/350/350
f 354/354/354 353/353/353 352/352/352
f 354/354/354 355/355/355 353/353/353
f 327/327/327 331/331/331 326/326/326
f 327/327/327 329/329/329 331/331/331
f 328/328/328 327/327/327 324/324/324
f 328/328/328 329/329/329 327/327/327
f 330/330/330 329/329/329 328/328/328
f 330/330/330 331/331/331 329/329/329
f 324/324/324 326/326/326 325/325/325
f 324/324/324 327/327/327 326/326/326
f 342/342/342 345/345/345 347/347/347
f 342/342/342 343/343/343 345/345/345
f 340/340/340 342/342/342 341/341/341
f 340/340/340 343/343/343 342/342/342
f 346/346/346 345/345/345 344/344/344
f 346/346/346 347/347/347 345/345/345
f 344/344/344 343/343/343 340/340/340
f 344/344/344 345/345/345 343/343/343
