# Exported by Gskelview
mtllib metalplaques_2.mtl

v 62.3295 -31.5352 62.5201
v 61.8496 -32.0152 62.5276
v 59.8646 -32.0152 -64.5126
v 62.3295 -31.5352 62.5201
v 59.8646 -32.0152 -64.5126
v 60.3445 -31.5352 -64.5201
v 61.8571 -31.5352 63.0075
v 62.3295 -31.5352 62.5201
v 62.3295 -24.4952 62.5201
v 61.8571 -24.4952 63.0075
v 61.8496 -32.0152 62.5276
v 61.8571 -31.5352 63.0075
v -65.1831 -31.5352 64.9925
v -65.1906 -32.0152 64.5126
v 61.8496 -24.0152 62.5276
v 62.3295 -24.4952 62.5201
v 60.3445 -24.4952 -64.5201
v 59.8646 -24.0152 -64.5126
v 61.8571 -24.4952 63.0075
v 61.8496 -24.0152 62.5276
v -65.1906 -24.0152 64.5126
v -65.1831 -24.4952 64.9925
v -65.1906 -32.0152 64.5126
v -65.6705 -31.5352 64.5201
v -67.6555 -31.5352 -62.5201
v -67.1756 -32.0152 -62.5276
v -65.6705 -31.5352 64.5201
v -65.1831 -31.5352 64.9925
v -65.1831 -24.4952 64.9925
v -65.6705 -24.4952 64.5201
v -65.6705 -24.4952 64.5201
v -65.1906 -24.0152 64.5126
v -67.1756 -24.0152 -62.5276
v -67.6555 -24.4952 -62.5201
v 59.8571 -31.5352 -64.9925
v 59.8646 -32.0152 -64.5126
v -67.1756 -32.0152 -62.5276
v -67.1831 -31.5352 -63.0075
v 60.3445 -31.5352 -64.5201
v 59.8571 -31.5352 -64.9925
v 59.8571 -24.4952 -64.9925
v 60.3445 -24.4952 -64.5201
v 59.8646 -24.0152 -64.5126
v 59.8571 -24.4952 -64.9925
v -67.1831 -24.4952 -63.0075
v -67.1756 -24.0152 -62.5276
v -67.1831 -31.5352 -63.0075
v -67.6555 -31.5352 -62.5201
v -67.6555 -24.4952 -62.5201
v -67.1831 -24.4952 -63.0075
v -65.1831 -31.5352 64.9925
v 61.8571 -31.5352 63.0075
v 61.8571 -24.4952 63.0075
v -65.1831 -24.4952 64.9925
v 62.3295 -24.4952 62.5201
v 62.3295 -31.5352 62.5201
v 60.3445 -31.5352 -64.5201
v 60.3445 -24.4952 -64.5201
v 59.8571 -24.4952 -64.9925
v 59.8571 -31.5352 -64.9925
v -67.1831 -31.5352 -63.0075
v -67.1831 -24.4952 -63.0075
v -67.6555 -31.5352 -62.5201
v -65.6705 -31.5352 64.5201
v -65.6705 -24.4952 64.5201
v -67.6555 -24.4952 -62.5201
v 61.8496 -24.0152 62.5276
v 59.8646 -24.0152 -64.5126
v -67.1756 -24.0152 -62.5276
v -65.1906 -24.0152 64.5126
v -67.1756 -32.0152 -62.5276
v 59.8646 -32.0152 -64.5126
v 61.8496 -32.0152 62.5276
v -65.1906 -32.0152 64.5126
v 62.3295 -31.5352 62.5201
v 61.8571 -31.5352 63.0075
v 61.8496 -32.0152 62.5276
v 61.8496 -24.0152 62.5276
v 61.8571 -24.4952 63.0075
v 62.3295 -24.4952 62.5201
v -65.1906 -32.0152 64.5126
v -65.1831 -31.5352 64.9925
v -65.6705 -31.5352 64.5201
v -65.6705 -24.4952 64.5201
v -65.1831 -24.4952 64.9925
v -65.1906 -24.0152 64.5126
v 59.8571 -31.5352 -64.9925
v 60.3445 -31.5352 -64.5201
v 59.8646 -32.0152 -64.5126
v 59.8646 -24.0152 -64.5126
v 60.3445 -24.4952 -64.5201
v 59.8571 -24.4952 -64.9925
v -67.6555 -31.5352 -62.5201
v -67.1831 -31.5352 -63.0075
v -67.1756 -32.0152 -62.5276
v -67.1756 -24.0152 -62.5276
v -67.1831 -24.4952 -63.0075
v -67.6555 -24.4952 -62.5201
v 57.9371 -8.41519 55.0062
v 57.9308 -8.01519 54.6063
v -69.2693 -8.01519 56.5938
v 57.9371 -8.41519 55.0062
v -69.2693 -8.01519 56.5938
v -69.2631 -8.41519 56.9938
v 58.3308 -8.41519 54.6001
v 57.9371 -8.41519 55.0062
v 57.9371 -15.6152 55.0062
v 58.3308 -15.6152 54.6001
v 57.9308 -8.01519 54.6063
v 58.3308 -8.41519 54.6001
v 56.3432 -8.41519 -72.6001
v 55.9433 -8.01519 -72.5938
v 57.9308 -16.0152 54.6063
v 57.9371 -15.6152 55.0062
v -69.2631 -15.6152 56.9938
v -69.2693 -16.0152 56.5938
v 58.3308 -15.6152 54.6001
v 57.9308 -16.0152 54.6063
v 55.9433 -16.0152 -72.5938
v 56.3432 -15.6152 -72.6001
v 55.9371 -15.6152 -72.9938
v 55.9433 -16.0152 -72.5938
v -71.2568 -16.0152 -70.6063
v -71.2631 -15.6152 -71.0062
v 56.3432 -15.6152 -72.6001
v 55.9371 -15.6152 -72.9938
v 55.9371 -8.41519 -72.9938
v 56.3432 -8.41519 -72.6001
v 55.9433 -8.01519 -72.5938
v 55.9371 -8.41519 -72.9938
v -71.2631 -8.41519 -71.0062
v -71.2568 -8.01519 -70.6063
v -71.2568 -8.01519 -70.6063
v -71.6568 -8.41519 -70.6001
v -69.6692 -8.41519 56.6001
v -69.2693 -8.01519 56.5938
v -71.6568 -8.41519 -70.6001
v -71.2631 -8.41519 -71.0062
v -71.2631 -15.6152 -71.0062
v -71.6568 -15.6152 -70.6001
v -71.6568 -15.6152 -70.6001
v -71.2568 -16.0152 -70.6063
v -69.2693 -16.0152 56.5938
v -69.6692 -15.6152 56.6001
v -69.2631 -8.41519 56.9938
v -69.6692 -8.41519 56.6001
v -69.6692 -15.6152 56.6001
v -69.2631 -15.6152 56.9938
v 58.3308 -8.41519 54.6001
v 58.3308 -15.6152 54.6001
v 56.3432 -15.6152 -72.6001
v 56.3432 -8.41519 -72.6001
v -71.2631 -15.6152 -71.0062
v -71.2631 -8.41519 -71.0062
v 55.9371 -8.41519 -72.9938
v 55.9371 -15.6152 -72.9938
v -69.6692 -8.41519 56.6001
v -71.6568 -8.41519 -70.6001
v -71.6568 -15.6152 -70.6001
v -69.6692 -15.6152 56.6001
v 57.9371 -8.41519 55.0062
v -69.2631 -8.41519 56.9938
v -69.2631 -15.6152 56.9938
v 57.9371 -15.6152 55.0062
v 57.9308 -8.01519 54.6063
v 55.9433 -8.01519 -72.5938
v -71.2568 -8.01519 -70.6063
v -69.2693 -8.01519 56.5938
v -71.2568 -16.0152 -70.6063
v 55.9433 -16.0152 -72.5938
v 57.9308 -16.0152 54.6063
v -69.2693 -16.0152 56.5938
v 57.9371 -8.41519 55.0062
v 58.3308 -8.41519 54.6001
v 57.9308 -8.01519 54.6063
v 57.9308 -16.0152 54.6063
v 58.3308 -15.6152 54.6001
v 57.9371 -15.6152 55.0062
v 55.9371 -15.6152 -72.9938
v 56.3432 -15.6152 -72.6001
v 55.9433 -16.0152 -72.5938
v 55.9433 -8.01519 -72.5938
v 56.3432 -8.41519 -72.6001
v 55.9371 -8.41519 -72.9938
v -71.2568 -8.01519 -70.6063
v -71.2631 -8.41519 -71.0062
v -71.6568 -8.41519 -70.6001
v -71.6568 -15.6152 -70.6001
v -71.2631 -15.6152 -71.0062
v -71.2568 -16.0152 -70.6063
v -69.2693 -8.01519 56.5938
v -69.6692 -8.41519 56.6001
v -69.2631 -8.41519 56.9938
v -69.2631 -15.6152 56.9938
v -69.6692 -15.6152 56.6001
v -69.2693 -16.0152 56.5938
v 53.8571 -32.4952 59.0075
v 53.8496 -32.0152 58.5276
v -73.1906 -32.0152 60.5126
v 53.8571 -32.4952 59.0075
v -73.1906 -32.0152 60.5126
v -73.1831 -32.4952 60.9925
v 54.3295 -32.4952 58.5201
v 53.8571 -32.4952 59.0075
v 53.8571 -39.5352 59.0075
v 54.3295 -39.5352 58.5201
v 53.8496 -32.0152 58.5276
v 54.3295 -32.4952 58.5201
v 52.3445 -32.4952 -68.5201
v 51.8646 -32.0152 -68.5126
v 53.8496 -40.0152 58.5276
v 53.8571 -39.5352 59.0075
v -73.1831 -39.5352 60.9925
v -73.1906 -40.0152 60.5126
v 54.3295 -39.5352 58.5201
v 53.8496 -40.0152 58.5276
v 51.8646 -40.0152 -68.5126
v 52.3445 -39.5352 -68.5201
v 51.8571 -39.5352 -68.9925
v 51.8646 -40.0152 -68.5126
v -75.1756 -40.0152 -66.5276
v -75.1831 -39.5352 -67.0075
v 52.3445 -39.5352 -68.5201
v 51.8571 -39.5352 -68.9925
v 51.8571 -32.4952 -68.9925
v 52.3445 -32.4952 -68.5201
v 51.8646 -32.0152 -68.5126
v 51.8571 -32.4952 -68.9925
v -75.1831 -32.4952 -67.0075
v -75.1756 -32.0152 -66.5276
v -73.1906 -40.0152 60.5126
v -73.6705 -39.5352 60.5201
v -75.6555 -39.5352 -66.5201
v -75.1756 -40.0152 -66.5276
v -73.6705 -39.5352 60.5201
v -73.1831 -39.5352 60.9925
v -73.1831 -32.4952 60.9925
v -73.6705 -32.4952 60.5201
v -73.6705 -32.4952 60.5201
v -73.1906 -32.0152 60.5126
v -75.1756 -32.0152 -66.5276
v -75.6555 -32.4952 -66.5201
v -75.6555 -32.4952 -66.5201
v -75.1831 -32.4952 -67.0075
v -75.1831 -39.5352 -67.0075
v -75.6555 -39.5352 -66.5201
v 54.3295 -32.4952 58.5201
v 54.3295 -39.5352 58.5201
v 52.3445 -39.5352 -68.5201
v 52.3445 -32.4952 -68.5201
v -73.1831 -39.5352 60.9925
v 53.8571 -39.5352 59.0075
v 53.8571 -32.4952 59.0075
v -73.1831 -32.4952 60.9925
v -75.1831 -39.5352 -67.0075
v -75.1831 -32.4952 -67.0075
v 51.8571 -32.4952 -68.9925
v 51.8571 -39.5352 -68.9925
v -75.6555 -39.5352 -66.5201
v -73.6705 -39.5352 60.5201
v -73.6705 -32.4952 60.5201
v -75.6555 -32.4952 -66.5201
v 53.8496 -32.0152 58.5276
v 51.8646 -32.0152 -68.5126
v -75.1756 -32.0152 -66.5276
v -73.1906 -32.0152 60.5126
v -75.1756 -40.0152 -66.5276
v 51.8646 -40.0152 -68.5126
v 53.8496 -40.0152 58.5276
v -73.1906 -40.0152 60.5126
v 53.8571 -32.4952 59.0075
v 54.3295 -32.4952 58.5201
v 53.8496 -32.0152 58.5276
v 53.8496 -40.0152 58.5276
v 54.3295 -39.5352 58.5201
v 53.8571 -39.5352 59.0075
v 51.8571 -39.5352 -68.9925
v 52.3445 -39.5352 -68.5201
v 51.8646 -40.0152 -68.5126
v 51.8646 -32.0152 -68.5126
v 52.3445 -32.4952 -68.5201
v 51.8571 -32.4952 -68.9925
v -73.1906 -40.0152 60.5126
v -73.1831 -39.5352 60.9925
v -73.6705 -39.5352 60.5201
v -73.6705 -32.4952 60.5201
v -73.1831 -32.4952 60.9925
v -73.1906 -32.0152 60.5126
v -75.1756 -32.0152 -66.5276
v -75.1831 -32.4952 -67.0075
v -75.6555 -32.4952 -66.5201
v -75.6555 -39.5352 -66.5201
v -75.1831 -39.5352 -67.0075
v -75.1756 -40.0152 -66.5276
v -67.206 -16.0152 -62.4981
v -67.6855 -16.4952 -62.5206
v -73.6405 -16.4952 64.5206
v -67.206 -16.0152 -62.4981
v -73.6405 -16.4952 64.5206
v -73.1611 -16.0152 64.543
v -67.1836 -16.4952 -62.9775
v -67.206 -16.0152 -62.4981
v 59.8351 -16.0152 -56.543
v 59.8576 -16.4952 -57.0225
v -67.6855 -16.4952 -62.5206
v -67.1836 -16.4952 -62.9775
v -67.1836 -23.5352 -62.9775
v -67.6855 -23.5352 -62.5206
v 60.3145 -16.4952 -56.5206
v 59.8351 -16.0152 -56.543
v 53.88 -16.0152 70.4981
v 54.3595 -16.4952 70.5206
v 59.8576 -16.4952 -57.0225
v 60.3145 -16.4952 -56.5206
v 60.3145 -23.5352 -56.5206
v 59.8576 -23.5352 -57.0225
v -67.6855 -23.5352 -62.5206
v -67.206 -24.0152 -62.4981
v -73.1611 -24.0152 64.543
v -73.6405 -23.5352 64.5206
v -67.206 -24.0152 -62.4981
v -67.1836 -23.5352 -62.9775
v 59.8576 -23.5352 -57.0225
v 59.8351 -24.0152 -56.543
v 59.8351 -24.0152 -56.543
v 60.3145 -23.5352 -56.5206
v 54.3595 -23.5352 70.5206
v 53.88 -24.0152 70.4981
v -73.1611 -16.0152 64.543
v -73.1836 -16.4952 65.0225
v 53.8576 -16.4952 70.9775
v 53.88 -16.0152 70.4981
v -73.1836 -16.4952 65.0225
v -73.6405 -16.4952 64.5206
v -73.6405 -23.5352 64.5206
v -73.1836 -23.5352 65.0225
v -73.1836 -23.5352 65.0225
v -73.1611 -24.0152 64.543
v 53.88 -24.0152 70.4981
v 53.8576 -23.5352 70.9775
v 54.3595 -16.4952 70.5206
v 53.8576 -16.4952 70.9775
v 53.8576 -23.5352 70.9775
v 54.3595 -23.5352 70.5206
v -67.1836 -23.5352 -62.9775
v -67.1836 -16.4952 -62.9775
v 59.8576 -16.4952 -57.0225
v 59.8576 -23.5352 -57.0225
v -73.6405 -23.5352 64.5206
v -73.6405 -16.4952 64.5206
v -67.6855 -16.4952 -62.5206
v -67.6855 -23.5352 -62.5206
v 53.8576 -16.4952 70.9775
v -73.1836 -16.4952 65.0225
v -73.1836 -23.5352 65.0225
v 53.8576 -23.5352 70.9775
v 60.3145 -16.4952 -56.5206
v 54.3595 -16.4952 70.5206
v 54.3595 -23.5352 70.5206
v 60.3145 -23.5352 -56.5206
v 59.8351 -16.0152 -56.543
v -67.206 -16.0152 -62.4981
v -73.1611 -16.0152 64.543
v 53.88 -16.0152 70.4981
v -73.1611 -24.0152 64.543
v -67.206 -24.0152 -62.4981
v 59.8351 -24.0152 -56.543
v 53.88 -24.0152 70.4981
v -67.206 -16.0152 -62.4981
v -67.1836 -16.4952 -62.9775
v -67.6855 -16.4952 -62.5206
v 60.3145 -16.4952 -56.5206
v 59.8576 -16.4952 -57.0225
v 59.8351 -16.0152 -56.543
v -67.6855 -23.5352 -62.5206
v -67.1836 -23.5352 -62.9775
v -67.206 -24.0152 -62.4981
v 59.8351 -24.0152 -56.543
v 59.8576 -23.5352 -57.0225
v 60.3145 -23.5352 -56.5206
v -73.1611 -16.0152 64.543
v -73.6405 -16.4952 64.5206
v -73.1836 -16.4952 65.0225
v -73.1836 -23.5352 65.0225
v -73.6405 -23.5352 64.5206
v -73.1611 -24.0152 64.543
v 53.88 -16.0152 70.4981
v 53.8576 -16.4952 70.9775
v 54.3595 -16.4952 70.5206
v 54.3595 -23.5352 70.5206
v 53.8576 -23.5352 70.9775
v 53.88 -24.0152 70.4981
v 66.3308 -0.415189 58.6001
v 65.9371 -0.415189 59.0062
v 65.9371 -7.61519 59.0062
v 66.3308 -0.415189 58.6001
v 65.9371 -7.61519 59.0062
v 66.3308 -7.61519 58.6001
v 65.9308 -0.015187 58.6063
v 66.3308 -0.415189 58.6001
v 64.3432 -0.415189 -68.6001
v 63.9433 -0.015187 -68.5938
v 65.9371 -0.415189 59.0062
v 65.9308 -0.015187 58.6063
v -61.2693 -0.015187 60.5938
v -61.2631 -0.415189 60.9938
v 63.9371 -0.415189 -68.9938
v 64.3432 -0.415189 -68.6001
v 64.3432 -7.61519 -68.6001
v 63.9371 -7.61519 -68.9938
v 63.9433 -0.015187 -68.5938
v 63.9371 -0.415189 -68.9938
v -63.2631 -0.415189 -67.0062
v -63.2568 -0.015187 -66.6063
v -63.6568 -0.415189 -66.6001
v -63.2631 -0.415189 -67.0062
v -63.2631 -7.61519 -67.0062
v -63.6568 -7.61519 -66.6001
v -63.2568 -0.015187 -66.6063
v -63.6568 -0.415189 -66.6001
v -61.6692 -0.415189 60.6001
v -61.2693 -0.015187 60.5938
v -61.2631 -0.415189 60.9938
v -61.6692 -0.415189 60.6001
v -61.6692 -7.61519 60.6001
v -61.2631 -7.61519 60.9938
v 63.9371 -7.61519 -68.9938
v 63.9433 -8.01519 -68.5938
v -63.2568 -8.01519 -66.6063
v -63.2631 -7.61519 -67.0062
v 63.9433 -8.01519 -68.5938
v 64.3432 -7.61519 -68.6001
v 66.3308 -7.61519 58.6001
v 65.9308 -8.01519 58.6063
v 65.9308 -8.01519 58.6063
v 65.9371 -7.61519 59.0062
v -61.2631 -7.61519 60.9938
v -61.2693 -8.01519 60.5938
v -61.2693 -8.01519 60.5938
v -61.6692 -7.61519 60.6001
v -63.6568 -7.61519 -66.6001
v -63.2568 -8.01519 -66.6063
v 65.9308 -0.015187 58.6063
v 63.9433 -0.015187 -68.5938
v -63.2568 -0.015187 -66.6063
v -61.2693 -0.015187 60.5938
v 64.3432 -7.61519 -68.6001
v 64.3432 -0.415189 -68.6001
v 66.3308 -0.415189 58.6001
v 66.3308 -7.61519 58.6001
v 65.9371 -0.415189 59.0062
v -61.2631 -0.415189 60.9938
v -61.2631 -7.61519 60.9938
v 65.9371 -7.61519 59.0062
v -63.2631 -7.61519 -67.0062
v -63.2631 -0.415189 -67.0062
v 63.9371 -0.415189 -68.9938
v 63.9371 -7.61519 -68.9938
v -61.6692 -0.415189 60.6001
v -63.6568 -0.415189 -66.6001
v -63.6568 -7.61519 -66.6001
v -61.6692 -7.61519 60.6001
v -63.2568 -8.01519 -66.6063
v 63.9433 -8.01519 -68.5938
v 65.9308 -8.01519 58.6063
v -61.2693 -8.01519 60.5938
v 66.3308 -0.415189 58.6001
v 65.9308 -0.015187 58.6063
v 65.9371 -0.415189 59.0062
v 63.9371 -0.415189 -68.9938
v 63.9433 -0.015187 -68.5938
v 64.3432 -0.415189 -68.6001
v -63.6568 -0.415189 -66.6001
v -63.2568 -0.015187 -66.6063
v -63.2631 -0.415189 -67.0062
v -61.2631 -0.415189 60.9938
v -61.2693 -0.015187 60.5938
v -61.6692 -0.415189 60.6001
v 63.9371 -7.61519 -68.9938
v 64.3432 -7.61519 -68.6001
v 63.9433 -8.01519 -68.5938
v 65.9308 -8.01519 58.6063
v 66.3308 -7.61519 58.6001
v 65.9371 -7.61519 59.0062
v -61.2693 -8.01519 60.5938
v -61.2631 -7.61519 60.9938
v -61.6692 -7.61519 60.6001
v -63.6568 -7.61519 -66.6001
v -63.2631 -7.61519 -67.0062
v -63.2568 -8.01519 -66.6063
v -70.6618 -40.0163 -56.0001
v -70.6618 -40.0152 -55.9989
v 57.3359 -40.0152 -63.9988
v -70.6618 -40.0163 -56.0001
v 57.3359 -40.0152 -63.9988
v 57.3358 -40.0163 -63.9999
v -70.6629 -40.0163 -55.9988
v -70.6618 -40.0163 -56.0001
v -70.6618 -48.014 -56.0001
v -70.6629 -48.014 -55.9988
v -70.6618 -40.0152 -55.9989
v -70.6629 -40.0163 -55.9988
v -62.6631 -40.0163 71.9988
v -62.6619 -40.0152 71.9988
v -70.6618 -48.0152 -55.9989
v -70.6618 -48.014 -56.0001
v 57.3358 -48.014 -63.9999
v -70.6618 -48.0152 -55.9989
v 57.3358 -48.014 -63.9999
v 57.3359 -48.0152 -63.9988
v -70.1822 -48.0152 -48.5008
v -70.6618 -48.0152 -55.9989
v -63.6622 -48.0152 52.9992
v -70.1822 -48.0152 -48.5008
v -63.6622 -48.0152 52.9992
v -63.6638 -48.0152 53.0001
v -70.6629 -48.014 -55.9988
v -70.1822 -48.0152 -48.5008
v -62.7326 -48.0152 67.8993
v -70.6629 -48.014 -55.9988
v -62.7326 -48.0152 67.8993
v -62.663 -48.014 69
v -62.663 -48.014 69
v -62.6642 -48.0152 69
v -62.6638 -48.0152 71.9687
v -62.663 -48.014 71.9988
v -62.6642 -48.0152 69
v -62.7326 -48.0152 67.8993
v -63.6638 -48.0152 53.0001
v -63.6638 -48.0152 53.0001
v -63.6534 -48.0152 53.1673
v -63.6621 -48.0152 53.0009
v -63.6622 -48.0152 52.9992
v 65.3358 -48.0152 63.9987
v 65.3258 -48.0152 63.9999
v -63.6534 -48.0152 53.1673
v -63.6621 -48.0152 53.0009
v -62.6619 -48.0152 71.9988
v -63.6534 -48.0152 53.1673
v -62.6619 -48.0152 71.9988
v -62.6638 -48.0152 71.9687
v -62.6618 -48.014 71.9999
v -62.6619 -48.0152 71.9988
v 65.3258 -48.0152 63.9999
v 65.3358 -48.014 64.0001
v -62.663 -48.014 71.9988
v -62.6618 -48.014 71.9999
v -62.6618 -40.0163 71.9999
v -62.6631 -40.0163 71.9988
v -62.6619 -40.0152 71.9988
v -62.6618 -40.0163 71.9999
v 65.3358 -40.0163 64.0001
v 65.3358 -40.0152 63.9989
v 65.3369 -48.014 63.9988
v 65.3358 -48.0152 63.9987
v 57.3359 -48.0152 -63.9988
v 57.3371 -48.014 -63.9988
v 65.3358 -48.014 64.0001
v 65.3369 -48.014 63.9988
v 65.3369 -40.0163 63.9988
v 65.3358 -40.0163 64.0001
v 65.3358 -40.0152 63.9989
v 65.3369 -40.0163 63.9988
v 57.3371 -40.0163 -63.9988
v 65.3358 -40.0152 63.9989
v 57.3371 -40.0163 -63.9988
v 57.3359 -40.0152 -63.9988
v 57.3358 -40.0163 -63.9999
v 57.3371 -40.0163 -63.9988
v 57.3371 -48.014 -63.9988
v 57.3358 -48.014 -63.9999
v -62.663 -48.014 71.9988
v -62.6631 -40.0163 71.9988
v -70.6629 -40.0163 -55.9988
v -70.6629 -48.014 -55.9988
v -62.663 -48.014 69
v -63.6638 -48.0152 53.0001
v -62.7326 -48.0152 67.8993
v -70.1822 -48.0152 -48.5008
v -62.6618 -48.014 71.9999
v 65.3358 -48.014 64.0001
v 65.3358 -40.0163 64.0001
v -62.6618 -40.0163 71.9999
v 57.3371 -48.014 -63.9988
v 57.3371 -40.0163 -63.9988
v 65.3369 -40.0163 63.9988
v 65.3369 -48.014 63.9988
v 57.3358 -40.0163 -63.9999
v 57.3358 -48.014 -63.9999
v -70.6618 -48.014 -56.0001
v -70.6618 -40.0163 -56.0001
v 65.3358 -40.0152 63.9989
v 57.3359 -40.0152 -63.9988
v -70.6618 -40.0152 -55.9989
v -62.6619 -40.0152 71.9988
v -62.6638 -48.0152 71.9687
v -62.6642 -48.0152 69
v -63.6534 -48.0152 53.1673
v -70.6618 -48.0152 -55.9989
v 57.3359 -48.0152 -63.9988
v -70.6618 -40.0163 -56.0001
v -70.6629 -40.0163 -55.9988
v -70.6618 -40.0152 -55.9989
v -70.6618 -48.0152 -55.9989
v -70.6618 -48.014 -56.0001
v -62.7326 -48.0152 67.8993
v -63.6621 -48.0152 53.0009
v -63.6534 -48.0152 53.1673
v -63.6638 -48.0152 53.0001
v -63.6621 -48.0152 53.0009
v -63.6638 -48.0152 53.0001
v -63.6622 -48.0152 52.9992
v -62.6619 -48.0152 71.9988
v -62.6618 -48.014 71.9999
v -62.663 -48.014 71.9988
v -62.6638 -48.0152 71.9687
v -62.6619 -40.0152 71.9988
v -62.6631 -40.0163 71.9988
v -62.6618 -40.0163 71.9999
v 65.3358 -48.0152 63.9987
v 65.3369 -48.014 63.9988
v 65.3358 -40.0152 63.9989
v 65.3358 -40.0163 64.0001
v 65.3369 -40.0163 63.9988
v 57.3359 -40.0152 -63.9988
v 57.3371 -40.0163 -63.9988
v 57.3358 -40.0163 -63.9999
v 57.3358 -48.014 -63.9999
v 57.3371 -48.014 -63.9988
v 57.3359 -48.0152 -63.9988
vt 1.57595 1.02064
vt 1.56477 1.02057
vt 1.55862 3.29164
vt 1.57595 1.02064
vt 1.55862 3.29164
vt 1.56979 3.29167
vt 1.57602 0.993733
vt 1.57604 0.985155
vt 1.73986 0.985598
vt 1.73983 0.994177
vt 1.56485 0.993702
vt 1.57602 0.993733
vt 1.56986 3.26481
vt 1.55869 3.26478
vt 1.75093 1.02108
vt 1.73976 1.02109
vt 1.7336 3.29212
vt 1.74477 3.29215
vt 1.73983 0.994177
vt 1.751 0.994207
vt 1.74485 3.26528
vt 1.73368 3.26525
vt 1.56487 0.984814
vt 1.57604 0.984845
vt 1.56988 3.25592
vt 1.55871 3.25589
vt 1.56984 3.27339
vt 1.56986 3.26481
vt 1.73368 3.26525
vt 1.73365 3.27383
vt 1.73986 0.985289
vt 1.75103 0.985319
vt 1.74487 3.25639
vt 1.7337 3.25636
vt 1.57592 1.0295
vt 1.56475 1.02946
vt 1.55859 3.30053
vt 1.56976 3.30056
vt 1.56979 3.29167
vt 1.56976 3.30025
vt 1.73358 3.30069
vt 1.7336 3.29212
vt 1.75091 1.02997
vt 1.73974 1.02994
vt 1.73358 3.301
vt 1.74475 3.30103
vt 1.56976 3.30056
vt 1.56974 3.30914
vt 1.73356 3.30958
vt 1.73358 3.301
vt 1.56986 3.26481
vt 1.57602 0.993733
vt 1.73983 0.994177
vt 1.73368 3.26525
vt 1.73976 1.02109
vt 1.57595 1.02064
vt 1.56979 3.29167
vt 1.7336 3.29212
vt 1.73974 1.02994
vt 1.57592 1.0295
vt 1.56976 3.30056
vt 1.73358 3.301
vt 1.56988 3.25592
vt 1.57604 0.984845
vt 1.73986 0.985289
vt 1.7337 3.25636
vt 1.49851 1.49388
vt 0.020275 1.48446
vt 0.02969 0.00622898
vt 1.50792 0.015644
vt 0.02969 0.00622898
vt 0.020275 1.48446
vt 1.49851 1.49388
vt 1.50792 0.015644
vt 1.57604 0.985155
vt 1.57602 0.993733
vt 1.56485 0.993702
vt 1.751 0.994207
vt 1.73983 0.994177
vt 1.73986 0.985598
vt 1.55869 3.26478
vt 1.56986 3.26481
vt 1.56984 3.27339
vt 1.73365 3.27383
vt 1.73368 3.26525
vt 1.74485 3.26528
vt 1.56976 3.30025
vt 1.56979 3.29167
vt 1.55862 3.29164
vt 1.74477 3.29215
vt 1.7336 3.29212
vt 1.73358 3.30069
vt 1.56974 3.30914
vt 1.56976 3.30056
vt 1.55859 3.30053
vt 1.74475 3.30103
vt 1.73358 3.301
vt 1.73356 3.30958
vt 1.7279 3.66069
vt 1.73677 3.66071
vt 1.74265 1.49253
vt 1.7279 3.66069
vt 1.74265 1.49253
vt 1.73378 1.49251
vt 1.73302 1.77338
vt 1.73303 1.76658
vt 1.57328 1.76615
vt 1.57326 1.77294
vt 1.74189 1.7734
vt 1.73302 1.77338
vt 1.72714 3.94158
vt 1.73601 3.9416
vt 1.55928 3.66023
vt 1.56815 3.66025
vt 1.57403 1.49208
vt 1.56516 1.49205
vt 1.57326 1.77294
vt 1.56439 1.77294
vt 1.55852 3.94112
vt 1.56739 3.94114
vt 1.56824 3.62616
vt 1.55937 3.62614
vt 1.56525 1.45794
vt 1.57412 1.45796
vt 1.56739 3.94114
vt 1.56737 3.94796
vt 1.72712 3.94839
vt 1.72714 3.94158
vt 1.73687 3.62662
vt 1.72799 3.6266
vt 1.73388 1.4584
vt 1.74274 1.45844
vt 1.73611 3.90751
vt 1.72723 3.90749
vt 1.73311 1.73931
vt 1.74198 1.73933
vt 1.73389 1.4516
vt 1.73388 1.4584
vt 1.57412 1.45796
vt 1.57414 1.45117
vt 1.56748 3.90705
vt 1.55861 3.90703
vt 1.56449 1.73885
vt 1.57336 1.73888
vt 1.73313 1.73249
vt 1.73311 1.73931
vt 1.57336 1.73888
vt 1.57338 1.73206
vt 1.73302 1.77338
vt 1.57326 1.77294
vt 1.56739 3.94114
vt 1.72714 3.94158
vt 1.57412 1.45796
vt 1.73388 1.4584
vt 1.72799 3.6266
vt 1.56824 3.62616
vt 1.73311 1.73931
vt 1.72723 3.90749
vt 1.56748 3.90705
vt 1.57336 1.73888
vt 1.7279 3.66069
vt 1.73378 1.49251
vt 1.57403 1.49208
vt 1.56815 3.66025
vt 0.027551 1.4884
vt 0.036806 0.035409
vt 1.48979 0.044663
vt 1.48054 1.49765
vt 1.50432 0.00731498
vt 0.022461 -0.002123
vt 0.013022 1.47974
vt 1.49488 1.48918
vt 1.73303 1.76658
vt 1.73302 1.77338
vt 1.74189 1.7734
vt 1.56439 1.77294
vt 1.57326 1.77294
vt 1.57328 1.76615
vt 1.56737 3.94796
vt 1.56739 3.94114
vt 1.55852 3.94112
vt 1.73601 3.9416
vt 1.72714 3.94158
vt 1.72712 3.94839
vt 1.74274 1.45844
vt 1.73388 1.4584
vt 1.73389 1.4516
vt 1.57414 1.45117
vt 1.57412 1.45796
vt 1.56525 1.45794
vt 1.74198 1.73933
vt 1.73311 1.73931
vt 1.73313 1.73249
vt 1.57338 1.73206
vt 1.57336 1.73888
vt 1.56449 1.73885
vt 1.73446 2.97596
vt 1.74563 2.97599
vt 1.75179 0.704912
vt 1.73446 2.97596
vt 1.75179 0.704912
vt 1.74062 0.704882
vt 1.7346 2.92747
vt 1.73457 2.9361
vt 1.57075 2.93565
vt 1.57078 2.92703
vt 1.74576 2.92754
vt 1.7346 2.92747
vt 1.74075 0.656448
vt 1.75192 0.656479
vt 1.55947 2.97548
vt 1.57064 2.97551
vt 1.5768 0.704438
vt 1.56563 0.704407
vt 1.57078 2.92703
vt 1.55961 2.92705
vt 1.56576 0.655974
vt 1.57693 0.656004
vt 1.57074 2.93976
vt 1.55957 2.93973
vt 1.56573 0.668702
vt 1.5769 0.668732
vt 1.57693 0.656004
vt 1.57695 0.647426
vt 1.74077 0.64787
vt 1.74075 0.656448
vt 1.74573 2.94023
vt 1.73456 2.9402
vt 1.74071 0.669176
vt 1.75188 0.669161
vt 1.55951 2.9628
vt 1.57068 2.96283
vt 1.57683 0.691755
vt 1.56567 0.691725
vt 1.57682 0.69586
vt 1.5768 0.704438
vt 1.74062 0.704882
vt 1.74064 0.696304
vt 1.7345 2.96327
vt 1.74567 2.9633
vt 1.75182 0.69223
vt 1.74065 0.692199
vt 1.74074 0.660553
vt 1.74071 0.669176
vt 1.5769 0.668732
vt 1.57692 0.660109
vt 1.7346 2.92747
vt 1.57078 2.92703
vt 1.57693 0.656004
vt 1.74075 0.656448
vt 1.5768 0.704438
vt 1.57064 2.97551
vt 1.73446 2.97596
vt 1.74062 0.704882
vt 1.5769 0.668732
vt 1.74071 0.669176
vt 1.73456 2.9402
vt 1.57074 2.93976
vt 1.57683 0.691755
vt 1.57068 2.96283
vt 1.7345 2.96327
vt 1.74065 0.692199
vt 0.029687 0.00580001
vt 1.50792 0.015215
vt 1.4985 1.49345
vt 0.020272 1.48403
vt 1.4985 1.49345
vt 1.50792 0.015215
vt 0.029687 0.00580001
vt 0.020272 1.48403
vt 1.73457 2.9361
vt 1.7346 2.92747
vt 1.74576 2.92754
vt 1.55961 2.92705
vt 1.57078 2.92703
vt 1.57075 2.93565
vt 1.57695 0.647426
vt 1.57693 0.656004
vt 1.56576 0.655974
vt 1.75192 0.656479
vt 1.74075 0.656448
vt 1.74077 0.64787
vt 1.56563 0.704407
vt 1.5768 0.704438
vt 1.57682 0.69586
vt 1.74064 0.696304
vt 1.74062 0.704882
vt 1.75179 0.704912
vt 1.75188 0.669161
vt 1.74071 0.669176
vt 1.74074 0.660553
vt 1.57692 0.660109
vt 1.5769 0.668732
vt 1.56573 0.668702
vt 1.74732 2.35258
vt 1.73615 2.35255
vt 1.74225 0.101553
vt 1.74732 2.35258
vt 1.74225 0.101553
vt 1.75342 0.101583
vt 1.73237 3.74767
vt 1.74354 3.7477
vt 1.74964 1.49671
vt 1.73847 1.49668
vt 1.73235 3.75617
vt 1.73237 3.74767
vt 1.56856 3.74723
vt 1.56853 3.75572
vt 1.73644 2.24623
vt 1.74761 2.24626
vt 1.75371 -0.00471902
vt 1.74254 -0.00474906
vt 1.73847 1.49668
vt 1.73849 1.48819
vt 1.57468 1.48775
vt 1.57465 1.49624
vt 1.57233 2.3521
vt 1.56116 2.35207
vt 1.56727 0.101079
vt 1.57843 0.101109
vt 1.55738 3.7472
vt 1.56856 3.74723
vt 1.57465 1.49624
vt 1.56349 1.49621
vt 1.56145 2.24576
vt 1.57262 2.24579
vt 1.57872 -0.005193
vt 1.56755 -0.00522304
vt 1.74325 3.85401
vt 1.73208 3.85398
vt 1.73818 1.60299
vt 1.74935 1.60302
vt 1.74228 0.093065
vt 1.74225 0.101553
vt 1.57843 0.101109
vt 1.57846 0.09262
vt 1.56826 3.85354
vt 1.5571 3.85351
vt 1.5632 1.60252
vt 1.57437 1.60255
vt 1.73821 1.5945
vt 1.73818 1.60299
vt 1.57437 1.60255
vt 1.57439 1.59406
vt 1.56856 3.74723
vt 1.73237 3.74767
vt 1.73847 1.49668
vt 1.57465 1.49624
vt 1.57843 0.101109
vt 1.74225 0.101553
vt 1.73615 2.35255
vt 1.57233 2.3521
vt 1.73818 1.60299
vt 1.73208 3.85398
vt 1.56826 3.85354
vt 1.57437 1.60255
vt 1.73644 2.24623
vt 1.74254 -0.00474906
vt 1.57872 -0.005193
vt 1.57262 2.24579
vt 0.022646 1.48829
vt 0.025023 0.008582
vt 1.50474 0.010959
vt 1.50236 1.49067
vt 1.50474 0.010959
vt 0.025023 0.008582
vt 0.022646 1.48829
vt 1.50236 1.49067
vt 1.74354 3.7477
vt 1.73237 3.74767
vt 1.73235 3.75617
vt 1.73849 1.48819
vt 1.73847 1.49668
vt 1.74964 1.49671
vt 1.56853 3.75572
vt 1.56856 3.74723
vt 1.55738 3.7472
vt 1.56349 1.49621
vt 1.57465 1.49624
vt 1.57468 1.48775
vt 1.75342 0.101583
vt 1.74225 0.101553
vt 1.74228 0.093065
vt 1.57846 0.09262
vt 1.57843 0.101109
vt 1.56727 0.101079
vt 1.74935 1.60302
vt 1.73818 1.60299
vt 1.73821 1.5945
vt 1.57439 1.59406
vt 1.57437 1.60255
vt 1.5632 1.60252
vt 1.74168 0.998048
vt 1.7417 0.990899
vt 1.57416 0.990445
vt 1.74168 0.998048
vt 1.57416 0.990445
vt 1.57414 0.997594
vt 0.018479 1.48625
vt 0.013827 1.48623
vt 0.023253 0.006127
vt 0.027906 0.00615698
vt 1.74056 3.45335
vt 1.73591 3.45331
vt 1.74935 1.97325
vt 1.754 1.97329
vt 1.73551 3.27913
vt 1.73553 3.27201
vt 1.56798 3.27155
vt 1.56796 3.27868
vt 0.027906 0.00615698
vt 0.027936 0.00150502
vt 1.50803 0.010932
vt 1.508 0.015584
vt 1.74278 0.595845
vt 1.74276 0.602966
vt 1.57521 0.602512
vt 1.57523 0.59539
vt 1.508 0.015584
vt 1.51266 0.015614
vt 1.50323 1.49571
vt 1.49858 1.49568
vt 1.74266 0.638747
vt 1.74268 0.631598
vt 1.57514 0.631144
vt 1.57512 0.638293
vt 1.56905 2.87647
vt 1.55974 2.87645
vt 1.56591 0.602487
vt 1.57521 0.602512
vt 1.55867 3.27153
vt 1.56798 3.27155
vt 1.57414 0.997594
vt 1.56484 0.997569
vt 1.55965 2.9122
vt 1.56895 2.91223
vt 1.57512 0.638293
vt 1.56581 0.638268
vt 1.56493 0.961815
vt 1.57424 0.96184
vt 1.56808 3.23577
vt 1.55877 3.23575
vt 0.018479 1.48625
vt 0.027906 0.00615698
vt 1.508 0.015584
vt 1.49858 1.49568
vt 1.56798 3.27155
vt 1.73553 3.27201
vt 1.74168 0.998048
vt 1.57414 0.997594
vt 1.73649 2.91268
vt 1.74266 0.638747
vt 1.57512 0.638293
vt 1.56895 2.91223
vt 1.57521 0.602512
vt 1.74276 0.602966
vt 1.73659 2.87693
vt 1.56905 2.87647
vt 1.74178 0.962294
vt 1.73562 3.23623
vt 1.56808 3.23577
vt 1.57424 0.96184
vt 1.508 0.015584
vt 0.027906 0.00615698
vt 0.018479 1.48625
vt 1.49858 1.49568
vt 1.73587 3.45796
vt 1.73591 3.45331
vt 1.74056 3.45335
vt 0.027936 0.00150502
vt 0.027906 0.00615698
vt 0.023253 0.006127
vt 1.51266 0.015614
vt 1.508 0.015584
vt 1.50803 0.010932
vt 1.754 1.97329
vt 1.74935 1.97325
vt 1.74939 1.96859
vt 1.56796 3.27868
vt 1.56798 3.27155
vt 1.55867 3.27153
vt 1.56484 0.997569
vt 1.57414 0.997594
vt 1.57416 0.990445
vt 1.56581 0.638268
vt 1.57512 0.638293
vt 1.57514 0.631144
vt 1.57523 0.59539
vt 1.57521 0.602512
vt 1.56591 0.602487
vt 1.74595 2.84657
vt 1.74598 2.84657
vt 1.75218 0.561152
vt 1.74595 2.84657
vt 1.75218 0.561152
vt 1.75215 0.561152
vt 1.74277 4.02241
vt 1.74276 4.02247
vt 1.55667 4.02197
vt 1.55667 4.0219
vt 1.74279 4.02241
vt 1.74277 4.02241
vt 1.74896 1.73698
vt 1.74899 1.73698
vt 1.55983 2.84607
vt 1.55985 2.84607
vt 1.56605 0.560647
vt 1.55983 2.84607
vt 1.56605 0.560647
vt 1.56602 0.5606
vt 1.55664 4.02197
vt 1.55678 3.97
vt 1.56191 2.07551
vt 1.55664 4.02197
vt 1.56191 2.07551
vt 1.56191 2.07551
vt 1.55667 4.0219
vt 1.557 3.88805
vt 1.56264 1.80947
vt 1.55667 4.0219
vt 1.56264 1.80947
vt 1.56272 1.78982
vt 1.56272 1.78982
vt 1.56269 1.78982
vt 1.56283 1.73702
vt 1.56286 1.73648
vt 1.56191 2.07551
vt 1.55664 4.02197
vt 1.56191 2.07551
vt 1.56191 2.07551
vt 1.56191 2.07551
vt 1.2921 0.00586301
vt 1.29208 0.00586301
vt 1.50683 1.49896
vt 1.50684 1.49884
vt 1.29404 0.00586301
vt 1.2921 0.00586301
vt 1.51343 0.006845
vt 1.29404 0.00586301
vt 1.51343 0.006845
vt 1.51308 0.00683999
vt 1.56024 2.70322
vt 1.56021 2.70322
vt 1.56641 0.41793
vt 1.56643 0.417751
vt 1.56286 1.73648
vt 1.56286 1.73646
vt 1.74896 1.73696
vt 1.74896 1.73698
vt 1.74637 2.70373
vt 1.74634 2.70373
vt 1.75254 0.418256
vt 1.75256 0.418256
vt 1.56247 1.87932
vt 1.56245 1.87933
vt 1.55625 4.16475
vt 1.55628 4.16475
vt 1.56643 0.417751
vt 1.56643 0.417721
vt 1.75254 0.418225
vt 1.75254 0.418256
vt 1.7486 1.87983
vt 1.74857 1.87983
vt 1.74238 4.16525
vt 1.7486 1.87983
vt 1.74238 4.16525
vt 1.74241 4.1653
vt 1.74238 4.16532
vt 1.74238 4.16525
vt 1.55628 4.16475
vt 1.55628 4.16482
vt 1.56286 1.73648
vt 1.74896 1.73698
vt 1.74277 4.02241
vt 1.55667 4.0219
vt 1.56272 1.78982
vt 1.56191 2.07551
vt 1.55664 4.02197
vt 1.55664 4.02197
vt 1.56024 2.70322
vt 1.56643 0.417751
vt 1.75254 0.418256
vt 1.74634 2.70373
vt 1.55628 4.16475
vt 1.74238 4.16525
vt 1.74857 1.87983
vt 1.56247 1.87932
vt 1.75215 0.561152
vt 1.56605 0.560647
vt 1.55985 2.84607
vt 1.74595 2.84657
vt 1.50683 1.49896
vt 0.014717 1.49236
vt 0.021318 0.000244975
vt 1.51343 0.006845
vt 1.51326 0.00682998
vt 1.47869 0.006679
vt 1.29404 0.00586301
vt 0.021318 0.000244975
vt 0.014717 1.49236
vt 1.74276 4.02247
vt 1.74277 4.02241
vt 1.74279 4.02241
vt 1.55664 4.02194
vt 1.55667 4.02197
vt 1.56264 1.80947
vt 1.55664 4.02197
vt 1.56191 2.07551
vt 1.56191 2.07551
vt 1.55664 4.02197
vt 1.56191 2.07551
vt 1.56191 2.07551
vt 1.56283 1.73648
vt 1.56286 1.73646
vt 1.56286 1.73648
vt 1.56283 1.73702
vt 1.74899 1.73698
vt 1.74896 1.73698
vt 1.74896 1.73696
vt 1.56641 0.417751
vt 1.56643 0.417721
vt 1.75256 0.418256
vt 1.75254 0.418256
vt 1.75254 0.418225
vt 1.74241 4.1653
vt 1.74238 4.16525
vt 1.74238 4.16532
vt 1.55628 4.16482
vt 1.55628 4.16475
vt 1.55625 4.16475
vn 0.707068 -0.707059 -0.011048
vn 0.707068 -0.707059 -0.011048
vn 0.707068 -0.707059 -0.011048
vn 0.707027 -0.7071 -0.011047
vn 0.707027 -0.7071 -0.011047
vn 0.707027 -0.7071 -0.011047
vn 0.718065 0 0.695976
vn 0.718065 0 0.695976
vn 0.718065 0 0.695976
vn 0.718065 0 0.695976
vn 0.011047 -0.707106 0.707021
vn 0.011047 -0.707106 0.707021
vn 0.011047 -0.707106 0.707021
vn 0.011047 -0.707106 0.707021
vn 0.707027 0.7071 -0.011047
vn 0.707027 0.7071 -0.011047
vn 0.707027 0.7071 -0.011047
vn 0.707027 0.7071 -0.011047
vn 0.011047 0.707107 0.707021
vn 0.011047 0.707107 0.707021
vn 0.011047 0.707107 0.707021
vn 0.011047 0.707107 0.707021
vn -0.707019 -0.707109 0.011047
vn -0.707019 -0.707109 0.011047
vn -0.707019 -0.707109 0.011047
vn -0.707019 -0.707109 0.011047
vn -0.695974 0 0.718067
vn -0.695974 0 0.718067
vn -0.695974 0 0.718067
vn -0.695974 0 0.718067
vn -0.707019 0.707109 0.011047
vn -0.707019 0.707109 0.011047
vn -0.707019 0.707109 0.011047
vn -0.707019 0.707109 0.011047
vn -0.011047 -0.707107 -0.707021
vn -0.011047 -0.707107 -0.707021
vn -0.011047 -0.707107 -0.707021
vn -0.011047 -0.707107 -0.707021
vn 0.695971 0 -0.71807
vn 0.695971 0 -0.71807
vn 0.695971 0 -0.71807
vn 0.695971 0 -0.71807
vn -0.011047 0.707107 -0.707021
vn -0.011047 0.707107 -0.707021
vn -0.011047 0.707107 -0.707021
vn -0.011047 0.707107 -0.707021
vn -0.718068 0 -0.695973
vn -0.718068 0 -0.695973
vn -0.718068 0 -0.695973
vn -0.718068 0 -0.695973
vn 0.015623 0 0.999878
vn 0.015623 0 0.999878
vn 0.015623 0 0.999878
vn 0.015623 0 0.999878
vn 0.999878 0 -0.015623
vn 0.999878 0 -0.015623
vn 0.999878 0 -0.015623
vn 0.999878 0 -0.015623
vn -0.015623 0 -0.999878
vn -0.015623 0 -0.999878
vn -0.015623 0 -0.999878
vn -0.015623 0 -0.999878
vn -0.999878 0 0.015623
vn -0.999878 0 0.015623
vn -0.999878 0 0.015623
vn -0.999878 0 0.015623
vn 0 1 0
vn 0 1 0
vn 0 1 0
vn 0 1 0
vn 0 -1 0
vn 0 -1 0
vn 0 -1 0
vn 0 -1 0
vn 0.586297 -0.577343 0.56827
vn 0.586297 -0.577343 0.56827
vn 0.586297 -0.577343 0.56827
vn 0.586297 0.577343 0.56827
vn 0.586297 0.577343 0.56827
vn 0.586297 0.577343 0.56827
vn -0.568261 -0.577344 0.586305
vn -0.568261 -0.577344 0.586305
vn -0.568261 -0.577344 0.586305
vn -0.56826 0.577343 0.586307
vn -0.56826 0.577343 0.586307
vn -0.56826 0.577343 0.586307
vn 0.568256 -0.577349 -0.586304
vn 0.568256 -0.577349 -0.586304
vn 0.568256 -0.577349 -0.586304
vn 0.568256 0.577348 -0.586306
vn 0.568256 0.577348 -0.586306
vn 0.568256 0.577348 -0.586306
vn -0.586296 -0.577351 -0.568264
vn -0.586296 -0.577351 -0.568264
vn -0.586296 -0.577351 -0.568263
vn -0.586296 0.577351 -0.568264
vn -0.586296 0.577351 -0.568264
vn -0.586296 0.577351 -0.568264
vn 0.011048 0.707062 0.707065
vn 0.011048 0.707062 0.707065
vn 0.011048 0.707062 0.707065
vn 0.011047 0.707106 0.707022
vn 0.011047 0.707106 0.707022
vn 0.011047 0.707106 0.707022
vn 0.718068 0 0.695973
vn 0.718068 0 0.695973
vn 0.718068 0 0.695973
vn 0.718068 0 0.695973
vn 0.707016 0.707112 -0.011047
vn 0.707016 0.707112 -0.011047
vn 0.707016 0.707112 -0.011047
vn 0.707016 0.707112 -0.011047
vn 0.011047 -0.707106 0.707022
vn 0.011047 -0.707106 0.707022
vn 0.011047 -0.707106 0.707022
vn 0.011047 -0.707106 0.707022
vn 0.707016 -0.707112 -0.011047
vn 0.707016 -0.707112 -0.011047
vn 0.707016 -0.707112 -0.011047
vn 0.707016 -0.707112 -0.011047
vn -0.011047 -0.707106 -0.707022
vn -0.011047 -0.707106 -0.707022
vn -0.011047 -0.707106 -0.707022
vn -0.011047 -0.707106 -0.707022
vn 0.695976 0 -0.718065
vn 0.695976 0 -0.718065
vn 0.695976 0 -0.718065
vn 0.695976 0 -0.718065
vn -0.011047 0.707106 -0.707022
vn -0.011047 0.707106 -0.707022
vn -0.011047 0.707106 -0.707022
vn -0.011047 0.707106 -0.707022
vn -0.707019 0.707108 0.011047
vn -0.707019 0.707108 0.011047
vn -0.707019 0.707108 0.011047
vn -0.707019 0.707108 0.011047
vn -0.718068 0 -0.695973
vn -0.718068 0 -0.695973
vn -0.718068 0 -0.695973
vn -0.718068 0 -0.695973
vn -0.707019 -0.707108 0.011047
vn -0.707019 -0.707108 0.011047
vn -0.707019 -0.707108 0.011047
vn -0.707019 -0.707108 0.011047
vn -0.695972 0 0.718069
vn -0.695972 0 0.718069
vn -0.695972 0 0.718069
vn -0.695972 0 0.718069
vn 0.999878 0 -0.015623
vn 0.999878 0 -0.015623
vn 0.999878 0 -0.015623
vn 0.999878 0 -0.015623
vn -0.015623 0 -0.999878
vn -0.015623 0 -0.999878
vn -0.015623 0 -0.999878
vn -0.015623 0 -0.999878
vn -0.999878 0 0.015623
vn -0.999878 0 0.015623
vn -0.999878 0 0.015623
vn -0.999878 0 0.015623
vn 0.015623 0 0.999878
vn 0.015623 0 0.999878
vn 0.015623 0 0.999878
vn 0.015623 0 0.999878
vn 0 1 0
vn 0 1 0
vn 0 1 0
vn 0 1 0
vn 0 -1 0
vn 0 -1 0
vn 0 -1 0
vn 0 -1 0
vn 0.586309 0.577346 0.568254
vn 0.586309 0.577346 0.568254
vn 0.586309 0.577346 0.568254
vn 0.586309 -0.577346 0.568254
vn 0.586309 -0.577346 0.568254
vn 0.586309 -0.577346 0.568254
vn 0.568249 -0.577364 -0.586297
vn 0.568249 -0.577364 -0.586297
vn 0.568249 -0.577364 -0.586297
vn 0.568249 0.577364 -0.586297
vn 0.568249 0.577364 -0.586297
vn 0.568249 0.577364 -0.586297
vn -0.586303 0.577347 -0.56826
vn -0.586303 0.577347 -0.56826
vn -0.586303 0.577347 -0.56826
vn -0.586303 -0.577347 -0.56826
vn -0.586303 -0.577347 -0.56826
vn -0.586303 -0.577347 -0.56826
vn -0.568263 0.57735 0.586297
vn -0.568263 0.57735 0.586297
vn -0.568263 0.57735 0.586297
vn -0.568263 -0.57735 0.586297
vn -0.568263 -0.57735 0.586297
vn -0.568263 -0.57735 0.586297
vn 0.011048 0.707075 0.707052
vn 0.011048 0.707075 0.707052
vn 0.011048 0.707075 0.707052
vn 0.011047 0.707108 0.707019
vn 0.011047 0.707108 0.707019
vn 0.011047 0.707108 0.707019
vn 0.718068 0 0.695973
vn 0.718068 0 0.695973
vn 0.718068 0 0.695973
vn 0.718068 0 0.695973
vn 0.707021 0.707106 -0.011047
vn 0.707021 0.707106 -0.011047
vn 0.707021 0.707106 -0.011047
vn 0.707021 0.707106 -0.011047
vn 0.011047 -0.707108 0.707019
vn 0.011047 -0.707108 0.707019
vn 0.011047 -0.707108 0.707019
vn 0.011047 -0.707108 0.707019
vn 0.707021 -0.707106 -0.011047
vn 0.707021 -0.707106 -0.011047
vn 0.707021 -0.707106 -0.011047
vn 0.707021 -0.707106 -0.011047
vn -0.011047 -0.707107 -0.707021
vn -0.011047 -0.707107 -0.707021
vn -0.011047 -0.707107 -0.707021
vn -0.011047 -0.707107 -0.707021
vn 0.695971 0 -0.71807
vn 0.695971 0 -0.71807
vn 0.695971 0 -0.71807
vn 0.695971 0 -0.71807
vn -0.011047 0.707107 -0.707021
vn -0.011047 0.707107 -0.707021
vn -0.011047 0.707107 -0.707021
vn -0.011047 0.707107 -0.707021
vn -0.707019 -0.707109 0.011047
vn -0.707019 -0.707109 0.011047
vn -0.707019 -0.707109 0.011047
vn -0.707019 -0.707109 0.011047
vn -0.69597 0 0.718071
vn -0.69597 0 0.718071
vn -0.69597 0 0.718071
vn -0.69597 0 0.718071
vn -0.707019 0.707109 0.011047
vn -0.707019 0.707109 0.011047
vn -0.707019 0.707109 0.011047
vn -0.707019 0.707109 0.011047
vn -0.718074 0 -0.695966
vn -0.718074 0 -0.695966
vn -0.718074 0 -0.695966
vn -0.718074 0 -0.695966
vn 0.999878 0 -0.015623
vn 0.999878 0 -0.015623
vn 0.999878 0 -0.015623
vn 0.999878 0 -0.015623
vn 0.015623 0 0.999878
vn 0.015623 0 0.999878
vn 0.015623 0 0.999878
vn 0.015623 0 0.999878
vn -0.015623 0 -0.999878
vn -0.015623 0 -0.999878
vn -0.015623 0 -0.999878
vn -0.015623 0 -0.999878
vn -0.999878 0 0.015623
vn -0.999878 0 0.015623
vn -0.999878 0 0.015623
vn -0.999878 0 0.015623
vn 0 1 0
vn 0 1 0
vn 0 1 0
vn 0 1 0
vn 0 -1 0
vn 0 -1 0
vn 0 -1 0
vn 0 -1 0
vn 0.586299 0.57734 0.56827
vn 0.586299 0.57734 0.568271
vn 0.586299 0.57734 0.568271
vn 0.586299 -0.57734 0.568271
vn 0.586299 -0.57734 0.56827
vn 0.586299 -0.57734 0.568271
vn 0.568266 -0.57734 -0.586304
vn 0.568267 -0.57734 -0.586304
vn 0.568267 -0.57734 -0.586304
vn 0.568267 0.57734 -0.586303
vn 0.568267 0.57734 -0.586303
vn 0.568267 0.57734 -0.586303
vn -0.568258 -0.577351 0.586301
vn -0.568258 -0.577351 0.586301
vn -0.568258 -0.577351 0.586301
vn -0.568259 0.577351 0.5863
vn -0.568259 0.577351 0.5863
vn -0.568259 0.577351 0.5863
vn -0.586304 0.577345 -0.56826
vn -0.586304 0.577345 -0.56826
vn -0.586304 0.577345 -0.56826
vn -0.586304 -0.577345 -0.568261
vn -0.586304 -0.577345 -0.568261
vn -0.586304 -0.577345 -0.568261
vn -0.706307 0.707131 -0.033108
vn -0.706307 0.707131 -0.033108
vn -0.706308 0.707131 -0.033108
vn -0.706329 0.707109 -0.033109
vn -0.706329 0.707109 -0.033109
vn -0.706329 0.707109 -0.033109
vn 0.033109 0.707107 -0.706331
vn 0.033109 0.707107 -0.706331
vn 0.033109 0.707107 -0.706331
vn 0.033109 0.707107 -0.706331
vn -0.673224 0 -0.739439
vn -0.673224 0 -0.739439
vn -0.673224 0 -0.739439
vn -0.673224 0 -0.739439
vn 0.706329 0.707109 0.033109
vn 0.706329 0.707109 0.033109
vn 0.706329 0.707109 0.033109
vn 0.706329 0.707109 0.033109
vn 0.739444 0 -0.673218
vn 0.739444 0 -0.673218
vn 0.739444 0 -0.673218
vn 0.739444 0 -0.673218
vn -0.706329 -0.707109 -0.033109
vn -0.706329 -0.707109 -0.033109
vn -0.706329 -0.707109 -0.033109
vn -0.706329 -0.707109 -0.033109
vn 0.033109 -0.707107 -0.706331
vn 0.033109 -0.707107 -0.706331
vn 0.033109 -0.707107 -0.706331
vn 0.033109 -0.707107 -0.706331
vn 0.706329 -0.707109 0.033109
vn 0.706329 -0.707109 0.033109
vn 0.706329 -0.707109 0.033109
vn 0.706329 -0.707109 0.033109
vn -0.033109 0.70711 0.706329
vn -0.033109 0.70711 0.706329
vn -0.033109 0.70711 0.706329
vn -0.033109 0.70711 0.706329
vn -0.739439 0 0.673224
vn -0.739439 0 0.673224
vn -0.739439 0 0.673224
vn -0.739439 0 0.673224
vn -0.033109 -0.707107 0.706331
vn -0.033109 -0.707107 0.706331
vn -0.033109 -0.707107 0.706331
vn -0.033109 -0.707107 0.706331
vn 0.673217 0 0.739445
vn 0.673217 0 0.739445
vn 0.673217 0 0.739445
vn 0.673217 0 0.739445
vn 0.046824 0 -0.998903
vn 0.046824 0 -0.998903
vn 0.046824 0 -0.998903
vn 0.046824 0 -0.998903
vn -0.998903 0 -0.046824
vn -0.998903 0 -0.046824
vn -0.998903 0 -0.046824
vn -0.998903 0 -0.046824
vn -0.046824 0 0.998903
vn -0.046824 0 0.998903
vn -0.046824 0 0.998903
vn -0.046824 0 0.998903
vn 0.998903 0 0.046824
vn 0.998903 0 0.046824
vn 0.998903 0 0.046824
vn 0.998903 0 0.046824
vn 0 1 0
vn 0 1 0
vn 0 1 0
vn 0 1 0
vn 0 -1 0
vn 0 -1 0
vn 0 -1 0
vn 0 -1 0
vn -0.549689 0.577344 -0.603752
vn -0.549689 0.577344 -0.603752
vn -0.549689 0.577344 -0.603751
vn 0.603751 0.57735 -0.549683
vn 0.603751 0.57735 -0.549683
vn 0.603751 0.57735 -0.549683
vn -0.549689 -0.577344 -0.603751
vn -0.549689 -0.577344 -0.603751
vn -0.549689 -0.577344 -0.603752
vn 0.603751 -0.57735 -0.549683
vn 0.603751 -0.57735 -0.549683
vn 0.603751 -0.57735 -0.549683
vn -0.603738 0.577359 0.549688
vn -0.603738 0.577359 0.549688
vn -0.603738 0.577359 0.549688
vn -0.603738 -0.577359 0.549688
vn -0.603738 -0.577359 0.549688
vn -0.603738 -0.577359 0.549688
vn 0.549664 0.577363 0.603756
vn 0.549664 0.577363 0.603756
vn 0.549664 0.577363 0.603756
vn 0.549664 -0.577363 0.603756
vn 0.549664 -0.577363 0.603756
vn 0.549664 -0.577363 0.603756
vn 0.71798 0 0.696064
vn 0.71798 0 0.696064
vn 0.71798 0 0.696064
vn 0.718068 0 0.695973
vn 0.718068 0 0.695973
vn 0.718068 0 0.695973
vn 0.707016 0.707112 -0.011047
vn 0.707016 0.707112 -0.011047
vn 0.707016 0.707112 -0.011047
vn 0.707016 0.707112 -0.011047
vn 0.011047 0.707109 0.707018
vn 0.011047 0.707109 0.707018
vn 0.011047 0.707109 0.707018
vn 0.011047 0.707109 0.707018
vn 0.695972 0 -0.718069
vn 0.695972 0 -0.718069
vn 0.695972 0 -0.718069
vn 0.695972 0 -0.718069
vn -0.011047 0.707109 -0.707018
vn -0.011047 0.707109 -0.707018
vn -0.011047 0.707109 -0.707018
vn -0.011047 0.707109 -0.707018
vn -0.718068 0 -0.695973
vn -0.718068 0 -0.695973
vn -0.718068 0 -0.695973
vn -0.718068 0 -0.695973
vn -0.707026 0.707101 0.011047
vn -0.707026 0.707102 0.011047
vn -0.707026 0.707101 0.011047
vn -0.707026 0.707102 0.011047
vn -0.695972 0 0.718069
vn -0.695972 0 0.718069
vn -0.695972 0 0.718069
vn -0.695972 0 0.718069
vn -0.011047 -0.707106 -0.707022
vn -0.011047 -0.707106 -0.707022
vn -0.011047 -0.707106 -0.707022
vn -0.011047 -0.707106 -0.707022
vn 0.707016 -0.707112 -0.011047
vn 0.707016 -0.707112 -0.011047
vn 0.707016 -0.707112 -0.011047
vn 0.707016 -0.707112 -0.011047
vn 0.011047 -0.707106 0.707022
vn 0.011047 -0.707106 0.707022
vn 0.011047 -0.707106 0.707022
vn 0.011047 -0.707106 0.707022
vn -0.707026 -0.707101 0.011047
vn -0.707026 -0.707101 0.011047
vn -0.707026 -0.707101 0.011047
vn -0.707026 -0.707101 0.011047
vn 0 1 0
vn 0 1 0
vn 0 1 0
vn 0 1 0
vn 0.999878 0 -0.015623
vn 0.999878 0 -0.015623
vn 0.999878 0 -0.015623
vn 0.999878 0 -0.015623
vn 0.015623 0 0.999878
vn 0.015623 0 0.999878
vn 0.015623 0 0.999878
vn 0.015623 0 0.999878
vn -0.015623 0 -0.999878
vn -0.015623 0 -0.999878
vn -0.015623 0 -0.999878
vn -0.015623 0 -0.999878
vn -0.999878 0 0.015623
vn -0.999878 0 0.015623
vn -0.999878 0 0.015623
vn -0.999878 0 0.015623
vn 0 -1 0
vn 0 -1 0
vn 0 -1 0
vn 0 -1 0
vn 0.586312 0.577349 0.568248
vn 0.586312 0.577349 0.568248
vn 0.586312 0.577349 0.568248
vn 0.568248 0.577363 -0.586298
vn 0.568249 0.577363 -0.586298
vn 0.568248 0.577363 -0.586298
vn -0.586303 0.577354 -0.568253
vn -0.586303 0.577354 -0.568253
vn -0.586303 0.577354 -0.568253
vn -0.568262 0.577349 0.586299
vn -0.568262 0.577349 0.586298
vn -0.568262 0.577349 0.586299
vn 0.568249 -0.577364 -0.586297
vn 0.568249 -0.577364 -0.586297
vn 0.568249 -0.577364 -0.586297
vn 0.586309 -0.577346 0.568254
vn 0.586309 -0.577346 0.568254
vn 0.586309 -0.577346 0.568254
vn -0.56826 -0.577353 0.586297
vn -0.56826 -0.577353 0.586296
vn -0.56826 -0.577353 0.586296
vn -0.586301 -0.577345 -0.568264
vn -0.586301 -0.577345 -0.568264
vn -0.586301 -0.577345 -0.568264
vn -0.04345 0.717776 -0.694917
vn -0.04345 0.717776 -0.694917
vn -0 0 -0
vn -0.044112 0.70732 -0.705516
vn -0.044112 0.70732 -0.705515
vn -0.044112 0.70732 -0.705516
vn -0.749358 0 -0.662165
vn -0.749358 0 -0.662165
vn -0.749358 0 -0.662165
vn -0.749358 0 -0.662165
vn -0.704682 0.708155 0.044043
vn -0.704682 0.708155 0.044043
vn -0.704682 0.708155 0.044043
vn -0.704682 0.708155 0.044043
vn -0.044099 -0.707246 -0.705591
vn -0.044099 -0.707246 -0.705591
vn -0.044099 -0.707246 -0.705591
vn -0.044099 -0.707246 -0.705591
vn -0.044099 -0.707246 -0.705591
vn -0.044099 -0.707246 -0.705591
vn 0 -1 0
vn 0 -1 0
vn 0 -1 0
vn 0 -1 0
vn 0 -1 0
vn 0 -1 0
vn -0.707008 -0.705766 0.045106
vn -0.812675 -0.580391 0.052011
vn -0.812676 -0.580391 0.052011
vn -0.707008 -0.705766 0.045106
vn -0.812676 -0.580391 0.052011
vn -0.812676 -0.580391 0.052011
vn -0.762713 0.646695 0.007368
vn -0.762733 0.646672 0.007352
vn -0.771579 0.636134 4.7e-05
vn -0.771579 0.636134 4.7e-05
vn 0 1 0
vn 0 1 0
vn 0 0 0
vn 0 0 0
vn 0 1 0
vn 0 -1 0
vn 0 -1 0
vn 0 -1 0
vn 0 -1 0
vn 0 -1 0
vn 0 -1 0
vn 0 -1 0
vn 0 -1 0
vn 0 -1 0
vn 0 -1 0
vn 0.047452 -0.649074 0.759244
vn 0.047452 -0.649074 0.759244
vn 0.047452 -0.649075 0.759243
vn 0.047527 -0.649168 0.759159
vn -0.677999 -5e-06 0.735063
vn -0.677999 -5e-06 0.735063
vn -0.677999 -5e-06 0.735063
vn -0.677999 -5e-06 0.735063
vn 0.044098 0.707249 0.705588
vn 0.044098 0.707249 0.705588
vn 0.044098 0.707248 0.705588
vn 0.044098 0.707248 0.705588
vn 0.705771 -0.707066 -0.044111
vn 0.705771 -0.707066 -0.044111
vn 0.705771 -0.707066 -0.044111
vn 0.705771 -0.707066 -0.044111
vn 0.753102 0 0.657904
vn 0.753102 0 0.657904
vn 0.753102 0 0.657904
vn 0.753102 0 0.657904
vn 0.705834 0.707002 -0.044115
vn 0.705834 0.707002 -0.044115
vn 0.705834 0.707002 -0.044115
vn 0.705834 0.707002 -0.044115
vn 0.705834 0.707002 -0.044115
vn 0.705834 0.707002 -0.044115
vn 0.661883 0 -0.749607
vn 0.661883 0 -0.749607
vn 0.661883 0 -0.749607
vn 0.661883 0 -0.749607
vn -0.997984 -0.011696 0.062374
vn -0.997984 -0.011696 0.062374
vn -0.997984 -0.011696 0.062374
vn -0.997984 -0.011696 0.062374
vn -0.997984 -0.011696 0.062374
vn 0 -1 0
vn 0 -1 0
vn 0 -1 0
vn 0.062378 0 0.998053
vn 0.062378 0 0.998053
vn 0.062378 0 0.998053
vn 0.062378 0 0.998053
vn 0.998053 0 -0.062378
vn 0.998053 0 -0.062378
vn 0.998053 0 -0.062378
vn 0.998053 0 -0.062378
vn -0.062378 0 -0.998053
vn -0.062378 0 -0.998053
vn -0.062378 0 -0.998053
vn -0.062378 0 -0.998053
vn 0 1 0
vn 0 1 0
vn 0 1 0
vn 0 1 0
vn 0 1 0
vn 0 1 0
vn 0 1 0
vn 0 -1 0
vn 0 -1 0
vn -0.616143 0.571679 -0.541804
vn -0.616143 0.571679 -0.541804
vn -0.616143 0.571679 -0.541804
vn -0.707008 -0.705766 0.045106
vn -0.707008 -0.705766 0.045106
vn -0.714912 0.6978 0.044452
vn 0 -1 0
vn 0 -1 0
vn 0 -1 0
vn 0 -1 0
vn 0 -1 0
vn 0 -1 0
vn -0.733932 -0.675415 0.071821
vn -0.733932 -0.675415 0.071821
vn -0.733932 -0.675415 0.071821
vn -0.733932 -0.675415 0.071821
vn -0.534604 0.579154 0.615451
vn -0.534604 0.579154 0.615451
vn -0.534604 0.579154 0.615451
vn 0.139373 -0.753509 0.642494
vn 0.139373 -0.753509 0.642494
vn 0.618128 0.576341 0.534555
vn 0.618128 0.576341 0.534555
vn 0.618128 0.576341 0.534555
vn 0.53252 0.583236 -0.613399
vn 0.53252 0.583236 -0.613399
vn 0.53252 0.583236 -0.613399
vn 0.532754 -0.583492 -0.612952
vn 0.532754 -0.583492 -0.612952
vn 0.532754 -0.583492 -0.612952

g metalplaques_2:_105_3_3_1_0
usemtl metalplaques_2:textures_exwsw_vertex_vertex_eX_surf_metaldarkgrey
f 1/1/1 2/2/2 3/3/3
f 4/4/4 5/5/5 6/6/6
f 7/7/7 8/8/8 9/9/9
f 7/7/7 9/9/9 10/10/10
f 11/11/11 12/12/12 13/13/13
f 11/11/11 13/13/13 14/14/14
f 15/15/15 16/16/16 17/17/17
f 15/15/15 17/17/17 18/18/18
f 19/19/19 20/20/20 21/21/21
f 19/19/19 21/21/21 22/22/22
f 23/23/23 24/24/24 25/25/25
f 23/23/23 25/25/25 26/26/26
f 27/27/27 28/28/28 29/29/29
f 27/27/27 29/29/29 30/30/30
f 31/31/31 32/32/32 33/33/33
f 31/31/31 33/33/33 34/34/34
f 35/35/35 36/36/36 37/37/37
f 35/35/35 37/37/37 38/38/38
f 39/39/39 40/40/40 41/41/41
f 39/39/39 41/41/41 42/42/42
f 43/43/43 44/44/44 45/45/45
f 43/43/43 45/45/45 46/46/46
f 47/47/47 48/48/48 49/49/49
f 47/47/47 49/49/49 50/50/50
f 51/51/51 52/52/52 53/53/53
f 51/51/51 53/53/53 54/54/54
f 55/55/55 56/56/56 57/57/57
f 55/55/55 57/57/57 58/58/58
f 59/59/59 60/60/60 61/61/61
f 59/59/59 61/61/61 62/62/62
f 63/63/63 64/64/64 65/65/65
f 63/63/63 65/65/65 66/66/66
f 67/67/67 68/68/68 69/69/69
f 67/67/67 69/69/69 70/70/70
f 71/71/71 72/72/72 73/73/73
f 71/71/71 73/73/73 74/74/74
f 75/75/75 76/76/76 77/77/77
f 78/78/78 79/79/79 80/80/80
f 81/81/81 82/82/82 83/83/83
f 84/84/84 85/85/85 86/86/86
f 87/87/87 88/88/88 89/89/89
f 90/90/90 91/91/91 92/92/92
f 93/93/93 94/94/94 95/95/95
f 96/96/96 97/97/97 98/98/98

g metalplaques_2:_103_1_1_10_1
usemtl metalplaques_2:textures_exwsw_vertex_vertex_eX_surf_metaldarkgrey
f 99/99/99 100/100/100 101/101/101
f 102/102/102 103/103/103 104/104/104
f 105/105/105 106/106/106 107/107/107
f 105/105/105 107/107/107 108/108/108
f 109/109/109 110/110/110 111/111/111
f 109/109/109 111/111/111 112/112/112
f 113/113/113 114/114/114 115/115/115
f 113/113/113 115/115/115 116/116/116
f 117/117/117 118/118/118 119/119/119
f 117/117/117 119/119/119 120/120/120
f 121/121/121 122/122/122 123/123/123
f 121/121/121 123/123/123 124/124/124
f 125/125/125 126/126/126 127/127/127
f 125/125/125 127/127/127 128/128/128
f 129/129/129 130/130/130 131/131/131
f 129/129/129 131/131/131 132/132/132
f 133/133/133 134/134/134 135/135/135
f 133/133/133 135/135/135 136/136/136
f 137/137/137 138/138/138 139/139/139
f 137/137/137 139/139/139 140/140/140
f 141/141/141 142/142/142 143/143/143
f 141/141/141 143/143/143 144/144/144
f 145/145/145 146/146/146 147/147/147
f 145/145/145 147/147/147 148/148/148
f 149/149/149 150/150/150 151/151/151
f 149/149/149 151/151/151 152/152/152
f 153/153/153 154/154/154 155/155/155
f 153/153/153 155/155/155 156/156/156
f 157/157/157 158/158/158 159/159/159
f 157/157/157 159/159/159 160/160/160
f 161/161/161 162/162/162 163/163/163
f 161/161/161 163/163/163 164/164/164
f 165/165/165 166/166/166 167/167/167
f 165/165/165 167/167/167 168/168/168
f 169/169/169 170/170/170 171/171/171
f 169/169/169 171/171/171 172/172/172
f 173/173/173 174/174/174 175/175/175
f 176/176/176 177/177/177 178/178/178
f 179/179/179 180/180/180 181/181/181
f 182/182/182 183/183/183 184/184/184
f 185/185/185 186/186/186 187/187/187
f 188/188/188 189/189/189 190/190/190
f 191/191/191 192/192/192 193/193/193
f 194/194/194 195/195/195 196/196/196

g metalplaques_2:_106_4_4_11_2
usemtl metalplaques_2:textures_exwsw_vertex_vertex_eX_surf_metaldarkgrey
f 197/197/197 198/198/198 199/199/199
f 200/200/200 201/201/201 202/202/202
f 203/203/203 204/204/204 205/205/205
f 203/203/203 205/205/205 206/206/206
f 207/207/207 208/208/208 209/209/209
f 207/207/207 209/209/209 210/210/210
f 211/211/211 212/212/212 213/213/213
f 211/211/211 213/213/213 214/214/214
f 215/215/215 216/216/216 217/217/217
f 215/215/215 217/217/217 218/218/218
f 219/219/219 220/220/220 221/221/221
f 219/219/219 221/221/221 222/222/222
f 223/223/223 224/224/224 225/225/225
f 223/223/223 225/225/225 226/226/226
f 227/227/227 228/228/228 229/229/229
f 227/227/227 229/229/229 230/230/230
f 231/231/231 232/232/232 233/233/233
f 231/231/231 233/233/233 234/234/234
f 235/235/235 236/236/236 237/237/237
f 235/235/235 237/237/237 238/238/238
f 239/239/239 240/240/240 241/241/241
f 239/239/239 241/241/241 242/242/242
f 243/243/243 244/244/244 245/245/245
f 243/243/243 245/245/245 246/246/246
f 247/247/247 248/248/248 249/249/249
f 247/247/247 249/249/249 250/250/250
f 251/251/251 252/252/252 253/253/253
f 251/251/251 253/253/253 254/254/254
f 255/255/255 256/256/256 257/257/257
f 255/255/255 257/257/257 258/258/258
f 259/259/259 260/260/260 261/261/261
f 259/259/259 261/261/261 262/262/262
f 263/263/263 264/264/264 265/265/265
f 263/263/263 265/265/265 266/266/266
f 267/267/267 268/268/268 269/269/269
f 267/267/267 269/269/269 270/270/270
f 271/271/271 272/272/272 273/273/273
f 274/274/274 275/275/275 276/276/276
f 277/277/277 278/278/278 279/279/279
f 280/280/280 281/281/281 282/282/282
f 283/283/283 284/284/284 285/285/285
f 286/286/286 287/287/287 288/288/288
f 289/289/289 290/290/290 291/291/291
f 292/292/292 293/293/293 294/294/294

g metalplaques_2:_104_2_2_3_3
usemtl metalplaques_2:textures_exwsw_vertex_vertex_eX_surf_metaldarkgrey
f 295/295/295 296/296/296 297/297/297
f 298/298/298 299/299/299 300/300/300
f 301/301/301 302/302/302 303/303/303
f 301/301/301 303/303/303 304/304/304
f 305/305/305 306/306/306 307/307/307
f 305/305/305 307/307/307 308/308/308
f 309/309/309 310/310/310 311/311/311
f 309/309/309 311/311/311 312/312/312
f 313/313/313 314/314/314 315/315/315
f 313/313/313 315/315/315 316/316/316
f 317/317/317 318/318/318 319/319/319
f 317/317/317 319/319/319 320/320/320
f 321/321/321 322/322/322 323/323/323
f 321/321/321 323/323/323 324/324/324
f 325/325/325 326/326/326 327/327/327
f 325/325/325 327/327/327 328/328/328
f 329/329/329 330/330/330 331/331/331
f 329/329/329 331/331/331 332/332/332
f 333/333/333 334/334/334 335/335/335
f 333/333/333 335/335/335 336/336/336
f 337/337/337 338/338/338 339/339/339
f 337/337/337 339/339/339 340/340/340
f 341/341/341 342/342/342 343/343/343
f 341/341/341 343/343/343 344/344/344
f 345/345/345 346/346/346 347/347/347
f 345/345/345 347/347/347 348/348/348
f 349/349/349 350/350/350 351/351/351
f 349/349/349 351/351/351 352/352/352
f 353/353/353 354/354/354 355/355/355
f 353/353/353 355/355/355 356/356/356
f 357/357/357 358/358/358 359/359/359
f 357/357/357 359/359/359 360/360/360
f 361/361/361 362/362/362 363/363/363
f 361/361/361 363/363/363 364/364/364
f 365/365/365 366/366/366 367/367/367
f 365/365/365 367/367/367 368/368/368
f 369/369/369 370/370/370 371/371/371
f 372/372/372 373/373/373 374/374/374
f 375/375/375 376/376/376 377/377/377
f 378/378/378 379/379/379 380/380/380
f 381/381/381 382/382/382 383/383/383
f 384/384/384 385/385/385 386/386/386
f 387/387/387 388/388/388 389/389/389
f 390/390/390 391/391/391 392/392/392

g metalplaques_2:_102_0_0_4_4
usemtl metalplaques_2:textures_exwsw_vertex_vertex_eX_surf_metaldarkgrey
f 393/393/393 394/394/394 395/395/395
f 396/396/396 397/397/397 398/398/398
f 399/399/399 400/400/400 401/401/401
f 399/399/399 401/401/401 402/402/402
f 403/403/403 404/404/404 405/405/405
f 403/403/403 405/405/405 406/406/406
f 407/407/407 408/408/408 409/409/409
f 407/407/407 409/409/409 410/410/410
f 411/411/411 412/412/412 413/413/413
f 411/411/411 413/413/413 414/414/414
f 415/415/415 416/416/416 417/417/417
f 415/415/415 417/417/417 418/418/418
f 419/419/419 420/420/420 421/421/421
f 419/419/419 421/421/421 422/422/422
f 423/423/423 424/424/424 425/425/425
f 423/423/423 425/425/425 426/426/426
f 427/427/427 428/428/428 429/429/429
f 427/427/427 429/429/429 430/430/430
f 431/431/431 432/432/432 433/433/433
f 431/431/431 433/433/433 434/434/434
f 435/435/435 436/436/436 437/437/437
f 435/435/435 437/437/437 438/438/438
f 439/439/439 440/440/440 441/441/441
f 439/439/439 441/441/441 442/442/442
f 443/443/443 444/444/444 445/445/445
f 443/443/443 445/445/445 446/446/446
f 447/447/447 448/448/448 449/449/449
f 447/447/447 449/449/449 450/450/450
f 451/451/451 452/452/452 453/453/453
f 451/451/451 453/453/453 454/454/454
f 455/455/455 456/456/456 457/457/457
f 455/455/455 457/457/457 458/458/458
f 459/459/459 460/460/460 461/461/461
f 459/459/459 461/461/461 462/462/462
f 463/463/463 464/464/464 465/465/465
f 463/463/463 465/465/465 466/466/466
f 467/467/467 468/468/468 469/469/469
f 470/470/470 471/471/471 472/472/472
f 473/473/473 474/474/474 475/475/475
f 476/476/476 477/477/477 478/478/478
f 479/479/479 480/480/480 481/481/481
f 482/482/482 483/483/483 484/484/484
f 485/485/485 486/486/486 487/487/487
f 488/488/488 489/489/489 490/490/490

g metalplaques_2:_107_5_5_9_5
usemtl metalplaques_2:textures_exwsw_vertex_vertex_eX_surf_metaldarkgrey
f 491/491/491 492/492/492 493/493/493
f 494/494/494 495/495/495 496/496/496
f 497/497/497 498/498/498 499/499/499
f 497/497/497 499/499/499 500/500/500
f 501/501/501 502/502/502 503/503/503
f 501/501/501 503/503/503 504/504/504
f 505/505/505 506/506/506 507/507/507
f 508/508/508 509/509/509 510/510/510
f 511/511/511 512/512/512 513/513/513
f 514/514/514 515/515/515 516/516/516
f 517/517/517 518/518/518 519/519/519
f 520/520/520 521/521/521 522/522/522
f 523/523/523 524/524/524 525/525/525
f 523/523/523 525/525/525 526/526/526
f 527/527/527 528/528/528 529/529/529
f 527/527/527 530/530/530 531/531/531
f 532/532/532 533/533/533 534/534/534
f 532/532/532 534/534/534 535/535/535
f 536/536/536 537/537/537 538/538/538
f 539/539/539 540/540/540 541/541/541
f 542/542/542 543/543/543 544/544/544
f 542/542/542 544/544/544 545/545/545
f 546/546/546 547/547/547 548/548/548
f 546/546/546 548/548/548 549/549/549
f 550/550/550 551/551/551 552/552/552
f 550/550/550 552/552/552 553/553/553
f 554/554/554 555/555/555 556/556/556
f 554/554/554 556/556/556 557/557/557
f 558/558/558 559/559/559 560/560/560
f 558/558/558 560/560/560 561/561/561
f 562/562/562 563/563/563 564/564/564
f 565/565/565 566/566/566 567/567/567
f 568/568/568 569/569/569 570/570/570
f 568/568/568 570/570/570 571/571/571
f 572/572/572 573/573/573 574/574/574
f 574/574/574 575/575/575 576/576/576
f 576/576/576 572/572/572 574/574/574
f 577/577/577 578/578/578 579/579/579
f 580/580/580 581/581/581 582/582/582
f 580/580/580 582/582/582 583/583/583
f 584/584/584 585/585/585 586/586/586
f 584/584/584 586/586/586 587/587/587
f 588/588/588 589/589/589 590/590/590
f 588/588/588 590/590/590 591/591/591
f 592/592/592 593/593/593 594/594/594
f 592/592/592 594/594/594 595/595/595
f 535/535/535 540/540/540 532/532/532
f 596/596/596 597/597/597 598/598/598
f 534/534/534 533/533/533 599/599/599
f 534/534/534 599/599/599 600/600/600
f 601/601/601 602/602/602 603/603/603
f 604/604/604 518/518/518 517/517/517
f 604/604/604 517/517/517 605/605/605
f 523/523/523 606/606/606 524/524/524
f 607/607/607 608/608/608 609/609/609
f 610/610/610 611/611/611 612/612/612
f 613/613/613 614/614/614 615/615/615
f 613/613/613 615/615/615 616/616/616
f 617/617/617 618/618/618 619/619/619
f 620/620/620 621/621/621 545/545/545
f 620/620/620 545/545/545 544/544/544
f 622/622/622 623/623/623 624/624/624
f 625/625/625 626/626/626 627/627/627
f 628/628/628 629/629/629 630/630/630
