# Exported by Gskelview
mtllib propanebottlebig.mtl

v -3.23944 114.83 -2.72107
v -1.94399 116.44 -1.63298
v -1.26845 116.44 -2.19889
v -2.11356 114.83 -3.66499
v -3.97493 114.83 -1.44937
v -2.38516 116.44 -0.869412
v -4.2309 114.83 -0.002171
v -2.53853 116.44 -0.001095
v -3.97655 114.83 1.44503
v -2.38625 116.44 0.867229
v -3.24269 114.83 2.71781
v -1.94562 116.44 1.63079
v -2.11733 114.83 3.66281
v -1.27062 116.44 2.19779
v -0.737094 114.83 4.16609
v -0.442248 116.44 2.50019
v 0.732251 114.83 4.16717
v 0.439573 116.44 2.50073
v 2.11302 114.83 3.66551
v 1.26793 116.44 2.19941
v 3.23947 114.83 2.72159
v 1.94346 116.44 1.63295
v 3.97494 114.83 1.44934
v 2.38519 116.44 0.86993
v 4.23091 114.83 0.002689
v 2.53854 116.44 0.001606
v 3.97657 114.83 -1.44451
v 2.38574 116.44 -0.866711
v 3.24217 114.83 -2.71783
v 1.94563 116.44 -1.63081
v 2.11735 114.83 -3.66284
v 1.27063 116.44 -2.19781
v 0.737104 114.83 -4.16611
v 0.442273 116.44 -2.49968
v -0.732241 114.83 -4.16665
v -0.439547 116.44 -2.50021
v -2.11356 114.83 -3.66499
v -1.26845 116.44 -2.19889
v -10.7957 6.93862 -9.06877
v -13.2467 6.93862 -4.82977
v -13.2467 98.5468 -4.82977
v -10.7957 98.5468 -9.06877
v -14.0994 6.93862 -0.007572
v -14.0994 98.5468 -0.007572
v -13.2521 6.93862 4.81517
v -13.2521 98.5468 4.81517
v -10.8059 6.93862 9.05686
v -10.8059 98.5468 9.05686
v -7.0567 6.93862 12.2067
v -7.0567 98.5468 12.2067
v -2.45645 6.93862 13.8839
v -2.45645 98.5468 13.8839
v 2.44027 6.93862 13.8866
v 2.44027 98.5468 13.8866
v 7.04269 6.93862 12.2148
v 7.04269 98.5468 12.2148
v 10.7957 6.93862 9.06929
v 10.7957 98.5468 9.06929
v 13.2462 6.93862 4.82975
v 13.2462 98.5468 4.82975
v 14.0994 6.93862 0.008091
v 14.0994 98.5468 0.008091
v 13.2516 6.93862 -4.81466
v 13.2516 98.5468 -4.81466
v 10.8059 6.93862 -9.0569
v 10.8059 98.5468 -9.0569
v 7.0562 6.93862 -12.2067
v 7.0562 98.5468 -12.2067
v 2.45593 6.93862 -13.884
v 2.45593 98.5468 -13.884
v -2.44078 6.93862 -13.8867
v -2.44078 98.5468 -13.8867
v -7.04321 6.93862 -12.2143
v -7.04321 98.5468 -12.2143
v -7.04321 6.93862 -12.2143
v -7.04321 98.5468 -12.2143
v -10.5845 -0 -3.85885
v -8.62595 -0 -7.24627
v 1.3e-05 -0 -1.2e-05
v -11.266 -0 -0.005955
v -10.5883 -0 3.84748
v -8.63405 -0 7.23653
v -5.63812 -0 9.75347
v -1.96236 -0 11.0937
v 1.94995 -0 11.0959
v 5.62735 -0 9.75941
v 8.62596 -0 7.24625
v 10.584 -0 3.85937
v 11.2655 -0 0.006466
v 10.5883 -0 -3.84697
v 8.63406 -0 -7.23655
v 5.63813 -0 -9.75296
v 1.96237 -0 -11.0932
v -1.94992 -0 -11.0954
v -5.62732 -0 -9.75943
v -8.62595 3.29763 -7.24627
v -10.5845 3.29763 -3.85885
v -13.2467 6.93862 -4.82977
v -10.7957 6.93862 -9.06877
v -11.266 3.29763 -0.005955
v -14.0994 6.93862 -0.007572
v -10.5883 3.29763 3.84748
v -13.2521 6.93862 4.81517
v -8.63405 3.29763 7.23653
v -10.8059 6.93862 9.05686
v -5.63812 3.29763 9.75347
v -7.0567 6.93862 12.2067
v -1.96236 3.29763 11.0937
v -2.45645 6.93862 13.8839
v 1.94995 3.29763 11.0959
v 2.44027 6.93862 13.8866
v 5.62735 3.29763 9.75941
v 7.04269 6.93862 12.2148
v 8.62596 3.29763 7.24625
v 10.7957 6.93862 9.06929
v 10.584 3.29763 3.85937
v 13.2462 6.93862 4.82975
v 11.2655 3.29763 0.006466
v 14.0994 6.93862 0.008091
v 10.5883 3.29763 -3.84697
v 13.2516 6.93862 -4.81466
v 8.63406 3.29763 -7.23655
v 10.8059 6.93862 -9.0569
v 5.63813 3.29763 -9.75296
v 7.0562 6.93862 -12.2067
v 1.96237 3.29763 -11.0932
v 2.45593 6.93862 -13.884
v -1.94992 3.29763 -11.0954
v -2.44078 6.93862 -13.8867
v -5.62732 3.29763 -9.75943
v -7.04321 6.93862 -12.2143
v -5.62732 3.29763 -9.75943
v -7.04321 6.93862 -12.2143
v -10.2206 103.095 -8.58547
v -10.7957 98.5468 -9.06877
v -13.2467 98.5468 -4.82977
v -12.541 103.095 -4.57219
v -8.58275 106.951 -7.20955
v -10.5311 106.951 -3.83941
v -3.23944 110.432 -2.72107
v -6.13115 109.527 -5.15053
v -7.52327 109.527 -2.74267
v -3.97493 110.432 -1.44937
v -14.0994 98.5468 -0.007572
v -13.3483 103.095 -0.007572
v -11.2093 106.951 -0.005955
v -8.00765 109.527 -0.00433
v -4.2309 110.432 -0.002171
v -13.2521 98.5468 4.81517
v -12.5458 103.095 4.55867
v -10.5354 106.951 3.82804
v -7.52597 109.527 2.73455
v -3.97655 110.432 1.44503
v -10.8059 98.5468 9.05686
v -10.2303 103.095 8.57465
v -8.59085 106.951 7.20035
v -6.13709 109.527 5.14349
v -3.24269 110.432 2.71781
v -7.0567 98.5468 12.2067
v -6.68086 103.095 11.5565
v -5.61005 106.951 9.70433
v -4.00788 109.527 6.93251
v -2.11733 110.432 3.66281
v -2.45645 98.5468 13.8839
v -2.32524 103.095 13.1441
v -1.95264 106.951 11.0376
v -1.39481 109.527 7.88507
v -0.737094 110.432 4.16609
v 2.44027 98.5468 13.8866
v 2.31067 103.095 13.1468
v 1.94023 106.951 11.0398
v 1.38618 109.527 7.88669
v 0.732251 110.432 4.16717
v 7.04269 98.5468 12.2148
v 6.66739 103.095 11.5635
v 5.59927 106.951 9.71027
v 3.99978 109.527 6.93682
v 2.11302 110.432 3.66551
v -6.66791 103.095 -11.5636
v -7.04321 98.5468 -12.2143
v -5.59925 106.951 -9.71029
v -3.99977 109.527 -6.93686
v -2.11356 110.432 -3.66499
v 6.66739 103.095 11.5635
v 7.04269 98.5468 12.2148
v 10.7957 98.5468 9.06929
v 10.2206 103.095 8.58599
v 5.59927 106.951 9.71027
v 8.58278 106.951 7.21007
v 2.11302 110.432 3.66551
v 3.99978 109.527 6.93682
v 6.13116 109.527 5.15051
v 3.23947 110.432 2.72159
v 13.2462 98.5468 4.82975
v 12.5404 103.095 4.5727
v 10.5305 106.951 3.83993
v 7.52275 109.527 2.74319
v 3.97494 110.432 1.44934
v 14.0994 98.5468 0.008091
v 13.3483 103.095 0.007549
v 11.2088 106.951 0.006466
v 8.00714 109.527 0.004307
v 4.23091 110.432 0.002689
v 13.2516 98.5468 -4.81466
v 12.5458 103.095 -4.55816
v 10.5349 106.951 -3.82753
v 7.52598 109.527 -2.73457
v 3.97657 110.432 -1.44451
v 10.8059 98.5468 -9.0569
v 10.2303 103.095 -8.57413
v 8.59033 106.951 -7.20037
v 6.13656 109.527 -5.14351
v 3.24217 110.432 -2.71783
v 7.0562 98.5468 -12.2067
v 6.68036 103.095 -11.556
v 5.61006 106.951 -9.70381
v 4.00734 109.527 -6.93254
v 2.11735 110.432 -3.66284
v 2.45593 98.5468 -13.884
v 2.32525 103.095 -13.1441
v 1.95265 106.951 -11.0376
v 1.39483 109.527 -7.88509
v 0.737104 110.432 -4.16611
v -2.44078 98.5468 -13.8867
v -2.31066 103.095 -13.1469
v -1.9402 106.951 -11.0398
v -1.38617 109.527 -7.88617
v -0.732241 110.432 -4.16665
v -7.04321 98.5468 -12.2143
v -6.66791 103.095 -11.5636
v -5.59925 106.951 -9.71029
v -3.99977 109.527 -6.93686
v -2.11356 110.432 -3.66499
v -3.23944 110.432 -2.72107
v -3.97493 110.432 -1.44937
v -3.97493 114.83 -1.44937
v -3.23944 114.83 -2.72107
v -4.2309 110.432 -0.002171
v -4.2309 114.83 -0.002171
v -3.97655 110.432 1.44503
v -3.97655 114.83 1.44503
v -3.24269 110.432 2.71781
v -3.24269 114.83 2.71781
v -2.11733 110.432 3.66281
v -2.11733 114.83 3.66281
v -0.737094 110.432 4.16609
v -0.737094 114.83 4.16609
v 0.732251 110.432 4.16717
v 0.732251 114.83 4.16717
v 2.11302 110.432 3.66551
v 2.11302 114.83 3.66551
v 3.23947 110.432 2.72159
v 3.23947 114.83 2.72159
v 3.97494 110.432 1.44934
v 3.97494 114.83 1.44934
v 4.23091 110.432 0.002689
v 4.23091 114.83 0.002689
v 3.97657 110.432 -1.44451
v 3.97657 114.83 -1.44451
v 3.24217 110.432 -2.71783
v 3.24217 114.83 -2.71783
v 2.11735 110.432 -3.66284
v 2.11735 114.83 -3.66284
v 0.737104 110.432 -4.16611
v 0.737104 114.83 -4.16611
v -0.732241 110.432 -4.16665
v -0.732241 114.83 -4.16665
v -2.11356 110.432 -3.66499
v -2.11356 114.83 -3.66499
v -2.11356 110.432 -3.66499
v -2.11356 114.83 -3.66499
v -1.94399 116.44 -1.63298
v -2.38516 116.44 -0.869412
v 1.3e-05 116.44 -1.2e-05
v -1.26845 116.44 -2.19889
v -2.53853 116.44 -0.001095
v -2.38625 116.44 0.867229
v -1.94562 116.44 1.63079
v -1.27062 116.44 2.19779
v -0.442248 116.44 2.50019
v 0.439573 116.44 2.50073
v 1.26793 116.44 2.19941
v 1.94346 116.44 1.63295
v 2.38519 116.44 0.86993
v 2.53854 116.44 0.001606
v 2.38574 116.44 -0.866711
v 1.94563 116.44 -1.63081
v 1.27063 116.44 -2.19781
v 0.442273 116.44 -2.49968
v -0.439547 116.44 -2.50021
v -8.62595 -0 -7.24627
v -10.5845 -0 -3.85885
v -10.5845 3.29763 -3.85885
v -8.62595 3.29763 -7.24627
v -11.266 -0 -0.005955
v -11.266 3.29763 -0.005955
v -10.5883 -0 3.84748
v -10.5883 3.29763 3.84748
v -8.63405 -0 7.23653
v -8.63405 3.29763 7.23653
v -5.63812 -0 9.75347
v -5.63812 3.29763 9.75347
v -5.63812 -0 9.75347
v -1.96236 -0 11.0937
v -1.96236 3.29763 11.0937
v 1.94995 -0 11.0959
v 1.94995 3.29763 11.0959
v 5.62735 -0 9.75941
v 5.62735 3.29763 9.75941
v 8.62596 -0 7.24625
v 8.62596 3.29763 7.24625
v 8.62596 -0 7.24625
v 10.584 -0 3.85937
v 10.584 3.29763 3.85937
v 11.2655 -0 0.006466
v 11.2655 3.29763 0.006466
v 10.5883 -0 -3.84697
v 10.5883 3.29763 -3.84697
v 8.63406 -0 -7.23655
v 8.63406 3.29763 -7.23655
v 5.63813 -0 -9.75296
v 5.63813 3.29763 -9.75296
v 1.96237 -0 -11.0932
v 1.96237 3.29763 -11.0932
v -1.94992 -0 -11.0954
v -1.94992 3.29763 -11.0954
v -5.62732 -0 -9.75943
v -5.62732 3.29763 -9.75943
v -5.62732 -0 -9.75943
v -5.62732 3.29763 -9.75943
vt 0.895424 0.547903
vt 0.895424 0.537653
vt 0.890431 0.537653
vt 0.890431 0.547903
vt 0.900446 0.547903
vt 0.900446 0.537653
vt 0.905318 0.547903
vt 0.905318 0.537653
vt 0.910168 0.547903
vt 0.910168 0.537653
vt 0.915009 0.547903
vt 0.915009 0.537653
vt 0.919848 0.547903
vt 0.919848 0.537653
vt 0.924685 0.547903
vt 0.924685 0.537653
vt 0.929522 0.547903
vt 0.929522 0.537653
vt 0.934359 0.547903
vt 0.934359 0.537653
vt 0.939196 0.547903
vt 0.939196 0.537653
vt 0.944032 0.547903
vt 0.944032 0.537653
vt 0.94887 0.547903
vt 0.94887 0.537653
vt 0.953708 0.547903
vt 0.953708 0.537653
vt 0.95855 0.547903
vt 0.95855 0.537653
vt 0.963399 0.547903
vt 0.963399 0.537653
vt 0.968271 0.547903
vt 0.968271 0.537653
vt 0.9732 0.547903
vt 0.9732 0.537653
vt 0.978286 0.547903
vt 0.978286 0.537653
vt 0.022998 0.998044
vt 0.043983 0.99804
vt 0.043924 0.605443
vt 0.022938 0.605446
vt 0.064969 0.998037
vt 0.064909 0.60544
vt 0.085954 0.998034
vt 0.085895 0.605436
vt 0.10694 0.998031
vt 0.10688 0.605433
vt 0.127925 0.998028
vt 0.127865 0.60543
vt 0.14891 0.998025
vt 0.148851 0.605427
vt 0.169896 0.998021
vt 0.169836 0.605424
vt 0.190881 0.998018
vt 0.190821 0.60542
vt 0.211866 0.998015
vt 0.211807 0.605417
vt 0.232852 0.998012
vt 0.232792 0.605414
vt 0.253837 0.998009
vt 0.253777 0.605411
vt 0.274823 0.998005
vt 0.274763 0.605408
vt 0.295808 0.998002
vt 0.295748 0.605404
vt 0.316793 0.997999
vt 0.316734 0.605401
vt 0.337779 0.997996
vt 0.337719 0.605398
vt 0.358764 0.997993
vt 0.358704 0.605395
vt 0.379749 0.997989
vt 0.37969 0.605392
vt 0.002013 0.998047
vt 0.001953 0.605449
vt 0.786042 0.756563
vt 0.796821 0.769407
vt 0.827853 0.73242
vt 0.780307 0.740806
vt 0.780306 0.724039
vt 0.78604 0.708282
vt 0.796818 0.695437
vt 0.811338 0.687052
vt 0.827851 0.68414
vt 0.844364 0.687051
vt 0.858886 0.695434
vt 0.869664 0.708278
vt 0.8754 0.724034
vt 0.875401 0.740802
vt 0.869667 0.756559
vt 0.858889 0.769404
vt 0.844368 0.777789
vt 0.827856 0.780701
vt 0.811342 0.77779
vt 0.686783 0.017174
vt 0.66806 0.017174
vt 0.66806 0.036967
vt 0.686783 0.036967
vt 0.649356 0.017174
vt 0.649356 0.036967
vt 0.630643 0.017174
vt 0.630643 0.036967
vt 0.611919 0.017174
vt 0.611919 0.036967
vt 0.593186 0.017174
vt 0.593186 0.036967
vt 0.574447 0.017174
vt 0.574447 0.036967
vt 0.555705 0.017174
vt 0.555705 0.036967
vt 0.536961 0.017174
vt 0.536961 0.036967
vt 0.518217 0.017174
vt 0.518217 0.036967
vt 0.499475 0.017174
vt 0.499475 0.036967
vt 0.480737 0.017174
vt 0.480737 0.036967
vt 0.462005 0.017174
vt 0.462005 0.036967
vt 0.443282 0.017174
vt 0.443282 0.036967
vt 0.424569 0.017174
vt 0.424569 0.036967
vt 0.405865 0.017174
vt 0.405865 0.036967
vt 0.387141 0.017174
vt 0.387141 0.036967
vt 0.368207 0.017174
vt 0.368207 0.036967
vt 0.705714 0.017174
vt 0.705714 0.036967
vt 0.426952 0.773108
vt 0.426952 0.793577
vt 0.442106 0.793577
vt 0.442106 0.773108
vt 0.426952 0.753602
vt 0.442106 0.753602
vt 0.426952 0.718597
vt 0.426952 0.735548
vt 0.442106 0.735548
vt 0.442106 0.718597
vt 0.457689 0.793577
vt 0.457689 0.773108
vt 0.457689 0.753602
vt 0.457689 0.735548
vt 0.457689 0.718597
vt 0.473517 0.793577
vt 0.473517 0.773108
vt 0.473517 0.753602
vt 0.473517 0.735548
vt 0.473517 0.718597
vt 0.489252 0.793577
vt 0.489252 0.773108
vt 0.489252 0.753602
vt 0.489252 0.735548
vt 0.489252 0.718597
vt 0.505041 0.793577
vt 0.505041 0.773108
vt 0.505041 0.753602
vt 0.505041 0.735548
vt 0.505041 0.718597
vt 0.520625 0.793577
vt 0.520625 0.773108
vt 0.520625 0.753602
vt 0.520625 0.735548
vt 0.520625 0.718597
vt 0.535776 0.793577
vt 0.535776 0.773108
vt 0.535776 0.753602
vt 0.535776 0.735548
vt 0.535776 0.718597
vt 0.550167 0.793577
vt 0.550167 0.773108
vt 0.550167 0.753602
vt 0.550167 0.735548
vt 0.550167 0.718597
vt 0.412557 0.773108
vt 0.412557 0.793577
vt 0.412557 0.753602
vt 0.412557 0.735548
vt 0.412557 0.718597
vt 0.775821 0.837213
vt 0.775821 0.857682
vt 0.790217 0.857682
vt 0.790217 0.837213
vt 0.775821 0.817707
vt 0.790217 0.817707
vt 0.775821 0.782702
vt 0.775821 0.799653
vt 0.790217 0.799653
vt 0.790217 0.782702
vt 0.80537 0.857682
vt 0.80537 0.837213
vt 0.80537 0.817707
vt 0.80537 0.799653
vt 0.80537 0.782702
vt 0.820953 0.857682
vt 0.820953 0.837213
vt 0.820953 0.817707
vt 0.820953 0.799653
vt 0.820953 0.782702
vt 0.836781 0.857682
vt 0.836781 0.837213
vt 0.836781 0.817707
vt 0.836781 0.799653
vt 0.836781 0.782702
vt 0.852516 0.857682
vt 0.852516 0.837213
vt 0.852516 0.817707
vt 0.852516 0.799653
vt 0.852516 0.782702
vt 0.868305 0.857682
vt 0.868305 0.837213
vt 0.868305 0.817707
vt 0.868305 0.799653
vt 0.868305 0.782702
vt 0.88389 0.857682
vt 0.88389 0.837213
vt 0.88389 0.817707
vt 0.88389 0.799653
vt 0.88389 0.782702
vt 0.899041 0.857682
vt 0.899041 0.837213
vt 0.899041 0.817707
vt 0.899041 0.799653
vt 0.899041 0.782702
vt 0.913431 0.857682
vt 0.913431 0.837213
vt 0.913431 0.817707
vt 0.913431 0.799653
vt 0.913431 0.782702
vt 0.415867 0.716595
vt 0.422164 0.716594
vt 0.422161 0.697745
vt 0.415864 0.697747
vt 0.428461 0.716593
vt 0.428458 0.697744
vt 0.434758 0.716592
vt 0.434755 0.697744
vt 0.441055 0.716591
vt 0.441052 0.697743
vt 0.447352 0.71659
vt 0.447349 0.697742
vt 0.453649 0.716589
vt 0.453646 0.697741
vt 0.459946 0.716588
vt 0.459943 0.69774
vt 0.466244 0.716587
vt 0.466241 0.697739
vt 0.472541 0.716586
vt 0.472538 0.697738
vt 0.478838 0.716585
vt 0.478835 0.697737
vt 0.485135 0.716584
vt 0.485132 0.697736
vt 0.491432 0.716583
vt 0.491429 0.697735
vt 0.497729 0.716582
vt 0.497726 0.697734
vt 0.504026 0.716581
vt 0.504023 0.697733
vt 0.510323 0.71658
vt 0.51032 0.697732
vt 0.51662 0.716579
vt 0.516617 0.697731
vt 0.522917 0.716578
vt 0.522914 0.69773
vt 0.40957 0.716596
vt 0.409567 0.697747
vt 0.860794 0.965888
vt 0.863194 0.968806
vt 0.870269 0.960541
vt 0.859536 0.962325
vt 0.866448 0.970728
vt 0.870162 0.97142
vt 0.87389 0.970801
vt 0.87718 0.968943
vt 0.879637 0.966073
vt 0.880964 0.962535
vt 0.881001 0.958757
vt 0.879744 0.955194
vt 0.877344 0.952275
vt 0.87409 0.950354
vt 0.870375 0.949662
vt 0.866648 0.950281
vt 0.863358 0.952138
vt 0.8609 0.955009
vt 0.859573 0.958547
vt 0.702894 0.39672
vt 0.719662 0.396719
vt 0.719662 0.382587
vt 0.702894 0.382587
vt 0.73643 0.396719
vt 0.736429 0.382586
vt 0.753197 0.396718
vt 0.753197 0.382586
vt 0.769965 0.396717
vt 0.769965 0.382585
vt 0.786733 0.396717
vt 0.786732 0.382584
vt 0.786733 0.396717
vt 0.8035 0.396716
vt 0.8035 0.382584
vt 0.820268 0.396716
vt 0.820267 0.382583
vt 0.837036 0.396715
vt 0.837035 0.382583
vt 0.853803 0.396715
vt 0.853803 0.382582
vt 0.853803 0.396715
vt 0.870571 0.396714
vt 0.870571 0.382582
vt 0.887339 0.396713
vt 0.887338 0.382581
vt 0.904106 0.396713
vt 0.904106 0.38258
vt 0.920874 0.396712
vt 0.920874 0.38258
vt 0.937642 0.396712
vt 0.937641 0.382579
vt 0.954409 0.396711
vt 0.954409 0.382579
vt 0.971177 0.396711
vt 0.971177 0.382578
vt 0.987945 0.39671
vt 0.987944 0.382578
vt 0.686127 0.39672
vt 0.686126 0.382588
vn -0.747327 0.217664 -0.627793
vn -0.339186 0.896529 -0.284935
vn -0.221276 0.896531 -0.383758
vn -0.48754 0.217666 -0.845533
vn -0.916976 0.217665 -0.33433
vn -0.416185 0.89653 -0.151738
vn -0.976023 0.217667 -0.000546
vn -0.442983 0.89653 -0.000246
vn -0.917348 0.217668 0.333307
vn -0.416352 0.896531 0.151274
vn -0.748026 0.217666 0.626959
vn -0.339501 0.896532 0.284551
vn -0.488483 0.217667 0.844989
vn -0.221706 0.896531 0.383508
vn -0.170021 0.217666 0.961101
vn -0.077167 0.89653 0.436209
vn 0.168949 0.217666 0.96129
vn 0.07668 0.896529 0.436298
vn 0.487541 0.217667 0.845532
vn 0.221277 0.89653 0.383759
vn 0.747327 0.217664 0.627793
vn 0.339184 0.89653 0.284936
vn 0.916976 0.217663 0.334331
vn 0.416185 0.896529 0.151742
vn 0.976024 0.217664 0.000546
vn 0.442985 0.896529 0.000245
vn 0.917348 0.217667 -0.333308
vn 0.416352 0.89653 -0.151277
vn 0.748025 0.217668 -0.62696
vn 0.339502 0.896531 -0.284553
vn 0.488483 0.217667 -0.844988
vn 0.221706 0.89653 -0.38351
vn 0.17002 0.217666 -0.961101
vn 0.077165 0.89653 -0.43621
vn -0.168949 0.217667 -0.961289
vn -0.076681 0.896529 -0.436297
vn -0.48754 0.217666 -0.845533
vn -0.221276 0.896531 -0.383758
vn -0.765445 -0.025088 -0.643012
vn -0.939206 -0.025088 -0.342436
vn -0.939476 0.007483 -0.342534
vn -0.765665 0.007483 -0.643196
vn -0.999685 -0.025088 -0.000558
vn -0.999972 0.007483 -0.000558
vn -0.939588 -0.025088 0.341388
vn -0.939857 0.007483 0.341486
vn -0.766161 -0.025088 0.642158
vn -0.766381 0.007483 0.642343
vn -0.500326 -0.025088 0.865474
vn -0.500469 0.007483 0.865722
vn -0.174142 -0.025088 0.984401
vn -0.174192 0.007483 0.984683
vn 0.173045 -0.025088 0.984594
vn 0.173094 0.007483 0.984877
vn 0.49936 -0.025088 0.866031
vn 0.499503 0.007483 0.86628
vn 0.765445 -0.025088 0.643012
vn 0.765665 0.007483 0.643196
vn 0.939206 -0.025088 0.342436
vn 0.939476 0.007483 0.342534
vn 0.999685 -0.025088 0.000558
vn 0.999972 0.007482 0.000558
vn 0.939588 -0.025088 -0.341388
vn 0.939857 0.007483 -0.341486
vn 0.766161 -0.025088 -0.642159
vn 0.766381 0.007483 -0.642343
vn 0.500325 -0.025088 -0.865474
vn 0.500468 0.007483 -0.865723
vn 0.174142 -0.025088 -0.984401
vn 0.174192 0.007483 -0.984683
vn -0.173044 -0.025088 -0.984595
vn -0.173094 0.007483 -0.984877
vn -0.49936 -0.025088 -0.866031
vn -0.499503 0.007483 -0.86628
vn -0.49936 -0.025088 -0.866031
vn -0.499503 0.007483 -0.86628
vn -0.293858 -0.949825 -0.107141
vn -0.239492 -0.949825 -0.201185
vn 0 -1 -0
vn -0.31278 -0.949826 -0.000175
vn -0.293977 -0.949826 0.106813
vn -0.239716 -0.949825 0.200918
vn -0.156541 -0.949826 0.270788
vn -0.054486 -0.949826 0.307997
vn 0.054142 -0.949826 0.308059
vn 0.156239 -0.949826 0.270962
vn 0.239492 -0.949825 0.201185
vn 0.293858 -0.949825 0.107141
vn 0.31278 -0.949826 0.000175
vn 0.293977 -0.949826 -0.106813
vn 0.239715 -0.949826 -0.200917
vn 0.156541 -0.949826 -0.270788
vn 0.054485 -0.949826 -0.307997
vn -0.054142 -0.949825 -0.308059
vn -0.15624 -0.949825 -0.270963
vn -0.699832 -0.405728 -0.587894
vn -0.858699 -0.405728 -0.313083
vn -0.939206 -0.025088 -0.342436
vn -0.765445 -0.025088 -0.643012
vn -0.913993 -0.405729 -0.00051
vn -0.999685 -0.025088 -0.000558
vn -0.859048 -0.405727 0.312125
vn -0.939588 -0.025088 0.341388
vn -0.700488 -0.405728 0.587113
vn -0.766161 -0.025088 0.642158
vn -0.457438 -0.405728 0.791287
vn -0.500326 -0.025088 0.865474
vn -0.159216 -0.405728 0.90002
vn -0.174142 -0.025088 0.984401
vn 0.158211 -0.405728 0.900197
vn 0.173045 -0.025088 0.984594
vn 0.456556 -0.405729 0.791796
vn 0.49936 -0.025088 0.866031
vn 0.699832 -0.405729 0.587894
vn 0.765445 -0.025088 0.643012
vn 0.858699 -0.405728 0.313083
vn 0.939206 -0.025088 0.342436
vn 0.913994 -0.405728 0.00051
vn 0.999685 -0.025088 0.000558
vn 0.859047 -0.405729 -0.312124
vn 0.939588 -0.025088 -0.341388
vn 0.700487 -0.405729 -0.587113
vn 0.766161 -0.025088 -0.642159
vn 0.457437 -0.405728 -0.791287
vn 0.500325 -0.025088 -0.865474
vn 0.159215 -0.405728 -0.90002
vn 0.174142 -0.025088 -0.984401
vn -0.158211 -0.405728 -0.900197
vn -0.173044 -0.025088 -0.984595
vn -0.456556 -0.405729 -0.791796
vn -0.49936 -0.025088 -0.866031
vn -0.456556 -0.405729 -0.791796
vn -0.49936 -0.025088 -0.866031
vn -0.727917 0.310195 -0.611487
vn -0.765665 0.007483 -0.643196
vn -0.939476 0.007483 -0.342534
vn -0.893159 0.310194 -0.325647
vn -0.606855 0.609789 -0.509789
vn -0.744616 0.609788 -0.271488
vn -0.532053 0.719134 -0.446951
vn -0.388644 0.861607 -0.326481
vn -0.476869 0.861607 -0.173867
vn -0.652832 0.719135 -0.238024
vn -0.999972 0.007483 -0.000558
vn -0.950673 0.310194 -0.000531
vn -0.792564 0.609789 -0.000442
vn -0.507575 0.861607 -0.000282
vn -0.69487 0.719135 -0.000388
vn -0.939857 0.007483 0.341486
vn -0.893522 0.310193 0.324651
vn -0.744917 0.60979 0.270658
vn -0.477062 0.861607 0.173336
vn -0.653097 0.719135 0.237295
vn -0.766381 0.007483 0.642343
vn -0.728599 0.310193 0.610675
vn -0.607423 0.609789 0.509111
vn -0.389008 0.861607 0.326046
vn -0.53255 0.719135 0.446357
vn -0.500469 0.007483 0.865722
vn -0.475795 0.310195 0.823042
vn -0.396665 0.609789 0.686159
vn -0.254033 0.861607 0.439432
vn -0.347771 0.719134 0.601583
vn -0.174192 0.007483 0.984683
vn -0.165605 0.310194 0.936138
vn -0.138063 0.609789 0.780446
vn -0.088419 0.861607 0.499815
vn -0.121045 0.719133 0.684248
vn 0.173094 0.007483 0.984877
vn 0.164561 0.310194 0.936322
vn 0.137192 0.609791 0.780598
vn 0.087861 0.861608 0.499912
vn 0.120282 0.719134 0.684382
vn 0.499503 0.007483 0.86628
vn 0.474878 0.310195 0.823572
vn 0.395899 0.609791 0.6866
vn 0.253543 0.861607 0.439714
vn 0.347101 0.719134 0.60197
vn -0.474877 0.310195 -0.823572
vn -0.499503 0.007483 -0.86628
vn -0.395899 0.60979 -0.686601
vn -0.253543 0.861607 -0.439715
vn -0.3471 0.719134 -0.60197
vn 0.474878 0.310195 0.823572
vn 0.499503 0.007483 0.86628
vn 0.765665 0.007483 0.643196
vn 0.727917 0.310195 0.611487
vn 0.395899 0.609791 0.6866
vn 0.606854 0.60979 0.509789
vn 0.347101 0.719134 0.60197
vn 0.253543 0.861607 0.439714
vn 0.388645 0.861606 0.326481
vn 0.532055 0.719133 0.446951
vn 0.939476 0.007483 0.342534
vn 0.89316 0.310193 0.325647
vn 0.744615 0.609789 0.271488
vn 0.476869 0.861607 0.173868
vn 0.652833 0.719134 0.238025
vn 0.999972 0.007482 0.000558
vn 0.950674 0.310192 0.00053
vn 0.792564 0.609789 0.000441
vn 0.507576 0.861607 0.000283
vn 0.694871 0.719134 0.00039
vn 0.939857 0.007483 -0.341486
vn 0.893522 0.310193 -0.324651
vn 0.744917 0.60979 -0.270657
vn 0.477062 0.861607 -0.173335
vn 0.653098 0.719134 -0.237295
vn 0.766381 0.007483 -0.642343
vn 0.728598 0.310194 -0.610675
vn 0.607423 0.60979 -0.509111
vn 0.389007 0.861607 -0.326046
vn 0.532551 0.719134 -0.446359
vn 0.500468 0.007483 -0.865723
vn 0.475795 0.310194 -0.823043
vn 0.396664 0.609789 -0.686159
vn 0.254033 0.861607 -0.439432
vn 0.347772 0.719133 -0.601583
vn 0.174192 0.007483 -0.984683
vn 0.165605 0.310194 -0.936138
vn 0.138062 0.60979 -0.780446
vn 0.088418 0.861608 -0.499814
vn 0.121044 0.719134 -0.684247
vn -0.173094 0.007483 -0.984877
vn -0.164561 0.310194 -0.936322
vn -0.137192 0.609791 -0.780598
vn -0.087861 0.861607 -0.499913
vn -0.120281 0.719135 -0.684381
vn -0.499503 0.007483 -0.86628
vn -0.474877 0.310195 -0.823572
vn -0.395899 0.60979 -0.686601
vn -0.253543 0.861607 -0.439715
vn -0.3471 0.719134 -0.60197
vn -0.532053 0.719134 -0.446951
vn -0.652832 0.719135 -0.238024
vn -0.916976 0.217665 -0.33433
vn -0.747327 0.217664 -0.627793
vn -0.69487 0.719135 -0.000388
vn -0.976023 0.217667 -0.000546
vn -0.653097 0.719135 0.237295
vn -0.917348 0.217668 0.333307
vn -0.53255 0.719135 0.446357
vn -0.748026 0.217666 0.626959
vn -0.347771 0.719134 0.601583
vn -0.488483 0.217667 0.844989
vn -0.121045 0.719133 0.684248
vn -0.170021 0.217666 0.961101
vn 0.120282 0.719134 0.684382
vn 0.168949 0.217666 0.96129
vn 0.347101 0.719134 0.60197
vn 0.487541 0.217667 0.845532
vn 0.532055 0.719133 0.446951
vn 0.747327 0.217664 0.627793
vn 0.652833 0.719134 0.238025
vn 0.916976 0.217663 0.334331
vn 0.694871 0.719134 0.00039
vn 0.976024 0.217664 0.000546
vn 0.653098 0.719134 -0.237295
vn 0.917348 0.217667 -0.333308
vn 0.532551 0.719134 -0.446359
vn 0.748025 0.217668 -0.62696
vn 0.347772 0.719133 -0.601583
vn 0.488483 0.217667 -0.844988
vn 0.121044 0.719134 -0.684247
vn 0.17002 0.217666 -0.961101
vn -0.120281 0.719135 -0.684381
vn -0.168949 0.217667 -0.961289
vn -0.3471 0.719134 -0.60197
vn -0.48754 0.217666 -0.845533
vn -0.3471 0.719134 -0.60197
vn -0.48754 0.217666 -0.845533
vn -0.339186 0.896529 -0.284935
vn -0.416185 0.89653 -0.151738
vn 0 1 0
vn -0.221276 0.896531 -0.383758
vn -0.442983 0.89653 -0.000246
vn -0.416352 0.896531 0.151274
vn -0.339501 0.896532 0.284551
vn -0.221706 0.896531 0.383508
vn -0.077167 0.89653 0.436209
vn 0.07668 0.896529 0.436298
vn 0.221277 0.89653 0.383759
vn 0.339184 0.89653 0.284936
vn 0.416185 0.896529 0.151742
vn 0.442985 0.896529 0.000245
vn 0.416352 0.89653 -0.151277
vn 0.339502 0.896531 -0.284553
vn 0.221706 0.89653 -0.38351
vn 0.077165 0.89653 -0.43621
vn -0.076681 0.896529 -0.436297
vn -0.239492 -0.949825 -0.201185
vn -0.293858 -0.949825 -0.107141
vn -0.858699 -0.405728 -0.313083
vn -0.699832 -0.405728 -0.587894
vn -0.31278 -0.949826 -0.000175
vn -0.913993 -0.405729 -0.00051
vn -0.293977 -0.949826 0.106813
vn -0.859048 -0.405727 0.312125
vn -0.239716 -0.949825 0.200918
vn -0.700488 -0.405728 0.587113
vn -0.156541 -0.949826 0.270788
vn -0.457438 -0.405728 0.791287
vn -0.156541 -0.949826 0.270788
vn -0.054486 -0.949826 0.307997
vn -0.159216 -0.405728 0.90002
vn 0.054142 -0.949826 0.308059
vn 0.158211 -0.405728 0.900197
vn 0.156239 -0.949826 0.270962
vn 0.456556 -0.405729 0.791796
vn 0.239492 -0.949825 0.201185
vn 0.699832 -0.405729 0.587894
vn 0.239492 -0.949825 0.201185
vn 0.293858 -0.949825 0.107141
vn 0.858699 -0.405728 0.313083
vn 0.31278 -0.949826 0.000175
vn 0.913994 -0.405728 0.00051
vn 0.293977 -0.949826 -0.106813
vn 0.859047 -0.405729 -0.312124
vn 0.239715 -0.949826 -0.200917
vn 0.700487 -0.405729 -0.587113
vn 0.156541 -0.949826 -0.270788
vn 0.457437 -0.405728 -0.791287
vn 0.054485 -0.949826 -0.307997
vn 0.159215 -0.405728 -0.90002
vn -0.054142 -0.949825 -0.308059
vn -0.158211 -0.405728 -0.900197
vn -0.15624 -0.949825 -0.270963
vn -0.456556 -0.405729 -0.791796
vn -0.15624 -0.949825 -0.270963
vn -0.456556 -0.405729 -0.791796

g polySurface70_0
usemtl lowpoly_scifi_containers_pack1:Drum_S
f 1/1/1 2/2/2 3/3/3
f 1/1/1 3/3/3 4/4/4
f 2/2/2 1/1/1 5/5/5
f 2/2/2 5/5/5 6/6/6
f 6/6/6 5/5/5 7/7/7
f 6/6/6 7/7/7 8/8/8
f 8/8/8 7/7/7 9/9/9
f 8/8/8 9/9/9 10/10/10
f 10/10/10 9/9/9 11/11/11
f 10/10/10 11/11/11 12/12/12
f 12/12/12 11/11/11 13/13/13
f 12/12/12 13/13/13 14/14/14
f 14/14/14 13/13/13 15/15/15
f 14/14/14 15/15/15 16/16/16
f 16/16/16 15/15/15 17/17/17
f 16/16/16 17/17/17 18/18/18
f 18/18/18 17/17/17 19/19/19
f 18/18/18 19/19/19 20/20/20
f 20/20/20 19/19/19 21/21/21
f 20/20/20 21/21/21 22/22/22
f 22/22/22 21/21/21 23/23/23
f 22/22/22 23/23/23 24/24/24
f 24/24/24 23/23/23 25/25/25
f 24/24/24 25/25/25 26/26/26
f 26/26/26 25/25/25 27/27/27
f 26/26/26 27/27/27 28/28/28
f 28/28/28 27/27/27 29/29/29
f 28/28/28 29/29/29 30/30/30
f 30/30/30 29/29/29 31/31/31
f 30/30/30 31/31/31 32/32/32
f 32/32/32 31/31/31 33/33/33
f 32/32/32 33/33/33 34/34/34
f 34/34/34 33/33/33 35/35/35
f 34/34/34 35/35/35 36/36/36
f 36/36/36 35/35/35 37/37/37
f 36/36/36 37/37/37 38/38/38
f 39/39/39 40/40/40 41/41/41
f 39/39/39 41/41/41 42/42/42
f 40/40/40 43/43/43 44/44/44
f 40/40/40 44/44/44 41/41/41
f 43/43/43 45/45/45 46/46/46
f 43/43/43 46/46/46 44/44/44
f 45/45/45 47/47/47 48/48/48
f 45/45/45 48/48/48 46/46/46
f 47/47/47 49/49/49 50/50/50
f 47/47/47 50/50/50 48/48/48
f 49/49/49 51/51/51 52/52/52
f 49/49/49 52/52/52 50/50/50
f 51/51/51 53/53/53 54/54/54
f 51/51/51 54/54/54 52/52/52
f 53/53/53 55/55/55 56/56/56
f 53/53/53 56/56/56 54/54/54
f 55/55/55 57/57/57 58/58/58
f 55/55/55 58/58/58 56/56/56
f 57/57/57 59/59/59 60/60/60
f 57/57/57 60/60/60 58/58/58
f 59/59/59 61/61/61 62/62/62
f 59/59/59 62/62/62 60/60/60
f 61/61/61 63/63/63 64/64/64
f 61/61/61 64/64/64 62/62/62
f 63/63/63 65/65/65 66/66/66
f 63/63/63 66/66/66 64/64/64
f 65/65/65 67/67/67 68/68/68
f 65/65/65 68/68/68 66/66/66
f 67/67/67 69/69/69 70/70/70
f 67/67/67 70/70/70 68/68/68
f 69/69/69 71/71/71 72/72/72
f 69/69/69 72/72/72 70/70/70
f 71/71/71 73/73/73 74/74/74
f 71/71/71 74/74/74 72/72/72
f 75/75/75 39/39/39 42/42/42
f 75/75/75 42/42/42 76/76/76
f 77/77/77 78/78/78 79/79/79
f 77/77/77 79/79/79 80/80/80
f 81/81/81 80/80/80 79/79/79
f 81/81/81 79/79/79 82/82/82
f 83/83/83 82/82/82 79/79/79
f 83/83/83 79/79/79 84/84/84
f 85/85/85 84/84/84 79/79/79
f 85/85/85 79/79/79 86/86/86
f 87/87/87 86/86/86 79/79/79
f 88/88/88 87/87/87 79/79/79
f 88/88/88 79/79/79 89/89/89
f 89/89/89 79/79/79 90/90/90
f 91/91/91 90/90/90 79/79/79
f 91/91/91 79/79/79 92/92/92
f 93/93/93 92/92/92 79/79/79
f 93/93/93 79/79/79 94/94/94
f 95/95/95 94/94/94 79/79/79
f 95/95/95 79/79/79 78/78/78
f 96/96/96 97/97/97 98/98/98
f 96/96/96 98/98/98 99/99/99
f 97/97/97 100/100/100 101/101/101
f 97/97/97 101/101/101 98/98/98
f 100/100/100 102/102/102 103/103/103
f 100/100/100 103/103/103 101/101/101
f 102/102/102 104/104/104 105/105/105
f 102/102/102 105/105/105 103/103/103
f 104/104/104 106/106/106 107/107/107
f 104/104/104 107/107/107 105/105/105
f 106/106/106 108/108/108 109/109/109
f 106/106/106 109/109/109 107/107/107
f 108/108/108 110/110/110 111/111/111
f 108/108/108 111/111/111 109/109/109
f 110/110/110 112/112/112 113/113/113
f 110/110/110 113/113/113 111/111/111
f 112/112/112 114/114/114 115/115/115
f 112/112/112 115/115/115 113/113/113
f 114/114/114 116/116/116 117/117/117
f 114/114/114 117/117/117 115/115/115
f 116/116/116 118/118/118 119/119/119
f 116/116/116 119/119/119 117/117/117
f 118/118/118 120/120/120 121/121/121
f 118/118/118 121/121/121 119/119/119
f 120/120/120 122/122/122 123/123/123
f 120/120/120 123/123/123 121/121/121
f 122/122/122 124/124/124 125/125/125
f 122/122/122 125/125/125 123/123/123
f 124/124/124 126/126/126 127/127/127
f 124/124/124 127/127/127 125/125/125
f 126/126/126 128/128/128 129/129/129
f 126/126/126 129/129/129 127/127/127
f 128/128/128 130/130/130 131/131/131
f 128/128/128 131/131/131 129/129/129
f 132/132/132 96/96/96 99/99/99
f 132/132/132 99/99/99 133/133/133
f 134/134/134 135/135/135 136/136/136
f 134/134/134 136/136/136 137/137/137
f 138/138/138 134/134/134 137/137/137
f 138/138/138 137/137/137 139/139/139
f 140/140/140 141/141/141 142/142/142
f 140/140/140 142/142/142 143/143/143
f 141/141/141 138/138/138 139/139/139
f 141/141/141 139/139/139 142/142/142
f 137/137/137 136/136/136 144/144/144
f 137/137/137 144/144/144 145/145/145
f 139/139/139 137/137/137 145/145/145
f 139/139/139 145/145/145 146/146/146
f 143/143/143 142/142/142 147/147/147
f 143/143/143 147/147/147 148/148/148
f 142/142/142 139/139/139 146/146/146
f 142/142/142 146/146/146 147/147/147
f 145/145/145 144/144/144 149/149/149
f 145/145/145 149/149/149 150/150/150
f 146/146/146 145/145/145 150/150/150
f 146/146/146 150/150/150 151/151/151
f 148/148/148 147/147/147 152/152/152
f 148/148/148 152/152/152 153/153/153
f 147/147/147 146/146/146 151/151/151
f 147/147/147 151/151/151 152/152/152
f 150/150/150 149/149/149 154/154/154
f 150/150/150 154/154/154 155/155/155
f 151/151/151 150/150/150 155/155/155
f 151/151/151 155/155/155 156/156/156
f 153/153/153 152/152/152 157/157/157
f 153/153/153 157/157/157 158/158/158
f 152/152/152 151/151/151 156/156/156
f 152/152/152 156/156/156 157/157/157
f 155/155/155 154/154/154 159/159/159
f 155/155/155 159/159/159 160/160/160
f 156/156/156 155/155/155 160/160/160
f 156/156/156 160/160/160 161/161/161
f 158/158/158 157/157/157 162/162/162
f 158/158/158 162/162/162 163/163/163
f 157/157/157 156/156/156 161/161/161
f 157/157/157 161/161/161 162/162/162
f 160/160/160 159/159/159 164/164/164
f 160/160/160 164/164/164 165/165/165
f 161/161/161 160/160/160 165/165/165
f 161/161/161 165/165/165 166/166/166
f 163/163/163 162/162/162 167/167/167
f 163/163/163 167/167/167 168/168/168
f 162/162/162 161/161/161 166/166/166
f 162/162/162 166/166/166 167/167/167
f 165/165/165 164/164/164 169/169/169
f 165/165/165 169/169/169 170/170/170
f 166/166/166 165/165/165 170/170/170
f 166/166/166 170/170/170 171/171/171
f 168/168/168 167/167/167 172/172/172
f 168/168/168 172/172/172 173/173/173
f 167/167/167 166/166/166 171/171/171
f 167/167/167 171/171/171 172/172/172
f 170/170/170 169/169/169 174/174/174
f 170/170/170 174/174/174 175/175/175
f 171/171/171 170/170/170 175/175/175
f 171/171/171 175/175/175 176/176/176
f 173/173/173 172/172/172 177/177/177
f 173/173/173 177/177/177 178/178/178
f 172/172/172 171/171/171 176/176/176
f 172/172/172 176/176/176 177/177/177
f 135/135/135 134/134/134 179/179/179
f 135/135/135 179/179/179 180/180/180
f 134/134/134 138/138/138 181/181/181
f 134/134/134 181/181/181 179/179/179
f 138/138/138 141/141/141 182/182/182
f 138/138/138 182/182/182 181/181/181
f 141/141/141 140/140/140 183/183/183
f 141/141/141 183/183/183 182/182/182
f 184/184/184 185/185/185 186/186/186
f 184/184/184 186/186/186 187/187/187
f 188/188/188 184/184/184 187/187/187
f 188/188/188 187/187/187 189/189/189
f 190/190/190 191/191/191 192/192/192
f 190/190/190 192/192/192 193/193/193
f 191/191/191 188/188/188 189/189/189
f 191/191/191 189/189/189 192/192/192
f 187/187/187 186/186/186 194/194/194
f 187/187/187 194/194/194 195/195/195
f 189/189/189 187/187/187 195/195/195
f 189/189/189 195/195/195 196/196/196
f 193/193/193 192/192/192 197/197/197
f 193/193/193 197/197/197 198/198/198
f 192/192/192 189/189/189 196/196/196
f 192/192/192 196/196/196 197/197/197
f 195/195/195 194/194/194 199/199/199
f 195/195/195 199/199/199 200/200/200
f 196/196/196 195/195/195 200/200/200
f 196/196/196 200/200/200 201/201/201
f 198/198/198 197/197/197 202/202/202
f 198/198/198 202/202/202 203/203/203
f 197/197/197 196/196/196 201/201/201
f 197/197/197 201/201/201 202/202/202
f 200/200/200 199/199/199 204/204/204
f 200/200/200 204/204/204 205/205/205
f 201/201/201 200/200/200 205/205/205
f 201/201/201 205/205/205 206/206/206
f 203/203/203 202/202/202 207/207/207
f 203/203/203 207/207/207 208/208/208
f 202/202/202 201/201/201 206/206/206
f 202/202/202 206/206/206 207/207/207
f 205/205/205 204/204/204 209/209/209
f 205/205/205 209/209/209 210/210/210
f 206/206/206 205/205/205 210/210/210
f 206/206/206 210/210/210 211/211/211
f 208/208/208 207/207/207 212/212/212
f 208/208/208 212/212/212 213/213/213
f 207/207/207 206/206/206 211/211/211
f 207/207/207 211/211/211 212/212/212
f 210/210/210 209/209/209 214/214/214
f 210/210/210 214/214/214 215/215/215
f 211/211/211 210/210/210 215/215/215
f 211/211/211 215/215/215 216/216/216
f 213/213/213 212/212/212 217/217/217
f 213/213/213 217/217/217 218/218/218
f 212/212/212 211/211/211 216/216/216
f 212/212/212 216/216/216 217/217/217
f 215/215/215 214/214/214 219/219/219
f 215/215/215 219/219/219 220/220/220
f 216/216/216 215/215/215 220/220/220
f 216/216/216 220/220/220 221/221/221
f 218/218/218 217/217/217 222/222/222
f 218/218/218 222/222/222 223/223/223
f 217/217/217 216/216/216 221/221/221
f 217/217/217 221/221/221 222/222/222
f 220/220/220 219/219/219 224/224/224
f 220/220/220 224/224/224 225/225/225
f 221/221/221 220/220/220 225/225/225
f 221/221/221 225/225/225 226/226/226
f 223/223/223 222/222/222 227/227/227
f 223/223/223 227/227/227 228/228/228
f 222/222/222 221/221/221 226/226/226
f 222/222/222 226/226/226 227/227/227
f 225/225/225 224/224/224 229/229/229
f 225/225/225 229/229/229 230/230/230
f 226/226/226 225/225/225 230/230/230
f 226/226/226 230/230/230 231/231/231
f 228/228/228 227/227/227 232/232/232
f 228/228/228 232/232/232 233/233/233
f 227/227/227 226/226/226 231/231/231
f 227/227/227 231/231/231 232/232/232
f 234/234/234 235/235/235 236/236/236
f 234/234/234 236/236/236 237/237/237
f 235/235/235 238/238/238 239/239/239
f 235/235/235 239/239/239 236/236/236
f 238/238/238 240/240/240 241/241/241
f 238/238/238 241/241/241 239/239/239
f 240/240/240 242/242/242 243/243/243
f 240/240/240 243/243/243 241/241/241
f 242/242/242 244/244/244 245/245/245
f 242/242/242 245/245/245 243/243/243
f 244/244/244 246/246/246 247/247/247
f 244/244/244 247/247/247 245/245/245
f 246/246/246 248/248/248 249/249/249
f 246/246/246 249/249/249 247/247/247
f 248/248/248 250/250/250 251/251/251
f 248/248/248 251/251/251 249/249/249
f 250/250/250 252/252/252 253/253/253
f 250/250/250 253/253/253 251/251/251
f 252/252/252 254/254/254 255/255/255
f 252/252/252 255/255/255 253/253/253
f 254/254/254 256/256/256 257/257/257
f 254/254/254 257/257/257 255/255/255
f 256/256/256 258/258/258 259/259/259
f 256/256/256 259/259/259 257/257/257
f 258/258/258 260/260/260 261/261/261
f 258/258/258 261/261/261 259/259/259
f 260/260/260 262/262/262 263/263/263
f 260/260/260 263/263/263 261/261/261
f 262/262/262 264/264/264 265/265/265
f 262/262/262 265/265/265 263/263/263
f 264/264/264 266/266/266 267/267/267
f 264/264/264 267/267/267 265/265/265
f 266/266/266 268/268/268 269/269/269
f 266/266/266 269/269/269 267/267/267
f 270/270/270 234/234/234 237/237/237
f 270/270/270 237/237/237 271/271/271
f 272/272/272 273/273/273 274/274/274
f 272/272/272 274/274/274 275/275/275
f 274/274/274 273/273/273 276/276/276
f 274/274/274 276/276/276 277/277/277
f 274/274/274 277/277/277 278/278/278
f 274/274/274 278/278/278 279/279/279
f 274/274/274 279/279/279 280/280/280
f 274/274/274 280/280/280 281/281/281
f 274/274/274 281/281/281 282/282/282
f 274/274/274 282/282/282 283/283/283
f 274/274/274 283/283/283 284/284/284
f 274/274/274 284/284/284 285/285/285
f 274/274/274 285/285/285 286/286/286
f 274/274/274 286/286/286 287/287/287
f 274/274/274 287/287/287 288/288/288
f 274/274/274 288/288/288 289/289/289
f 274/274/274 289/289/289 290/290/290
f 274/274/274 290/290/290 275/275/275
f 291/291/291 292/292/292 293/293/293
f 291/291/291 293/293/293 294/294/294
f 292/292/292 295/295/295 296/296/296
f 292/292/292 296/296/296 293/293/293
f 295/295/295 297/297/297 298/298/298
f 295/295/295 298/298/298 296/296/296
f 297/297/297 299/299/299 300/300/300
f 297/297/297 300/300/300 298/298/298
f 299/299/299 301/301/301 302/302/302
f 299/299/299 302/302/302 300/300/300
f 303/303/303 304/304/304 305/305/305
f 303/303/303 305/305/305 302/302/302
f 304/304/304 306/306/306 307/307/307
f 304/304/304 307/307/307 305/305/305
f 306/306/306 308/308/308 309/309/309
f 306/306/306 309/309/309 307/307/307
f 308/308/308 310/310/310 311/311/311
f 308/308/308 311/311/311 309/309/309
f 312/312/312 313/313/313 314/314/314
f 312/312/312 314/314/314 311/311/311
f 313/313/313 315/315/315 316/316/316
f 313/313/313 316/316/316 314/314/314
f 315/315/315 317/317/317 318/318/318
f 315/315/315 318/318/318 316/316/316
f 317/317/317 319/319/319 320/320/320
f 317/317/317 320/320/320 318/318/318
f 319/319/319 321/321/321 322/322/322
f 319/319/319 322/322/322 320/320/320
f 321/321/321 323/323/323 324/324/324
f 321/321/321 324/324/324 322/322/322
f 323/323/323 325/325/325 326/326/326
f 323/323/323 326/326/326 324/324/324
f 325/325/325 327/327/327 328/328/328
f 325/325/325 328/328/328 326/326/326
f 329/329/329 291/291/291 294/294/294
f 329/329/329 294/294/294 330/330/330
