# Exported by Gskelview
mtllib support01.mtl

v -12 136.476 17.8262
v -12 136.476 18.4477
v -12 180 -14.1053
v -12 180 -14.7594
v -12 0 17.8262
v -12 0 18.4477
v -6.2712 179.986 -28.9368
v 6.2712 179.986 -28.9368
v 6.2712 132.474 7.66846
v -6.2712 132.474 7.66846
v -6.2712 131.371 8.03905
v 6.2712 131.371 8.03905
v 6.2712 108.299 7.85767
v -6.2712 108.299 7.85767
v -6.2712 107.265 7.32365
v 6.2712 107.265 7.32365
v 6.2712 100.399 -2.20316
v -6.2712 100.399 -2.20316
v -6.2712 67.5317 -2.20953
v 6.2712 67.5317 -2.20953
v 6.2712 59.8833 7.50931
v -6.2712 59.8833 7.50931
v -6.2712 0.005297 -12.6702
v -6.2712 58.7669 7.83536
v 6.2712 58.7669 7.83536
v 6.2712 0.005297 -12.6702
v 12 180 -14.7609
v 12 180 -14.1053
v 12 136.476 18.4477
v 12 136.476 17.8247
v 12 0 18.4477
v 12 0 17.8247
v 6.2712 68.5778 -2.71778
v -6.2712 68.5778 -2.71778
v -6.2712 99.3633 -2.73287
v 6.2712 99.3633 -2.73287
v 11.5247 180 -13.6833
v -11.5247 180 -13.6833
v -11.5247 136.476 18.8697
v 11.5247 136.476 18.8697
v 11.5247 136.476 18.8697
v -11.5247 136.476 18.8697
v -11.5247 0 18.8697
v 11.5247 0 18.8697
v -11.5247 180 -13.6833
v -12 180 -14.1053
v -12 136.476 18.4477
v -11.5247 136.476 18.8697
v 11.5247 180 -13.6833
v 11.5247 136.476 18.8697
v 12 136.476 18.4477
v 12 180 -14.1053
v -11.5247 136.476 18.8697
v -12 136.476 18.4477
v -12 0 18.4477
v -11.5247 0 18.8697
v 12 136.476 18.4477
v 11.5247 136.476 18.8697
v 11.5247 0 18.8697
v 12 0 18.4477
v 6.2712 131.036 5.24234
v 6.32644 131.017 5.1871
v 6.54961 130.598 4.96377
v 6.54961 109.49 4.9563
v 6.33373 109.015 5.17201
v 6.2712 108.983 5.23453
v 6.2712 108.983 5.23453
v 6.54961 108.912 4.66032
v 6.54961 101.708 -5.33395
v 6.33374 101.384 -5.41396
v 6.2712 101.352 -5.35142
v -6.2712 131.036 5.24234
v -6.32644 131.017 5.1871
v -6.54961 131.212 4.75436
v -6.54961 180 -32.8841
v -6.2712 179.999 -32.5315
v 6.2712 101.352 -5.35142
v 6.33374 101.384 -5.41396
v 6.54961 101.13 -5.62983
v 6.54961 66.8471 -5.62983
v 6.33309 66.5922 -5.41331
v 6.2712 66.6231 -5.35142
v 6.2712 66.6231 -5.35142
v 6.33309 66.5922 -5.41331
v 6.54961 66.2659 -5.34017
v 6.54961 58.7454 4.63497
v 6.3457 58.5763 5.19802
v 6.2712 58.603 5.28638
v 6.2712 58.603 5.28638
v 6.3457 58.5763 5.19802
v 6.54961 58.1238 4.82269
v 6.54961 0 -15.6237
v 6.2712 0.00053 -15.3284
v -6.2712 58.603 5.28638
v -6.2712 66.6231 -5.35142
v -6.2712 67.6727 -3.23827
v -6.2712 67.5317 -2.20953
v -6.2712 59.8833 7.50931
v -6.2712 59.2738 7.51394
v -6.2712 101.352 -5.35142
v -6.2712 108.983 5.23453
v -6.2712 107.911 7.33459
v -6.2712 107.265 7.32365
v -6.2712 100.399 -2.20316
v -6.2712 100.281 -3.25119
v -6.2712 131.036 5.24234
v -6.2712 131.799 7.49323
v -6.2712 131.371 8.03905
v -6.2712 108.299 7.85767
v -6.2712 179.986 -28.9368
v -6.2712 132.474 7.66846
v -6.2712 179.999 -32.5315
v 6.2712 179.986 -28.9368
v 6.2712 179.999 -32.5315
v 6.2712 131.036 5.24234
v 6.2712 131.799 7.49323
v 6.2712 132.474 7.66846
v 6.2712 108.983 5.23453
v 6.2712 107.911 7.33459
v 6.2712 108.299 7.85767
v 6.2712 131.371 8.03905
v 6.2712 101.352 -5.35142
v 6.2712 100.281 -3.25119
v 6.2712 100.399 -2.20316
v 6.2712 107.265 7.32365
v 6.2712 66.6231 -5.35142
v 6.2712 58.603 5.28638
v 6.2712 59.2738 7.51394
v 6.2712 59.8833 7.50931
v 6.2712 67.5317 -2.20953
v 6.2712 67.6727 -3.23827
v -6.2712 58.7669 7.83536
v -6.2712 0.005297 -12.6702
v -6.2712 0.00053 -15.3284
v 6.2712 68.5778 -2.71778
v 6.2712 99.3633 -2.73287
v 12 131.006 6.71208
v 11.9887 131 6.68364
v 11.8711 131.236 6.15934
v 11.8586 180 -31.4739
v 12 180 -31.0976
v -12 131.001 6.6978
v -11.9935 130.998 6.68213
v -11.8711 130.606 6.38677
v -11.8666 109.476 6.37467
v -11.986 109.012 6.65424
v -12 108.999 6.68702
v -11.8665 108.874 6.02496
v -11.8641 101.747 -3.86462
v -11.9834 101.382 -3.93437
v -12 101.366 -3.8956
v -11.864 101.145 -4.21413
v -11.867 66.8329 -4.21111
v -11.9866 66.5951 -3.93031
v -12 66.6076 -3.89879
v -12 58.593 6.73422
v -11.9738 58.576 6.66518
v -11.8616 58.1453 6.24348
v -11.8717 0 -14.2001
v -12 0 -13.878
v 12 0 -13.878
v 12 58.5916 6.73074
v 12 66.7206 -4.07389
v 12 101.261 -4.07389
v 12 108.996 6.69035
v -12 180 -31.0976
v 6.54961 131.212 4.75436
v 6.2712 179.999 -32.5315
v 6.54961 180 -32.8841
v -6.54961 130.598 4.96377
v -6.32644 131.017 5.1871
v -6.2712 108.983 5.23453
v -6.33373 109.015 5.17201
v -6.54961 109.49 4.9563
v -6.54961 108.912 4.66032
v -6.2712 108.983 5.23453
v -6.2712 101.352 -5.35142
v -6.33374 101.384 -5.41396
v -6.54961 101.708 -5.33395
v -6.54961 101.13 -5.62983
v -6.33374 101.384 -5.41396
v -6.2712 101.352 -5.35142
v -6.2712 66.6231 -5.35142
v -6.33309 66.5922 -5.41331
v -6.54961 66.8471 -5.62983
v -6.54961 66.2659 -5.34017
v -6.33309 66.5922 -5.41331
v -6.2712 66.6231 -5.35142
v -6.2712 58.603 5.28638
v -6.3457 58.5763 5.19802
v -6.54961 58.7454 4.63497
v -6.54961 58.1238 4.82269
v -6.3457 58.5763 5.19802
v -6.2712 58.603 5.28638
v -6.2712 0.00053 -15.3284
v -6.54961 0 -15.6237
v 11.8404 66.2282 -3.89871
v 12.0762 66.8329 -3.99534
v 11.976 58.576 6.66742
v 11.8629 58.774 6.0116
v -11.8617 58.774 6.01039
v -11.9738 58.576 6.66518
v -11.8668 66.2282 -3.87152
v 11.8711 130.606 6.38673
v 11.9835 109.012 6.65161
v 11.8641 109.476 6.37209
v -11.8711 131.236 6.15934
v -11.8586 180 -31.4739
v 11.8631 108.874 6.02152
v 12.0811 101.145 -3.99027
v 11.8387 101.747 -3.89083
v 11.8638 58.1453 6.24571
v 11.8717 0 -14.2001
v 10.9137 130.592 5.39926
v 10.9137 131.218 5.18551
v 11.8711 131.236 6.15934
v 11.8711 130.606 6.38673
v 9.88486 130.598 4.96377
v 9.88509 131.214 4.75276
v 9.88509 131.214 4.75276
v 9.88486 130.598 4.96377
v 6.54961 130.598 4.96377
v 6.54961 131.212 4.75436
v 10.9187 108.898 5.08125
v 10.9186 109.494 5.39687
v 11.8641 109.476 6.37209
v 11.8631 108.874 6.02152
v 9.87766 108.91 4.65792
v 9.87778 109.493 4.9563
v 9.87778 109.493 4.9563
v 9.87766 108.91 4.65792
v 6.54961 108.912 4.66032
v 6.54961 109.49 4.9563
v 10.9187 101.126 -5.18918
v 10.9187 101.722 -4.87359
v 11.8387 101.747 -3.89083
v 12.0811 101.145 -3.99027
v 10.9187 101.722 -4.87359
v 9.87766 101.127 -5.62983
v 9.87766 101.71 -5.33156
v 9.87766 101.71 -5.33156
v 9.87766 101.127 -5.62983
v 6.54961 101.13 -5.62983
v 6.54961 101.708 -5.33395
v -10.9137 131.218 5.18551
v -10.9137 130.592 5.39926
v -11.8711 130.606 6.38677
v -11.8711 131.236 6.15934
v -9.88509 131.214 4.75276
v -9.88486 130.598 4.96377
v -9.88486 130.598 4.96377
v -9.88509 131.214 4.75276
v -6.54961 131.212 4.75436
v -6.54961 130.598 4.96377
v -10.9186 109.494 5.39687
v -10.9187 108.898 5.08125
v -11.8665 108.874 6.02496
v -11.8666 109.476 6.37467
v -9.87778 109.493 4.9563
v -9.87766 108.91 4.65792
v -9.87766 108.91 4.65792
v -9.87778 109.493 4.9563
v -6.54961 109.49 4.9563
v -6.54961 108.912 4.66032
v -10.9187 101.722 -4.87359
v -10.9187 101.126 -5.18918
v -11.864 101.145 -4.21413
v -11.8641 101.747 -3.86462
v -10.9187 101.126 -5.18918
v -10.9187 101.722 -4.87359
v -9.87766 101.71 -5.33156
v -9.87766 101.127 -5.62983
v -9.87766 101.127 -5.62983
v -9.87766 101.71 -5.33156
v -6.54961 101.708 -5.33395
v -6.54961 101.13 -5.62983
v 10.9185 66.252 -4.88122
v 10.9183 66.8511 -5.18956
v 12.0762 66.8329 -3.99534
v 11.8404 66.2282 -3.89871
v 10.9185 66.252 -4.88122
v 9.87836 66.2642 -5.33792
v 9.87819 66.8499 -5.62983
v 9.87819 66.8499 -5.62983
v 9.87836 66.2642 -5.33792
v 6.54961 66.2659 -5.34017
v 6.54961 66.8471 -5.62983
v -10.9183 66.8511 -5.18956
v -10.9185 66.252 -4.88122
v -11.8668 66.2282 -3.87152
v -11.867 66.8329 -4.21111
v -10.9185 66.252 -4.88122
v -10.9183 66.8511 -5.18956
v -9.87819 66.8499 -5.62983
v -9.87836 66.2642 -5.33792
v -9.87836 66.2642 -5.33792
v -9.87819 66.8499 -5.62983
v -6.54961 66.8471 -5.62983
v -6.54961 66.2659 -5.34017
v 10.9266 58.1262 5.27241
v 10.9264 58.7546 5.07144
v 11.8629 58.774 6.0116
v 11.8638 58.1453 6.24571
v 9.8842 58.1226 4.82224
v 9.88393 58.7462 4.63391
v 9.88393 58.7462 4.63391
v 9.8842 58.1226 4.82224
v 6.54961 58.1238 4.82269
v 6.54961 58.7454 4.63497
v -10.9264 58.7546 5.07144
v -10.9266 58.1262 5.27241
v -11.8616 58.1453 6.24348
v -11.8617 58.774 6.01039
v -9.88393 58.7462 4.63391
v -9.8842 58.1226 4.82224
v -9.8842 58.1226 4.82224
v -9.88393 58.7462 4.63391
v -6.54961 58.7454 4.63497
v -6.54961 58.1238 4.82269
v 9.90718 180 -32.8841
v 10.944 180 -32.4173
v 10.9187 101.722 -4.87359
v -10.944 180 -32.4173
v -9.90718 180 -32.8841
v 9.87766 101.127 -5.62983
v -9.87766 101.127 -5.62983
v 9.88393 58.7462 4.63391
v 9.87836 66.2642 -5.33792
v 9.8842 58.1226 4.82224
v 10.9172 0 -15.1846
v 9.89742 0 -15.6237
v -9.87836 66.2642 -5.33792
v -9.88393 58.7462 4.63391
v -9.8842 58.1226 4.82224
v -9.89742 0 -15.6237
v -10.9172 0 -15.1846
v 6.54961 180 -32.8841
v 9.90718 180 -32.8841
v -9.90718 180 -32.8841
v -6.54961 180 -32.8841
v 9.87766 108.91 4.65792
v -9.87766 108.91 4.65792
v 9.88393 58.7462 4.63391
v 6.54961 58.7454 4.63497
v -9.88393 58.7462 4.63391
v -6.54961 58.7454 4.63497
v 6.54961 58.1238 4.82269
v 9.8842 58.1226 4.82224
v 9.89742 0 -15.6237
v 6.54961 0 -15.6237
v -9.8842 58.1226 4.82224
v -6.54961 58.1238 4.82269
v -6.54961 0 -15.6237
v -9.89742 0 -15.6237
v -11.8717 0 -14.2001
v 11.8586 180 -31.4739
v -11.8586 180 -31.4739
v -11.8668 66.2282 -3.87152
v 11.8717 0 -14.2001
v 6.33374 101.384 -5.41396
v -6.33374 101.384 -5.41396
v -6.33309 66.5922 -5.41331
v 6.33309 66.5922 -5.41331
v -11.9738 58.576 6.66518
v -11.864 101.145 -4.21413
v -11.9834 101.382 -3.93437
v -11.9866 66.5951 -3.93031
v -11.867 66.8329 -4.21111
v 6.2712 58.7669 7.83536
v 6.2712 0.00053 -15.3284
v 6.2712 0.005297 -12.6702
v -6.2712 68.5778 -2.71778
v -6.2712 99.3633 -2.73287
v -6.2712 107.718 7.71412
v 6.2712 107.718 7.71412
v -6.2712 131.954 7.94615
v 6.2712 131.954 7.94615
v -6.2712 99.9449 -2.59289
v 6.2712 99.9449 -2.59289
v -6.2712 59.3773 7.85111
v 6.2712 59.3773 7.85111
v -6.2712 59.3773 7.85111
v 6.2712 59.3773 7.85111
v -6.2712 67.9964 -2.58386
v 6.2712 67.9964 -2.58386
v -6.2712 107.718 7.71412
v 6.2712 107.718 7.71412
v -6.2712 131.954 7.94615
v 6.2712 131.954 7.94615
v -6.2712 99.9449 -2.59289
v 6.2712 99.9449 -2.59289
v -6.2712 59.3773 7.85111
v 6.2712 59.3773 7.85111
v -6.2712 67.9964 -2.58386
v 6.2712 67.9964 -2.58386
vt 0.849141 0.5878
vt 0.85794 0.587799
vt 0.747492 0.743525
vt 0.739667 0.743525
vt 0.84914 0.068081
vt 0.85794 0.068081
vt 0.806145 0.86011
vt 0.806145 0.908559
vt 0.581237 0.908559
vt 0.581237 0.860109
vt 0.576622 0.860109
vt 0.576622 0.908559
vt 0.490041 0.908559
vt 0.490041 0.860109
vt 0.485151 0.860109
vt 0.485151 0.908559
vt 0.441142 0.908559
vt 0.441142 0.860109
vt 0.315875 0.86011
vt 0.315875 0.908559
vt 0.269522 0.908559
vt 0.269522 0.86011
vt 0.030667 0.86011
vt 0.264164 0.86011
vt 0.264164 0.908559
vt 0.030667 0.908559
vt 0.563984 0.725189
vt 0.556037 0.725189
vt 0.443298 0.569463
vt 0.451005 0.569462
vt 0.443298 0.049743
vt 0.451005 0.049743
vt 0.320723 0.908559
vt 0.320723 0.86011
vt 0.436242 0.860109
vt 0.436242 0.908559
vt 0.963778 0.743145
vt 0.86339 0.742963
vt 0.864287 0.58698
vt 0.964675 0.587162
vt 0.964675 0.587162
vt 0.864287 0.58698
vt 0.867794 0.067523
vt 0.968181 0.067704
vt 0.86339 0.742963
vt 0.857001 0.742895
vt 0.857473 0.586912
vt 0.864287 0.58698
vt 0.963778 0.743145
vt 0.964675 0.587162
vt 0.971858 0.58723
vt 0.971385 0.743213
vt 0.864287 0.58698
vt 0.857473 0.586912
vt 0.85932 0.067454
vt 0.867794 0.067523
vt 0.971858 0.58723
vt 0.964675 0.587162
vt 0.968181 0.067704
vt 0.973705 0.067773
vt 0.575107 0.928929
vt 0.575107 0.929143
vt 0.57382 0.930005
vt 0.494623 0.930005
vt 0.493255 0.929171
vt 0.493255 0.928929
vt 0.493255 0.928929
vt 0.491888 0.930005
vt 0.445724 0.930005
vt 0.444772 0.929171
vt 0.444892 0.928929
vt 0.575119 0.981908
vt 0.575508 0.981695
vt 0.576408 0.980833
vt 0.807445 0.980833
vt 0.806634 0.981908
vt 0.443823 0.928929
vt 0.443943 0.929172
vt 0.442989 0.930005
vt 0.314363 0.930005
vt 0.313407 0.929168
vt 0.313523 0.928929
vt 0.312482 0.928929
vt 0.312597 0.929168
vt 0.311642 0.930005
vt 0.264828 0.930005
vt 0.263321 0.929219
vt 0.263321 0.928929
vt 0.263321 0.928929
vt 0.263321 0.929219
vt 0.261814 0.930005
vt 0.030667 0.930005
vt 0.031037 0.928929
vt 0.119967 0.283373
vt 0.157032 0.316828
vt 0.148805 0.32006
vt 0.145013 0.319196
vt 0.111254 0.287433
vt 0.111436 0.285153
vt 0.145675 0.446651
vt 0.103683 0.471719
vt 0.096198 0.467028
vt 0.09645 0.464618
vt 0.134241 0.442058
vt 0.138189 0.44196
vt 0.096444 0.554158
vt 0.087794 0.556276
vt 0.085897 0.554496
vt 0.09412 0.468306
vt 0.207953 0.748299
vt 0.086914 0.55873
vt 0.221361 0.749518
vt 0.701043 0.019234
vt 0.714506 0.019188
vt 0.573035 0.202921
vt 0.564604 0.200054
vt 0.563948 0.197524
vt 0.573064 0.285672
vt 0.565199 0.289694
vt 0.56324 0.28824
vt 0.56256 0.201661
vt 0.61271 0.314306
vt 0.604845 0.318326
vt 0.60092 0.317884
vt 0.56524 0.292117
vt 0.612711 0.444626
vt 0.57287 0.474722
vt 0.564531 0.472214
vt 0.564544 0.469917
vt 0.600944 0.441216
vt 0.604797 0.440687
vt 0.110402 0.283153
vt 0.206126 0.070184
vt 0.216045 0.071034
vt 0.602848 0.437291
vt 0.602904 0.321769
vt 0.49735 0.541467
vt 0.497426 0.541452
vt 0.499074 0.542399
vt 0.639901 0.725189
vt 0.638845 0.725189
vt 0.802731 0.55978
vt 0.80269 0.559773
vt 0.801912 0.558365
vt 0.801343 0.478443
vt 0.802545 0.47712
vt 0.802687 0.47712
vt 0.800045 0.476189
vt 0.763601 0.449868
vt 0.7629 0.448512
vt 0.76298 0.448454
vt 0.762313 0.447624
vt 0.762313 0.31887
vt 0.762902 0.317977
vt 0.762968 0.318024
vt 0.802886 0.28795
vt 0.802439 0.287478
vt 0.800957 0.28667
vt 0.724883 0.068081
vt 0.725622 0.068081
vt 0.574517 0.049744
vt 0.497268 0.269607
vt 0.537828 0.300111
vt 0.537828 0.429724
vt 0.497437 0.458749
vt 0.661345 0.743525
vt 0.576393 0.930005
vt 0.806621 0.928929
vt 0.807433 0.930005
vt 0.573832 0.980833
vt 0.575508 0.981695
vt 0.493267 0.981908
vt 0.493267 0.981666
vt 0.494635 0.980833
vt 0.4919 0.980833
vt 0.493267 0.981908
vt 0.4449 0.981908
vt 0.44478 0.981666
vt 0.445733 0.980833
vt 0.442998 0.980833
vt 0.443951 0.981667
vt 0.443831 0.981908
vt 0.313525 0.981908
vt 0.313409 0.981669
vt 0.314367 0.980833
vt 0.311645 0.980833
vt 0.312596 0.981669
vt 0.312484 0.981908
vt 0.263321 0.981908
vt 0.263321 0.98162
vt 0.264828 0.980832
vt 0.261812 0.980832
vt 0.263321 0.98162
vt 0.263321 0.981908
vt 0.031037 0.981908
vt 0.030667 0.980833
vt 0.536573 0.298276
vt 0.537828 0.300111
vt 0.497521 0.269618
vt 0.500033 0.270675
vt 0.800099 0.289019
vt 0.802439 0.287478
vt 0.763568 0.316613
vt 0.498232 0.54003
vt 0.497605 0.458752
vt 0.498808 0.460098
vt 0.80107 0.560737
vt 0.660239 0.743525
vt 0.500105 0.457843
vt 0.537828 0.429724
vt 0.53654 0.431531
vt 0.499173 0.268327
vt 0.575256 0.049744
vt 0.024043 0.609036
vt 0.024179 0.611601
vt 0.019552 0.609465
vt 0.019376 0.606892
vt 0.026097 0.610023
vt 0.026227 0.612571
vt 0.576403 0.94289
vt 0.573819 0.94289
vt 0.57382 0.930005
vt 0.576393 0.930005
vt 0.035041 0.527219
vt 0.033964 0.529801
vt 0.029036 0.531147
vt 0.030241 0.52848
vt 0.03719 0.526676
vt 0.036194 0.529156
vt 0.494634 0.942862
vt 0.493255 0.942862
vt 0.491888 0.930005
vt 0.494623 0.930005
vt 0.064443 0.486927
vt 0.063819 0.4881
vt 0.059808 0.488552
vt 0.060205 0.486073
vt 0.063553 0.489502
vt 0.065404 0.48962
vt 0.064651 0.490784
vt 0.445735 0.942862
vt 0.442978 0.942862
vt 0.442989 0.930005
vt 0.445724 0.930005
vt 0.265713 0.817284
vt 0.268116 0.81815
vt 0.268263 0.822664
vt 0.265848 0.821766
vt 0.265641 0.815299
vt 0.268009 0.816155
vt 0.573832 0.967948
vt 0.576415 0.967947
vt 0.576408 0.980833
vt 0.573832 0.980833
vt 0.347753 0.826658
vt 0.350437 0.826081
vt 0.350033 0.830172
vt 0.347339 0.830833
vt 0.347976 0.82478
vt 0.35058 0.824258
vt 0.493267 0.967976
vt 0.494646 0.967975
vt 0.494635 0.980833
vt 0.4919 0.980833
vt 0.391168 0.803202
vt 0.393827 0.802551
vt 0.3906 0.808034
vt 0.389204 0.807627
vt 0.392459 0.802476
vt 0.391168 0.803202
vt 0.391117 0.801724
vt 0.392336 0.801145
vt 0.442987 0.967976
vt 0.445744 0.967976
vt 0.445733 0.980833
vt 0.442998 0.980833
vt 0.062303 0.356257
vt 0.063168 0.358801
vt 0.058373 0.358519
vt 0.058152 0.356293
vt 0.063155 0.35743
vt 0.064845 0.357354
vt 0.065058 0.358718
vt 0.314373 0.942864
vt 0.311632 0.942865
vt 0.311642 0.930005
vt 0.314363 0.930005
vt 0.520893 0.809512
vt 0.523484 0.810347
vt 0.520532 0.812688
vt 0.520449 0.813407
vt 0.522253 0.809587
vt 0.520893 0.809512
vt 0.521129 0.807762
vt 0.522455 0.808013
vt 0.311634 0.967973
vt 0.314376 0.967973
vt 0.314367 0.980833
vt 0.311645 0.980833
vt 0.034152 0.315631
vt 0.034828 0.318376
vt 0.031399 0.317875
vt 0.030652 0.315086
vt 0.035773 0.315906
vt 0.036403 0.318587
vt 0.264833 0.942886
vt 0.263321 0.942887
vt 0.261814 0.930005
vt 0.264828 0.930005
vt 0.563211 0.8349
vt 0.565991 0.835331
vt 0.566085 0.839311
vt 0.563255 0.838793
vt 0.563212 0.833103
vt 0.565924 0.833484
vt 0.263321 0.967951
vt 0.264833 0.967951
vt 0.264828 0.980832
vt 0.261812 0.980832
vt 0.078738 0.832719
vt 0.076852 0.832866
vt 0.063553 0.489502
vt 0.074232 0.689699
vt 0.07522 0.688199
vt 0.066121 0.487473
vt 0.394986 0.802862
vt 0.036403 0.318587
vt 0.063622 0.355418
vt 0.035773 0.315906
vt 0.071894 0.088211
vt 0.073982 0.088341
vt 0.524504 0.809094
vt 0.563212 0.833103
vt 0.565924 0.833484
vt 0.788835 0.773253
vt 0.78921 0.774972
vt 0.807433 0.930005
vt 0.807433 0.942976
vt 0.807445 0.967861
vt 0.807445 0.980833
vt 0.491877 0.942862
vt 0.491889 0.967976
vt 0.264833 0.942886
vt 0.264828 0.930005
vt 0.264833 0.967951
vt 0.264828 0.980832
vt 0.261814 0.930005
vt 0.261807 0.942887
vt 0.030667 0.942938
vt 0.030667 0.930005
vt 0.261803 0.96795
vt 0.261812 0.980832
vt 0.030667 0.980833
vt 0.030667 0.967899
vt 0.789345 0.779017
vt 0.07273 0.831866
vt 0.07357 0.69467
vt 0.520532 0.812688
vt 0.067093 0.088638
vt 0.444772 0.929171
vt 0.443951 0.981667
vt 0.312596 0.981669
vt 0.313407 0.929168
vt 0.802439 0.287478
vt 0.762313 0.447624
vt 0.7629 0.448512
vt 0.762902 0.317977
vt 0.762313 0.31887
vt 0.563327 0.474117
vt 0.650077 0.694625
vt 0.640121 0.694607
vt 0.146568 0.323272
vt 0.136556 0.43836
vt 0.487594 0.860109
vt 0.487594 0.908559
vt 0.57893 0.860109
vt 0.57893 0.908559
vt 0.438694 0.860109
vt 0.438694 0.908559
vt 0.266844 0.86011
vt 0.266844 0.908559
vt 0.266844 0.86011
vt 0.266844 0.908559
vt 0.318298 0.86011
vt 0.318298 0.908559
vt 0.094352 0.46587
vt 0.563259 0.290686
vt 0.085678 0.556794
vt 0.562542 0.199353
vt 0.136343 0.440803
vt 0.602905 0.319318
vt 0.109304 0.285598
vt 0.562442 0.471575
vt 0.146778 0.320856
vt 0.602847 0.439716
vn -1 0 -0
vn -1 0 1e-06
vn -1 0 1e-06
vn -1 0 -0
vn -1 0 -0
vn -1 -0 1e-06
vn 0 -0.610309 -0.792164
vn 0 -0.610309 -0.792164
vn 0 -0.609033 -0.793145
vn 0 -0.609033 -0.793145
vn 0 0.00374 -0.999993
vn 0 0.00374 -0.999993
vn 0 0.013736 -0.999906
vn 0 0.013736 -0.999906
vn 0 0.804588 -0.593834
vn 0 0.804588 -0.593834
vn 0 0.804526 -0.593918
vn 0 0.804526 -0.593918
vn 0 -0.779415 -0.626508
vn 0 -0.779415 -0.626508
vn 0 -0.776864 -0.629669
vn 0 -0.776864 -0.629669
vn 0 0.329477 -0.944164
vn 0 0.326676 -0.945136
vn 0 0.326676 -0.945136
vn 0 0.329477 -0.944164
vn 1 0 0
vn 1 -2e-06 -1e-06
vn 1 -2e-06 -1e-06
vn 1 0 0
vn 1 0 -1e-06
vn 1 0 0
vn 0 -0.004751 -0.999989
vn 0 -0.004751 -0.999989
vn 0 0.003982 -0.999992
vn 0 0.003982 -0.999992
vn 0 0.598937 0.800796
vn 0 0.598937 0.800796
vn 0 0.598937 0.800796
vn 0 0.598937 0.800796
vn 0 0 1
vn 0 0 1
vn 0 0 1
vn 0 0 1
vn -0.579476 0.488128 0.652641
vn -0.579476 0.488127 0.652641
vn -0.579476 0.488128 0.652641
vn -0.579476 0.488127 0.652641
vn 0.579476 0.488127 0.65264
vn 0.579476 0.488127 0.65264
vn 0.579476 0.488127 0.65264
vn 0.579476 0.488127 0.65264
vn -0.663948 0 0.747779
vn -0.663948 0 0.747779
vn -0.663948 0 0.747779
vn -0.663948 0 0.747779
vn 0.663949 0 0.747778
vn 0.663949 0 0.747778
vn 0.663949 0 0.747778
vn 0.663949 0 0.747778
vn -0.721709 -0.326326 -0.610449
vn -0.722014 -0.326018 -0.610253
vn -0.708034 -0.000738 -0.706178
vn -0.708632 0.001638 -0.705576
vn -0.744981 0.224005 -0.62835
vn -0.707107 0.00025 -0.707106
vn -0.707105 0.573622 -0.413475
vn -0.709678 0.570153 -0.413864
vn -0.707105 0.573622 -0.413475
vn -0.707105 0.573622 -0.413475
vn -0.707105 0.573622 -0.413475
vn 0.721709 -0.326326 -0.610449
vn 0.722014 -0.326018 -0.610253
vn 0.707427 -0.431448 -0.559821
vn 0.7071 -0.431923 -0.559868
vn 0.7071 -0.431923 -0.559868
vn -0.707107 0 -0.707107
vn -0.707107 0 -0.707107
vn -0.707107 0 -0.707107
vn -0.707107 0 -0.707107
vn -0.707107 0 -0.707107
vn -0.707107 0 -0.707107
vn -0.707107 -0.56462 -0.425681
vn -0.707107 -0.56462 -0.425681
vn -0.707107 -0.56462 -0.425681
vn -0.711015 -0.559732 -0.425628
vn -0.745978 0.100597 -0.658329
vn -0.707107 -0.56462 -0.425681
vn -0.707106 0.234646 -0.66704
vn -0.745978 0.100597 -0.658329
vn -0.707936 0.233791 -0.666459
vn -0.707106 0.234646 -0.66704
vn -0.707106 0.234646 -0.66704
vn 1 0 0
vn 1 0 0
vn 1 0 0
vn 1 0 0
vn 1 -0 0
vn 1 0 0
vn 1 0 0
vn 1 0 0
vn 1 0 0
vn 1 0 0
vn 1 0 0
vn 1 0 0
vn 1 -0 0
vn 1 -0 0
vn 1 0 0
vn 1 0 0
vn 1 -0 0
vn 1 -0 0
vn 1 -0 0
vn -1 0 0
vn -1 0 0
vn -1 0 0
vn -1 0 0
vn -1 0 0
vn -1 0 0
vn -1 0 0
vn -1 0 0
vn -1 0 0
vn -1 0 0
vn -1 0 0
vn -1 0 0
vn -1 0 0
vn -1 0 0
vn -1 0 0
vn -1 0 0
vn -1 0 0
vn -1 0 0
vn -1 0 0
vn 1 0 0
vn 1 0 0
vn 1 0 0
vn -1 0 0
vn -1 0 0
vn 0.999999 -0.000714 -0.001411
vn 0.920485 -0.186618 -0.343338
vn 0.758293 -0.396027 -0.517836
vn 0.671342 -0.452709 -0.586817
vn 0.999982 -0.00366 -0.004745
vn -0.999999 -0.000713 -0.001408
vn -0.917023 -0.190972 -0.350139
vn -0.78635 -0.004457 -0.617766
vn -0.78871 0.006547 -0.61473
vn -0.931301 0.124964 -0.342144
vn -1 0.000203 -0.000624
vn -0.907136 0.340556 -0.247237
vn -0.631351 0.624071 -0.46036
vn -0.927614 0.080948 -0.364663
vn -0.999999 0.000401 -0.001531
vn -0.781152 0.006281 -0.624309
vn -0.781156 -0.006086 -0.624306
vn -0.927116 -0.081697 -0.365762
vn -0.999999 -0.000399 -0.001526
vn -0.999999 0.000246 -0.001462
vn -0.931555 0.053965 -0.359574
vn -0.786841 0.201633 -0.583289
vn -0.737963 0.223946 -0.636599
vn -0.999993 0.001269 -0.003606
vn 0.999993 0.001256 -0.00357
vn 0.999999 0.000223 -0.001464
vn 1 -0.000336 -0.000253
vn 1 0.000334 -0.000241
vn 1 0.000223 -0.000643
vn -0.999982 -0.003665 -0.004752
vn -0.707427 -0.431448 -0.559821
vn -0.7071 -0.431923 -0.559868
vn -0.7071 -0.431923 -0.559868
vn 0.708034 -0.000738 -0.706178
vn 0.722014 -0.326018 -0.610253
vn 0.707107 0.00025 -0.707106
vn 0.744981 0.224005 -0.62835
vn 0.708632 0.001638 -0.705576
vn 0.709678 0.570152 -0.413864
vn 0.707105 0.573621 -0.413475
vn 0.707105 0.573621 -0.413475
vn 0.707105 0.573621 -0.413475
vn 0.707105 0.573621 -0.413475
vn 0.707107 0 -0.707107
vn 0.707107 0 -0.707107
vn 0.707107 0 -0.707107
vn 0.707107 0 -0.707107
vn 0.707107 0 -0.707107
vn 0.707107 0 -0.707107
vn 0.707106 -0.564621 -0.425681
vn 0.707106 -0.564621 -0.425681
vn 0.707106 -0.564621 -0.425681
vn 0.707106 -0.564621 -0.425681
vn 0.745978 0.100597 -0.658329
vn 0.711014 -0.559732 -0.425628
vn 0.707936 0.233791 -0.666459
vn 0.745978 0.100597 -0.658329
vn 0.707106 0.234646 -0.66704
vn 0.707106 0.234646 -0.66704
vn 0.707106 0.234646 -0.66704
vn 0.635023 -0.609137 -0.475077
vn 0.735733 -0.033336 -0.676451
vn 0.93044 0.048261 -0.363252
vn 0.890954 -0.361433 -0.274895
vn -0.906707 -0.335875 -0.255089
vn -0.931555 0.053965 -0.359574
vn -0.639112 -0.60912 -0.469583
vn 0.789214 -0.004399 -0.614102
vn 0.928692 0.134559 -0.345578
vn 0.791548 0.006495 -0.611073
vn -0.754676 -0.398552 -0.521172
vn -0.66996 -0.453469 -0.58781
vn 0.890432 0.368313 -0.267352
vn 0.736225 0.034454 -0.67586
vn 0.627044 0.624144 -0.466112
vn 0.786355 0.201826 -0.583877
vn 0.737658 0.224054 -0.636915
vn 0.582243 -0.008058 -0.812975
vn 0.525775 -0.517446 -0.675137
vn 0.758293 -0.396027 -0.517836
vn 0.789214 -0.004399 -0.614102
vn 0.099786 -0.009532 -0.994963
vn 0.090228 -0.605807 -0.790479
vn 0.090228 -0.605807 -0.790479
vn 0.099786 -0.009532 -0.994963
vn -4e-06 -0.009344 -0.999956
vn -2e-06 -0.608161 -0.793814
vn 0.425363 0.723052 -0.5443
vn 0.582709 0.012637 -0.812583
vn 0.791548 0.006495 -0.611073
vn 0.538017 0.661844 -0.522015
vn 0.068037 0.796581 -0.600691
vn 0.099888 0.014421 -0.994894
vn 0.099888 0.014421 -0.994894
vn 0.068037 0.796581 -0.600691
vn -2.1e-05 0.79753 -0.603279
vn -1.2e-05 0.014047 -0.999901
vn 0.591378 0.006811 -0.806366
vn 0.353555 0.743554 -0.567563
vn 0.627044 0.624144 -0.466112
vn 0.736225 0.034454 -0.67586
vn 0.353555 0.743554 -0.567563
vn 0.100098 0.00831 -0.994943
vn 0.051702 0.795333 -0.603964
vn 0.051702 0.795333 -0.603964
vn 0.100098 0.00831 -0.994943
vn -7.6e-05 0.008636 -0.999963
vn -0.000206 0.797359 -0.603506
vn -0.525775 -0.517446 -0.675137
vn -0.582348 -0.008052 -0.8129
vn -0.78635 -0.004457 -0.617766
vn -0.754676 -0.398552 -0.521172
vn -0.090228 -0.605807 -0.790479
vn -0.099785 -0.009532 -0.994963
vn -0.099785 -0.009532 -0.994963
vn -0.090228 -0.605807 -0.790479
vn 2e-06 -0.608161 -0.793814
vn 4e-06 -0.009344 -0.999956
vn -0.582821 0.01265 -0.812502
vn -0.426256 0.722803 -0.543931
vn -0.537737 0.662292 -0.521736
vn -0.78871 0.006547 -0.61473
vn -0.099887 0.014421 -0.994894
vn -0.068037 0.796581 -0.600691
vn -0.068037 0.796581 -0.600691
vn -0.099887 0.014421 -0.994894
vn 1.2e-05 0.014047 -0.999901
vn 2.1e-05 0.797531 -0.603279
vn -0.352773 0.744665 -0.566592
vn -0.580833 0.00702 -0.813993
vn -0.781152 0.006281 -0.624309
vn -0.631351 0.624071 -0.46036
vn -0.580833 0.00702 -0.813993
vn -0.352773 0.744665 -0.566592
vn -0.051702 0.795333 -0.603964
vn -0.100098 0.00831 -0.994943
vn -0.100098 0.00831 -0.994943
vn -0.051702 0.795333 -0.603964
vn 0.000206 0.797359 -0.603506
vn 7.6e-05 0.008636 -0.999963
vn 0.363219 -0.728937 -0.580279
vn 0.591368 -0.006646 -0.806375
vn 0.735733 -0.033336 -0.676451
vn 0.635023 -0.609137 -0.475077
vn 0.363219 -0.728937 -0.580279
vn 0.053567 -0.7827 -0.620089
vn 0.100109 -0.008133 -0.994943
vn 0.100109 -0.008133 -0.994943
vn 0.053567 -0.7827 -0.620089
vn -0.000216 -0.78474 -0.619825
vn -8.1e-05 -0.008454 -0.999964
vn -0.580818 -0.006863 -0.814004
vn -0.362499 -0.729974 -0.579425
vn -0.639112 -0.60912 -0.469583
vn -0.781156 -0.006086 -0.624306
vn -0.362499 -0.729974 -0.579425
vn -0.580818 -0.006863 -0.814004
vn -0.100109 -0.008133 -0.994943
vn -0.053567 -0.782701 -0.620089
vn -0.053567 -0.782701 -0.620089
vn -0.100109 -0.008133 -0.994943
vn 8.1e-05 -0.008454 -0.999964
vn 0.000216 -0.78474 -0.619825
vn 0.580492 0.265295 -0.769836
vn 0.438961 -0.702775 -0.55984
vn 0.552083 -0.639107 -0.535487
vn 0.786355 0.201826 -0.583877
vn 0.102376 -0.289493 -0.95169
vn 0.092185 -0.289589 -0.952702
vn 0.092185 -0.289589 -0.952702
vn 0.102376 -0.289493 -0.95169
vn -0.000237 -0.289083 -0.957304
vn -0.000237 -0.289083 -0.957304
vn -0.439696 -0.70262 -0.559457
vn -0.580406 0.265316 -0.769894
vn -0.786841 0.201633 -0.583289
vn -0.551673 -0.639795 -0.535087
vn -0.092185 -0.289589 -0.952702
vn -0.102376 -0.289493 -0.95169
vn -0.102376 -0.289493 -0.95169
vn -0.092185 -0.289589 -0.952702
vn 0.000237 -0.289083 -0.957304
vn 0.000237 -0.289083 -0.957304
vn 0.070959 -0.609277 -0.789776
vn 0.457126 -0.543245 -0.704216
vn 0.353555 0.743554 -0.567563
vn -0.457126 -0.543245 -0.704216
vn -0.070959 -0.609277 -0.789776
vn 0.100098 0.00831 -0.994943
vn -0.100098 0.00831 -0.994943
vn 0.069744 -0.796559 -0.600525
vn 0.053567 -0.7827 -0.620089
vn 0.101396 0.33015 -0.938467
vn 0.540729 0.279183 -0.793517
vn 0.089199 0.330535 -0.939569
vn -0.053567 -0.782701 -0.620089
vn -0.069744 -0.796559 -0.600525
vn -0.101396 0.33015 -0.938467
vn -0.089199 0.330535 -0.939569
vn -0.540636 0.279203 -0.793573
vn -0 -0.610825 -0.791765
vn 0.070959 -0.609277 -0.789776
vn -0.070959 -0.609277 -0.789776
vn 0 -0.610825 -0.791765
vn 0.068037 0.796581 -0.600691
vn -0.068037 0.796581 -0.600691
vn 0.069744 -0.796559 -0.600525
vn -0 -0.798494 -0.602003
vn -0.069744 -0.796559 -0.600525
vn 0 -0.798494 -0.602003
vn 0 0.33184 -0.943336
vn 0.101396 0.33015 -0.938467
vn 0.089199 0.330535 -0.939569
vn 0 0.33184 -0.943336
vn -0.101396 0.33015 -0.938467
vn 0 0.33184 -0.943336
vn 0 0.33184 -0.943336
vn -0.089199 0.330535 -0.939569
vn -0.737963 0.223946 -0.636599
vn 0.671342 -0.452709 -0.586817
vn -0.66996 -0.453469 -0.58781
vn -0.639112 -0.60912 -0.469583
vn 0.737658 0.224054 -0.636915
vn -0.333301 0.429604 -0.839256
vn 0.333301 0.429604 -0.839256
vn 0.346969 -0.41838 -0.839387
vn -0.346969 -0.41838 -0.839387
vn -0.931555 0.053965 -0.359574
vn -0.781152 0.006281 -0.624309
vn -0.927614 0.080948 -0.364663
vn -0.927116 -0.081697 -0.365762
vn -0.781156 -0.006086 -0.624306
vn -1 0 0
vn -1 0 0
vn -1 0 0
vn 1 0 0
vn 1 0 0
vn 0 0.459166 -0.888351
vn 0 0.459166 -0.888351
vn 0 -0.318642 -0.947875
vn 0 -0.318642 -0.947875
vn 0 0.455453 -0.89026
vn 0 0.455453 -0.89026
vn 0 0.025797 -0.999667
vn 0 0.025797 -0.999667
vn 0 -0.559765 -0.828652
vn 0 -0.559765 -0.828652
vn 0 -0.43701 -0.899457
vn 0 -0.43701 -0.899457
vn 1 0 0
vn -1 0 0
vn 1 1e-06 0
vn -1 0 0
vn 1 -1e-06 0
vn -1 1e-06 0
vn 1 -0 0
vn -1 1e-06 0
vn 1 0 0
vn -1 0 0

g doordouble01right:Mesh_0
usemtl doordouble01right:Door_001
f 1/1/1 2/2/2 3/3/3
f 1/1/1 3/3/3 4/4/4
f 2/2/2 1/1/1 5/5/5
f 2/2/2 5/5/5 6/6/6
f 7/7/7 8/8/8 9/9/9
f 7/7/7 9/9/9 10/10/10
f 11/11/11 12/12/12 13/13/13
f 11/11/11 13/13/13 14/14/14
f 15/15/15 16/16/16 17/17/17
f 15/15/15 17/17/17 18/18/18
f 19/19/19 20/20/20 21/21/21
f 19/19/19 21/21/21 22/22/22
f 23/23/23 24/24/24 25/25/25
f 23/23/23 25/25/25 26/26/26
f 27/27/27 28/28/28 29/29/29
f 27/27/27 29/29/29 30/30/30
f 30/30/30 29/29/29 31/31/31
f 30/30/30 31/31/31 32/32/32
f 33/33/33 34/34/34 35/35/35
f 33/33/33 35/35/35 36/36/36
f 37/37/37 38/38/38 39/39/39
f 37/37/37 39/39/39 40/40/40
f 41/41/41 42/42/42 43/43/43
f 41/41/41 43/43/43 44/44/44
f 45/45/45 46/46/46 47/47/47
f 45/45/45 47/47/47 48/48/48
f 49/49/49 50/50/50 51/51/51
f 49/49/49 51/51/51 52/52/52
f 53/53/53 54/54/54 55/55/55
f 53/53/53 55/55/55 56/56/56
f 57/57/57 58/58/58 59/59/59
f 57/57/57 59/59/59 60/60/60
f 65/65/65 66/66/66 61/61/61
f 61/61/61 62/62/62 63/63/63
f 63/63/63 64/64/64 65/65/65
f 65/65/65 61/61/61 63/63/63
f 70/70/70 71/71/71 67/67/67
f 67/67/67 65/65/65 68/68/68
f 68/68/68 69/69/69 70/70/70
f 70/70/70 67/67/67 68/68/68
f 75/75/75 76/76/76 72/72/72
f 72/72/72 73/73/73 74/74/74
f 74/74/74 75/75/75 72/72/72
f 81/81/81 82/82/82 77/77/77
f 77/77/77 78/78/78 79/79/79
f 79/79/79 80/80/80 81/81/81
f 81/81/81 77/77/77 79/79/79
f 87/87/87 88/88/88 83/83/83
f 83/83/83 84/84/84 85/85/85
f 85/85/85 86/86/86 87/87/87
f 87/87/87 83/83/83 85/85/85
f 92/92/92 93/93/93 89/89/89
f 89/89/89 90/90/90 91/91/91
f 91/91/91 92/92/92 89/89/89
f 98/98/98 99/99/99 94/94/94
f 94/94/94 95/95/95 96/96/96
f 96/96/96 97/97/97 98/98/98
f 98/98/98 94/94/94 96/96/96
f 104/104/104 105/105/105 100/100/100
f 100/100/100 101/101/101 102/102/102
f 102/102/102 103/103/103 104/104/104
f 104/104/104 100/100/100 102/102/102
f 109/109/109 102/102/102 101/101/101
f 101/101/101 106/106/106 107/107/107
f 107/107/107 108/108/108 109/109/109
f 109/109/109 101/101/101 107/107/107
f 106/106/106 112/112/112 110/110/110
f 110/110/110 111/111/111 107/107/107
f 107/107/107 106/106/106 110/110/110
f 116/116/116 117/117/117 113/113/113
f 113/113/113 114/114/114 115/115/115
f 115/115/115 116/116/116 113/113/113
f 121/121/121 116/116/116 115/115/115
f 115/115/115 118/118/118 119/119/119
f 119/119/119 120/120/120 121/121/121
f 121/121/121 115/115/115 119/119/119
f 125/125/125 119/119/119 118/118/118
f 118/118/118 122/122/122 123/123/123
f 123/123/123 124/124/124 125/125/125
f 125/125/125 118/118/118 123/123/123
f 130/130/130 131/131/131 126/126/126
f 126/126/126 127/127/127 128/128/128
f 128/128/128 129/129/129 130/130/130
f 130/130/130 126/126/126 128/128/128
f 133/133/133 134/134/134 94/94/94
f 94/94/94 99/99/99 132/132/132
f 132/132/132 133/133/133 94/94/94
f 123/123/123 122/122/122 126/126/126
f 126/126/126 131/131/131 135/135/135
f 135/135/135 136/136/136 123/123/123
f 123/123/123 126/126/126 135/135/135
f 140/140/140 141/141/141 137/137/137
f 137/137/137 138/138/138 139/139/139
f 139/139/139 140/140/140 137/137/137
f 146/146/146 147/147/147 142/142/142
f 142/142/142 143/143/143 144/144/144
f 144/144/144 145/145/145 146/146/146
f 146/146/146 142/142/142 144/144/144
f 150/150/150 151/151/151 147/147/147
f 147/147/147 146/146/146 148/148/148
f 148/148/148 149/149/149 150/150/150
f 150/150/150 147/147/147 148/148/148
f 154/154/154 155/155/155 151/151/151
f 151/151/151 150/150/150 152/152/152
f 152/152/152 153/153/153 154/154/154
f 154/154/154 151/151/151 152/152/152
f 159/159/159 160/160/160 156/156/156
f 156/156/156 157/157/157 158/158/158
f 158/158/158 159/159/159 156/156/156
f 137/137/137 141/141/141 27/27/27
f 32/32/32 161/161/161 162/162/162
f 162/162/162 163/163/163 164/164/164
f 137/137/137 27/27/27 30/30/30
f 30/30/30 32/32/32 162/162/162
f 162/162/162 164/164/164 165/165/165
f 165/165/165 137/137/137 30/30/30
f 30/30/30 162/162/162 165/165/165
f 1/1/1 4/4/4 166/166/166
f 147/147/147 151/151/151 155/155/155
f 156/156/156 160/160/160 5/5/5
f 1/1/1 166/166/166 142/142/142
f 147/147/147 155/155/155 156/156/156
f 156/156/156 5/5/5 1/1/1
f 1/1/1 142/142/142 147/147/147
f 147/147/147 156/156/156 1/1/1
f 168/168/168 169/169/169 167/167/167
f 167/167/167 62/62/62 61/61/61
f 61/61/61 168/168/168 167/167/167
f 173/173/173 174/174/174 170/170/170
f 170/170/170 171/171/171 72/72/72
f 72/72/72 172/172/172 173/173/173
f 173/173/173 170/170/170 72/72/72
f 178/178/178 179/179/179 175/175/175
f 175/175/175 173/173/173 176/176/176
f 176/176/176 177/177/177 178/178/178
f 178/178/178 175/175/175 176/176/176
f 184/184/184 185/185/185 180/180/180
f 180/180/180 181/181/181 182/182/182
f 182/182/182 183/183/183 184/184/184
f 184/184/184 180/180/180 182/182/182
f 190/190/190 191/191/191 186/186/186
f 186/186/186 187/187/187 188/188/188
f 188/188/188 189/189/189 190/190/190
f 190/190/190 186/186/186 188/188/188
f 195/195/195 196/196/196 192/192/192
f 192/192/192 193/193/193 194/194/194
f 194/194/194 195/195/195 192/192/192
f 199/199/199 200/200/200 197/197/197
f 163/163/163 162/162/162 199/199/199
f 199/199/199 197/197/197 198/198/198
f 154/154/154 203/203/203 201/201/201
f 201/201/201 202/202/202 156/156/156
f 156/156/156 155/155/155 154/154/154
f 154/154/154 201/201/201 156/156/156
f 205/205/205 206/206/206 204/204/204
f 204/204/204 138/138/138 137/137/137
f 137/137/137 165/165/165 205/205/205
f 205/205/205 204/204/204 137/137/137
f 166/166/166 208/208/208 207/207/207
f 207/207/207 143/143/143 142/142/142
f 142/142/142 166/166/166 207/207/207
f 210/210/210 211/211/211 209/209/209
f 209/209/209 205/205/205 165/165/165
f 210/210/210 209/209/209 165/165/165
f 161/161/161 213/213/213 212/212/212
f 212/212/212 199/199/199 162/162/162
f 162/162/162 161/161/161 212/212/212
f 214/214/214 215/215/215 216/216/216
f 214/214/214 216/216/216 217/217/217
f 215/215/215 214/214/214 218/218/218
f 215/215/215 218/218/218 219/219/219
f 220/220/220 221/221/221 222/222/222
f 220/220/220 222/222/222 223/223/223
f 224/224/224 225/225/225 226/226/226
f 224/224/224 226/226/226 227/227/227
f 225/225/225 224/224/224 228/228/228
f 225/225/225 228/228/228 229/229/229
f 230/230/230 231/231/231 232/232/232
f 230/230/230 232/232/232 233/233/233
f 234/234/234 235/235/235 236/236/236
f 234/234/234 236/236/236 237/237/237
f 238/238/238 234/234/234 239/239/239
f 238/238/238 239/239/239 240/240/240
f 241/241/241 242/242/242 243/243/243
f 241/241/241 243/243/243 244/244/244
f 245/245/245 246/246/246 247/247/247
f 245/245/245 247/247/247 248/248/248
f 246/246/246 245/245/245 249/249/249
f 246/246/246 249/249/249 250/250/250
f 251/251/251 252/252/252 253/253/253
f 251/251/251 253/253/253 254/254/254
f 255/255/255 256/256/256 257/257/257
f 255/255/255 257/257/257 258/258/258
f 256/256/256 255/255/255 259/259/259
f 256/256/256 259/259/259 260/260/260
f 261/261/261 262/262/262 263/263/263
f 261/261/261 263/263/263 264/264/264
f 265/265/265 266/266/266 267/267/267
f 265/265/265 267/267/267 268/268/268
f 269/269/269 270/270/270 271/271/271
f 269/269/269 271/271/271 272/272/272
f 273/273/273 274/274/274 275/275/275
f 273/273/273 275/275/275 276/276/276
f 277/277/277 278/278/278 279/279/279
f 277/277/277 279/279/279 280/280/280
f 278/278/278 281/281/281 282/282/282
f 278/278/278 282/282/282 283/283/283
f 284/284/284 285/285/285 286/286/286
f 284/284/284 286/286/286 287/287/287
f 288/288/288 289/289/289 290/290/290
f 288/288/288 290/290/290 291/291/291
f 292/292/292 293/293/293 294/294/294
f 292/292/292 294/294/294 295/295/295
f 296/296/296 297/297/297 298/298/298
f 296/296/296 298/298/298 299/299/299
f 300/300/300 301/301/301 302/302/302
f 300/300/300 302/302/302 303/303/303
f 301/301/301 300/300/300 304/304/304
f 301/301/301 304/304/304 305/305/305
f 306/306/306 307/307/307 308/308/308
f 306/306/306 308/308/308 309/309/309
f 310/310/310 311/311/311 312/312/312
f 310/310/310 312/312/312 313/313/313
f 311/311/311 310/310/310 314/314/314
f 311/311/311 314/314/314 315/315/315
f 316/316/316 317/317/317 318/318/318
f 316/316/316 318/318/318 319/319/319
f 215/215/215 219/219/219 320/320/320
f 215/215/215 320/320/320 321/321/321
f 218/218/218 214/214/214 225/225/225
f 218/218/218 225/225/225 229/229/229
f 228/228/228 224/224/224 322/322/322
f 228/228/228 322/322/322 240/240/240
f 246/246/246 250/250/250 259/259/259
f 246/246/246 259/259/259 255/255/255
f 249/249/249 245/245/245 323/323/323
f 249/249/249 323/323/323 324/324/324
f 256/256/256 260/260/260 271/271/271
f 256/256/256 271/271/271 270/270/270
f 325/325/325 234/234/234 278/278/278
f 325/325/325 278/278/278 283/283/283
f 266/266/266 326/326/326 294/294/294
f 266/266/266 294/294/294 293/293/293
f 301/301/301 327/327/327 328/328/328
f 301/301/301 328/328/328 277/277/277
f 329/329/329 300/300/300 330/330/330
f 329/329/329 330/330/330 331/331/331
f 289/289/289 332/332/332 333/333/333
f 289/289/289 333/333/333 310/310/310
f 311/311/311 334/334/334 335/335/335
f 311/311/311 335/335/335 336/336/336
f 220/220/220 223/223/223 337/337/337
f 220/220/220 337/337/337 338/338/338
f 253/253/253 252/252/252 339/339/339
f 253/253/253 339/339/339 340/340/340
f 221/221/221 230/230/230 233/233/233
f 221/221/221 233/233/233 222/222/222
f 262/262/262 251/251/251 254/254/254
f 262/262/262 254/254/254 263/263/263
f 341/341/341 241/241/241 244/244/244
f 341/341/341 244/244/244 232/232/232
f 274/274/274 342/342/342 264/264/264
f 274/274/274 264/264/264 275/275/275
f 298/298/298 297/297/297 273/273/273
f 298/298/298 273/273/273 276/276/276
f 285/285/285 343/343/343 344/344/344
f 285/285/285 344/344/344 286/286/286
f 345/345/345 296/296/296 299/299/299
f 345/345/345 299/299/299 346/346/346
f 347/347/347 348/348/348 349/349/349
f 347/347/347 349/349/349 350/350/350
f 351/351/351 352/352/352 353/353/353
f 351/351/351 353/353/353 354/354/354
f 284/284/284 287/287/287 243/243/243
f 284/284/284 243/243/243 242/242/242
f 279/279/279 278/278/278 234/234/234
f 237/237/237 279/279/279 234/234/234
f 355/355/355 312/312/312 311/311/311
f 355/355/355 311/311/311 336/336/336
f 216/216/216 215/215/215 321/321/321
f 216/216/216 321/321/321 356/356/356
f 245/245/245 248/248/248 357/357/357
f 245/245/245 357/357/357 323/323/323
f 226/226/226 225/225/225 214/214/214
f 226/226/226 214/214/214 217/217/217
f 247/247/247 246/246/246 255/255/255
f 247/247/247 255/255/255 258/258/258
f 224/224/224 227/227/227 236/236/236
f 224/224/224 236/236/236 238/238/238
f 257/257/257 256/256/256 265/265/265
f 257/257/257 265/265/265 268/268/268
f 302/302/302 301/301/301 277/277/277
f 302/302/302 277/277/277 280/280/280
f 358/358/358 289/289/289 310/310/310
f 358/358/358 310/310/310 313/313/313
f 300/300/300 303/303/303 359/359/359
f 300/300/300 359/359/359 330/330/330
f 288/288/288 291/291/291 267/267/267
f 288/288/288 267/267/267 266/266/266
f 63/63/63 62/62/62 167/167/167
f 74/74/74 171/171/171 170/170/170
f 68/68/68 65/65/65 64/64/64
f 174/174/174 173/173/173 175/175/175
f 243/243/243 360/360/360 244/244/244
f 275/275/275 361/361/361 276/276/276
f 298/298/298 362/362/362 299/299/299
f 91/91/91 87/87/87 86/86/86
f 286/286/286 363/363/363 287/287/287
f 191/191/191 190/190/190 192/192/192
f 158/158/158 364/364/364 201/201/201
f 139/139/139 138/138/138 204/204/204
f 144/144/144 143/143/143 207/207/207
f 206/206/206 205/205/205 209/209/209
f 148/148/148 146/146/146 145/145/145
f 365/365/365 366/366/366 149/149/149
f 200/200/200 199/199/199 212/212/212
f 203/203/203 367/367/367 368/368/368
f 370/370/370 371/371/371 369/369/369
f 369/369/369 128/128/128 127/127/127
f 127/127/127 370/370/370 369/369/369
f 105/105/105 373/373/373 372/372/372
f 372/372/372 96/96/96 95/95/95
f 95/95/95 100/100/100 105/105/105
f 105/105/105 372/372/372 95/95/95
f 15/15/15 374/374/374 375/375/375
f 15/15/15 375/375/375 16/16/16
f 374/374/374 14/14/14 13/13/13
f 374/374/374 13/13/13 375/375/375
f 11/11/11 376/376/376 377/377/377
f 11/11/11 377/377/377 12/12/12
f 376/376/376 10/10/10 9/9/9
f 376/376/376 9/9/9 377/377/377
f 35/35/35 378/378/378 379/379/379
f 35/35/35 379/379/379 36/36/36
f 378/378/378 18/18/18 17/17/17
f 378/378/378 17/17/17 379/379/379
f 24/24/24 380/380/380 381/381/381
f 24/24/24 381/381/381 25/25/25
f 382/382/382 22/22/22 21/21/21
f 382/382/382 21/21/21 383/383/383
f 19/19/19 384/384/384 385/385/385
f 19/19/19 385/385/385 20/20/20
f 384/384/384 34/34/34 33/33/33
f 384/384/384 33/33/33 385/385/385
f 102/102/102 109/109/109 386/386/386
f 102/102/102 386/386/386 103/103/103
f 119/119/119 125/125/125 387/387/387
f 119/119/119 387/387/387 120/120/120
f 107/107/107 111/111/111 388/388/388
f 107/107/107 388/388/388 108/108/108
f 116/116/116 121/121/121 389/389/389
f 116/116/116 389/389/389 117/117/117
f 105/105/105 104/104/104 390/390/390
f 105/105/105 390/390/390 373/373/373
f 123/123/123 136/136/136 391/391/391
f 123/123/123 391/391/391 124/124/124
f 99/99/99 98/98/98 392/392/392
f 99/99/99 392/392/392 132/132/132
f 128/128/128 369/369/369 393/393/393
f 128/128/128 393/393/393 129/129/129
f 96/96/96 372/372/372 394/394/394
f 96/96/96 394/394/394 97/97/97
f 131/131/131 130/130/130 395/395/395
f 131/131/131 395/395/395 135/135/135
