# Generated by makebsp -bsp2obj
# Source: C:/Users/German/Documents/My Games/Warfork 2.1/basewf/models/mapobjects/wsw_industrial1/source/floor_platform_2
# Axis swap: Q3 Z-up -> OBJ Y-up (X=X, Y=Z, Z=-Y)
o floor_platform_2
mtllib floor_platform_2.mtl
g mat0m0s0
usemtl textures/exwsw/eX_trim_baseboard_03
v -40.000000 -12.000000 -32.000000
vt 0.444444 1.000000
vn -0.707107 0.707107 -0.000000
v -40.000000 -12.000000 -72.000000
vt 1.000000 1.000000
vn -0.707107 0.707107 -0.000000
v -38.750000 -12.000000 -72.000000
vt 1.000000 0.843750
vn 0.000000 1.000000 -0.000000
v -38.750000 -12.000000 -32.000000
vt 0.444444 0.843750
vn 0.000000 1.000000 -0.000000
v -33.250000 -12.000000 -72.000000
vt 1.000000 0.156250
vn 0.000000 1.000000 -0.000000
v -33.250000 -12.000000 -32.000000
vt 0.444444 0.156250
vn 0.000000 1.000000 -0.000000
v -32.000000 -12.000000 -72.000000
vt 1.000000 0.000000
vn 0.707107 0.707107 -0.000000
v -32.000000 -12.000000 -32.000000
vt 0.444444 0.000000
vn 0.707107 0.707107 -0.000000
v -32.000000 -12.000000 -24.000000
vt 0.333333 0.000000
vn -0.500000 0.707107 0.500000
v -40.000000 -12.000000 -32.000000
vt 0.444444 1.000000
vn -0.500000 0.707107 0.500000
v -38.232231 -12.000000 -32.000000
vt 0.444444 0.779029
vn 0.000000 1.000000 -0.000000
v -32.000000 -12.000000 -25.767769
vt 0.357886 0.000000
vn 0.000000 1.000000 -0.000000
v -32.000000 -12.000000 -32.000000
vt 0.444444 0.000000
vn 0.000000 1.000000 -0.000000
v -40.000000 -16.000000 -72.000000
vt 0.437500 0.250000
vn -0.707107 -0.707107 -0.000000
v -40.000000 -16.000000 -32.000000
vt 0.437500 -1.000000
vn -0.707107 -0.707107 -0.000000
v -38.750000 -16.000000 -32.000000
vt 0.447266 -1.000000
vn 0.000000 -1.000000 -0.000000
v -38.750000 -16.000000 -72.000000
vt 0.447266 0.250000
vn 0.000000 -1.000000 -0.000000
v -32.000000 -16.000000 -32.000000
vt 0.500000 -1.000000
vn 0.000000 -1.000000 -0.000000
v -32.000000 -16.000000 -72.000000
vt 0.500000 0.250000
vn 0.000000 -1.000000 -0.000000
v -40.000000 -16.000000 -32.000000
vt 0.250000 0.500000
vn -0.812520 -0.475963 0.336557
v -40.000000 -14.750000 -72.000000
vt 0.562500 0.539062
vn -1.000000 0.000000 -0.000000
v -40.000000 -14.750000 -33.250000
vt 0.259766 0.539062
vn -1.000000 0.000000 -0.000000
v -40.000000 -16.000000 -72.000000
vt 0.562500 0.500000
vn -0.707107 -0.707107 -0.000000
v -40.000000 -13.250000 -72.000000
vt 0.562500 0.585938
vn -1.000000 0.000000 -0.000000
v -40.000000 -13.250000 -33.250000
vt 0.259766 0.585938
vn -1.000000 0.000000 -0.000000
v -40.000000 -12.000000 -32.000000
vt 0.250000 0.625000
vn -0.812520 0.475963 0.336557
v -40.000000 -12.000000 -72.000000
vt 0.562500 0.625000
vn -0.707107 0.707107 -0.000000
v -40.000000 -12.000000 -32.000000
vt 0.250000 0.625000
vn -0.812520 0.475963 0.336557
v -34.500000 -13.250000 -26.500000
vt 0.207031 0.585938
vn -0.707107 0.000000 0.707107
v -39.116116 -13.250000 -31.116116
vt 0.243095 0.585938
vn -0.707107 0.000000 0.707107
v -32.000000 -12.000000 -24.000000
vt 0.187500 0.625000
vn -0.495763 0.813628 0.303692
v -40.000000 -16.000000 -32.000000
vt 0.250000 0.500000
vn -0.883847 0.366954 0.290103
v -39.116116 -15.558058 -31.116116
vt 0.243095 0.513811
vn -0.707107 0.000000 0.707107
v -38.750000 -16.000000 72.000000
vt 0.447266 -0.250000
vn 0.000000 -1.000000 -0.000000
v -32.000000 -16.000000 72.000000
vt 0.500000 -0.250000
vn 0.000000 -1.000000 -0.000000
v -32.000000 -16.000000 32.000000
vt 0.500000 1.000000
vn 0.000000 -1.000000 -0.000000
v -38.750000 -16.000000 32.000000
vt 0.447266 1.000000
vn 0.000000 -1.000000 -0.000000
v -40.000000 -16.000000 32.000000
vt 0.437500 1.000000
vn -0.707107 -0.707107 -0.000000
v -40.000000 -16.000000 72.000000
vt 0.437500 -0.250000
vn -0.707107 -0.707107 -0.000000
v -40.000000 -12.000000 32.000000
vt 0.555556 1.000000
vn -0.500000 0.707107 -0.500000
v -32.000000 -12.000000 24.000000
vt 0.666667 0.000000
vn -0.500000 0.707107 -0.500000
v -32.000000 -12.000000 25.767769
vt 0.642114 0.000000
vn 0.000000 1.000000 -0.000000
v -38.232231 -12.000000 32.000000
vt 0.555556 0.779029
vn 0.000000 1.000000 -0.000000
v -32.000000 -12.000000 32.000000
vt 0.555556 0.000000
vn 0.000000 1.000000 -0.000000
v -40.000000 -12.000000 72.000000
vt 0.000000 1.000000
vn -0.707107 0.707107 -0.000000
v -40.000000 -12.000000 32.000000
vt 0.555556 1.000000
vn -0.707107 0.707107 -0.000000
v -38.750000 -12.000000 32.000000
vt 0.555556 0.843750
vn 0.000000 1.000000 -0.000000
v -38.750000 -12.000000 72.000000
vt 0.000000 0.843750
vn 0.000000 1.000000 -0.000000
v -33.250000 -12.000000 32.000000
vt 0.555556 0.156250
vn 0.000000 1.000000 -0.000000
v -33.250000 -12.000000 72.000000
vt 0.000000 0.156250
vn 0.000000 1.000000 -0.000000
v -32.000000 -12.000000 32.000000
vt 0.555556 0.000000
vn 0.707107 0.707107 -0.000000
v -32.000000 -12.000000 72.000000
vt 0.000000 0.000000
vn 0.707107 0.707107 -0.000000
v -40.000000 -12.000000 32.000000
vt 0.750000 0.625000
vn -0.812520 0.475963 -0.336557
v -40.000000 -13.250000 72.000000
vt 0.437500 0.585938
vn -1.000000 0.000000 -0.000000
v -40.000000 -13.250000 33.250000
vt 0.740234 0.585938
vn -1.000000 0.000000 -0.000000
v -40.000000 -16.000000 32.000000
vt 0.750000 0.500000
vn -0.812520 -0.475963 -0.336557
v -40.000000 -12.000000 72.000000
vt 0.437500 0.625000
vn -0.707107 0.707107 -0.000000
v -40.000000 -14.750000 33.250000
vt 0.740234 0.539062
vn -1.000000 0.000000 -0.000000
v -40.000000 -16.000000 72.000000
vt 0.437500 0.500000
vn -0.707107 -0.707107 -0.000000
v -40.000000 -14.750000 72.000000
vt 0.437500 0.539062
vn -1.000000 0.000000 -0.000000
v -39.116116 -15.558058 31.116116
vt 0.756905 0.513811
vn -0.707107 0.000000 -0.707107
v -34.500004 -13.250002 26.500004
vt 0.792969 0.585937
vn -0.707107 0.000000 -0.707107
v -39.116116 -13.250000 31.116116
vt 0.756905 0.585938
vn -0.707107 0.000000 -0.707107
v -40.000000 -12.000000 32.000000
vt 0.750000 0.625000
vn -0.812520 0.475963 -0.336557
v -40.000000 -16.000000 32.000000
vt 0.750000 0.500000
vn -0.883847 0.366954 -0.290103
v -32.000000 -12.000000 24.000000
vt 0.812500 0.625000
vn -0.495763 0.813628 -0.303692
v -32.000000 -16.000000 32.000000
vt 0.500000 -1.000000
vn 0.000000 -1.000000 -0.000000
v -32.000000 -16.000000 -32.000000
vt 0.500000 1.000000
vn 0.000000 -1.000000 -0.000000
v -40.000000 -16.000000 -32.000000
vt 0.437500 1.000000
vn 0.000000 -1.000000 -0.000000
v -40.000000 -16.000000 32.000000
vt 0.437500 -1.000000
vn 0.000000 -1.000000 -0.000000
v -32.000000 -12.000000 -24.000000
vt 0.333333 1.000000
vn 0.000000 1.000000 -0.000000
v -32.000000 -12.000000 -31.057190
vt 0.431350 1.000000
vn 0.000000 1.000000 -0.000000
v -30.000000 -12.000000 -29.057190
vt 0.403572 0.750000
vn 0.000000 1.000000 -0.000000
v -30.000000 -12.000000 -24.000000
vt 0.333333 0.750000
vn 0.000000 1.000000 -0.000000
v -32.000000 -12.000000 31.057190
vt 0.568650 1.000000
vn 0.000000 1.000000 -0.000000
v -32.000000 -12.000000 -24.000000
vt 1.333333 1.000000
vn 0.000000 1.000000 -0.000000
v -30.000000 -12.000000 -24.000000
vt 1.333333 0.750000
vn 0.000000 1.000000 -0.000000
v -30.000000 -12.000000 29.057190
vt 0.596428 0.750000
vn 0.000000 1.000000 -0.000000
v -30.000000 -12.000000 30.000000
vt 0.583333 0.750000
vn 0.500000 0.707107 0.500000
v -32.000000 -12.000000 32.000000
vt 0.555556 1.000000
vn 0.500000 0.707107 0.500000
v -32.000000 -12.000000 -32.000000
vt 0.444444 1.000000
vn 0.500000 0.707107 -0.500000
v -30.000000 -12.000000 -30.000000
vt 0.416667 0.750000
vn 0.500000 0.707107 -0.500000
v -24.000000 -14.000000 22.276989
vt 0.690597 0.000000
vn 0.316228 0.948683 -0.000000
v -30.000000 -12.000000 28.276995
vt 0.607264 0.750000
vn 0.316228 0.948683 -0.000000
v -30.000000 -12.000000 -28.276989
vt 1.392736 0.750000
vn 0.316228 0.948683 -0.000000
v -24.000000 -13.999999 -22.276995
vt 1.309403 0.000000
vn 0.316228 0.948683 -0.000000
v -30.000000 -12.000000 -30.000000
vt 1.416667 0.750000
vn 0.654157 0.606436 -0.452011
v -24.000000 -14.000000 -24.000000
vt 1.333333 0.000000
vn 0.654157 0.606436 -0.452011
v -24.000000 -14.000000 24.000000
vt 0.666667 0.000000
vn 0.654157 0.606436 0.452011
v -30.000000 -12.000000 30.000000
vt 0.583333 0.750000
vn 0.654157 0.606436 0.452011
f 22/22/22 24/24/24 21/21/21
f 22/22/22 25/25/25 24/24/24
f 27/27/27 25/25/25 26/26/26
f 27/27/27 24/24/24 25/25/25
f 20/20/20 21/21/21 23/23/23
f 20/20/20 22/22/22 21/21/21
f 26/26/26 22/22/22 20/20/20
f 26/26/26 25/25/25 22/22/22
f 33/33/33 29/29/29 30/30/30
f 28/28/28 29/29/29 31/31/31
f 28/28/28 30/30/30 29/29/29
f 32/32/32 30/30/30 28/28/28
f 32/32/32 33/33/33 30/30/30
f 18/18/18 17/17/17 19/19/19
f 18/18/18 16/16/16 17/17/17
f 14/14/14 16/16/16 15/15/15
f 14/14/14 17/17/17 16/16/16
f 34/34/34 36/36/36 35/35/35
f 34/34/34 37/37/37 36/36/36
f 38/38/38 34/34/34 39/39/39
f 38/38/38 37/37/37 34/34/34
f 67/67/67 69/69/69 68/68/68
f 67/67/67 70/70/70 69/69/69
f 13/13/13 11/11/11 12/12/12
f 9/9/9 11/11/11 10/10/10
f 9/9/9 12/12/12 11/11/11
f 5/5/5 4/4/4 6/6/6
f 5/5/5 3/3/3 4/4/4
f 7/7/7 6/6/6 8/8/8
f 7/7/7 5/5/5 6/6/6
f 1/1/1 3/3/3 2/2/2
f 1/1/1 4/4/4 3/3/3
f 71/71/71 73/73/73 72/72/72
f 71/71/71 74/74/74 73/73/73
f 81/81/81 73/73/73 82/82/82
f 81/81/81 72/72/72 73/73/73
f 75/75/75 77/77/77 76/76/76
f 75/75/75 78/78/78 77/77/77
f 79/79/79 75/75/75 80/80/80
f 79/79/79 78/78/78 75/75/75
f 60/60/60 55/55/55 58/58/58
f 60/60/60 54/54/54 55/55/55
f 59/59/59 58/58/58 56/56/56
f 59/59/59 60/60/60 58/58/58
f 53/53/53 54/54/54 57/57/57
f 53/53/53 55/55/55 54/54/54
f 56/56/56 55/55/55 53/53/53
f 56/56/56 58/58/58 55/55/55
f 61/61/61 63/63/63 62/62/62
f 66/66/66 63/63/63 64/64/64
f 66/66/66 62/62/62 63/63/63
f 64/64/64 61/61/61 65/65/65
f 64/64/64 63/63/63 61/61/61
f 83/83/83 85/85/85 84/84/84
f 83/83/83 86/86/86 85/85/85
f 87/87/87 86/86/86 88/88/88
f 87/87/87 85/85/85 86/86/86
f 89/89/89 84/84/84 90/90/90
f 89/89/89 83/83/83 84/84/84
f 48/48/48 49/49/49 47/47/47
f 48/48/48 50/50/50 49/49/49
f 51/51/51 50/50/50 52/52/52
f 51/51/51 49/49/49 50/50/50
f 45/45/45 47/47/47 46/46/46
f 45/45/45 48/48/48 47/47/47
f 43/43/43 44/44/44 42/42/42
f 40/40/40 42/42/42 41/41/41
f 40/40/40 43/43/43 42/42/42
g mat1m0s1
usemtl textures/exwsw/matte_eX_surf_metallightgrey
v -32.000000 -12.666667 -32.000000
vt 0.250000 0.432292
vn 1.000000 0.000000 -0.000000
v -32.000000 -12.666667 -72.000000
vt 0.562500 0.432292
vn 1.000000 0.000000 -0.000000
v -32.000000 -14.000000 -72.000000
vt 0.562500 0.421875
vn 1.000000 0.000000 -0.000000
v -32.000000 -14.000000 -32.000000
vt 0.250000 0.421875
vn 1.000000 0.000000 -0.000000
v -32.000000 -12.000000 -32.000000
vt 0.250000 0.437500
vn 0.812520 0.475963 -0.336557
v -32.000000 -12.000000 -72.000000
vt 0.562500 0.437500
vn 0.812520 0.475963 0.336557
v -30.054810 -12.666665 -30.054810
vt 0.234803 0.432292
vn 0.707107 0.000000 -0.707107
v -32.000000 -14.000000 -32.000000
vt 0.250000 0.421875
vn 0.707107 0.000000 -0.707107
v -25.885618 -14.000000 -25.885618
vt 0.202231 0.421875
vn 0.707107 0.000000 -0.707107
v -24.000000 -14.000000 -24.000000
vt 0.187500 0.421875
vn 0.654157 0.606436 -0.452011
v -30.000000 -12.000000 -30.000000
vt 0.234375 0.437500
vn 0.442650 0.842916 -0.305864
v -32.000000 -12.666667 -32.000000
vt 0.250000 0.432292
vn 0.707107 0.000000 -0.707107
v -32.000000 -12.000000 -32.000000
vt 0.250000 0.437500
vn 0.812520 0.475963 -0.336557
v -24.000000 -13.000000 -80.000000
vt 0.437500 0.898438
vn 0.000000 0.000000 1.000000
v 24.000000 -14.000000 -80.000000
vt 0.062500 0.890625
vn 0.000000 0.000000 1.000000
v -24.000000 -14.000000 -80.000000
vt 0.437500 0.890625
vn 0.000000 0.000000 1.000000
v 24.000000 -13.000000 -80.000000
vt 0.062500 0.898438
vn 0.000000 0.000000 1.000000
v -24.000000 -13.000000 -80.000000
vt 4.000000 0.500000
vn 0.707107 0.000000 0.707107
v -32.000000 -14.000000 -72.000000
vt 0.000000 1.000000
vn 0.707107 0.000000 0.707107
v -32.000000 -12.000000 -72.000000
vt 0.000000 0.000000
vn 0.707107 0.000000 0.707107
v -24.000000 -14.000000 -80.000000
vt 4.000000 1.000000
vn 0.707107 0.000000 0.707107
v 32.000000 -12.000000 -72.000000
vt 0.000000 0.000000
vn -0.707107 0.000000 0.707107
v 32.000000 -14.000000 -72.000000
vt 0.000000 1.000000
vn -0.707107 0.000000 0.707107
v 24.000000 -14.000000 -80.000000
vt 4.000000 1.000000
vn -0.707107 0.000000 0.707107
v 24.000000 -13.000000 -80.000000
vt 4.000000 0.500000
vn -0.707107 0.000000 0.707107
f 91/91/91 93/93/93 92/92/92
f 91/91/91 94/94/94 93/93/93
f 95/95/95 92/92/92 96/96/96
f 95/95/95 91/91/91 92/92/92
f 97/97/97 98/98/98 102/102/102
f 97/97/97 99/99/99 98/98/98
f 101/101/101 102/102/102 103/103/103
f 101/101/101 97/97/97 102/102/102
f 100/100/100 97/97/97 101/101/101
f 100/100/100 99/99/99 97/97/97
f 108/108/108 109/109/109 111/111/111
f 108/108/108 110/110/110 109/109/109
f 104/104/104 105/105/105 107/107/107
f 104/104/104 106/106/106 105/105/105
f 112/112/112 114/114/114 113/113/113
f 112/112/112 115/115/115 114/114/114
g mat1m0s2
usemtl textures/exwsw/matte_eX_surf_metallightgrey
v -32.000000 -14.000000 72.000000
vt 0.437500 0.421875
vn 1.000000 0.000000 -0.000000
v -32.000000 -12.666667 72.000000
vt 0.437500 0.432292
vn 1.000000 0.000000 -0.000000
v -32.000000 -12.666667 32.000000
vt 0.750000 0.432292
vn 1.000000 0.000000 -0.000000
v -32.000000 -14.000000 32.000000
vt 0.750000 0.421875
vn 1.000000 0.000000 -0.000000
v -32.000000 -12.000000 72.000000
vt 0.437500 0.437500
vn 0.812520 0.475963 -0.336557
v -32.000000 -12.000000 32.000000
vt 0.750000 0.437500
vn 0.812520 0.475963 0.336557
v -25.885618 -13.999999 25.885618
vt 0.797769 0.421875
vn 0.707107 0.000000 0.707107
v -32.000000 -12.666667 32.000000
vt 0.750000 0.432292
vn 0.707107 0.000000 0.707107
v -30.054798 -12.666667 30.054798
vt 0.765197 0.432292
vn 0.707107 0.000000 0.707107
v -30.000000 -12.000000 30.000000
vt 0.765625 0.437500
vn 0.442650 0.842916 0.305864
v -32.000000 -12.000000 32.000000
vt 0.750000 0.437500
vn 0.812520 0.475963 0.336557
v -24.000000 -14.000000 24.000000
vt 0.812500 0.421875
vn 0.654157 0.606436 0.452011
v -32.000000 -14.000000 32.000000
vt 0.750000 0.421875
vn 0.707107 0.000000 0.707107
v -24.000000 -14.000000 80.000000
vt 0.562500 0.890625
vn 0.000000 0.000000 -1.000000
v 24.000000 -14.000000 80.000000
vt 0.937500 0.890625
vn 0.000000 0.000000 -1.000000
v 24.000000 -13.000000 80.000000
vt 0.937500 0.898438
vn 0.000000 0.000000 -1.000000
v -24.000000 -13.000000 80.000000
vt 0.562500 0.898438
vn 0.000000 0.000000 -1.000000
v -32.000000 -12.000000 72.000000
vt 2.000000 1.000000
vn 0.707107 0.000000 -0.707107
v -32.000000 -14.000000 72.000000
vt 2.000000 0.000000
vn 0.707107 0.000000 -0.707107
v -24.000000 -14.000000 80.000000
vt 0.000000 0.000000
vn 0.707107 0.000000 -0.707107
v -24.000000 -13.000000 80.000000
vt 0.000000 0.500000
vn 0.707107 0.000000 -0.707107
v 24.000000 -13.000000 80.000000
vt 0.000000 0.500000
vn -0.707107 0.000000 -0.707107
v 32.000000 -14.000000 72.000000
vt 2.000000 0.000000
vn -0.707107 0.000000 -0.707107
v 32.000000 -12.000000 72.000000
vt 2.000000 1.000000
vn -0.707107 0.000000 -0.707107
v 24.000000 -14.000000 80.000000
vt 0.000000 0.000000
vn -0.707107 0.000000 -0.707107
f 116/116/116 118/118/118 117/117/117
f 116/116/116 119/119/119 118/118/118
f 120/120/120 118/118/118 121/121/121
f 120/120/120 117/117/117 118/118/118
f 122/122/122 123/123/123 128/128/128
f 122/122/122 124/124/124 123/123/123
f 126/126/126 124/124/124 125/125/125
f 126/126/126 123/123/123 124/124/124
f 125/125/125 122/122/122 127/127/127
f 125/125/125 124/124/124 122/122/122
f 133/133/133 135/135/135 134/134/134
f 133/133/133 136/136/136 135/135/135
f 129/129/129 131/131/131 130/130/130
f 129/129/129 132/132/132 131/131/131
f 137/137/137 138/138/138 140/140/140
f 137/137/137 139/139/139 138/138/138
g mat2m0s3
usemtl textures/exwsw/eX_trim_baseboard_blue
v -32.000000 -12.000000 24.000000
vt 2.625000 0.000000
vn -0.447214 0.894427 -0.000000
v -40.000000 -16.000000 32.000000
vt 3.000000 -1.000000
vn -0.447214 0.894427 -0.000000
v -40.000000 -16.000000 -32.000000
vt 0.000000 -1.000000
vn -0.447214 0.894427 -0.000000
v -32.000000 -12.000000 -24.000000
vt 0.375000 0.000000
vn -0.447214 0.894427 -0.000000
f 141/141/141 143/143/143 142/142/142
f 141/141/141 144/144/144 143/143/143
g mat1m0s4
usemtl textures/exwsw/matte_eX_surf_metallightgrey
v 32.000000 -14.000000 -72.000000
vt 0.437500 0.421875
vn -1.000000 0.000000 -0.000000
v 32.000000 -12.666667 -72.000000
vt 0.437500 0.432292
vn -1.000000 0.000000 -0.000000
v 32.000000 -12.666667 -32.000000
vt 0.750000 0.432292
vn -1.000000 0.000000 -0.000000
v 32.000000 -12.000000 -72.000000
vt 0.437500 0.437500
vn -0.812520 0.475963 0.336557
v 32.000000 -12.000000 -32.000000
vt 0.750000 0.437500
vn -0.812520 0.475963 -0.336557
v 32.000000 -14.000000 -32.000000
vt 0.750000 0.421875
vn -1.000000 0.000000 -0.000000
v 25.885618 -13.999999 -25.885618
vt 0.797769 0.421875
vn -0.707107 0.000000 -0.707107
v 32.000000 -12.666667 -32.000000
vt 0.750000 0.432292
vn -0.707107 0.000000 -0.707107
v 30.054798 -12.666667 -30.054798
vt 0.765197 0.432292
vn -0.707107 0.000000 -0.707107
v 30.000000 -12.000000 -30.000000
vt 0.765625 0.437500
vn -0.442650 0.842916 -0.305864
v 32.000000 -12.000000 -32.000000
vt 0.750000 0.437500
vn -0.812520 0.475963 -0.336557
v 24.000000 -14.000000 -24.000000
vt 0.812500 0.421875
vn -0.654157 0.606436 -0.452011
v 32.000000 -14.000000 -32.000000
vt 0.750000 0.421875
vn -0.707107 0.000000 -0.707107
f 151/151/151 152/152/152 157/157/157
f 151/151/151 153/153/153 152/152/152
f 155/155/155 153/153/153 154/154/154
f 155/155/155 152/152/152 153/153/153
f 154/154/154 151/151/151 156/156/156
f 154/154/154 153/153/153 151/151/151
f 145/145/145 147/147/147 146/146/146
f 145/145/145 150/150/150 147/147/147
f 148/148/148 147/147/147 149/149/149
f 148/148/148 146/146/146 147/147/147
g mat1m0s5
usemtl textures/exwsw/matte_eX_surf_metallightgrey
v 32.000000 -12.666667 32.000000
vt 0.250000 0.432292
vn -1.000000 0.000000 -0.000000
v 32.000000 -12.666667 72.000000
vt 0.562500 0.432292
vn -1.000000 0.000000 -0.000000
v 32.000000 -14.000000 72.000000
vt 0.562500 0.421875
vn -1.000000 0.000000 -0.000000
v 32.000000 -12.000000 32.000000
vt 0.250000 0.437500
vn -0.812520 0.475963 0.336557
v 32.000000 -12.000000 72.000000
vt 0.562500 0.437500
vn -0.812520 0.475963 -0.336557
v 32.000000 -14.000000 32.000000
vt 0.250000 0.421875
vn -1.000000 0.000000 -0.000000
v 30.054810 -12.666665 30.054810
vt 0.234803 0.432292
vn -0.707107 0.000000 0.707107
v 32.000000 -14.000000 32.000000
vt 0.250000 0.421875
vn -0.707107 0.000000 0.707107
v 25.885618 -14.000000 25.885618
vt 0.202231 0.421875
vn -0.707107 0.000000 0.707107
v 24.000000 -14.000000 24.000000
vt 0.187500 0.421875
vn -0.654157 0.606436 0.452011
v 30.000000 -12.000000 30.000000
vt 0.234375 0.437500
vn -0.442650 0.842916 0.305864
v 32.000000 -12.666667 32.000000
vt 0.250000 0.432292
vn -0.707107 0.000000 0.707107
v 32.000000 -12.000000 32.000000
vt 0.250000 0.437500
vn -0.812520 0.475963 0.336557
f 164/164/164 165/165/165 169/169/169
f 164/164/164 166/166/166 165/165/165
f 168/168/168 169/169/169 170/170/170
f 168/168/168 164/164/164 169/169/169
f 167/167/167 164/164/164 168/168/168
f 167/167/167 166/166/166 164/164/164
f 158/158/158 160/160/160 159/159/159
f 158/158/158 163/163/163 160/160/160
f 161/161/161 159/159/159 162/162/162
f 161/161/161 158/158/158 159/159/159
g mat0m0s6
usemtl textures/exwsw/eX_trim_baseboard_03
v 30.000000 -12.000000 28.276989
vt 1.392736 0.750000
vn -0.316228 0.948683 -0.000000
v 24.000000 -13.999999 22.276995
vt 1.309403 0.000000
vn -0.316228 0.948683 -0.000000
v 24.000000 -14.000000 -22.276989
vt 0.690597 -0.000000
vn -0.316228 0.948683 -0.000000
v 30.000000 -12.000000 -28.276995
vt 0.607264 0.750000
vn -0.316228 0.948683 -0.000000
v 24.000000 -14.000000 -24.000000
vt 0.666667 -0.000000
vn -0.654157 0.606436 -0.452011
v 30.000000 -12.000000 -30.000000
vt 0.583333 0.750000
vn -0.654157 0.606436 -0.452011
v 30.000000 -12.000000 30.000000
vt 1.416667 0.750000
vn -0.654157 0.606436 0.452011
v 24.000000 -14.000000 24.000000
vt 1.333333 0.000000
vn -0.654157 0.606436 0.452011
v 30.000000 -12.000000 -30.000000
vt 0.583333 0.750000
vn -0.500000 0.707107 -0.500000
v 32.000000 -12.000000 -32.000000
vt 0.555556 1.000000
vn -0.500000 0.707107 -0.500000
v 32.000000 -12.000000 -31.057190
vt 0.568650 1.000000
vn 0.000000 1.000000 -0.000000
v 30.000000 -12.000000 -29.057190
vt 0.596428 0.750000
vn 0.000000 1.000000 -0.000000
v 30.000000 -12.000000 24.000000
vt 1.333333 0.750000
vn 0.000000 1.000000 -0.000000
v 32.000000 -12.000000 24.000000
vt 1.333333 1.000000
vn 0.000000 1.000000 -0.000000
v 32.000000 -12.000000 31.057190
vt 0.431350 1.000000
vn 0.000000 1.000000 -0.000000
v 30.000000 -12.000000 24.000000
vt 0.333333 0.750000
vn 0.000000 1.000000 -0.000000
v 32.000000 -12.000000 24.000000
vt 0.333333 1.000000
vn 0.000000 1.000000 -0.000000
v 30.000000 -12.000000 29.057190
vt 0.403572 0.750000
vn 0.000000 1.000000 -0.000000
v 32.000000 -12.000000 32.000000
vt 0.444444 1.000000
vn -0.500000 0.707107 0.500000
v 30.000000 -12.000000 30.000000
vt 0.416667 0.750000
vn -0.500000 0.707107 0.500000
v 40.000000 -12.000000 -32.000000
vt 0.555556 1.000000
vn 0.500000 0.707107 0.500000
v 32.000000 -12.000000 -24.000000
vt 0.666667 -0.000000
vn 0.500000 0.707107 0.500000
v 32.000000 -12.000000 -25.767769
vt 0.642114 -0.000000
vn 0.000000 1.000000 -0.000000
v 38.232231 -12.000000 -32.000000
vt 0.555556 0.779029
vn 0.000000 1.000000 -0.000000
v 32.000000 -12.000000 -32.000000
vt 0.555556 -0.000000
vn 0.000000 1.000000 -0.000000
v 40.000000 -16.000000 -32.000000
vt 0.437500 1.000000
vn 0.707107 -0.707107 -0.000000
v 40.000000 -16.000000 -72.000000
vt 0.437500 -0.250000
vn 0.707107 -0.707107 -0.000000
v 38.750000 -16.000000 -72.000000
vt 0.447266 -0.250000
vn 0.000000 -1.000000 -0.000000
v 38.750000 -16.000000 -32.000000
vt 0.447266 1.000000
vn 0.000000 -1.000000 -0.000000
v 32.000000 -16.000000 -72.000000
vt 0.500000 -0.250000
vn 0.000000 -1.000000 -0.000000
v 32.000000 -16.000000 -32.000000
vt 0.500000 1.000000
vn 0.000000 -1.000000 -0.000000
v 40.000000 -12.000000 -72.000000
vt 0.000000 1.000000
vn 0.707107 0.707107 -0.000000
v 40.000000 -12.000000 -32.000000
vt 0.555556 1.000000
vn 0.707107 0.707107 -0.000000
v 38.750000 -12.000000 -32.000000
vt 0.555556 0.843750
vn 0.000000 1.000000 -0.000000
v 38.750000 -12.000000 -72.000000
vt 0.000000 0.843750
vn 0.000000 1.000000 -0.000000
v 33.250000 -12.000000 -72.000000
vt -0.000000 0.156250
vn 0.000000 1.000000 -0.000000
v 33.250000 -12.000000 -32.000000
vt 0.555556 0.156250
vn 0.000000 1.000000 -0.000000
v 32.000000 -12.000000 -32.000000
vt 0.555556 -0.000000
vn -0.707107 0.707107 -0.000000
v 32.000000 -12.000000 -72.000000
vt 0.000000 -0.000000
vn -0.707107 0.707107 -0.000000
v 40.000000 -12.000000 -32.000000
vt 0.750000 0.625000
vn 0.812520 0.475963 0.336557
v 40.000000 -13.250000 -72.000000
vt 0.437500 0.585938
vn 1.000000 0.000000 -0.000000
v 40.000000 -13.250000 -33.250000
vt 0.740234 0.585938
vn 1.000000 0.000000 -0.000000
v 40.000000 -12.000000 -72.000000
vt 0.437500 0.625000
vn 0.707107 0.707107 -0.000000
v 40.000000 -16.000000 -32.000000
vt 0.750000 0.500000
vn 0.812520 -0.475963 0.336557
v 40.000000 -14.750000 -33.250000
vt 0.740234 0.539062
vn 1.000000 0.000000 -0.000000
v 40.000000 -16.000000 -72.000000
vt 0.437500 0.500000
vn 0.707107 -0.707107 -0.000000
v 40.000000 -14.750000 -72.000000
vt 0.437500 0.539062
vn 1.000000 0.000000 -0.000000
v 39.116116 -15.558058 -31.116116
vt 0.756905 0.513811
vn 0.707107 0.000000 0.707107
v 34.500004 -13.250002 -26.500004
vt 0.792969 0.585937
vn 0.707107 0.000000 0.707107
v 39.116116 -13.250000 -31.116116
vt 0.756905 0.585938
vn 0.707107 0.000000 0.707107
v 40.000000 -12.000000 -32.000000
vt 0.750000 0.625000
vn 0.812520 0.475963 0.336557
v 32.000000 -12.000000 -24.000000
vt 0.812500 0.625000
vn 0.495763 0.813628 0.303692
v 40.000000 -16.000000 -32.000000
vt 0.750000 0.500000
vn 0.883847 0.366954 0.290103
v 40.000000 -12.000000 32.000000
vt 0.444444 0.000000
vn 0.707107 0.707107 -0.000000
v 40.000000 -12.000000 72.000000
vt 1.000000 0.000000
vn 0.707107 0.707107 -0.000000
v 38.750000 -12.000000 72.000000
vt 1.000000 -0.156250
vn 0.000000 1.000000 -0.000000
v 38.750000 -12.000000 32.000000
vt 0.444444 -0.156250
vn 0.000000 1.000000 -0.000000
v 33.250000 -12.000000 72.000000
vt 1.000000 -0.843750
vn 0.000000 1.000000 -0.000000
v 33.250000 -12.000000 32.000000
vt 0.444444 -0.843750
vn 0.000000 1.000000 -0.000000
v 32.000000 -12.000000 72.000000
vt 1.000000 -1.000000
vn -0.707107 0.707107 -0.000000
v 32.000000 -12.000000 32.000000
vt 0.444444 -1.000000
vn -0.707107 0.707107 -0.000000
v 40.000000 -16.000000 72.000000
vt 0.437500 0.250000
vn 0.707107 -0.707107 -0.000000
v 40.000000 -16.000000 32.000000
vt 0.437500 -1.000000
vn 0.707107 -0.707107 -0.000000
v 38.750000 -16.000000 32.000000
vt 0.447266 -1.000000
vn 0.000000 -1.000000 -0.000000
v 38.750000 -16.000000 72.000000
vt 0.447266 0.250000
vn 0.000000 -1.000000 -0.000000
v 32.000000 -16.000000 32.000000
vt 0.500000 -1.000000
vn 0.000000 -1.000000 -0.000000
v 32.000000 -16.000000 72.000000
vt 0.500000 0.250000
vn 0.000000 -1.000000 -0.000000
v 32.000000 -12.000000 24.000000
vt 0.333333 0.000000
vn 0.500000 0.707107 -0.500000
v 40.000000 -12.000000 32.000000
vt 0.444444 1.000000
vn 0.500000 0.707107 -0.500000
v 38.232231 -12.000000 32.000000
vt 0.444444 0.779029
vn 0.000000 1.000000 -0.000000
v 32.000000 -12.000000 25.767769
vt 0.357886 0.000000
vn 0.000000 1.000000 -0.000000
v 32.000000 -12.000000 32.000000
vt 0.444444 0.000000
vn 0.000000 1.000000 -0.000000
v 40.000000 -16.000000 32.000000
vt 0.250000 0.500000
vn 0.812520 -0.475963 -0.336557
v 40.000000 -14.750000 72.000000
vt 0.562500 0.539062
vn 1.000000 0.000000 -0.000000
v 40.000000 -14.750000 33.250000
vt 0.259766 0.539062
vn 1.000000 0.000000 -0.000000
v 40.000000 -16.000000 72.000000
vt 0.562500 0.500000
vn 0.707107 -0.707107 -0.000000
v 40.000000 -12.000000 32.000000
vt 0.250000 0.625000
vn 0.812520 0.475963 -0.336557
v 40.000000 -13.250000 33.250000
vt 0.259766 0.585938
vn 1.000000 0.000000 -0.000000
v 40.000000 -12.000000 72.000000
vt 0.562500 0.625000
vn 0.707107 0.707107 -0.000000
v 40.000000 -13.250000 72.000000
vt 0.562500 0.585938
vn 1.000000 0.000000 -0.000000
v 40.000000 -12.000000 32.000000
vt 0.250000 0.625000
vn 0.812520 0.475963 -0.336557
v 34.500000 -13.250000 26.500000
vt 0.207031 0.585938
vn 0.707107 0.000000 -0.707107
v 39.116116 -13.250000 31.116116
vt 0.243095 0.585938
vn 0.707107 0.000000 -0.707107
v 40.000000 -16.000000 32.000000
vt 0.250000 0.500000
vn 0.883847 0.366954 -0.290103
v 32.000000 -12.000000 24.000000
vt 0.187500 0.625000
vn 0.495763 0.813628 -0.303692
v 39.116116 -15.558058 31.116116
vt 0.243095 0.513811
vn 0.707107 0.000000 -0.707107
v 40.000000 -16.000000 32.000000
vt 0.437500 1.000000
vn 0.000000 -1.000000 -0.000000
v 40.000000 -16.000000 -32.000000
vt 0.437500 -1.000000
vn 0.000000 -1.000000 -0.000000
v 32.000000 -16.000000 -32.000000
vt 0.500000 -1.000000
vn 0.000000 -1.000000 -0.000000
v 32.000000 -16.000000 32.000000
vt 0.500000 1.000000
vn 0.000000 -1.000000 -0.000000
f 171/171/171 173/173/173 172/172/172
f 171/171/171 174/174/174 173/173/173
f 177/177/177 172/172/172 178/178/178
f 177/177/177 171/171/171 172/172/172
f 175/175/175 174/174/174 176/176/176
f 175/175/175 173/173/173 174/174/174
f 179/179/179 181/181/181 180/180/180
f 179/179/179 182/182/182 181/181/181
f 185/185/185 186/186/186 188/188/188
f 185/185/185 187/187/187 186/186/186
f 189/189/189 188/188/188 190/190/190
f 189/189/189 185/185/185 188/188/188
f 183/183/183 181/181/181 182/182/182
f 183/183/183 184/184/184 181/181/181
f 218/218/218 220/220/220 219/219/219
f 222/222/222 220/220/220 221/221/221
f 222/222/222 219/219/219 220/220/220
f 221/221/221 218/218/218 223/223/223
f 221/221/221 220/220/220 218/218/218
f 256/256/256 252/252/252 253/253/253
f 251/251/251 252/252/252 255/255/255
f 251/251/251 253/253/253 252/252/252
f 254/254/254 253/253/253 251/251/251
f 254/254/254 256/256/256 253/253/253
f 204/204/204 206/206/206 207/207/207
f 204/204/204 205/205/205 206/206/206
f 202/202/202 204/204/204 203/203/203
f 202/202/202 205/205/205 204/204/204
f 208/208/208 206/206/206 209/209/209
f 208/208/208 207/207/207 206/206/206
f 194/194/194 195/195/195 193/193/193
f 191/191/191 193/193/193 192/192/192
f 191/191/191 194/194/194 193/193/193
f 242/242/242 240/240/240 241/241/241
f 238/238/238 240/240/240 239/239/239
f 238/238/238 241/241/241 240/240/240
f 228/228/228 227/227/227 229/229/229
f 228/228/228 226/226/226 227/227/227
f 224/224/224 226/226/226 225/225/225
f 224/224/224 227/227/227 226/226/226
f 230/230/230 229/229/229 231/231/231
f 230/230/230 228/228/228 229/229/229
f 217/217/217 212/212/212 215/215/215
f 217/217/217 211/211/211 212/212/212
f 210/210/210 211/211/211 213/213/213
f 210/210/210 212/212/212 211/211/211
f 216/216/216 215/215/215 214/214/214
f 216/216/216 217/217/217 215/215/215
f 214/214/214 212/212/212 210/210/210
f 214/214/214 215/215/215 212/212/212
f 199/199/199 200/200/200 198/198/198
f 199/199/199 201/201/201 200/200/200
f 196/196/196 198/198/198 197/197/197
f 196/196/196 199/199/199 198/198/198
f 257/257/257 259/259/259 258/258/258
f 257/257/257 260/260/260 259/259/259
f 235/235/235 236/236/236 234/234/234
f 235/235/235 237/237/237 236/236/236
f 232/232/232 234/234/234 233/233/233
f 232/232/232 235/235/235 234/234/234
f 245/245/245 250/250/250 244/244/244
f 245/245/245 248/248/248 250/250/250
f 243/243/243 244/244/244 246/246/246
f 243/243/243 245/245/245 244/244/244
f 249/249/249 248/248/248 247/247/247
f 249/249/249 250/250/250 248/248/248
f 247/247/247 245/245/245 243/243/243
f 247/247/247 248/248/248 245/245/245
g mat2m0s7
usemtl textures/exwsw/eX_trim_baseboard_blue
v 40.000000 -16.000000 32.000000
vt 0.000000 0.000000
vn 0.447214 0.894427 -0.000000
v 32.000000 -12.000000 24.000000
vt 0.375000 1.000000
vn 0.447214 0.894427 -0.000000
v 32.000000 -12.000000 -24.000000
vt 2.625000 1.000000
vn 0.447214 0.894427 -0.000000
v 40.000000 -16.000000 -32.000000
vt 3.000000 0.000000
vn 0.447214 0.894427 -0.000000
f 261/261/261 263/263/263 262/262/262
f 261/261/261 264/264/264 263/263/263
g mat3m0s8
usemtl textures/exwsw/eX_wall_01_big
v -22.232235 -16.000000 96.000000
vt 0.288155 0.625000
vn 0.000000 -1.000000 -0.000000
v 22.232235 -16.000000 96.000000
vt 0.461845 0.625000
vn 0.000000 -1.000000 -0.000000
v 31.116117 -16.000000 87.116119
vt 0.496547 0.659703
vn 0.000000 -1.000000 -0.000000
v 24.000000 -16.000000 80.000000
vt 0.468750 0.687500
vn 0.000000 -1.000000 -0.000000
v -24.000000 -16.000000 80.000000
vt 0.281250 0.687500
vn 0.000000 -1.000000 -0.000000
v -31.116117 -16.000000 87.116119
vt 0.253453 0.659703
vn 0.000000 -1.000000 -0.000000
v -32.000000 -16.000000 88.000000
vt 0.250000 0.656250
vn -0.500000 -0.707107 0.500000
v -24.000000 -16.000000 96.000000
vt 0.281250 0.625000
vn -0.500000 -0.707107 0.500000
v 24.000000 -16.000000 96.000000
vt 0.468750 0.625000
vn 0.500000 -0.707107 0.500000
v 32.000000 -16.000000 88.000000
vt 0.500000 0.656250
vn 0.500000 -0.707107 0.500000
v -30.258427 -13.999999 88.000000
vt 0.054424 1.000000
vn 0.000000 0.970142 0.242536
v 30.258434 -14.000000 88.000000
vt 1.945576 1.000000
vn 0.000000 0.970142 0.242536
v 22.258427 -15.999999 96.000000
vt 1.695576 0.000000
vn 0.000000 0.970142 0.242536
v 32.000000 -14.000000 88.000000
vt 2.000000 1.000000
vn 0.461954 0.633796 0.620403
v 24.000000 -16.000000 96.000000
vt 1.750000 0.000000
vn 0.461954 0.633796 0.620403
v -24.000000 -16.000000 96.000000
vt 0.250000 0.000000
vn -0.461954 0.633796 0.620403
v -32.000000 -14.000000 88.000000
vt 0.000000 1.000000
vn -0.461954 0.633796 0.620403
v -22.258430 -16.000000 96.000000
vt 0.304424 0.000000
vn 0.000000 0.970142 0.242536
v -24.000000 -16.000000 96.000000
vt 0.625000 0.937500
vn -0.707107 0.000000 0.707107
v -32.000000 -16.000000 88.000000
vt 0.656250 0.937500
vn -0.707107 0.000000 0.707107
v -32.000000 -14.000000 88.000000
vt 0.656250 0.945312
vn -0.707107 0.000000 0.707107
v 32.000000 -14.000000 88.000000
vt 0.656250 0.945312
vn 0.707107 0.000000 0.707107
v 32.000000 -16.000000 88.000000
vt 0.656250 0.937500
vn 0.707107 0.000000 0.707107
v 24.000000 -16.000000 96.000000
vt 0.625000 0.937500
vn 0.707107 0.000000 0.707107
v 32.000000 -16.000000 88.000000
vt 0.500000 0.000000
vn 0.632456 -0.707107 0.316228
v 40.000000 -16.000000 72.000000
vt 0.000000 1.000000
vn 0.632456 -0.707107 0.316228
v 38.602459 -16.000000 72.000000
vt 0.087346 1.000000
vn 0.000000 -1.000000 -0.000000
v 31.068306 -16.000000 87.068306
vt 0.558231 0.058231
vn 0.000000 -1.000000 -0.000000
v 32.000000 -16.000000 72.000000
vt 0.500000 1.000000
vn 0.000000 -1.000000 -0.000000
v 24.000000 -16.000000 80.000000
vt 1.000000 0.500000
vn 0.000000 -1.000000 -0.000000
v 24.880476 -13.110060 80.880478
vt 0.055030 0.444970
vn 0.000000 0.992278 0.124035
v 38.604610 -12.000000 72.000000
vt 0.912788 1.000000
vn 0.000000 0.992278 0.124035
v 31.069740 -13.883718 87.069740
vt 0.441859 0.058141
vn 0.000000 0.992278 0.124035
v 33.760952 -12.000000 72.000000
vt 0.610059 1.000000
vn 0.000000 0.992278 0.124035
v 24.000000 -13.000000 80.000000
vt 0.000000 0.500000
vn -0.523483 0.734600 -0.431658
v 32.000000 -12.000000 72.000000
vt 0.500000 1.000000
vn -0.523483 0.734600 -0.431658
v 40.000000 -12.000000 72.000000
vt 1.000000 1.000000
vn 0.615612 0.682960 0.393176
v 32.000000 -14.000000 88.000000
vt 0.500000 0.000000
vn 0.703421 0.435825 0.561476
v 40.000000 -12.670820 72.000000
vt 1.000000 0.832295
vn 0.894427 0.000000 0.447214
v 40.000000 -15.333333 72.000000
vt 1.000000 0.166667
vn 0.894427 0.000000 0.447214
v 32.000000 -15.333333 88.000000
vt 0.000000 0.166667
vn 0.894427 0.000000 0.447214
v 32.000000 -14.670820 88.000000
vt 0.000000 0.332295
vn 0.894427 0.000000 0.447214
v 32.000000 -14.000000 88.000000
vt 0.000000 0.500000
vn 0.391410 0.868460 0.304262
v 40.000000 -12.000000 72.000000
vt 1.000000 1.000000
vn 0.615612 0.682960 0.393176
v 40.000000 -16.000000 72.000000
vt 1.000000 0.000000
vn 0.632456 -0.707107 0.316228
v 32.000000 -16.000000 88.000000
vt 0.000000 0.000000
vn 0.632456 -0.707107 0.316228
v -24.000000 -16.000000 80.000000
vt 1.000000 0.500000
vn 0.000000 -1.000000 -0.000000
v -32.000000 -16.000000 72.000000
vt 0.500000 1.000000
vn 0.000000 -1.000000 -0.000000
v -38.602459 -16.000000 72.000000
vt 0.087346 1.000000
vn 0.000000 -1.000000 -0.000000
v -31.068306 -16.000000 87.068306
vt 0.558231 0.058231
vn 0.000000 -1.000000 -0.000000
v -40.000000 -16.000000 72.000000
vt 0.000000 1.000000
vn -0.632456 -0.707107 0.316228
v -32.000000 -16.000000 88.000000
vt 0.500000 0.000000
vn -0.632456 -0.707107 0.316228
v -38.604610 -12.000000 72.000000
vt 0.087212 1.000000
vn 0.000000 0.992278 0.124035
v -24.880476 -13.110060 80.880478
vt 0.944970 0.444970
vn 0.000000 0.992278 0.124035
v -31.069740 -13.883718 87.069740
vt 0.558141 0.058141
vn 0.000000 0.992278 0.124035
v -33.760952 -12.000000 72.000000
vt 0.389941 1.000000
vn 0.000000 0.992278 0.124035
v -32.000000 -12.000000 72.000000
vt 0.500000 1.000000
vn 0.523483 0.734600 -0.431658
v -24.000000 -13.000000 80.000000
vt 1.000000 0.500000
vn 0.523483 0.734600 -0.431658
v -32.000000 -14.000000 88.000000
vt 0.500000 0.000000
vn -0.703421 0.435825 0.561476
v -40.000000 -12.000000 72.000000
vt 0.000000 1.000000
vn -0.615612 0.682960 0.393176
v -32.000000 -14.670820 88.000000
vt 0.000000 0.332295
vn -0.894427 0.000000 0.447214
v -40.000000 -15.333333 72.000000
vt 1.000000 0.166667
vn -0.894427 0.000000 0.447214
v -40.000000 -12.670820 72.000000
vt 1.000000 0.832295
vn -0.894427 0.000000 0.447214
v -40.000000 -12.000000 72.000000
vt 1.000000 1.000000
vn -0.615612 0.682960 0.393176
v -32.000000 -14.000000 88.000000
vt 0.000000 0.500000
vn -0.615612 0.682960 0.393176
v -32.000000 -16.000000 88.000000
vt 0.000000 0.000000
vn -0.632456 -0.707107 0.316228
v -40.000000 -16.000000 72.000000
vt 1.000000 0.000000
vn -0.632456 -0.707107 0.316228
v -32.000000 -15.333333 88.000000
vt 0.000000 0.166667
vn -0.894427 0.000000 0.447214
v -24.000000 -13.000000 80.000000
vt 0.250000 1.000000
vn 0.000000 0.992278 0.124035
v 24.000000 -13.000000 80.000000
vt 1.750000 1.000000
vn 0.000000 0.992278 0.124035
v 32.000000 -14.000000 88.000000
vt 2.000000 0.000000
vn 0.000000 0.992278 0.124035
v -32.000000 -14.000000 88.000000
vt 0.000000 0.000000
vn 0.000000 0.992278 0.124035
f 265/265/265 267/267/267 266/266/266
f 265/265/265 268/268/268 267/267/267
f 265/265/265 269/269/269 268/268/268
f 265/265/265 270/270/270 269/269/269
f 273/273/273 267/267/267 274/274/274
f 273/273/273 266/266/266 267/267/267
f 271/271/271 265/265/265 272/272/272
f 271/271/271 270/270/270 265/265/265
f 283/283/283 285/285/285 284/284/284
f 286/286/286 288/288/288 287/287/287
f 275/275/275 277/277/277 276/276/276
f 275/275/275 282/282/282 277/277/277
f 278/278/278 277/277/277 279/279/279
f 278/278/278 276/276/276 277/277/277
f 280/280/280 275/275/275 281/281/281
f 280/280/280 282/282/282 275/275/275
f 303/303/303 305/305/305 304/304/304
f 303/303/303 306/306/306 305/305/305
f 307/307/307 303/303/303 308/308/308
f 307/307/307 306/306/306 303/303/303
f 309/309/309 305/305/305 310/310/310
f 309/309/309 304/304/304 305/305/305
f 311/311/311 313/313/313 312/312/312
f 311/311/311 314/314/314 313/313/313
f 315/315/315 314/314/314 316/316/316
f 315/315/315 313/313/313 314/314/314
f 325/325/325 326/326/326 332/332/332
f 325/325/325 327/327/327 326/326/326
f 328/328/328 325/325/325 329/329/329
f 328/328/328 327/327/327 325/325/325
f 330/330/330 326/326/326 331/331/331
f 330/330/330 332/332/332 326/326/326
f 333/333/333 335/335/335 334/334/334
f 333/333/333 336/336/336 335/335/335
f 317/317/317 318/318/318 320/320/320
f 317/317/317 319/319/319 318/318/318
f 323/323/323 317/317/317 324/324/324
f 323/323/323 319/319/319 317/317/317
f 321/321/321 318/318/318 322/322/322
f 321/321/321 320/320/320 318/318/318
f 293/293/293 292/292/292 294/294/294
f 293/293/293 291/291/291 292/292/292
f 289/289/289 291/291/291 290/290/290
f 289/289/289 292/292/292 291/291/291
f 295/295/295 296/296/296 298/298/298
f 295/295/295 297/297/297 296/296/296
f 301/301/301 297/297/297 302/302/302
f 301/301/301 296/296/296 297/297/297
f 299/299/299 298/298/298 300/300/300
f 299/299/299 295/295/295 298/298/298
g mat3m0s9
usemtl textures/exwsw/eX_wall_01_big
v -22.232235 -16.000000 -96.000000
vt 0.961845 0.625000
vn 0.000000 -1.000000 -0.000000
v -31.116117 -16.000000 -87.116119
vt 0.996547 0.659703
vn 0.000000 -1.000000 -0.000000
v -24.000000 -16.000000 -80.000000
vt 0.968750 0.687500
vn 0.000000 -1.000000 -0.000000
v 24.000000 -16.000000 -80.000000
vt 0.781250 0.687500
vn 0.000000 -1.000000 -0.000000
v 31.116117 -16.000000 -87.116119
vt 0.753453 0.659703
vn 0.000000 -1.000000 -0.000000
v 22.232235 -16.000000 -96.000000
vt 0.788155 0.625000
vn 0.000000 -1.000000 -0.000000
v 32.000000 -16.000000 -88.000000
vt 0.750000 0.656250
vn 0.500000 -0.707107 -0.500000
v 24.000000 -16.000000 -96.000000
vt 0.781250 0.625000
vn 0.500000 -0.707107 -0.500000
v -24.000000 -16.000000 -96.000000
vt 0.968750 0.625000
vn -0.500000 -0.707107 -0.500000
v -32.000000 -16.000000 -88.000000
vt 1.000000 0.656250
vn -0.500000 -0.707107 -0.500000
v -22.258427 -15.999999 -96.000000
vt 1.695576 0.000000
vn 0.000000 0.970142 -0.242536
v 30.258427 -13.999999 -88.000000
vt 0.054424 1.000000
vn 0.000000 0.970142 -0.242536
v -30.258434 -14.000000 -88.000000
vt 1.945576 1.000000
vn 0.000000 0.970142 -0.242536
v -32.000000 -14.000000 -88.000000
vt 2.000000 1.000000
vn -0.461954 0.633796 -0.620403
v -24.000000 -16.000000 -96.000000
vt 1.750000 0.000000
vn -0.461954 0.633796 -0.620403
v 24.000000 -16.000000 -96.000000
vt 0.250000 0.000000
vn 0.461954 0.633796 -0.620403
v 32.000000 -14.000000 -88.000000
vt 0.000000 1.000000
vn 0.461954 0.633796 -0.620403
v 22.258430 -16.000000 -96.000000
vt 0.304424 0.000000
vn 0.000000 0.970142 -0.242536
v 24.000000 -16.000000 -96.000000
vt 0.625000 0.937500
vn 0.707107 0.000000 -0.707107
v 32.000000 -16.000000 -88.000000
vt 0.656250 0.937500
vn 0.707107 0.000000 -0.707107
v 32.000000 -14.000000 -88.000000
vt 0.656250 0.945312
vn 0.707107 0.000000 -0.707107
v -32.000000 -14.000000 -88.000000
vt 0.656250 0.945312
vn -0.707107 0.000000 -0.707107
v -32.000000 -16.000000 -88.000000
vt 0.656250 0.937500
vn -0.707107 0.000000 -0.707107
v -24.000000 -16.000000 -96.000000
vt 0.625000 0.937500
vn -0.707107 0.000000 -0.707107
v 40.000000 -16.000000 -72.000000
vt 2.000000 0.000000
vn 0.632456 -0.707107 -0.316228
v 32.000000 -16.000000 -88.000000
vt 1.000000 1.000000
vn 0.632456 -0.707107 -0.316228
v 31.068306 -16.000000 -87.068306
vt 0.883538 0.941769
vn 0.000000 -1.000000 -0.000000
v 38.602459 -16.000000 -72.000000
vt 1.825307 0.000000
vn 0.000000 -1.000000 -0.000000
v 24.000000 -16.000000 -80.000000
vt 0.000000 0.500000
vn 0.000000 -1.000000 -0.000000
v 32.000000 -16.000000 -72.000000
vt 1.000000 0.000000
vn 0.000000 -1.000000 -0.000000
v 24.880476 -13.110060 -80.880478
vt 1.889941 0.444970
vn 0.000000 0.992278 -0.124035
v 31.069740 -13.883718 -87.069740
vt 1.116282 0.058141
vn 0.000000 0.992278 -0.124035
v 38.604610 -12.000000 -72.000000
vt 0.174424 1.000000
vn 0.000000 0.992278 -0.124035
v 33.760952 -12.000000 -72.000000
vt 0.779881 1.000000
vn 0.000000 0.992278 -0.124035
v 32.000000 -12.000000 -72.000000
vt 1.000000 1.000000
vn -0.523483 0.734600 0.431658
v 24.000000 -13.000000 -80.000000
vt 2.000000 0.500000
vn -0.523483 0.734600 0.431658
v 32.000000 -14.000000 -88.000000
vt 1.000000 0.000000
vn 0.703421 0.435825 -0.561476
v 40.000000 -12.000000 -72.000000
vt 0.000000 1.000000
vn 0.615612 0.682960 -0.393176
v 32.000000 -14.670820 -88.000000
vt 2.000000 0.667705
vn 0.894427 0.000000 -0.447214
v 40.000000 -15.333333 -72.000000
vt 0.000000 0.833333
vn 0.894427 0.000000 -0.447214
v 40.000000 -12.670820 -72.000000
vt 0.000000 0.167705
vn 0.894427 0.000000 -0.447214
v 40.000000 -12.000000 -72.000000
vt 0.000000 0.000000
vn 0.615612 0.682960 -0.393176
v 32.000000 -14.000000 -88.000000
vt 2.000000 0.500000
vn 0.391410 0.868460 -0.304262
v 32.000000 -16.000000 -88.000000
vt 2.000000 1.000000
vn 0.632456 -0.707107 -0.316228
v 32.000000 -15.333333 -88.000000
vt 2.000000 0.833333
vn 0.894427 0.000000 -0.447214
v 40.000000 -16.000000 -72.000000
vt 0.000000 1.000000
vn 0.632456 -0.707107 -0.316228
v -31.068306 -16.000000 -87.068306
vt 0.883538 0.941769
vn 0.000000 -1.000000 -0.000000
v -38.602459 -16.000000 -72.000000
vt 1.825307 0.000000
vn 0.000000 -1.000000 -0.000000
v -32.000000 -16.000000 -72.000000
vt 1.000000 0.000000
vn 0.000000 -1.000000 -0.000000
v -24.000000 -16.000000 -80.000000
vt 0.000000 0.500000
vn 0.000000 -1.000000 -0.000000
v -32.000000 -16.000000 -88.000000
vt 1.000000 1.000000
vn -0.632456 -0.707107 -0.316228
v -40.000000 -16.000000 -72.000000
vt 2.000000 0.000000
vn -0.632456 -0.707107 -0.316228
v -38.604610 -12.000000 -72.000000
vt 1.825576 1.000000
vn 0.000000 0.992278 -0.124035
v -31.069740 -13.883718 -87.069740
vt 0.883718 0.058141
vn 0.000000 0.992278 -0.124035
v -24.880476 -13.110060 -80.880478
vt 0.110059 0.444970
vn 0.000000 0.992278 -0.124035
v -33.760952 -12.000000 -72.000000
vt 1.220119 1.000000
vn 0.000000 0.992278 -0.124035
v -24.000000 -13.000000 -80.000000
vt 0.000000 0.500000
vn 0.523483 0.734600 0.431658
v -32.000000 -12.000000 -72.000000
vt 1.000000 1.000000
vn 0.523483 0.734600 0.431658
v -40.000000 -12.000000 -72.000000
vt 2.000000 1.000000
vn -0.615612 0.682960 -0.393176
v -32.000000 -14.000000 -88.000000
vt 1.000000 0.000000
vn -0.703421 0.435825 -0.561476
v -40.000000 -12.670820 -72.000000
vt 0.000000 0.167705
vn -0.894427 0.000000 -0.447214
v -40.000000 -15.333333 -72.000000
vt 0.000000 0.833333
vn -0.894427 0.000000 -0.447214
v -32.000000 -15.333333 -88.000000
vt 2.000000 0.833333
vn -0.894427 0.000000 -0.447214
v -32.000000 -14.670820 -88.000000
vt 2.000000 0.667705
vn -0.894427 0.000000 -0.447214
v -32.000000 -14.000000 -88.000000
vt 2.000000 0.500000
vn -0.615612 0.682960 -0.393176
v -40.000000 -12.000000 -72.000000
vt 0.000000 0.000000
vn -0.615612 0.682960 -0.393176
v -40.000000 -16.000000 -72.000000
vt 0.000000 1.000000
vn -0.632456 -0.707107 -0.316228
v -32.000000 -16.000000 -88.000000
vt 2.000000 1.000000
vn -0.632456 -0.707107 -0.316228
v -32.000000 -14.000000 -88.000000
vt 2.000000 0.000000
vn 0.000000 0.992278 -0.124035
v 32.000000 -14.000000 -88.000000
vt 0.000000 0.000000
vn 0.000000 0.992278 -0.124035
v 24.000000 -13.000000 -80.000000
vt 0.250000 1.000000
vn 0.000000 0.992278 -0.124035
v -24.000000 -13.000000 -80.000000
vt 1.750000 1.000000
vn 0.000000 0.992278 -0.124035
f 337/337/337 339/339/339 338/338/338
f 337/337/337 340/340/340 339/339/339
f 337/337/337 341/341/341 340/340/340
f 337/337/337 342/342/342 341/341/341
f 345/345/345 338/338/338 346/346/346
f 345/345/345 337/337/337 338/338/338
f 343/343/343 342/342/342 344/344/344
f 343/343/343 341/341/341 342/342/342
f 355/355/355 357/357/357 356/356/356
f 358/358/358 360/360/360 359/359/359
f 347/347/347 348/348/348 354/354/354
f 347/347/347 349/349/349 348/348/348
f 350/350/350 347/347/347 351/351/351
f 350/350/350 349/349/349 347/347/347
f 352/352/352 348/348/348 353/353/353
f 352/352/352 354/354/354 348/348/348
f 375/375/375 376/376/376 381/381/381
f 375/375/375 377/377/377 376/376/376
f 378/378/378 375/375/375 379/379/379
f 378/378/378 377/377/377 375/375/375
f 380/380/380 376/376/376 382/382/382
f 380/380/380 381/381/381 376/376/376
f 383/383/383 385/385/385 384/384/384
f 383/383/383 386/386/386 385/385/385
f 387/387/387 384/384/384 388/388/388
f 387/387/387 383/383/383 384/384/384
f 397/397/397 399/399/399 398/398/398
f 397/397/397 400/400/400 399/399/399
f 401/401/401 397/397/397 402/402/402
f 401/401/401 400/400/400 397/397/397
f 403/403/403 399/399/399 404/404/404
f 403/403/403 398/398/398 399/399/399
f 405/405/405 407/407/407 406/406/406
f 405/405/405 408/408/408 407/407/407
f 365/365/365 364/364/364 366/366/366
f 365/365/365 363/363/363 364/364/364
f 361/361/361 363/363/363 362/362/362
f 361/361/361 364/364/364 363/363/363
f 367/367/367 369/369/369 368/368/368
f 367/367/367 370/370/370 369/369/369
f 373/373/373 369/369/369 374/374/374
f 373/373/373 368/368/368 369/369/369
f 371/371/371 367/367/367 372/372/372
f 371/371/371 370/370/370 367/367/367
f 389/389/389 391/391/391 390/390/390
f 389/389/389 392/392/392 391/391/391
f 395/395/395 390/390/390 396/396/396
f 395/395/395 389/389/389 390/390/390
f 393/393/393 392/392/392 394/394/394
f 393/393/393 391/391/391 392/392/392
g mat4m0s10
usemtl textures/exwsw/eX_wall_bplate_06
v -24.000000 -16.000000 80.000000
vt 0.000000 0.875000
vn 0.000000 -1.000000 -0.000000
v 24.000000 -16.000000 80.000000
vt 0.000000 0.125000
vn 0.000000 -1.000000 -0.000000
v 32.000000 -16.000000 72.000000
vt 0.100000 0.000000
vn 0.000000 -1.000000 -0.000000
v 32.000000 -16.000000 -72.000000
vt 1.900000 0.000000
vn 0.000000 -1.000000 -0.000000
v 24.000000 -16.000000 -80.000000
vt 2.000000 0.125000
vn 0.000000 -1.000000 -0.000000
v -24.000000 -16.000000 -80.000000
vt 2.000000 0.875000
vn 0.000000 -1.000000 -0.000000
v -32.000000 -16.000000 -72.000000
vt 1.900000 1.000000
vn 0.000000 -1.000000 -0.000000
v -32.000000 -16.000000 72.000000
vt 0.100000 1.000000
vn 0.000000 -1.000000 -0.000000
f 409/409/409 411/411/411 410/410/410
f 409/409/409 412/412/412 411/411/411
f 409/409/409 413/413/413 412/412/412
f 409/409/409 414/414/414 413/413/413
f 409/409/409 415/415/415 414/414/414
f 409/409/409 416/416/416 415/415/415
g mat5m0s11
usemtl textures/boqu/metaltrim
v -32.000000 -14.000000 -32.000000
vt 0.800000 0.000000
vn 0.000000 1.000000 -0.000000
v -32.000000 -14.000000 -72.000000
vt 1.800000 0.000000
vn 0.000000 1.000000 -0.000000
v -24.000000 -14.000000 -80.000000
vt 2.000000 -1.000000
vn 0.000000 1.000000 -0.000000
v 24.000000 -14.000000 -80.000000
vt 2.000000 -7.000000
vn 0.000000 1.000000 -0.000000
v 32.000000 -14.000000 -72.000000
vt 1.800000 -8.000000
vn 0.000000 1.000000 -0.000000
v 32.000000 -14.000000 -32.000000
vt 0.800000 -8.000000
vn 0.000000 1.000000 -0.000000
v -32.000000 -14.000000 32.000000
vt 0.200000 0.000000
vn 0.000000 1.000000 -0.000000
v -32.000000 -14.000000 -32.000000
vt 1.800000 0.000000
vn 0.000000 1.000000 -0.000000
v 32.000000 -14.000000 -32.000000
vt 1.800000 -8.000000
vn 0.000000 1.000000 -0.000000
v 32.000000 -14.000000 32.000000
vt 0.200000 -8.000000
vn 0.000000 1.000000 -0.000000
v -32.000000 -14.000000 72.000000
vt 1.200000 0.000000
vn 0.000000 1.000000 -0.000000
v -32.000000 -14.000000 32.000000
vt 2.200000 0.000000
vn 0.000000 1.000000 -0.000000
v 32.000000 -14.000000 32.000000
vt 2.200000 -8.000000
vn 0.000000 1.000000 -0.000000
v 32.000000 -14.000000 72.000000
vt 1.200000 -8.000000
vn 0.000000 1.000000 -0.000000
v 24.000000 -14.000000 80.000000
vt 1.000000 -7.000000
vn 0.000000 1.000000 -0.000000
v -24.000000 -14.000000 80.000000
vt 1.000000 -1.000000
vn 0.000000 1.000000 -0.000000
f 417/417/417 419/419/419 418/418/418
f 417/417/417 420/420/420 419/419/419
f 417/417/417 421/421/421 420/420/420
f 417/417/417 422/422/422 421/421/421
f 423/423/423 425/425/425 424/424/424
f 423/423/423 426/426/426 425/425/425
f 427/427/427 429/429/429 428/428/428
f 427/427/427 430/430/430 429/429/429
f 427/427/427 431/431/431 430/430/430
f 427/427/427 432/432/432 431/431/431
