# This file uses centimeters as units for non-parametric coordinates.

mtllib doordouble01-short-right.mtl
g default
v -11.999995 0.000000 28.531372
v 11.999995 0.000000 28.531372
v -11.999995 0.000000 -14.067766
v 10.491425 0.000000 -15.623710
v -11.999995 180.000000 28.531372
v 11.999995 180.000000 28.531372
v -10.491425 180.000000 -32.884052
v 11.999995 180.000000 -31.328108
v 11.999995 130.940659 6.519838
v -10.491425 130.940659 4.963895
v 11.999994 109.125458 6.512112
v -10.491425 109.125458 4.956168
v 11.999995 101.494904 -4.073888
v -10.491425 101.494904 -5.629831
v 11.999995 66.484306 -4.073888
v -10.491425 66.484306 -5.629831
v 10.491425 58.503277 4.956168
v -11.999995 58.503277 6.512112
v -6.271198 0.000000 -15.623710
v 6.271198 0.000000 -15.623710
v 6.271198 0.000000 28.531372
v -6.271198 0.000000 28.531372
v -6.271198 180.000000 28.531372
v 6.271198 180.000000 28.531372
v 6.271198 180.000000 -32.884052
v -6.271198 180.000000 -32.884052
v 6.271198 130.940659 4.963895
v -6.271198 130.940659 4.963895
v 6.271198 109.125458 4.956168
v -6.271198 109.125458 4.956168
v 6.271198 101.494904 -5.629831
v -6.271198 101.494904 -5.629831
v 6.271198 66.484306 -5.629831
v -6.271198 66.484306 -5.629831
v 6.271198 58.503277 4.956168
v -6.271198 58.503277 4.956168
v 6.271198 0.005297 -12.670189
v -6.271198 0.005297 -12.670189
v -6.271198 59.441437 8.070753
v -6.271198 67.931442 -2.717465
v -6.271198 100.016655 -2.733189
v -6.271198 107.646698 7.852548
v -6.271198 131.986404 8.043888
v -6.271198 179.986389 -28.936846
v 6.271198 179.986389 -28.936846
v 6.271198 131.986404 8.043888
v 6.271198 107.646698 7.852548
v 6.271198 100.016655 -2.733189
v 6.271198 67.931442 -2.717465
v 6.271198 59.441437 8.070753
v -10.491425 0.000000 -15.623710
v 11.999995 0.000000 -14.067766
v -11.999995 180.000000 -31.328108
v 10.491425 180.000000 -32.884052
v 10.491425 130.940659 4.963895
v -11.999995 130.940659 6.519838
v 10.491425 109.125458 4.956168
v -11.999995 109.125458 6.512112
v 10.491425 101.494904 -5.629831
v -11.999995 101.494904 -4.073888
v 10.491425 66.484306 -5.629831
v -11.999995 66.484306 -4.073888
v 11.999995 58.503277 6.512112
v -10.491425 58.503277 4.956168
vt 0.560645 0.876717
vt 0.560645 0.837488
vt 0.241047 0.723129
vt 0.591112 0.095649
vt 0.013736 0.837488
vt 0.013736 0.876717
vt 0.322438 0.204791
vt 0.322259 0.290816
vt 0.366681 0.321400
vt 0.366675 0.459959
vt 0.322488 0.491559
vt 0.997467 0.978234
vt 0.997467 0.916528
vt 0.708080 0.978234
vt 0.591752 0.978234
vt 0.591752 0.916526
vt 0.708080 0.916526
vt 0.529471 0.978234
vt 0.529471 0.916526
vt 0.376131 0.978234
vt 0.310598 0.978234
vt 0.310598 0.916528
vt 0.376131 0.916528
vt 0.560645 0.894636
vt 0.013736 0.819570
vt 0.503393 0.010536
vt 0.528099 0.010467
vt 0.665162 0.608949
vt 0.640270 0.609139
vt 0.341360 0.211204
vt 0.341404 0.283693
vt 0.373942 0.282260
vt 0.373149 0.209888
vt 0.665174 0.534047
vt 0.638855 0.537104
vt 0.383858 0.311690
vt 0.418291 0.312334
vt 0.619620 0.501267
vt 0.594478 0.507066
vt 0.619600 0.354100
vt 0.593935 0.352231
vt 0.383218 0.465316
vt 0.344109 0.496226
vt 0.373042 0.497464
vt 0.418103 0.463992
vt 0.663877 0.322755
vt 0.638743 0.318582
vt 0.579324 0.095680
vt 0.555560 0.095685
vt 0.534955 0.095682
vt 0.522621 0.095718
vt 0.605284 0.314871
vt 0.561242 0.346667
vt 0.573433 0.352338
vt 0.618311 0.318524
vt 0.561957 0.513010
vt 0.606320 0.543010
vt 0.618384 0.537101
vt 0.574023 0.507103
vt 0.606797 0.605198
vt 0.619681 0.609277
vt 0.550317 0.011272
vt 0.566801 0.011219
vt 0.408750 0.214040
vt 0.408781 0.276411
vt 0.396686 0.282264
vt 0.395886 0.209900
vt 0.452988 0.306616
vt 0.441040 0.312340
vt 0.452988 0.469593
vt 0.408781 0.501186
vt 0.395775 0.497472
vt 0.440827 0.463865
vt 0.408402 0.723123
vt 0.427009 0.723069
vt 0.677049 0.327234
vt 0.519035 0.808157
vt 0.504380 0.808112
vt 0.677098 0.613957
vt 0.677053 0.527609
vt 0.632854 0.497412
vt 0.632849 0.358792
vt 0.009796 0.978234
vt 0.009796 0.916528
vt 0.560645 0.819570
vt 0.459365 0.723056
vt 0.494722 0.723281
vt 0.482388 0.723261
vt 0.241047 0.010614
vt 0.480481 0.010620
vt 0.742530 0.808164
vt 0.013736 0.894636
vt 0.479541 0.808093
vt 0.442502 0.807701
vt 0.458985 0.807572
vt 0.742530 0.095650
vn 0.000000 0.000000 1.000000
vn 0.000000 0.000000 1.000000
vn 0.000000 0.000000 1.000000
vn 0.000000 0.000000 1.000000
vn 0.000000 -0.610309 -0.792164
vn 0.000000 -0.610309 -0.792164
vn 0.000000 -0.610309 -0.792164
vn 0.000000 -0.610309 -0.792164
vn 0.000000 0.007861 -0.999969
vn 0.000000 0.007861 -0.999969
vn 0.000000 0.007861 -0.999969
vn 0.000000 0.007861 -0.999969
vn 0.000000 0.811232 -0.584724
vn 0.000000 0.811232 -0.584724
vn 0.000000 0.811232 -0.584724
vn 0.000000 0.811232 -0.584724
vn 0.000000 -0.785839 -0.618431
vn 0.000000 -0.785839 -0.618431
vn 0.000000 -0.785839 -0.618431
vn 0.000000 -0.785839 -0.618431
vn 0.000000 0.329477 -0.944164
vn 0.000000 0.329477 -0.944164
vn 0.000000 0.329477 -0.944164
vn 0.000000 0.329477 -0.944164
vn 0.000000 0.000000 1.000000
vn 0.000000 0.000000 1.000000
vn 0.000000 0.000000 1.000000
vn 0.000000 0.000000 1.000000
vn 0.000000 0.000000 1.000000
vn 0.000000 0.000000 1.000000
vn 0.000000 0.000000 1.000000
vn 0.000000 0.000000 1.000000
vn 0.000000 -0.610825 -0.791765
vn 0.335748 -0.575368 -0.745805
vn 0.335748 -0.575368 -0.745805
vn 0.000000 -0.610825 -0.791765
vn 0.000000 -0.610825 -0.791765
vn -0.335748 -0.575368 -0.745805
vn -0.335748 -0.575368 -0.745805
vn 0.000000 -0.610825 -0.791765
vn 0.389812 0.000326 -0.920894
vn 0.389812 0.000326 -0.920894
vn 0.000000 0.000354 -1.000000
vn 0.000000 0.000354 -1.000000
vn -0.389812 0.000326 -0.920894
vn -0.389812 0.000326 -0.920894
vn 0.000000 0.000354 -1.000000
vn 0.000000 0.000354 -1.000000
vn 0.268031 0.781538 -0.563345
vn 0.268031 0.781538 -0.563345
vn 0.000000 0.811220 -0.584740
vn 0.000000 0.811220 -0.584740
vn -0.268031 0.781538 -0.563345
vn -0.268031 0.781538 -0.563345
vn 0.000000 0.811220 -0.584740
vn 0.000000 0.811220 -0.584740
vn 0.000000 0.000000 -1.000000
vn -0.389812 0.000000 -0.920894
vn -0.389812 0.000000 -0.920894
vn 0.000000 0.000000 -1.000000
vn 0.274265 -0.767875 -0.578919
vn 0.274265 -0.767875 -0.578919
vn 0.000000 -0.798494 -0.602003
vn 0.000000 -0.798494 -0.602003
vn -0.274265 -0.767875 -0.578919
vn -0.274265 -0.767875 -0.578919
vn 0.000000 -0.798494 -0.602003
vn 0.000000 -0.798494 -0.602003
vn 0.000000 0.331840 -0.943336
vn 0.376344 0.307443 -0.873982
vn 0.376344 0.307443 -0.873982
vn 0.000000 0.331840 -0.943336
vn 1.000000 -0.000000 0.000000
vn 1.000000 -0.000000 0.000000
vn 1.000000 -0.000000 0.000000
vn 1.000000 -0.000000 0.000000
vn 1.000000 0.000000 0.000000
vn 1.000000 0.000000 0.000000
vn 1.000000 0.000000 0.000000
vn 1.000000 0.000000 0.000000
vn 1.000000 0.000000 0.000000
vn 1.000000 0.000000 0.000000
vn 1.000000 0.000000 0.000000
vn 1.000000 0.000000 0.000000
vn 1.000000 0.000000 0.000000
vn 1.000000 0.000000 0.000000
vn 1.000000 0.000000 0.000000
vn 1.000000 0.000000 0.000000
vn 1.000000 0.000000 0.000000
vn 1.000000 0.000000 0.000000
vn 1.000000 0.000000 0.000000
vn 1.000000 0.000000 0.000000
vn -1.000000 0.000000 0.000000
vn -1.000000 0.000000 0.000000
vn -1.000000 0.000000 0.000000
vn -1.000000 0.000000 0.000000
vn -1.000000 0.000000 0.000000
vn -1.000000 0.000000 0.000000
vn -1.000000 0.000000 0.000000
vn -1.000000 0.000000 0.000000
vn -1.000000 -0.000000 0.000000
vn -1.000000 -0.000000 0.000000
vn -1.000000 -0.000000 0.000000
vn -1.000000 -0.000000 0.000000
vn -1.000000 -0.000000 0.000000
vn -1.000000 -0.000000 0.000000
vn -1.000000 -0.000000 0.000000
vn -1.000000 -0.000000 0.000000
vn -1.000000 0.000000 0.000000
vn -1.000000 0.000000 0.000000
vn -1.000000 0.000000 0.000000
vn -1.000000 0.000000 0.000000
vn -0.697350 0.237840 -0.676118
vn -0.697350 0.237840 -0.676118
vn -0.376344 0.307443 -0.873982
vn -0.376344 0.307443 -0.873982
vn 0.632517 -0.473113 -0.613259
vn 0.335748 -0.575368 -0.745805
vn 0.335748 -0.575368 -0.745805
vn 0.632517 -0.473113 -0.613259
vn -0.632517 -0.473113 -0.613259
vn -0.335748 -0.575368 -0.745805
vn -0.335748 -0.575368 -0.745805
vn -0.632517 -0.473113 -0.613259
vn 0.717952 0.000246 -0.696093
vn 0.389812 0.000326 -0.920894
vn 0.389812 0.000326 -0.920894
vn 0.717952 0.000246 -0.696093
vn -0.717952 0.000247 -0.696093
vn -0.389812 0.000326 -0.920894
vn -0.389812 0.000326 -0.920894
vn -0.717952 0.000247 -0.696093
vn 0.516448 0.694663 -0.500724
vn 0.268031 0.781538 -0.563345
vn 0.268031 0.781538 -0.563345
vn 0.516448 0.694663 -0.500724
vn -0.516448 0.694663 -0.500724
vn -0.268031 0.781538 -0.563345
vn -0.268031 0.781538 -0.563345
vn -0.516448 0.694663 -0.500724
vn 0.717952 0.000000 -0.696093
vn 0.389812 0.000000 -0.920894
vn 0.389812 0.000000 -0.920894
vn 0.717952 0.000000 -0.696093
vn 0.527496 -0.678366 -0.511436
vn 0.274265 -0.767875 -0.578919
vn 0.274265 -0.767875 -0.578919
vn 0.527496 -0.678366 -0.511436
vn -0.527496 -0.678367 -0.511436
vn -0.274265 -0.767875 -0.578919
vn -0.274265 -0.767875 -0.578919
vn -0.527496 -0.678367 -0.511436
vn -1.000000 -0.000000 0.000000
vn -1.000000 -0.000000 0.000000
vn -1.000000 -0.000000 0.000000
vn -1.000000 -0.000000 0.000000
vn -1.000000 -0.000000 0.000000
vn -1.000000 -0.000000 0.000000
vn -1.000000 -0.000000 0.000000
vn -1.000000 -0.000000 0.000000
vn -1.000000 -0.000000 0.000000
vn -0.376344 0.307443 -0.873982
vn 0.000000 0.331840 -0.943336
vn 0.000000 0.331840 -0.943336
vn -0.376344 0.307443 -0.873982
vn 1.000000 0.000000 0.000000
vn 1.000000 0.000000 0.000000
vn 1.000000 0.000000 0.000000
vn 1.000000 0.000000 0.000000
vn 0.376344 0.307443 -0.873982
vn 0.697350 0.237840 -0.676118
vn 0.697350 0.237840 -0.676118
vn 0.376344 0.307443 -0.873982
vn 1.000000 0.000000 -0.000000
vn 1.000000 0.000000 -0.000000
vn 1.000000 0.000000 -0.000000
vn 1.000000 0.000000 -0.000000
vn 1.000000 0.000000 -0.000000
vn 1.000000 0.000000 -0.000000
vn 1.000000 0.000000 -0.000000
vn 1.000000 0.000000 -0.000000
vn 1.000000 0.000000 -0.000000
vn 0.000000 -0.000490 -1.000000
vn 0.000000 -0.000490 -1.000000
vn 0.000000 -0.000490 -1.000000
vn 0.000000 -0.000490 -1.000000
vn 0.389812 0.000000 -0.920894
vn 0.000000 0.000000 -1.000000
vn 0.000000 0.000000 -1.000000
vn 0.389812 0.000000 -0.920894
vn -1.000000 0.000000 0.000000
vn -1.000000 0.000000 0.000000
vn -1.000000 0.000000 0.000000
vn -1.000000 0.000000 0.000000
vn -0.389812 0.000000 -0.920894
vn -0.717952 0.000000 -0.696093
vn -0.717952 0.000000 -0.696093
vn -0.389812 0.000000 -0.920894
s off
g LOW1
usemtl doordouble01right:Door_001
f 22/2/1 21/1/2 24/6/3 23/5/4
f 44/13/5 45/12/6 46/14/7 43/17/8
f 46/14/9 47/15/10 42/16/11 43/17/12
f 47/15/13 48/18/14 41/19/15 42/16/16
f 49/20/17 50/21/18 39/22/19 40/23/20
f 38/84/21 39/22/22 50/21/23 37/83/24
f 1/85/25 22/2/26 23/5/27 5/25/28
f 24/6/29 21/1/30 2/24/31 6/92/32
f 25/27/33 54/26/34 55/30/35 27/33/36
f 28/29/37 10/28/38 7/78/39 26/93/40
f 55/30/41 57/31/42 29/32/43 27/33/44
f 12/34/45 10/28/46 28/29/47 30/35/48
f 57/31/49 59/36/50 31/37/51 29/32/52
f 14/38/53 12/34/54 30/35/55 32/39/56
f 34/41/57 16/40/58 14/38/59 32/39/60
f 61/42/61 17/43/62 35/44/63 33/45/64
f 64/46/65 16/40/66 34/41/67 36/47/68
f 35/44/69 17/43/70 4/75/71 20/86/72
f 36/52/73 34/53/74 40/54/75 39/55/76
f 41/59/77 40/54/78 34/53/79 32/56/80
f 32/56/81 30/57/82 42/58/83 41/59/84
f 30/57/85 28/60/86 43/61/87 42/58/88
f 44/95/89 43/61/90 28/60/91 26/94/92
f 45/62/93 25/63/94 27/64/95 46/67/96
f 27/64/97 29/65/98 47/66/99 46/67/100
f 29/65/101 31/68/102 48/69/103 47/66/104
f 33/70/105 35/71/106 50/72/107 49/73/108
f 50/72/109 35/71/110 20/87/111 37/88/112
f 3/4/113 18/76/114 64/46/115 51/48/116
f 9/7/117 55/30/118 54/26/119 8/90/120
f 53/77/121 7/78/122 10/28/123 56/79/124
f 11/8/125 57/31/126 55/30/127 9/7/128
f 56/79/129 10/28/130 12/34/131 58/80/132
f 13/9/133 59/36/134 57/31/135 11/8/136
f 58/80/137 12/34/138 14/38/139 60/81/140
f 15/10/141 61/42/142 59/36/143 13/9/144
f 63/11/145 17/43/146 61/42/147 15/10/148
f 62/82/149 16/40/150 64/46/151 18/76/152
f 62/82/153 18/76/154 3/4/155 1/96/156 5/91/157 53/77/158 56/79/159 58/80/160 60/81/161
f 64/46/162 36/47/163 19/49/164 51/48/165
f 36/52/166 39/55/167 38/50/168 19/51/169
f 17/43/170 63/11/171 52/74/172 4/75/173
f 15/10/174 13/9/175 11/8/176 9/7/177 8/90/178 6/89/179 2/3/180 52/74/181 63/11/182
f 49/20/183 40/23/184 41/19/185 48/18/186
f 61/42/187 33/45/188 31/37/189 59/36/190
f 33/70/191 49/73/192 48/69/193 31/68/194
f 16/40/195 62/82/196 60/81/197 14/38/198
