# This file uses centimeters as units for non-parametric coordinates.

mtllib doordouble01left.mtl
g default
v -12.000000 0.000000 -79.932480
v 12.000000 0.000000 -79.932480
v -12.000000 179.997391 -79.932480
v 12.000000 179.997391 -79.932480
v -12.000000 0.000000 -17.172760
v 12.000000 0.000000 -17.172760
v -12.000000 179.997391 -34.426178
v 12.000000 179.997391 -34.426178
v 12.000000 130.938751 3.406584
v -12.000000 130.938751 3.406584
v 12.000000 109.123871 3.398860
v -12.000000 109.123871 3.398860
v 12.000000 101.493423 -7.182891
v -12.000000 101.493423 -7.182891
v 12.000000 66.483337 -7.182891
v -12.000000 66.483337 -7.182891
v 12.000000 57.933670 3.398860
v -12.000000 57.933670 3.398860
v 6.271200 0.000000 -15.617441
v -6.271200 0.000000 -15.617441
v -6.271200 179.997391 -32.870857
v 6.271200 179.997391 -32.870857
v 6.271200 58.502426 4.954180
v -6.271200 58.502426 4.954180
v 6.271200 66.483337 -5.627573
v -6.271200 66.483337 -5.627573
v 6.271200 101.493423 -5.627573
v -6.271200 101.493423 -5.627573
v 6.271200 109.123871 4.954180
v -6.271200 109.123871 4.954180
v 6.271200 130.938751 4.961903
v -6.271200 130.938751 4.961903
v -6.271200 0.003836 -11.984442
v 6.271200 0.003836 -11.984442
v 6.271200 59.440575 8.067515
v 6.271200 67.930458 -2.716374
v 6.271200 100.015205 -2.732093
v 6.271200 107.645134 7.849397
v 6.271200 131.984497 8.040661
v 6.271200 180.000000 -29.173798
v -6.271200 180.000000 -29.173798
v -6.271200 131.984497 8.040661
v -6.271200 107.645134 7.849397
v -6.271200 100.015205 -2.732093
v -6.271200 67.930458 -2.716374
v -6.271200 59.440575 8.067515
v -10.491429 0.000000 -15.617441
v 10.491429 0.000000 -15.617441
v -10.491429 179.997391 -32.870857
v 10.491429 179.997391 -32.870857
v 10.491429 130.938751 4.961903
v -10.491429 130.938751 4.961903
v 10.491429 109.123871 4.954180
v -10.491429 109.123871 4.954180
v 10.491429 101.493423 -5.627573
v -10.491429 101.493423 -5.627573
v 10.491429 66.483337 -5.627573
v -10.491429 66.483337 -5.627573
v 10.491429 58.502426 4.954180
v -10.491429 58.502426 4.954180
v 12.000000 179.997391 -75.699936
v 12.000000 0.000000 -75.699936
v -12.000000 179.997391 -75.699936
v -12.000000 0.000000 -75.699936
vt 0.808357 0.889320
vt 0.474393 0.889180
vt 0.494816 0.889180
vt 0.078860 0.256431
vt 0.078903 0.361849
vt 0.137234 0.398723
vt 0.137234 0.567906
vt 0.078903 0.606472
vt 0.982676 0.973601
vt 0.982676 0.907991
vt 0.663959 0.973812
vt 0.608541 0.974127
vt 0.608541 0.907464
vt 0.663959 0.907780
vt 0.442358 0.974285
vt 0.442358 0.907306
vt 0.387464 0.974364
vt 0.387464 0.907227
vt 0.260800 0.974390
vt 0.260800 0.907202
vt 0.829013 0.889188
vt 0.858505 0.889122
vt 0.056364 0.599890
vt 0.031698 0.591120
vt 0.929594 0.602430
vt 0.878872 0.564211
vt 0.910329 0.557195
vt 0.962878 0.594799
vt 0.118983 0.558960
vt 0.090227 0.552457
vt 0.878510 0.404666
vt 0.909799 0.413890
vt 0.119115 0.406058
vt 0.089728 0.416211
vt 0.931270 0.367278
vt 0.963499 0.376959
vt 0.060736 0.368928
vt 0.031260 0.379271
vt 0.930478 0.257016
vt 0.961603 0.254040
vt 0.060688 0.249131
vt 0.030247 0.242076
vt 0.261589 0.019369
vt 0.223941 0.019334
vt 0.883491 0.889658
vt 0.932517 0.548749
vt 0.987390 0.589365
vt 0.932162 0.421228
vt 0.984186 0.383155
vt 0.983196 0.251368
vt 0.203526 0.019295
vt 0.015407 0.386479
vt 0.013296 0.237010
vt 0.073727 0.423350
vt 0.073987 0.545555
vt 0.014537 0.586584
vt 0.907953 0.606274
vt 0.172970 0.889204
vt 0.192309 0.889111
vt 0.753700 0.019355
vt 0.726248 0.019071
vt 0.078866 0.256439
vt 0.908127 0.257076
vt 0.907702 0.362430
vt 0.078937 0.361860
vt 0.857342 0.397737
vt 0.137279 0.398710
vt 0.856937 0.568032
vt 0.137264 0.567897
vt 0.078823 0.606243
vt 0.192304 0.889180
vt 0.539070 0.889029
vt 0.474393 0.019360
vt 0.518647 0.019208
vt 0.539069 0.019208
vt 0.287415 0.019360
vt 0.012456 0.974390
vt 0.012456 0.907202
vt 0.789846 0.019351
vt 0.814301 0.019303
vt 0.287367 0.019379
vt 0.148118 0.889121
vt 0.128129 0.889064
vt 0.518647 0.889029
vt 0.494816 0.019360
vn 1.000000 0.000000 0.000000
vn 1.000000 0.000000 0.000000
vn 1.000000 0.000000 0.000000
vn 1.000000 0.000000 0.000000
vn -1.000000 0.000000 0.000000
vn -1.000000 0.000000 0.000000
vn -1.000000 0.000000 0.000000
vn -1.000000 0.000000 0.000000
vn -1.000000 0.000000 0.000000
vn -1.000000 0.000000 0.000000
vn -1.000000 0.000000 0.000000
vn -1.000000 0.000000 0.000000
vn -1.000000 0.000000 0.000000
vn 0.000000 0.785722 0.618579
vn 0.000000 0.785722 0.618579
vn 0.000000 0.785722 0.618579
vn 0.000000 0.785722 0.618579
vn 0.000000 0.000490 1.000000
vn 0.000000 0.000490 1.000000
vn 0.000000 0.000490 1.000000
vn 0.000000 0.000490 1.000000
vn 0.000000 -0.811125 0.584873
vn 0.000000 -0.811125 0.584873
vn 0.000000 -0.811125 0.584873
vn 0.000000 -0.811125 0.584873
vn 0.000000 -0.007858 0.999969
vn 0.000000 -0.007858 0.999969
vn 0.000000 -0.007858 0.999969
vn 0.000000 -0.007858 0.999969
vn 0.000000 0.612597 0.790396
vn 0.000000 0.612597 0.790396
vn 0.000000 0.612597 0.790396
vn 0.000000 0.612597 0.790396
vn 0.000000 -0.331726 0.943376
vn -0.360645 -0.309973 0.879688
vn -0.360645 -0.309973 0.879688
vn 0.000000 -0.331726 0.943376
vn 0.326140 0.750467 0.574832
vn 0.326140 0.750467 0.574832
vn 0.000000 0.798382 0.602151
vn 0.000000 0.798382 0.602151
vn -0.326140 0.750467 0.574832
vn -0.326140 0.750467 0.574832
vn 0.000000 0.798382 0.602151
vn 0.000000 0.798382 0.602151
vn 0.389720 0.000000 0.920933
vn 0.389720 0.000000 0.920933
vn 0.000000 0.000000 1.000000
vn 0.000000 0.000000 1.000000
vn -0.389720 0.000000 0.920933
vn -0.389720 0.000000 0.920933
vn 0.000000 0.000000 1.000000
vn 0.000000 0.000000 1.000000
vn 0.268000 -0.781442 0.563494
vn 0.268000 -0.781442 0.563494
vn 0.000000 -0.811113 0.584890
vn 0.000000 -0.811113 0.584890
vn -0.268000 -0.781442 0.563494
vn -0.268000 -0.781442 0.563494
vn 0.000000 -0.811113 0.584890
vn 0.000000 -0.811113 0.584890
vn 0.389720 -0.000326 0.920933
vn 0.389720 -0.000326 0.920933
vn 0.000000 -0.000354 1.000000
vn 0.000000 -0.000354 1.000000
vn -0.389720 -0.000326 0.920933
vn -0.389720 -0.000326 0.920933
vn 0.000000 -0.000354 1.000000
vn 0.000000 -0.000354 1.000000
vn 0.000000 0.610677 0.791880
vn 0.335689 0.575241 0.745929
vn 0.335689 0.575241 0.745929
vn 0.000000 0.610677 0.791880
vn 0.000000 0.610677 0.791880
vn -0.335689 0.575241 0.745929
vn -0.335689 0.575241 0.745929
vn 0.000000 0.610677 0.791880
vn 1.000000 -0.000000 0.000000
vn 1.000000 -0.000000 0.000000
vn 1.000000 -0.000000 0.000000
vn 1.000000 -0.000000 0.000000
vn 1.000000 0.000000 0.000000
vn 1.000000 0.000000 0.000000
vn 1.000000 0.000000 0.000000
vn 1.000000 0.000000 0.000000
vn 1.000000 0.000000 0.000000
vn 1.000000 0.000000 0.000000
vn 1.000000 0.000000 0.000000
vn 1.000000 0.000000 0.000000
vn 1.000000 0.000000 0.000000
vn 1.000000 0.000000 0.000000
vn 1.000000 0.000000 0.000000
vn 1.000000 0.000000 0.000000
vn 1.000000 -0.000000 0.000000
vn 1.000000 -0.000000 0.000000
vn 1.000000 -0.000000 0.000000
vn 1.000000 -0.000000 0.000000
vn -1.000000 -0.000000 0.000000
vn -1.000000 -0.000000 0.000000
vn -1.000000 -0.000000 0.000000
vn -1.000000 -0.000000 0.000000
vn -1.000000 0.000000 0.000000
vn -1.000000 0.000000 0.000000
vn -1.000000 0.000000 0.000000
vn -1.000000 0.000000 0.000000
vn -1.000000 -0.000000 0.000000
vn -1.000000 -0.000000 0.000000
vn -1.000000 -0.000000 0.000000
vn -1.000000 -0.000000 0.000000
vn -1.000000 0.000000 0.000000
vn -1.000000 0.000000 0.000000
vn -1.000000 0.000000 0.000000
vn -1.000000 0.000000 0.000000
vn -1.000000 0.000000 0.000000
vn -1.000000 0.000000 0.000000
vn -1.000000 0.000000 0.000000
vn -1.000000 0.000000 0.000000
vn -1.000000 -0.000000 0.000000
vn -1.000000 -0.000000 0.000000
vn -1.000000 -0.000000 0.000000
vn -1.000000 -0.000000 0.000000
vn 0.672750 -0.246500 0.697600
vn 0.672750 -0.246500 0.697600
vn 0.360645 -0.309973 0.879688
vn 0.360645 -0.309973 0.879688
vn 0.632420 0.473046 0.613411
vn 0.335689 0.575241 0.745929
vn 0.335689 0.575241 0.745929
vn 0.632420 0.473046 0.613411
vn -0.632420 0.473046 0.613411
vn -0.335689 0.575241 0.745929
vn -0.335689 0.575241 0.745929
vn -0.632420 0.473046 0.613411
vn 0.717812 -0.000246 0.696237
vn 0.389720 -0.000326 0.920933
vn 0.389720 -0.000326 0.920933
vn 0.717812 -0.000246 0.696237
vn -0.717812 -0.000246 0.696237
vn -0.389720 -0.000326 0.920933
vn -0.389720 -0.000326 0.920933
vn -0.717812 -0.000246 0.696237
vn 0.516392 -0.694598 0.500871
vn 0.268000 -0.781442 0.563494
vn 0.268000 -0.781442 0.563494
vn 0.516392 -0.694598 0.500871
vn -0.516392 -0.694598 0.500871
vn -0.268000 -0.781442 0.563494
vn -0.268000 -0.781442 0.563494
vn -0.516392 -0.694598 0.500871
vn 0.717812 0.000000 0.696237
vn 0.389720 0.000000 0.920933
vn 0.389720 0.000000 0.920933
vn 0.717812 0.000000 0.696237
vn -0.717812 0.000000 0.696237
vn -0.389720 0.000000 0.920933
vn -0.389720 0.000000 0.920933
vn -0.717812 0.000000 0.696237
vn 0.616597 0.620443 0.484621
vn 0.326140 0.750467 0.574832
vn 0.326140 0.750467 0.574832
vn 0.616597 0.620443 0.484621
vn -0.616598 0.620443 0.484621
vn -0.326140 0.750467 0.574832
vn -0.326140 0.750467 0.574832
vn -0.616598 0.620443 0.484621
vn 1.000000 -0.000000 0.000000
vn 1.000000 -0.000000 0.000000
vn 1.000000 -0.000000 0.000000
vn 1.000000 -0.000000 0.000000
vn 1.000000 -0.000000 0.000000
vn 1.000000 -0.000000 0.000000
vn 1.000000 -0.000000 0.000000
vn 1.000000 -0.000000 0.000000
vn 1.000000 -0.000000 0.000000
vn -1.000000 0.000000 0.000000
vn -1.000000 0.000000 0.000000
vn -1.000000 0.000000 0.000000
vn -1.000000 0.000000 0.000000
vn 0.000000 -0.319665 0.947531
vn 0.000000 -0.319665 0.947531
vn 0.000000 -0.319665 0.947531
vn 0.000000 -0.319665 0.947531
vn 0.360645 -0.309973 0.879688
vn 0.000000 -0.331726 0.943376
vn 0.000000 -0.331726 0.943376
vn 0.360645 -0.309973 0.879688
vn 1.000000 -0.000000 0.000000
vn 1.000000 -0.000000 0.000000
vn 1.000000 -0.000000 0.000000
vn 1.000000 -0.000000 0.000000
vn -0.360645 -0.309973 0.879688
vn -0.672750 -0.246500 0.697600
vn -0.672750 -0.246500 0.697600
vn -0.360645 -0.309973 0.879688
s off
g LOW
usemtl doordouble01left:Door_002
f 61/75/1 62/72/2 2/84/3 4/74/4
f 18/8/5 16/7/6 14/6/7 12/5/8 10/4/9 7/76/10 63/73/11 64/2/12 5/71/13
f 35/11/14 36/12/15 45/13/16 46/14/17
f 36/12/18 37/15/19 44/16/20 45/13/21
f 37/15/22 38/17/23 43/18/24 44/16/25
f 38/17/26 39/19/27 42/20/28 43/18/29
f 42/20/30 39/19/31 40/77/32 41/78/33
f 24/24/34 60/23/35 47/58/36 20/82/37
f 59/25/38 57/26/39 25/27/40 23/28/41
f 58/29/42 60/23/43 24/24/44 26/30/45
f 57/26/46 55/31/47 27/32/48 25/27/49
f 56/33/50 58/29/51 26/30/52 28/34/53
f 55/31/54 53/35/55 29/36/56 27/32/57
f 54/37/58 56/33/59 28/34/60 30/38/61
f 53/35/62 51/39/63 31/40/64 29/36/65
f 52/41/66 54/37/67 30/38/68 32/42/69
f 31/40/70 51/39/71 50/60/72 22/79/73
f 21/44/74 49/43/75 52/41/76 32/42/77
f 23/28/78 25/27/79 36/46/80 35/47/81
f 25/27/82 27/32/83 37/48/84 36/46/85
f 27/32/86 29/36/87 38/49/88 37/48/89
f 29/36/90 31/40/91 39/50/92 38/49/93
f 39/50/94 31/40/95 22/79/96 40/80/97
f 42/53/98 41/51/99 21/44/100 32/42/101
f 32/42/102 30/38/103 43/52/104 42/53/105
f 30/38/106 28/34/107 44/54/108 43/52/109
f 28/34/110 26/30/111 45/55/112 44/54/113
f 26/30/114 24/24/115 46/56/116 45/55/117
f 33/83/118 46/56/119 24/24/120 20/82/121
f 6/1/122 17/57/123 59/25/124 48/21/125
f 8/61/126 50/60/127 51/39/128 9/63/129
f 10/62/130 52/41/131 49/43/132 7/81/133
f 9/63/134 51/39/135 53/35/136 11/64/137
f 12/65/138 54/37/139 52/41/140 10/62/141
f 11/64/142 53/35/143 55/31/144 13/66/145
f 14/67/146 56/33/147 54/37/148 12/65/149
f 13/66/150 55/31/151 57/26/152 15/68/153
f 16/69/154 58/29/155 56/33/156 14/67/157
f 15/68/158 57/26/159 59/25/160 17/57/161
f 18/70/162 60/23/163 58/29/164 16/69/165
f 6/1/166 62/72/167 61/75/168 8/61/169 9/63/170 11/64/171 13/66/172 15/68/173 17/57/174
f 63/73/175 3/85/176 1/3/177 64/2/178
f 35/11/179 46/14/180 33/10/181 34/9/182
f 59/25/183 23/28/184 19/22/185 48/21/186
f 23/28/187 35/47/188 34/45/189 19/22/190
f 60/23/191 18/70/192 5/59/193 47/58/194
