# Generated by makebsp -bsp2obj
# Source: C:/Users/German/Documents/My Games/Warfork 2.1/basewf/models/mapobjects/wsw_adverts/source/advertframe_couple
# Axis swap: Q3 Z-up -> OBJ Y-up (X=X, Y=Z, Z=-Y)
o advertframe_couple
mtllib advertframe_couple.mtl
g mat0m0s1
usemtl textures/wsw_city1/cables2
v -6.000000 -76.000000 80.000000
vt 0.000000 1.000000
vn 1.000000 0.000000 -0.000000
v -6.000000 -76.000000 -54.000000
vt 0.858974 1.000000
vn 1.000000 0.000000 -0.000000
v -6.000000 -86.250000 -76.000000
vt 1.000000 0.901442
vn 1.000000 0.000000 -0.000000
v -6.000000 -180.000000 -76.000000
vt 1.000000 0.000000
vn 1.000000 0.000000 -0.000000
v -6.000000 -180.000000 80.000000
vt 0.000000 0.000000
vn 1.000000 0.000000 -0.000000
f 5/5/5 4/4/4 1/1/1
f 4/4/4 2/2/2 1/1/1
f 4/4/4 3/3/3 2/2/2
g mat1m0s2
usemtl textures/plastic_vertex/vertex_grey35
v -2.750000 -78.750000 78.000000
vt 0.218750 0.375000
vn 1.000000 0.000000 -0.000000
v -2.750000 -76.000000 78.000000
vt 0.218750 0.403646
vn 1.000000 0.000000 -0.000000
v -2.750000 -76.000000 54.000000
vt 0.468750 0.403646
vn 1.000000 0.000000 -0.000000
v -2.750000 -78.750000 54.000000
vt 0.468750 0.375000
vn 1.000000 0.000000 -0.000000
f 9/9/9 8/8/8 6/6/6
f 8/8/8 7/7/7 6/6/6
g mat1m0s3
usemtl textures/plastic_vertex/vertex_grey35
v -7.250000 -86.250000 78.000000
vt 0.031250 0.296875
vn 0.000000 0.000000 1.000000
v -7.250000 -76.000000 78.000000
vt 0.031250 0.403646
vn 0.000000 0.000000 1.000000
v -2.750000 -76.000000 78.000000
vt 0.078125 0.403646
vn 0.000000 0.000000 1.000000
v -2.750000 -78.750000 78.000000
vt 0.078125 0.375000
vn 0.000000 0.000000 1.000000
v -5.750000 -86.250000 78.000000
vt 0.046875 0.296875
vn 0.000000 0.000000 1.000000
f 14/14/14 13/13/13 10/10/10
f 13/13/13 11/11/11 10/10/10
f 13/13/13 12/12/12 11/11/11
g mat1m0s4
usemtl textures/plastic_vertex/vertex_grey35
v -2.750000 -78.750000 54.000000
vt 0.078125 0.375000
vn 0.000000 0.000000 -1.000000
v -2.750000 -76.000000 54.000000
vt 0.078125 0.403646
vn 0.000000 0.000000 -1.000000
v -7.250000 -76.000000 54.000000
vt 0.031250 0.403646
vn 0.000000 0.000000 -1.000000
v -7.250000 -86.250000 54.000000
vt 0.031250 0.296875
vn 0.000000 0.000000 -1.000000
v -5.750000 -86.250000 54.000000
vt 0.046875 0.296875
vn 0.000000 0.000000 -1.000000
f 19/19/19 18/18/18 15/15/15
f 18/18/18 16/16/16 15/15/15
f 18/18/18 17/17/17 16/16/16
g mat1m0s5
usemtl textures/plastic_vertex/vertex_grey35
v -5.750000 -86.250000 54.000000
vt 0.015625 0.468750
vn 0.000000 -1.000000 -0.000000
v -7.250000 -86.250000 54.000000
vt 0.000000 0.468750
vn 0.000000 -1.000000 -0.000000
v -7.250000 -86.250000 78.000000
vt 0.000000 0.218750
vn 0.000000 -1.000000 -0.000000
v -5.750000 -86.250000 78.000000
vt 0.015625 0.218750
vn 0.000000 -1.000000 -0.000000
f 23/23/23 22/22/22 20/20/20
f 22/22/22 21/21/21 20/20/20
g mat1m0s6
usemtl textures/plastic_vertex/vertex_grey35
v -5.750000 -86.250000 78.000000
vt 0.218750 0.296875
vn 0.928477 -0.371391 -0.000000
v -2.750000 -78.750000 78.000000
vt 0.218750 0.375000
vn 0.928477 -0.371391 -0.000000
v -2.750000 -78.750000 54.000000
vt 0.468750 0.375000
vn 0.928477 -0.371391 -0.000000
v -5.750000 -86.250000 54.000000
vt 0.468750 0.296875
vn 0.928477 -0.371391 -0.000000
f 27/27/27 26/26/26 24/24/24
f 26/26/26 25/25/25 24/24/24
g mat1m0s7
usemtl textures/plastic_vertex/vertex_grey35
v -2.750000 -78.750000 -54.000000
vt 0.156250 0.375000
vn 1.000000 0.000000 -0.000000
v -2.750000 -76.000000 -54.000000
vt 0.156250 0.403646
vn 1.000000 0.000000 -0.000000
v -2.750000 -76.000000 -78.000000
vt 0.406250 0.403646
vn 1.000000 0.000000 -0.000000
v -2.750000 -78.750000 -78.000000
vt 0.406250 0.375000
vn 1.000000 0.000000 -0.000000
f 31/31/31 30/30/30 28/28/28
f 30/30/30 29/29/29 28/28/28
g mat1m0s8
usemtl textures/plastic_vertex/vertex_grey35
v -7.250000 -86.250000 -54.000000
vt 0.031250 0.296875
vn 0.000000 0.000000 1.000000
v -7.250000 -76.000000 -54.000000
vt 0.031250 0.403646
vn 0.000000 0.000000 1.000000
v -2.750000 -76.000000 -54.000000
vt 0.078125 0.403646
vn 0.000000 0.000000 1.000000
v -2.750000 -78.750000 -54.000000
vt 0.078125 0.375000
vn 0.000000 0.000000 1.000000
v -5.750000 -86.250000 -54.000000
vt 0.046875 0.296875
vn 0.000000 0.000000 1.000000
f 36/36/36 35/35/35 32/32/32
f 35/35/35 33/33/33 32/32/32
f 35/35/35 34/34/34 33/33/33
g mat1m0s9
usemtl textures/plastic_vertex/vertex_grey35
v -2.750000 -78.750000 -78.000000
vt 0.078125 0.375000
vn 0.000000 0.000000 -1.000000
v -2.750000 -76.000000 -78.000000
vt 0.078125 0.403646
vn 0.000000 0.000000 -1.000000
v -7.250000 -76.000000 -78.000000
vt 0.031250 0.403646
vn 0.000000 0.000000 -1.000000
v -7.250000 -86.250000 -78.000000
vt 0.031250 0.296875
vn 0.000000 0.000000 -1.000000
v -5.750000 -86.250000 -78.000000
vt 0.046875 0.296875
vn 0.000000 0.000000 -1.000000
f 41/41/41 40/40/40 37/37/37
f 40/40/40 38/38/38 37/37/37
f 40/40/40 39/39/39 38/38/38
g mat1m0s10
usemtl textures/plastic_vertex/vertex_grey35
v -5.750000 -86.250000 -78.000000
vt 0.015625 0.406250
vn 0.000000 -1.000000 -0.000000
v -7.250000 -86.250000 -78.000000
vt 0.000000 0.406250
vn 0.000000 -1.000000 -0.000000
v -7.250000 -86.250000 -54.000000
vt 0.000000 0.156250
vn 0.000000 -1.000000 -0.000000
v -5.750000 -86.250000 -54.000000
vt 0.015625 0.156250
vn 0.000000 -1.000000 -0.000000
f 45/45/45 44/44/44 42/42/42
f 44/44/44 43/43/43 42/42/42
g mat1m0s11
usemtl textures/plastic_vertex/vertex_grey35
v -5.750000 -86.250000 -54.000000
vt 0.156250 0.296875
vn 0.928477 -0.371391 -0.000000
v -2.750000 -78.750000 -54.000000
vt 0.156250 0.375000
vn 0.928477 -0.371391 -0.000000
v -2.750000 -78.750000 -78.000000
vt 0.406250 0.375000
vn 0.928477 -0.371391 -0.000000
v -5.750000 -86.250000 -78.000000
vt 0.406250 0.296875
vn 0.928477 -0.371391 -0.000000
f 49/49/49 48/48/48 46/46/46
f 48/48/48 47/47/47 46/46/46
g mat1m0s12
usemtl textures/plastic_vertex/vertex_grey35
v -4.500000 -48.000000 149.500000
vt 0.054688 1.007812
vn 0.707107 0.000000 0.707107
v -4.000000 112.000000 148.000000
vt 0.093750 1.015625
vn 1.000000 0.000000 -0.000000
v -4.000000 -48.000000 148.000000
vt 0.093750 1.007812
vn 1.000000 0.000000 -0.000000
v -4.500000 112.000000 149.500000
vt 0.054688 1.015625
vn 0.707107 0.000000 0.707107
v -4.500000 -52.125000 148.125000
vt 0.054688 1.005859
vn 0.816497 -0.408248 0.408248
v -4.000000 -51.000000 147.000000
vt 0.093750 1.005859
vn 1.000000 0.000000 -0.000000
v -4.000000 115.000000 147.000000
vt 0.093750 1.023438
vn 1.000000 0.000000 -0.000000
v -4.500000 116.125000 148.125000
vt 0.054688 1.023438
vn 0.816497 0.408248 0.408248
v -4.500000 -53.500000 144.000000
vt 0.054688 1.003906
vn 0.707107 -0.707107 -0.000000
v -4.000000 -52.000000 144.000000
vt 0.093750 1.003906
vn 1.000000 0.000000 -0.000000
v -4.500000 -53.500000 140.000000
vt 0.054688 1.000000
vn 0.707107 -0.707107 -0.000000
v -4.000000 -52.000000 140.000000
vt 0.093750 1.000000
vn 1.000000 0.000000 -0.000000
v -4.500000 112.000000 146.500000
vt 0.132812 1.015625
vn 0.707107 0.000000 -0.707107
v -4.500000 -48.000000 146.500000
vt 0.132812 1.007812
vn 0.707107 0.000000 -0.707107
v -4.500000 113.875000 145.875000
vt 0.132812 1.023438
vn 0.816497 -0.408248 -0.408248
v -4.500000 -49.875000 145.875000
vt 0.132812 1.005859
vn 0.816497 0.408248 -0.408248
v -4.500000 -50.500000 144.000000
vt 0.132812 1.003906
vn 0.707107 0.707107 -0.000000
v -4.500000 -50.500000 140.000000
vt 0.132812 1.000000
vn 0.707107 0.707107 -0.000000
v -4.500000 114.500000 144.000000
vt 0.132812 1.031250
vn 0.707107 -0.707107 -0.000000
v -4.000000 116.000000 144.000000
vt 0.093750 1.031250
vn 1.000000 0.000000 -0.000000
v -4.500000 114.500000 140.000000
vt 0.132812 1.062500
vn 0.707107 -0.707107 -0.000000
v -4.000000 116.000000 140.000000
vt 0.093750 1.062500
vn 1.000000 0.000000 -0.000000
v -4.500000 117.500000 144.000000
vt 0.054688 1.031250
vn 0.707107 0.707107 -0.000000
v -4.500000 117.500000 140.000000
vt 0.054688 1.062500
vn 0.707107 0.707107 -0.000000
v -6.000000 112.000000 146.000000
vt 0.187500 1.015625
vn 0.000000 0.000000 -1.000000
v -6.000000 -48.000000 146.000000
vt 0.187500 1.007812
vn 0.000000 0.000000 -1.000000
v -6.000000 -48.000000 150.000000
vt 0.000000 1.007812
vn 0.000000 0.000000 1.000000
v -4.500000 112.000000 149.500000
vt 0.054688 1.015625
vn 0.707107 0.000000 0.707107
v -4.500000 -48.000000 149.500000
vt 0.054688 1.007812
vn 0.707107 0.000000 0.707107
v -6.000000 112.000000 150.000000
vt 0.000000 1.015625
vn 0.000000 0.000000 1.000000
v -4.500000 116.125000 148.125000
vt 0.054688 1.023438
vn 0.816497 0.408248 0.408248
v -6.000000 116.500000 148.500000
vt 0.000000 1.023438
vn 0.000000 0.707107 0.707107
v -6.000000 -52.500000 148.500000
vt 0.000000 1.005859
vn 0.000000 -0.707107 0.707107
v -4.500000 -52.125000 148.125000
vt 0.054688 1.005859
vn 0.816497 -0.408248 0.408248
v -6.000000 -54.000000 144.000000
vt 0.000000 1.003906
vn 0.000000 -1.000000 -0.000000
v -4.500000 -52.125000 148.125000
vt 0.054688 1.005859
vn 0.816497 -0.408248 0.408248
v -4.500000 -53.500000 144.000000
vt 0.054688 1.003906
vn 0.707107 -0.707107 -0.000000
v -6.000000 -52.500000 148.500000
vt 0.000000 1.005859
vn 0.000000 -0.707107 0.707107
v -6.000000 -54.000000 140.000000
vt 0.000000 1.000000
vn 0.000000 -1.000000 -0.000000
v -4.500000 -53.500000 140.000000
vt 0.054688 1.000000
vn 0.707107 -0.707107 -0.000000
v -6.000000 118.000000 144.000000
vt 0.000000 1.031250
vn 0.000000 1.000000 -0.000000
v -4.500000 117.500000 140.000000
vt 0.054688 1.062500
vn 0.707107 0.707107 -0.000000
v -4.500000 117.500000 144.000000
vt 0.054688 1.031250
vn 0.707107 0.707107 -0.000000
v -6.000000 118.000000 140.000000
vt 0.000000 1.062500
vn 0.000000 1.000000 -0.000000
v -6.000000 116.500000 148.500000
vt 0.000000 1.023438
vn 0.000000 0.707107 0.707107
v -4.500000 116.125000 148.125000
vt 0.054688 1.023438
vn 0.816497 0.408248 0.408248
v -4.500000 -50.500000 140.000000
vt 0.132812 1.000000
vn 0.707107 0.707107 -0.000000
v -4.500000 -50.500000 144.000000
vt 0.132812 1.003906
vn 0.707107 0.707107 -0.000000
v -6.000000 -50.000000 144.000000
vt 0.187500 1.003906
vn 0.000000 1.000000 -0.000000
v -6.000000 -50.000000 140.000000
vt 0.187500 1.000000
vn 0.000000 1.000000 -0.000000
v -6.000000 -49.500000 145.500000
vt 0.187500 1.005859
vn 0.000000 0.707107 -0.707107
v -4.500000 -49.875000 145.875000
vt 0.132812 1.005859
vn 0.816497 0.408248 -0.408248
v -6.000000 -48.000000 146.000000
vt 0.187500 1.007812
vn 0.000000 0.000000 -1.000000
v -4.500000 -48.000000 146.500000
vt 0.132812 1.007812
vn 0.707107 0.000000 -0.707107
v -4.500000 114.500000 144.000000
vt 0.132812 1.031250
vn 0.707107 -0.707107 -0.000000
v -6.000000 114.000000 140.000000
vt 0.187500 1.062500
vn 0.000000 -1.000000 -0.000000
v -6.000000 114.000000 144.000000
vt 0.187500 1.031250
vn 0.000000 -1.000000 -0.000000
v -4.500000 114.500000 140.000000
vt 0.132812 1.062500
vn 0.707107 -0.707107 -0.000000
v -4.500000 113.875000 145.875000
vt 0.132812 1.023438
vn 0.816497 -0.408248 -0.408248
v -6.000000 113.500000 145.500000
vt 0.187500 1.023438
vn 0.000000 -0.707107 -0.707107
v -4.500000 112.000000 146.500000
vt 0.132812 1.015625
vn 0.707107 0.000000 -0.707107
v -6.000000 112.000000 146.000000
vt 0.187500 1.015625
vn 0.000000 0.000000 -1.000000
f 88/88/88 86/86/86 84/84/84
f 88/88/88 89/89/89 86/86/86
f 60/60/60 59/59/59 58/58/58
f 60/60/60 61/61/61 59/59/59
f 61/61/61 66/66/66 59/59/59
f 61/61/61 67/67/67 66/66/66
f 96/96/96 98/98/98 97/97/97
f 96/96/96 99/99/99 98/98/98
f 84/84/84 85/85/85 87/87/87
f 84/84/84 86/86/86 85/85/85
f 58/58/58 55/55/55 54/54/54
f 58/58/58 59/59/59 55/55/55
f 59/59/59 65/65/65 55/55/55
f 59/59/59 66/66/66 65/65/65
f 97/97/97 100/100/100 101/101/101
f 97/97/97 98/98/98 100/100/100
f 82/82/82 78/78/78 76/76/76
f 82/82/82 83/83/83 78/78/78
f 54/54/54 52/52/52 50/50/50
f 54/54/54 55/55/55 52/52/52
f 55/55/55 63/63/63 52/52/52
f 55/55/55 65/65/65 63/63/63
f 101/101/101 102/102/102 103/103/103
f 101/101/101 100/100/100 102/102/102
f 76/76/76 77/77/77 79/79/79
f 76/76/76 78/78/78 77/77/77
f 50/50/50 51/51/51 53/53/53
f 50/50/50 52/52/52 51/51/51
f 52/52/52 62/62/62 51/51/51
f 52/52/52 63/63/63 62/62/62
f 63/63/63 74/74/74 62/62/62
f 63/63/63 75/75/75 74/74/74
f 79/79/79 80/80/80 81/81/81
f 79/79/79 77/77/77 80/80/80
f 53/53/53 56/56/56 57/57/57
f 53/53/53 51/51/51 56/56/56
f 51/51/51 64/64/64 56/56/56
f 51/51/51 62/62/62 64/64/64
f 110/110/110 109/109/109 108/108/108
f 110/110/110 111/111/111 109/109/109
f 94/94/94 92/92/92 90/90/90
f 94/94/94 95/95/95 92/92/92
f 57/57/57 69/69/69 72/72/72
f 57/57/57 56/56/56 69/69/69
f 56/56/56 68/68/68 69/69/69
f 56/56/56 64/64/64 68/68/68
f 108/108/108 106/106/106 104/104/104
f 108/108/108 109/109/109 106/106/106
f 90/90/90 91/91/91 93/93/93
f 90/90/90 92/92/92 91/91/91
f 72/72/72 71/71/71 73/73/73
f 72/72/72 69/69/69 71/71/71
f 69/69/69 70/70/70 71/71/71
f 69/69/69 68/68/68 70/70/70
f 104/104/104 105/105/105 107/107/107
f 104/104/104 106/106/106 105/105/105
g mat2m0s13
usemtl textures/plastic/grey65
v 0.000000 29.250000 128.000000
vt 0.896484 1.000000
vn 1.000000 0.000000 -0.000000
v 0.000000 34.750000 128.000000
vt 0.853516 1.000000
vn 1.000000 0.000000 -0.000000
v 0.000000 34.750000 -128.000000
vt 0.853516 -1.000000
vn 1.000000 0.000000 -0.000000
v 0.000000 29.250000 -128.000000
vt 0.896484 -1.000000
vn 1.000000 0.000000 -0.000000
v 0.000000 28.000000 -128.000000
vt 0.906250 -1.000000
vn 0.707107 -0.707107 -0.000000
v 0.000000 28.000000 128.000000
vt 0.906250 1.000000
vn 0.707107 -0.707107 -0.000000
v 0.000000 36.000000 128.000000
vt 0.843750 1.000000
vn 0.707107 0.707107 -0.000000
v 0.000000 36.000000 -128.000000
vt 0.843750 -1.000000
vn 0.707107 0.707107 -0.000000
v 0.000000 28.000000 128.000000
vt 2.093750 -0.062500
vn 0.707107 -0.707107 -0.000000
v 0.000000 28.000000 -128.000000
vt 0.093750 -0.062500
vn 0.707107 -0.707107 -0.000000
v -1.250000 28.000000 -128.000000
vt 0.093750 -0.052734
vn 0.000000 -1.000000 -0.000000
v -1.250000 28.000000 128.000000
vt 2.093750 -0.052734
vn 0.000000 -1.000000 -0.000000
v -8.000000 28.000000 -128.000000
vt 0.093750 0.000000
vn 0.000000 -1.000000 -0.000000
v -8.000000 28.000000 128.000000
vt 2.093750 0.000000
vn 0.000000 -1.000000 -0.000000
v 0.000000 36.000000 -128.000000
vt 0.093750 -0.062500
vn 0.707107 0.707107 -0.000000
v 0.000000 36.000000 128.000000
vt 2.093750 -0.062500
vn 0.707107 0.707107 -0.000000
v -1.250000 36.000000 128.000000
vt 2.093750 -0.052734
vn 0.000000 1.000000 -0.000000
v -1.250000 36.000000 -128.000000
vt 0.093750 -0.052734
vn 0.000000 1.000000 -0.000000
v -8.000000 36.000000 128.000000
vt 2.093750 0.000000
vn 0.000000 1.000000 -0.000000
v -8.000000 36.000000 -128.000000
vt 0.093750 0.000000
vn 0.000000 1.000000 -0.000000
v -8.000000 -64.000000 128.000000
vt 0.000000 0.343750
vn 0.000000 0.000000 -1.000000
v 2.750000 -64.000000 128.000000
vt 0.083984 0.343750
vn 0.000000 0.000000 -1.000000
v 2.750000 28.000000 128.000000
vt 0.083984 -0.375000
vn 0.000000 0.000000 -1.000000
v -8.000000 28.000000 128.000000
vt 0.000000 -0.375000
vn 0.000000 0.000000 -1.000000
v 2.750000 28.000000 128.000000
vt 0.083984 0.625000
vn 0.000000 0.000000 -1.000000
v 2.750000 36.000000 128.000000
vt 0.083984 0.562500
vn 0.000000 0.000000 -1.000000
v -8.000000 28.000000 128.000000
vt 0.000000 0.625000
vn 0.000000 0.000000 -1.000000
v -8.000000 128.000000 128.000000
vt 0.000000 -0.156250
vn 0.000000 0.000000 -1.000000
v 2.750000 128.000000 128.000000
vt 0.083984 -0.156250
vn 0.000000 0.000000 -1.000000
v 4.000000 36.000000 128.000000
vt 0.093750 0.562500
vn 0.707107 0.000000 -0.707107
v 4.000000 28.000000 128.000000
vt 0.093750 0.625000
vn 0.707107 0.000000 -0.707107
v 4.000000 128.000000 128.000000
vt 0.093750 -0.156250
vn 0.577350 -0.577350 -0.577350
v 4.000000 -64.000000 128.000000
vt 0.093750 0.343750
vn 0.577350 0.577350 -0.577350
v 4.000000 28.000000 128.000000
vt 0.093750 -0.375000
vn 0.707107 0.000000 -0.707107
v -8.000000 -64.000000 128.000000
vt 0.000000 -1.000000
vn 0.000000 1.000000 -0.000000
v 2.750000 -64.000000 -128.000000
vt 0.083984 1.000000
vn 0.000000 1.000000 -0.000000
v 2.750000 -64.000000 128.000000
vt 0.083984 -1.000000
vn 0.000000 1.000000 -0.000000
v 4.000000 -64.000000 -128.000000
vt 0.093750 1.000000
vn 0.577350 0.577350 0.577350
v 4.000000 -64.000000 128.000000
vt 0.093750 -1.000000
vn 0.577350 0.577350 -0.577350
v -8.000000 -64.000000 -128.000000
vt 0.000000 1.000000
vn 0.000000 1.000000 -0.000000
v -8.000000 128.000000 128.000000
vt 0.000000 -1.000000
vn 0.000000 -1.000000 -0.000000
v 2.750000 128.000000 128.000000
vt 0.083984 -1.000000
vn 0.000000 -1.000000 -0.000000
v 2.750000 128.000000 -128.000000
vt 0.083984 1.000000
vn 0.000000 -1.000000 -0.000000
v -8.000000 128.000000 -128.000000
vt 0.000000 1.000000
vn 0.000000 -1.000000 -0.000000
v 4.000000 128.000000 128.000000
vt 0.093750 -1.000000
vn 0.577350 -0.577350 -0.577350
v 4.000000 128.000000 -128.000000
vt 0.093750 1.000000
vn 0.577350 -0.577350 0.577350
v -8.000000 28.000000 -128.000000
vt 0.000000 0.625000
vn 0.000000 0.000000 1.000000
v -8.000000 128.000000 -128.000000
vt 0.000000 -0.156250
vn 0.000000 0.000000 1.000000
v 2.750000 128.000000 -128.000000
vt 0.083984 -0.156250
vn 0.000000 0.000000 1.000000
v 2.750000 36.000000 -128.000000
vt 0.083984 0.562500
vn 0.000000 0.000000 1.000000
v 2.750000 28.000000 -128.000000
vt 0.083984 0.625000
vn 0.000000 0.000000 1.000000
v -8.000000 -64.000000 -128.000000
vt 0.000000 0.343750
vn 0.000000 0.000000 1.000000
v -8.000000 28.000000 -128.000000
vt 0.000000 -0.375000
vn 0.000000 0.000000 1.000000
v 2.750000 28.000000 -128.000000
vt 0.083984 -0.375000
vn 0.000000 0.000000 1.000000
v 2.750000 -64.000000 -128.000000
vt 0.083984 0.343750
vn 0.000000 0.000000 1.000000
v 4.000000 28.000000 -128.000000
vt 0.093750 -0.375000
vn 0.707107 0.000000 0.707107
v 4.000000 36.000000 -128.000000
vt 0.093750 0.562500
vn 0.707107 0.000000 0.707107
v 4.000000 28.000000 -128.000000
vt 0.093750 0.625000
vn 0.707107 0.000000 0.707107
v 4.000000 -64.000000 -128.000000
vt 0.093750 0.343750
vn 0.577350 0.577350 0.577350
v 4.000000 128.000000 -128.000000
vt 0.093750 -0.156250
vn 0.577350 -0.577350 0.577350
v 4.000000 136.000000 136.000000
vt 0.031250 0.062500
vn 1.000000 0.000000 -0.000000
v 4.000000 128.000000 -128.000000
vt 0.093750 -2.000000
vn 1.000000 0.000000 -0.000000
v 4.000000 128.000000 128.000000
vt 0.093750 0.000000
vn 1.000000 0.000000 -0.000000
v 4.000000 -72.000000 136.000000
vt 1.656250 0.062500
vn 1.000000 0.000000 -0.000000
v 4.000000 -64.000000 128.000000
vt 1.593750 0.000000
vn 1.000000 0.000000 -0.000000
v 4.000000 -64.000000 -128.000000
vt 1.593750 0.000000
vn 1.000000 0.000000 -0.000000
v 4.000000 128.000000 -128.000000
vt 0.093750 0.000000
vn 1.000000 0.000000 -0.000000
v 4.000000 136.000000 -136.000000
vt 0.031250 0.062500
vn 1.000000 0.000000 -0.000000
v 4.000000 -72.000000 -136.000000
vt 1.656250 0.062500
vn 1.000000 0.000000 -0.000000
v 4.000000 136.000000 -136.000000
vt 0.031250 -2.062500
vn 1.000000 0.000000 -0.000000
v 4.000000 -65.250000 129.250000
vt 0.603516 0.009766
vn 1.000000 0.000000 -0.000000
v 4.000000 -70.750000 -134.750000
vt 0.646484 -2.052734
vn 1.000000 0.000000 -0.000000
v 4.000000 -70.750000 134.750000
vt 0.646484 0.052734
vn 1.000000 0.000000 -0.000000
v 4.000000 -72.000000 -136.000000
vt 0.656250 -2.062500
vn 0.923880 -0.382683 -0.000000
v 4.000000 -72.000000 136.000000
vt 0.656250 0.062500
vn 0.923880 -0.382683 -0.000000
v 4.000000 -64.000000 128.000000
vt 0.593750 0.000000
vn 0.707107 0.707107 -0.000000
v 4.000000 -64.000000 -128.000000
vt 0.593750 -2.000000
vn 0.707107 0.707107 -0.000000
v 4.000000 -65.250000 -129.250000
vt 0.603516 -2.009766
vn 1.000000 0.000000 -0.000000
v -8.000000 -76.000000 130.750000
vt 0.000000 0.021484
vn 0.000000 -1.000000 -0.000000
v -1.250000 -76.000000 130.750000
vt 0.052734 0.021484
vn 0.000000 -1.000000 -0.000000
v -1.250000 -76.000000 -130.750000
vt 0.052734 -2.021484
vn 0.000000 -1.000000 -0.000000
v -8.000000 -76.000000 -130.750000
vt 0.000000 -2.021484
vn 0.000000 -1.000000 -0.000000
v 0.000000 -76.000000 -132.000000
vt 0.062500 -2.031250
vn 0.270598 -0.923880 -0.270598
v -8.000000 -76.000000 -132.000000
vt 0.000000 -2.031250
vn 0.000000 -0.923880 -0.382683
v 0.000000 -76.000000 132.000000
vt 0.062500 0.031250
vn 0.270598 -0.923880 0.270598
v -8.000000 -76.000000 132.000000
vt 0.000000 0.031250
vn 0.000000 -0.923880 0.382683
v -1.250000 140.000000 130.750000
vt 0.302734 0.021484
vn 0.000000 1.000000 -0.000000
v -8.000000 140.000000 -130.750000
vt 0.250000 -2.021484
vn 0.000000 1.000000 -0.000000
v -1.250000 140.000000 -130.750000
vt 0.302734 -2.021484
vn 0.000000 1.000000 -0.000000
v -8.000000 140.000000 130.750000
vt 0.250000 0.021484
vn 0.000000 1.000000 -0.000000
v 0.000000 140.000000 132.000000
vt 0.312500 0.031250
vn 0.270598 0.923880 0.270598
v -8.000000 140.000000 132.000000
vt 0.250000 0.031250
vn 0.000000 0.923880 0.382683
v 0.000000 140.000000 -132.000000
vt 0.312500 -2.031250
vn 0.270598 0.923880 -0.270598
v -8.000000 140.000000 -132.000000
vt 0.250000 -2.031250
vn 0.000000 0.923880 -0.382683
v -8.000000 -66.750000 140.000000
vt 0.000000 0.365234
vn 0.000000 0.000000 1.000000
v -1.250000 130.750000 140.000000
vt 0.052734 -1.177734
vn 0.000000 0.000000 1.000000
v -1.250000 -66.750000 140.000000
vt 0.052734 0.365234
vn 0.000000 0.000000 1.000000
v 0.000000 -68.000000 140.000000
vt 0.062500 0.375000
vn 0.270598 -0.270598 0.923880
v -8.000000 -68.000000 140.000000
vt 0.000000 0.375000
vn 0.000000 -0.382683 0.923880
v 0.000000 132.000000 140.000000
vt 0.062500 -1.187500
vn 0.270598 0.270598 0.923880
v -8.000000 132.000000 140.000000
vt 0.000000 -1.187500
vn 0.000000 0.382683 0.923880
v -8.000000 130.750000 140.000000
vt 0.000000 -1.177734
vn 0.000000 0.000000 1.000000
v -1.250000 -66.750000 -140.000000
vt 0.052734 0.365234
vn 0.000000 0.000000 -1.000000
v -1.250000 130.750000 -140.000000
vt 0.052734 -1.177734
vn 0.000000 0.000000 -1.000000
v -8.000000 130.750000 -140.000000
vt 0.000000 -1.177734
vn 0.000000 0.000000 -1.000000
v 0.000000 132.000000 -140.000000
vt 0.062500 -1.187500
vn 0.270598 0.270598 -0.923880
v -8.000000 132.000000 -140.000000
vt 0.000000 -1.187500
vn 0.000000 0.382683 -0.923880
v 0.000000 -68.000000 -140.000000
vt 0.062500 0.375000
vn 0.270598 -0.270598 -0.923880
v -8.000000 -68.000000 -140.000000
vt 0.000000 0.375000
vn 0.000000 -0.382683 -0.923880
v -8.000000 -66.750000 -140.000000
vt 0.000000 0.365234
vn 0.000000 0.000000 -1.000000
v 3.116120 -72.883881 133.585190
vt 0.086845 -2.043634
vn 0.707107 -0.707107 -0.000000
v 3.116117 -72.883881 -133.585144
vt 0.086845 0.043634
vn 0.707107 -0.707107 -0.000000
v 0.883884 -75.116119 -131.352951
vt 0.069405 0.026195
vn 0.707107 -0.707107 -0.000000
v 4.000000 -72.000000 -136.000000
vt 0.093750 0.062500
vn 0.733657 -0.607781 -0.303891
v 4.000000 -72.000000 136.000000
vt 0.093750 -2.062500
vn 0.733657 -0.607781 0.303891
v 0.000000 -76.000000 132.000000
vt 0.062500 -2.031250
vn 0.270598 -0.923880 0.270598
v 0.883884 -75.116119 131.352936
vt 0.069405 -2.026195
vn 0.707107 -0.707107 -0.000000
v 0.000000 -76.000000 -132.000000
vt 0.062500 0.031250
vn 0.270598 -0.923880 -0.270598
v 0.883880 139.116119 131.352951
vt 0.069405 -2.026195
vn 0.707107 0.707107 -0.000000
v 3.116116 136.883881 -133.585190
vt 0.086845 0.043634
vn 0.707107 0.707107 -0.000000
v 3.116117 136.883881 133.585144
vt 0.086845 -2.043634
vn 0.707107 0.707107 -0.000000
v 0.000000 140.000000 132.000000
vt 0.062500 -2.031250
vn 0.270598 0.923880 0.270598
v 0.883884 139.116119 -131.352936
vt 0.069405 0.026195
vn 0.707107 0.707107 -0.000000
v 4.000000 136.000000 136.000000
vt 0.093750 -2.062500
vn 0.733657 0.607781 0.303891
v 4.000000 136.000000 -136.000000
vt 0.093750 0.062500
vn 0.733657 0.607781 -0.303891
v 0.000000 140.000000 -132.000000
vt 0.062500 0.031250
vn 0.270598 0.923880 -0.270598
v 0.883879 -67.352943 139.116119
vt 0.069405 0.119945
vn 0.707107 0.000000 0.707107
v 3.116116 133.585190 136.883881
vt 0.086845 -1.449884
vn 0.707107 0.000000 0.707107
v 3.116117 -69.585159 136.883881
vt 0.086845 0.137384
vn 0.707107 0.000000 0.707107
v 0.883884 131.352936 139.116119
vt 0.069405 -1.432445
vn 0.707107 0.000000 0.707107
v 0.000000 132.000000 140.000000
vt 0.062500 -1.437500
vn 0.270598 0.270598 0.923880
v 0.000000 -68.000000 140.000000
vt 0.062500 0.125000
vn 0.270598 -0.270598 0.923880
v 4.000000 -72.000000 136.000000
vt 0.093750 0.156250
vn 0.733657 -0.303891 0.607781
v 4.000000 136.000000 136.000000
vt 0.093750 -1.468750
vn 0.733657 0.303891 0.607781
v 3.116116 -69.585182 -136.883881
vt 0.086845 0.137384
vn 0.707107 0.000000 -0.707107
v 3.116117 133.585175 -136.883881
vt 0.086845 -1.449884
vn 0.707107 0.000000 -0.707107
v 0.883879 131.352951 -139.116119
vt 0.069405 -1.432445
vn 0.707107 0.000000 -0.707107
v 4.000000 136.000000 -136.000000
vt 0.093750 -1.468750
vn 0.863502 0.225550 -0.451100
v 4.000000 -72.000000 -136.000000
vt 0.093750 0.156250
vn 0.733657 -0.303891 -0.607781
v 0.000000 -68.000000 -140.000000
vt 0.062500 0.125000
vn 0.270598 -0.270598 -0.923880
v 0.883884 -67.352936 -139.116119
vt 0.069405 0.119945
vn 0.707107 0.000000 -0.707107
v 0.000000 132.000000 -140.000000
vt 0.062500 -1.437500
vn 0.270598 0.270598 -0.923880
v 0.000000 -68.000000 140.000000
vt 0.062500 0.906250
vn 0.000000 -0.707107 0.707107
v -0.647051 -75.116119 132.883881
vt 0.057445 0.961845
vn 0.000000 -0.707107 0.707107
v -8.000000 -75.116119 132.883881
vt 0.000000 0.961845
vn 0.000000 -0.707107 0.707107
v -8.000000 -68.000000 140.000000
vt 0.000000 0.906250
vn 0.000000 -0.707107 0.707107
v 0.000000 -76.000000 132.000000
vt 0.062500 0.968750
vn 0.270598 -0.923880 0.270598
v -8.000000 -76.000000 132.000000
vt 0.000000 0.968750
vn 0.000000 -0.923880 0.382683
v 4.000000 -72.000000 136.000000
vt 0.093750 0.937500
vn 0.577350 -0.577350 0.577350
v 3.234534 -71.234535 136.765472
vt 0.087770 0.931520
vn 0.000000 -0.707107 0.707107
v 0.000000 132.000000 -140.000000
vt 0.062500 0.906250
vn 0.000000 0.707107 -0.707107
v -0.647055 139.116119 -132.883881
vt 0.057445 0.961845
vn 0.000000 0.707107 -0.707107
v -8.000000 139.116119 -132.883881
vt 0.000000 0.961845
vn 0.000000 0.707107 -0.707107
v -8.000000 132.000000 -140.000000
vt 0.000000 0.906250
vn 0.000000 0.707107 -0.707107
v 0.000000 140.000000 -132.000000
vt 0.062500 0.968750
vn 0.270598 0.923880 -0.270598
v -8.000000 140.000000 -132.000000
vt 0.000000 0.968750
vn 0.000000 0.923880 -0.382683
v 4.000000 136.000000 -136.000000
vt 0.093750 0.937500
vn 0.770076 0.451100 -0.451100
v 3.234532 135.234528 -136.765472
vt 0.087770 0.931520
vn 0.000000 0.707107 -0.707107
v -8.000000 -68.000000 -140.000000
vt 0.000000 0.906250
vn 0.000000 -0.707107 -0.707107
v -0.647052 -75.116119 -132.883881
vt 0.057445 0.961845
vn 0.000000 -0.707107 -0.707107
v 3.234535 -71.234535 -136.765472
vt 0.087770 0.931520
vn 0.000000 -0.707107 -0.707107
v 0.000000 -68.000000 -140.000000
vt 0.062500 0.906250
vn 0.000000 -0.707107 -0.707107
v 0.000000 -76.000000 -132.000000
vt 0.062500 0.968750
vn 0.270598 -0.923880 -0.270598
v 4.000000 -72.000000 -136.000000
vt 0.093750 0.937500
vn 0.577350 -0.577350 -0.577350
v -8.000000 -76.000000 -132.000000
vt 0.000000 0.968750
vn 0.000000 -0.923880 -0.382683
v -8.000000 -75.116119 -132.883881
vt 0.000000 0.961845
vn 0.000000 -0.707107 -0.707107
v -8.000000 132.883881 139.116119
vt 0.000000 0.913155
vn 0.000000 0.707107 0.707107
v -0.647056 139.116119 132.883881
vt 0.057445 0.961845
vn 0.000000 0.707107 0.707107
v 2.469064 136.000000 136.000000
vt 0.081790 0.937500
vn 0.000000 0.707107 0.707107
v -0.647055 132.883881 139.116119
vt 0.057445 0.913155
vn 0.000000 0.707107 0.707107
v 0.000000 132.000000 140.000000
vt 0.062500 0.906250
vn 0.270598 0.270598 0.923880
v -8.000000 132.000000 140.000000
vt 0.000000 0.906250
vn 0.000000 0.382683 0.923880
v 4.000000 136.000000 136.000000
vt 0.093750 0.937500
vn 0.577350 0.577350 0.577350
v 0.000000 140.000000 132.000000
vt 0.062500 0.968750
vn 0.270598 0.923880 0.270598
v -8.000000 140.000000 132.000000
vt 0.000000 0.968750
vn 0.000000 0.923880 0.382683
v -8.000000 139.116119 132.883881
vt 0.000000 0.961845
vn 0.000000 0.707107 0.707107
f 112/112/112 114/114/114 113/113/113
f 112/112/112 115/115/115 114/114/114
f 118/118/118 114/114/114 119/119/119
f 118/118/118 113/113/113 114/114/114
f 116/116/116 112/112/112 117/117/117
f 116/116/116 115/115/115 112/112/112
f 123/123/123 124/124/124 122/122/122
f 123/123/123 125/125/125 124/124/124
f 120/120/120 122/122/122 121/121/121
f 120/120/120 123/123/123 122/122/122
f 130/130/130 129/129/129 131/131/131
f 130/130/130 128/128/128 129/129/129
f 126/126/126 128/128/128 127/127/127
f 126/126/126 129/129/129 128/128/128
f 132/132/132 134/134/134 133/133/133
f 132/132/132 135/135/135 134/134/134
f 144/144/144 134/134/134 145/145/145
f 144/144/144 133/133/133 134/134/134
f 136/136/136 138/138/138 137/137/137
f 142/142/142 137/137/137 141/141/141
f 142/142/142 136/136/136 137/137/137
f 137/137/137 139/139/139 140/140/140
f 137/137/137 138/138/138 139/139/139
f 141/141/141 140/140/140 143/143/143
f 141/141/141 137/137/137 140/140/140
f 163/163/163 165/165/165 164/164/164
f 163/163/163 166/166/166 165/165/165
f 167/167/167 166/166/166 170/170/170
f 167/167/167 165/165/165 166/166/166
f 158/158/158 160/160/160 159/159/159
f 158/158/158 161/161/161 160/160/160
f 171/171/171 161/161/161 168/168/168
f 171/171/171 160/160/160 161/161/161
f 158/158/158 162/162/162 161/161/161
f 168/168/168 162/162/162 169/169/169
f 168/168/168 161/161/161 162/162/162
f 182/182/182 183/183/183 189/189/189
f 182/182/182 184/184/184 183/183/183
f 185/185/185 184/184/184 186/186/186
f 185/185/185 183/183/183 184/184/184
f 187/187/187 189/189/189 188/188/188
f 187/187/187 182/182/182 189/189/189
f 146/146/146 147/147/147 151/151/151
f 146/146/146 148/148/148 147/147/147
f 149/149/149 148/148/148 150/150/150
f 149/149/149 147/147/147 148/148/148
f 172/172/172 173/173/173 181/181/181
f 172/172/172 174/174/174 173/173/173
f 152/152/152 154/154/154 153/153/153
f 152/152/152 155/155/155 154/154/154
f 156/156/156 154/154/154 157/157/157
f 156/156/156 153/153/153 154/154/154
f 175/175/175 174/174/174 172/172/172
f 175/175/175 176/176/176 174/174/174
f 177/177/177 179/179/179 178/178/178
f 177/177/177 180/180/180 179/179/179
f 222/222/222 224/224/224 223/223/223
f 222/222/222 228/228/228 224/224/224
f 227/227/227 222/222/222 226/226/226
f 227/227/227 228/228/228 222/222/222
f 225/225/225 224/224/224 229/229/229
f 225/225/225 223/223/223 224/224/224
f 229/229/229 228/228/228 227/227/227
f 229/229/229 224/224/224 228/228/228
f 226/226/226 223/223/223 225/225/225
f 226/226/226 222/222/222 223/223/223
f 270/270/270 271/271/271 277/277/277
f 270/270/270 272/272/272 271/271/271
f 270/270/270 273/273/273 272/272/272
f 274/274/274 272/272/272 275/275/275
f 274/274/274 271/271/271 272/272/272
f 276/276/276 271/271/271 274/274/274
f 276/276/276 277/277/277 271/271/271
f 254/254/254 255/255/255 261/261/261
f 254/254/254 256/256/256 255/255/255
f 254/254/254 257/257/257 256/256/256
f 260/260/260 255/255/255 258/258/258
f 260/260/260 261/261/261 255/255/255
f 258/258/258 256/256/256 259/259/259
f 258/258/258 255/255/255 256/256/256
f 238/238/238 239/239/239 241/241/241
f 238/238/238 240/240/240 239/239/239
f 243/243/243 241/241/241 242/242/242
f 243/243/243 238/238/238 241/241/241
f 245/245/245 240/240/240 244/244/244
f 245/245/245 239/239/239 240/240/240
f 242/242/242 239/239/239 245/245/245
f 242/242/242 241/241/241 239/239/239
f 244/244/244 238/238/238 243/243/243
f 244/244/244 240/240/240 238/238/238
f 246/246/246 248/248/248 247/247/247
f 246/246/246 252/252/252 248/248/248
f 253/253/253 252/252/252 251/251/251
f 253/253/253 248/248/248 252/252/252
f 250/250/250 247/247/247 249/249/249
f 250/250/250 246/246/246 247/247/247
f 249/249/249 248/248/248 253/253/253
f 249/249/249 247/247/247 248/248/248
f 251/251/251 246/246/246 250/250/250
f 251/251/251 252/252/252 246/246/246
f 278/278/278 279/279/279 287/287/287
f 278/278/278 280/280/280 279/279/279
f 278/278/278 281/281/281 280/280/280
f 284/284/284 281/281/281 282/282/282
f 284/284/284 280/280/280 281/281/281
f 282/282/282 278/278/278 283/283/283
f 282/282/282 281/281/281 278/278/278
f 285/285/285 280/280/280 284/284/284
f 285/285/285 279/279/279 280/280/280
f 286/286/286 279/279/279 285/285/285
f 286/286/286 287/287/287 279/279/279
f 262/262/262 263/263/263 269/269/269
f 262/262/262 264/264/264 263/263/263
f 262/262/262 265/265/265 264/264/264
f 268/268/268 263/263/263 266/266/266
f 268/268/268 269/269/269 263/263/263
f 266/266/266 264/264/264 267/267/267
f 266/266/266 263/263/263 264/264/264
f 230/230/230 231/231/231 234/234/234
f 230/230/230 232/232/232 231/231/231
f 237/237/237 231/231/231 236/236/236
f 237/237/237 234/234/234 231/231/231
f 235/235/235 230/230/230 233/233/233
f 235/235/235 232/232/232 230/230/230
f 233/233/233 234/234/234 237/237/237
f 233/233/233 230/230/230 234/234/234
f 236/236/236 232/232/232 235/235/235
f 236/236/236 231/231/231 232/232/232
f 190/190/190 192/192/192 191/191/191
f 190/190/190 193/193/193 192/192/192
f 197/197/197 191/191/191 196/196/196
f 197/197/197 190/190/190 191/191/191
f 194/194/194 193/193/193 195/195/195
f 194/194/194 192/192/192 193/193/193
f 196/196/196 192/192/192 194/194/194
f 196/196/196 191/191/191 192/192/192
f 214/214/214 216/216/216 215/215/215
f 214/214/214 221/221/221 216/216/216
f 219/219/219 215/215/215 217/217/217
f 219/219/219 214/214/214 215/215/215
f 217/217/217 216/216/216 218/218/218
f 217/217/217 215/215/215 216/216/216
f 220/220/220 214/214/214 219/219/219
f 220/220/220 221/221/221 214/214/214
f 206/206/206 207/207/207 213/213/213
f 206/206/206 208/208/208 207/207/207
f 211/211/211 208/208/208 209/209/209
f 211/211/211 207/207/207 208/208/208
f 212/212/212 207/207/207 211/211/211
f 212/212/212 213/213/213 207/207/207
f 209/209/209 206/206/206 210/210/210
f 209/209/209 208/208/208 206/206/206
f 198/198/198 199/199/199 201/201/201
f 198/198/198 200/200/200 199/199/199
f 204/204/204 198/198/198 202/202/202
f 204/204/204 200/200/200 198/198/198
f 205/205/205 200/200/200 204/204/204
f 205/205/205 199/199/199 200/200/200
f 202/202/202 201/201/201 203/203/203
f 202/202/202 198/198/198 201/201/201
