# Generated by makebsp -bsp2obj
# Source: C:/Users/German/Documents/My Games/Warfork 2.1/basewf/models/mapobjects/wsw_adverts/source/advertframe_standard
# Axis swap: Q3 Z-up -> OBJ Y-up (X=X, Y=Z, Z=-Y)
o advertframe_standard
mtllib advertframe_standard.mtl
g mat0m0s2
usemtl textures/wsw_city1/cables2
v -3.000000 -180.000000 80.000000
vt 0.000000 0.000000
vn 1.000000 0.000000 -0.000000
v -3.000000 -82.375000 80.000000
vt 0.000000 0.938702
vn 1.000000 0.000000 -0.000000
v -3.000000 -76.000000 72.000000
vt 0.051282 1.000000
vn 1.000000 0.000000 -0.000000
v -3.000000 -76.000000 -72.000000
vt 0.974359 1.000000
vn 1.000000 0.000000 -0.000000
v -3.000000 -82.375000 -76.000000
vt 1.000000 0.938702
vn 1.000000 0.000000 -0.000000
v -3.000000 -180.000000 -76.000000
vt 1.000000 0.000000
vn 1.000000 0.000000 -0.000000
f 6/6/6 5/5/5 1/1/1
f 5/5/5 2/2/2 1/1/1
f 5/5/5 4/4/4 2/2/2
f 4/4/4 3/3/3 2/2/2
g mat1m0s3
usemtl textures/plastic/grey35
v -4.500000 148.500000 153.000000
vt 0.054688 1.007812
vn 0.707107 0.707107 -0.000000
v -4.000000 147.000000 -7.000000
vt 0.093750 1.015625
vn 1.000000 0.000000 -0.000000
v -4.000000 147.000000 153.000000
vt 0.093750 1.007812
vn 1.000000 0.000000 -0.000000
v -4.500000 148.500000 -7.000000
vt 0.054688 1.015625
vn 0.707107 0.707107 -0.000000
v -4.500000 147.125000 157.125000
vt 0.054688 1.005859
vn 0.816497 0.408248 0.408248
v -4.000000 146.000000 156.000000
vt 0.093750 1.005859
vn 1.000000 0.000000 -0.000000
v -4.000000 146.000000 -10.000000
vt 0.093750 1.023438
vn 1.000000 0.000000 -0.000000
v -4.500000 147.125000 -11.125000
vt 0.054688 1.023438
vn 0.816497 0.408248 -0.408248
v -4.500000 143.000000 158.500000
vt 0.054688 1.003906
vn 0.707107 0.000000 0.707107
v -4.000000 143.000000 157.000000
vt 0.093750 1.003906
vn 1.000000 0.000000 -0.000000
v -4.500000 139.000000 158.500000
vt 0.054688 1.000000
vn 0.707107 0.000000 0.707107
v -4.000000 139.000000 157.000000
vt 0.093750 1.000000
vn 1.000000 0.000000 -0.000000
v -4.500000 145.500000 -7.000000
vt 0.132812 1.015625
vn 0.707107 -0.707107 -0.000000
v -4.500000 145.500000 153.000000
vt 0.132812 1.007812
vn 0.707107 -0.707107 -0.000000
v -4.500000 144.875000 -8.875000
vt 0.132812 1.023438
vn 0.816497 -0.408248 0.408248
v -4.500000 144.875000 154.875000
vt 0.132812 1.005859
vn 0.816497 -0.408248 -0.408248
v -4.500000 143.000000 155.500000
vt 0.132812 1.003906
vn 0.707107 0.000000 -0.707107
v -4.500000 139.000000 155.500000
vt 0.132812 1.000000
vn 0.707107 0.000000 -0.707107
v -4.500000 143.000000 -9.500000
vt 0.132812 1.031250
vn 0.707107 0.000000 0.707107
v -4.000000 143.000000 -11.000000
vt 0.093750 1.031250
vn 1.000000 0.000000 -0.000000
v -4.500000 139.000000 -9.500000
vt 0.132812 1.062500
vn 0.707107 0.000000 0.707107
v -4.000000 139.000000 -11.000000
vt 0.093750 1.062500
vn 1.000000 0.000000 -0.000000
v -4.500000 143.000000 -12.500000
vt 0.054688 1.031250
vn 0.707107 0.000000 -0.707107
v -4.500000 139.000000 -12.500000
vt 0.054688 1.062500
vn 0.707107 0.000000 -0.707107
v -6.000000 145.000000 -7.000000
vt 0.187500 1.015625
vn 0.000000 -1.000000 -0.000000
v -6.000000 145.000000 153.000000
vt 0.187500 1.007812
vn 0.000000 -1.000000 -0.000000
v -6.000000 149.000000 153.000000
vt 0.000000 1.007812
vn 0.000000 1.000000 -0.000000
v -4.500000 148.500000 -7.000000
vt 0.054688 1.015625
vn 0.707107 0.707107 -0.000000
v -4.500000 148.500000 153.000000
vt 0.054688 1.007812
vn 0.707107 0.707107 -0.000000
v -6.000000 149.000000 -7.000000
vt 0.000000 1.015625
vn 0.000000 1.000000 -0.000000
v -4.500000 147.125000 -11.125000
vt 0.054688 1.023438
vn 0.816497 0.408248 -0.408248
v -6.000000 147.500000 -11.500000
vt 0.000000 1.023438
vn 0.000000 0.707107 -0.707107
v -6.000000 147.500000 157.500000
vt 0.000000 1.005859
vn 0.000000 0.707107 0.707107
v -4.500000 147.125000 157.125000
vt 0.054688 1.005859
vn 0.816497 0.408248 0.408248
v -6.000000 143.000000 159.000000
vt 0.000000 1.003906
vn 0.000000 0.000000 1.000000
v -4.500000 147.125000 157.125000
vt 0.054688 1.005859
vn 0.816497 0.408248 0.408248
v -4.500000 143.000000 158.500000
vt 0.054688 1.003906
vn 0.707107 0.000000 0.707107
v -6.000000 147.500000 157.500000
vt 0.000000 1.005859
vn 0.000000 0.707107 0.707107
v -6.000000 139.000000 159.000000
vt 0.000000 1.000000
vn 0.000000 0.000000 1.000000
v -4.500000 139.000000 158.500000
vt 0.054688 1.000000
vn 0.707107 0.000000 0.707107
v -6.000000 143.000000 -13.000000
vt 0.000000 1.031250
vn 0.000000 0.000000 -1.000000
v -4.500000 139.000000 -12.500000
vt 0.054688 1.062500
vn 0.707107 0.000000 -0.707107
v -4.500000 143.000000 -12.500000
vt 0.054688 1.031250
vn 0.707107 0.000000 -0.707107
v -6.000000 139.000000 -13.000000
vt 0.000000 1.062500
vn 0.000000 0.000000 -1.000000
v -6.000000 147.500000 -11.500000
vt 0.000000 1.023438
vn 0.000000 0.707107 -0.707107
v -4.500000 147.125000 -11.125000
vt 0.054688 1.023438
vn 0.816497 0.408248 -0.408248
v -4.500000 139.000000 155.500000
vt 0.132812 1.000000
vn 0.707107 0.000000 -0.707107
v -4.500000 143.000000 155.500000
vt 0.132812 1.003906
vn 0.707107 0.000000 -0.707107
v -6.000000 143.000000 155.000000
vt 0.187500 1.003906
vn 0.000000 0.000000 -1.000000
v -6.000000 139.000000 155.000000
vt 0.187500 1.000000
vn 0.000000 0.000000 -1.000000
v -6.000000 144.500000 154.500000
vt 0.187500 1.005859
vn 0.000000 -0.707107 -0.707107
v -4.500000 144.875000 154.875000
vt 0.132812 1.005859
vn 0.816497 -0.408248 -0.408248
v -6.000000 145.000000 153.000000
vt 0.187500 1.007812
vn 0.000000 -1.000000 -0.000000
v -4.500000 145.500000 153.000000
vt 0.132812 1.007812
vn 0.707107 -0.707107 -0.000000
v -4.500000 143.000000 -9.500000
vt 0.132812 1.031250
vn 0.707107 0.000000 0.707107
v -6.000000 139.000000 -9.000000
vt 0.187500 1.062500
vn 0.000000 0.000000 1.000000
v -6.000000 143.000000 -9.000000
vt 0.187500 1.031250
vn 0.000000 0.000000 1.000000
v -4.500000 139.000000 -9.500000
vt 0.132812 1.062500
vn 0.707107 0.000000 0.707107
v -4.500000 144.875000 -8.875000
vt 0.132812 1.023438
vn 0.816497 -0.408248 0.408248
v -6.000000 144.500000 -8.500000
vt 0.187500 1.023438
vn 0.000000 -0.707107 0.707107
v -4.500000 145.500000 -7.000000
vt 0.132812 1.015625
vn 0.707107 -0.707107 -0.000000
v -6.000000 145.000000 -7.000000
vt 0.187500 1.015625
vn 0.000000 -1.000000 -0.000000
f 45/45/45 43/43/43 41/41/41
f 45/45/45 46/46/46 43/43/43
f 17/17/17 16/16/16 15/15/15
f 17/17/17 18/18/18 16/16/16
f 18/18/18 23/23/23 16/16/16
f 18/18/18 24/24/24 23/23/23
f 53/53/53 55/55/55 54/54/54
f 53/53/53 56/56/56 55/55/55
f 41/41/41 42/42/42 44/44/44
f 41/41/41 43/43/43 42/42/42
f 15/15/15 12/12/12 11/11/11
f 15/15/15 16/16/16 12/12/12
f 16/16/16 22/22/22 12/12/12
f 16/16/16 23/23/23 22/22/22
f 54/54/54 57/57/57 58/58/58
f 54/54/54 55/55/55 57/57/57
f 39/39/39 35/35/35 33/33/33
f 39/39/39 40/40/40 35/35/35
f 11/11/11 9/9/9 7/7/7
f 11/11/11 12/12/12 9/9/9
f 12/12/12 20/20/20 9/9/9
f 12/12/12 22/22/22 20/20/20
f 58/58/58 59/59/59 60/60/60
f 58/58/58 57/57/57 59/59/59
f 33/33/33 34/34/34 36/36/36
f 33/33/33 35/35/35 34/34/34
f 7/7/7 8/8/8 10/10/10
f 7/7/7 9/9/9 8/8/8
f 9/9/9 19/19/19 8/8/8
f 9/9/9 20/20/20 19/19/19
f 20/20/20 31/31/31 19/19/19
f 20/20/20 32/32/32 31/31/31
f 36/36/36 37/37/37 38/38/38
f 36/36/36 34/34/34 37/37/37
f 10/10/10 13/13/13 14/14/14
f 10/10/10 8/8/8 13/13/13
f 8/8/8 21/21/21 13/13/13
f 8/8/8 19/19/19 21/21/21
f 67/67/67 66/66/66 65/65/65
f 67/67/67 68/68/68 66/66/66
f 51/51/51 49/49/49 47/47/47
f 51/51/51 52/52/52 49/49/49
f 14/14/14 26/26/26 29/29/29
f 14/14/14 13/13/13 26/26/26
f 13/13/13 25/25/25 26/26/26
f 13/13/13 21/21/21 25/25/25
f 65/65/65 63/63/63 61/61/61
f 65/65/65 66/66/66 63/63/63
f 47/47/47 48/48/48 50/50/50
f 47/47/47 49/49/49 48/48/48
f 29/29/29 28/28/28 30/30/30
f 29/29/29 26/26/26 28/28/28
f 26/26/26 27/27/27 28/28/28
f 26/26/26 25/25/25 27/27/27
f 61/61/61 62/62/62 64/64/64
f 61/61/61 63/63/63 62/62/62
g mat1m0s4
usemtl textures/plastic/grey35
v -4.500000 -85.500000 -162.000000
vt 0.034486 1.125000
vn 0.707107 -0.707107 -0.000000
v -4.000000 -84.000000 162.000000
vt 0.075444 6.187500
vn 1.000000 0.000000 -0.000000
v -4.000000 -84.000000 -162.000000
vt 0.075444 1.125000
vn 1.000000 0.000000 -0.000000
v -4.500000 -85.500000 162.000000
vt 0.034486 6.187500
vn 0.707107 -0.707107 -0.000000
v -4.500000 -84.125000 -166.125000
vt 0.034486 1.093750
vn 0.816497 -0.408248 -0.408248
v -4.000000 -83.000000 -165.000000
vt 0.075444 1.093750
vn 1.000000 0.000000 -0.000000
v -4.000000 -83.000000 165.000000
vt 0.075444 6.218750
vn 1.000000 0.000000 -0.000000
v -4.500000 -84.125000 166.125000
vt 0.034486 6.218750
vn 0.816497 -0.408248 0.408248
v -4.500000 -80.000000 -167.500000
vt 0.034486 1.062500
vn 0.707107 0.000000 -0.707107
v -4.000000 -80.000000 -166.000000
vt 0.075444 1.062500
vn 1.000000 0.000000 -0.000000
v -4.500000 -76.000000 -167.500000
vt 0.034486 1.000000
vn 0.707107 0.000000 -0.707107
v -4.000000 -76.000000 -166.000000
vt 0.075444 1.000000
vn 1.000000 0.000000 -0.000000
v -4.500000 -82.500000 162.000000
vt 0.116402 6.187500
vn 0.707107 0.707107 -0.000000
v -4.500000 -82.500000 -162.000000
vt 0.116402 1.125000
vn 0.707107 0.707107 -0.000000
v -4.500000 -81.875000 163.875000
vt 0.116402 6.218750
vn 0.816497 0.408248 -0.408248
v -4.500000 -81.875000 -163.875000
vt 0.116402 1.093750
vn 0.816497 0.408248 0.408248
v -4.500000 -80.000000 -164.500000
vt 0.116402 1.062500
vn 0.707107 0.000000 0.707107
v -4.500000 -76.000000 -164.500000
vt 0.116402 1.000000
vn 0.707107 0.000000 0.707107
v -4.500000 -80.000000 164.500000
vt 0.116402 6.250000
vn 0.707107 0.000000 -0.707107
v -4.000000 -80.000000 166.000000
vt 0.075444 6.250000
vn 1.000000 0.000000 -0.000000
v -4.500000 -76.000000 164.500000
vt 0.116402 6.312500
vn 0.707107 0.000000 -0.707107
v -4.000000 -76.000000 166.000000
vt 0.075444 6.312500
vn 1.000000 0.000000 -0.000000
v -4.500000 -80.000000 167.500000
vt 0.034486 6.250000
vn 0.707107 0.000000 0.707107
v -4.500000 -76.000000 167.500000
vt 0.034486 6.312500
vn 0.707107 0.000000 0.707107
v -6.000000 -82.000000 162.000000
vt 0.150888 6.187500
vn 0.000000 1.000000 -0.000000
v -6.000000 -82.000000 -162.000000
vt 0.150888 1.125000
vn 0.000000 1.000000 -0.000000
v -6.000000 -86.000000 -162.000000
vt 0.000000 1.125000
vn 0.000000 -1.000000 -0.000000
v -4.500000 -85.500000 162.000000
vt 0.034486 6.187500
vn 0.707107 -0.707107 -0.000000
v -4.500000 -85.500000 -162.000000
vt 0.034486 1.125000
vn 0.707107 -0.707107 -0.000000
v -6.000000 -86.000000 162.000000
vt 0.000000 6.187500
vn 0.000000 -1.000000 -0.000000
v -4.500000 -84.125000 166.125000
vt 0.034486 6.218750
vn 0.816497 -0.408248 0.408248
v -6.000000 -84.500000 166.500000
vt 0.000000 6.218750
vn 0.000000 -0.707107 0.707107
v -6.000000 -84.500000 -166.500000
vt 0.000000 1.093750
vn 0.000000 -0.707107 -0.707107
v -4.500000 -84.125000 -166.125000
vt 0.034486 1.093750
vn 0.816497 -0.408248 -0.408248
v -6.000000 -80.000000 -168.000000
vt 0.000000 1.062500
vn 0.000000 0.000000 -1.000000
v -4.500000 -84.125000 -166.125000
vt 0.034486 1.093750
vn 0.816497 -0.408248 -0.408248
v -4.500000 -80.000000 -167.500000
vt 0.034486 1.062500
vn 0.707107 0.000000 -0.707107
v -6.000000 -84.500000 -166.500000
vt 0.000000 1.093750
vn 0.000000 -0.707107 -0.707107
v -6.000000 -76.000000 -168.000000
vt 0.000000 1.000000
vn 0.000000 0.000000 -1.000000
v -4.500000 -76.000000 -167.500000
vt 0.034486 1.000000
vn 0.707107 0.000000 -0.707107
v -6.000000 -80.000000 168.000000
vt 0.000000 6.250000
vn 0.000000 0.000000 1.000000
v -4.500000 -76.000000 167.500000
vt 0.034486 6.312500
vn 0.707107 0.000000 0.707107
v -4.500000 -80.000000 167.500000
vt 0.034486 6.250000
vn 0.707107 0.000000 0.707107
v -6.000000 -76.000000 168.000000
vt 0.000000 6.312500
vn 0.000000 0.000000 1.000000
v -6.000000 -84.500000 166.500000
vt 0.000000 6.218750
vn 0.000000 -0.707107 0.707107
v -4.500000 -84.125000 166.125000
vt 0.034486 6.218750
vn 0.816497 -0.408248 0.408248
v -4.500000 -76.000000 -164.500000
vt 0.116402 1.000000
vn 0.707107 0.000000 0.707107
v -4.500000 -80.000000 -164.500000
vt 0.116402 1.062500
vn 0.707107 0.000000 0.707107
v -6.000000 -80.000000 -164.000000
vt 0.150888 1.062500
vn 0.000000 0.000000 1.000000
v -6.000000 -76.000000 -164.000000
vt 0.150888 1.000000
vn 0.000000 0.000000 1.000000
v -6.000000 -81.500000 -163.500000
vt 0.150888 1.093750
vn 0.000000 0.707107 0.707107
v -4.500000 -81.875000 -163.875000
vt 0.116402 1.093750
vn 0.816497 0.408248 0.408248
v -6.000000 -82.000000 -162.000000
vt 0.150888 1.125000
vn 0.000000 1.000000 -0.000000
v -4.500000 -82.500000 -162.000000
vt 0.116402 1.125000
vn 0.707107 0.707107 -0.000000
v -4.500000 -80.000000 164.500000
vt 0.116402 6.250000
vn 0.707107 0.000000 -0.707107
v -6.000000 -76.000000 164.000000
vt 0.150888 6.312500
vn 0.000000 0.000000 -1.000000
v -6.000000 -80.000000 164.000000
vt 0.150888 6.250000
vn 0.000000 0.000000 -1.000000
v -4.500000 -76.000000 164.500000
vt 0.116402 6.312500
vn 0.707107 0.000000 -0.707107
v -4.500000 -81.875000 163.875000
vt 0.116402 6.218750
vn 0.816497 0.408248 -0.408248
v -6.000000 -81.500000 163.500000
vt 0.150888 6.218750
vn 0.000000 0.707107 -0.707107
v -4.500000 -82.500000 162.000000
vt 0.116402 6.187500
vn 0.707107 0.707107 -0.000000
v -6.000000 -82.000000 162.000000
vt 0.150888 6.187500
vn 0.000000 1.000000 -0.000000
f 107/107/107 105/105/105 103/103/103
f 107/107/107 108/108/108 105/105/105
f 79/79/79 78/78/78 77/77/77
f 79/79/79 80/80/80 78/78/78
f 80/80/80 85/85/85 78/78/78
f 80/80/80 86/86/86 85/85/85
f 115/115/115 117/117/117 116/116/116
f 115/115/115 118/118/118 117/117/117
f 103/103/103 104/104/104 106/106/106
f 103/103/103 105/105/105 104/104/104
f 77/77/77 74/74/74 73/73/73
f 77/77/77 78/78/78 74/74/74
f 78/78/78 84/84/84 74/74/74
f 78/78/78 85/85/85 84/84/84
f 116/116/116 119/119/119 120/120/120
f 116/116/116 117/117/117 119/119/119
f 101/101/101 97/97/97 95/95/95
f 101/101/101 102/102/102 97/97/97
f 73/73/73 71/71/71 69/69/69
f 73/73/73 74/74/74 71/71/71
f 74/74/74 82/82/82 71/71/71
f 74/74/74 84/84/84 82/82/82
f 120/120/120 121/121/121 122/122/122
f 120/120/120 119/119/119 121/121/121
f 95/95/95 96/96/96 98/98/98
f 95/95/95 97/97/97 96/96/96
f 69/69/69 70/70/70 72/72/72
f 69/69/69 71/71/71 70/70/70
f 71/71/71 81/81/81 70/70/70
f 71/71/71 82/82/82 81/81/81
f 82/82/82 93/93/93 81/81/81
f 82/82/82 94/94/94 93/93/93
f 98/98/98 99/99/99 100/100/100
f 98/98/98 96/96/96 99/99/99
f 72/72/72 75/75/75 76/76/76
f 72/72/72 70/70/70 75/75/75
f 70/70/70 83/83/83 75/75/75
f 70/70/70 81/81/81 83/83/83
f 129/129/129 128/128/128 127/127/127
f 129/129/129 130/130/130 128/128/128
f 113/113/113 111/111/111 109/109/109
f 113/113/113 114/114/114 111/111/111
f 76/76/76 88/88/88 91/91/91
f 76/76/76 75/75/75 88/88/88
f 75/75/75 87/87/87 88/88/88
f 75/75/75 83/83/83 87/87/87
f 127/127/127 125/125/125 123/123/123
f 127/127/127 128/128/128 125/125/125
f 109/109/109 110/110/110 112/112/112
f 109/109/109 111/111/111 110/110/110
f 91/91/91 90/90/90 92/92/92
f 91/91/91 88/88/88 90/90/90
f 88/88/88 89/89/89 90/90/90
f 88/88/88 87/87/87 89/89/89
f 123/123/123 124/124/124 126/126/126
f 123/123/123 125/125/125 124/124/124
g mat2m0s5
usemtl textures/plastic/grey65
v 4.000000 -64.000000 192.000000
vt 0.093750 0.343750
vn 0.577350 0.577350 -0.577350
v 4.000000 128.000000 192.000000
vt 0.093750 -1.156250
vn 0.577350 -0.577350 -0.577350
v 2.750000 128.000000 192.000000
vt 0.083984 -1.156250
vn 0.000000 0.000000 -1.000000
v 2.750000 -64.000000 192.000000
vt 0.083984 0.343750
vn 0.000000 0.000000 -1.000000
v -8.000000 -64.000000 192.000000
vt 0.000000 0.343750
vn 0.000000 0.000000 -1.000000
v -8.000000 128.000000 192.000000
vt 0.000000 -1.156250
vn 0.000000 0.000000 -1.000000
v 4.000000 128.000000 192.000000
vt 0.093750 -2.000000
vn 0.577350 -0.577350 -0.577350
v 2.750000 128.000000 -192.000000
vt 0.083984 1.000000
vn 0.000000 -1.000000 -0.000000
v 2.750000 128.000000 192.000000
vt 0.083984 -2.000000
vn 0.000000 -1.000000 -0.000000
v -8.000000 128.000000 192.000000
vt 0.000000 -2.000000
vn 0.000000 -1.000000 -0.000000
v -8.000000 128.000000 -192.000000
vt 0.000000 1.000000
vn 0.000000 -1.000000 -0.000000
v 4.000000 128.000000 -192.000000
vt 0.093750 1.000000
vn 0.577350 -0.577350 0.577350
v 4.000000 -64.000000 -192.000000
vt 0.093750 1.000000
vn 0.577350 0.577350 0.577350
v 4.000000 -64.000000 192.000000
vt 0.093750 -2.000000
vn 0.577350 0.577350 -0.577350
v 2.750000 -64.000000 192.000000
vt 0.083984 -2.000000
vn 0.000000 1.000000 -0.000000
v 2.750000 -64.000000 -192.000000
vt 0.083984 1.000000
vn 0.000000 1.000000 -0.000000
v -8.000000 -64.000000 192.000000
vt 0.000000 -2.000000
vn 0.000000 1.000000 -0.000000
v -8.000000 -64.000000 -192.000000
vt 0.000000 1.000000
vn 0.000000 1.000000 -0.000000
v 4.000000 128.000000 -192.000000
vt 0.093750 -1.156250
vn 0.577350 -0.577350 0.577350
v 4.000000 -64.000000 -192.000000
vt 0.093750 0.343750
vn 0.577350 0.577350 0.577350
v 2.750000 -64.000000 -192.000000
vt 0.083984 0.343750
vn 0.000000 0.000000 1.000000
v 2.750000 128.000000 -192.000000
vt 0.083984 -1.156250
vn 0.000000 0.000000 1.000000
v -8.000000 -64.000000 -192.000000
vt 0.000000 0.343750
vn 0.000000 0.000000 1.000000
v -8.000000 128.000000 -192.000000
vt 0.000000 -1.156250
vn 0.000000 0.000000 1.000000
v 4.000000 -64.000000 192.000000
vt 0.593750 0.000000
vn 0.707107 0.707107 -0.000000
v 4.000000 -64.000000 -192.000000
vt 0.593750 -3.000000
vn 0.707107 0.707107 -0.000000
v 4.000000 -65.250000 -193.250000
vt 0.603516 -3.009766
vn 1.000000 0.000000 -0.000000
v 4.000000 -64.000000 -192.000000
vt 1.593750 0.000000
vn 0.707107 0.000000 0.707107
v 4.000000 128.000000 -192.000000
vt 0.093750 0.000000
vn 0.707107 0.000000 0.707107
v 4.000000 129.250000 -193.250000
vt 0.083984 0.009766
vn 1.000000 0.000000 -0.000000
v 4.000000 -65.250000 193.250000
vt 0.603516 0.009766
vn 1.000000 0.000000 -0.000000
v 4.000000 -70.750000 -198.750000
vt 0.646484 -3.052734
vn 1.000000 0.000000 -0.000000
v 4.000000 -70.750000 -112.000000
vt 0.646484 -2.375000
vn 1.000000 0.000000 -0.000000
v 4.000000 -70.750000 -72.000000
vt 0.646484 -2.062500
vn 1.000000 0.000000 -0.000000
v 4.000000 -70.750000 72.000000
vt 0.646484 -0.937500
vn 1.000000 0.000000 -0.000000
v 4.000000 -70.750000 112.000000
vt 0.646484 -0.625000
vn 1.000000 0.000000 -0.000000
v 4.000000 -70.750000 198.750000
vt 0.646484 0.052734
vn 1.000000 0.000000 -0.000000
v 4.000000 -70.750000 198.750000
vt 1.646484 0.052734
vn 1.000000 0.000000 -0.000000
v 4.000000 129.250000 193.250000
vt 0.083984 0.009766
vn 1.000000 0.000000 -0.000000
v 4.000000 -65.250000 193.250000
vt 1.603516 0.009766
vn 1.000000 0.000000 -0.000000
v 4.000000 128.000000 192.000000
vt 0.093750 0.000000
vn 0.707107 0.000000 -0.707107
v 4.000000 -64.000000 192.000000
vt 1.593750 0.000000
vn 0.707107 0.000000 -0.707107
v 4.000000 134.750000 198.750000
vt 0.041016 0.052734
vn 1.000000 0.000000 -0.000000
v 4.000000 -72.000000 200.000000
vt 1.656250 0.062500
vn 0.923880 0.000000 0.382683
v 4.000000 -72.000000 112.000000
vt 0.656250 -0.625000
vn 0.862856 -0.505449 -0.000000
v 4.000000 -72.000000 200.000000
vt 0.656250 0.062500
vn 0.923880 -0.382683 -0.000000
v 4.000000 136.000000 200.000000
vt 0.031250 0.062500
vn 0.923880 0.000000 0.382683
v 4.000000 -72.000000 72.000000
vt 0.656250 -0.937500
vn 0.862856 -0.505449 -0.000000
v 4.000000 -72.000000 -72.000000
vt 0.656250 -2.062500
vn 0.862856 -0.505449 -0.000000
v 4.000000 -72.000000 -112.000000
vt 0.656250 -2.375000
vn 0.862856 -0.505449 -0.000000
v 4.000000 -72.000000 -200.000000
vt 0.656250 -3.062500
vn 0.923880 -0.382683 -0.000000
v 4.000000 136.000000 -200.000000
vt 0.031250 0.062500
vn 0.923880 0.000000 -0.382683
v 4.000000 -72.000000 -200.000000
vt 1.656250 0.062500
vn 0.923880 0.000000 -0.382683
v 4.000000 -70.750000 -198.750000
vt 1.646484 0.052734
vn 1.000000 0.000000 -0.000000
v 4.000000 134.750000 -198.750000
vt 0.041016 0.052734
vn 1.000000 0.000000 -0.000000
v 4.000000 -65.250000 -193.250000
vt 1.603516 0.009766
vn 1.000000 0.000000 -0.000000
v 4.000000 136.000000 200.000000
vt 0.031250 0.062500
vn 1.000000 0.000000 -0.000000
v 4.000000 136.000000 -200.000000
vt 0.031250 -3.062500
vn 1.000000 0.000000 -0.000000
v 4.000000 128.000000 -192.000000
vt 0.093750 -3.000000
vn 1.000000 0.000000 -0.000000
v 4.000000 128.000000 192.000000
vt 0.093750 0.000000
vn 1.000000 0.000000 -0.000000
v -1.250000 140.000000 194.750000
vt 0.302734 0.021484
vn 0.000000 1.000000 -0.000000
v -8.000000 140.000000 -194.750000
vt 0.250000 -3.021484
vn 0.000000 1.000000 -0.000000
v -1.250000 140.000000 -194.750000
vt 0.302734 -3.021484
vn 0.000000 1.000000 -0.000000
v -8.000000 140.000000 194.750000
vt 0.250000 0.021484
vn 0.000000 1.000000 -0.000000
v 0.000000 140.000000 196.000000
vt 0.312500 0.031250
vn 0.270598 0.923880 0.270598
v -8.000000 140.000000 196.000000
vt 0.250000 0.031250
vn 0.000000 0.923880 0.382683
v 0.000000 140.000000 -196.000000
vt 0.312500 -3.031250
vn 0.270598 0.923880 -0.270598
v -8.000000 140.000000 -196.000000
vt 0.250000 -3.031250
vn 0.000000 0.923880 -0.382683
v -1.250000 -76.000000 72.000000
vt 0.052734 0.062500
vn 0.000000 -1.000000 -0.000000
v -8.000000 -76.000000 -72.000000
vt 0.000000 -1.062500
vn 0.000000 -1.000000 -0.000000
v -8.000000 -76.000000 112.000000
vt 0.000000 0.375000
vn 0.000000 -1.000000 -0.000000
v -1.250000 -76.000000 -72.000000
vt 0.052734 -1.062500
vn 0.000000 -1.000000 -0.000000
v -1.250000 -76.000000 -72.000000
vt 0.052734 0.937500
vn 0.000000 -1.000000 -0.000000
v -1.250000 -76.000000 -112.000000
vt 0.052734 0.625000
vn 0.000000 -1.000000 -0.000000
v -8.000000 -76.000000 -72.000000
vt 0.000000 0.937500
vn 0.000000 -1.000000 -0.000000
v -8.000000 -76.000000 -194.750000
vt 0.000000 -0.021484
vn 0.000000 -1.000000 -0.000000
v -1.250000 -76.000000 -194.750000
vt 0.052734 -0.021484
vn 0.000000 -1.000000 -0.000000
v 0.000000 -76.000000 -196.000000
vt 0.062500 -0.031250
vn 0.270598 -0.923880 -0.270598
v -8.000000 -76.000000 -196.000000
vt 0.000000 -0.031250
vn 0.000000 -0.923880 -0.382683
v 0.000000 -76.000000 -112.000000
vt 0.062500 0.625000
vn 0.382683 -0.923880 -0.000000
v 0.000000 -76.000000 -72.000000
vt 0.062500 0.937500
vn 0.382683 -0.923880 -0.000000
v 0.000000 -76.000000 72.000000
vt 0.062500 0.062500
vn 0.382683 -0.923880 -0.000000
v 0.000000 -76.000000 -72.000000
vt 0.062500 -1.062500
vn 0.382683 -0.923880 -0.000000
v 0.000000 -76.000000 112.000000
vt 0.062500 0.375000
vn 0.382683 -0.923880 -0.000000
v -1.250000 -76.000000 112.000000
vt 0.052734 0.375000
vn 0.000000 -1.000000 -0.000000
v 0.000000 -76.000000 196.000000
vt 0.062500 0.031250
vn 0.270598 -0.923880 0.270598
v 0.000000 -76.000000 112.000000
vt 0.062500 -0.625000
vn 0.382683 -0.923880 -0.000000
v -1.250000 -76.000000 112.000000
vt 0.052734 -0.625000
vn 0.000000 -1.000000 -0.000000
v -1.250000 -76.000000 194.750000
vt 0.052734 0.021484
vn 0.000000 -1.000000 -0.000000
v -8.000000 -76.000000 196.000000
vt 0.000000 0.031250
vn 0.000000 -0.923880 0.382683
v -8.000000 -76.000000 194.750000
vt 0.000000 0.021484
vn 0.000000 -1.000000 -0.000000
v -8.000000 -76.000000 112.000000
vt 0.000000 -0.625000
vn 0.000000 -1.000000 -0.000000
v 0.883880 139.116119 195.352951
vt 0.069405 -3.026195
vn 0.707107 0.707107 -0.000000
v 3.116116 136.883881 -197.585190
vt 0.086845 0.043634
vn 0.707107 0.707107 -0.000000
v 3.116117 136.883881 197.585175
vt 0.086845 -3.043634
vn 0.707107 0.707107 -0.000000
v 4.000000 136.000000 200.000000
vt 0.093750 -3.062500
vn 0.733657 0.607781 0.303891
v 4.000000 136.000000 -200.000000
vt 0.093750 0.062500
vn 0.733657 0.607781 -0.303891
v 0.000000 140.000000 -196.000000
vt 0.062500 0.031250
vn 0.270598 0.923880 -0.270598
v 0.883884 139.116119 -195.352905
vt 0.069405 0.026195
vn 0.707107 0.707107 -0.000000
v 0.000000 140.000000 196.000000
vt 0.062500 -3.031250
vn 0.270598 0.923880 0.270598
v -1.250000 -66.750000 -204.000000
vt 0.052734 0.365234
vn 0.000000 0.000000 -1.000000
v -1.250000 130.750000 -204.000000
vt 0.052734 -1.177734
vn 0.000000 0.000000 -1.000000
v -8.000000 130.750000 -204.000000
vt 0.000000 -1.177734
vn 0.000000 0.000000 -1.000000
v 0.000000 132.000000 -204.000000
vt 0.062500 -1.187500
vn 0.270598 0.270598 -0.923880
v -8.000000 132.000000 -204.000000
vt 0.000000 -1.187500
vn 0.000000 0.382683 -0.923880
v 0.000000 -68.000000 -204.000000
vt 0.062500 0.375000
vn 0.270598 -0.270598 -0.923880
v -8.000000 -68.000000 -204.000000
vt 0.000000 0.375000
vn 0.000000 -0.382683 -0.923880
v -8.000000 -66.750000 -204.000000
vt 0.000000 0.365234
vn 0.000000 0.000000 -1.000000
v -8.000000 -66.750000 204.000000
vt 0.000000 0.365234
vn 0.000000 0.000000 1.000000
v -1.250000 130.750000 204.000000
vt 0.052734 -1.177734
vn 0.000000 0.000000 1.000000
v -1.250000 -66.750000 204.000000
vt 0.052734 0.365234
vn 0.000000 0.000000 1.000000
v 0.000000 -68.000000 204.000000
vt 0.062500 0.375000
vn 0.270598 -0.270598 0.923880
v -8.000000 -68.000000 204.000000
vt 0.000000 0.375000
vn 0.000000 -0.382683 0.923880
v 0.000000 132.000000 204.000000
vt 0.062500 -1.187500
vn 0.270598 0.270598 0.923880
v -8.000000 132.000000 204.000000
vt 0.000000 -1.187500
vn 0.000000 0.382683 0.923880
v -8.000000 130.750000 204.000000
vt 0.000000 -1.177734
vn 0.000000 0.000000 1.000000
v 4.000000 -72.000000 -200.000000
vt 0.093750 0.156250
vn 0.707107 0.000000 -0.707107
v 0.000000 132.000000 -204.000000
vt 0.062500 -1.437500
vn 0.707107 0.000000 -0.707107
v 0.000000 -68.000000 -204.000000
vt 0.062500 0.125000
vn 0.707107 0.000000 -0.707107
v 4.000000 136.000000 -200.000000
vt 0.093750 -1.468750
vn 0.707107 0.000000 -0.707107
v 0.883879 -67.352943 203.116119
vt 0.069405 0.119945
vn 0.707107 0.000000 0.707107
v 3.116116 133.585190 200.883881
vt 0.086845 -1.449884
vn 0.707107 0.000000 0.707107
v 3.116117 -69.585159 200.883881
vt 0.086845 0.137384
vn 0.707107 0.000000 0.707107
v 0.000000 -68.000000 204.000000
vt 0.062500 0.125000
vn 0.270598 -0.270598 0.923880
v 0.883884 131.352936 203.116119
vt 0.069405 -1.432445
vn 0.707107 0.000000 0.707107
v 4.000000 -72.000000 200.000000
vt 0.093750 0.156250
vn 0.733657 -0.303891 0.607781
v 4.000000 136.000000 200.000000
vt 0.093750 -1.468750
vn 0.733657 0.303891 0.607781
v 0.000000 132.000000 204.000000
vt 0.062500 -1.437500
vn 0.270598 0.270598 0.923880
v 3.116118 -72.883881 72.000000
vt 0.086845 -1.062500
vn 0.707107 -0.707107 -0.000000
v 3.116117 -72.883881 -72.000000
vt 0.086845 0.062500
vn 0.707107 -0.707107 -0.000000
v 0.883882 -75.116119 -72.000000
vt 0.069405 0.062500
vn 0.707107 -0.707107 -0.000000
v 0.883884 -75.116119 72.000000
vt 0.069405 -1.062500
vn 0.707107 -0.707107 -0.000000
v 4.000000 -72.000000 72.000000
vt 0.093750 -1.062500
vn 0.923880 -0.382683 -0.000000
v 4.000000 -72.000000 -72.000000
vt 0.093750 0.062500
vn 0.923880 -0.382683 -0.000000
v 3.116117 -72.883881 -112.000000
vt 0.086845 0.375000
vn 0.707107 -0.707107 -0.000000
v 4.000000 -72.000000 -112.000000
vt 0.093750 0.375000
vn 0.923880 -0.382683 -0.000000
v 0.883882 -75.116119 -112.000000
vt 0.069405 0.375000
vn 0.707107 -0.707107 -0.000000
v 0.000000 -76.000000 -72.000000
vt 0.062500 0.062500
vn 0.382683 -0.923880 -0.000000
v 0.000000 -76.000000 72.000000
vt 0.062500 -1.062500
vn 0.382683 -0.923880 -0.000000
v 0.000000 -76.000000 -112.000000
vt 0.062500 0.375000
vn 0.382683 -0.923880 -0.000000
v 0.000000 -76.000000 112.000000
vt 0.062500 0.625000
vn 0.382683 -0.923880 -0.000000
v 0.883884 -75.116119 195.352966
vt 0.069405 -0.026195
vn 0.707107 -0.707107 -0.000000
v 0.883882 -75.116119 112.000000
vt 0.069405 0.625000
vn 0.707107 -0.707107 -0.000000
v 0.000000 -76.000000 72.000000
vt 0.062500 0.937500
vn 0.382683 -0.923880 -0.000000
v 0.883882 -75.116119 72.000000
vt 0.069405 0.937500
vn 0.707107 -0.707107 -0.000000
v 3.116117 -72.883881 112.000000
vt 0.086845 0.625000
vn 0.707107 -0.707107 -0.000000
v 3.116120 -72.883881 197.585190
vt 0.086845 -0.043634
vn 0.707107 -0.707107 -0.000000
v 0.000000 -76.000000 196.000000
vt 0.062500 -0.031250
vn 0.270598 -0.923880 0.270598
v 4.000000 -72.000000 200.000000
vt 0.093750 -0.062500
vn 0.733657 -0.607781 0.303891
v 4.000000 -72.000000 112.000000
vt 0.093750 0.625000
vn 0.923880 -0.382683 -0.000000
v 3.116117 -72.883881 72.000000
vt 0.086845 0.937500
vn 0.707107 -0.707107 -0.000000
v 4.000000 -72.000000 72.000000
vt 0.093750 0.937500
vn 0.923880 -0.382683 -0.000000
v 4.000000 -72.000000 -112.000000
vt 0.093750 -0.625000
vn 0.923880 -0.382683 -0.000000
v 4.000000 -72.000000 -200.000000
vt 0.093750 0.062500
vn 0.733657 -0.607781 -0.303891
v 3.116117 -72.883881 -197.585175
vt 0.086845 0.043634
vn 0.707107 -0.707107 -0.000000
v 3.116118 -72.883881 -112.000000
vt 0.086845 -0.625000
vn 0.707107 -0.707107 -0.000000
v 0.883884 -75.116119 -195.352951
vt 0.069405 0.026195
vn 0.707107 -0.707107 -0.000000
v 0.883884 -75.116119 -112.000000
vt 0.069405 -0.625000
vn 0.707107 -0.707107 -0.000000
v 0.000000 -76.000000 -196.000000
vt 0.062500 0.031250
vn 0.270598 -0.923880 -0.270598
v 0.000000 -76.000000 -112.000000
vt 0.062500 -0.625000
vn 0.382683 -0.923880 -0.000000
v -8.000000 -68.883881 -203.116119
vt 0.000000 0.913155
vn 0.000000 -0.707107 -0.707107
v -0.647052 -75.116119 -196.883881
vt 0.057445 0.961845
vn 0.000000 -0.707107 -0.707107
v 2.469068 -72.000000 -200.000000
vt 0.081790 0.937500
vn 0.000000 -0.707107 -0.707107
v -0.647051 -68.883881 -203.116119
vt 0.057445 0.913155
vn 0.000000 -0.707107 -0.707107
v 0.000000 -68.000000 -204.000000
vt 0.062500 0.906250
vn 0.270598 -0.270598 -0.923880
v -8.000000 -68.000000 -204.000000
vt 0.000000 0.906250
vn 0.000000 -0.382683 -0.923880
v 4.000000 -72.000000 -200.000000
vt 0.093750 0.937500
vn 0.577350 -0.577350 -0.577350
v 0.000000 -76.000000 -196.000000
vt 0.062500 0.968750
vn 0.270598 -0.923880 -0.270598
v -8.000000 -76.000000 -196.000000
vt 0.000000 0.968750
vn 0.000000 -0.923880 -0.382683
v -8.000000 -75.116119 -196.883881
vt 0.000000 0.961845
vn 0.000000 -0.707107 -0.707107
v -8.000000 132.000000 -204.000000
vt 0.000000 0.906250
vn 0.000000 0.707107 -0.707107
v 3.234532 135.234528 -200.765472
vt 0.087770 0.931520
vn 0.000000 0.707107 -0.707107
v -0.647055 139.116119 -196.883881
vt 0.057445 0.961845
vn 0.000000 0.707107 -0.707107
v -8.000000 139.116119 -196.883881
vt 0.000000 0.961845
vn 0.000000 0.707107 -0.707107
v 0.000000 132.000000 -204.000000
vt 0.062500 0.906250
vn 0.000000 0.707107 -0.707107
v 0.000000 140.000000 -196.000000
vt 0.062500 0.968750
vn 0.270598 0.923880 -0.270598
v -8.000000 140.000000 -196.000000
vt 0.000000 0.968750
vn 0.000000 0.923880 -0.382683
v 4.000000 136.000000 -200.000000
vt 0.093750 0.937500
vn 0.770076 0.451100 -0.451100
v -0.647052 -68.883881 203.116119
vt 0.057445 0.913155
vn 0.000000 -0.707107 0.707107
v -0.647051 -75.116119 196.883881
vt 0.057445 0.961845
vn 0.000000 -0.707107 0.707107
v -8.000000 -75.116119 196.883881
vt 0.000000 0.961845
vn 0.000000 -0.707107 0.707107
v 0.000000 -76.000000 196.000000
vt 0.062500 0.968750
vn 0.270598 -0.923880 0.270598
v -8.000000 -76.000000 196.000000
vt 0.000000 0.968750
vn 0.000000 -0.923880 0.382683
v 4.000000 -72.000000 200.000000
vt 0.093750 0.937500
vn 0.577350 -0.577350 0.577350
v 2.469068 -72.000000 200.000000
vt 0.081790 0.937500
vn 0.000000 -0.707107 0.707107
v 0.000000 -68.000000 204.000000
vt 0.062500 0.906250
vn 0.270598 -0.270598 0.923880
v -8.000000 -68.000000 204.000000
vt 0.000000 0.906250
vn 0.000000 -0.382683 0.923880
v -8.000000 -68.883881 203.116119
vt 0.000000 0.913155
vn 0.000000 -0.707107 0.707107
v -8.000000 132.883881 203.116119
vt 0.000000 0.913155
vn 0.000000 0.707107 0.707107
v -0.647056 139.116119 196.883881
vt 0.057445 0.961845
vn 0.000000 0.707107 0.707107
v 2.469064 136.000000 200.000000
vt 0.081790 0.937500
vn 0.000000 0.707107 0.707107
v -0.647055 132.883881 203.116119
vt 0.057445 0.913155
vn 0.000000 0.707107 0.707107
v 0.000000 132.000000 204.000000
vt 0.062500 0.906250
vn 0.270598 0.270598 0.923880
v 4.000000 136.000000 200.000000
vt 0.093750 0.937500
vn 0.577350 0.577350 0.577350
v -8.000000 132.000000 204.000000
vt 0.000000 0.906250
vn 0.000000 0.382683 0.923880
v 0.000000 140.000000 196.000000
vt 0.062500 0.968750
vn 0.270598 0.923880 0.270598
v -8.000000 140.000000 196.000000
vt 0.000000 0.968750
vn 0.000000 0.923880 0.382683
v -8.000000 139.116119 196.883881
vt 0.000000 0.961845
vn 0.000000 0.707107 0.707107
f 161/161/161 162/162/162 157/157/157
f 161/161/161 163/163/163 162/162/162
f 161/161/161 164/164/164 163/163/163
f 161/161/161 165/165/165 164/164/164
f 161/161/161 166/166/166 165/165/165
f 161/161/161 167/167/167 166/166/166
f 181/181/181 163/163/163 180/180/180
f 181/181/181 162/162/162 163/163/163
f 180/180/180 164/164/164 179/179/179
f 180/180/180 163/163/163 164/164/164
f 179/179/179 165/165/165 178/178/178
f 179/179/179 164/164/164 165/165/165
f 178/178/178 166/166/166 175/175/175
f 178/178/178 165/165/165 166/166/166
f 175/175/175 167/167/167 176/176/176
f 175/175/175 166/166/166 167/167/167
f 155/155/155 157/157/157 156/156/156
f 155/155/155 161/161/161 157/157/157
f 147/147/147 146/146/146 148/148/148
f 147/147/147 145/145/145 146/146/146
f 143/143/143 145/145/145 144/144/144
f 143/143/143 146/146/146 145/145/145
f 291/291/291 292/292/292 300/300/300
f 291/291/291 293/293/293 292/292/292
f 291/291/291 294/294/294 293/293/293
f 298/298/298 293/293/293 297/297/297
f 298/298/298 292/292/292 293/293/293
f 299/299/299 292/292/292 298/298/298
f 299/299/299 300/300/300 292/292/292
f 297/297/297 294/294/294 295/295/295
f 297/297/297 293/293/293 294/294/294
f 295/295/295 291/291/291 296/296/296
f 295/295/295 294/294/294 291/291/291
f 309/309/309 310/310/310 315/315/315
f 309/309/309 311/311/311 310/310/310
f 309/309/309 318/318/318 311/311/311
f 314/314/314 310/310/310 312/312/312
f 314/314/314 315/315/315 310/310/310
f 312/312/312 311/311/311 313/313/313
f 312/312/312 310/310/310 311/311/311
f 316/316/316 315/315/315 314/314/314
f 316/316/316 309/309/309 315/315/315
f 317/317/317 309/309/309 316/316/316
f 317/317/317 318/318/318 309/309/309
f 168/168/168 169/169/169 173/173/173
f 168/168/168 170/170/170 169/169/169
f 174/174/174 173/173/173 177/177/177
f 174/174/174 168/168/168 173/173/173
f 171/171/171 170/170/170 172/172/172
f 171/171/171 169/169/169 170/170/170
f 135/135/135 133/133/133 134/134/134
f 135/135/135 136/136/136 133/133/133
f 131/131/131 133/133/133 132/132/132
f 131/131/131 134/134/134 133/133/133
f 251/251/251 252/252/252 255/255/255
f 251/251/251 253/253/253 252/252/252
f 254/254/254 255/255/255 258/258/258
f 254/254/254 251/251/251 255/255/255
f 257/257/257 253/253/253 256/256/256
f 257/257/257 252/252/252 253/253/253
f 258/258/258 252/252/252 257/257/257
f 258/258/258 255/255/255 252/252/252
f 256/256/256 251/251/251 254/254/254
f 256/256/256 253/253/253 251/251/251
f 186/186/186 185/185/185 160/160/160
f 186/186/186 184/184/184 185/185/185
f 182/182/182 184/184/184 183/183/183
f 182/182/182 185/185/185 184/184/184
f 158/158/158 160/160/160 159/159/159
f 158/158/158 186/186/186 160/160/160
f 153/153/153 152/152/152 154/154/154
f 153/153/153 151/151/151 152/152/152
f 149/149/149 151/151/151 150/150/150
f 149/149/149 152/152/152 151/151/151
f 247/247/247 248/248/248 250/250/250
f 247/247/247 249/249/249 248/248/248
f 277/277/277 273/273/273 276/276/276
f 277/277/277 272/272/272 273/273/273
f 271/271/271 272/272/272 278/278/278
f 271/271/271 273/273/273 272/272/272
f 278/278/278 277/277/277 279/279/279
f 278/278/278 272/272/272 277/277/277
f 279/279/279 276/276/276 280/280/280
f 279/279/279 277/277/277 276/276/276
f 276/276/276 275/275/275 281/281/281
f 276/276/276 273/273/273 275/275/275
f 274/274/274 273/273/273 271/271/271
f 274/274/274 275/275/275 273/273/273
f 280/280/280 281/281/281 282/282/282
f 280/280/280 276/276/276 281/281/281
f 259/259/259 261/261/261 260/260/260
f 259/259/259 262/262/262 261/261/261
f 268/268/268 262/262/262 269/269/269
f 268/268/268 261/261/261 262/262/262
f 263/263/263 260/260/260 264/264/264
f 263/263/263 259/259/259 260/260/260
f 260/260/260 267/267/267 265/265/265
f 260/260/260 261/261/261 267/267/267
f 270/270/270 261/261/261 268/268/268
f 270/270/270 267/267/267 261/261/261
f 264/264/264 265/265/265 266/266/266
f 264/264/264 260/260/260 265/265/265
f 286/286/286 287/287/287 285/285/285
f 286/286/286 288/288/288 287/287/287
f 289/289/289 288/288/288 290/290/290
f 289/289/289 287/287/287 288/288/288
f 284/284/284 287/287/287 289/289/289
f 284/284/284 285/285/285 287/287/287
f 283/283/283 285/285/285 284/284/284
f 283/283/283 286/286/286 285/285/285
f 231/231/231 233/233/233 232/232/232
f 231/231/231 238/238/238 233/233/233
f 236/236/236 232/232/232 234/234/234
f 236/236/236 231/231/231 232/232/232
f 234/234/234 233/233/233 235/235/235
f 234/234/234 232/232/232 233/233/233
f 237/237/237 231/231/231 236/236/236
f 237/237/237 238/238/238 231/231/231
f 221/221/221 218/218/218 219/219/219
f 221/221/221 222/222/222 218/218/218
f 216/216/216 218/218/218 217/217/217
f 216/216/216 219/219/219 218/218/218
f 220/220/220 219/219/219 216/216/216
f 220/220/220 221/221/221 219/219/219
f 215/215/215 201/201/201 199/199/199
f 214/214/214 199/199/199 212/212/212
f 214/214/214 215/215/215 199/199/199
f 199/199/199 200/200/200 202/202/202
f 199/199/199 201/201/201 200/200/200
f 212/212/212 202/202/202 213/213/213
f 212/212/212 199/199/199 202/202/202
f 203/203/203 205/205/205 204/204/204
f 211/211/211 204/204/204 210/210/210
f 211/211/211 203/203/203 204/204/204
f 204/204/204 206/206/206 207/207/207
f 204/204/204 205/205/205 206/206/206
f 210/210/210 207/207/207 208/208/208
f 210/210/210 204/204/204 207/207/207
f 208/208/208 206/206/206 209/209/209
f 208/208/208 207/207/207 206/206/206
f 239/239/239 240/240/240 246/246/246
f 239/239/239 241/241/241 240/240/240
f 244/244/244 241/241/241 242/242/242
f 244/244/244 240/240/240 241/241/241
f 245/245/245 240/240/240 244/244/244
f 245/245/245 246/246/246 240/240/240
f 242/242/242 239/239/239 243/243/243
f 242/242/242 241/241/241 239/239/239
f 187/187/187 189/189/189 188/188/188
f 187/187/187 190/190/190 189/189/189
f 140/140/140 138/138/138 139/139/139
f 140/140/140 141/141/141 138/138/138
f 137/137/137 138/138/138 142/142/142
f 137/137/137 139/139/139 138/138/138
f 319/319/319 320/320/320 328/328/328
f 319/319/319 321/321/321 320/320/320
f 319/319/319 322/322/322 321/321/321
f 324/324/324 322/322/322 323/323/323
f 324/324/324 321/321/321 322/322/322
f 323/323/323 319/319/319 325/325/325
f 323/323/323 322/322/322 319/319/319
f 326/326/326 321/321/321 324/324/324
f 326/326/326 320/320/320 321/321/321
f 327/327/327 320/320/320 326/326/326
f 327/327/327 328/328/328 320/320/320
f 223/223/223 224/224/224 229/229/229
f 223/223/223 225/225/225 224/224/224
f 228/228/228 224/224/224 227/227/227
f 228/228/228 229/229/229 224/224/224
f 226/226/226 223/223/223 230/230/230
f 226/226/226 225/225/225 223/223/223
f 230/230/230 229/229/229 228/228/228
f 230/230/230 223/223/223 229/229/229
f 227/227/227 225/225/225 226/226/226
f 227/227/227 224/224/224 225/225/225
f 301/301/301 302/302/302 305/305/305
f 301/301/301 303/303/303 302/302/302
f 301/301/301 304/304/304 303/303/303
f 308/308/308 303/303/303 306/306/306
f 308/308/308 302/302/302 303/303/303
f 306/306/306 304/304/304 307/307/307
f 306/306/306 303/303/303 304/304/304
f 191/191/191 192/192/192 194/194/194
f 191/191/191 193/193/193 192/192/192
f 197/197/197 191/191/191 195/195/195
f 197/197/197 193/193/193 191/191/191
f 198/198/198 193/193/193 197/197/197
f 198/198/198 192/192/192 193/193/193
f 195/195/195 194/194/194 196/196/196
f 195/195/195 191/191/191 194/194/194
g mat1m0s6
usemtl textures/plastic/grey35
v -5.000000 -87.000000 72.000000
vt 0.054688 0.320312
vn 0.472268 -0.716213 -0.513812
v -2.000000 -80.000000 72.000000
vt 0.078125 0.375000
vn 0.872493 -0.179086 -0.454626
v -3.000000 -79.794739 72.000000
vt 0.070312 0.376604
vn 0.000000 0.000000 -1.000000
v -5.659397 -86.000000 72.000000
vt 0.049536 0.328125
vn 0.000000 0.000000 -1.000000
v -8.000000 -87.000000 72.000000
vt 0.031250 0.320312
vn 0.000000 -0.707107 -0.707107
v -8.000000 -86.000000 72.000000
vt 0.031250 0.328125
vn 0.000000 0.000000 -1.000000
v -8.000000 -76.000000 72.000000
vt 0.031250 0.406250
vn 0.000000 0.000000 -1.000000
v -3.000000 -76.000000 72.000000
vt 0.070312 0.406250
vn 0.000000 0.000000 -1.000000
v -2.000000 -76.000000 72.000000
vt 0.078125 0.406250
vn 0.707107 0.000000 -0.707107
v -5.000000 -87.000000 112.000000
vt 0.054688 0.320312
vn 0.472268 -0.716213 0.513812
v -8.000000 -87.000000 112.000000
vt 0.031250 0.320312
vn 0.000000 -0.707107 0.707107
v -8.000000 -86.000000 112.000000
vt 0.031250 0.328125
vn 0.000000 0.000000 1.000000
v -5.659397 -86.000000 112.000000
vt 0.049536 0.328125
vn 0.000000 0.000000 1.000000
v -2.000000 -80.000000 112.000000
vt 0.078125 0.375000
vn 0.872493 -0.179086 0.454626
v -3.000000 -79.794739 112.000000
vt 0.070312 0.376604
vn 0.000000 0.000000 1.000000
v -2.000000 -76.000000 112.000000
vt 0.078125 0.406250
vn 0.707107 0.000000 0.707107
v -3.000000 -76.000000 112.000000
vt 0.070312 0.406250
vn 0.000000 0.000000 1.000000
v -8.000000 -76.000000 112.000000
vt 0.031250 0.406250
vn 0.000000 0.000000 1.000000
v -4.507601 -85.851067 110.750000
vt 0.166016 0.329289
vn 0.919145 -0.393919 -0.000000
v -2.000000 -80.000000 110.750000
vt 0.166016 0.375000
vn 0.919145 -0.393919 -0.000000
v -2.000000 -80.000000 73.250000
vt 0.458984 0.375000
vn 0.919145 -0.393919 -0.000000
v -4.507600 -85.851067 73.250000
vt 0.458984 0.329289
vn 0.919145 -0.393919 -0.000000
v -5.000000 -87.000000 72.000000
vt 0.468750 0.320312
vn 0.472268 -0.716213 -0.513812
v -2.000000 -80.000000 72.000000
vt 0.468750 0.375000
vn 0.649934 -0.278543 -0.707107
v -5.000000 -87.000000 112.000000
vt 0.156250 0.320312
vn 0.472268 -0.716213 0.513812
v -2.000000 -80.000000 112.000000
vt 0.156250 0.375000
vn 0.649934 -0.278543 0.707107
v -2.000000 -80.000000 112.000000
vt 0.156250 0.375000
vn 0.707107 0.000000 0.707107
v -2.000000 -76.000000 110.750000
vt 0.166016 0.406250
vn 1.000000 0.000000 -0.000000
v -2.000000 -80.000000 110.750000
vt 0.166016 0.375000
vn 1.000000 0.000000 -0.000000
v -2.000000 -76.000000 112.000000
vt 0.156250 0.406250
vn 0.707107 0.000000 0.707107
v -2.000000 -76.000000 73.250000
vt 0.458984 0.406250
vn 1.000000 0.000000 -0.000000
v -2.000000 -80.000000 73.250000
vt 0.458984 0.375000
vn 1.000000 0.000000 -0.000000
v -2.000000 -76.000000 72.000000
vt 0.468750 0.406250
vn 0.707107 0.000000 -0.707107
v -2.000000 -80.000000 72.000000
vt 0.468750 0.375000
vn 0.707107 0.000000 -0.707107
v -6.000000 -87.000000 73.000000
vt 0.015625 0.460938
vn 0.000000 -1.000000 -0.000000
v -8.000000 -87.000000 111.000000
vt 0.000000 0.164062
vn 0.000000 -1.000000 -0.000000
v -6.000000 -87.000000 111.000000
vt 0.015625 0.164062
vn 0.000000 -1.000000 -0.000000
v -8.000000 -87.000000 73.000000
vt 0.000000 0.460938
vn 0.000000 -1.000000 -0.000000
v -5.000000 -87.000000 72.000000
vt 0.023438 0.468750
vn 0.472268 -0.716213 -0.513812
v -8.000000 -87.000000 72.000000
vt 0.000000 0.468750
vn 0.000000 -0.707107 -0.707107
v -5.000000 -87.000000 112.000000
vt 0.023438 0.156250
vn 0.472268 -0.716213 0.513812
v -8.000000 -87.000000 112.000000
vt 0.000000 0.156250
vn 0.000000 -0.707107 0.707107
f 357/357/357 359/359/359 356/356/356
f 357/357/357 360/360/360 359/359/359
f 361/361/361 360/360/360 362/362/362
f 361/361/361 359/359/359 360/360/360
f 355/355/355 356/356/356 358/358/358
f 355/355/355 357/357/357 356/356/356
f 340/340/340 345/345/345 346/346/346
f 340/340/340 343/343/343 345/345/345
f 340/340/340 341/341/341 343/343/343
f 342/342/342 341/341/341 338/338/338
f 342/342/342 343/343/343 341/341/341
f 338/338/338 340/340/340 339/339/339
f 338/338/338 341/341/341 340/340/340
f 344/344/344 343/343/343 342/342/342
f 344/344/344 345/345/345 343/343/343
f 331/331/331 335/335/335 336/336/336
f 331/331/331 334/334/334 335/335/335
f 331/331/331 332/332/332 334/334/334
f 329/329/329 331/331/331 330/330/330
f 329/329/329 332/332/332 331/331/331
f 333/333/333 332/332/332 329/329/329
f 333/333/333 334/334/334 332/332/332
f 330/330/330 336/336/336 337/337/337
f 330/330/330 331/331/331 336/336/336
f 347/347/347 349/349/349 348/348/348
f 347/347/347 350/350/350 349/349/349
f 351/351/351 347/347/347 353/353/353
f 351/351/351 350/350/350 347/347/347
f 352/352/352 350/350/350 351/351/351
f 352/352/352 349/349/349 350/350/350
f 353/353/353 348/348/348 354/354/354
f 353/353/353 347/347/347 348/348/348
f 363/363/363 364/364/364 366/366/366
f 363/363/363 365/365/365 364/364/364
f 369/369/369 363/363/363 367/367/367
f 369/369/369 365/365/365 363/363/363
f 367/367/367 366/366/366 368/368/368
f 367/367/367 363/363/363 366/366/366
f 370/370/370 365/365/365 369/369/369
f 370/370/370 364/364/364 365/365/365
g mat1m0s7
usemtl textures/plastic/grey35
v -5.000000 -87.000000 -112.000000
vt 0.054688 0.320312
vn 0.472268 -0.716213 -0.513812
v -2.000000 -80.000000 -112.000000
vt 0.078125 0.375000
vn 0.872493 -0.179086 -0.454626
v -3.000000 -79.794739 -112.000000
vt 0.070312 0.376604
vn 0.000000 0.000000 -1.000000
v -5.659397 -86.000000 -112.000000
vt 0.049536 0.328125
vn 0.000000 0.000000 -1.000000
v -8.000000 -87.000000 -112.000000
vt 0.031250 0.320312
vn 0.000000 -0.707107 -0.707107
v -8.000000 -86.000000 -112.000000
vt 0.031250 0.328125
vn 0.000000 0.000000 -1.000000
v -8.000000 -76.000000 -112.000000
vt 0.031250 0.406250
vn 0.000000 0.000000 -1.000000
v -3.000000 -76.000000 -112.000000
vt 0.070312 0.406250
vn 0.000000 0.000000 -1.000000
v -2.000000 -76.000000 -112.000000
vt 0.078125 0.406250
vn 0.707107 0.000000 -0.707107
v -5.000000 -87.000000 -72.000000
vt 0.054688 0.320312
vn 0.472268 -0.716213 0.513812
v -8.000000 -87.000000 -72.000000
vt 0.031250 0.320312
vn 0.000000 -0.707107 0.707107
v -8.000000 -86.000000 -72.000000
vt 0.031250 0.328125
vn 0.000000 0.000000 1.000000
v -5.659397 -86.000000 -72.000000
vt 0.049536 0.328125
vn 0.000000 0.000000 1.000000
v -2.000000 -80.000000 -72.000000
vt 0.078125 0.375000
vn 0.872493 -0.179086 0.454626
v -3.000000 -79.794739 -72.000000
vt 0.070312 0.376604
vn 0.000000 0.000000 1.000000
v -2.000000 -76.000000 -72.000000
vt 0.078125 0.406250
vn 0.707107 0.000000 0.707107
v -3.000000 -76.000000 -72.000000
vt 0.070312 0.406250
vn 0.000000 0.000000 1.000000
v -8.000000 -76.000000 -72.000000
vt 0.031250 0.406250
vn 0.000000 0.000000 1.000000
v -4.507601 -85.851067 -73.250000
vt 0.166016 0.329289
vn 0.919145 -0.393919 -0.000000
v -2.000000 -80.000000 -73.250000
vt 0.166016 0.375000
vn 0.919145 -0.393919 -0.000000
v -2.000000 -80.000000 -110.750000
vt 0.458984 0.375000
vn 0.919145 -0.393919 -0.000000
v -4.507600 -85.851067 -110.750000
vt 0.458984 0.329289
vn 0.919145 -0.393919 -0.000000
v -5.000000 -87.000000 -112.000000
vt 0.468750 0.320312
vn 0.472268 -0.716213 -0.513812
v -2.000000 -80.000000 -112.000000
vt 0.468750 0.375000
vn 0.649934 -0.278543 -0.707107
v -5.000000 -87.000000 -72.000000
vt 0.156250 0.320312
vn 0.472268 -0.716213 0.513812
v -2.000000 -80.000000 -72.000000
vt 0.156250 0.375000
vn 0.649934 -0.278543 0.707107
v -2.000000 -80.000000 -72.000000
vt 0.156250 0.375000
vn 0.707107 0.000000 0.707107
v -2.000000 -76.000000 -73.250000
vt 0.166016 0.406250
vn 1.000000 0.000000 -0.000000
v -2.000000 -80.000000 -73.250000
vt 0.166016 0.375000
vn 1.000000 0.000000 -0.000000
v -2.000000 -76.000000 -72.000000
vt 0.156250 0.406250
vn 0.707107 0.000000 0.707107
v -2.000000 -76.000000 -110.750000
vt 0.458984 0.406250
vn 1.000000 0.000000 -0.000000
v -2.000000 -80.000000 -110.750000
vt 0.458984 0.375000
vn 1.000000 0.000000 -0.000000
v -2.000000 -76.000000 -112.000000
vt 0.468750 0.406250
vn 0.707107 0.000000 -0.707107
v -2.000000 -80.000000 -112.000000
vt 0.468750 0.375000
vn 0.707107 0.000000 -0.707107
v -6.000000 -87.000000 -111.000000
vt 0.015625 0.460938
vn 0.000000 -1.000000 -0.000000
v -8.000000 -87.000000 -73.000000
vt 0.000000 0.164062
vn 0.000000 -1.000000 -0.000000
v -6.000000 -87.000000 -73.000000
vt 0.015625 0.164062
vn 0.000000 -1.000000 -0.000000
v -8.000000 -87.000000 -111.000000
vt 0.000000 0.460938
vn 0.000000 -1.000000 -0.000000
v -5.000000 -87.000000 -112.000000
vt 0.023438 0.468750
vn 0.472268 -0.716213 -0.513812
v -8.000000 -87.000000 -112.000000
vt 0.000000 0.468750
vn 0.000000 -0.707107 -0.707107
v -5.000000 -87.000000 -72.000000
vt 0.023438 0.156250
vn 0.472268 -0.716213 0.513812
v -8.000000 -87.000000 -72.000000
vt 0.000000 0.156250
vn 0.000000 -0.707107 0.707107
f 399/399/399 401/401/401 398/398/398
f 399/399/399 402/402/402 401/401/401
f 403/403/403 402/402/402 404/404/404
f 403/403/403 401/401/401 402/402/402
f 397/397/397 398/398/398 400/400/400
f 397/397/397 399/399/399 398/398/398
f 382/382/382 387/387/387 388/388/388
f 382/382/382 385/385/385 387/387/387
f 382/382/382 383/383/383 385/385/385
f 384/384/384 383/383/383 380/380/380
f 384/384/384 385/385/385 383/383/383
f 380/380/380 382/382/382 381/381/381
f 380/380/380 383/383/383 382/382/382
f 386/386/386 385/385/385 384/384/384
f 386/386/386 387/387/387 385/385/385
f 373/373/373 377/377/377 378/378/378
f 373/373/373 376/376/376 377/377/377
f 373/373/373 374/374/374 376/376/376
f 371/371/371 373/373/373 372/372/372
f 371/371/371 374/374/374 373/373/373
f 375/375/375 374/374/374 371/371/371
f 375/375/375 376/376/376 374/374/374
f 372/372/372 378/378/378 379/379/379
f 372/372/372 373/373/373 378/378/378
f 389/389/389 391/391/391 390/390/390
f 389/389/389 392/392/392 391/391/391
f 393/393/393 389/389/389 395/395/395
f 393/393/393 392/392/392 389/389/389
f 394/394/394 392/392/392 393/393/393
f 394/394/394 391/391/391 392/392/392
f 395/395/395 390/390/390 396/396/396
f 395/395/395 389/389/389 390/390/390
f 405/405/405 406/406/406 408/408/408
f 405/405/405 407/407/407 406/406/406
f 411/411/411 405/405/405 409/409/409
f 411/411/411 407/407/407 405/405/405
f 409/409/409 408/408/408 410/410/410
f 409/409/409 405/405/405 408/408/408
f 412/412/412 407/407/407 411/411/411
f 412/412/412 406/406/406 407/407/407
