# Generated by makebsp -bsp2obj
# Source: C:/Users/German/Documents/My Games/Warfork 2.1/basewf/models/mapobjects/wdm5/wdm5_SingleGreenBrick
# Axis swap: Q3 Z-up -> OBJ Y-up (X=X, Y=Z, Z=-Y)
o wdm5_SingleGreenBrick
mtllib wdm5_SingleGreenBrick.mtl
g mat0m0s0
usemtl textures/bricks/bricks2
v -16.000000 -2.000000 6.000000
vt 1.046875 0.015625
vn -1.000000 0.000000 -0.000000
v -16.000000 -8.000000 6.000000
vt 1.046875 0.062500
vn -1.000000 0.000000 -0.000000
v -16.000000 -8.000000 -6.000000
vt 0.953125 0.062500
vn -1.000000 0.000000 -0.000000
v -16.000000 -2.000000 -6.000000
vt 0.953125 0.015625
vn -1.000000 0.000000 -0.000000
v -16.000000 0.000000 -8.000000
vt 0.937500 0.000000
vn -0.577350 0.577350 -0.577350
v -16.000000 -8.000000 -8.000000
vt 0.937500 0.062500
vn -0.707107 0.000000 -0.707107
v -16.000000 0.000000 8.000000
vt 1.062500 0.000000
vn -0.577350 0.577350 0.577350
v -16.000000 -8.000000 8.000000
vt 1.062500 0.062500
vn -0.707107 0.000000 0.707107
v -16.000000 0.000000 -8.000000
vt 1.095521 0.000000
vn -0.577350 0.577350 -0.577350
v -16.000000 -8.000000 -8.000000
vt 1.095521 0.099371
vn -0.707107 0.000000 -0.707107
v -14.000000 -8.000000 -8.000000
vt 1.083720 0.099371
vn 0.000000 0.000000 -1.000000
v -14.000000 -2.000000 -8.000000
vt 1.083720 0.024843
vn 0.000000 0.000000 -1.000000
v 16.000000 0.000000 -8.000000
vt 0.906709 0.000000
vn 0.577350 0.577350 -0.577350
v 14.000000 -2.000000 -8.000000
vt 0.918510 0.024843
vn 0.000000 0.000000 -1.000000
v 16.000000 -8.000000 -8.000000
vt 0.906709 0.099371
vn 0.707107 0.000000 -0.707107
v 14.000000 -8.000000 -8.000000
vt 0.918510 0.099371
vn 0.000000 0.000000 -1.000000
v -16.000000 0.000000 -8.000000
vt 1.000000 0.902424
vn -0.577350 0.577350 -0.577350
v 16.000000 0.000000 -8.000000
vt 0.805046 0.902424
vn 0.577350 0.577350 -0.577350
v 14.000000 0.000000 -6.000000
vt 0.817230 0.913713
vn 0.000000 1.000000 -0.000000
v -14.000000 0.000000 -6.000000
vt 0.987815 0.913713
vn 0.000000 1.000000 -0.000000
v -16.000000 0.000000 8.000000
vt 1.000000 0.992730
vn -0.577350 0.577350 0.577350
v -14.000000 0.000000 6.000000
vt 0.987815 0.981442
vn 0.000000 1.000000 -0.000000
v 16.000000 0.000000 8.000000
vt 0.805046 0.992730
vn 0.577350 0.577350 0.577350
v 14.000000 0.000000 6.000000
vt 0.817230 0.981442
vn 0.000000 1.000000 -0.000000
v 16.000000 0.000000 -8.000000
vt 0.318935 0.402270
vn 0.577350 0.577350 -0.577350
v 16.000000 -8.000000 -8.000000
vt 0.318935 0.451865
vn 0.707107 0.000000 -0.707107
v 16.000000 -8.000000 -6.000000
vt 0.338507 0.451865
vn 1.000000 0.000000 -0.000000
v 16.000000 -2.000000 -6.000000
vt 0.338507 0.414669
vn 1.000000 0.000000 -0.000000
v 16.000000 0.000000 8.000000
vt 0.475511 0.402270
vn 0.577350 0.577350 0.577350
v 16.000000 -2.000000 6.000000
vt 0.455939 0.414669
vn 1.000000 0.000000 -0.000000
v 16.000000 -8.000000 8.000000
vt 0.475511 0.451865
vn 0.707107 0.000000 0.707107
v 16.000000 -8.000000 6.000000
vt 0.455939 0.451865
vn 1.000000 0.000000 -0.000000
v 16.000000 0.000000 8.000000
vt 0.901964 0.000000
vn 0.577350 0.577350 0.577350
v 16.000000 -8.000000 8.000000
vt 0.901964 0.100645
vn 0.707107 0.000000 0.707107
v 14.000000 -8.000000 8.000000
vt 0.914197 0.100645
vn 0.000000 0.000000 1.000000
v 14.000000 -2.000000 8.000000
vt 0.914197 0.025161
vn 0.000000 0.000000 1.000000
v -16.000000 0.000000 8.000000
vt 1.097692 0.000000
vn -0.577350 0.577350 0.577350
v -14.000000 -2.000000 8.000000
vt 1.085459 0.025161
vn 0.000000 0.000000 1.000000
v -16.000000 -8.000000 8.000000
vt 1.097692 0.100645
vn -0.707107 0.000000 0.707107
v -14.000000 -8.000000 8.000000
vt 1.085459 0.100645
vn 0.000000 0.000000 1.000000
f 1/1/1 3/3/3 2/2/2
f 1/1/1 4/4/4 3/3/3
f 5/5/5 1/1/1 7/7/7
f 5/5/5 4/4/4 1/1/1
f 6/6/6 4/4/4 5/5/5
f 6/6/6 3/3/3 4/4/4
f 7/7/7 2/2/2 8/8/8
f 7/7/7 1/1/1 2/2/2
f 40/40/40 36/36/36 38/38/38
f 40/40/40 35/35/35 36/36/36
f 37/37/37 36/36/36 33/33/33
f 37/37/37 38/38/38 36/36/36
f 33/33/33 35/35/35 34/34/34
f 33/33/33 36/36/36 35/35/35
f 39/39/39 38/38/38 37/37/37
f 39/39/39 40/40/40 38/38/38
f 12/12/12 16/16/16 11/11/11
f 12/12/12 14/14/14 16/16/16
f 13/13/13 12/12/12 9/9/9
f 13/13/13 14/14/14 12/12/12
f 15/15/15 14/14/14 13/13/13
f 15/15/15 16/16/16 14/14/14
f 9/9/9 11/11/11 10/10/10
f 9/9/9 12/12/12 11/11/11
f 22/22/22 19/19/19 20/20/20
f 22/22/22 24/24/24 19/19/19
f 17/17/17 19/19/19 18/18/18
f 17/17/17 20/20/20 19/19/19
f 23/23/23 22/22/22 21/21/21
f 23/23/23 24/24/24 22/22/22
f 18/18/18 24/24/24 23/23/23
f 18/18/18 19/19/19 24/24/24
f 21/21/21 20/20/20 17/17/17
f 21/21/21 22/22/22 20/20/20
f 32/32/32 28/28/28 30/30/30
f 32/32/32 27/27/27 28/28/28
f 29/29/29 28/28/28 25/25/25
f 29/29/29 30/30/30 28/28/28
f 25/25/25 27/27/27 26/26/26
f 25/25/25 28/28/28 27/27/27
f 31/31/31 30/30/30 29/29/29
f 31/31/31 32/32/32 30/30/30
