# Generated by makebsp -bsp2obj
# Source: C:/Users/German/Documents/My Games/Warfork 2.1/basewf/models/mapobjects/wdm5/wdm5_RedSignThinBrokenPorkyPie1
# Axis swap: Q3 Z-up -> OBJ Y-up (X=X, Y=Z, Z=-Y)
o wdm5_RedSignThinBrokenPorkyPie1
mtllib wdm5_RedSignThinBrokenPorkyPie1.mtl
g mat0m0s0
usemtl textures/billboard/neon1
v -1.000000 -24.000000 5.000000
vt 0.343750 0.281250
vn -1.000000 0.000000 -0.000000
v -1.000000 -11.000000 -17.000000
vt 1.031250 0.382812
vn -1.000000 0.000000 -0.000000
v -1.000000 -11.000000 5.000000
vt 0.343750 0.382812
vn -1.000000 0.000000 -0.000000
v -1.000000 -64.000000 15.000000
vt 0.031250 -0.031250
vn -1.000000 0.000000 -0.000000
v -1.000000 -20.875000 15.000000
vt 0.031250 0.305664
vn -1.000000 0.000000 -0.000000
v -1.000000 -19.000000 5.000000
vt 0.343750 0.320312
vn -1.000000 0.000000 -0.000000
v -1.000000 -19.000000 11.625000
vt 0.136719 0.320313
vn -1.000000 0.000000 -0.000000
v -1.000000 -20.125000 14.375000
vt 0.050781 0.311523
vn -1.000000 0.000000 -0.000000
v -1.000000 -64.000000 -17.000000
vt 1.031250 -0.031250
vn -1.000000 0.000000 -0.000000
v -1.000000 -11.000000 5.000000
vt 1.031250 0.085938
vn 0.000000 0.000000 1.000000
v 1.000000 -24.000000 5.000000
vt 0.968750 0.187500
vn 0.000000 0.000000 1.000000
v -1.000000 -24.000000 5.000000
vt 1.031250 0.187500
vn 0.000000 0.000000 1.000000
v 1.000000 -15.000000 5.000000
vt 0.968750 0.117188
vn 0.000000 0.000000 1.000000
v 1.000000 -13.000000 5.000000
vt 0.968750 0.101562
vn 0.000000 0.382683 0.923880
v 1.000000 -12.000000 5.000000
vt 0.968750 0.093750
vn 0.000000 0.382683 0.923880
v 1.000000 -11.000000 5.000000
vt 0.968750 0.085938
vn 0.000000 0.000000 1.000000
v 1.000000 -24.000000 15.000000
vt 0.031250 0.312500
vn 1.000000 0.000000 -0.000000
v 1.000000 -20.875000 15.000000
vt 0.031250 0.336914
vn 1.000000 0.000000 -0.000000
v 1.000000 -20.125000 14.375000
vt 0.050781 0.342773
vn 1.000000 0.000000 -0.000000
v 1.000000 -19.000000 11.625000
vt 0.136719 0.351562
vn 1.000000 0.000000 -0.000000
v 1.000000 -19.000000 5.000000
vt 0.343750 0.351562
vn 1.000000 0.000000 -0.000000
v 1.000000 -24.000000 5.000000
vt 0.343750 0.312500
vn 1.000000 0.000000 -0.000000
v -1.000000 -19.000000 5.000000
vt 1.031250 0.039062
vn 0.000000 0.923880 -0.382683
v 1.000000 -19.000000 11.625000
vt 0.968750 0.090820
vn 0.000000 0.979578 0.201066
v -1.000000 -19.000000 11.625000
vt 1.031250 0.090820
vn 0.000000 0.979578 0.201066
v 1.000000 -19.000000 10.500000
vt 0.968750 0.082031
vn 0.000000 0.973249 0.229753
v 1.000000 -19.000000 5.000000
vt 0.968750 0.039062
vn 0.000000 0.923880 -0.382683
v 1.000000 -20.125000 14.375000
vt 0.968750 0.112305
vn 0.000000 0.801812 0.597576
v -1.000000 -20.125000 14.375000
vt 1.031250 0.112305
vn 0.000000 0.801812 0.597576
v -1.000000 -20.125000 14.375000
vt 1.031250 0.157227
vn 0.000000 0.801812 0.597576
v 1.000000 -20.875000 15.000000
vt 0.968750 0.163086
vn 0.000000 0.640184 0.768221
v -1.000000 -20.875000 15.000000
vt 1.031250 0.163086
vn 0.000000 0.640184 0.768221
v 1.000000 -20.125000 14.375000
vt 0.968750 0.157227
vn 0.000000 0.801812 0.597576
v 1.000000 -19.000000 5.000000
vt 0.156250 0.148438
vn 1.000000 0.000000 -0.000000
v 1.000000 -19.000000 10.500000
vt 0.328125 0.148438
vn 1.000000 0.000000 -0.000000
v 1.000000 -17.125000 6.875000
vt 0.214844 0.133789
vn 1.000000 0.000000 -0.000000
v -1.000000 -19.000000 10.500000
vt 0.328125 0.148438
vn -1.000000 0.000000 -0.000000
v -1.000000 -19.000000 5.000000
vt 0.156250 0.148438
vn -1.000000 0.000000 -0.000000
v -1.000000 -17.125000 6.875000
vt 0.214844 0.133789
vn -1.000000 0.000000 -0.000000
v -1.000000 -17.125000 6.875000
vt 1.031250 0.053711
vn 0.000000 0.894427 0.447214
v 1.000000 -19.000000 10.500000
vt 0.968750 0.082031
vn 0.000000 0.973249 0.229753
v -1.000000 -19.000000 10.500000
vt 1.031250 0.082031
vn 0.000000 0.973249 0.229753
v 1.000000 -17.125000 6.875000
vt 0.968750 0.053711
vn 0.000000 0.894427 0.447214
v -1.000000 -19.000000 5.000000
vt 1.031250 0.039062
vn 0.000000 0.923880 -0.382683
v 1.000000 -19.000000 5.000000
vt 0.968750 0.039062
vn 0.000000 0.923880 -0.382683
v 1.000000 -17.125000 6.875000
vt 0.968750 0.053711
vn 0.000000 0.707107 -0.707107
v -1.000000 -17.125000 6.875000
vt 1.031250 0.053711
vn 0.000000 0.707107 -0.707107
v 1.000000 -11.000000 7.000000
vt 0.218750 0.085938
vn 1.000000 0.000000 -0.000000
v 1.000000 -12.000000 5.000000
vt 0.156250 0.093750
vn 1.000000 0.000000 -0.000000
v 1.000000 -13.500000 7.500000
vt 0.234375 0.105469
vn 1.000000 0.000000 -0.000000
v 1.000000 -13.875000 8.750000
vt 0.273438 0.108398
vn 1.000000 0.000000 -0.000000
v 1.000000 -13.625000 8.750000
vt 0.273438 0.106445
vn 1.000000 0.000000 -0.000000
v 1.000000 -11.000000 5.000000
vt 0.156250 0.085938
vn 1.000000 0.000000 -0.000000
v -1.000000 -12.000000 5.000000
vt 1.031250 0.039062
vn 0.000000 0.382683 0.923880
v 1.000000 -12.000000 5.000000
vt 0.968750 0.039062
vn 0.000000 0.382683 0.923880
v 1.000000 -13.500000 6.500000
vt 0.968750 0.050781
vn 0.000000 0.707107 0.707107
v -1.000000 -13.500000 6.500000
vt 1.031250 0.050781
vn 0.000000 0.707107 0.707107
v -1.000000 -13.500000 7.500000
vt 0.234375 0.105469
vn -1.000000 0.000000 -0.000000
v -1.000000 -12.000000 5.000000
vt 0.156250 0.093750
vn -1.000000 0.000000 -0.000000
v -1.000000 -11.000000 5.000000
vt 0.156250 0.085938
vn -1.000000 0.000000 -0.000000
v -1.000000 -11.000000 7.000000
vt 0.218750 0.085938
vn -1.000000 0.000000 -0.000000
v -1.000000 -13.625000 8.750000
vt 0.273438 0.106445
vn -1.000000 0.000000 -0.000000
v -1.000000 -13.875000 8.750000
vt 0.273438 0.108398
vn -1.000000 0.000000 -0.000000
v 1.000000 -12.000000 5.000000
vt 0.156250 0.093750
vn 1.000000 0.000000 -0.000000
v 1.000000 -13.000000 5.000000
vt 0.156250 0.101562
vn 1.000000 0.000000 -0.000000
v 1.000000 -13.500000 6.500000
vt 0.203125 0.105469
vn 1.000000 0.000000 -0.000000
v -1.000000 -13.500000 6.500000
vt 1.031250 0.050781
vn 0.000000 -0.948683 -0.316228
v 1.000000 -13.500000 6.500000
vt 0.968750 0.050781
vn 0.000000 -0.948683 -0.316228
v 1.000000 -13.000000 5.000000
vt 0.968750 0.039062
vn 0.000000 -0.948683 -0.316228
v -1.000000 -13.000000 5.000000
vt 1.031250 0.039062
vn 0.000000 -0.948683 -0.316228
v -1.000000 -13.500000 6.500000
vt 0.203125 0.105469
vn -1.000000 0.000000 -0.000000
v -1.000000 -13.000000 5.000000
vt 0.156250 0.101562
vn -1.000000 0.000000 -0.000000
v -1.000000 -12.000000 5.000000
vt 0.156250 0.093750
vn -1.000000 0.000000 -0.000000
v 1.000000 -13.000000 5.000000
vt 0.156250 0.101562
vn 1.000000 0.000000 -0.000000
v 1.000000 -14.375000 6.250000
vt 0.195312 0.112305
vn 1.000000 0.000000 -0.000000
v 1.000000 -14.250000 6.250000
vt 0.195312 0.111328
vn 1.000000 0.000000 -0.000000
v 1.000000 -15.000000 5.000000
vt 0.156250 0.117188
vn 1.000000 0.000000 -0.000000
v -1.000000 -14.250000 6.250000
vt 0.195312 0.111328
vn -1.000000 0.000000 -0.000000
v -1.000000 -15.000000 5.000000
vt 0.156250 0.117188
vn -1.000000 0.000000 -0.000000
v -1.000000 -13.000000 5.000000
vt 0.156250 0.101562
vn -1.000000 0.000000 -0.000000
v -1.000000 -14.375000 6.250000
vt 0.195312 0.112305
vn -1.000000 0.000000 -0.000000
v -1.000000 -14.375000 6.250000
vt 1.031250 0.048828
vn 0.000000 -0.894427 0.447214
v 1.000000 -15.000000 5.000000
vt 0.968750 0.039062
vn 0.000000 -0.894427 0.447214
v -1.000000 -15.000000 5.000000
vt 1.031250 0.039062
vn 0.000000 -0.894427 0.447214
v 1.000000 -14.375000 6.250000
vt 0.968750 0.048828
vn 0.000000 -0.655202 0.755454
v -1.000000 -14.250000 6.250000
vt 1.031250 0.111328
vn 0.000000 -0.316228 0.948683
v 1.000000 -14.250000 6.250000
vt 0.968750 0.111328
vn 0.000000 -0.316228 0.948683
v 1.000000 -14.375000 6.250000
vt 0.968750 0.112305
vn 0.000000 -0.655202 0.755454
v -0.500000 -14.375000 6.250000
vt 1.015625 0.112305
vn 0.000000 -0.655202 0.755454
v -1.000000 -11.000000 7.000000
vt 1.031250 0.085938
vn 0.000000 0.554700 0.832050
v 1.000000 -11.000000 7.000000
vt 0.968750 0.085938
vn 0.000000 0.554700 0.832050
v 1.000000 -13.625000 8.750000
vt 0.968750 0.106445
vn 0.000000 0.554700 0.832050
v -1.000000 -13.625000 8.750000
vt 1.031250 0.106445
vn 0.000000 0.554700 0.832050
v -1.000000 -13.500000 7.500000
vt 1.031250 0.058594
vn 0.000000 -0.905195 -0.424997
v 1.000000 -13.500000 7.500000
vt 0.968750 0.058594
vn 0.000000 -0.905195 -0.424997
v 1.000000 -12.000000 5.000000
vt 0.968750 0.039062
vn 0.000000 -0.868243 -0.496139
v -1.000000 -12.000000 5.000000
vt 1.031250 0.039062
vn 0.000000 -0.868243 -0.496139
v -1.000000 -13.875000 8.750000
vt 1.031250 0.068359
vn 0.000000 -0.936329 -0.351123
v 1.000000 -13.875000 8.750000
vt 0.968750 0.068359
vn 0.000000 -0.936329 -0.351123
v -1.000000 -13.000000 5.000000
vt 1.031250 0.039062
vn 0.000000 0.382683 0.923880
v 1.000000 -14.250000 6.250000
vt 0.968750 0.048828
vn 0.000000 0.707107 0.707107
v -0.500000 -14.375000 6.250000
vt 1.015625 0.048828
vn 0.000000 0.707107 0.707107
v 1.000000 -13.000000 5.000000
vt 0.968750 0.039062
vn 0.000000 0.382683 0.923880
v -1.000000 -14.250000 6.250000
vt 1.031250 0.048828
vn 0.000000 0.707107 0.707107
v -1.000000 -13.625000 8.750000
vt 1.031250 0.106445
vn 0.000000 -0.316228 0.948683
v 1.000000 -13.875000 8.750000
vt 0.968750 0.108398
vn 0.000000 -0.316228 0.948683
v -1.000000 -13.875000 8.750000
vt 1.031250 0.108398
vn 0.000000 -0.316228 0.948683
v 1.000000 -13.625000 8.750000
vt 0.968750 0.106445
vn 0.000000 -0.316228 0.948683
v -1.000000 -11.000000 12.500000
vt 0.109375 0.382812
vn -1.000000 0.000000 -0.000000
v -1.000000 -11.000000 -17.000000
vt 1.031250 0.382812
vn -1.000000 0.000000 -0.000000
v -1.000000 36.000000 -17.000000
vt 1.031250 0.750000
vn -1.000000 0.000000 -0.000000
v -1.000000 36.000000 -3.000000
vt 0.593750 0.750000
vn -1.000000 0.000000 -0.000000
v -1.000000 38.875000 15.000000
vt 0.031250 0.772461
vn -1.000000 0.000000 -0.000000
v -1.000000 -9.000000 15.000000
vt 0.031250 0.398438
vn -1.000000 0.000000 -0.000000
v -1.000000 38.000000 -6.000000
vt 0.687500 0.765625
vn -1.000000 0.000000 -0.000000
v -1.000000 44.000000 -3.000000
vt 0.593750 0.812500
vn -1.000000 0.000000 -0.000000
v 1.000000 -11.000000 12.500000
vt 0.390625 0.085938
vn 1.000000 0.000000 -0.000000
v 1.000000 -11.000000 9.500000
vt 0.296875 0.085938
vn 1.000000 0.000000 -0.000000
v 1.000000 -11.500000 10.500000
vt 0.328125 0.089844
vn 1.000000 0.000000 -0.000000
v -1.000000 -11.500000 10.500000
vt 0.328125 0.089844
vn -1.000000 0.000000 -0.000000
v -1.000000 -11.000000 9.500000
vt 0.296875 0.085938
vn -1.000000 0.000000 -0.000000
v -1.000000 -11.000000 12.500000
vt 0.390625 0.085938
vn -1.000000 0.000000 -0.000000
v -1.000000 -11.250000 13.625000
vt 1.031250 0.087891
vn 0.000000 0.514496 -0.857493
v 1.000000 -9.000000 15.000000
vt 0.968750 0.070312
vn 0.000000 0.514496 -0.857493
v -1.000000 -9.000000 15.000000
vt 1.031250 0.070312
vn 0.000000 0.514496 -0.857493
v 1.000000 -11.250000 13.625000
vt 0.968750 0.087891
vn 0.000000 0.514496 -0.857493
v 1.000000 -9.000000 15.000000
vt 0.031250 0.429687
vn 1.000000 0.000000 -0.000000
v 1.000000 -11.000000 5.000000
vt 0.343750 0.414062
vn 1.000000 0.000000 -0.000000
v 1.000000 -11.000000 12.500000
vt 0.109375 0.414062
vn 1.000000 0.000000 -0.000000
v 1.000000 36.000000 -17.000000
vt 1.031250 0.781250
vn 1.000000 0.000000 -0.000000
v 1.000000 -24.000000 -17.000000
vt 1.031250 0.312500
vn 1.000000 0.000000 -0.000000
v 1.000000 -24.000000 5.000000
vt 0.343750 0.312500
vn 1.000000 0.000000 -0.000000
v 1.000000 36.000000 -3.000000
vt 0.593750 0.781250
vn 1.000000 0.000000 -0.000000
v 1.000000 48.000000 15.000000
vt 0.031250 0.875000
vn 1.000000 0.000000 -0.000000
v 1.000000 38.000000 -6.000000
vt 0.687500 0.796875
vn 1.000000 0.000000 -0.000000
v 1.000000 44.000000 -3.000000
vt 0.593750 0.843750
vn 1.000000 0.000000 -0.000000
v 1.000000 46.375000 -11.250000
vt 0.851562 0.862305
vn 1.000000 0.000000 -0.000000
v 1.000000 48.000000 -8.000000
vt 0.750000 0.875000
vn 1.000000 0.000000 -0.000000
v 1.000000 64.000000 15.000000
vt 0.031250 1.000000
vn 1.000000 0.000000 -0.000000
v 1.000000 48.000000 -13.000000
vt 0.906250 0.875000
vn 1.000000 0.000000 -0.000000
v 1.000000 51.000000 -17.000000
vt 1.031250 0.898438
vn 1.000000 0.000000 -0.000000
v 1.000000 64.000000 -17.000000
vt 1.031250 1.000000
vn 1.000000 0.000000 -0.000000
v -1.000000 46.375000 -11.250000
vt 0.968750 0.087891
vn 0.000000 0.894427 -0.447214
v 1.000000 46.375000 -11.250000
vt 1.031250 0.087891
vn 0.000000 0.894427 -0.447214
v 1.000000 48.000000 -8.000000
vt 1.031250 0.062500
vn 0.000000 0.894427 -0.447214
v -1.000000 48.000000 -8.000000
vt 0.968750 0.062500
vn 0.000000 0.894427 -0.447214
v -1.000000 38.875000 15.000000
vt 0.968750 -0.117188
vn 0.000000 -0.961524 -0.274721
v 1.000000 46.375000 -11.250000
vt 1.031250 0.087891
vn 0.000000 -0.961524 -0.274721
v -1.000000 46.375000 -11.250000
vt 0.968750 0.087891
vn 0.000000 -0.961524 -0.274721
v 1.000000 38.875000 15.000000
vt 1.031250 -0.117188
vn 0.000000 -0.961524 -0.274721
v -1.000000 38.875000 15.000000
vt 0.031250 0.834961
vn -1.000000 0.000000 -0.000000
v -1.000000 46.375000 -11.250000
vt 0.851562 0.893555
vn -1.000000 0.000000 -0.000000
v -1.000000 48.000000 -8.000000
vt 0.750000 0.906250
vn -1.000000 0.000000 -0.000000
v -1.000000 48.000000 15.000000
vt 0.031250 0.906250
vn -1.000000 0.000000 -0.000000
v -1.000000 38.875000 15.000000
vt 0.968750 -0.117188
vn 0.000000 -0.961524 -0.274721
v -1.000000 46.375000 -11.250000
vt 0.968750 0.087891
vn 0.000000 -0.961524 -0.274721
v -1.000000 44.000000 -3.000000
vt 0.968750 0.023401
vn 0.000000 -0.961524 -0.274721
v -1.000000 48.000000 15.000000
vt 0.031250 0.843750
vn -1.000000 0.000000 -0.000000
v -1.000000 48.000000 -13.000000
vt 0.906250 0.843750
vn -1.000000 0.000000 -0.000000
v -1.000000 51.000000 -17.000000
vt 1.031250 0.867188
vn -1.000000 0.000000 -0.000000
v -1.000000 64.000000 -17.000000
vt 1.031250 0.968750
vn -1.000000 0.000000 -0.000000
v -1.000000 64.000000 15.000000
vt 0.031250 0.968750
vn -1.000000 0.000000 -0.000000
v -1.000000 -9.000000 15.000000
vt 0.468750 0.070312
vn -1.000000 0.000000 -0.000000
v -1.000000 -12.000000 15.000000
vt 0.468750 0.093750
vn -1.000000 0.000000 -0.000000
v -1.000000 -11.250000 13.625000
vt 0.425781 0.087891
vn -1.000000 0.000000 -0.000000
v -1.000000 -12.000000 15.000000
vt 1.031250 0.117188
vn 0.000000 -0.894427 -0.447214
v 1.000000 -11.250000 13.625000
vt 0.968750 0.106445
vn 0.000000 -0.894427 -0.447214
v -1.000000 -11.250000 13.625000
vt 1.031250 0.106445
vn 0.000000 -0.894427 -0.447214
v 1.000000 -12.000000 15.000000
vt 0.968750 0.117188
vn 0.000000 -0.894427 -0.447214
v 1.000000 -11.250000 13.625000
vt 0.425781 0.087891
vn 1.000000 0.000000 -0.000000
v 1.000000 -12.000000 15.000000
vt 0.468750 0.093750
vn 1.000000 0.000000 -0.000000
v 1.000000 -9.000000 15.000000
vt 0.468750 0.070312
vn 1.000000 0.000000 -0.000000
v -1.000000 -11.000000 12.500000
vt 1.031250 0.097656
vn 0.000000 -0.953733 0.300655
v 1.000000 -11.000000 7.000000
vt 0.968750 0.054688
vn 0.000000 -1.000000 -0.000000
v 1.000000 -11.000000 5.000000
vt 0.968750 0.039062
vn 0.000000 -1.000000 -0.000000
v 1.000000 -11.000000 9.500000
vt 0.968750 0.074219
vn 0.000000 -0.973249 -0.229753
v 1.000000 -11.000000 12.500000
vt 0.968750 0.097656
vn 0.000000 -0.953733 0.300655
v 1.000000 -11.000000 -17.000000
vt 0.968750 -0.132812
vn 0.000000 -1.000000 -0.000000
v -1.000000 -11.000000 -17.000000
vt 1.031250 -0.132812
vn 0.000000 -1.000000 -0.000000
v 1.000000 -11.500000 10.500000
vt 0.968750 0.082031
vn 0.000000 -0.994029 -0.109117
v -1.000000 -11.500000 10.500000
vt 1.031250 0.082031
vn 0.000000 -0.994029 -0.109117
v -1.000000 -9.000000 15.000000
vt 1.031250 0.117188
vn 0.000000 -0.780869 0.624695
v 1.000000 -9.000000 15.000000
vt 0.968750 0.117188
vn 0.000000 -0.780869 0.624695
v -1.000000 -11.000000 9.500000
vt 1.031250 0.074219
vn 0.000000 -0.973249 -0.229753
v -1.000000 48.000000 15.000000
vt 1.031250 0.117188
vn 0.000000 -1.000000 -0.000000
v 1.000000 48.000000 -8.000000
vt 0.968750 -0.062500
vn 0.000000 -1.000000 -0.000000
v 1.000000 48.000000 -13.000000
vt 0.968750 -0.101562
vn 0.000000 -0.948683 -0.316228
v -1.000000 48.000000 -13.000000
vt 1.031250 -0.101562
vn 0.000000 -0.948683 -0.316228
v 1.000000 48.000000 15.000000
vt 0.968750 0.117188
vn 0.000000 -1.000000 -0.000000
v -1.000000 38.000000 -6.000000
vt 1.031250 0.703125
vn 0.000000 0.447214 -0.894427
v 1.000000 44.000000 -3.000000
vt 0.968750 0.656250
vn 0.000000 0.447214 -0.894427
v -1.000000 44.000000 -3.000000
vt 1.031250 0.656250
vn 0.000000 0.447214 -0.894427
v 1.000000 38.000000 -6.000000
vt 0.968750 0.703125
vn 0.000000 0.447214 -0.894427
v -1.000000 48.000000 -13.000000
vt 1.031250 0.898438
vn 0.000000 -0.948683 -0.316228
v 1.000000 48.000000 -13.000000
vt 0.968750 0.898438
vn 0.000000 -0.948683 -0.316228
v 1.000000 51.000000 -17.000000
vt 0.968750 0.867188
vn 0.000000 -0.800000 -0.600000
v -1.000000 51.000000 -17.000000
vt 1.031250 0.867188
vn 0.000000 -0.800000 -0.600000
v -1.000000 36.000000 -3.000000
vt 1.031250 0.976562
vn 0.000000 -0.832050 -0.554700
v 1.000000 38.000000 -6.000000
vt 0.968750 0.953125
vn 0.000000 -0.832050 -0.554700
v -1.000000 38.000000 -6.000000
vt 1.031250 0.953125
vn 0.000000 -0.832050 -0.554700
v 1.000000 36.000000 -3.000000
vt 0.968750 0.976562
vn 0.000000 -0.832050 -0.554700
v 1.000000 -24.000000 15.000000
vt 0.031250 0.312500
vn 1.000000 0.000000 -0.000000
v 1.000000 -24.000000 -17.000000
vt 1.031250 0.312500
vn 1.000000 0.000000 -0.000000
v 1.000000 -64.000000 -17.000000
vt 1.031250 0.000000
vn 1.000000 0.000000 -0.000000
v 1.000000 -64.000000 15.000000
vt 0.031250 0.000000
vn 1.000000 0.000000 -0.000000
v -1.000000 39.625000 -9.625000
vt 0.800782 0.778320
vn -1.000000 0.000000 -0.000000
v -1.000000 36.000000 -17.000000
vt 1.031250 0.750000
vn -1.000000 0.000000 -0.000000
v -1.000000 43.000000 -17.000000
vt 1.031250 0.804688
vn -1.000000 0.000000 -0.000000
v -1.000000 41.000000 -11.000000
vt 0.843750 0.789062
vn -1.000000 0.000000 -0.000000
v -1.000000 39.625000 -9.625000
vt 1.031250 0.924805
vn 0.000000 -0.894427 0.447214
v 1.000000 36.000000 -17.000000
vt 0.968750 0.867188
vn 0.000000 -0.894427 0.447214
v -1.000000 36.000000 -17.000000
vt 1.031250 0.867188
vn 0.000000 -0.894427 0.447214
v 1.000000 39.625000 -9.625000
vt 0.968750 0.924805
vn 0.000000 -0.894427 0.447214
v 1.000000 43.000000 -17.000000
vt 1.031250 0.835938
vn 1.000000 0.000000 -0.000000
v 1.000000 36.000000 -17.000000
vt 1.031250 0.781250
vn 1.000000 0.000000 -0.000000
v 1.000000 39.625000 -9.625000
vt 0.800782 0.809570
vn 1.000000 0.000000 -0.000000
v 1.000000 41.000000 -11.000000
vt 0.843750 0.820312
vn 1.000000 0.000000 -0.000000
v -1.000000 36.000000 15.000000
vt 1.031250 0.117188
vn 0.000000 1.000000 -0.000000
v -1.000000 36.000000 -17.000000
vt 1.031250 -0.132812
vn 0.000000 1.000000 -0.000000
v 1.000000 36.000000 -17.000000
vt 0.968750 -0.132812
vn 0.000000 1.000000 -0.000000
v 1.000000 36.000000 15.000000
vt 0.968750 0.117188
vn 0.000000 1.000000 -0.000000
v -1.000000 39.625000 -9.625000
vt 1.031250 0.924805
vn 0.000000 -0.894427 0.447214
v -1.000000 36.000000 -17.000000
vt 1.031250 0.867188
vn 0.000000 -0.894427 0.447214
v -1.000000 37.000000 -15.000000
vt 1.031250 0.882865
vn 0.000000 -0.894427 0.447214
v -1.000000 43.000000 -17.000000
vt 1.031250 0.867188
vn 0.000000 0.948683 0.316228
v 1.000000 41.000000 -11.000000
vt 0.968750 0.914062
vn 0.000000 0.850651 0.525731
v -1.000000 41.000000 -11.000000
vt 1.031250 0.914062
vn 0.000000 0.850651 0.525731
v 1.000000 43.000000 -17.000000
vt 0.968750 0.867188
vn 0.000000 0.948683 0.316228
v 1.000000 39.625000 -9.625000
vt 0.968750 0.924805
vn 0.000000 0.707107 0.707107
v -1.000000 39.625000 -9.625000
vt 1.031250 0.924805
vn 0.000000 0.707107 0.707107
v 1.000000 37.000000 -15.000000
vt 0.531250 0.710938
vn 1.000000 0.000000 -0.000000
v 1.000000 36.000000 -10.000000
vt 0.687500 0.718750
vn 1.000000 0.000000 -0.000000
v 1.000000 37.750000 -11.125000
vt 0.652344 0.705078
vn 1.000000 0.000000 -0.000000
v 1.000000 36.000000 -17.000000
vt 0.468750 0.718750
vn 1.000000 0.000000 -0.000000
v -1.000000 36.000000 -10.000000
vt 0.687500 0.718750
vn -1.000000 0.000000 -0.000000
v -1.000000 37.000000 -15.000000
vt 0.531250 0.710938
vn -1.000000 0.000000 -0.000000
v -1.000000 37.750000 -11.125000
vt 0.652344 0.705078
vn -1.000000 0.000000 -0.000000
v -1.000000 36.000000 -17.000000
vt 0.468750 0.718750
vn -1.000000 0.000000 -0.000000
v -1.000000 37.000000 -15.000000
vt 1.031250 0.882812
vn 0.000000 0.980581 -0.196116
v 1.000000 37.000000 -15.000000
vt 0.968750 0.882812
vn 0.000000 0.980581 -0.196116
v 1.000000 37.750000 -11.125000
vt 0.968750 0.913086
vn 0.000000 0.980581 -0.196116
v -1.000000 37.750000 -11.125000
vt 1.031250 0.913086
vn 0.000000 0.980581 -0.196116
v -1.000000 37.750000 -11.125000
vt 1.031250 0.705078
vn 0.000000 0.554700 0.832050
v 1.000000 36.000000 -10.000000
vt 0.968750 0.718750
vn 0.000000 0.554700 0.832050
v -1.000000 36.000000 -10.000000
vt 1.031250 0.718750
vn 0.000000 0.554700 0.832050
v 1.000000 37.750000 -11.125000
vt 0.968750 0.705078
vn 0.000000 0.554700 0.832050
f 1/1/1 3/3/3 2/2/2
f 10/10/10 15/15/15 16/16/16
f 10/10/10 14/14/14 15/15/15
f 10/10/10 13/13/13 14/14/14
f 10/10/10 11/11/11 13/13/13
f 10/10/10 12/12/12 11/11/11
f 44/44/44 46/46/46 45/45/45
f 44/44/44 47/47/47 46/46/46
f 94/94/94 96/96/96 95/95/95
f 94/94/94 97/97/97 96/96/96
f 5/5/5 6/6/6 1/1/1
f 5/5/5 7/7/7 6/6/6
f 5/5/5 8/8/8 7/7/7
f 23/23/23 26/26/26 27/27/27
f 23/23/23 24/24/24 26/26/26
f 23/23/23 25/25/25 24/24/24
f 82/82/82 83/83/83 85/85/85
f 82/82/82 84/84/84 83/83/83
f 100/100/100 101/101/101 103/103/103
f 100/100/100 102/102/102 101/101/101
f 100/100/100 104/104/104 102/102/102
f 4/4/4 2/2/2 9/9/9
f 4/4/4 1/1/1 2/2/2
f 4/4/4 5/5/5 1/1/1
f 109/109/109 111/111/111 110/110/110
f 109/109/109 112/112/112 111/111/111
f 109/109/109 113/113/113 112/112/112
f 109/109/109 114/114/114 113/113/113
f 173/173/173 176/176/176 177/177/177
f 173/173/173 174/174/174 176/176/176
f 173/173/173 175/175/175 174/174/174
f 173/173/173 178/178/178 175/175/175
f 173/173/173 179/179/179 178/178/178
f 54/54/54 56/56/56 55/55/55
f 54/54/54 57/57/57 56/56/56
f 67/67/67 69/69/69 68/68/68
f 67/67/67 70/70/70 69/69/69
f 128/128/128 131/131/131 130/130/130
f 128/128/128 132/132/132 131/131/131
f 37/37/37 39/39/39 38/38/38
f 34/34/34 36/36/36 35/35/35
f 58/58/58 60/60/60 59/59/59
f 58/58/58 61/61/61 60/60/60
f 58/58/58 62/62/62 61/61/61
f 58/58/58 63/63/63 62/62/62
f 48/48/48 49/49/49 53/53/53
f 48/48/48 50/50/50 49/49/49
f 48/48/48 51/51/51 50/50/50
f 48/48/48 52/52/52 51/51/51
f 17/17/17 19/19/19 18/18/18
f 17/17/17 20/20/20 19/19/19
f 17/17/17 21/21/21 20/20/20
f 17/17/17 22/22/22 21/21/21
f 78/78/78 79/79/79 81/81/81
f 78/78/78 80/80/80 79/79/79
f 74/74/74 75/75/75 77/77/77
f 74/74/74 76/76/76 75/75/75
f 202/202/202 204/204/204 203/203/203
f 202/202/202 205/205/205 204/204/204
f 127/127/127 133/133/133 134/134/134
f 127/127/127 130/130/130 133/133/133
f 127/127/127 128/128/128 130/130/130
f 127/127/127 129/129/129 128/128/128
f 71/71/71 73/73/73 72/72/72
f 64/64/64 66/66/66 65/65/65
f 40/40/40 41/41/41 43/43/43
f 40/40/40 42/42/42 41/41/41
f 98/98/98 95/95/95 99/99/99
f 98/98/98 94/94/94 95/95/95
f 30/30/30 31/31/31 33/33/33
f 30/30/30 32/32/32 31/31/31
f 25/25/25 28/28/28 24/24/24
f 25/25/25 29/29/29 28/28/28
f 86/86/86 88/88/88 87/87/87
f 86/86/86 89/89/89 88/88/88
f 206/206/206 208/208/208 207/207/207
f 206/206/206 209/209/209 208/208/208
f 210/210/210 211/211/211 213/213/213
f 210/210/210 212/212/212 211/211/211
f 222/222/222 224/224/224 223/223/223
f 113/113/113 115/115/115 112/112/112
f 113/113/113 116/116/116 115/115/115
f 198/198/198 199/199/199 201/201/201
f 198/198/198 200/200/200 199/199/199
f 90/90/90 92/92/92 91/91/91
f 90/90/90 93/93/93 92/92/92
f 123/123/123 124/124/124 126/126/126
f 123/123/123 125/125/125 124/124/124
f 181/181/181 176/176/176 180/180/180
f 181/181/181 184/184/184 176/176/176
f 173/173/173 180/180/180 177/177/177
f 173/173/173 181/181/181 180/180/180
f 218/218/218 220/220/220 219/219/219
f 218/218/218 221/221/221 220/220/220
f 182/182/182 177/177/177 183/183/183
f 182/182/182 173/173/173 177/177/177
f 243/243/243 244/244/244 246/246/246
f 243/243/243 245/245/245 244/244/244
f 120/120/120 122/122/122 121/121/121
f 117/117/117 119/119/119 118/118/118
f 105/105/105 106/106/106 108/108/108
f 105/105/105 107/107/107 106/106/106
f 214/214/214 216/216/216 215/215/215
f 214/214/214 217/217/217 216/216/216
f 134/134/134 135/135/135 136/136/136
f 134/134/134 133/133/133 135/135/135
f 227/227/227 229/229/229 226/226/226
f 227/227/227 230/230/230 229/229/229
f 225/225/225 226/226/226 228/228/228
f 225/225/225 227/227/227 226/226/226
f 239/239/239 241/241/241 240/240/240
f 239/239/239 242/242/242 241/241/241
f 235/235/235 236/236/236 238/238/238
f 235/235/235 237/237/237 236/236/236
f 231/231/231 232/232/232 234/234/234
f 231/231/231 233/233/233 232/232/232
f 151/151/151 153/153/153 152/152/152
f 151/151/151 154/154/154 153/153/153
f 147/147/147 148/148/148 150/150/150
f 147/147/147 149/149/149 148/148/148
f 155/155/155 157/157/157 156/156/156
f 190/190/190 191/191/191 193/193/193
f 190/190/190 192/192/192 191/191/191
f 163/163/163 165/165/165 164/164/164
f 170/170/170 172/172/172 171/171/171
f 166/166/166 167/167/167 169/169/169
f 166/166/166 168/168/168 167/167/167
f 134/134/134 137/137/137 138/138/138
f 134/134/134 136/136/136 137/137/137
f 143/143/143 145/145/145 144/144/144
f 143/143/143 146/146/146 145/145/145
f 158/158/158 160/160/160 159/159/159
f 158/158/158 161/161/161 160/160/160
f 158/158/158 162/162/162 161/161/161
f 185/185/185 186/186/186 189/189/189
f 185/185/185 187/187/187 186/186/186
f 185/185/185 188/188/188 187/187/187
f 139/139/139 141/141/141 142/142/142
f 139/139/139 140/140/140 141/141/141
f 139/139/139 138/138/138 140/140/140
f 139/139/139 134/134/134 138/138/138
f 194/194/194 196/196/196 195/195/195
f 194/194/194 197/197/197 196/196/196
g mat1m0s1
usemtl textures/blx_grey/blx_grey_light_h
v -0.500000 -21.000000 15.000000
vt 0.687500 1.000000
vn -1.000000 0.000000 -0.000000
v -0.500000 -21.000000 5.000000
vt 0.687500 -1.500000
vn -1.000000 0.000000 -0.000000
v -0.500000 -9.000000 5.000000
vt 1.437500 -1.500000
vn -1.000000 0.000000 -0.000000
v -0.500000 -9.000000 15.000000
vt 1.437500 1.000000
vn -1.000000 0.000000 -0.000000
f 250/250/250 249/249/249 247/247/247
f 249/249/249 248/248/248 247/247/247
g mat1m0s2
usemtl textures/blx_grey/blx_grey_light_h
v 0.500000 -9.000000 15.000000
vt 1.437500 1.000000
vn 1.000000 0.000000 -0.000000
v 0.500000 -9.000000 5.000000
vt 1.437500 -1.500000
vn 1.000000 0.000000 -0.000000
v 0.500000 -21.000000 5.000000
vt 0.687500 -1.500000
vn 1.000000 0.000000 -0.000000
v 0.500000 -21.000000 15.000000
vt 0.687500 1.000000
vn 1.000000 0.000000 -0.000000
f 254/254/254 253/253/253 251/251/251
f 253/253/253 252/252/252 251/251/251
g mat1m0s3
usemtl textures/blx_grey/blx_grey_light_h
v -0.500000 36.000000 -3.000000
vt 0.250000 0.500000
vn -1.000000 0.000000 -0.000000
v -0.500000 36.000000 -17.000000
vt 0.250000 -3.000000
vn -1.000000 0.000000 -0.000000
v -0.500000 51.000000 -17.000000
vt 1.187500 -3.000000
vn -1.000000 0.000000 -0.000000
v -0.500000 51.000000 -3.000000
vt 1.187500 0.500000
vn -1.000000 0.000000 -0.000000
f 258/258/258 257/257/257 255/255/255
f 257/257/257 256/256/256 255/255/255
g mat1m0s4
usemtl textures/blx_grey/blx_grey_light_h
v 0.500000 51.000000 -3.000000
vt 1.187500 0.500000
vn 1.000000 0.000000 -0.000000
v 0.500000 51.000000 -17.000000
vt 1.187500 -3.000000
vn 1.000000 0.000000 -0.000000
v 0.500000 36.000000 -17.000000
vt 0.250000 -3.000000
vn 1.000000 0.000000 -0.000000
v 0.500000 36.000000 -3.000000
vt 0.250000 0.500000
vn 1.000000 0.000000 -0.000000
f 262/262/262 261/261/261 259/259/259
f 261/261/261 260/260/260 259/259/259
g mat1m0s5
usemtl textures/blx_grey/blx_grey_light_h
v 2.000000 -64.000000 15.000000
vt 0.390625 0.125000
vn 0.000000 1.000000 -0.000000
v 2.000000 -64.000000 -17.000000
vt 0.890625 0.125000
vn 0.000000 1.000000 -0.000000
v 3.000000 -64.000000 -17.000000
vt 0.890625 0.062500
vn 0.000000 1.000000 -0.000000
v 3.000000 -64.000000 15.000000
vt 0.390625 0.062500
vn 0.000000 1.000000 -0.000000
f 266/266/266 265/265/265 263/263/263
f 265/265/265 264/264/264 263/263/263
g mat1m0s6
usemtl textures/blx_grey/blx_grey_light_h
v 3.000000 64.000000 15.000000
vt 0.390625 0.062500
vn 0.000000 -1.000000 -0.000000
v 3.000000 64.000000 -17.000000
vt 0.890625 0.062500
vn 0.000000 -1.000000 -0.000000
v 2.000000 64.000000 -17.000000
vt 0.890625 0.125000
vn 0.000000 -1.000000 -0.000000
v 2.000000 64.000000 15.000000
vt 0.390625 0.125000
vn 0.000000 -1.000000 -0.000000
f 270/270/270 269/269/269 267/267/267
f 269/269/269 268/268/268 267/267/267
g mat1m0s7
usemtl textures/blx_grey/blx_grey_light_h
v 3.000000 -64.000000 15.000000
vt 0.625000 0.062500
vn 0.000000 0.000000 -1.000000
v 3.000000 64.000000 15.000000
vt 2.625000 0.062500
vn 0.000000 0.000000 -1.000000
v 2.000000 64.000000 15.000000
vt 2.625000 0.125000
vn 0.000000 0.000000 -1.000000
v 2.000000 -64.000000 15.000000
vt 0.625000 0.125000
vn 0.000000 0.000000 -1.000000
f 274/274/274 273/273/273 271/271/271
f 273/273/273 272/272/272 271/271/271
g mat1m0s8
usemtl textures/blx_grey/blx_grey_light_h
v 2.000000 -64.000000 -17.000000
vt 0.625000 0.125000
vn 0.000000 0.000000 1.000000
v 2.000000 64.000000 -17.000000
vt 2.625000 0.125000
vn 0.000000 0.000000 1.000000
v 3.000000 64.000000 -17.000000
vt 2.625000 0.062500
vn 0.000000 0.000000 1.000000
v 3.000000 -64.000000 -17.000000
vt 0.625000 0.062500
vn 0.000000 0.000000 1.000000
f 278/278/278 277/277/277 275/275/275
f 277/277/277 276/276/276 275/275/275
g mat1m0s9
usemtl textures/blx_grey/blx_grey_light_h
v -2.000000 -64.000000 15.000000
vt 0.531250 0.734375
vn 0.000000 1.000000 -0.000000
v -2.000000 -64.000000 -17.000000
vt 1.531250 0.734375
vn 0.000000 1.000000 -0.000000
v 2.000000 -64.000000 -17.000000
vt 1.531250 0.234375
vn 0.000000 1.000000 -0.000000
v 2.000000 -64.000000 15.000000
vt 0.531250 0.234375
vn 0.000000 1.000000 -0.000000
f 282/282/282 281/281/281 279/279/279
f 281/281/281 280/280/280 279/279/279
g mat1m0s10
usemtl textures/blx_grey/blx_grey_light_h
v -2.000000 64.000000 15.000000
vt 0.531250 0.734375
vn 0.000000 -1.000000 -0.000000
v 2.000000 64.000000 15.000000
vt 0.531250 0.234375
vn 0.000000 -1.000000 -0.000000
v 2.000000 64.000000 -17.000000
vt 1.531250 0.234375
vn 0.000000 -1.000000 -0.000000
v -2.000000 64.000000 -17.000000
vt 1.531250 0.734375
vn 0.000000 -1.000000 -0.000000
f 286/286/286 285/285/285 283/283/283
f 285/285/285 284/284/284 283/283/283
g mat1m0s11
usemtl textures/blx_grey/blx_grey_light_h
v -2.000000 -64.000000 15.000000
vt 0.250000 0.734375
vn 0.000000 0.000000 -1.000000
v 2.000000 -64.000000 15.000000
vt 0.250000 0.234375
vn 0.000000 0.000000 -1.000000
v 2.000000 64.000000 15.000000
vt 4.250000 0.234375
vn 0.000000 0.000000 -1.000000
v -2.000000 64.000000 15.000000
vt 4.250000 0.734375
vn 0.000000 0.000000 -1.000000
f 290/290/290 289/289/289 287/287/287
f 289/289/289 288/288/288 287/287/287
g mat1m0s12
usemtl textures/blx_grey/blx_grey_light_h
v -2.000000 -64.000000 -17.000000
vt 0.250000 0.734375
vn 0.000000 0.000000 1.000000
v -2.000000 64.000000 -17.000000
vt 4.250000 0.734375
vn 0.000000 0.000000 1.000000
v 2.000000 64.000000 -17.000000
vt 4.250000 0.234375
vn 0.000000 0.000000 1.000000
v 2.000000 -64.000000 -17.000000
vt 0.250000 0.234375
vn 0.000000 0.000000 1.000000
f 294/294/294 293/293/293 291/291/291
f 293/293/293 292/292/292 291/291/291
g mat1m0s13
usemtl textures/blx_grey/blx_grey_light_h
v -3.000000 -64.000000 15.000000
vt 0.765625 0.937500
vn 0.000000 1.000000 -0.000000
v -3.000000 -64.000000 -17.000000
vt 1.265625 0.937500
vn 0.000000 1.000000 -0.000000
v -2.000000 -64.000000 -17.000000
vt 1.265625 0.875000
vn 0.000000 1.000000 -0.000000
v -2.000000 -64.000000 15.000000
vt 0.765625 0.875000
vn 0.000000 1.000000 -0.000000
f 298/298/298 297/297/297 295/295/295
f 297/297/297 296/296/296 295/295/295
g mat1m0s14
usemtl textures/blx_grey/blx_grey_light_h
v -2.000000 64.000000 15.000000
vt 0.765625 0.875000
vn 0.000000 -1.000000 -0.000000
v -2.000000 64.000000 -17.000000
vt 1.265625 0.875000
vn 0.000000 -1.000000 -0.000000
v -3.000000 64.000000 -17.000000
vt 1.265625 0.937500
vn 0.000000 -1.000000 -0.000000
v -3.000000 64.000000 15.000000
vt 0.765625 0.937500
vn 0.000000 -1.000000 -0.000000
f 302/302/302 301/301/301 299/299/299
f 301/301/301 300/300/300 299/299/299
g mat1m0s15
usemtl textures/blx_grey/blx_grey_light_h
v -2.000000 -64.000000 15.000000
vt 0.000000 0.875000
vn 0.000000 0.000000 -1.000000
v -2.000000 64.000000 15.000000
vt 2.000000 0.875000
vn 0.000000 0.000000 -1.000000
v -3.000000 64.000000 15.000000
vt 2.000000 0.937500
vn 0.000000 0.000000 -1.000000
v -3.000000 -64.000000 15.000000
vt 0.000000 0.937500
vn 0.000000 0.000000 -1.000000
f 306/306/306 305/305/305 303/303/303
f 305/305/305 304/304/304 303/303/303
g mat1m0s16
usemtl textures/blx_grey/blx_grey_light_h
v -3.000000 -64.000000 -17.000000
vt 0.000000 0.937500
vn 0.000000 0.000000 1.000000
v -3.000000 64.000000 -17.000000
vt 2.000000 0.937500
vn 0.000000 0.000000 1.000000
v -2.000000 64.000000 -17.000000
vt 2.000000 0.875000
vn 0.000000 0.000000 1.000000
v -2.000000 -64.000000 -17.000000
vt 0.000000 0.875000
vn 0.000000 0.000000 1.000000
f 310/310/310 309/309/309 307/307/307
f 309/309/309 308/308/308 307/307/307
g mat2m0s17
usemtl textures/plastic/grey75
v 2.000000 -69.000000 20.000000
vt 0.046875 0.773438
vn 0.336557 -0.475963 0.812520
v -2.000000 -69.000000 20.000000
vt 0.015625 0.773438
vn -0.336557 -0.475963 0.812520
v -0.750000 -67.750000 20.000000
vt 0.025391 0.783203
vn 0.000000 0.000000 1.000000
v 0.750000 -67.750000 20.000000
vt 0.037109 0.783203
vn 0.000000 0.000000 1.000000
v 2.000000 -43.500000 20.000000
vt 0.046875 0.972656
vn 0.382683 0.000000 0.923880
v 0.750000 -43.500000 20.000000
vt 0.037109 0.972656
vn 0.000000 0.000000 1.000000
v -0.750000 -43.500000 20.000000
vt 0.025391 0.972656
vn 0.000000 0.000000 1.000000
v -2.000000 -43.500000 20.000000
vt 0.015625 0.972656
vn -0.382683 0.000000 0.923880
v 3.000000 -66.750000 17.749996
vt 0.861328 0.791016
vn 1.000000 0.000000 -0.000000
v 3.000000 -64.000000 15.000000
vt 0.882812 0.812500
vn 1.000000 0.000000 -0.000000
v 3.000000 -64.000000 -17.000000
vt 1.132812 0.812500
vn 1.000000 0.000000 -0.000000
v 3.000000 -66.750000 -19.750000
vt 1.154297 0.791016
vn 1.000000 0.000000 -0.000000
v 3.000000 -68.000000 -21.000000
vt 1.164062 0.781250
vn 0.923880 -0.382683 -0.000000
v 3.000000 68.000000 -21.000000
vt 0.164062 0.843750
vn 0.923880 0.000000 -0.382683
v 3.000000 -68.000000 -21.000000
vt 0.164062 -0.218750
vn 0.923880 0.000000 -0.382683
v 3.000000 -66.750000 -19.750000
vt 0.154297 -0.208984
vn 1.000000 0.000000 -0.000000
v 3.000000 66.750000 -19.750000
vt 0.154297 0.833984
vn 1.000000 0.000000 -0.000000
v 3.000000 -68.000000 19.000000
vt 0.851562 0.781250
vn 0.923880 -0.382683 -0.000000
v 3.000000 -64.000000 -17.000000
vt 0.132812 -0.187500
vn 1.000000 0.000000 -0.000000
v 3.000000 64.000000 -17.000000
vt 0.132812 0.812500
vn 1.000000 0.000000 -0.000000
v -3.000000 66.750000 17.749996
vt 0.861328 0.833984
vn -1.000000 0.000000 -0.000000
v -3.000000 64.000000 15.000000
vt 0.882812 0.812500
vn -1.000000 0.000000 -0.000000
v -3.000000 64.000000 -17.000000
vt 1.132812 0.812500
vn -1.000000 0.000000 -0.000000
v -3.000000 68.000000 -21.000000
vt 1.164062 0.843750
vn -0.923880 0.382683 -0.000000
v -3.000000 66.750000 -19.750000
vt 1.154297 0.833984
vn -1.000000 0.000000 -0.000000
v -3.000000 68.000000 19.000000
vt 0.851562 0.843750
vn -0.923880 0.382683 -0.000000
v -3.000000 -68.000000 -21.000000
vt 0.164062 -0.218750
vn -0.923880 0.000000 -0.382683
v -3.000000 68.000000 -21.000000
vt 0.164062 0.843750
vn -0.923880 0.000000 -0.382683
v -3.000000 66.750000 -19.750000
vt 0.154297 0.833984
vn -1.000000 0.000000 -0.000000
v -3.000000 -66.750000 -19.750000
vt 0.154297 -0.208984
vn -1.000000 0.000000 -0.000000
v -3.000000 64.000000 -17.000000
vt 0.132812 0.812500
vn -1.000000 0.000000 -0.000000
v -3.000000 -64.000000 -17.000000
vt 0.132812 -0.187500
vn -1.000000 0.000000 -0.000000
v -0.750000 -67.750000 -22.000000
vt 0.025391 -0.216797
vn 0.000000 0.000000 -1.000000
v 0.750000 -67.750000 -22.000000
vt 0.037109 -0.216797
vn 0.000000 0.000000 -1.000000
v 0.750000 67.750000 -22.000000
vt 0.037109 0.841797
vn 0.000000 0.000000 -1.000000
v 2.000000 69.000000 -22.000000
vt 0.046875 0.851562
vn 0.336557 0.475963 -0.812520
v -0.750000 67.750000 -22.000000
vt 0.025391 0.841797
vn 0.000000 0.000000 -1.000000
v 2.000000 -69.000000 -22.000000
vt 0.046875 -0.226562
vn 0.336557 -0.475963 -0.812520
v -2.000000 -69.000000 -22.000000
vt 0.015625 -0.226562
vn -0.336557 -0.475963 -0.812520
v -2.000000 69.000000 -22.000000
vt 0.015625 0.851562
vn -0.336557 0.475963 -0.812520
v -3.000000 -42.000000 19.000000
vt 0.851562 -0.015625
vn -0.862856 0.000000 0.505449
v -3.000000 -43.500000 18.500000
vt 0.855469 -0.027344
vn -1.000000 0.000000 -0.000000
v -3.000000 -42.000000 18.500000
vt 0.855469 -0.015625
vn -1.000000 0.000000 -0.000000
v -3.000000 68.000000 19.000000
vt 0.851562 0.843750
vn -0.923880 0.000000 0.382683
v -3.000000 67.500000 18.500000
vt 0.855469 0.839844
vn -1.000000 0.000000 -0.000000
v -3.000000 -64.000000 15.000000
vt 0.882812 -0.187500
vn -1.000000 0.000000 -0.000000
v -3.000000 -67.500000 18.500000
vt 0.855469 -0.214844
vn -1.000000 0.000000 -0.000000
v -3.000000 -43.500000 19.000000
vt 0.851562 -0.027344
vn -0.862856 0.000000 0.505449
v -3.000000 -68.000000 19.000000
vt 0.851562 -0.218750
vn -0.923880 0.000000 0.382683
v -3.000000 64.000000 15.000000
vt 0.882812 0.812500
vn -1.000000 0.000000 -0.000000
v 2.000000 69.000000 20.000000
vt 0.046875 0.851562
vn 0.336557 0.475963 0.812520
v 0.750000 -42.000000 20.000000
vt 0.037109 -0.015625
vn 0.000000 0.000000 1.000000
v 0.750000 67.750000 20.000000
vt 0.037109 0.841797
vn 0.000000 0.000000 1.000000
v -2.000000 69.000000 20.000000
vt 0.015625 0.851562
vn -0.336557 0.475963 0.812520
v -0.750000 67.750000 20.000000
vt 0.025391 0.841797
vn 0.000000 0.000000 1.000000
v -2.000000 -42.000000 20.000000
vt 0.015625 -0.015625
vn -0.382683 0.000000 0.923880
v -0.750000 -42.000000 20.000000
vt 0.025391 -0.015625
vn 0.000000 0.000000 1.000000
v 2.000000 -42.000000 20.000000
vt 0.046875 -0.015625
vn 0.382683 0.000000 0.923880
v 2.000000 -42.000000 20.000000
vt 0.828125 -0.015625
vn 0.707107 0.000000 0.707107
v 3.000000 68.000000 19.000000
vt 0.835938 0.843750
vn 0.707107 0.000000 0.707107
v 3.000000 -42.000000 19.000000
vt 0.835938 -0.015625
vn 0.707107 0.000000 0.707107
v 2.000000 -69.000000 20.000000
vt 0.828125 0.773438
vn 0.707107 0.000000 0.707107
v 2.000000 -42.000000 20.000000
vt 0.828125 0.984375
vn 0.707107 0.000000 0.707107
v 3.000000 -42.000000 19.000000
vt 0.835938 0.984375
vn 0.707107 0.000000 0.707107
v 3.000000 -68.000000 19.000000
vt 0.835938 0.781250
vn 0.707107 0.000000 0.707107
v 2.000000 69.000000 20.000000
vt 0.828125 0.851562
vn 0.707107 0.000000 0.707107
v -2.408249 -67.884644 -21.591751
vt 0.192123 -0.217849
vn -0.707107 0.000000 -0.707107
v -2.408248 67.884628 -21.591751
vt 0.192123 0.842849
vn -0.707107 0.000000 -0.707107
v -2.591752 67.701141 -21.408249
vt 0.190689 0.841415
vn -0.707107 0.000000 -0.707107
v -2.000000 69.000000 -22.000000
vt 0.195312 0.851562
vn -0.607781 0.303891 -0.733657
v -2.000000 -69.000000 -22.000000
vt 0.195312 -0.226562
vn -0.607781 -0.303891 -0.733657
v -3.000000 -68.000000 -21.000000
vt 0.187500 -0.218750
vn -0.923880 -0.270598 -0.270598
v -2.591752 -67.701126 -21.408249
vt 0.190689 -0.216415
vn -0.707107 0.000000 -0.707107
v -3.000000 68.000000 -21.000000
vt 0.187500 0.843750
vn -0.923880 0.270598 -0.270598
v -3.000000 -68.000000 19.000000
vt 0.828125 0.781250
vn -0.707107 0.000000 0.707107
v -3.000000 -42.000000 19.000000
vt 0.828125 0.984375
vn -0.707107 0.000000 0.707107
v -2.000000 -42.000000 20.000000
vt 0.820312 0.984375
vn -0.707107 0.000000 0.707107
v -2.000000 -69.000000 20.000000
vt 0.820312 0.773438
vn -0.707107 0.000000 0.707107
v -3.000000 -42.000000 19.000000
vt 0.828125 -0.015625
vn -0.707107 0.000000 0.707107
v -3.000000 68.000000 19.000000
vt 0.828125 0.843750
vn -0.707107 0.000000 0.707107
v -2.000000 69.000000 20.000000
vt 0.820312 0.851562
vn -0.707107 0.000000 0.707107
v -2.000000 -42.000000 20.000000
vt 0.820312 -0.015625
vn -0.707107 0.000000 0.707107
v 2.591752 -67.701141 -21.408249
vt 0.182877 -0.216415
vn 0.707107 0.000000 -0.707107
v 2.408249 67.884644 -21.591751
vt 0.184311 0.842849
vn 0.707107 0.000000 -0.707107
v 2.408248 -67.884628 -21.591751
vt 0.184311 -0.217849
vn 0.707107 0.000000 -0.707107
v 2.591752 67.701126 -21.408249
vt 0.182877 0.841415
vn 0.707107 0.000000 -0.707107
v 3.000000 68.000000 -21.000000
vt 0.179688 0.843750
vn 0.923880 0.270598 -0.270598
v 3.000000 -68.000000 -21.000000
vt 0.179688 -0.218750
vn 0.923880 -0.270598 -0.270598
v 2.000000 -69.000000 -22.000000
vt 0.187500 -0.226562
vn 0.607781 -0.303891 -0.733657
v 2.000000 69.000000 -22.000000
vt 0.187500 0.851562
vn 0.607781 0.303891 -0.733657
v -0.750000 69.000000 18.750000
vt 0.025391 -0.146484
vn 0.000000 1.000000 -0.000000
v -0.750000 69.000000 -20.750000
vt 0.025391 0.162109
vn 0.000000 1.000000 -0.000000
v 0.750000 69.000000 -20.750000
vt 0.037109 0.162109
vn 0.000000 1.000000 -0.000000
v 0.750000 69.000000 18.750000
vt 0.037109 -0.146484
vn 0.000000 1.000000 -0.000000
v 2.000000 69.000000 20.000000
vt 0.046875 -0.156250
vn 0.336557 0.812520 0.475963
v 2.000000 69.000000 -22.000000
vt 0.046875 0.171875
vn 0.336557 0.812520 -0.475963
v -2.000000 69.000000 -22.000000
vt 0.015625 0.171875
vn -0.336557 0.812520 -0.475963
v -2.000000 69.000000 20.000000
vt 0.015625 -0.156250
vn -0.336557 0.812520 0.475963
v -0.750000 -69.000000 18.750000
vt 0.025391 -0.146484
vn 0.000000 -1.000000 -0.000000
v 0.750000 -69.000000 -20.750000
vt 0.037109 0.162109
vn 0.000000 -1.000000 -0.000000
v -0.750000 -69.000000 -20.750000
vt 0.025391 0.162109
vn 0.000000 -1.000000 -0.000000
v 0.750000 -69.000000 18.750000
vt 0.037109 -0.146484
vn 0.000000 -1.000000 -0.000000
v 2.000000 -69.000000 -22.000000
vt 0.046875 0.171875
vn 0.336557 -0.812520 -0.475963
v 2.000000 -69.000000 20.000000
vt 0.046875 -0.156250
vn 0.336557 -0.812520 0.475963
v -2.000000 -69.000000 20.000000
vt 0.015625 -0.156250
vn -0.336557 -0.812520 0.475963
v -2.000000 -69.000000 -22.000000
vt 0.015625 0.171875
vn -0.336557 -0.812520 -0.475963
v 3.000000 68.000000 19.000000
vt 0.851562 0.843750
vn 0.923880 0.382683 -0.000000
v 3.000000 66.750000 -19.749996
vt 1.154297 0.833984
vn 1.000000 0.000000 -0.000000
v 3.000000 66.750000 17.750000
vt 0.861328 0.833984
vn 1.000000 0.000000 -0.000000
v 3.000000 64.000000 -17.000000
vt 1.132812 0.812500
vn 1.000000 0.000000 -0.000000
v 3.000000 64.000000 15.000000
vt 0.882812 0.812500
vn 1.000000 0.000000 -0.000000
v 3.000000 68.000000 -21.000000
vt 1.164062 0.843750
vn 0.923880 0.382683 -0.000000
v -3.000000 -64.000000 15.000000
vt 0.882812 0.812500
vn -1.000000 0.000000 -0.000000
v -3.000000 -66.750000 17.750000
vt 0.861328 0.791016
vn -1.000000 0.000000 -0.000000
v -3.000000 -66.750000 -19.749996
vt 1.154297 0.791016
vn -1.000000 0.000000 -0.000000
v -3.000000 -64.000000 -17.000000
vt 1.132812 0.812500
vn -1.000000 0.000000 -0.000000
v -3.000000 -68.000000 19.000000
vt 0.851562 0.781250
vn -0.923880 -0.382683 -0.000000
v -3.000000 -68.000000 -21.000000
vt 1.164062 0.781250
vn -0.923880 -0.382683 -0.000000
v 3.000000 -43.500000 19.000000
vt 0.851562 -0.027344
vn 0.862856 0.000000 0.505449
v 3.000000 -42.000000 19.000000
vt 0.851562 -0.015625
vn 0.862856 0.000000 0.505449
v 3.000000 -42.000000 18.500000
vt 0.855469 -0.015625
vn 1.000000 0.000000 -0.000000
v 3.000000 -43.500000 18.500000
vt 0.855469 -0.027344
vn 1.000000 0.000000 -0.000000
v 3.000000 -68.000000 19.000000
vt 0.851562 -0.218750
vn 0.923880 0.000000 0.382683
v 3.000000 -67.500000 18.500000
vt 0.855469 -0.214844
vn 1.000000 0.000000 -0.000000
v 3.000000 68.000000 19.000000
vt 0.851562 0.843750
vn 0.923880 0.000000 0.382683
v 3.000000 67.499992 18.500000
vt 0.855469 0.839844
vn 1.000000 0.000000 -0.000000
v -2.408249 -68.591751 18.884644
vt 0.004623 -0.147536
vn -0.707107 -0.707107 -0.000000
v -2.408248 -68.591751 -20.884640
vt 0.004623 0.163161
vn -0.707107 -0.707107 -0.000000
v -2.591751 -68.408249 -20.701141
vt 0.003189 0.161728
vn -0.707107 -0.707107 -0.000000
v -2.000000 -69.000000 -22.000000
vt 0.007812 0.171875
vn -0.607781 -0.733657 -0.303891
v -2.000000 -69.000000 20.000000
vt 0.007812 -0.156250
vn -0.607781 -0.733657 0.303891
v -3.000000 -68.000000 19.000000
vt 0.000000 -0.148438
vn -0.923880 -0.270598 0.270598
v -2.591752 -68.408249 18.701138
vt 0.003189 -0.146103
vn -0.707107 -0.707107 -0.000000
v -3.000000 -68.000000 -21.000000
vt 0.000000 0.164062
vn -0.923880 -0.270598 -0.270598
v -2.591751 68.408249 18.701141
vt 0.003189 -0.146103
vn -0.707107 0.707107 -0.000000
v -2.408249 68.591751 -20.884644
vt 0.004623 0.163161
vn -0.707107 0.707107 -0.000000
v -2.408248 68.591751 18.884640
vt 0.004623 -0.147536
vn -0.707107 0.707107 -0.000000
v -2.000000 69.000000 20.000000
vt 0.007812 -0.156250
vn -0.607781 0.733657 0.303891
v -2.000000 69.000000 -22.000000
vt 0.007812 0.171875
vn -0.607781 0.733657 -0.303891
v -3.000000 68.000000 -21.000000
vt 0.000000 0.164062
vn -0.923880 0.270598 -0.270598
v -2.591752 68.408249 -20.701138
vt 0.003189 0.161728
vn -0.707107 0.707107 -0.000000
v -3.000000 68.000000 19.000000
vt 0.000000 -0.148438
vn -0.923880 0.270598 0.270598
v 2.591751 -68.408249 18.701141
vt 0.051498 -0.146103
vn 0.707107 -0.707107 -0.000000
v 2.408249 -68.591751 -20.884644
vt 0.050064 0.163161
vn 0.707107 -0.707107 -0.000000
v 2.408248 -68.591751 18.884640
vt 0.050064 -0.147536
vn 0.707107 -0.707107 -0.000000
v 2.591752 -68.408249 -20.701138
vt 0.051498 0.161728
vn 0.707107 -0.707107 -0.000000
v 2.000000 -69.000000 -22.000000
vt 0.046875 0.171875
vn 0.607781 -0.733657 -0.303891
v 3.000000 -68.000000 -21.000000
vt 0.054688 0.164062
vn 0.923880 -0.270598 -0.270598
v 3.000000 -68.000000 19.000000
vt 0.054688 -0.148438
vn 0.923880 -0.270598 0.270598
v 2.000000 -69.000000 20.000000
vt 0.046875 -0.156250
vn 0.607781 -0.733657 0.303891
v 2.408249 68.591751 18.884644
vt 0.050064 -0.147536
vn 0.707107 0.707107 -0.000000
v 2.408248 68.591751 -20.884640
vt 0.050064 0.163161
vn 0.707107 0.707107 -0.000000
v 2.591751 68.408249 -20.701141
vt 0.051498 0.161728
vn 0.707107 0.707107 -0.000000
v 3.000000 68.000000 -21.000000
vt 0.054688 0.164062
vn 0.923880 0.270598 -0.270598
v 2.591752 68.408249 18.701138
vt 0.051498 -0.146103
vn 0.707107 0.707107 -0.000000
v 2.000000 69.000000 -22.000000
vt 0.046875 0.171875
vn 0.607781 0.733657 -0.303891
v 2.000000 69.000000 20.000000
vt 0.046875 -0.156250
vn 0.607781 0.733657 0.303891
v 3.000000 68.000000 19.000000
vt 0.054688 -0.148438
vn 0.923880 0.270598 0.270598
v 3.000000 -67.500000 18.500000
vt 0.855469 -0.214844
vn 1.000000 0.000000 -0.000000
v 3.000000 67.499992 18.500000
vt 0.855469 0.839844
vn 1.000000 0.000000 -0.000000
v 3.000000 64.000000 15.000000
vt 0.882812 0.812500
vn 1.000000 0.000000 -0.000000
v 3.000000 -64.000000 15.000000
vt 0.882812 -0.187500
vn 1.000000 0.000000 -0.000000
v -1.500000 -43.500000 20.000000
vt 0.019531 0.972656
vn 0.000000 0.000000 1.000000
v -1.500000 -42.000000 20.000000
vt 0.019531 0.984375
vn 0.000000 0.000000 1.000000
v 1.500000 -42.000000 20.000000
vt 0.042969 0.984375
vn 0.000000 0.000000 1.000000
v 1.500000 -43.500000 20.000000
vt 0.042969 0.972656
vn 0.000000 0.000000 1.000000
v 2.000000 -42.000000 20.000000
vt 0.046875 0.984375
vn 0.382683 0.000000 0.923880
v 2.000000 -43.500000 20.000000
vt 0.046875 0.972656
vn 0.382683 0.000000 0.923880
v -2.000000 -43.500000 20.000000
vt 0.015625 0.972656
vn -0.382683 0.000000 0.923880
v -2.000000 -42.000000 20.000000
vt 0.015625 0.984375
vn -0.382683 0.000000 0.923880
v -1.750000 -43.000000 20.000000
vt 0.843750 0.667969
vn -1.000000 0.000000 -0.000000
v -1.750000 -42.500000 20.000000
vt 0.843750 0.671875
vn -1.000000 0.000000 -0.000000
v -1.750000 -42.500000 32.000000
vt 0.750000 0.671875
vn -1.000000 0.000000 -0.000000
v -1.750000 -43.000000 32.000000
vt 0.750000 0.667969
vn -1.000000 0.000000 -0.000000
v -1.750000 -43.500000 32.000000
vt 0.750000 0.664062
vn -0.923880 -0.382683 -0.000000
v -1.750000 -43.500000 20.000000
vt 0.843750 0.664062
vn -0.923880 -0.382683 -0.000000
v -1.750000 -42.000000 20.000000
vt 0.843750 0.675781
vn -0.923880 0.382683 -0.000000
v -1.750000 -42.000000 32.000000
vt 0.750000 0.675781
vn -0.923880 0.382683 -0.000000
v -0.250000 -44.500000 32.000000
vt 0.031250 0.750000
vn 0.000000 -1.000000 -0.000000
v 0.250000 -44.500000 32.000000
vt 0.035156 0.750000
vn 0.000000 -1.000000 -0.000000
v 0.250000 -44.500000 20.000000
vt 0.035156 0.843750
vn 0.000000 -1.000000 -0.000000
v 0.750000 -44.500000 32.000000
vt 0.039062 0.750000
vn 0.382683 -0.923880 -0.000000
v 0.750000 -44.500000 20.000000
vt 0.039062 0.843750
vn 0.382683 -0.923880 -0.000000
v -0.750000 -44.500000 20.000000
vt 0.027344 0.843750
vn -0.382683 -0.923880 -0.000000
v -0.750000 -44.500000 32.000000
vt 0.027344 0.750000
vn -0.382683 -0.923880 -0.000000
v -0.250000 -44.500000 20.000000
vt 0.031250 0.843750
vn 0.000000 -1.000000 -0.000000
v 1.750000 -42.500000 20.000000
vt 0.843750 0.671875
vn 1.000000 0.000000 -0.000000
v 1.750000 -43.000000 32.000000
vt 0.750000 0.667969
vn 1.000000 0.000000 -0.000000
v 1.750000 -42.500000 32.000000
vt 0.750000 0.671875
vn 1.000000 0.000000 -0.000000
v 1.750000 -42.000000 32.000000
vt 0.750000 0.675781
vn 0.923880 0.382683 -0.000000
v 1.750000 -42.000000 20.000000
vt 0.843750 0.675781
vn 0.923880 0.382683 -0.000000
v 1.750000 -43.500000 20.000000
vt 0.843750 0.664062
vn 0.923880 -0.382683 -0.000000
v 1.750000 -43.500000 32.000000
vt 0.750000 0.664062
vn 0.923880 -0.382683 -0.000000
v 1.750000 -43.000000 20.000000
vt 0.843750 0.667969
vn 1.000000 0.000000 -0.000000
v -0.250000 -41.000000 32.000000
vt 0.031250 0.750000
vn 0.000000 1.000000 -0.000000
v 0.250000 -41.000000 20.000000
vt 0.035156 0.843750
vn 0.000000 1.000000 -0.000000
v 0.250000 -41.000000 32.000000
vt 0.035156 0.750000
vn 0.000000 1.000000 -0.000000
v -0.250000 -41.000000 20.000000
vt 0.031250 0.843750
vn 0.000000 1.000000 -0.000000
v -0.750000 -41.000000 32.000000
vt 0.027344 0.750000
vn -0.382683 0.923880 -0.000000
v -0.750000 -41.000000 20.000000
vt 0.027344 0.843750
vn -0.382683 0.923880 -0.000000
v 0.750000 -41.000000 20.000000
vt 0.039062 0.843750
vn 0.382683 0.923880 -0.000000
v 0.750000 -41.000000 32.000000
vt 0.039062 0.750000
vn 0.382683 0.923880 -0.000000
v -0.750000 -44.500000 32.000000
vt 0.027344 0.750000
vn -0.707107 -0.707107 -0.000000
v -1.750000 -43.500000 20.000000
vt 0.019531 0.843750
vn -0.707107 -0.707107 -0.000000
v -1.750000 -43.500000 32.000000
vt 0.019531 0.750000
vn -0.707107 -0.707107 -0.000000
v -0.750000 -44.500000 20.000000
vt 0.027344 0.843750
vn -0.707107 -0.707107 -0.000000
v 1.750000 -43.500000 32.000000
vt 0.046875 0.750000
vn 0.707107 -0.707107 -0.000000
v 1.750000 -43.500000 20.000000
vt 0.046875 0.843750
vn 0.707107 -0.707107 -0.000000
v 0.750000 -44.500000 20.000000
vt 0.039062 0.843750
vn 0.707107 -0.707107 -0.000000
v 0.750000 -44.500000 32.000000
vt 0.039062 0.750000
vn 0.707107 -0.707107 -0.000000
v 0.750000 -41.000000 32.000000
vt 0.039062 0.750000
vn 0.707107 0.707107 -0.000000
v 0.750000 -41.000000 20.000000
vt 0.039062 0.843750
vn 0.707107 0.707107 -0.000000
v 1.750000 -42.000000 20.000000
vt 0.046875 0.843750
vn 0.707107 0.707107 -0.000000
v 1.750000 -42.000000 32.000000
vt 0.046875 0.750000
vn 0.707107 0.707107 -0.000000
v -1.750000 -42.000000 32.000000
vt 0.019531 0.750000
vn -0.707107 0.707107 -0.000000
v -0.750000 -41.000000 20.000000
vt 0.027344 0.843750
vn -0.707107 0.707107 -0.000000
v -0.750000 -41.000000 32.000000
vt 0.027344 0.750000
vn -0.707107 0.707107 -0.000000
v -1.750000 -42.000000 20.000000
vt 0.019531 0.843750
vn -0.707107 0.707107 -0.000000
f 319/319/319 321/321/321 320/320/320
f 319/319/319 322/322/322 321/321/321
f 323/323/323 319/319/319 328/328/328
f 323/323/323 322/322/322 319/319/319
f 453/453/453 454/454/454 456/456/456
f 453/453/453 455/455/455 454/454/454
f 460/460/460 453/453/453 459/459/459
f 460/460/460 455/455/455 453/453/453
f 457/457/457 455/455/455 460/460/460
f 457/457/457 454/454/454 455/455/455
f 458/458/458 454/454/454 457/457/457
f 458/458/458 456/456/456 454/454/454
f 459/459/459 456/456/456 458/458/458
f 459/459/459 453/453/453 456/456/456
f 469/469/469 471/471/471 470/470/470
f 469/469/469 472/472/472 471/471/471
f 433/433/433 432/432/432 429/429/429
f 433/433/433 434/434/434 432/432/432
f 429/429/429 431/431/431 430/430/430
f 429/429/429 432/432/432 431/431/431
f 430/430/430 436/436/436 435/435/435
f 430/430/430 431/431/431 436/436/436
f 329/329/329 327/327/327 330/330/330
f 329/329/329 326/326/326 327/327/327
f 324/324/324 326/326/326 325/325/325
f 324/324/324 327/327/327 326/326/326
f 393/393/393 394/394/394 396/396/396
f 393/393/393 395/395/395 394/394/394
f 400/400/400 395/395/395 399/399/399
f 400/400/400 394/394/394 395/395/395
f 398/398/398 396/396/396 397/397/397
f 398/398/398 393/393/393 396/396/396
f 397/397/397 394/394/394 400/400/400
f 397/397/397 396/396/396 394/394/394
f 399/399/399 393/393/393 398/398/398
f 399/399/399 395/395/395 393/393/393
f 369/369/369 370/370/370 376/376/376
f 369/369/369 371/371/371 370/370/370
f 372/372/372 374/374/374 373/373/373
f 372/372/372 375/375/375 374/374/374
f 409/409/409 410/410/410 412/412/412
f 409/409/409 411/411/411 410/410/410
f 415/415/415 412/412/412 414/414/414
f 415/415/415 409/409/409 412/412/412
f 416/416/416 409/409/409 415/415/415
f 416/416/416 411/411/411 409/409/409
f 413/413/413 411/411/411 416/416/416
f 413/413/413 410/410/410 411/411/411
f 414/414/414 410/410/410 413/413/413
f 414/414/414 412/412/412 410/410/410
f 343/343/343 345/345/345 344/344/344
f 343/343/343 347/347/347 345/345/345
f 350/350/350 343/343/343 349/349/349
f 350/350/350 347/347/347 343/343/343
f 346/346/346 347/347/347 350/350/350
f 346/346/346 345/345/345 347/347/347
f 349/349/349 344/344/344 348/348/348
f 349/349/349 343/343/343 344/344/344
f 348/348/348 345/345/345 346/346/346
f 348/348/348 344/344/344 345/345/345
f 367/367/367 363/363/363 365/365/365
f 367/367/367 362/362/362 363/363/363
f 366/366/366 365/365/365 364/364/364
f 366/366/366 367/367/367 365/365/365
f 361/361/361 362/362/362 368/368/368
f 361/361/361 363/363/363 362/362/362
f 364/364/364 363/363/363 361/361/361
f 364/364/364 365/365/365 363/363/363
f 313/313/313 316/316/316 317/317/317
f 313/313/313 314/314/314 316/316/316
f 315/315/315 314/314/314 311/311/311
f 315/315/315 316/316/316 314/314/314
f 312/312/312 317/317/317 318/318/318
f 312/312/312 313/313/313 317/317/317
f 311/311/311 313/313/313 312/312/312
f 311/311/311 314/314/314 313/313/313
f 473/473/473 475/475/475 474/474/474
f 473/473/473 476/476/476 475/475/475
f 479/479/479 474/474/474 480/480/480
f 479/479/479 473/473/473 474/474/474
f 477/477/477 476/476/476 478/478/478
f 477/477/477 475/475/475 476/476/476
f 419/419/419 420/420/420 418/418/418
f 419/419/419 421/421/421 420/420/420
f 417/417/417 418/418/418 422/422/422
f 417/417/417 419/419/419 418/418/418
f 461/461/461 463/463/463 462/462/462
f 461/461/461 465/465/465 463/463/463
f 468/468/468 461/461/461 467/467/467
f 468/468/468 465/465/465 461/461/461
f 467/467/467 462/462/462 466/466/466
f 467/467/467 461/461/461 462/462/462
f 466/466/466 463/463/463 464/464/464
f 466/466/466 462/462/462 463/463/463
f 464/464/464 465/465/465 468/468/468
f 464/464/464 463/463/463 465/465/465
f 401/401/401 403/403/403 402/402/402
f 401/401/401 404/404/404 403/403/403
f 405/405/405 401/401/401 408/408/408
f 405/405/405 404/404/404 401/401/401
f 408/408/408 402/402/402 407/407/407
f 408/408/408 401/401/401 402/402/402
f 407/407/407 403/403/403 406/406/406
f 407/407/407 402/402/402 403/403/403
f 406/406/406 404/404/404 405/405/405
f 406/406/406 403/403/403 404/404/404
f 437/437/437 439/439/439 438/438/438
f 437/437/437 443/443/443 439/439/439
f 442/442/442 437/437/437 441/441/441
f 442/442/442 443/443/443 437/437/437
f 440/440/440 439/439/439 444/444/444
f 440/440/440 438/438/438 439/439/439
f 444/444/444 443/443/443 442/442/442
f 444/444/444 439/439/439 443/443/443
f 441/441/441 438/438/438 440/440/440
f 441/441/441 437/437/437 438/438/438
f 377/377/377 379/379/379 378/378/378
f 377/377/377 383/383/383 379/379/379
f 384/384/384 383/383/383 382/382/382
f 384/384/384 379/379/379 383/383/383
f 380/380/380 379/379/379 384/384/384
f 380/380/380 378/378/378 379/379/379
f 382/382/382 377/377/377 381/381/381
f 382/382/382 383/383/383 377/377/377
f 381/381/381 378/378/378 380/380/380
f 381/381/381 377/377/377 378/378/378
f 385/385/385 387/387/387 386/386/386
f 385/385/385 388/388/388 387/387/387
f 389/389/389 391/391/391 390/390/390
f 389/389/389 392/392/392 391/391/391
f 445/445/445 446/446/446 451/451/451
f 445/445/445 447/447/447 446/446/446
f 448/448/448 445/445/445 452/452/452
f 448/448/448 447/447/447 445/445/445
f 450/450/450 446/446/446 449/449/449
f 450/450/450 451/451/451 446/446/446
f 452/452/452 451/451/451 450/450/450
f 452/452/452 445/445/445 451/451/451
f 449/449/449 447/447/447 448/448/448
f 449/449/449 446/446/446 447/447/447
f 481/481/481 483/483/483 482/482/482
f 481/481/481 484/484/484 483/483/483
f 485/485/485 481/481/481 486/486/486
f 485/485/485 484/484/484 481/481/481
f 487/487/487 483/483/483 488/488/488
f 487/487/487 482/482/482 483/483/483
f 497/497/497 498/498/498 504/504/504
f 497/497/497 499/499/499 498/498/498
f 500/500/500 497/497/497 501/501/501
f 500/500/500 499/499/499 497/497/497
f 502/502/502 498/498/498 503/503/503
f 502/502/502 504/504/504 498/498/498
f 489/489/489 491/491/491 490/490/490
f 489/489/489 496/496/496 491/491/491
f 494/494/494 489/489/489 495/495/495
f 494/494/494 496/496/496 489/489/489
f 492/492/492 491/491/491 493/493/493
f 492/492/492 490/490/490 491/491/491
f 505/505/505 506/506/506 508/508/508
f 505/505/505 507/507/507 506/506/506
f 511/511/511 507/507/507 512/512/512
f 511/511/511 506/506/506 507/507/507
f 509/509/509 508/508/508 510/510/510
f 509/509/509 505/505/505 508/508/508
f 525/525/525 526/526/526 528/528/528
f 525/525/525 527/527/527 526/526/526
f 517/517/517 519/519/519 518/518/518
f 517/517/517 520/520/520 519/519/519
f 521/521/521 523/523/523 522/522/522
f 521/521/521 524/524/524 523/523/523
f 513/513/513 514/514/514 516/516/516
f 513/513/513 515/515/515 514/514/514
f 423/423/423 425/425/425 424/424/424
f 423/423/423 426/426/426 425/425/425
f 427/427/427 425/425/425 428/428/428
f 427/427/427 424/424/424 425/425/425
f 356/356/356 355/355/355 360/360/360
f 356/356/356 353/353/353 355/355/355
f 356/356/356 352/352/352 353/353/353
f 356/356/356 357/357/357 352/352/352
f 354/354/354 353/353/353 351/351/351
f 354/354/354 355/355/355 353/353/353
f 351/351/351 352/352/352 358/358/358
f 351/351/351 353/353/353 352/352/352
f 358/358/358 357/357/357 359/359/359
f 358/358/358 352/352/352 357/357/357
f 340/340/340 341/341/341 339/339/339
f 340/340/340 342/342/342 341/341/341
f 337/337/337 339/339/339 338/338/338
f 337/337/337 340/340/340 339/339/339
f 331/331/331 333/333/333 332/332/332
f 331/331/331 335/335/335 333/333/333
f 334/334/334 331/331/331 336/336/336
f 334/334/334 335/335/335 331/331/331
g mat2m0s18
usemtl textures/plastic/grey75
v -1.500000 46.000000 32.000000
vt 0.515625 0.000000
vn -0.707107 0.707107 -0.000000
v -0.500000 47.000000 20.000000
vt 0.523438 0.093750
vn -0.707107 0.707107 -0.000000
v -0.500000 47.000000 32.000000
vt 0.523438 0.000000
vn -0.707107 0.707107 -0.000000
v -1.500000 46.000000 20.000000
vt 0.515625 0.093750
vn -0.707107 0.707107 -0.000000
v -0.500000 44.000000 32.000000
vt 0.523438 0.000000
vn -0.707107 -0.707107 -0.000000
v -0.500000 44.000000 20.000000
vt 0.523438 0.093750
vn -0.707107 -0.707107 -0.000000
v -1.500000 45.000000 20.000000
vt 0.515625 0.093750
vn -0.707107 -0.707107 -0.000000
v -1.500000 45.000000 32.000000
vt 0.515625 0.000000
vn -0.707107 -0.707107 -0.000000
v 1.500000 45.000000 32.000000
vt 0.546875 0.000000
vn 0.707107 -0.707107 -0.000000
v 0.500000 44.000000 20.000000
vt 0.539062 0.093750
vn 0.707107 -0.707107 -0.000000
v 0.500000 44.000000 32.000000
vt 0.539062 0.000000
vn 0.707107 -0.707107 -0.000000
v 1.500000 45.000000 20.000000
vt 0.546875 0.093750
vn 0.707107 -0.707107 -0.000000
v 0.500000 47.000000 32.000000
vt 0.539062 0.000000
vn 0.707107 0.707107 -0.000000
v 0.500000 47.000000 20.000000
vt 0.539062 0.093750
vn 0.707107 0.707107 -0.000000
v 1.500000 46.000000 20.000000
vt 0.546875 0.093750
vn 0.707107 0.707107 -0.000000
v 1.500000 46.000000 32.000000
vt 0.546875 0.000000
vn 0.707107 0.707107 -0.000000
v -1.500000 45.000000 20.000000
vt 0.093750 0.789062
vn -1.000000 0.000000 -0.000000
v -1.500000 46.000000 32.000000
vt 0.000000 0.796875
vn -1.000000 0.000000 -0.000000
v -1.500000 45.000000 32.000000
vt 0.000000 0.789062
vn -1.000000 0.000000 -0.000000
v -1.500000 46.000000 20.000000
vt 0.093750 0.796875
vn -1.000000 0.000000 -0.000000
v -0.500000 44.000000 32.000000
vt 0.531250 0.000000
vn 0.000000 -1.000000 -0.000000
v 0.500000 44.000000 32.000000
vt 0.539062 0.000000
vn 0.000000 -1.000000 -0.000000
v 0.500000 44.000000 20.000000
vt 0.539062 0.093750
vn 0.000000 -1.000000 -0.000000
v -0.500000 44.000000 20.000000
vt 0.531250 0.093750
vn 0.000000 -1.000000 -0.000000
v 1.500000 46.000000 20.000000
vt 0.093750 0.796875
vn 1.000000 0.000000 -0.000000
v 1.500000 45.000000 32.000000
vt 0.000000 0.789062
vn 1.000000 0.000000 -0.000000
v 1.500000 46.000000 32.000000
vt 0.000000 0.796875
vn 1.000000 0.000000 -0.000000
v 1.500000 45.000000 20.000000
vt 0.093750 0.789062
vn 1.000000 0.000000 -0.000000
v -0.500000 47.000000 32.000000
vt 0.531250 0.000000
vn 0.000000 1.000000 -0.000000
v -0.500000 47.000000 20.000000
vt 0.531250 0.093750
vn 0.000000 1.000000 -0.000000
v 0.500000 47.000000 20.000000
vt 0.539062 0.093750
vn 0.000000 1.000000 -0.000000
v 0.500000 47.000000 32.000000
vt 0.539062 0.000000
vn 0.000000 1.000000 -0.000000
f 545/545/545 546/546/546 548/548/548
f 545/545/545 547/547/547 546/546/546
f 529/529/529 530/530/530 532/532/532
f 529/529/529 531/531/531 530/530/530
f 533/533/533 535/535/535 534/534/534
f 533/533/533 536/536/536 535/535/535
f 557/557/557 559/559/559 558/558/558
f 557/557/557 560/560/560 559/559/559
f 549/549/549 551/551/551 550/550/550
f 549/549/549 552/552/552 551/551/551
f 541/541/541 543/543/543 542/542/542
f 541/541/541 544/544/544 543/543/543
f 537/537/537 538/538/538 540/540/540
f 537/537/537 539/539/539 538/538/538
f 553/553/553 554/554/554 556/556/556
f 553/553/553 555/555/555 554/554/554
