# Generated by makebsp -bsp2obj
# Source: C:/Users/German/Documents/My Games/Warfork 2.1/basewf/models/mapobjects/wdm5/sewerGrateShort
# Axis swap: Q3 Z-up -> OBJ Y-up (X=X, Y=Z, Z=-Y)
o sewerGrateShort
mtllib sewerGrateShort.mtl
g mat0m0s8
usemtl textures/plastic_vertex/vertex_grey65
v -32.000000 -9.000000 -26.000000
vt 0.875016 0.828122
vn 0.000000 -0.707107 -0.707107
v 32.000000 -9.000000 -26.000000
vt 1.374984 0.828122
vn 0.000000 -0.707107 -0.707107
v 32.000000 -7.000000 -28.000000
vt 1.374984 0.843746
vn 0.000000 -0.707107 -0.707107
v -32.000000 -7.000000 -28.000000
vt 0.875016 0.843746
vn 0.000000 -0.707107 -0.707107
f 4/4/4 3/3/3 1/1/1
f 3/3/3 2/2/2 1/1/1
g mat0m0s9
usemtl textures/plastic_vertex/vertex_grey65
v -32.000000 -7.000000 -28.000000
vt 0.875016 0.843743
vn 0.000000 0.707107 -0.707107
v 32.000000 -7.000000 -28.000000
vt 1.374984 0.843743
vn 0.000000 0.707107 -0.707107
v 32.000000 -5.000000 -26.000000
vt 1.374984 0.828119
vn 0.000000 0.707107 -0.707107
v -32.000000 -5.000000 -26.000000
vt 0.875016 0.828119
vn 0.000000 0.707107 -0.707107
f 8/8/8 7/7/7 5/5/5
f 7/7/7 6/6/6 5/5/5
g mat0m0s10
usemtl textures/plastic_vertex/vertex_grey65
v -27.500000 -21.000000 -26.000000
vt 0.910170 0.828124
vn 0.000000 -0.707107 -0.707107
v 27.500000 -21.000000 -26.000000
vt 1.339830 0.828124
vn 0.000000 -0.707107 -0.707107
v 27.500000 -19.000000 -28.000000
vt 1.339830 0.843749
vn 0.000000 -0.707107 -0.707107
v -27.500000 -19.000000 -28.000000
vt 0.910170 0.843749
vn 0.000000 -0.707107 -0.707107
f 12/12/12 11/11/11 9/9/9
f 11/11/11 10/10/10 9/9/9
g mat0m0s11
usemtl textures/plastic_vertex/vertex_grey65
v -27.500000 -19.000000 -28.000000
vt 0.910170 0.843741
vn 0.000000 0.707107 -0.707107
v 27.500000 -19.000000 -28.000000
vt 1.339830 0.843741
vn 0.000000 0.707107 -0.707107
v 27.500000 -17.000000 -26.000000
vt 1.339830 0.828116
vn 0.000000 0.707107 -0.707107
v -27.500000 -17.000000 -26.000000
vt 0.910170 0.828116
vn 0.000000 0.707107 -0.707107
f 16/16/16 15/15/15 13/13/13
f 15/15/15 14/14/14 13/13/13
g mat0m0s12
usemtl textures/plastic_vertex/vertex_grey65
v -32.000000 13.000000 -26.000000
vt 0.875016 0.828117
vn 0.000000 -0.707107 -0.707107
v 32.000000 13.000000 -26.000000
vt 1.374984 0.828117
vn 0.000000 -0.707107 -0.707107
v 32.000000 15.000000 -28.000000
vt 1.374984 0.843741
vn 0.000000 -0.707107 -0.707107
v -32.000000 15.000000 -28.000000
vt 0.875016 0.843742
vn 0.000000 -0.707107 -0.707107
f 20/20/20 19/19/19 17/17/17
f 19/19/19 18/18/18 17/17/17
g mat0m0s13
usemtl textures/plastic_vertex/vertex_grey65
v -32.000000 15.000000 -28.000000
vt 0.875016 0.843748
vn 0.000000 0.707107 -0.707107
v 32.000000 15.000000 -28.000000
vt 1.374984 0.843748
vn 0.000000 0.707107 -0.707107
v 32.000000 17.000000 -26.000000
vt 1.374984 0.828124
vn 0.000000 0.707107 -0.707107
v -32.000000 17.000000 -26.000000
vt 0.875016 0.828124
vn 0.000000 0.707107 -0.707107
f 24/24/24 23/23/23 21/21/21
f 23/23/23 22/22/22 21/21/21
g mat0m0s14
usemtl textures/plastic_vertex/vertex_grey65
v -32.000000 2.000000 -26.000000
vt 0.875016 0.828120
vn 0.000000 -0.707107 -0.707107
v 32.000000 2.000000 -26.000000
vt 1.374984 0.828120
vn 0.000000 -0.707107 -0.707107
v 32.000000 4.000000 -28.000000
vt 1.374984 0.843744
vn 0.000000 -0.707107 -0.707107
v -32.000000 4.000000 -28.000000
vt 0.875016 0.843744
vn 0.000000 -0.707107 -0.707107
f 28/28/28 27/27/27 25/25/25
f 27/27/27 26/26/26 25/25/25
g mat0m0s15
usemtl textures/plastic_vertex/vertex_grey65
v -32.000000 4.000000 -28.000000
vt 0.875016 0.843745
vn 0.000000 0.707107 -0.707107
v 32.000000 4.000000 -28.000000
vt 1.374984 0.843745
vn 0.000000 0.707107 -0.707107
v 32.000000 6.000000 -26.000000
vt 1.374984 0.828121
vn 0.000000 0.707107 -0.707107
v -32.000000 6.000000 -26.000000
vt 0.875016 0.828121
vn 0.000000 0.707107 -0.707107
f 32/32/32 31/31/31 29/29/29
f 31/31/31 30/30/30 29/29/29
g mat0m0s16
usemtl textures/plastic_vertex/vertex_grey65
v -27.500000 25.000000 -26.000000
vt 0.910170 0.828115
vn 0.000000 -0.707107 -0.707107
v 27.500000 25.000000 -26.000000
vt 1.339830 0.828115
vn 0.000000 -0.707107 -0.707107
v 27.500000 27.000000 -28.000000
vt 1.339830 0.843739
vn 0.000000 -0.707107 -0.707107
v -27.500000 27.000000 -28.000000
vt 0.910170 0.843739
vn 0.000000 -0.707107 -0.707107
f 36/36/36 35/35/35 33/33/33
f 35/35/35 34/34/34 33/33/33
g mat0m0s17
usemtl textures/plastic_vertex/vertex_grey65
v -27.500000 27.000000 -28.000000
vt 0.910170 0.843750
vn 0.000000 0.707107 -0.707107
v 27.500000 27.000000 -28.000000
vt 1.339830 0.843750
vn 0.000000 0.707107 -0.707107
v 27.500000 29.000000 -26.000000
vt 1.339830 0.828126
vn 0.000000 0.707107 -0.707107
v -27.500000 29.000000 -26.000000
vt 0.910170 0.828126
vn 0.000000 0.707107 -0.707107
f 40/40/40 39/39/39 37/37/37
f 39/39/39 38/38/38 37/37/37
g mat1m0s18
usemtl textures/exwsw/eXmetalrib01
v 0.000000 44.000000 -32.000000
vt 0.000000 1.000000
vn 0.000000 0.000000 -1.000000
v -7.500000 35.500000 -32.000000
vt 0.031250 0.955810
vn 0.000000 0.000000 -1.000000
v 0.000000 36.000000 -32.000000
vt 0.000000 0.955810
vn 0.000000 0.000000 -1.000000
v 9.375000 43.375000 -32.000000
vt 0.218750 1.000000
vn 0.000000 0.000000 -1.000000
v 0.000000 44.000000 -32.000000
vt 0.250000 1.000000
vn 0.000000 0.000000 -1.000000
v 0.000000 36.000000 -32.000000
vt 0.250000 0.955810
vn 0.000000 0.000000 -1.000000
v 7.500000 35.500000 -32.000000
vt 0.218750 0.955810
vn 0.000000 0.000000 -1.000000
v 17.500000 41.500000 -32.000000
vt 0.187500 1.000000
vn 0.000000 0.000000 -1.000000
v 14.000000 34.000000 -32.000000
vt 0.187500 0.955810
vn 0.000000 0.000000 -1.000000
v 24.375000 38.375000 -32.000000
vt 0.156250 1.000000
vn 0.000000 0.000000 -1.000000
v 19.500000 31.500000 -32.000000
vt 0.156250 0.955810
vn 0.000000 0.000000 -1.000000
v 30.000000 34.000000 -32.000000
vt 0.125000 1.000000
vn 0.000000 0.000000 -1.000000
v 24.000000 28.000000 -32.000000
vt 0.125000 0.955810
vn 0.000000 0.000000 -1.000000
v 34.375000 28.375000 -32.000000
vt 0.093750 1.000000
vn 0.000000 0.000000 -1.000000
v 27.500000 23.500000 -32.000000
vt 0.093750 0.955810
vn 0.000000 0.000000 -1.000000
v 37.500000 21.500000 -32.000000
vt 0.062500 1.000000
vn 0.000000 0.000000 -1.000000
v 30.000000 18.000000 -32.000000
vt 0.062500 0.955810
vn 0.000000 0.000000 -1.000000
v 39.375000 13.375000 -32.000000
vt 0.031250 1.000000
vn 0.000000 0.000000 -1.000000
v 31.500000 11.500000 -32.000000
vt 0.031250 0.955810
vn 0.000000 0.000000 -1.000000
v 40.000000 4.000000 -32.000000
vt 0.000000 1.000000
vn 0.000000 0.000000 -1.000000
v 32.000000 4.000000 -32.000000
vt 0.000000 0.955810
vn 0.000000 0.000000 -1.000000
v 39.375000 -5.375000 -32.000000
vt 0.218750 1.000000
vn 0.000000 0.000000 -1.000000
v 40.000000 4.000000 -32.000000
vt 0.250000 1.000000
vn 0.000000 0.000000 -1.000000
v 32.000000 4.000000 -32.000000
vt 0.250000 0.955810
vn 0.000000 0.000000 -1.000000
v 31.500000 -3.500000 -32.000000
vt 0.218750 0.955810
vn 0.000000 0.000000 -1.000000
v 37.500000 -13.500000 -32.000000
vt 0.187500 1.000000
vn 0.000000 0.000000 -1.000000
v 30.000000 -10.000000 -32.000000
vt 0.187500 0.955810
vn 0.000000 0.000000 -1.000000
v 34.375000 -20.375000 -32.000000
vt 0.156250 1.000000
vn 0.000000 0.000000 -1.000000
v 27.500000 -15.500000 -32.000000
vt 0.156250 0.955810
vn 0.000000 0.000000 -1.000000
v 30.000000 -26.000000 -32.000000
vt 0.125000 1.000000
vn 0.000000 0.000000 -1.000000
v 24.000000 -20.000000 -32.000000
vt 0.125000 0.955810
vn 0.000000 0.000000 -1.000000
v 24.375000 -30.375000 -32.000000
vt 0.093750 1.000000
vn 0.000000 0.000000 -1.000000
v 19.500000 -23.500000 -32.000000
vt 0.093750 0.955810
vn 0.000000 0.000000 -1.000000
v 17.500000 -33.500000 -32.000000
vt 0.062500 1.000000
vn 0.000000 0.000000 -1.000000
v 14.000000 -26.000000 -32.000000
vt 0.062500 0.955810
vn 0.000000 0.000000 -1.000000
v 9.375000 -35.375000 -32.000000
vt 0.031250 1.000000
vn 0.000000 0.000000 -1.000000
v 7.500000 -27.500000 -32.000000
vt 0.031250 0.955810
vn 0.000000 0.000000 -1.000000
v 0.000000 -36.000000 -32.000000
vt 0.000000 1.000000
vn 0.000000 0.000000 -1.000000
v 0.000000 -28.000000 -32.000000
vt 0.000000 0.955810
vn 0.000000 0.000000 -1.000000
v -9.375000 -35.375000 -32.000000
vt 0.218750 1.000000
vn 0.000000 0.000000 -1.000000
v 0.000000 -36.000000 -32.000000
vt 0.250000 1.000000
vn 0.000000 0.000000 -1.000000
v 0.000000 -28.000000 -32.000000
vt 0.250000 0.955810
vn 0.000000 0.000000 -1.000000
v -7.500000 -27.500000 -32.000000
vt 0.218750 0.955810
vn 0.000000 0.000000 -1.000000
v -17.500000 -33.500000 -32.000000
vt 0.187500 1.000000
vn 0.000000 0.000000 -1.000000
v -14.000000 -26.000000 -32.000000
vt 0.187500 0.955810
vn 0.000000 0.000000 -1.000000
v -24.375000 -30.375000 -32.000000
vt 0.156250 1.000000
vn 0.000000 0.000000 -1.000000
v -19.500000 -23.500000 -32.000000
vt 0.156250 0.955810
vn 0.000000 0.000000 -1.000000
v -30.000000 -26.000000 -32.000000
vt 0.125000 1.000000
vn 0.000000 0.000000 -1.000000
v -24.000000 -20.000000 -32.000000
vt 0.125000 0.955810
vn 0.000000 0.000000 -1.000000
v -34.375000 -20.375000 -32.000000
vt 0.093750 1.000000
vn 0.000000 0.000000 -1.000000
v -27.500000 -15.500000 -32.000000
vt 0.093750 0.955810
vn 0.000000 0.000000 -1.000000
v -37.500000 -13.500000 -32.000000
vt 0.062500 1.000000
vn 0.000000 0.000000 -1.000000
v -30.000000 -10.000000 -32.000000
vt 0.062500 0.955810
vn 0.000000 0.000000 -1.000000
v -39.375000 -5.375000 -32.000000
vt 0.031250 1.000000
vn 0.000000 0.000000 -1.000000
v -31.500000 -3.500000 -32.000000
vt 0.031250 0.955810
vn 0.000000 0.000000 -1.000000
v -40.000000 4.000000 -32.000000
vt 0.000000 1.000000
vn 0.000000 0.000000 -1.000000
v -32.000000 4.000000 -32.000000
vt 0.000000 0.955810
vn 0.000000 0.000000 -1.000000
v -39.375000 13.375000 -32.000000
vt 0.218750 1.000000
vn 0.000000 0.000000 -1.000000
v -40.000000 4.000000 -32.000000
vt 0.250000 1.000000
vn 0.000000 0.000000 -1.000000
v -32.000000 4.000000 -32.000000
vt 0.250000 0.955810
vn 0.000000 0.000000 -1.000000
v -31.500000 11.500000 -32.000000
vt 0.218750 0.955810
vn 0.000000 0.000000 -1.000000
v -37.500000 21.500000 -32.000000
vt 0.187500 1.000000
vn 0.000000 0.000000 -1.000000
v -30.000000 18.000000 -32.000000
vt 0.187500 0.955810
vn 0.000000 0.000000 -1.000000
v -34.375000 28.375000 -32.000000
vt 0.156250 1.000000
vn 0.000000 0.000000 -1.000000
v -27.500000 23.500000 -32.000000
vt 0.156250 0.955810
vn 0.000000 0.000000 -1.000000
v -30.000000 34.000000 -32.000000
vt 0.125000 1.000000
vn 0.000000 0.000000 -1.000000
v -24.000000 28.000000 -32.000000
vt 0.125000 0.955810
vn 0.000000 0.000000 -1.000000
v -24.375000 38.375000 -32.000000
vt 0.093750 1.000000
vn 0.000000 0.000000 -1.000000
v -19.500000 31.500000 -32.000000
vt 0.093750 0.955810
vn 0.000000 0.000000 -1.000000
v -17.500000 41.500000 -32.000000
vt 0.062500 1.000000
vn 0.000000 0.000000 -1.000000
v -14.000000 34.000000 -32.000000
vt 0.062500 0.955810
vn 0.000000 0.000000 -1.000000
v -9.375000 43.375000 -32.000000
vt 0.031250 1.000000
vn 0.000000 0.000000 -1.000000
v 7.500000 35.500000 12.000000
vt 0.968750 1.000000
vn -0.160182 -0.987088 -0.000000
v 0.000000 36.000000 -32.000000
vt 1.000000 1.171880
vn 0.000000 -1.000000 -0.000000
v 0.000000 36.000000 12.000000
vt 1.000000 1.000000
vn 0.000000 -1.000000 -0.000000
v 7.500000 35.500000 -32.000000
vt 0.968750 1.171880
vn -0.160182 -0.987088 0.000000
v 14.000000 34.000000 12.000000
vt 0.937500 1.000000
vn -0.316228 -0.948683 -0.000000
v 14.000000 34.000000 -32.000000
vt 0.937500 1.171880
vn -0.316228 -0.948683 -0.000000
v 0.000000 36.000000 12.000000
vt 0.000000 1.000000
vn 0.000000 -1.000000 -0.000000
v 0.000000 36.000000 -32.000000
vt 0.000000 1.171880
vn 0.000000 -1.000000 -0.000000
v -7.500000 35.500000 -32.000000
vt 0.031250 1.171880
vn 0.160182 -0.987088 0.000000
v -7.500000 35.500000 12.000000
vt 0.031250 1.000000
vn 0.160182 -0.987088 -0.000000
v -14.000000 34.000000 -32.000000
vt 0.062500 1.171880
vn 0.316228 -0.948683 -0.000000
v -14.000000 34.000000 12.000000
vt 0.062500 1.000000
vn 0.316228 -0.948683 -0.000000
v -19.500000 31.500000 -32.000000
vt 0.093750 1.171880
vn 0.525731 -0.850651 -0.000000
v -19.500000 31.500000 12.000000
vt 0.093750 1.000000
vn 0.525731 -0.850651 -0.000000
v 19.500000 31.500000 12.000000
vt 0.906250 1.000000
vn -0.525731 -0.850651 -0.000000
v 19.500000 31.500000 -32.000000
vt 0.906250 1.171880
vn -0.525731 -0.850651 -0.000000
v 24.000000 28.000000 12.000000
vt 0.875000 1.000000
vn -0.707107 -0.707107 -0.000000
v 24.000000 28.000000 -32.000000
vt 0.875000 1.171880
vn -0.707107 -0.707107 -0.000000
v -24.000000 28.000000 -32.000000
vt 0.125000 1.171880
vn 0.707107 -0.707107 -0.000000
v -24.000000 28.000000 12.000000
vt 0.125000 1.000000
vn 0.707107 -0.707107 -0.000000
v -31.500000 -3.500000 12.000000
vt 0.281250 1.000000
vn 0.987088 0.160182 -0.000000
v -31.500000 -3.500000 -32.000000
vt 0.281250 1.171880
vn 0.987088 0.160182 0.000000
v -30.000000 -10.000000 -32.000000
vt 0.312500 1.171880
vn 0.948683 0.316228 -0.000000
v -30.000000 -10.000000 12.000000
vt 0.312500 1.000000
vn 0.948683 0.316228 -0.000000
v -32.000000 4.000000 12.000000
vt 0.250000 1.000000
vn 1.000000 0.000000 -0.000000
v -32.000000 4.000000 -32.000000
vt 0.250000 1.171880
vn 1.000000 0.000000 -0.000000
v -31.500000 11.500000 12.000000
vt 0.218750 1.000000
vn 0.987088 -0.160182 -0.000000
v -31.500000 11.500000 -32.000000
vt 0.218750 1.171880
vn 0.987088 -0.160182 0.000000
v -30.000000 18.000000 12.000000
vt 0.187500 1.000000
vn 0.948683 -0.316228 -0.000000
v -30.000000 18.000000 -32.000000
vt 0.187500 1.171880
vn 0.948683 -0.316228 -0.000000
v -27.500000 23.500000 12.000000
vt 0.156250 1.000000
vn 0.850651 -0.525731 -0.000000
v -27.500000 23.500000 -32.000000
vt 0.156250 1.171880
vn 0.850651 -0.525731 -0.000000
v -27.500000 -15.500000 -32.000000
vt 0.343750 1.171880
vn 0.850651 0.525731 -0.000000
v -27.500000 -15.500000 12.000000
vt 0.343750 1.000000
vn 0.850651 0.525731 -0.000000
v -24.000000 -20.000000 -32.000000
vt 0.375000 1.171880
vn 0.707107 0.707107 -0.000000
v -24.000000 -20.000000 12.000000
vt 0.375000 1.000000
vn 0.707107 0.707107 -0.000000
v -24.000000 28.000000 12.000000
vt 0.125000 1.000000
vn 0.707107 -0.707107 -0.000000
v -24.000000 28.000000 -32.000000
vt 0.125000 1.171880
vn 0.707107 -0.707107 -0.000000
v 14.000000 -26.000000 12.000000
vt 0.562500 1.000000
vn -0.316228 0.948683 -0.000000
v 14.000000 -26.000000 -32.000000
vt 0.562500 1.171880
vn -0.316228 0.948683 -0.000000
v 19.500000 -23.500000 -32.000000
vt 0.593750 1.171880
vn -0.525731 0.850651 -0.000000
v 19.500000 -23.500000 12.000000
vt 0.593750 1.000000
vn -0.525731 0.850651 -0.000000
v 7.500000 -27.500000 12.000000
vt 0.531250 1.000000
vn -0.160182 0.987088 -0.000000
v 7.500000 -27.500000 -32.000000
vt 0.531250 1.171880
vn -0.160182 0.987088 0.000000
v 0.000000 -28.000000 12.000000
vt 0.500000 1.000000
vn 0.000000 1.000000 -0.000000
v 0.000000 -28.000000 -32.000000
vt 0.500000 1.171880
vn 0.000000 1.000000 -0.000000
v -7.500000 -27.500000 12.000000
vt 0.468750 1.000000
vn 0.160182 0.987088 -0.000000
v -7.500000 -27.500000 -32.000000
vt 0.468750 1.171880
vn 0.160182 0.987088 0.000000
v -14.000000 -26.000000 12.000000
vt 0.437500 1.000000
vn 0.316228 0.948683 -0.000000
v -14.000000 -26.000000 -32.000000
vt 0.437500 1.171880
vn 0.316228 0.948683 -0.000000
v -19.500000 -23.500000 12.000000
vt 0.406250 1.000000
vn 0.525731 0.850651 -0.000000
v -19.500000 -23.500000 -32.000000
vt 0.406250 1.171880
vn 0.525731 0.850651 -0.000000
v -24.000000 -20.000000 12.000000
vt 0.375000 1.000000
vn 0.707107 0.707107 -0.000000
v -24.000000 -20.000000 -32.000000
vt 0.375000 1.171880
vn 0.707107 0.707107 -0.000000
v 24.000000 -20.000000 -32.000000
vt 0.625000 1.171880
vn -0.707107 0.707107 -0.000000
v 24.000000 -20.000000 12.000000
vt 0.625000 1.000000
vn -0.707107 0.707107 -0.000000
v 32.000000 4.000000 12.000000
vt 0.750000 1.000000
vn -1.000000 0.000000 -0.000000
v 31.500000 11.500000 -32.000000
vt 0.781250 1.171880
vn -0.987088 -0.160182 0.000000
v 31.500000 11.500000 12.000000
vt 0.781250 1.000000
vn -0.987088 -0.160182 -0.000000
v 32.000000 4.000000 -32.000000
vt 0.750000 1.171880
vn -1.000000 0.000000 -0.000000
v 31.500000 -3.500000 12.000000
vt 0.718750 1.000000
vn -0.987088 0.160182 -0.000000
v 31.500000 -3.500000 -32.000000
vt 0.718750 1.171880
vn -0.987088 0.160182 0.000000
v 30.000000 -10.000000 12.000000
vt 0.687500 1.000000
vn -0.948683 0.316228 -0.000000
v 30.000000 -10.000000 -32.000000
vt 0.687500 1.171880
vn -0.948683 0.316228 -0.000000
v 30.000000 18.000000 -32.000000
vt 0.812500 1.171880
vn -0.948683 -0.316228 -0.000000
v 30.000000 18.000000 12.000000
vt 0.812500 1.000000
vn -0.948683 -0.316228 -0.000000
v 27.500000 23.500000 -32.000000
vt 0.843750 1.171880
vn -0.850651 -0.525731 -0.000000
v 27.500000 23.500000 12.000000
vt 0.843750 1.000000
vn -0.850651 -0.525731 -0.000000
v 27.500000 -15.500000 12.000000
vt 0.656250 1.000000
vn -0.850651 0.525731 -0.000000
v 27.500000 -15.500000 -32.000000
vt 0.656250 1.171880
vn -0.850651 0.525731 -0.000000
v 24.000000 -20.000000 12.000000
vt 0.625000 1.000000
vn -0.707107 0.707107 -0.000000
v 24.000000 -20.000000 -32.000000
vt 0.625000 1.171880
vn -0.707107 0.707107 -0.000000
v 24.000000 28.000000 -32.000000
vt 0.875000 1.171880
vn -0.707107 -0.707107 -0.000000
v 24.000000 28.000000 12.000000
vt 0.875000 1.000000
vn -0.707107 -0.707107 -0.000000
f 119/119/119 121/121/121 120/120/120
f 119/119/119 122/122/122 121/121/121
f 122/122/122 123/123/123 121/121/121
f 122/122/122 124/124/124 123/123/123
f 124/124/124 125/125/125 123/123/123
f 124/124/124 126/126/126 125/125/125
f 126/126/126 131/131/131 125/125/125
f 126/126/126 132/132/132 131/131/131
f 149/149/149 144/144/144 150/150/150
f 149/149/149 143/143/143 144/144/144
f 143/143/143 142/142/142 144/144/144
f 143/143/143 141/141/141 142/142/142
f 141/141/141 140/140/140 142/142/142
f 141/141/141 139/139/139 140/140/140
f 139/139/139 138/138/138 140/140/140
f 139/139/139 137/137/137 138/138/138
f 137/137/137 134/134/134 138/138/138
f 137/137/137 133/133/133 134/134/134
f 133/133/133 135/135/135 134/134/134
f 133/133/133 136/136/136 135/135/135
f 136/136/136 145/145/145 135/135/135
f 136/136/136 146/146/146 145/145/145
f 146/146/146 147/147/147 145/145/145
f 146/146/146 148/148/148 147/147/147
f 165/165/165 164/164/164 166/166/166
f 165/165/165 163/163/163 164/164/164
f 163/163/163 162/162/162 164/164/164
f 163/163/163 161/161/161 162/162/162
f 161/161/161 160/160/160 162/162/162
f 161/161/161 159/159/159 160/160/160
f 159/159/159 158/158/158 160/160/160
f 159/159/159 157/157/157 158/158/158
f 157/157/157 156/156/156 158/158/158
f 157/157/157 155/155/155 156/156/156
f 155/155/155 152/152/152 156/156/156
f 155/155/155 151/151/151 152/152/152
f 151/151/151 153/153/153 152/152/152
f 151/151/151 154/154/154 153/153/153
f 154/154/154 167/167/167 153/153/153
f 154/154/154 168/168/168 167/167/167
f 183/183/183 182/182/182 184/184/184
f 183/183/183 181/181/181 182/182/182
f 181/181/181 176/176/176 182/182/182
f 181/181/181 175/175/175 176/176/176
f 175/175/175 174/174/174 176/176/176
f 175/175/175 173/173/173 174/174/174
f 173/173/173 172/172/172 174/174/174
f 173/173/173 169/169/169 172/172/172
f 169/169/169 170/170/170 172/172/172
f 169/169/169 171/171/171 170/170/170
f 171/171/171 177/177/177 170/170/170
f 171/171/171 178/178/178 177/177/177
f 178/178/178 179/179/179 177/177/177
f 178/178/178 180/180/180 179/179/179
f 180/180/180 185/185/185 179/179/179
f 180/180/180 186/186/186 185/185/185
f 129/129/129 128/128/128 130/130/130
f 129/129/129 127/127/127 128/128/128
f 127/127/127 118/118/118 128/128/128
f 127/127/127 117/117/117 118/118/118
f 117/117/117 116/116/116 118/118/118
f 117/117/117 113/113/113 116/116/116
f 113/113/113 114/114/114 116/116/116
f 113/113/113 115/115/115 114/114/114
f 96/96/96 95/95/95 94/94/94
f 96/96/96 97/97/97 95/95/95
f 94/94/94 93/93/93 92/92/92
f 94/94/94 95/95/95 93/93/93
f 92/92/92 91/91/91 90/90/90
f 92/92/92 93/93/93 91/91/91
f 90/90/90 89/89/89 88/88/88
f 90/90/90 91/91/91 89/89/89
f 88/88/88 87/87/87 86/86/86
f 88/88/88 89/89/89 87/87/87
f 86/86/86 85/85/85 84/84/84
f 86/86/86 87/87/87 85/85/85
f 84/84/84 83/83/83 80/80/80
f 84/84/84 85/85/85 83/83/83
f 80/80/80 82/82/82 81/81/81
f 80/80/80 83/83/83 82/82/82
f 78/78/78 77/77/77 76/76/76
f 78/78/78 79/79/79 77/77/77
f 76/76/76 75/75/75 74/74/74
f 76/76/76 77/77/77 75/75/75
f 74/74/74 73/73/73 72/72/72
f 74/74/74 75/75/75 73/73/73
f 72/72/72 71/71/71 70/70/70
f 72/72/72 73/73/73 71/71/71
f 70/70/70 69/69/69 68/68/68
f 70/70/70 71/71/71 69/69/69
f 68/68/68 67/67/67 66/66/66
f 68/68/68 69/69/69 67/67/67
f 66/66/66 65/65/65 62/62/62
f 66/66/66 67/67/67 65/65/65
f 62/62/62 64/64/64 63/63/63
f 62/62/62 65/65/65 64/64/64
f 41/41/41 42/42/42 112/112/112
f 41/41/41 43/43/43 42/42/42
f 112/112/112 111/111/111 110/110/110
f 112/112/112 42/42/42 111/111/111
f 110/110/110 109/109/109 108/108/108
f 110/110/110 111/111/111 109/109/109
f 108/108/108 107/107/107 106/106/106
f 108/108/108 109/109/109 107/107/107
f 106/106/106 105/105/105 104/104/104
f 106/106/106 107/107/107 105/105/105
f 104/104/104 103/103/103 102/102/102
f 104/104/104 105/105/105 103/103/103
f 102/102/102 101/101/101 98/98/98
f 102/102/102 103/103/103 101/101/101
f 98/98/98 100/100/100 99/99/99
f 98/98/98 101/101/101 100/100/100
f 60/60/60 59/59/59 58/58/58
f 60/60/60 61/61/61 59/59/59
f 58/58/58 57/57/57 56/56/56
f 58/58/58 59/59/59 57/57/57
f 56/56/56 55/55/55 54/54/54
f 56/56/56 57/57/57 55/55/55
f 54/54/54 53/53/53 52/52/52
f 54/54/54 55/55/55 53/53/53
f 52/52/52 51/51/51 50/50/50
f 52/52/52 53/53/53 51/51/51
f 50/50/50 49/49/49 48/48/48
f 50/50/50 51/51/51 49/49/49
f 48/48/48 47/47/47 44/44/44
f 48/48/48 49/49/49 47/47/47
f 44/44/44 46/46/46 45/45/45
f 44/44/44 47/47/47 46/46/46
g mat2m0s19
usemtl textures/exwsw/eX_surf_metallightgrey
v 0.000000 36.000000 24.000000
vt 0.000000 1.000000
vn 0.000000 1.000000 -0.000000
v 0.000000 36.000000 -8.000000
vt 0.000000 1.250000
vn 0.000000 1.000000 -0.000000
v 7.500000 35.500000 -8.000000
vt 0.062500 1.250000
vn 0.160182 0.987088 -0.000000
v 7.500000 35.500000 24.000000
vt 0.062500 1.000000
vn 0.160182 0.987088 -0.000000
v 14.000000 34.000000 -8.000000
vt 0.125000 1.250000
vn 0.316228 0.948683 -0.000000
v 14.000000 34.000000 24.000000
vt 0.125000 1.000000
vn 0.316228 0.948683 -0.000000
v -7.500000 35.500000 24.000000
vt 1.937500 1.000000
vn -0.160182 0.987088 -0.000000
v 0.000000 36.000000 -8.000000
vt 2.000000 1.250000
vn 0.000000 1.000000 -0.000000
v 0.000000 36.000000 24.000000
vt 2.000000 1.000000
vn 0.000000 1.000000 -0.000000
v -7.500000 35.500000 -8.000000
vt 1.937500 1.250000
vn -0.160182 0.987088 -0.000000
v -14.000000 34.000000 24.000000
vt 1.875000 1.000000
vn -0.316228 0.948683 -0.000000
v -14.000000 34.000000 -8.000000
vt 1.875000 1.250000
vn -0.316228 0.948683 -0.000000
v -19.500000 31.500000 24.000000
vt 1.812500 1.000000
vn -0.525731 0.850651 -0.000000
v -19.500000 31.500000 -8.000000
vt 1.812500 1.250000
vn -0.525731 0.850651 -0.000000
v 19.500000 31.500000 -8.000000
vt 0.187500 1.250000
vn 0.525731 0.850651 -0.000000
v 19.500000 31.500000 24.000000
vt 0.187500 1.000000
vn 0.525731 0.850651 -0.000000
v 24.000000 28.000000 -8.000000
vt 0.250000 1.250000
vn 0.707107 0.707107 -0.000000
v 24.000000 28.000000 24.000000
vt 0.250000 1.000000
vn 0.707107 0.707107 -0.000000
v -24.000000 28.000000 24.000000
vt 1.750000 1.000000
vn -0.707107 0.707107 -0.000000
v -24.000000 28.000000 -8.000000
vt 1.750000 1.250000
vn -0.707107 0.707107 -0.000000
v 31.500000 -3.500000 24.000000
vt 0.562500 1.000000
vn 0.987088 -0.160182 -0.000000
v 31.500000 -3.500000 -8.000000
vt 0.562500 1.250000
vn 0.987088 -0.160182 -0.000000
v 30.000000 -10.000000 -8.000000
vt 0.625000 1.250000
vn 0.948683 -0.316228 -0.000000
v 30.000000 -10.000000 24.000000
vt 0.625000 1.000000
vn 0.948683 -0.316228 -0.000000
v 32.000000 4.000000 24.000000
vt 0.500000 1.000000
vn 1.000000 0.000000 -0.000000
v 32.000000 4.000000 -8.000000
vt 0.500000 1.250000
vn 1.000000 0.000000 -0.000000
v 31.500000 11.500000 24.000000
vt 0.437500 1.000000
vn 0.987088 0.160182 -0.000000
v 31.500000 11.500000 -8.000000
vt 0.437500 1.250000
vn 0.987088 0.160182 -0.000000
v 30.000000 18.000000 24.000000
vt 0.375000 1.000000
vn 0.948683 0.316228 -0.000000
v 30.000000 18.000000 -8.000000
vt 0.375000 1.250000
vn 0.948683 0.316228 -0.000000
v 27.500000 23.500000 24.000000
vt 0.312500 1.000000
vn 0.850651 0.525731 -0.000000
v 27.500000 23.500000 -8.000000
vt 0.312500 1.250000
vn 0.850651 0.525731 -0.000000
v 27.500000 -15.500000 -8.000000
vt 0.687500 1.250000
vn 0.850651 -0.525731 -0.000000
v 27.500000 -15.500000 24.000000
vt 0.687500 1.000000
vn 0.850651 -0.525731 -0.000000
v 24.000000 -20.000000 -8.000000
vt 0.750000 1.250000
vn 0.707107 -0.707107 -0.000000
v 24.000000 -20.000000 24.000000
vt 0.750000 1.000000
vn 0.707107 -0.707107 -0.000000
v 24.000000 28.000000 24.000000
vt 0.250000 1.000000
vn 0.707107 0.707107 -0.000000
v 24.000000 28.000000 -8.000000
vt 0.250000 1.250000
vn 0.707107 0.707107 -0.000000
v -14.000000 -26.000000 24.000000
vt 1.125000 1.000000
vn -0.316228 -0.948683 -0.000000
v -14.000000 -26.000000 -8.000000
vt 1.125000 1.250000
vn -0.316228 -0.948683 -0.000000
v -19.500000 -23.500000 -8.000000
vt 1.187500 1.250000
vn -0.525731 -0.850651 -0.000000
v -19.500000 -23.500000 24.000000
vt 1.187500 1.000000
vn -0.525731 -0.850651 -0.000000
v -7.500000 -27.500000 24.000000
vt 1.062500 1.000000
vn -0.160182 -0.987088 -0.000000
v -7.500000 -27.500000 -8.000000
vt 1.062500 1.250000
vn -0.160182 -0.987088 -0.000000
v 0.000000 -28.000000 24.000000
vt 1.000000 1.000000
vn 0.000000 -1.000000 -0.000000
v 0.000000 -28.000000 -8.000000
vt 1.000000 1.250000
vn 0.000000 -1.000000 -0.000000
v 7.500000 -27.500000 24.000000
vt 0.937500 1.000000
vn 0.160182 -0.987088 -0.000000
v 7.500000 -27.500000 -8.000000
vt 0.937500 1.250000
vn 0.160182 -0.987088 -0.000000
v 14.000000 -26.000000 24.000000
vt 0.875000 1.000000
vn 0.316228 -0.948683 -0.000000
v 14.000000 -26.000000 -8.000000
vt 0.875000 1.250000
vn 0.316228 -0.948683 -0.000000
v 19.500000 -23.500000 24.000000
vt 0.812500 1.000000
vn 0.525731 -0.850651 -0.000000
v 19.500000 -23.500000 -8.000000
vt 0.812500 1.250000
vn 0.525731 -0.850651 -0.000000
v 24.000000 -20.000000 24.000000
vt 0.750000 1.000000
vn 0.707107 -0.707107 -0.000000
v 24.000000 -20.000000 -8.000000
vt 0.750000 1.250000
vn 0.707107 -0.707107 -0.000000
v -24.000000 -20.000000 -8.000000
vt 1.250000 1.250000
vn -0.707107 -0.707107 -0.000000
v -24.000000 -20.000000 24.000000
vt 1.250000 1.000000
vn -0.707107 -0.707107 -0.000000
v -32.000000 4.000000 24.000000
vt 1.500000 1.000000
vn -1.000000 0.000000 -0.000000
v -31.500000 11.500000 -8.000000
vt 1.562500 1.250000
vn -0.987088 0.160182 -0.000000
v -31.500000 11.500000 24.000000
vt 1.562500 1.000000
vn -0.987088 0.160182 -0.000000
v -32.000000 4.000000 -8.000000
vt 1.500000 1.250000
vn -1.000000 0.000000 -0.000000
v -31.500000 -3.500000 24.000000
vt 1.437500 1.000000
vn -0.987088 -0.160182 -0.000000
v -31.500000 -3.500000 -8.000000
vt 1.437500 1.250000
vn -0.987088 -0.160182 -0.000000
v -30.000000 -10.000000 24.000000
vt 1.375000 1.000000
vn -0.948683 -0.316228 -0.000000
v -30.000000 -10.000000 -8.000000
vt 1.375000 1.250000
vn -0.948683 -0.316228 -0.000000
v -30.000000 18.000000 -8.000000
vt 1.625000 1.250000
vn -0.948683 0.316228 -0.000000
v -30.000000 18.000000 24.000000
vt 1.625000 1.000000
vn -0.948683 0.316228 -0.000000
v -27.500000 23.500000 -8.000000
vt 1.687500 1.250000
vn -0.850651 0.525731 -0.000000
v -27.500000 23.500000 24.000000
vt 1.687500 1.000000
vn -0.850651 0.525731 -0.000000
v -27.500000 -15.500000 24.000000
vt 1.312500 1.000000
vn -0.850651 -0.525731 -0.000000
v -27.500000 -15.500000 -8.000000
vt 1.312500 1.250000
vn -0.850651 -0.525731 -0.000000
v -24.000000 -20.000000 24.000000
vt 1.250000 1.000000
vn -0.707107 -0.707107 -0.000000
v -24.000000 -20.000000 -8.000000
vt 1.250000 1.250000
vn -0.707107 -0.707107 -0.000000
v -24.000000 28.000000 -8.000000
vt 1.750000 1.250000
vn -0.707107 0.707107 -0.000000
v -24.000000 28.000000 24.000000
vt 1.750000 1.000000
vn -0.707107 0.707107 -0.000000
v -8.906250 41.406250 -12.000000
vt 2.421875 1.060223
vn -0.135076 0.835271 0.532988
v 0.000000 44.000000 -16.000000
vt 2.500000 1.101130
vn 0.000000 1.000000 -0.000000
v 0.000000 42.000000 -12.000000
vt 2.500000 1.060223
vn 0.000000 0.850651 0.525731
v -9.375000 43.375000 -16.000000
vt 2.421875 1.101130
vn -0.160182 0.987087 0.000000
v -16.625000 39.625000 -12.000000
vt 2.343750 1.060223
vn -0.268093 0.804279 0.530340
v -17.500000 41.500000 -16.000000
vt 2.343750 1.101130
vn -0.316228 0.948683 -0.000000
v 0.000000 42.000000 -12.000000
vt 0.000000 1.060223
vn 0.000000 0.850651 0.525731
v 0.000000 44.000000 -16.000000
vt 0.000000 1.101130
vn 0.000000 1.000000 -0.000000
v 9.375000 43.375000 -16.000000
vt 0.078125 1.101130
vn 0.160182 0.987087 0.000000
v 8.906250 41.406250 -12.000000
vt 0.078125 1.060223
vn 0.135076 0.835271 0.532988
v 17.500000 41.500000 -16.000000
vt 0.156250 1.101130
vn 0.316228 0.948683 -0.000000
v 16.625000 39.625000 -12.000000
vt 0.156250 1.060223
vn 0.268093 0.804279 0.530340
v 24.375000 38.375000 -16.000000
vt 0.234375 1.101130
vn 0.525731 0.850651 -0.000000
v 23.156250 36.656250 -12.000000
vt 0.234375 1.060223
vn 0.440719 0.714556 0.543301
v -23.156250 36.656250 -12.000000
vt 2.265625 1.060223
vn -0.440719 0.714556 0.543301
v -24.375000 38.375000 -16.000000
vt 2.265625 1.101130
vn -0.525731 0.850651 -0.000000
v 0.000000 36.000000 -8.000000
vt 0.000000 1.000000
vn 0.000000 0.447214 0.894427
v 7.500000 35.500000 -8.000000
vt 0.078125 1.000000
vn 0.069347 0.432214 0.899101
v -7.500000 35.500000 -8.000000
vt 2.421875 1.000000
vn -0.069347 0.432214 0.899101
v 0.000000 36.000000 -8.000000
vt 2.500000 1.000000
vn 0.000000 0.447214 0.894427
v 14.000000 34.000000 -8.000000
vt 0.156250 1.000000
vn 0.138343 0.415029 0.899229
v -14.000000 34.000000 -8.000000
vt 2.343750 1.000000
vn -0.138343 0.415029 0.899229
v 19.500000 31.500000 -8.000000
vt 0.234375 1.000000
vn 0.221022 0.360054 0.906372
v -19.500000 31.500000 -8.000000
vt 2.265625 1.000000
vn -0.221022 0.360054 0.906372
v 28.500000 32.500000 -12.000000
vt 0.312500 1.060223
vn 0.597160 0.597160 0.535536
v 24.000000 28.000000 -8.000000
vt 0.312500 1.000000
vn 0.301511 0.301511 0.904534
v 30.000000 34.000000 -16.000000
vt 0.312500 1.101130
vn 0.707107 0.707107 -0.000000
v -28.500000 32.500000 -12.000000
vt 2.187500 1.060223
vn -0.597160 0.597160 0.535536
v -30.000000 34.000000 -16.000000
vt 2.187500 1.101130
vn -0.707107 0.707107 -0.000000
v 0.000000 44.000000 -16.000000
vt 0.000000 1.000000
vn 0.000000 1.000000 -0.000000
v 9.375000 43.375000 -32.000000
vt 0.078125 1.125000
vn 0.160182 0.987088 -0.000000
v 9.375000 43.375000 -16.000000
vt 0.078125 1.000000
vn 0.160182 0.987088 0.000000
v 0.000000 44.000000 -32.000000
vt 0.000000 1.125000
vn 0.000000 1.000000 -0.000000
v 17.500000 41.500000 -32.000000
vt 0.156250 1.125000
vn 0.316228 0.948683 -0.000000
v 17.500000 41.500000 -16.000000
vt 0.156250 1.000000
vn 0.316228 0.948683 -0.000000
v -9.375000 43.375000 -16.000000
vt 2.421875 1.000000
vn -0.160182 0.987088 0.000000
v 0.000000 44.000000 -32.000000
vt 2.500000 1.125000
vn 0.000000 1.000000 -0.000000
v 0.000000 44.000000 -16.000000
vt 2.500000 1.000000
vn 0.000000 1.000000 -0.000000
v -9.375000 43.375000 -32.000000
vt 2.421875 1.125000
vn -0.160182 0.987088 -0.000000
v -17.500000 41.500000 -16.000000
vt 2.343750 1.000000
vn -0.316228 0.948683 -0.000000
v -17.500000 41.500000 -32.000000
vt 2.343750 1.125000
vn -0.316228 0.948683 -0.000000
v 24.375000 38.375000 -32.000000
vt 0.234375 1.125000
vn 0.525731 0.850651 -0.000000
v 24.375000 38.375000 -16.000000
vt 0.234375 1.000000
vn 0.525731 0.850651 -0.000000
v -24.375000 38.375000 -16.000000
vt 2.265625 1.000000
vn -0.525731 0.850651 -0.000000
v -24.375000 38.375000 -32.000000
vt 2.265625 1.125000
vn -0.525731 0.850651 -0.000000
v 30.000000 34.000000 -32.000000
vt 0.312500 1.125000
vn 0.707107 0.707107 -0.000000
v 30.000000 34.000000 -16.000000
vt 0.312500 1.000000
vn 0.707107 0.707107 -0.000000
v -30.000000 34.000000 -16.000000
vt 2.187500 1.000000
vn -0.707107 0.707107 -0.000000
v -30.000000 34.000000 -32.000000
vt 2.187500 1.125000
vn -0.707107 0.707107 -0.000000
v 34.375000 28.375000 -32.000000
vt 0.390625 1.125000
vn 0.850651 0.525731 -0.000000
v 34.375000 28.375000 -16.000000
vt 0.390625 1.000000
vn 0.850651 0.525731 -0.000000
v -34.375000 28.375000 -16.000000
vt 2.109375 1.000000
vn -0.850651 0.525731 -0.000000
v -34.375000 28.375000 -32.000000
vt 2.109375 1.125000
vn -0.850651 0.525731 -0.000000
v 37.500000 21.500000 -32.000000
vt 0.468750 1.125000
vn 0.948683 0.316228 -0.000000
v 37.500000 21.500000 -16.000000
vt 0.468750 1.000000
vn 0.948683 0.316228 -0.000000
v -37.500000 21.500000 -16.000000
vt 2.031250 1.000000
vn -0.948683 0.316228 -0.000000
v -37.500000 21.500000 -32.000000
vt 2.031250 1.125000
vn -0.948683 0.316228 -0.000000
v -37.406250 -4.906250 -12.000000
vt 1.796875 1.060223
vn -0.835271 -0.135076 0.532988
v -39.375000 -5.375000 -16.000000
vt 1.796875 1.101130
vn -0.987087 -0.160182 0.000000
v -40.000000 4.000000 -16.000000
vt 1.875000 1.101130
vn -1.000000 0.000000 -0.000000
v -38.000000 4.000000 -12.000000
vt 1.875000 1.060223
vn -0.850651 0.000000 0.525731
v -39.375000 13.375000 -16.000000
vt 1.953125 1.101130
vn -0.987087 0.160182 0.000000
v -37.406250 12.906250 -12.000000
vt 1.953125 1.060223
vn -0.835271 0.135076 0.532988
v -37.500000 21.500000 -16.000000
vt 2.031250 1.101130
vn -0.948683 0.316228 -0.000000
v -35.625000 20.625000 -12.000000
vt 2.031250 1.060223
vn -0.804279 0.268093 0.530340
v -35.625000 -12.625000 -12.000000
vt 1.718750 1.060223
vn -0.804279 -0.268093 0.530340
v -37.500000 -13.500000 -16.000000
vt 1.718750 1.101130
vn -0.948683 -0.316228 -0.000000
v -34.375000 28.375000 -16.000000
vt 2.109375 1.101130
vn -0.850651 0.525731 -0.000000
v -32.656250 27.156250 -12.000000
vt 2.109375 1.060223
vn -0.714556 0.440719 0.543301
v -32.656250 -19.156250 -12.000000
vt 1.640625 1.060223
vn -0.714556 -0.440719 0.543301
v -34.375000 -20.375000 -16.000000
vt 1.640625 1.101130
vn -0.850651 -0.525731 -0.000000
v -32.000000 4.000000 -8.000000
vt 1.875000 1.000000
vn -0.447214 0.000000 0.894427
v -31.500000 11.500000 -8.000000
vt 1.953125 1.000000
vn -0.432214 0.069347 0.899101
v -31.500000 -3.500000 -8.000000
vt 1.796875 1.000000
vn -0.432214 -0.069347 0.899101
v -30.000000 18.000000 -8.000000
vt 2.031250 1.000000
vn -0.415029 0.138343 0.899229
v -30.000000 -10.000000 -8.000000
vt 1.718750 1.000000
vn -0.415029 -0.138343 0.899229
v -27.500000 23.500000 -8.000000
vt 2.109375 1.000000
vn -0.360054 0.221022 0.906372
v -27.500000 -15.500000 -8.000000
vt 1.640625 1.000000
vn -0.360054 -0.221022 0.906372
v -28.500000 32.500000 -12.000000
vt 2.187500 1.060223
vn -0.597160 0.597160 0.535536
v -24.000000 28.000000 -8.000000
vt 2.187500 1.000000
vn -0.301511 0.301511 0.904534
v -24.000000 -20.000000 -8.000000
vt 1.562500 1.000000
vn -0.301511 -0.301511 0.904534
v -28.500000 -24.500000 -12.000000
vt 1.562500 1.060223
vn -0.597160 -0.597160 0.535536
v -23.156250 36.656250 -12.000000
vt 2.265625 1.060223
vn -0.440719 0.714556 0.543301
v -19.500000 31.500000 -8.000000
vt 2.265625 1.000000
vn -0.221022 0.360054 0.906372
v -30.000000 34.000000 -16.000000
vt 2.187500 1.101130
vn -0.707107 0.707107 -0.000000
v -30.000000 -26.000000 -16.000000
vt 1.562500 1.101130
vn -0.707107 -0.707107 -0.000000
v -40.000000 4.000000 -16.000000
vt 1.875000 1.000000
vn -1.000000 0.000000 -0.000000
v -39.375000 13.375000 -32.000000
vt 1.953125 1.125000
vn -0.987088 0.160182 -0.000000
v -39.375000 13.375000 -16.000000
vt 1.953125 1.000000
vn -0.987088 0.160182 0.000000
v -40.000000 4.000000 -32.000000
vt 1.875000 1.125000
vn -1.000000 0.000000 -0.000000
v -39.375000 -5.375000 -16.000000
vt 1.796875 1.000000
vn -0.987088 -0.160182 0.000000
v -39.375000 -5.375000 -32.000000
vt 1.796875 1.125000
vn -0.987088 -0.160182 -0.000000
v -37.500000 21.500000 -32.000000
vt 2.031250 1.125000
vn -0.948683 0.316228 -0.000000
v -37.500000 21.500000 -16.000000
vt 2.031250 1.000000
vn -0.948683 0.316228 -0.000000
v -37.500000 -13.500000 -16.000000
vt 1.718750 1.000000
vn -0.948683 -0.316228 -0.000000
v -37.500000 -13.500000 -32.000000
vt 1.718750 1.125000
vn -0.948683 -0.316228 -0.000000
v 16.625000 -31.625000 -12.000000
vt 1.093750 1.060223
vn 0.268093 -0.804279 0.530340
v 17.500000 -33.500000 -16.000000
vt 1.093750 1.101130
vn 0.316228 -0.948683 -0.000000
v 9.375000 -35.375000 -16.000000
vt 1.171875 1.101130
vn 0.160182 -0.987087 0.000000
v 8.906250 -33.406250 -12.000000
vt 1.171875 1.060223
vn 0.135076 -0.835271 0.532988
v 0.000000 -36.000000 -16.000000
vt 1.250000 1.101130
vn 0.000000 -1.000000 -0.000000
v 0.000000 -34.000000 -12.000000
vt 1.250000 1.060223
vn 0.000000 -0.850651 0.525731
v -9.375000 -35.375000 -16.000000
vt 1.328125 1.101130
vn -0.160182 -0.987087 0.000000
v -8.906250 -33.406250 -12.000000
vt 1.328125 1.060223
vn -0.135076 -0.835271 0.532988
v -17.500000 -33.500000 -16.000000
vt 1.406250 1.101130
vn -0.316228 -0.948683 -0.000000
v -16.625000 -31.625000 -12.000000
vt 1.406250 1.060223
vn -0.268093 -0.804279 0.530340
v -24.375000 -30.375000 -16.000000
vt 1.484375 1.101130
vn -0.525731 -0.850651 -0.000000
v -23.156250 -28.656250 -12.000000
vt 1.484375 1.060223
vn -0.440719 -0.714556 0.543301
v 23.156250 -28.656250 -12.000000
vt 1.015625 1.060223
vn 0.440719 -0.714556 0.543301
v 24.375000 -30.375000 -16.000000
vt 1.015625 1.101130
vn 0.525731 -0.850651 -0.000000
v 0.000000 -28.000000 -8.000000
vt 1.250000 1.000000
vn 0.000000 -0.447214 0.894427
v -7.500000 -27.500000 -8.000000
vt 1.328125 1.000000
vn -0.069347 -0.432214 0.899101
v 7.500000 -27.500000 -8.000000
vt 1.171875 1.000000
vn 0.069347 -0.432214 0.899101
v -14.000000 -26.000000 -8.000000
vt 1.406250 1.000000
vn -0.138343 -0.415029 0.899229
v 14.000000 -26.000000 -8.000000
vt 1.093750 1.000000
vn 0.138343 -0.415029 0.899229
v -19.500000 -23.500000 -8.000000
vt 1.484375 1.000000
vn -0.221022 -0.360054 0.906372
v 19.500000 -23.500000 -8.000000
vt 1.015625 1.000000
vn 0.221022 -0.360054 0.906372
v -28.500000 -24.500000 -12.000000
vt 1.562500 1.060223
vn -0.597160 -0.597160 0.535536
v -24.000000 -20.000000 -8.000000
vt 1.562500 1.000000
vn -0.301511 -0.301511 0.904534
v -30.000000 -26.000000 -16.000000
vt 1.562500 1.101130
vn -0.707107 -0.707107 -0.000000
v 28.500000 -24.500000 -12.000000
vt 0.937500 1.060223
vn 0.597160 -0.597160 0.535536
v 30.000000 -26.000000 -16.000000
vt 0.937500 1.101130
vn 0.707107 -0.707107 -0.000000
v 0.000000 -36.000000 -16.000000
vt 1.250000 1.000000
vn 0.000000 -1.000000 -0.000000
v -9.375000 -35.375000 -32.000000
vt 1.328125 1.125000
vn -0.160182 -0.987088 -0.000000
v -9.375000 -35.375000 -16.000000
vt 1.328125 1.000000
vn -0.160182 -0.987088 0.000000
v 0.000000 -36.000000 -32.000000
vt 1.250000 1.125000
vn 0.000000 -1.000000 -0.000000
v 9.375000 -35.375000 -16.000000
vt 1.171875 1.000000
vn 0.160182 -0.987088 0.000000
v 9.375000 -35.375000 -32.000000
vt 1.171875 1.125000
vn 0.160182 -0.987088 -0.000000
v -17.500000 -33.500000 -32.000000
vt 1.406250 1.125000
vn -0.316228 -0.948683 -0.000000
v -17.500000 -33.500000 -16.000000
vt 1.406250 1.000000
vn -0.316228 -0.948683 -0.000000
v 17.500000 -33.500000 -16.000000
vt 1.093750 1.000000
vn 0.316228 -0.948683 -0.000000
v 17.500000 -33.500000 -32.000000
vt 1.093750 1.125000
vn 0.316228 -0.948683 -0.000000
v -24.375000 -30.375000 -32.000000
vt 1.484375 1.125000
vn -0.525731 -0.850651 -0.000000
v -24.375000 -30.375000 -16.000000
vt 1.484375 1.000000
vn -0.525731 -0.850651 -0.000000
v 24.375000 -30.375000 -16.000000
vt 1.015625 1.000000
vn 0.525731 -0.850651 -0.000000
v 24.375000 -30.375000 -32.000000
vt 1.015625 1.125000
vn 0.525731 -0.850651 -0.000000
v -30.000000 -26.000000 -32.000000
vt 1.562500 1.125000
vn -0.707107 -0.707107 -0.000000
v -30.000000 -26.000000 -16.000000
vt 1.562500 1.000000
vn -0.707107 -0.707107 -0.000000
v 30.000000 -26.000000 -16.000000
vt 0.937500 1.000000
vn 0.707107 -0.707107 -0.000000
v 30.000000 -26.000000 -32.000000
vt 0.937500 1.125000
vn 0.707107 -0.707107 -0.000000
v -34.375000 -20.375000 -32.000000
vt 1.640625 1.125000
vn -0.850651 -0.525731 -0.000000
v -34.375000 -20.375000 -16.000000
vt 1.640625 1.000000
vn -0.850651 -0.525731 -0.000000
v 34.375000 -20.375000 -16.000000
vt 0.859375 1.000000
vn 0.850651 -0.525731 -0.000000
v 34.375000 -20.375000 -32.000000
vt 0.859375 1.125000
vn 0.850651 -0.525731 -0.000000
v -37.500000 -13.500000 -32.000000
vt 1.718750 1.125000
vn -0.948683 -0.316228 -0.000000
v -37.500000 -13.500000 -16.000000
vt 1.718750 1.000000
vn -0.948683 -0.316228 -0.000000
v 37.500000 -13.500000 -16.000000
vt 0.781250 1.000000
vn 0.948683 -0.316228 -0.000000
v 37.500000 -13.500000 -32.000000
vt 0.781250 1.125000
vn 0.948683 -0.316228 -0.000000
v 37.406250 12.906250 -12.000000
vt 0.546875 1.060223
vn 0.835271 0.135076 0.532988
v 39.375000 13.375000 -16.000000
vt 0.546875 1.101130
vn 0.987087 0.160182 0.000000
v 40.000000 4.000000 -16.000000
vt 0.625000 1.101130
vn 1.000000 0.000000 -0.000000
v 38.000000 4.000000 -12.000000
vt 0.625000 1.060223
vn 0.850651 0.000000 0.525731
v 39.375000 -5.375000 -16.000000
vt 0.703125 1.101130
vn 0.987087 -0.160182 0.000000
v 37.406250 -4.906250 -12.000000
vt 0.703125 1.060223
vn 0.835271 -0.135076 0.532988
v 37.500000 -13.500000 -16.000000
vt 0.781250 1.101130
vn 0.948683 -0.316228 -0.000000
v 35.625000 -12.625000 -12.000000
vt 0.781250 1.060223
vn 0.804279 -0.268093 0.530340
v 35.625000 20.625000 -12.000000
vt 0.468750 1.060223
vn 0.804279 0.268093 0.530340
v 37.500000 21.500000 -16.000000
vt 0.468750 1.101130
vn 0.948683 0.316228 -0.000000
v 34.375000 -20.375000 -16.000000
vt 0.859375 1.101130
vn 0.850651 -0.525731 -0.000000
v 32.656250 -19.156250 -12.000000
vt 0.859375 1.060223
vn 0.714556 -0.440719 0.543301
v 32.656250 27.156250 -12.000000
vt 0.390625 1.060223
vn 0.714556 0.440719 0.543301
v 34.375000 28.375000 -16.000000
vt 0.390625 1.101130
vn 0.850651 0.525731 -0.000000
v 32.000000 4.000000 -8.000000
vt 0.625000 1.000000
vn 0.447214 0.000000 0.894427
v 31.500000 -3.500000 -8.000000
vt 0.703125 1.000000
vn 0.432214 -0.069347 0.899101
v 31.500000 11.500000 -8.000000
vt 0.546875 1.000000
vn 0.432214 0.069347 0.899101
v 30.000000 -10.000000 -8.000000
vt 0.781250 1.000000
vn 0.415029 -0.138343 0.899229
v 30.000000 18.000000 -8.000000
vt 0.468750 1.000000
vn 0.415029 0.138343 0.899229
v 27.500000 -15.500000 -8.000000
vt 0.859375 1.000000
vn 0.360054 -0.221022 0.906372
v 27.500000 23.500000 -8.000000
vt 0.390625 1.000000
vn 0.360054 0.221022 0.906372
v 28.500000 -24.500000 -12.000000
vt 0.937500 1.060223
vn 0.597160 -0.597160 0.535536
v 24.000000 -20.000000 -8.000000
vt 0.937500 1.000000
vn 0.301511 -0.301511 0.904534
v 24.000000 28.000000 -8.000000
vt 0.312500 1.000000
vn 0.301511 0.301511 0.904534
v 28.500000 32.500000 -12.000000
vt 0.312500 1.060223
vn 0.597160 0.597160 0.535536
v 23.156250 -28.656250 -12.000000
vt 1.015625 1.060223
vn 0.440719 -0.714556 0.543301
v 19.500000 -23.500000 -8.000000
vt 1.015625 1.000000
vn 0.221022 -0.360054 0.906372
v 30.000000 -26.000000 -16.000000
vt 0.937500 1.101130
vn 0.707107 -0.707107 -0.000000
v 30.000000 34.000000 -16.000000
vt 0.312500 1.101130
vn 0.707107 0.707107 -0.000000
v 40.000000 4.000000 -16.000000
vt 0.625000 1.000000
vn 1.000000 0.000000 -0.000000
v 39.375000 -5.375000 -32.000000
vt 0.703125 1.125000
vn 0.987088 -0.160182 -0.000000
v 39.375000 -5.375000 -16.000000
vt 0.703125 1.000000
vn 0.987088 -0.160182 0.000000
v 40.000000 4.000000 -32.000000
vt 0.625000 1.125000
vn 1.000000 0.000000 -0.000000
v 39.375000 13.375000 -16.000000
vt 0.546875 1.000000
vn 0.987088 0.160182 0.000000
v 39.375000 13.375000 -32.000000
vt 0.546875 1.125000
vn 0.987088 0.160182 -0.000000
v 37.500000 -13.500000 -32.000000
vt 0.781250 1.125000
vn 0.948683 -0.316228 -0.000000
v 37.500000 -13.500000 -16.000000
vt 0.781250 1.000000
vn 0.948683 -0.316228 -0.000000
v 37.500000 21.500000 -16.000000
vt 0.468750 1.000000
vn 0.948683 0.316228 -0.000000
v 37.500000 21.500000 -32.000000
vt 0.468750 1.125000
vn 0.948683 0.316228 -0.000000
f 290/290/290 291/291/291 293/293/293
f 290/290/290 292/292/292 291/291/291
f 292/292/292 294/294/294 291/291/291
f 292/292/292 295/295/295 294/294/294
f 295/295/295 302/302/302 294/294/294
f 295/295/295 303/303/303 302/302/302
f 303/303/303 306/306/306 302/302/302
f 303/303/303 307/307/307 306/306/306
f 307/307/307 310/310/310 306/306/306
f 307/307/307 311/311/311 310/310/310
f 311/311/311 314/314/314 310/310/310
f 311/311/311 315/315/315 314/314/314
f 446/446/446 443/443/443 447/447/447
f 446/446/446 442/442/442 443/443/443
f 442/442/442 441/441/441 443/443/443
f 442/442/442 438/438/438 441/441/441
f 438/438/438 439/439/439 441/441/441
f 438/438/438 440/440/440 439/439/439
f 440/440/440 444/444/444 439/439/439
f 440/440/440 445/445/445 444/444/444
f 407/407/407 404/404/404 408/408/408
f 407/407/407 403/403/403 404/404/404
f 403/403/403 400/400/400 404/404/404
f 403/403/403 399/399/399 400/400/400
f 399/399/399 396/396/396 400/400/400
f 399/399/399 395/395/395 396/396/396
f 395/395/395 392/392/392 396/396/396
f 395/395/395 391/391/391 392/392/392
f 391/391/391 388/388/388 392/392/392
f 391/391/391 387/387/387 388/388/388
f 387/387/387 386/386/386 388/388/388
f 387/387/387 383/383/383 386/386/386
f 383/383/383 384/384/384 386/386/386
f 383/383/383 385/385/385 384/384/384
f 385/385/385 389/389/389 384/384/384
f 385/385/385 390/390/390 389/389/389
f 390/390/390 393/393/393 389/389/389
f 390/390/390 394/394/394 393/393/393
f 394/394/394 397/397/397 393/393/393
f 394/394/394 398/398/398 397/397/397
f 398/398/398 401/401/401 397/397/397
f 398/398/398 402/402/402 401/401/401
f 402/402/402 405/405/405 401/401/401
f 402/402/402 406/406/406 405/405/405
f 355/355/355 352/352/352 356/356/356
f 355/355/355 351/351/351 352/352/352
f 351/351/351 350/350/350 352/352/352
f 351/351/351 347/347/347 350/350/350
f 347/347/347 348/348/348 350/350/350
f 347/347/347 349/349/349 348/348/348
f 349/349/349 353/353/353 348/348/348
f 349/349/349 354/354/354 353/353/353
f 316/316/316 313/313/313 317/317/317
f 316/316/316 312/312/312 313/313/313
f 312/312/312 309/309/309 313/313/313
f 312/312/312 308/308/308 309/309/309
f 308/308/308 305/305/305 309/309/309
f 308/308/308 304/304/304 305/305/305
f 304/304/304 301/301/301 305/305/305
f 304/304/304 300/300/300 301/301/301
f 300/300/300 299/299/299 301/301/301
f 300/300/300 296/296/296 299/299/299
f 296/296/296 297/297/297 299/299/299
f 296/296/296 298/298/298 297/297/297
f 277/277/277 270/270/270 267/267/267
f 277/277/277 278/278/278 270/270/270
f 278/278/278 272/272/272 270/270/270
f 278/278/278 281/281/281 272/272/272
f 281/281/281 274/274/274 272/272/272
f 281/281/281 283/283/283 274/274/274
f 283/283/283 285/285/285 274/274/274
f 283/283/283 286/286/286 285/285/285
f 432/432/432 421/421/421 433/433/433
f 432/432/432 429/429/429 421/421/421
f 429/429/429 417/417/417 421/421/421
f 429/429/429 427/427/427 417/417/417
f 427/427/427 409/409/409 417/417/417
f 427/427/427 425/425/425 409/409/409
f 425/425/425 412/412/412 409/409/409
f 425/425/425 423/423/423 412/412/412
f 423/423/423 414/414/414 412/412/412
f 423/423/423 424/424/424 414/414/414
f 424/424/424 416/416/416 414/414/414
f 424/424/424 426/426/426 416/416/416
f 426/426/426 420/420/420 416/416/416
f 426/426/426 428/428/428 420/420/420
f 428/428/428 430/430/430 420/420/420
f 428/428/428 431/431/431 430/430/430
f 431/431/431 434/434/434 430/430/430
f 431/431/431 435/435/435 434/434/434
f 377/377/377 357/357/357 369/369/369
f 377/377/377 375/375/375 357/357/357
f 375/375/375 360/360/360 357/357/357
f 375/375/375 373/373/373 360/360/360
f 373/373/373 362/362/362 360/360/360
f 373/373/373 371/371/371 362/362/362
f 371/371/371 364/364/364 362/362/362
f 371/371/371 372/372/372 364/364/364
f 372/372/372 366/366/366 364/364/364
f 372/372/372 374/374/374 366/366/366
f 374/374/374 368/368/368 366/366/366
f 374/374/374 376/376/376 368/368/368
f 376/376/376 378/378/378 368/368/368
f 376/376/376 379/379/379 378/378/378
f 341/341/341 330/330/330 342/342/342
f 341/341/341 338/338/338 330/330/330
f 338/338/338 326/326/326 330/330/330
f 338/338/338 336/336/336 326/326/326
f 336/336/336 318/318/318 326/326/326
f 336/336/336 334/334/334 318/318/318
f 334/334/334 321/321/321 318/318/318
f 334/334/334 332/332/332 321/321/321
f 332/332/332 323/323/323 321/321/321
f 332/332/332 333/333/333 323/323/323
f 333/333/333 325/325/325 323/323/323
f 333/333/333 335/335/335 325/325/325
f 335/335/335 329/329/329 325/325/325
f 335/335/335 337/337/337 329/329/329
f 337/337/337 339/339/339 329/329/329
f 337/337/337 340/340/340 339/339/339
f 340/340/340 343/343/343 339/339/339
f 340/340/340 344/344/344 343/343/343
f 284/284/284 265/265/265 275/275/275
f 284/284/284 282/282/282 265/265/265
f 282/282/282 261/261/261 265/265/265
f 282/282/282 279/279/279 261/261/261
f 279/279/279 263/263/263 261/261/261
f 279/279/279 280/280/280 263/263/263
f 267/267/267 269/269/269 268/268/268
f 267/267/267 270/270/270 269/269/269
f 270/270/270 271/271/271 269/269/269
f 270/270/270 272/272/272 271/271/271
f 272/272/272 273/273/273 271/271/271
f 272/272/272 274/274/274 273/273/273
f 274/274/274 287/287/287 273/273/273
f 274/274/274 285/285/285 287/287/287
f 433/433/433 422/422/422 437/437/437
f 433/433/433 421/421/421 422/422/422
f 421/421/421 418/418/418 422/422/422
f 421/421/421 417/417/417 418/418/418
f 417/417/417 410/410/410 418/418/418
f 417/417/417 409/409/409 410/410/410
f 409/409/409 411/411/411 410/410/410
f 409/409/409 412/412/412 411/411/411
f 412/412/412 413/413/413 411/411/411
f 412/412/412 414/414/414 413/413/413
f 414/414/414 415/415/415 413/413/413
f 414/414/414 416/416/416 415/415/415
f 416/416/416 419/419/419 415/415/415
f 416/416/416 420/420/420 419/419/419
f 420/420/420 436/436/436 419/419/419
f 420/420/420 430/430/430 436/436/436
f 381/381/381 370/370/370 382/382/382
f 381/381/381 369/369/369 370/370/370
f 369/369/369 358/358/358 370/370/370
f 369/369/369 357/357/357 358/358/358
f 357/357/357 359/359/359 358/358/358
f 357/357/357 360/360/360 359/359/359
f 360/360/360 361/361/361 359/359/359
f 360/360/360 362/362/362 361/361/361
f 362/362/362 363/363/363 361/361/361
f 362/362/362 364/364/364 363/363/363
f 364/364/364 365/365/365 363/363/363
f 364/364/364 366/366/366 365/365/365
f 366/366/366 367/367/367 365/365/365
f 366/366/366 368/368/368 367/367/367
f 368/368/368 380/380/380 367/367/367
f 368/368/368 378/378/378 380/380/380
f 342/342/342 331/331/331 346/346/346
f 342/342/342 330/330/330 331/331/331
f 330/330/330 327/327/327 331/331/331
f 330/330/330 326/326/326 327/327/327
f 326/326/326 319/319/319 327/327/327
f 326/326/326 318/318/318 319/319/319
f 318/318/318 320/320/320 319/319/319
f 318/318/318 321/321/321 320/320/320
f 321/321/321 322/322/322 320/320/320
f 321/321/321 323/323/323 322/322/322
f 323/323/323 324/324/324 322/322/322
f 323/323/323 325/325/325 324/324/324
f 325/325/325 328/328/328 324/324/324
f 325/325/325 329/329/329 328/328/328
f 329/329/329 345/345/345 328/328/328
f 329/329/329 339/339/339 345/345/345
f 288/288/288 276/276/276 289/289/289
f 288/288/288 275/275/275 276/276/276
f 275/275/275 266/266/266 276/276/276
f 275/275/275 265/265/265 266/266/266
f 265/265/265 264/264/264 266/266/266
f 265/265/265 261/261/261 264/264/264
f 261/261/261 262/262/262 264/264/264
f 261/261/261 263/263/263 262/262/262
f 187/187/187 189/189/189 188/188/188
f 187/187/187 190/190/190 189/189/189
f 190/190/190 191/191/191 189/189/189
f 190/190/190 192/192/192 191/191/191
f 192/192/192 201/201/201 191/191/191
f 192/192/192 202/202/202 201/201/201
f 202/202/202 203/203/203 201/201/201
f 202/202/202 204/204/204 203/203/203
f 223/223/223 218/218/218 224/224/224
f 223/223/223 217/217/217 218/218/218
f 217/217/217 216/216/216 218/218/218
f 217/217/217 215/215/215 216/216/216
f 215/215/215 214/214/214 216/216/216
f 215/215/215 213/213/213 214/214/214
f 213/213/213 212/212/212 214/214/214
f 213/213/213 211/211/211 212/212/212
f 211/211/211 208/208/208 212/212/212
f 211/211/211 207/207/207 208/208/208
f 207/207/207 209/209/209 208/208/208
f 207/207/207 210/210/210 209/209/209
f 210/210/210 219/219/219 209/209/209
f 210/210/210 220/220/220 219/219/219
f 220/220/220 221/221/221 219/219/219
f 220/220/220 222/222/222 221/221/221
f 239/239/239 238/238/238 240/240/240
f 239/239/239 237/237/237 238/238/238
f 237/237/237 236/236/236 238/238/238
f 237/237/237 235/235/235 236/236/236
f 235/235/235 234/234/234 236/236/236
f 235/235/235 233/233/233 234/234/234
f 233/233/233 232/232/232 234/234/234
f 233/233/233 231/231/231 232/232/232
f 231/231/231 230/230/230 232/232/232
f 231/231/231 229/229/229 230/230/230
f 229/229/229 226/226/226 230/230/230
f 229/229/229 225/225/225 226/226/226
f 225/225/225 227/227/227 226/226/226
f 225/225/225 228/228/228 227/227/227
f 228/228/228 241/241/241 227/227/227
f 228/228/228 242/242/242 241/241/241
f 257/257/257 256/256/256 258/258/258
f 257/257/257 255/255/255 256/256/256
f 255/255/255 250/250/250 256/256/256
f 255/255/255 249/249/249 250/250/250
f 249/249/249 248/248/248 250/250/250
f 249/249/249 247/247/247 248/248/248
f 247/247/247 246/246/246 248/248/248
f 247/247/247 243/243/243 246/246/246
f 243/243/243 244/244/244 246/246/246
f 243/243/243 245/245/245 244/244/244
f 245/245/245 251/251/251 244/244/244
f 245/245/245 252/252/252 251/251/251
f 252/252/252 253/253/253 251/251/251
f 252/252/252 254/254/254 253/253/253
f 254/254/254 259/259/259 253/253/253
f 254/254/254 260/260/260 259/259/259
f 205/205/205 200/200/200 206/206/206
f 205/205/205 199/199/199 200/200/200
f 199/199/199 198/198/198 200/200/200
f 199/199/199 197/197/197 198/198/198
f 197/197/197 196/196/196 198/198/198
f 197/197/197 193/193/193 196/196/196
f 193/193/193 194/194/194 196/196/196
f 193/193/193 195/195/195 194/194/194
g mat3m0s20
usemtl textures/blx_wtest3/blx_wt3_dgrey
v -32.000000 6.000000 -26.000000
vt 0.875016 0.828119
vn 0.000000 0.707107 0.707107
v 32.000000 6.000000 -26.000000
vt 1.374984 0.828119
vn 0.000000 0.707107 0.707107
v 32.000000 4.000000 -24.000000
vt 1.374984 0.812495
vn 0.000000 0.707107 0.707107
v -32.000000 4.000000 -24.000000
vt 0.875016 0.812495
vn 0.000000 0.707107 0.707107
f 448/448/448 450/450/450 449/449/449
f 448/448/448 451/451/451 450/450/450
