# Generated by makebsp -bsp2obj
# Source: C:/Users/German/Documents/My Games/Warfork 2.1/basewf/models/mapobjects/wdm5/sewerGrateLong
# Axis swap: Q3 Z-up -> OBJ Y-up (X=X, Y=Z, Z=-Y)
o sewerGrateLong
mtllib sewerGrateLong.mtl
g mat0m0s16
usemtl textures/blx_wtest3/blx_wt3_singlestripe
v 40.000000 4.000000 -0.000000
vt 0.000000 1.000000
vn 0.000000 1.000000 -0.000000
v 48.000000 4.000000 -0.000000
vt 0.000000 1.500000
vn 0.000000 1.000000 -0.000000
v 47.250000 4.000000 11.250000
vt 0.093750 1.500000
vn 0.000000 1.000000 -0.000000
v 39.375000 4.000000 9.375000
vt 0.093750 1.000000
vn 0.000000 1.000000 -0.000000
v 45.000000 4.000000 21.000000
vt 0.187500 1.500000
vn 0.000000 1.000000 -0.000000
v 37.500000 4.000000 17.500000
vt 0.187500 1.000000
vn 0.000000 1.000000 -0.000000
v 41.250000 4.000000 29.250000
vt 0.281250 1.500000
vn 0.000000 1.000000 -0.000000
v 34.375000 4.000000 24.375000
vt 0.281250 1.000000
vn 0.000000 1.000000 -0.000000
v 36.000000 4.000000 36.000000
vt 0.375000 1.500000
vn 0.000000 1.000000 -0.000000
v 30.000000 4.000000 30.000000
vt 0.375000 1.000000
vn 0.000000 1.000000 -0.000000
v 29.250000 4.000000 41.250000
vt 0.468750 1.500000
vn 0.000000 1.000000 -0.000000
v 24.375000 4.000000 34.375000
vt 0.468750 1.000000
vn 0.000000 1.000000 -0.000000
v 21.000000 4.000000 45.000000
vt 0.562500 1.500000
vn 0.000000 1.000000 -0.000000
v 17.500000 4.000000 37.500000
vt 0.562500 1.000000
vn 0.000000 1.000000 -0.000000
v 11.250000 4.000000 47.250000
vt 0.656250 1.500000
vn 0.000000 1.000000 -0.000000
v 9.375000 4.000000 39.375000
vt 0.656250 1.000000
vn 0.000000 1.000000 -0.000000
v 0.000000 4.000000 48.000000
vt 0.750000 1.500000
vn 0.000000 1.000000 -0.000000
v 0.000000 4.000000 40.000000
vt 0.750000 1.000000
vn 0.000000 1.000000 -0.000000
v 0.000000 4.000000 40.000000
vt 0.000000 1.000000
vn 0.000000 1.000000 -0.000000
v 0.000000 4.000000 48.000000
vt 0.000000 1.500000
vn 0.000000 1.000000 -0.000000
v -11.250000 4.000000 47.250000
vt 0.093750 1.500000
vn 0.000000 1.000000 -0.000000
v -9.375000 4.000000 39.375000
vt 0.093750 1.000000
vn 0.000000 1.000000 -0.000000
v -21.000000 4.000000 45.000000
vt 0.187500 1.500000
vn 0.000000 1.000000 -0.000000
v -17.500000 4.000000 37.500000
vt 0.187500 1.000000
vn 0.000000 1.000000 -0.000000
v -29.250000 4.000000 41.250000
vt 0.281250 1.500000
vn 0.000000 1.000000 -0.000000
v -24.375000 4.000000 34.375000
vt 0.281250 1.000000
vn 0.000000 1.000000 -0.000000
v -36.000000 4.000000 36.000000
vt 0.375000 1.500000
vn 0.000000 1.000000 -0.000000
v -30.000000 4.000000 30.000000
vt 0.375000 1.000000
vn 0.000000 1.000000 -0.000000
v -41.250000 4.000000 29.250000
vt 0.468750 1.500000
vn 0.000000 1.000000 -0.000000
v -34.375000 4.000000 24.375000
vt 0.468750 1.000000
vn 0.000000 1.000000 -0.000000
v -45.000000 4.000000 21.000000
vt 0.562500 1.500000
vn 0.000000 1.000000 -0.000000
v -37.500000 4.000000 17.500000
vt 0.562500 1.000000
vn 0.000000 1.000000 -0.000000
v -47.250000 4.000000 11.250000
vt 0.656250 1.500000
vn 0.000000 1.000000 -0.000000
v -39.375000 4.000000 9.375000
vt 0.656250 1.000000
vn 0.000000 1.000000 -0.000000
v -48.000000 4.000000 -0.000000
vt 0.750000 1.500000
vn 0.000000 1.000000 -0.000000
v -40.000000 4.000000 -0.000000
vt 0.750000 1.000000
vn 0.000000 1.000000 -0.000000
v -40.000000 4.000000 -0.000000
vt 0.000000 1.000000
vn 0.000000 1.000000 -0.000000
v -48.000000 4.000000 -0.000000
vt 0.000000 1.500000
vn 0.000000 1.000000 -0.000000
v -47.250000 4.000000 -11.250000
vt 0.093750 1.500000
vn 0.000000 1.000000 -0.000000
v -39.375000 4.000000 -9.375000
vt 0.093750 1.000000
vn 0.000000 1.000000 -0.000000
v -45.000000 4.000000 -21.000000
vt 0.187500 1.500000
vn 0.000000 1.000000 -0.000000
v -37.500000 4.000000 -17.500000
vt 0.187500 1.000000
vn 0.000000 1.000000 -0.000000
v -41.250000 4.000000 -29.250000
vt 0.281250 1.500000
vn 0.000000 1.000000 -0.000000
v -34.375000 4.000000 -24.375000
vt 0.281250 1.000000
vn 0.000000 1.000000 -0.000000
v -36.000000 4.000000 -36.000000
vt 0.375000 1.500000
vn 0.000000 1.000000 -0.000000
v -30.000000 4.000000 -30.000000
vt 0.375000 1.000000
vn 0.000000 1.000000 -0.000000
v -29.250000 4.000000 -41.250000
vt 0.468750 1.500000
vn 0.000000 1.000000 -0.000000
v -24.375000 4.000000 -34.375000
vt 0.468750 1.000000
vn 0.000000 1.000000 -0.000000
v -21.000000 4.000000 -45.000000
vt 0.562500 1.500000
vn 0.000000 1.000000 -0.000000
v -17.500000 4.000000 -37.500000
vt 0.562500 1.000000
vn 0.000000 1.000000 -0.000000
v -11.250000 4.000000 -47.250000
vt 0.656250 1.500000
vn 0.000000 1.000000 -0.000000
v -9.375000 4.000000 -39.375000
vt 0.656250 1.000000
vn 0.000000 1.000000 -0.000000
v 0.000000 4.000000 -48.000000
vt 0.750000 1.500000
vn 0.000000 1.000000 -0.000000
v 0.000000 4.000000 -40.000000
vt 0.750000 1.000000
vn 0.000000 1.000000 -0.000000
v 0.000000 4.000000 -40.000000
vt 0.000000 1.000000
vn 0.000000 1.000000 -0.000000
v 0.000000 4.000000 -48.000000
vt 0.000000 1.500000
vn 0.000000 1.000000 -0.000000
v 11.250000 4.000000 -47.250000
vt 0.093750 1.500000
vn 0.000000 1.000000 -0.000000
v 9.375000 4.000000 -39.375000
vt 0.093750 1.000000
vn 0.000000 1.000000 -0.000000
v 21.000000 4.000000 -45.000000
vt 0.187500 1.500000
vn 0.000000 1.000000 -0.000000
v 17.500000 4.000000 -37.500000
vt 0.187500 1.000000
vn 0.000000 1.000000 -0.000000
v 29.250000 4.000000 -41.250000
vt 0.281250 1.500000
vn 0.000000 1.000000 -0.000000
v 24.375000 4.000000 -34.375000
vt 0.281250 1.000000
vn 0.000000 1.000000 -0.000000
v 36.000000 4.000000 -36.000000
vt 0.375000 1.500000
vn 0.000000 1.000000 -0.000000
v 30.000000 4.000000 -30.000000
vt 0.375000 1.000000
vn 0.000000 1.000000 -0.000000
v 41.250000 4.000000 -29.250000
vt 0.468750 1.500000
vn 0.000000 1.000000 -0.000000
v 34.375000 4.000000 -24.375000
vt 0.468750 1.000000
vn 0.000000 1.000000 -0.000000
v 45.000000 4.000000 -21.000000
vt 0.562500 1.500000
vn 0.000000 1.000000 -0.000000
v 37.500000 4.000000 -17.500000
vt 0.562500 1.000000
vn 0.000000 1.000000 -0.000000
v 47.250000 4.000000 -11.250000
vt 0.656250 1.500000
vn 0.000000 1.000000 -0.000000
v 39.375000 4.000000 -9.375000
vt 0.656250 1.000000
vn 0.000000 1.000000 -0.000000
v 48.000000 4.000000 -0.000000
vt 0.750000 1.500000
vn 0.000000 1.000000 -0.000000
v 40.000000 4.000000 -0.000000
vt 0.750000 1.000000
vn 0.000000 1.000000 -0.000000
v 37.500000 4.000000 17.500000
vt 8.750000 1.500000
vn -0.948683 0.000000 -0.316228
v 39.375000 -4.000000 9.375000
vt 9.375000 1.000000
vn -0.987087 -0.000000 -0.160182
v 39.375000 4.000000 9.375000
vt 9.375000 1.500000
vn -0.987088 0.000000 -0.160182
v 37.500000 -4.000000 17.500000
vt 8.750000 1.000000
vn -0.948683 0.000000 -0.316228
v 40.000000 -4.000000 -0.000000
vt 10.000000 1.000000
vn -1.000000 0.000000 -0.000000
v 40.000000 4.000000 -0.000000
vt 10.000000 1.500000
vn -1.000000 0.000000 -0.000000
v 39.375000 -4.000000 -9.375000
vt 10.625000 1.000000
vn -0.987087 -0.000000 0.160182
v 39.375000 4.000000 -9.375000
vt 10.625000 1.500000
vn -0.987088 0.000000 0.160182
v 37.500000 -4.000000 -17.500000
vt 11.250000 1.000000
vn -0.948683 0.000000 0.316228
v 37.500000 4.000000 -17.500000
vt 11.250000 1.500000
vn -0.948683 0.000000 0.316228
v 34.375000 -4.000000 -24.375000
vt 11.875000 1.000000
vn -0.850651 0.000000 0.525731
v 34.375000 4.000000 -24.375000
vt 11.875000 1.500000
vn -0.850651 -0.000000 0.525731
v 34.375000 4.000000 24.375000
vt 8.125000 1.500000
vn -0.850651 -0.000000 -0.525731
v 34.375000 -4.000000 24.375000
vt 8.125000 1.000000
vn -0.850651 0.000000 -0.525731
v 30.000000 4.000000 30.000000
vt 7.500000 1.500000
vn -0.707107 0.000000 -0.707107
v 30.000000 -4.000000 30.000000
vt 7.500000 1.000000
vn -0.707107 0.000000 -0.707107
v 30.000000 -4.000000 -30.000000
vt 12.500000 1.000000
vn -0.707107 0.000000 0.707107
v 30.000000 4.000000 -30.000000
vt 12.500000 1.500000
vn -0.707107 0.000000 0.707107
v -9.375000 4.000000 -39.375000
vt 15.625000 1.500000
vn 0.160182 0.000000 0.987088
v -17.500000 -4.000000 -37.500000
vt 16.250000 1.000000
vn 0.316228 0.000000 0.948683
v -17.500000 4.000000 -37.500000
vt 16.250000 1.500000
vn 0.316228 0.000000 0.948683
v -9.375000 -4.000000 -39.375000
vt 15.625000 1.000000
vn 0.160182 -0.000000 0.987087
v 0.000000 4.000000 -40.000000
vt 15.000000 1.500000
vn 0.000000 0.000000 1.000000
v 0.000000 -4.000000 -40.000000
vt 15.000000 1.000000
vn 0.000000 0.000000 1.000000
v 9.375000 4.000000 -39.375000
vt 14.375000 1.500000
vn -0.160182 0.000000 0.987088
v 9.375000 -4.000000 -39.375000
vt 14.375000 1.000000
vn -0.160182 -0.000000 0.987087
v 17.500000 4.000000 -37.500000
vt 13.750000 1.500000
vn -0.316228 0.000000 0.948683
v 17.500000 -4.000000 -37.500000
vt 13.750000 1.000000
vn -0.316228 0.000000 0.948683
v 24.375000 4.000000 -34.375000
vt 13.125000 1.500000
vn -0.525731 -0.000000 0.850651
v 24.375000 -4.000000 -34.375000
vt 13.125000 1.000000
vn -0.525731 0.000000 0.850651
v -24.375000 -4.000000 -34.375000
vt 16.875000 1.000000
vn 0.525731 0.000000 0.850651
v -24.375000 4.000000 -34.375000
vt 16.875000 1.500000
vn 0.525731 -0.000000 0.850651
v -30.000000 -4.000000 -30.000000
vt 17.500000 1.000000
vn 0.707107 0.000000 0.707107
v -30.000000 4.000000 -30.000000
vt 17.500000 1.500000
vn 0.707107 0.000000 0.707107
v 30.000000 4.000000 -30.000000
vt 12.500000 1.500000
vn -0.707107 0.000000 0.707107
v 30.000000 -4.000000 -30.000000
vt 12.500000 1.000000
vn -0.707107 0.000000 0.707107
v -39.375000 4.000000 9.375000
vt 0.625000 1.500000
vn 0.987088 0.000000 -0.160182
v -39.375000 -4.000000 9.375000
vt 0.625000 1.000000
vn 0.987087 -0.000000 -0.160182
v -37.500000 -4.000000 17.500000
vt 1.250000 1.000000
vn 0.948683 0.000000 -0.316228
v -37.500000 4.000000 17.500000
vt 1.250000 1.500000
vn 0.948683 0.000000 -0.316228
v -40.000000 4.000000 -0.000000
vt 0.000000 1.500000
vn 1.000000 0.000000 -0.000000
v -40.000000 -4.000000 -0.000000
vt 0.000000 1.000000
vn 1.000000 0.000000 -0.000000
v -39.375000 4.000000 -9.375000
vt 19.375000 1.500000
vn 0.987088 0.000000 0.160182
v -40.000000 -4.000000 -0.000000
vt 20.000000 1.000000
vn 1.000000 0.000000 -0.000000
v -40.000000 4.000000 -0.000000
vt 20.000000 1.500000
vn 1.000000 0.000000 -0.000000
v -39.375000 -4.000000 -9.375000
vt 19.375000 1.000000
vn 0.987087 -0.000000 0.160182
v -37.500000 4.000000 -17.500000
vt 18.750000 1.500000
vn 0.948683 0.000000 0.316228
v -37.500000 -4.000000 -17.500000
vt 18.750000 1.000000
vn 0.948683 0.000000 0.316228
v -34.375000 4.000000 -24.375000
vt 18.125000 1.500000
vn 0.850651 -0.000000 0.525731
v -34.375000 -4.000000 -24.375000
vt 18.125000 1.000000
vn 0.850651 0.000000 0.525731
v -34.375000 -4.000000 24.375000
vt 1.875000 1.000000
vn 0.850651 0.000000 -0.525731
v -34.375000 4.000000 24.375000
vt 1.875000 1.500000
vn 0.850651 -0.000000 -0.525731
v -30.000000 -4.000000 30.000000
vt 2.500000 1.000000
vn 0.707107 0.000000 -0.707107
v -30.000000 4.000000 30.000000
vt 2.500000 1.500000
vn 0.707107 0.000000 -0.707107
v -30.000000 4.000000 -30.000000
vt 17.500000 1.500000
vn 0.707107 0.000000 0.707107
v -30.000000 -4.000000 -30.000000
vt 17.500000 1.000000
vn 0.707107 0.000000 0.707107
v 0.000000 4.000000 40.000000
vt 5.000000 1.500000
vn 0.000000 0.000000 -1.000000
v 0.000000 -4.000000 40.000000
vt 5.000000 1.000000
vn 0.000000 0.000000 -1.000000
v 9.375000 -4.000000 39.375000
vt 5.625000 1.000000
vn -0.160182 -0.000000 -0.987087
v 9.375000 4.000000 39.375000
vt 5.625000 1.500000
vn -0.160182 0.000000 -0.987088
v -9.375000 4.000000 39.375000
vt 4.375000 1.500000
vn 0.160182 0.000000 -0.987088
v -9.375000 -4.000000 39.375000
vt 4.375000 1.000000
vn 0.160182 -0.000000 -0.987087
v -17.500000 4.000000 37.500000
vt 3.750000 1.500000
vn 0.316228 0.000000 -0.948683
v -17.500000 -4.000000 37.500000
vt 3.750000 1.000000
vn 0.316228 0.000000 -0.948683
v 17.500000 -4.000000 37.500000
vt 6.250000 1.000000
vn -0.316228 0.000000 -0.948683
v 17.500000 4.000000 37.500000
vt 6.250000 1.500000
vn -0.316228 0.000000 -0.948683
v 24.375000 -4.000000 34.375000
vt 6.875000 1.000000
vn -0.525731 0.000000 -0.850651
v 24.375000 4.000000 34.375000
vt 6.875000 1.500000
vn -0.525731 -0.000000 -0.850651
v -24.375000 4.000000 34.375000
vt 3.125000 1.500000
vn 0.525731 -0.000000 -0.850651
v -24.375000 -4.000000 34.375000
vt 3.125000 1.000000
vn 0.525731 0.000000 -0.850651
v -30.000000 4.000000 30.000000
vt 2.500000 1.500000
vn 0.707107 0.000000 -0.707107
v -30.000000 -4.000000 30.000000
vt 2.500000 1.000000
vn 0.707107 0.000000 -0.707107
v 30.000000 -4.000000 30.000000
vt 7.500000 1.000000
vn -0.707107 0.000000 -0.707107
v 30.000000 4.000000 30.000000
vt 7.500000 1.500000
vn -0.707107 0.000000 -0.707107
f 1/1/1 3/3/3 2/2/2
f 1/1/1 4/4/4 3/3/3
f 4/4/4 5/5/5 3/3/3
f 4/4/4 6/6/6 5/5/5
f 6/6/6 7/7/7 5/5/5
f 6/6/6 8/8/8 7/7/7
f 8/8/8 9/9/9 7/7/7
f 8/8/8 10/10/10 9/9/9
f 10/10/10 11/11/11 9/9/9
f 10/10/10 12/12/12 11/11/11
f 12/12/12 13/13/13 11/11/11
f 12/12/12 14/14/14 13/13/13
f 14/14/14 15/15/15 13/13/13
f 14/14/14 16/16/16 15/15/15
f 16/16/16 17/17/17 15/15/15
f 16/16/16 18/18/18 17/17/17
f 19/19/19 21/21/21 20/20/20
f 19/19/19 22/22/22 21/21/21
f 22/22/22 23/23/23 21/21/21
f 22/22/22 24/24/24 23/23/23
f 24/24/24 25/25/25 23/23/23
f 24/24/24 26/26/26 25/25/25
f 26/26/26 27/27/27 25/25/25
f 26/26/26 28/28/28 27/27/27
f 28/28/28 29/29/29 27/27/27
f 28/28/28 30/30/30 29/29/29
f 30/30/30 31/31/31 29/29/29
f 30/30/30 32/32/32 31/31/31
f 32/32/32 33/33/33 31/31/31
f 32/32/32 34/34/34 33/33/33
f 34/34/34 35/35/35 33/33/33
f 34/34/34 36/36/36 35/35/35
f 55/55/55 57/57/57 56/56/56
f 55/55/55 58/58/58 57/57/57
f 58/58/58 59/59/59 57/57/57
f 58/58/58 60/60/60 59/59/59
f 60/60/60 61/61/61 59/59/59
f 60/60/60 62/62/62 61/61/61
f 62/62/62 63/63/63 61/61/61
f 62/62/62 64/64/64 63/63/63
f 64/64/64 65/65/65 63/63/63
f 64/64/64 66/66/66 65/65/65
f 66/66/66 67/67/67 65/65/65
f 66/66/66 68/68/68 67/67/67
f 68/68/68 69/69/69 67/67/67
f 68/68/68 70/70/70 69/69/69
f 70/70/70 71/71/71 69/69/69
f 70/70/70 72/72/72 71/71/71
f 113/113/113 110/110/110 114/114/114
f 113/113/113 109/109/109 110/110/110
f 109/109/109 111/111/111 110/110/110
f 109/109/109 112/112/112 111/111/111
f 112/112/112 123/123/123 111/111/111
f 112/112/112 124/124/124 123/123/123
f 124/124/124 125/125/125 123/123/123
f 124/124/124 126/126/126 125/125/125
f 143/143/143 142/142/142 144/144/144
f 143/143/143 141/141/141 142/142/142
f 141/141/141 136/136/136 142/142/142
f 141/141/141 135/135/135 136/136/136
f 135/135/135 134/134/134 136/136/136
f 135/135/135 133/133/133 134/134/134
f 133/133/133 130/130/130 134/134/134
f 133/133/133 129/129/129 130/130/130
f 129/129/129 131/131/131 130/130/130
f 129/129/129 132/132/132 131/131/131
f 132/132/132 137/137/137 131/131/131
f 132/132/132 138/138/138 137/137/137
f 138/138/138 139/139/139 137/137/137
f 138/138/138 140/140/140 139/139/139
f 140/140/140 145/145/145 139/139/139
f 140/140/140 146/146/146 145/145/145
f 87/87/87 86/86/86 88/88/88
f 87/87/87 85/85/85 86/86/86
f 85/85/85 76/76/76 86/86/86
f 85/85/85 73/73/73 76/76/76
f 73/73/73 74/74/74 76/76/76
f 73/73/73 75/75/75 74/74/74
f 75/75/75 77/77/77 74/74/74
f 75/75/75 78/78/78 77/77/77
f 78/78/78 79/79/79 77/77/77
f 78/78/78 80/80/80 79/79/79
f 80/80/80 81/81/81 79/79/79
f 80/80/80 82/82/82 81/81/81
f 82/82/82 83/83/83 81/81/81
f 82/82/82 84/84/84 83/83/83
f 84/84/84 89/89/89 83/83/83
f 84/84/84 90/90/90 89/89/89
f 107/107/107 102/102/102 108/108/108
f 107/107/107 101/101/101 102/102/102
f 101/101/101 100/100/100 102/102/102
f 101/101/101 99/99/99 100/100/100
f 99/99/99 98/98/98 100/100/100
f 99/99/99 97/97/97 98/98/98
f 97/97/97 96/96/96 98/98/98
f 97/97/97 95/95/95 96/96/96
f 95/95/95 94/94/94 96/96/96
f 95/95/95 91/91/91 94/94/94
f 91/91/91 92/92/92 94/94/94
f 91/91/91 93/93/93 92/92/92
f 93/93/93 103/103/103 92/92/92
f 93/93/93 104/104/104 103/103/103
f 104/104/104 105/105/105 103/103/103
f 104/104/104 106/106/106 105/105/105
f 127/127/127 122/122/122 128/128/128
f 127/127/127 121/121/121 122/122/122
f 121/121/121 120/120/120 122/122/122
f 121/121/121 119/119/119 120/120/120
f 119/119/119 118/118/118 120/120/120
f 119/119/119 115/115/115 118/118/118
f 115/115/115 116/116/116 118/118/118
f 115/115/115 117/117/117 116/116/116
f 37/37/37 39/39/39 38/38/38
f 37/37/37 40/40/40 39/39/39
f 40/40/40 41/41/41 39/39/39
f 40/40/40 42/42/42 41/41/41
f 42/42/42 43/43/43 41/41/41
f 42/42/42 44/44/44 43/43/43
f 44/44/44 45/45/45 43/43/43
f 44/44/44 46/46/46 45/45/45
f 46/46/46 47/47/47 45/45/45
f 46/46/46 48/48/48 47/47/47
f 48/48/48 49/49/49 47/47/47
f 48/48/48 50/50/50 49/49/49
f 50/50/50 51/51/51 49/49/49
f 50/50/50 52/52/52 51/51/51
f 52/52/52 53/53/53 51/51/51
f 52/52/52 54/54/54 53/53/53
g mat1m0s17
usemtl textures/exwsw/eXmetalrib01
v -40.000000 -4.000000 -0.000000
vt 0.000000 1.000000
vn 1.000000 0.000000 -0.000000
v -40.000000 -124.000000 -0.000000
vt 0.000000 1.468750
vn 1.000000 0.000000 -0.000000
v -39.375000 -124.000000 9.375000
vt 0.039062 1.468750
vn 0.987088 0.000000 -0.160182
v -39.375000 -4.000000 9.375000
vt 0.039062 1.000000
vn 0.987088 -0.000000 -0.160182
v -37.500000 -124.000000 17.500000
vt 0.078125 1.468750
vn 0.948683 0.000000 -0.316228
v -37.500000 -4.000000 17.500000
vt 0.078125 1.000000
vn 0.948683 0.000000 -0.316228
v -39.375000 -4.000000 -9.375000
vt 1.210938 1.000000
vn 0.987088 -0.000000 0.160182
v -40.000000 -124.000000 -0.000000
vt 1.250000 1.468750
vn 1.000000 0.000000 -0.000000
v -40.000000 -4.000000 -0.000000
vt 1.250000 1.000000
vn 1.000000 0.000000 -0.000000
v -39.375000 -124.000000 -9.375000
vt 1.210938 1.468750
vn 0.987088 0.000000 0.160182
v -37.500000 -4.000000 -17.500000
vt 1.171875 1.000000
vn 0.948683 0.000000 0.316228
v -37.500000 -124.000000 -17.500000
vt 1.171875 1.468750
vn 0.948683 0.000000 0.316228
v -34.375000 -4.000000 -24.375000
vt 1.132812 1.000000
vn 0.850651 0.000000 0.525731
v -34.375000 -124.000000 -24.375000
vt 1.132812 1.468750
vn 0.850651 0.000000 0.525731
v -34.375000 -124.000000 24.375000
vt 0.117188 1.468750
vn 0.850651 0.000000 -0.525731
v -34.375000 -4.000000 24.375000
vt 0.117188 1.000000
vn 0.850651 0.000000 -0.525731
v -30.000000 -124.000000 30.000000
vt 0.156250 1.468750
vn 0.707107 0.000000 -0.707107
v -30.000000 -4.000000 30.000000
vt 0.156250 1.000000
vn 0.707107 0.000000 -0.707107
v -30.000000 -4.000000 -30.000000
vt 1.093750 1.000000
vn 0.707107 0.000000 0.707107
v -30.000000 -124.000000 -30.000000
vt 1.093750 1.468750
vn 0.707107 0.000000 0.707107
v 9.375000 -4.000000 39.375000
vt 0.351562 1.000000
vn -0.160182 -0.000000 -0.987088
v 9.375000 -124.000000 39.375000
vt 0.351562 1.468750
vn -0.160182 0.000000 -0.987088
v 17.500000 -124.000000 37.500000
vt 0.390625 1.468750
vn -0.316228 0.000000 -0.948683
v 17.500000 -4.000000 37.500000
vt 0.390625 1.000000
vn -0.316228 0.000000 -0.948683
v 0.000000 -4.000000 40.000000
vt 0.312500 1.000000
vn 0.000000 0.000000 -1.000000
v 0.000000 -124.000000 40.000000
vt 0.312500 1.468750
vn 0.000000 0.000000 -1.000000
v -9.375000 -4.000000 39.375000
vt 0.273438 1.000000
vn 0.160182 -0.000000 -0.987088
v -9.375000 -124.000000 39.375000
vt 0.273438 1.468750
vn 0.160182 0.000000 -0.987088
v -17.500000 -4.000000 37.500000
vt 0.234375 1.000000
vn 0.316228 0.000000 -0.948683
v -17.500000 -124.000000 37.500000
vt 0.234375 1.468750
vn 0.316228 0.000000 -0.948683
v -24.375000 -4.000000 34.375000
vt 0.195312 1.000000
vn 0.525731 0.000000 -0.850651
v -24.375000 -124.000000 34.375000
vt 0.195312 1.468750
vn 0.525731 0.000000 -0.850651
v 24.375000 -124.000000 34.375000
vt 0.429688 1.468750
vn -0.525731 0.000000 -0.850651
v 24.375000 -4.000000 34.375000
vt 0.429688 1.000000
vn -0.525731 0.000000 -0.850651
v 30.000000 -124.000000 30.000000
vt 0.468750 1.468750
vn -0.707107 0.000000 -0.707107
v 30.000000 -4.000000 30.000000
vt 0.468750 1.000000
vn -0.707107 0.000000 -0.707107
v -30.000000 -4.000000 30.000000
vt 0.156250 1.000000
vn 0.707107 0.000000 -0.707107
v -30.000000 -124.000000 30.000000
vt 0.156250 1.468750
vn 0.707107 0.000000 -0.707107
v 37.500000 -4.000000 -17.500000
vt 0.703125 1.000000
vn -0.948683 0.000000 0.316228
v 37.500000 -124.000000 -17.500000
vt 0.703125 1.468750
vn -0.948683 0.000000 0.316228
v 34.375000 -124.000000 -24.375000
vt 0.742188 1.468750
vn -0.850651 0.000000 0.525731
v 34.375000 -4.000000 -24.375000
vt 0.742188 1.000000
vn -0.850651 0.000000 0.525731
v 39.375000 -4.000000 -9.375000
vt 0.664062 1.000000
vn -0.987088 -0.000000 0.160182
v 39.375000 -124.000000 -9.375000
vt 0.664062 1.468750
vn -0.987088 0.000000 0.160182
v 40.000000 -4.000000 -0.000000
vt 0.625000 1.000000
vn -1.000000 0.000000 -0.000000
v 40.000000 -124.000000 -0.000000
vt 0.625000 1.468750
vn -1.000000 0.000000 -0.000000
v 39.375000 -4.000000 9.375000
vt 0.585938 1.000000
vn -0.987088 -0.000000 -0.160182
v 39.375000 -124.000000 9.375000
vt 0.585938 1.468750
vn -0.987088 0.000000 -0.160182
v 37.500000 -4.000000 17.500000
vt 0.546875 1.000000
vn -0.948683 0.000000 -0.316228
v 37.500000 -124.000000 17.500000
vt 0.546875 1.468750
vn -0.948683 0.000000 -0.316228
v 34.375000 -4.000000 24.375000
vt 0.507812 1.000000
vn -0.850651 0.000000 -0.525731
v 34.375000 -124.000000 24.375000
vt 0.507812 1.468750
vn -0.850651 0.000000 -0.525731
v 30.000000 -4.000000 30.000000
vt 0.468750 1.000000
vn -0.707107 0.000000 -0.707107
v 30.000000 -124.000000 30.000000
vt 0.468750 1.468750
vn -0.707107 0.000000 -0.707107
v 30.000000 -124.000000 -30.000000
vt 0.781250 1.468750
vn -0.707107 0.000000 0.707107
v 30.000000 -4.000000 -30.000000
vt 0.781250 1.000000
vn -0.707107 0.000000 0.707107
v 0.000000 -4.000000 -40.000000
vt 0.937500 1.000000
vn 0.000000 0.000000 1.000000
v -9.375000 -124.000000 -39.375000
vt 0.976562 1.468750
vn 0.160182 0.000000 0.987088
v -9.375000 -4.000000 -39.375000
vt 0.976562 1.000000
vn 0.160182 -0.000000 0.987088
v 0.000000 -124.000000 -40.000000
vt 0.937500 1.468750
vn 0.000000 0.000000 1.000000
v 9.375000 -4.000000 -39.375000
vt 0.898438 1.000000
vn -0.160182 -0.000000 0.987088
v 9.375000 -124.000000 -39.375000
vt 0.898438 1.468750
vn -0.160182 0.000000 0.987088
v 17.500000 -4.000000 -37.500000
vt 0.859375 1.000000
vn -0.316228 0.000000 0.948683
v 17.500000 -124.000000 -37.500000
vt 0.859375 1.468750
vn -0.316228 0.000000 0.948683
v -17.500000 -124.000000 -37.500000
vt 1.015625 1.468750
vn 0.316228 0.000000 0.948683
v -17.500000 -4.000000 -37.500000
vt 1.015625 1.000000
vn 0.316228 0.000000 0.948683
v -24.375000 -124.000000 -34.375000
vt 1.054688 1.468750
vn 0.525731 0.000000 0.850651
v -24.375000 -4.000000 -34.375000
vt 1.054688 1.000000
vn 0.525731 0.000000 0.850651
v 24.375000 -4.000000 -34.375000
vt 0.820312 1.000000
vn -0.525731 0.000000 0.850651
v 24.375000 -124.000000 -34.375000
vt 0.820312 1.468750
vn -0.525731 0.000000 0.850651
v 30.000000 -4.000000 -30.000000
vt 0.781250 1.000000
vn -0.707107 0.000000 0.707107
v 30.000000 -124.000000 -30.000000
vt 0.781250 1.468750
vn -0.707107 0.000000 0.707107
v -30.000000 -124.000000 -30.000000
vt 1.093750 1.468750
vn 0.707107 0.000000 0.707107
v -30.000000 -4.000000 -30.000000
vt 1.093750 1.000000
vn 0.707107 0.000000 0.707107
f 147/147/147 149/149/149 148/148/148
f 147/147/147 150/150/150 149/149/149
f 150/150/150 151/151/151 149/149/149
f 150/150/150 152/152/152 151/151/151
f 152/152/152 161/161/161 151/151/151
f 152/152/152 162/162/162 161/161/161
f 162/162/162 163/163/163 161/161/161
f 162/162/162 164/164/164 163/163/163
f 183/183/183 178/178/178 184/184/184
f 183/183/183 177/177/177 178/178/178
f 177/177/177 176/176/176 178/178/178
f 177/177/177 175/175/175 176/176/176
f 175/175/175 174/174/174 176/176/176
f 175/175/175 173/173/173 174/174/174
f 173/173/173 172/172/172 174/174/174
f 173/173/173 171/171/171 172/172/172
f 171/171/171 168/168/168 172/172/172
f 171/171/171 167/167/167 168/168/168
f 167/167/167 169/169/169 168/168/168
f 167/167/167 170/170/170 169/169/169
f 170/170/170 179/179/179 169/169/169
f 170/170/170 180/180/180 179/179/179
f 180/180/180 181/181/181 179/179/179
f 180/180/180 182/182/182 181/181/181
f 199/199/199 198/198/198 200/200/200
f 199/199/199 197/197/197 198/198/198
f 197/197/197 196/196/196 198/198/198
f 197/197/197 195/195/195 196/196/196
f 195/195/195 194/194/194 196/196/196
f 195/195/195 193/193/193 194/194/194
f 193/193/193 192/192/192 194/194/194
f 193/193/193 191/191/191 192/192/192
f 191/191/191 190/190/190 192/192/192
f 191/191/191 189/189/189 190/190/190
f 189/189/189 186/186/186 190/190/190
f 189/189/189 185/185/185 186/186/186
f 185/185/185 187/187/187 186/186/186
f 185/185/185 188/188/188 187/187/187
f 188/188/188 201/201/201 187/187/187
f 188/188/188 202/202/202 201/201/201
f 217/217/217 216/216/216 218/218/218
f 217/217/217 215/215/215 216/216/216
f 215/215/215 210/210/210 216/216/216
f 215/215/215 209/209/209 210/210/210
f 209/209/209 208/208/208 210/210/210
f 209/209/209 207/207/207 208/208/208
f 207/207/207 206/206/206 208/208/208
f 207/207/207 203/203/203 206/206/206
f 203/203/203 204/204/204 206/206/206
f 203/203/203 205/205/205 204/204/204
f 205/205/205 211/211/211 204/204/204
f 205/205/205 212/212/212 211/211/211
f 212/212/212 213/213/213 211/211/211
f 212/212/212 214/214/214 213/213/213
f 214/214/214 219/219/219 213/213/213
f 214/214/214 220/220/220 219/219/219
f 165/165/165 160/160/160 166/166/166
f 165/165/165 159/159/159 160/160/160
f 159/159/159 158/158/158 160/160/160
f 159/159/159 157/157/157 158/158/158
f 157/157/157 156/156/156 158/158/158
f 157/157/157 153/153/153 156/156/156
f 153/153/153 154/154/154 156/156/156
f 153/153/153 155/155/155 154/154/154
g mat2m0s18
usemtl textures/plastic/grey65
v 2.000000 0.000000 40.000000
vt 0.000000 1.000000
vn -1.000000 0.000000 -0.000000
v 2.500000 1.500000 -40.000000
vt 0.015623 1.625000
vn -0.707107 0.707107 -0.000000
v 2.500000 1.500000 40.000000
vt 0.015623 1.000000
vn -0.707107 0.707107 -0.000000
v 2.000000 0.000000 -40.000000
vt 0.000000 1.625000
vn -1.000000 0.000000 -0.000000
v 4.000000 2.000000 -40.000000
vt 0.031250 1.625000
vn 0.000000 1.000000 -0.000000
v 4.000000 2.000000 40.000000
vt 0.031250 1.000000
vn 0.000000 1.000000 -0.000000
v 5.500000 1.500000 -40.000000
vt 0.046877 1.625000
vn 0.707107 0.707107 -0.000000
v 5.500000 1.500000 40.000000
vt 0.046877 1.000000
vn 0.707107 0.707107 -0.000000
v 2.500000 -1.500000 40.000000
vt 0.109378 1.000000
vn -0.707107 -0.707107 -0.000000
v 2.500000 -1.500000 -40.000000
vt 0.109378 1.625000
vn -0.707107 -0.707107 -0.000000
v 2.000000 0.000000 -40.000000
vt 0.125000 1.625000
vn -1.000000 0.000000 -0.000000
v 2.000000 0.000000 40.000000
vt 0.125000 1.000000
vn -1.000000 0.000000 -0.000000
v 5.500000 1.500000 40.000000
vt 0.046877 1.000000
vn 0.707107 0.707107 -0.000000
v 6.000000 0.000000 -40.000000
vt 0.062500 1.625000
vn 1.000000 0.000000 -0.000000
v 6.000000 0.000000 40.000000
vt 0.062500 1.000000
vn 1.000000 0.000000 -0.000000
v 5.500000 1.500000 -40.000000
vt 0.046877 1.625000
vn 0.707107 0.707107 -0.000000
v 5.500000 -1.500000 -40.000000
vt 0.078122 1.625000
vn 0.707107 -0.707107 -0.000000
v 5.500000 -1.500000 40.000000
vt 0.078122 1.000000
vn 0.707107 -0.707107 -0.000000
v 5.500000 -1.500000 40.000000
vt 0.078122 1.000000
vn 0.707107 -0.707107 -0.000000
v 4.000000 -2.000000 -40.000000
vt 0.093750 1.625000
vn 0.000000 -1.000000 -0.000000
v 4.000000 -2.000000 40.000000
vt 0.093750 1.000000
vn 0.000000 -1.000000 -0.000000
v 5.500000 -1.500000 -40.000000
vt 0.078122 1.625000
vn 0.707107 -0.707107 -0.000000
v 2.500000 -1.500000 -40.000000
vt 0.109378 1.625000
vn -0.707107 -0.707107 -0.000000
v 2.500000 -1.500000 40.000000
vt 0.109378 1.000000
vn -0.707107 -0.707107 -0.000000
f 221/221/221 222/222/222 224/224/224
f 221/221/221 223/223/223 222/222/222
f 223/223/223 225/225/225 222/222/222
f 223/223/223 226/226/226 225/225/225
f 226/226/226 227/227/227 225/225/225
f 226/226/226 228/228/228 227/227/227
f 233/233/233 234/234/234 236/236/236
f 233/233/233 235/235/235 234/234/234
f 235/235/235 237/237/237 234/234/234
f 235/235/235 238/238/238 237/237/237
f 239/239/239 240/240/240 242/242/242
f 239/239/239 241/241/241 240/240/240
f 241/241/241 243/243/243 240/240/240
f 241/241/241 244/244/244 243/243/243
f 229/229/229 231/231/231 230/230/230
f 229/229/229 232/232/232 231/231/231
g mat2m0s19
usemtl textures/plastic/grey65
v -2.000000 0.000000 -40.000000
vt 0.000000 1.000000
vn 1.000000 0.000000 -0.000000
v -2.500000 1.500000 40.000000
vt 0.015623 1.625000
vn 0.707107 0.707107 -0.000000
v -2.500000 1.500000 -40.000000
vt 0.015623 1.000000
vn 0.707107 0.707107 -0.000000
v -2.000000 0.000000 40.000000
vt 0.000000 1.625000
vn 1.000000 0.000000 -0.000000
v -4.000000 2.000000 40.000000
vt 0.031250 1.625000
vn 0.000000 1.000000 -0.000000
v -4.000000 2.000000 -40.000000
vt 0.031250 1.000000
vn 0.000000 1.000000 -0.000000
v -5.500000 1.500000 40.000000
vt 0.046877 1.625000
vn -0.707107 0.707107 -0.000000
v -5.500000 1.500000 -40.000000
vt 0.046877 1.000000
vn -0.707107 0.707107 -0.000000
v -2.500000 -1.500000 -40.000000
vt 0.109378 1.000000
vn 0.707107 -0.707107 -0.000000
v -2.500000 -1.500000 40.000000
vt 0.109378 1.625000
vn 0.707107 -0.707107 -0.000000
v -2.000000 0.000000 40.000000
vt 0.125000 1.625000
vn 1.000000 0.000000 -0.000000
v -2.000000 0.000000 -40.000000
vt 0.125000 1.000000
vn 1.000000 0.000000 -0.000000
v -5.500000 1.500000 -40.000000
vt 0.046877 1.000000
vn -0.707107 0.707107 -0.000000
v -6.000000 0.000000 40.000000
vt 0.062500 1.625000
vn -1.000000 0.000000 -0.000000
v -6.000000 0.000000 -40.000000
vt 0.062500 1.000000
vn -1.000000 0.000000 -0.000000
v -5.500000 1.500000 40.000000
vt 0.046877 1.625000
vn -0.707107 0.707107 -0.000000
v -5.500000 -1.500000 40.000000
vt 0.078122 1.625000
vn -0.707107 -0.707107 -0.000000
v -5.500000 -1.500000 -40.000000
vt 0.078122 1.000000
vn -0.707107 -0.707107 -0.000000
v -5.500000 -1.500000 -40.000000
vt 0.078122 1.000000
vn -0.707107 -0.707107 -0.000000
v -4.000000 -2.000000 40.000000
vt 0.093750 1.625000
vn 0.000000 -1.000000 -0.000000
v -4.000000 -2.000000 -40.000000
vt 0.093750 1.000000
vn 0.000000 -1.000000 -0.000000
v -5.500000 -1.500000 40.000000
vt 0.078122 1.625000
vn -0.707107 -0.707107 -0.000000
v -2.500000 -1.500000 40.000000
vt 0.109378 1.625000
vn 0.707107 -0.707107 -0.000000
v -2.500000 -1.500000 -40.000000
vt 0.109378 1.000000
vn 0.707107 -0.707107 -0.000000
f 245/245/245 246/246/246 248/248/248
f 245/245/245 247/247/247 246/246/246
f 247/247/247 249/249/249 246/246/246
f 247/247/247 250/250/250 249/249/249
f 250/250/250 251/251/251 249/249/249
f 250/250/250 252/252/252 251/251/251
f 257/257/257 258/258/258 260/260/260
f 257/257/257 259/259/259 258/258/258
f 259/259/259 261/261/261 258/258/258
f 259/259/259 262/262/262 261/261/261
f 263/263/263 264/264/264 266/266/266
f 263/263/263 265/265/265 264/264/264
f 265/265/265 267/267/267 264/264/264
f 265/265/265 268/268/268 267/267/267
f 253/253/253 255/255/255 254/254/254
f 253/253/253 256/256/256 255/255/255
g mat2m0s20
usemtl textures/plastic/grey65
v -13.500000 1.500000 40.000000
vt 0.015623 1.000000
vn -0.707107 0.707107 -0.000000
v -13.500000 1.500000 -40.000000
vt 0.015623 1.625000
vn -0.707107 0.707107 -0.000000
v -12.000000 2.000000 -40.000000
vt 0.031250 1.625000
vn 0.000000 1.000000 -0.000000
v -12.000000 2.000000 40.000000
vt 0.031250 1.000000
vn 0.000000 1.000000 -0.000000
v -10.500000 1.500000 -40.000000
vt 0.046877 1.625000
vn 0.707107 0.707107 -0.000000
v -10.500000 1.500000 40.000000
vt 0.046877 1.000000
vn 0.707107 0.707107 -0.000000
v -14.000000 0.000000 40.000000
vt 0.000000 1.000000
vn -1.000000 0.000000 -0.000000
v -14.000000 0.000000 -40.000000
vt 0.000000 1.625000
vn -1.000000 0.000000 -0.000000
v -12.000000 -2.000000 40.000000
vt 0.093750 1.000000
vn 0.000000 -1.000000 -0.000000
v -13.500000 -1.500000 -40.000000
vt 0.109378 1.625000
vn -0.707107 -0.707107 -0.000000
v -13.500000 -1.500000 40.000000
vt 0.109378 1.000000
vn -0.707107 -0.707107 -0.000000
v -12.000000 -2.000000 -40.000000
vt 0.093750 1.625000
vn 0.000000 -1.000000 -0.000000
v -14.000000 0.000000 -40.000000
vt 0.125000 1.625000
vn -1.000000 0.000000 -0.000000
v -14.000000 0.000000 40.000000
vt 0.125000 1.000000
vn -1.000000 0.000000 -0.000000
v -10.500000 1.500000 40.000000
vt 0.046877 1.000000
vn 0.707107 0.707107 -0.000000
v -10.000000 0.000000 -40.000000
vt 0.062500 1.625000
vn 1.000000 0.000000 -0.000000
v -10.000000 0.000000 40.000000
vt 0.062500 1.000000
vn 1.000000 0.000000 -0.000000
v -10.500000 1.500000 -40.000000
vt 0.046877 1.625000
vn 0.707107 0.707107 -0.000000
v -10.500000 -1.500000 -40.000000
vt 0.078122 1.625000
vn 0.707107 -0.707107 -0.000000
v -10.500000 -1.500000 40.000000
vt 0.078122 1.000000
vn 0.707107 -0.707107 -0.000000
v -10.500000 -1.500000 40.000000
vt 0.078122 1.000000
vn 0.707107 -0.707107 -0.000000
v -10.500000 -1.500000 -40.000000
vt 0.078122 1.625000
vn 0.707107 -0.707107 -0.000000
v -12.000000 -2.000000 -40.000000
vt 0.093750 1.625000
vn 0.000000 -1.000000 -0.000000
v -12.000000 -2.000000 40.000000
vt 0.093750 1.000000
vn 0.000000 -1.000000 -0.000000
f 275/275/275 270/270/270 276/276/276
f 275/275/275 269/269/269 270/270/270
f 269/269/269 271/271/271 270/270/270
f 269/269/269 272/272/272 271/271/271
f 272/272/272 273/273/273 271/271/271
f 272/272/272 274/274/274 273/273/273
f 283/283/283 284/284/284 286/286/286
f 283/283/283 285/285/285 284/284/284
f 285/285/285 287/287/287 284/284/284
f 285/285/285 288/288/288 287/287/287
f 289/289/289 291/291/291 290/290/290
f 289/289/289 292/292/292 291/291/291
f 277/277/277 278/278/278 280/280/280
f 277/277/277 279/279/279 278/278/278
f 279/279/279 281/281/281 278/278/278
f 279/279/279 282/282/282 281/281/281
g mat2m0s21
usemtl textures/plastic/grey65
v 13.500000 1.500000 -40.000000
vt 0.015623 1.000000
vn 0.707107 0.707107 -0.000000
v 13.500000 1.500000 40.000000
vt 0.015623 1.625000
vn 0.707107 0.707107 -0.000000
v 12.000000 2.000000 40.000000
vt 0.031250 1.625000
vn 0.000000 1.000000 -0.000000
v 12.000000 2.000000 -40.000000
vt 0.031250 1.000000
vn 0.000000 1.000000 -0.000000
v 10.500000 1.500000 40.000000
vt 0.046877 1.625000
vn -0.707107 0.707107 -0.000000
v 10.500000 1.500000 -40.000000
vt 0.046877 1.000000
vn -0.707107 0.707107 -0.000000
v 14.000000 0.000000 -40.000000
vt 0.000000 1.000000
vn 1.000000 0.000000 -0.000000
v 14.000000 0.000000 40.000000
vt 0.000000 1.625000
vn 1.000000 0.000000 -0.000000
v 12.000000 -2.000000 -40.000000
vt 0.093750 1.000000
vn 0.000000 -1.000000 -0.000000
v 13.500000 -1.500000 40.000000
vt 0.109378 1.625000
vn 0.707107 -0.707107 -0.000000
v 13.500000 -1.500000 -40.000000
vt 0.109378 1.000000
vn 0.707107 -0.707107 -0.000000
v 12.000000 -2.000000 40.000000
vt 0.093750 1.625000
vn 0.000000 -1.000000 -0.000000
v 14.000000 0.000000 40.000000
vt 0.125000 1.625000
vn 1.000000 0.000000 -0.000000
v 14.000000 0.000000 -40.000000
vt 0.125000 1.000000
vn 1.000000 0.000000 -0.000000
v 10.500000 1.500000 -40.000000
vt 0.046877 1.000000
vn -0.707107 0.707107 -0.000000
v 10.000000 0.000000 40.000000
vt 0.062500 1.625000
vn -1.000000 0.000000 -0.000000
v 10.000000 0.000000 -40.000000
vt 0.062500 1.000000
vn -1.000000 0.000000 -0.000000
v 10.500000 1.500000 40.000000
vt 0.046877 1.625000
vn -0.707107 0.707107 -0.000000
v 10.500000 -1.500000 40.000000
vt 0.078122 1.625000
vn -0.707107 -0.707107 -0.000000
v 10.500000 -1.500000 -40.000000
vt 0.078122 1.000000
vn -0.707107 -0.707107 -0.000000
v 10.500000 -1.500000 -40.000000
vt 0.078122 1.000000
vn -0.707107 -0.707107 -0.000000
v 10.500000 -1.500000 40.000000
vt 0.078122 1.625000
vn -0.707107 -0.707107 -0.000000
v 12.000000 -2.000000 40.000000
vt 0.093750 1.625000
vn 0.000000 -1.000000 -0.000000
v 12.000000 -2.000000 -40.000000
vt 0.093750 1.000000
vn 0.000000 -1.000000 -0.000000
f 299/299/299 294/294/294 300/300/300
f 299/299/299 293/293/293 294/294/294
f 293/293/293 295/295/295 294/294/294
f 293/293/293 296/296/296 295/295/295
f 296/296/296 297/297/297 295/295/295
f 296/296/296 298/298/298 297/297/297
f 307/307/307 308/308/308 310/310/310
f 307/307/307 309/309/309 308/308/308
f 309/309/309 311/311/311 308/308/308
f 309/309/309 312/312/312 311/311/311
f 313/313/313 315/315/315 314/314/314
f 313/313/313 316/316/316 315/315/315
f 301/301/301 302/302/302 304/304/304
f 301/301/301 303/303/303 302/302/302
f 303/303/303 305/305/305 302/302/302
f 303/303/303 306/306/306 305/305/305
g mat2m0s22
usemtl textures/plastic/grey65
v -29.500000 1.500000 34.000000
vt 0.015623 1.000000
vn -0.707107 0.707107 -0.000000
v -29.500000 1.500000 -34.000000
vt 0.015623 1.531250
vn -0.707107 0.707107 -0.000000
v -28.000000 2.000000 -34.000000
vt 0.031250 1.531250
vn 0.000000 1.000000 -0.000000
v -28.000000 2.000000 34.000000
vt 0.031250 1.000000
vn 0.000000 1.000000 -0.000000
v -26.500000 1.500000 -34.000000
vt 0.046877 1.531250
vn 0.707107 0.707107 -0.000000
v -26.500000 1.500000 34.000000
vt 0.046877 1.000000
vn 0.707107 0.707107 -0.000000
v -30.000000 0.000000 34.000000
vt 0.000000 1.000000
vn -1.000000 0.000000 -0.000000
v -30.000000 0.000000 -34.000000
vt 0.000000 1.531250
vn -1.000000 0.000000 -0.000000
v -28.000000 -2.000000 34.000000
vt 0.093750 1.000000
vn 0.000000 -1.000000 -0.000000
v -29.500000 -1.500000 -34.000000
vt 0.109378 1.531250
vn -0.707107 -0.707107 -0.000000
v -29.500000 -1.500000 34.000000
vt 0.109378 1.000000
vn -0.707107 -0.707107 -0.000000
v -28.000000 -2.000000 -34.000000
vt 0.093750 1.531250
vn 0.000000 -1.000000 -0.000000
v -30.000000 0.000000 -34.000000
vt 0.125000 1.531250
vn -1.000000 0.000000 -0.000000
v -30.000000 0.000000 34.000000
vt 0.125000 1.000000
vn -1.000000 0.000000 -0.000000
v -26.500000 1.500000 34.000000
vt 0.046877 1.000000
vn 0.707107 0.707107 -0.000000
v -26.000000 0.000000 -34.000000
vt 0.062500 1.531250
vn 1.000000 0.000000 -0.000000
v -26.000000 0.000000 34.000000
vt 0.062500 1.000000
vn 1.000000 0.000000 -0.000000
v -26.500000 1.500000 -34.000000
vt 0.046877 1.531250
vn 0.707107 0.707107 -0.000000
v -26.500000 -1.500000 -34.000000
vt 0.078122 1.531250
vn 0.707107 -0.707107 -0.000000
v -26.500000 -1.500000 34.000000
vt 0.078122 1.000000
vn 0.707107 -0.707107 -0.000000
v -26.500000 -1.500000 34.000000
vt 0.078122 1.000000
vn 0.707107 -0.707107 -0.000000
v -28.000000 -2.000000 -34.000000
vt 0.093750 1.531250
vn 0.000000 -1.000000 -0.000000
v -28.000000 -2.000000 34.000000
vt 0.093750 1.000000
vn 0.000000 -1.000000 -0.000000
v -26.500000 -1.500000 -34.000000
vt 0.078122 1.531250
vn 0.707107 -0.707107 -0.000000
f 323/323/323 318/318/318 324/324/324
f 323/323/323 317/317/317 318/318/318
f 317/317/317 319/319/319 318/318/318
f 317/317/317 320/320/320 319/319/319
f 320/320/320 321/321/321 319/319/319
f 320/320/320 322/322/322 321/321/321
f 331/331/331 332/332/332 334/334/334
f 331/331/331 333/333/333 332/332/332
f 333/333/333 335/335/335 332/332/332
f 333/333/333 336/336/336 335/335/335
f 337/337/337 338/338/338 340/340/340
f 337/337/337 339/339/339 338/338/338
f 325/325/325 326/326/326 328/328/328
f 325/325/325 327/327/327 326/326/326
f 327/327/327 329/329/329 326/326/326
f 327/327/327 330/330/330 329/329/329
g mat2m0s23
usemtl textures/plastic/grey65
v -18.500000 1.500000 -38.000000
vt 0.015623 1.000000
vn 0.707107 0.707107 -0.000000
v -18.500000 1.500000 38.000000
vt 0.015623 1.593750
vn 0.707107 0.707107 -0.000000
v -20.000000 2.000000 38.000000
vt 0.031250 1.593750
vn 0.000000 1.000000 -0.000000
v -20.000000 2.000000 -38.000000
vt 0.031250 1.000000
vn 0.000000 1.000000 -0.000000
v -21.500000 1.500000 38.000000
vt 0.046877 1.593750
vn -0.707107 0.707107 -0.000000
v -21.500000 1.500000 -38.000000
vt 0.046877 1.000000
vn -0.707107 0.707107 -0.000000
v -18.000000 0.000000 -38.000000
vt 0.000000 1.000000
vn 1.000000 0.000000 -0.000000
v -18.000000 0.000000 38.000000
vt 0.000000 1.593750
vn 1.000000 0.000000 -0.000000
v -20.000000 -2.000000 -38.000000
vt 0.093750 1.000000
vn 0.000000 -1.000000 -0.000000
v -18.500000 -1.500000 38.000000
vt 0.109378 1.593750
vn 0.707107 -0.707107 -0.000000
v -18.500000 -1.500000 -38.000000
vt 0.109378 1.000000
vn 0.707107 -0.707107 -0.000000
v -20.000000 -2.000000 38.000000
vt 0.093750 1.593750
vn 0.000000 -1.000000 -0.000000
v -18.000000 0.000000 38.000000
vt 0.125000 1.593750
vn 1.000000 0.000000 -0.000000
v -18.000000 0.000000 -38.000000
vt 0.125000 1.000000
vn 1.000000 0.000000 -0.000000
v -21.500000 1.500000 -38.000000
vt 0.046877 1.000000
vn -0.707107 0.707107 -0.000000
v -22.000000 0.000000 38.000000
vt 0.062500 1.593750
vn -1.000000 0.000000 -0.000000
v -22.000000 0.000000 -38.000000
vt 0.062500 1.000000
vn -1.000000 0.000000 -0.000000
v -21.500000 1.500000 38.000000
vt 0.046877 1.593750
vn -0.707107 0.707107 -0.000000
v -21.500000 -1.500000 38.000000
vt 0.078122 1.593750
vn -0.707107 -0.707107 -0.000000
v -21.500000 -1.500000 -38.000000
vt 0.078122 1.000000
vn -0.707107 -0.707107 -0.000000
v -21.500000 -1.500000 -38.000000
vt 0.078122 1.000000
vn -0.707107 -0.707107 -0.000000
v -21.500000 -1.500000 38.000000
vt 0.078122 1.593750
vn -0.707107 -0.707107 -0.000000
v -20.000000 -2.000000 38.000000
vt 0.093750 1.593750
vn 0.000000 -1.000000 -0.000000
v -20.000000 -2.000000 -38.000000
vt 0.093750 1.000000
vn 0.000000 -1.000000 -0.000000
f 347/347/347 342/342/342 348/348/348
f 347/347/347 341/341/341 342/342/342
f 341/341/341 343/343/343 342/342/342
f 341/341/341 344/344/344 343/343/343
f 344/344/344 345/345/345 343/343/343
f 344/344/344 346/346/346 345/345/345
f 355/355/355 356/356/356 358/358/358
f 355/355/355 357/357/357 356/356/356
f 357/357/357 359/359/359 356/356/356
f 357/357/357 360/360/360 359/359/359
f 361/361/361 363/363/363 362/362/362
f 361/361/361 364/364/364 363/363/363
f 349/349/349 350/350/350 352/352/352
f 349/349/349 351/351/351 350/350/350
f 351/351/351 353/353/353 350/350/350
f 351/351/351 354/354/354 353/353/353
g mat2m0s24
usemtl textures/plastic/grey65
v 18.500000 1.500000 38.000000
vt 0.015623 1.000000
vn -0.707107 0.707107 -0.000000
v 18.500000 1.500000 -38.000000
vt 0.015623 1.593750
vn -0.707107 0.707107 -0.000000
v 20.000000 2.000000 -38.000000
vt 0.031250 1.593750
vn 0.000000 1.000000 -0.000000
v 20.000000 2.000000 38.000000
vt 0.031250 1.000000
vn 0.000000 1.000000 -0.000000
v 21.500000 1.500000 -38.000000
vt 0.046877 1.593750
vn 0.707107 0.707107 -0.000000
v 21.500000 1.500000 38.000000
vt 0.046877 1.000000
vn 0.707107 0.707107 -0.000000
v 18.000000 0.000000 38.000000
vt 0.000000 1.000000
vn -1.000000 0.000000 -0.000000
v 18.000000 0.000000 -38.000000
vt 0.000000 1.593750
vn -1.000000 0.000000 -0.000000
v 20.000000 -2.000000 38.000000
vt 0.093750 1.000000
vn 0.000000 -1.000000 -0.000000
v 18.500000 -1.500000 -38.000000
vt 0.109378 1.593750
vn -0.707107 -0.707107 -0.000000
v 18.500000 -1.500000 38.000000
vt 0.109378 1.000000
vn -0.707107 -0.707107 -0.000000
v 20.000000 -2.000000 -38.000000
vt 0.093750 1.593750
vn 0.000000 -1.000000 -0.000000
v 18.000000 0.000000 -38.000000
vt 0.125000 1.593750
vn -1.000000 0.000000 -0.000000
v 18.000000 0.000000 38.000000
vt 0.125000 1.000000
vn -1.000000 0.000000 -0.000000
v 21.500000 1.500000 38.000000
vt 0.046877 1.000000
vn 0.707107 0.707107 -0.000000
v 22.000000 0.000000 -38.000000
vt 0.062500 1.593750
vn 1.000000 0.000000 -0.000000
v 22.000000 0.000000 38.000000
vt 0.062500 1.000000
vn 1.000000 0.000000 -0.000000
v 21.500000 1.500000 -38.000000
vt 0.046877 1.593750
vn 0.707107 0.707107 -0.000000
v 21.500000 -1.500000 -38.000000
vt 0.078122 1.593750
vn 0.707107 -0.707107 -0.000000
v 21.500000 -1.500000 38.000000
vt 0.078122 1.000000
vn 0.707107 -0.707107 -0.000000
v 21.500000 -1.500000 38.000000
vt 0.078122 1.000000
vn 0.707107 -0.707107 -0.000000
v 21.500000 -1.500000 -38.000000
vt 0.078122 1.593750
vn 0.707107 -0.707107 -0.000000
v 20.000000 -2.000000 -38.000000
vt 0.093750 1.593750
vn 0.000000 -1.000000 -0.000000
v 20.000000 -2.000000 38.000000
vt 0.093750 1.000000
vn 0.000000 -1.000000 -0.000000
f 371/371/371 366/366/366 372/372/372
f 371/371/371 365/365/365 366/366/366
f 365/365/365 367/367/367 366/366/366
f 365/365/365 368/368/368 367/367/367
f 368/368/368 369/369/369 367/367/367
f 368/368/368 370/370/370 369/369/369
f 379/379/379 380/380/380 382/382/382
f 379/379/379 381/381/381 380/380/380
f 381/381/381 383/383/383 380/380/380
f 381/381/381 384/384/384 383/383/383
f 385/385/385 387/387/387 386/386/386
f 385/385/385 388/388/388 387/387/387
f 373/373/373 374/374/374 376/376/376
f 373/373/373 375/375/375 374/374/374
f 375/375/375 377/377/377 374/374/374
f 375/375/375 378/378/378 377/377/377
g mat2m0s25
usemtl textures/plastic/grey65
v 26.000000 0.000000 34.000000
vt 0.000000 1.000000
vn -1.000000 0.000000 -0.000000
v 26.500000 1.500000 -34.000000
vt 0.015623 1.531250
vn -0.707107 0.707107 -0.000000
v 26.500000 1.500000 34.000000
vt 0.015623 1.000000
vn -0.707107 0.707107 -0.000000
v 26.000000 0.000000 -34.000000
vt 0.000000 1.531250
vn -1.000000 0.000000 -0.000000
v 28.000000 2.000000 -34.000000
vt 0.031250 1.531250
vn 0.000000 1.000000 -0.000000
v 28.000000 2.000000 34.000000
vt 0.031250 1.000000
vn 0.000000 1.000000 -0.000000
v 29.500000 1.500000 -34.000000
vt 0.046877 1.531250
vn 0.707107 0.707107 -0.000000
v 29.500000 1.500000 34.000000
vt 0.046877 1.000000
vn 0.707107 0.707107 -0.000000
v 28.000000 -2.000000 34.000000
vt 0.093750 1.000000
vn 0.000000 -1.000000 -0.000000
v 26.500000 -1.500000 -34.000000
vt 0.109378 1.531250
vn -0.707107 -0.707107 -0.000000
v 26.500000 -1.500000 34.000000
vt 0.109378 1.000000
vn -0.707107 -0.707107 -0.000000
v 28.000000 -2.000000 -34.000000
vt 0.093750 1.531250
vn 0.000000 -1.000000 -0.000000
v 26.000000 0.000000 -34.000000
vt 0.125000 1.531250
vn -1.000000 0.000000 -0.000000
v 26.000000 0.000000 34.000000
vt 0.125000 1.000000
vn -1.000000 0.000000 -0.000000
v 29.500000 1.500000 34.000000
vt 0.046877 1.000000
vn 0.707107 0.707107 -0.000000
v 30.000000 0.000000 -34.000000
vt 0.062500 1.531250
vn 1.000000 0.000000 -0.000000
v 30.000000 0.000000 34.000000
vt 0.062500 1.000000
vn 1.000000 0.000000 -0.000000
v 29.500000 1.500000 -34.000000
vt 0.046877 1.531250
vn 0.707107 0.707107 -0.000000
v 29.500000 -1.500000 -34.000000
vt 0.078122 1.531250
vn 0.707107 -0.707107 -0.000000
v 29.500000 -1.500000 34.000000
vt 0.078122 1.000000
vn 0.707107 -0.707107 -0.000000
v 29.500000 -1.500000 34.000000
vt 0.078122 1.000000
vn 0.707107 -0.707107 -0.000000
v 29.500000 -1.500000 -34.000000
vt 0.078122 1.531250
vn 0.707107 -0.707107 -0.000000
v 28.000000 -2.000000 -34.000000
vt 0.093750 1.531250
vn 0.000000 -1.000000 -0.000000
v 28.000000 -2.000000 34.000000
vt 0.093750 1.000000
vn 0.000000 -1.000000 -0.000000
f 389/389/389 390/390/390 392/392/392
f 389/389/389 391/391/391 390/390/390
f 391/391/391 393/393/393 390/390/390
f 391/391/391 394/394/394 393/393/393
f 394/394/394 395/395/395 393/393/393
f 394/394/394 396/396/396 395/395/395
f 403/403/403 404/404/404 406/406/406
f 403/403/403 405/405/405 404/404/404
f 405/405/405 407/407/407 404/404/404
f 405/405/405 408/408/408 407/407/407
f 409/409/409 411/411/411 410/410/410
f 409/409/409 412/412/412 411/411/411
f 397/397/397 398/398/398 400/400/400
f 397/397/397 399/399/399 398/398/398
f 399/399/399 401/401/401 398/398/398
f 399/399/399 402/402/402 401/401/401
g mat2m0s26
usemtl textures/plastic/grey65
v 34.500000 1.500000 25.000000
vt 0.015623 1.000000
vn -0.707107 0.707107 -0.000000
v 34.500000 1.500000 -25.000000
vt 0.015623 1.390620
vn -0.707107 0.707107 -0.000000
v 36.000000 2.000000 -25.000000
vt 0.031250 1.390620
vn 0.000000 1.000000 -0.000000
v 36.000000 2.000000 25.000000
vt 0.031250 1.000000
vn 0.000000 1.000000 -0.000000
v 37.500000 1.500000 -25.000000
vt 0.046877 1.390620
vn 0.707107 0.707107 -0.000000
v 37.500000 1.500000 25.000000
vt 0.046877 1.000000
vn 0.707107 0.707107 -0.000000
v 34.000000 0.000000 25.000000
vt 0.000000 1.000000
vn -1.000000 0.000000 -0.000000
v 34.000000 0.000000 -25.000000
vt 0.000000 1.390620
vn -1.000000 0.000000 -0.000000
v 36.000000 -2.000000 25.000000
vt 0.093750 1.000000
vn 0.000000 -1.000000 -0.000000
v 34.500000 -1.500000 -25.000000
vt 0.109378 1.390620
vn -0.707107 -0.707107 -0.000000
v 34.500000 -1.500000 25.000000
vt 0.109378 1.000000
vn -0.707107 -0.707107 -0.000000
v 36.000000 -2.000000 -25.000000
vt 0.093750 1.390620
vn 0.000000 -1.000000 -0.000000
v 34.000000 0.000000 -25.000000
vt 0.125000 1.390620
vn -1.000000 0.000000 -0.000000
v 34.000000 0.000000 25.000000
vt 0.125000 1.000000
vn -1.000000 0.000000 -0.000000
v 37.500000 1.500000 25.000000
vt 0.046877 1.000000
vn 0.707107 0.707107 -0.000000
v 38.000000 0.000000 -25.000000
vt 0.062500 1.390620
vn 1.000000 0.000000 -0.000000
v 38.000000 0.000000 25.000000
vt 0.062500 1.000000
vn 1.000000 0.000000 -0.000000
v 37.500000 1.500000 -25.000000
vt 0.046877 1.390620
vn 0.707107 0.707107 -0.000000
v 37.500000 -1.500000 -25.000000
vt 0.078122 1.390620
vn 0.707107 -0.707107 -0.000000
v 37.500000 -1.500000 25.000000
vt 0.078122 1.000000
vn 0.707107 -0.707107 -0.000000
v 37.500000 -1.500000 25.000000
vt 0.078122 1.000000
vn 0.707107 -0.707107 -0.000000
v 36.000000 -2.000000 -25.000000
vt 0.093750 1.390620
vn 0.000000 -1.000000 -0.000000
v 36.000000 -2.000000 25.000000
vt 0.093750 1.000000
vn 0.000000 -1.000000 -0.000000
v 37.500000 -1.500000 -25.000000
vt 0.078122 1.390620
vn 0.707107 -0.707107 -0.000000
f 419/419/419 414/414/414 420/420/420
f 419/419/419 413/413/413 414/414/414
f 413/413/413 415/415/415 414/414/414
f 413/413/413 416/416/416 415/415/415
f 416/416/416 417/417/417 415/415/415
f 416/416/416 418/418/418 417/417/417
f 427/427/427 428/428/428 430/430/430
f 427/427/427 429/429/429 428/428/428
f 429/429/429 431/431/431 428/428/428
f 429/429/429 432/432/432 431/431/431
f 433/433/433 434/434/434 436/436/436
f 433/433/433 435/435/435 434/434/434
f 421/421/421 422/422/422 424/424/424
f 421/421/421 423/423/423 422/422/422
f 423/423/423 425/425/425 422/422/422
f 423/423/423 426/426/426 425/425/425
g mat2m0s27
usemtl textures/plastic/grey65
v -38.000000 0.000000 25.000000
vt 0.000000 1.000000
vn -1.000000 0.000000 -0.000000
v -37.500000 1.500000 -25.000000
vt 0.015623 1.390620
vn -0.707107 0.707107 -0.000000
v -37.500000 1.500000 25.000000
vt 0.015623 1.000000
vn -0.707107 0.707107 -0.000000
v -38.000000 0.000000 -25.000000
vt 0.000000 1.390620
vn -1.000000 0.000000 -0.000000
v -36.000000 2.000000 -25.000000
vt 0.031250 1.390620
vn 0.000000 1.000000 -0.000000
v -36.000000 2.000000 25.000000
vt 0.031250 1.000000
vn 0.000000 1.000000 -0.000000
v -34.500000 1.500000 -25.000000
vt 0.046877 1.390620
vn 0.707107 0.707107 -0.000000
v -34.500000 1.500000 25.000000
vt 0.046877 1.000000
vn 0.707107 0.707107 -0.000000
v -36.000000 -2.000000 25.000000
vt 0.093750 1.000000
vn 0.000000 -1.000000 -0.000000
v -37.500000 -1.500000 -25.000000
vt 0.109378 1.390620
vn -0.707107 -0.707107 -0.000000
v -37.500000 -1.500000 25.000000
vt 0.109378 1.000000
vn -0.707107 -0.707107 -0.000000
v -36.000000 -2.000000 -25.000000
vt 0.093750 1.390620
vn 0.000000 -1.000000 -0.000000
v -38.000000 0.000000 -25.000000
vt 0.125000 1.390620
vn -1.000000 0.000000 -0.000000
v -38.000000 0.000000 25.000000
vt 0.125000 1.000000
vn -1.000000 0.000000 -0.000000
v -34.500000 1.500000 25.000000
vt 0.046877 1.000000
vn 0.707107 0.707107 -0.000000
v -34.000000 0.000000 -25.000000
vt 0.062500 1.390620
vn 1.000000 0.000000 -0.000000
v -34.000000 0.000000 25.000000
vt 0.062500 1.000000
vn 1.000000 0.000000 -0.000000
v -34.500000 1.500000 -25.000000
vt 0.046877 1.390620
vn 0.707107 0.707107 -0.000000
v -34.500000 -1.500000 -25.000000
vt 0.078122 1.390620
vn 0.707107 -0.707107 -0.000000
v -34.500000 -1.500000 25.000000
vt 0.078122 1.000000
vn 0.707107 -0.707107 -0.000000
v -34.500000 -1.500000 25.000000
vt 0.078122 1.000000
vn 0.707107 -0.707107 -0.000000
v -36.000000 -2.000000 -25.000000
vt 0.093750 1.390620
vn 0.000000 -1.000000 -0.000000
v -36.000000 -2.000000 25.000000
vt 0.093750 1.000000
vn 0.000000 -1.000000 -0.000000
v -34.500000 -1.500000 -25.000000
vt 0.078122 1.390620
vn 0.707107 -0.707107 -0.000000
f 437/437/437 438/438/438 440/440/440
f 437/437/437 439/439/439 438/438/438
f 439/439/439 441/441/441 438/438/438
f 439/439/439 442/442/442 441/441/441
f 442/442/442 443/443/443 441/441/441
f 442/442/442 444/444/444 443/443/443
f 451/451/451 452/452/452 454/454/454
f 451/451/451 453/453/453 452/452/452
f 453/453/453 455/455/455 452/452/452
f 453/453/453 456/456/456 455/455/455
f 457/457/457 458/458/458 460/460/460
f 457/457/457 459/459/459 458/458/458
f 445/445/445 446/446/446 448/448/448
f 445/445/445 447/447/447 446/446/446
f 447/447/447 449/449/449 446/446/446
f 447/447/447 450/450/450 449/449/449
